<svg width="1028" height="546" viewBox="0 0 1028 546" fill="none" xmlns="http://www.w3.org/2000/svg">
<path d="M3.47168 545.1H1026.19" stroke="#CCCCCC" stroke-width="1.70056"/>
<path d="M3.47168 477.077H1026.19" stroke="#CCCCCC" stroke-width="1.70056"/>
<path d="M3.47168 409.055H1026.19" stroke="#CCCCCC" stroke-width="1.70056"/>
<path d="M3.47168 341.032H1026.19" stroke="#CCCCCC" stroke-width="1.70056"/>
<path d="M3.47168 273.01H1026.19" stroke="#CCCCCC" stroke-width="1.70056"/>
<path d="M3.47168 273.01V545.1" stroke="#CCCCCC" stroke-width="1.70056"/>
<path d="M54.6084 273.01V545.1" stroke="#CCCCCC" stroke-width="1.70056"/>
<path d="M105.743 273.01V545.1" stroke="#CCCCCC" stroke-width="1.70056"/>
<path d="M156.88 273.01V545.1" stroke="#CCCCCC" stroke-width="1.70056"/>
<path d="M208.015 273.01V545.1" stroke="#CCCCCC" stroke-width="1.70056"/>
<path d="M259.151 273.01V545.1" stroke="#CCCCCC" stroke-width="1.70056"/>
<path d="M310.288 273.01V545.1" stroke="#CCCCCC" stroke-width="1.70056"/>
<path d="M361.424 273.01V545.1" stroke="#CCCCCC" stroke-width="1.70056"/>
<path d="M412.56 273.01V545.1" stroke="#CCCCCC" stroke-width="1.70056"/>
<path d="M463.694 273.01V545.1" stroke="#CCCCCC" stroke-width="1.70056"/>
<path d="M514.831 273.01V545.1" stroke="#CCCCCC" stroke-width="1.70056"/>
<path d="M565.968 273.01V545.1" stroke="#CCCCCC" stroke-width="1.70056"/>
<path d="M617.103 273.01V545.1" stroke="#CCCCCC" stroke-width="1.70056"/>
<path d="M668.239 273.01V545.1" stroke="#CCCCCC" stroke-width="1.70056"/>
<path d="M719.374 273.01V545.1" stroke="#CCCCCC" stroke-width="1.70056"/>
<path d="M770.511 273.01V545.1" stroke="#CCCCCC" stroke-width="1.70056"/>
<path d="M821.646 273.01V545.1" stroke="#CCCCCC" stroke-width="1.70056"/>
<path d="M872.782 273.01V545.1" stroke="#CCCCCC" stroke-width="1.70056"/>
<path d="M923.919 273.01V545.1" stroke="#CCCCCC" stroke-width="1.70056"/>
<path d="M975.054 273.01V545.1" stroke="#CCCCCC" stroke-width="1.70056"/>
<path d="M1026.19 273.01V545.1" stroke="#CCCCCC" stroke-width="1.70056"/>
<path d="M3.45898 273.09H1026.18" stroke="#CCCCCC" stroke-width="1.70056"/>
<path d="M3.45898 205.067H1026.18" stroke="#CCCCCC" stroke-width="1.70056"/>
<path d="M3.45898 137.045H1026.18" stroke="#CCCCCC" stroke-width="1.70056"/>
<path d="M3.45898 69.0225H1026.18" stroke="#CCCCCC" stroke-width="1.70056"/>
<path d="M3.45898 1H1026.18" stroke="#CCCCCC" stroke-width="1.70056"/>
<path d="M3.45898 1V273.09" stroke="#CCCCCC" stroke-width="1.70056"/>
<path d="M54.5957 1V273.09" stroke="#CCCCCC" stroke-width="1.70056"/>
<path d="M105.73 1V273.09" stroke="#CCCCCC" stroke-width="1.70056"/>
<path d="M156.866 1V273.09" stroke="#CCCCCC" stroke-width="1.70056"/>
<path d="M208.002 1V273.09" stroke="#CCCCCC" stroke-width="1.70056"/>
<path d="M259.138 1V273.09" stroke="#CCCCCC" stroke-width="1.70056"/>
<path d="M310.274 1V273.09" stroke="#CCCCCC" stroke-width="1.70056"/>
<path d="M361.41 1V273.09" stroke="#CCCCCC" stroke-width="1.70056"/>
<path d="M412.547 1V273.09" stroke="#CCCCCC" stroke-width="1.70056"/>
<path d="M463.682 1V273.09" stroke="#CCCCCC" stroke-width="1.70056"/>
<path d="M514.818 1V273.09" stroke="#CCCCCC" stroke-width="1.70056"/>
<path d="M565.955 1V273.09" stroke="#CCCCCC" stroke-width="1.70056"/>
<path d="M617.089 1V273.09" stroke="#CCCCCC" stroke-width="1.70056"/>
<path d="M668.227 1V273.09" stroke="#CCCCCC" stroke-width="1.70056"/>
<path d="M719.361 1V273.09" stroke="#CCCCCC" stroke-width="1.70056"/>
<path d="M770.497 1V273.09" stroke="#CCCCCC" stroke-width="1.70056"/>
<path d="M821.634 1V273.09" stroke="#CCCCCC" stroke-width="1.70056"/>
<path d="M872.769 1V273.09" stroke="#CCCCCC" stroke-width="1.70056"/>
<path d="M923.905 1V273.09" stroke="#CCCCCC" stroke-width="1.70056"/>
<path d="M975.04 1V273.09" stroke="#CCCCCC" stroke-width="1.70056"/>
<path d="M1026.18 1V273.09" stroke="#CCCCCC" stroke-width="1.70056"/>
<line y1="-2.5" x2="1098.22" y2="-2.5" transform="matrix(0.931311 -0.364226 0.367821 0.929897 3.04297 537)" stroke="#FF0000" stroke-width="5"/>
<line y1="-2.5" x2="1030.72" y2="-2.5" transform="matrix(0.992259 -0.124185 0.125579 0.992084 3.04297 537)" stroke="#FF7A00" stroke-width="5"/>
<line y1="-2.5" x2="1124.55" y2="-2.5" transform="matrix(0.905165 -0.425059 0.429019 0.903295 3 486)" stroke="#0038FF" stroke-width="5"/>
<path d="M461.422 39.5455V57H456.684V39.5455H461.422ZM468.441 49.6364V57H463.736V43.9091H468.202V46.3977H468.338C468.623 45.5682 469.123 44.9176 469.838 44.446C470.56 43.9744 471.401 43.7386 472.361 43.7386C473.287 43.7386 474.091 43.9517 474.773 44.3778C475.461 44.7983 475.992 45.3778 476.367 46.1165C476.748 46.8551 476.935 47.6989 476.929 48.6477V57H472.225V49.6364C472.23 48.9886 472.066 48.4801 471.73 48.1108C471.401 47.7415 470.941 47.5568 470.35 47.5568C469.963 47.5568 469.625 47.642 469.336 47.8125C469.051 47.9773 468.833 48.2159 468.679 48.5284C468.526 48.8352 468.446 49.2045 468.441 49.6364ZM485.559 57.2386C484.138 57.2386 482.922 56.9574 481.911 56.3949C480.9 55.8267 480.124 55.0369 479.584 54.0256C479.044 53.0085 478.775 51.8295 478.775 50.4886C478.775 49.1477 479.044 47.9716 479.584 46.9602C480.124 45.9432 480.9 45.1534 481.911 44.5909C482.922 44.0227 484.138 43.7386 485.559 43.7386C486.843 43.7386 487.953 43.9716 488.891 44.4375C489.834 44.8977 490.564 45.5511 491.081 46.3977C491.598 47.2386 491.86 48.2273 491.865 49.3636H487.502C487.439 48.6761 487.24 48.1534 486.905 47.7955C486.576 47.4318 486.15 47.25 485.627 47.25C485.218 47.25 484.86 47.3693 484.553 47.608C484.246 47.8409 484.007 48.196 483.837 48.6733C483.667 49.1449 483.581 49.7386 483.581 50.4545C483.581 51.1705 483.667 51.767 483.837 52.2443C484.007 52.7159 484.246 53.071 484.553 53.3097C484.86 53.5426 485.218 53.6591 485.627 53.6591C485.973 53.6591 486.28 53.5795 486.547 53.4205C486.814 53.2557 487.03 53.017 487.195 52.7045C487.365 52.3864 487.468 52 487.502 51.5455H491.865C491.848 52.6989 491.584 53.7045 491.073 54.5625C490.561 55.4148 489.837 56.0739 488.9 56.5398C487.968 57.0057 486.854 57.2386 485.559 57.2386ZM493.806 57V43.9091H498.375V46.3977H498.511C498.75 45.4773 499.127 44.804 499.645 44.3778C500.167 43.9517 500.778 43.7386 501.477 43.7386C501.681 43.7386 501.883 43.7557 502.082 43.7898C502.287 43.8182 502.483 43.8608 502.67 43.9176V47.9318C502.437 47.8523 502.15 47.7926 501.809 47.7528C501.468 47.7131 501.176 47.6932 500.931 47.6932C500.471 47.6932 500.056 47.7983 499.687 48.0085C499.324 48.2131 499.037 48.5028 498.826 48.8778C498.616 49.2472 498.511 49.6818 498.511 50.1818V57H493.806ZM509.735 57.2386C508.338 57.2386 507.133 56.9716 506.122 56.4375C505.116 55.8977 504.341 55.125 503.795 54.1193C503.255 53.108 502.985 51.8977 502.985 50.4886C502.985 49.1364 503.258 47.9545 503.804 46.9432C504.349 45.9318 505.119 45.1449 506.113 44.5824C507.108 44.0199 508.281 43.7386 509.633 43.7386C510.622 43.7386 511.517 43.892 512.318 44.1989C513.119 44.5057 513.804 44.9517 514.372 45.5369C514.94 46.1165 515.377 46.821 515.684 47.6506C515.991 48.4801 516.145 49.4148 516.145 50.4545V51.5455H504.451V48.9545H511.815C511.809 48.5795 511.713 48.25 511.525 47.9659C511.343 47.6761 511.096 47.4517 510.784 47.2926C510.477 47.1278 510.127 47.0455 509.735 47.0455C509.355 47.0455 509.005 47.1278 508.687 47.2926C508.369 47.4517 508.113 47.6733 507.92 47.9574C507.733 48.2415 507.633 48.5739 507.622 48.9545V51.75C507.622 52.1705 507.71 52.5455 507.886 52.875C508.062 53.2045 508.315 53.4631 508.645 53.6506C508.974 53.8381 509.372 53.9318 509.838 53.9318C510.162 53.9318 510.457 53.8864 510.724 53.7955C510.997 53.7045 511.23 53.5739 511.423 53.4034C511.616 53.2273 511.758 53.017 511.849 52.7727H516.145C515.997 53.6818 515.647 54.4716 515.096 55.142C514.545 55.8068 513.815 56.3239 512.906 56.6932C512.002 57.0568 510.946 57.2386 509.735 57.2386ZM521.712 57.2045C520.877 57.2045 520.138 57.0682 519.496 56.7955C518.86 56.517 518.36 56.0966 517.996 55.5341C517.632 54.9716 517.451 54.2557 517.451 53.3864C517.451 52.6705 517.573 52.0597 517.817 51.554C518.061 51.0426 518.402 50.625 518.84 50.3011C519.277 49.9773 519.786 49.7301 520.365 49.5597C520.951 49.3892 521.581 49.2784 522.257 49.2273C522.99 49.1705 523.578 49.1023 524.022 49.0227C524.471 48.9375 524.794 48.821 524.993 48.6733C525.192 48.5199 525.292 48.3182 525.292 48.0682V48.0341C525.292 47.6932 525.161 47.4318 524.9 47.25C524.638 47.0682 524.303 46.9773 523.894 46.9773C523.445 46.9773 523.078 47.0767 522.794 47.2756C522.516 47.4687 522.348 47.767 522.292 48.1705H517.962C518.019 47.375 518.272 46.642 518.721 45.9716C519.175 45.2955 519.837 44.7557 520.706 44.3523C521.576 43.9432 522.661 43.7386 523.962 43.7386C524.9 43.7386 525.74 43.8494 526.485 44.071C527.229 44.2869 527.863 44.5909 528.385 44.983C528.908 45.3693 529.306 45.8239 529.578 46.3466C529.857 46.8636 529.996 47.4261 529.996 48.0341V57H525.598V55.1591H525.496C525.235 55.6477 524.917 56.0426 524.542 56.3438C524.172 56.6449 523.749 56.8636 523.272 57C522.8 57.1364 522.28 57.2045 521.712 57.2045ZM523.246 54.2386C523.604 54.2386 523.939 54.1648 524.252 54.017C524.57 53.8693 524.828 53.6562 525.027 53.3778C525.226 53.0994 525.326 52.7614 525.326 52.3636V51.2727C525.201 51.3239 525.067 51.3722 524.925 51.4176C524.789 51.4631 524.641 51.5057 524.482 51.5455C524.328 51.5852 524.164 51.6222 523.988 51.6562C523.817 51.6903 523.638 51.7216 523.451 51.75C523.087 51.8068 522.789 51.9006 522.556 52.0312C522.328 52.1562 522.158 52.3125 522.044 52.5C521.936 52.6818 521.882 52.8864 521.882 53.1136C521.882 53.4773 522.01 53.7557 522.266 53.9489C522.522 54.142 522.848 54.2386 523.246 54.2386ZM544.21 48.1705H539.88C539.858 47.9034 539.764 47.6733 539.599 47.4801C539.434 47.2869 539.221 47.1392 538.96 47.0369C538.704 46.929 538.42 46.875 538.108 46.875C537.704 46.875 537.358 46.9489 537.068 47.0966C536.778 47.2443 536.636 47.4545 536.642 47.7273C536.636 47.9205 536.718 48.0994 536.889 48.2642C537.065 48.429 537.403 48.5568 537.903 48.6477L540.562 49.125C541.903 49.3693 542.9 49.7812 543.554 50.3608C544.213 50.9347 544.545 51.7045 544.551 52.6705C544.545 53.6023 544.267 54.4119 543.716 55.0994C543.17 55.7812 542.423 56.3097 541.474 56.6847C540.531 57.054 539.454 57.2386 538.244 57.2386C536.244 57.2386 534.679 56.8295 533.548 56.0114C532.423 55.1932 531.795 54.1136 531.664 52.7727H536.335C536.397 53.1875 536.602 53.5085 536.949 53.7358C537.301 53.9574 537.744 54.0682 538.278 54.0682C538.71 54.0682 539.065 53.9943 539.343 53.8466C539.627 53.6989 539.772 53.4886 539.778 53.2159C539.772 52.9659 539.647 52.767 539.403 52.6193C539.164 52.4716 538.789 52.3523 538.278 52.2614L535.96 51.8523C534.625 51.6193 533.625 51.1761 532.96 50.5227C532.295 49.8693 531.966 49.0284 531.971 48C531.966 47.0909 532.204 46.321 532.687 45.6903C533.176 45.054 533.872 44.571 534.775 44.2415C535.684 43.9062 536.761 43.7386 538.005 43.7386C539.897 43.7386 541.389 44.1307 542.48 44.9148C543.576 45.6989 544.153 46.7841 544.21 48.1705ZM546.353 57V43.9091H551.058V57H546.353ZM548.706 42.5455C548.069 42.5455 547.524 42.3352 547.069 41.9148C546.615 41.4943 546.387 40.9886 546.387 40.3977C546.387 39.8068 546.615 39.3011 547.069 38.8807C547.524 38.4602 548.069 38.25 548.706 38.25C549.348 38.25 549.893 38.4602 550.342 38.8807C550.797 39.3011 551.024 39.8068 551.024 40.3977C551.024 40.9886 550.797 41.4943 550.342 41.9148C549.893 42.3352 549.348 42.5455 548.706 42.5455ZM558.159 49.6364V57H553.455V43.9091H557.921V46.3977H558.057C558.341 45.5682 558.841 44.9176 559.557 44.446C560.279 43.9744 561.12 43.7386 562.08 43.7386C563.006 43.7386 563.81 43.9517 564.492 44.3778C565.179 44.7983 565.711 45.3778 566.086 46.1165C566.466 46.8551 566.654 47.6989 566.648 48.6477V57H561.944V49.6364C561.949 48.9886 561.784 48.4801 561.449 48.1108C561.12 47.7415 560.659 47.5568 560.069 47.5568C559.682 47.5568 559.344 47.642 559.054 47.8125C558.77 47.9773 558.551 48.2159 558.398 48.5284C558.245 48.8352 558.165 49.2045 558.159 49.6364ZM575.277 62.1818C573.965 62.1818 572.84 61.9943 571.902 61.6193C570.971 61.25 570.246 60.7386 569.729 60.0852C569.218 59.4375 568.931 58.6932 568.868 57.8523H573.402C573.448 58.1307 573.561 58.3551 573.743 58.5256C573.925 58.696 574.158 58.8182 574.442 58.892C574.732 58.9716 575.056 59.0114 575.414 59.0114C576.022 59.0114 576.525 58.8636 576.922 58.5682C577.326 58.2727 577.527 57.7386 577.527 56.9659V54.75H577.391C577.221 55.1932 576.959 55.571 576.607 55.8835C576.255 56.1903 575.831 56.4261 575.337 56.5909C574.843 56.75 574.3 56.8295 573.709 56.8295C572.777 56.8295 571.919 56.6136 571.135 56.1818C570.357 55.75 569.732 55.0653 569.26 54.1278C568.794 53.1903 568.561 51.9659 568.561 50.4545C568.561 48.875 568.806 47.5909 569.294 46.6023C569.789 45.6136 570.425 44.8892 571.203 44.429C571.988 43.9688 572.811 43.7386 573.675 43.7386C574.323 43.7386 574.891 43.8523 575.38 44.0795C575.868 44.3011 576.277 44.5994 576.607 44.9744C576.936 45.3437 577.186 45.75 577.357 46.1932H577.459V43.9091H582.164V56.9659C582.164 58.0739 581.877 59.0142 581.303 59.7869C580.735 60.5653 579.934 61.1591 578.9 61.5682C577.865 61.9773 576.658 62.1818 575.277 62.1818ZM575.448 53.4886C575.88 53.4886 576.249 53.3693 576.556 53.1307C576.868 52.8864 577.107 52.5398 577.272 52.0909C577.442 51.6364 577.527 51.0909 577.527 50.4545C577.527 49.8068 577.442 49.2528 577.272 48.7926C577.107 48.3267 576.868 47.9716 576.556 47.7273C576.249 47.4773 575.88 47.3523 575.448 47.3523C575.016 47.3523 574.647 47.4773 574.34 47.7273C574.039 47.9716 573.806 48.3267 573.641 48.7926C573.482 49.2528 573.402 49.8068 573.402 50.4545C573.402 51.1023 573.482 51.6534 573.641 52.108C573.806 52.5568 574.039 52.9006 574.34 53.1392C574.647 53.3722 575.016 53.4886 575.448 53.4886ZM599.599 39.5455H604.338V50.7273C604.338 52.0568 604.02 53.2074 603.383 54.179C602.752 55.1449 601.872 55.892 600.741 56.4205C599.61 56.9432 598.298 57.2045 596.804 57.2045C595.298 57.2045 593.98 56.9432 592.849 56.4205C591.718 55.892 590.838 55.1449 590.207 54.179C589.582 53.2074 589.27 52.0568 589.27 50.7273V39.5455H594.008V50.3182C594.008 50.858 594.127 51.3409 594.366 51.767C594.605 52.1875 594.934 52.517 595.355 52.7557C595.781 52.9943 596.264 53.1136 596.804 53.1136C597.349 53.1136 597.832 52.9943 598.252 52.7557C598.673 52.517 599.002 52.1875 599.241 51.767C599.48 51.3409 599.599 50.858 599.599 50.3182V39.5455ZM614.465 43.9091V47.3182H605.84V43.9091H614.465ZM607.51 40.7727H612.215V52.7898C612.215 52.9716 612.246 53.125 612.309 53.25C612.371 53.3693 612.468 53.4602 612.598 53.5227C612.729 53.5795 612.897 53.608 613.101 53.608C613.243 53.608 613.408 53.5909 613.596 53.5568C613.789 53.5227 613.931 53.4943 614.022 53.4716L614.703 56.7784C614.493 56.8409 614.192 56.9176 613.8 57.0085C613.414 57.0994 612.953 57.1591 612.419 57.1875C611.34 57.2443 610.434 57.1335 609.701 56.8551C608.968 56.571 608.417 56.125 608.047 55.517C607.678 54.9091 607.499 54.1477 607.51 53.233V40.7727ZM616.385 57V43.9091H621.089V57H616.385ZM618.737 42.5455C618.1 42.5455 617.555 42.3352 617.1 41.9148C616.646 41.4943 616.419 40.9886 616.419 40.3977C616.419 39.8068 616.646 39.3011 617.1 38.8807C617.555 38.4602 618.1 38.25 618.737 38.25C619.379 38.25 619.924 38.4602 620.373 38.8807C620.828 39.3011 621.055 39.8068 621.055 40.3977C621.055 40.9886 620.828 41.4943 620.373 41.9148C619.924 42.3352 619.379 42.5455 618.737 42.5455ZM628.191 39.5455V57H623.486V39.5455H628.191ZM630.588 57V43.9091H635.292V57H630.588ZM632.94 42.5455C632.304 42.5455 631.758 42.3352 631.304 41.9148C630.849 41.4943 630.622 40.9886 630.622 40.3977C630.622 39.8068 630.849 39.3011 631.304 38.8807C631.758 38.4602 632.304 38.25 632.94 38.25C633.582 38.25 634.127 38.4602 634.576 38.8807C635.031 39.3011 635.258 39.8068 635.258 40.3977C635.258 40.9886 635.031 41.4943 634.576 41.9148C634.127 42.3352 633.582 42.5455 632.94 42.5455ZM645.496 43.9091V47.3182H636.871V43.9091H645.496ZM638.542 40.7727H643.246V52.7898C643.246 52.9716 643.277 53.125 643.34 53.25C643.402 53.3693 643.499 53.4602 643.63 53.5227C643.76 53.5795 643.928 53.608 644.132 53.608C644.275 53.608 644.439 53.5909 644.627 53.5568C644.82 53.5227 644.962 53.4943 645.053 53.4716L645.735 56.7784C645.525 56.8409 645.223 56.9176 644.831 57.0085C644.445 57.0994 643.985 57.1591 643.451 57.1875C642.371 57.2443 641.465 57.1335 640.732 56.8551C639.999 56.571 639.448 56.125 639.078 55.517C638.709 54.9091 638.53 54.1477 638.542 53.233V40.7727ZM650.279 61.9091C649.74 61.9091 649.225 61.8665 648.737 61.7812C648.248 61.7017 647.819 61.5909 647.45 61.4489L648.473 58.108C648.859 58.2443 649.211 58.3324 649.529 58.3722C649.853 58.4119 650.129 58.3892 650.356 58.304C650.589 58.2188 650.757 58.0568 650.859 57.8182L650.961 57.5795L646.359 43.9091H651.268L653.382 52.9773H653.518L655.666 43.9091H660.609L655.836 58.0909C655.598 58.8125 655.251 59.4602 654.797 60.0341C654.348 60.6136 653.757 61.071 653.024 61.4062C652.291 61.7415 651.376 61.9091 650.279 61.9091ZM682.956 46.0909H678.149C678.115 45.6932 678.024 45.3324 677.876 45.0085C677.734 44.6847 677.535 44.4062 677.279 44.1733C677.029 43.9347 676.725 43.7528 676.368 43.6278C676.01 43.4972 675.603 43.4318 675.149 43.4318C674.353 43.4318 673.68 43.625 673.129 44.0114C672.583 44.3977 672.169 44.9517 671.885 45.6733C671.606 46.3949 671.467 47.2614 671.467 48.2727C671.467 49.3409 671.609 50.2358 671.893 50.9574C672.183 51.6733 672.6 52.2131 673.146 52.5767C673.691 52.9347 674.348 53.1136 675.115 53.1136C675.552 53.1136 675.944 53.0597 676.291 52.9517C676.637 52.8381 676.939 52.6761 677.194 52.4659C677.45 52.2557 677.657 52.0028 677.816 51.7074C677.981 51.4062 678.092 51.0682 678.149 50.6932L682.956 50.7273C682.899 51.4659 682.691 52.2187 682.333 52.9858C681.975 53.7472 681.467 54.4517 680.808 55.0994C680.154 55.7415 679.345 56.2585 678.379 56.6506C677.413 57.0426 676.291 57.2386 675.012 57.2386C673.41 57.2386 671.973 56.8949 670.7 56.2074C669.433 55.5199 668.43 54.5085 667.691 53.1733C666.958 51.8381 666.592 50.2045 666.592 48.2727C666.592 46.3295 666.967 44.6932 667.717 43.3636C668.467 42.0284 669.478 41.0199 670.751 40.3381C672.024 39.6506 673.444 39.3068 675.012 39.3068C676.115 39.3068 677.129 39.4574 678.055 39.7585C678.981 40.0597 679.794 40.5 680.493 41.0795C681.191 41.6534 681.754 42.3608 682.18 43.2017C682.606 44.0426 682.865 45.0057 682.956 46.0909ZM691.48 57.2386C690.06 57.2386 688.844 56.9574 687.833 56.3949C686.821 55.8267 686.046 55.0369 685.506 54.0256C684.966 53.0085 684.696 51.8295 684.696 50.4886C684.696 49.1477 684.966 47.9716 685.506 46.9602C686.046 45.9432 686.821 45.1534 687.833 44.5909C688.844 44.0227 690.06 43.7386 691.48 43.7386C692.901 43.7386 694.117 44.0227 695.128 44.5909C696.14 45.1534 696.915 45.9432 697.455 46.9602C697.995 47.9716 698.265 49.1477 698.265 50.4886C698.265 51.8295 697.995 53.0085 697.455 54.0256C696.915 55.0369 696.14 55.8267 695.128 56.3949C694.117 56.9574 692.901 57.2386 691.48 57.2386ZM691.515 53.7614C691.912 53.7614 692.256 53.6278 692.546 53.3608C692.836 53.0937 693.06 52.7131 693.219 52.2188C693.378 51.7244 693.458 51.1364 693.458 50.4545C693.458 49.767 693.378 49.179 693.219 48.6903C693.06 48.196 692.836 47.8153 692.546 47.5483C692.256 47.2812 691.912 47.1477 691.515 47.1477C691.094 47.1477 690.733 47.2812 690.432 47.5483C690.131 47.8153 689.901 48.196 689.742 48.6903C689.583 49.179 689.503 49.767 689.503 50.4545C689.503 51.1364 689.583 51.7244 689.742 52.2188C689.901 52.7131 690.131 53.0937 690.432 53.3608C690.733 53.6278 691.094 53.7614 691.515 53.7614ZM712.14 48.1705H707.81C707.787 47.9034 707.694 47.6733 707.529 47.4801C707.364 47.2869 707.151 47.1392 706.89 47.0369C706.634 46.929 706.35 46.875 706.037 46.875C705.634 46.875 705.287 46.9489 704.998 47.0966C704.708 47.2443 704.566 47.4545 704.571 47.7273C704.566 47.9205 704.648 48.0994 704.819 48.2642C704.995 48.429 705.333 48.5568 705.833 48.6477L708.492 49.125C709.833 49.3693 710.83 49.7812 711.483 50.3608C712.142 50.9347 712.475 51.7045 712.48 52.6705C712.475 53.6023 712.196 54.4119 711.645 55.0994C711.1 55.7812 710.353 56.3097 709.404 56.6847C708.461 57.054 707.384 57.2386 706.174 57.2386C704.174 57.2386 702.608 56.8295 701.478 56.0114C700.353 55.1932 699.725 54.1136 699.594 52.7727H704.265C704.327 53.1875 704.532 53.5085 704.878 53.7358C705.23 53.9574 705.674 54.0682 706.208 54.0682C706.64 54.0682 706.995 53.9943 707.273 53.8466C707.557 53.6989 707.702 53.4886 707.708 53.2159C707.702 52.9659 707.577 52.767 707.333 52.6193C707.094 52.4716 706.719 52.3523 706.208 52.2614L703.89 51.8523C702.554 51.6193 701.554 51.1761 700.89 50.5227C700.225 49.8693 699.895 49.0284 699.901 48C699.895 47.0909 700.134 46.321 700.617 45.6903C701.105 45.054 701.801 44.571 702.705 44.2415C703.614 43.9062 704.691 43.7386 705.935 43.7386C707.827 43.7386 709.319 44.1307 710.409 44.9148C711.506 45.6989 712.083 46.7841 712.14 48.1705ZM722.09 43.9091V47.3182H713.465V43.9091H722.09ZM715.135 40.7727H719.84V52.7898C719.84 52.9716 719.871 53.125 719.934 53.25C719.996 53.3693 720.093 53.4602 720.223 53.5227C720.354 53.5795 720.522 53.608 720.726 53.608C720.868 53.608 721.033 53.5909 721.221 53.5568C721.414 53.5227 721.556 53.4943 721.647 53.4716L722.328 56.7784C722.118 56.8409 721.817 56.9176 721.425 57.0085C721.039 57.0994 720.578 57.1591 720.044 57.1875C718.965 57.2443 718.059 57.1335 717.326 56.8551C716.593 56.571 716.042 56.125 715.672 55.517C715.303 54.9091 715.124 54.1477 715.135 53.233V40.7727ZM733.154 57L728.007 39.5455H733.291L735.677 50.2841H735.814L738.643 39.5455H742.802L745.632 50.3182H745.768L748.154 39.5455H753.439L748.291 57H743.757L740.791 47.25H740.654L737.689 57H733.154ZM755.041 57V43.9091H759.745V57H755.041ZM757.393 42.5455C756.757 42.5455 756.211 42.3352 755.757 41.9148C755.302 41.4943 755.075 40.9886 755.075 40.3977C755.075 39.8068 755.302 39.3011 755.757 38.8807C756.211 38.4602 756.757 38.25 757.393 38.25C758.035 38.25 758.581 38.4602 759.029 38.8807C759.484 39.3011 759.711 39.8068 759.711 40.3977C759.711 40.9886 759.484 41.4943 759.029 41.9148C758.581 42.3352 758.035 42.5455 757.393 42.5455ZM769.949 43.9091V47.3182H761.324V43.9091H769.949ZM762.995 40.7727H767.699V52.7898C767.699 52.9716 767.73 53.125 767.793 53.25C767.855 53.3693 767.952 53.4602 768.083 53.5227C768.213 53.5795 768.381 53.608 768.586 53.608C768.728 53.608 768.892 53.5909 769.08 53.5568C769.273 53.5227 769.415 53.4943 769.506 53.4716L770.188 56.7784C769.978 56.8409 769.676 56.9176 769.284 57.0085C768.898 57.0994 768.438 57.1591 767.904 57.1875C766.824 57.2443 765.918 57.1335 765.185 56.8551C764.452 56.571 763.901 56.125 763.532 55.517C763.162 54.9091 762.983 54.1477 762.995 53.233V40.7727ZM776.855 49.6364V57H772.15V39.5455H776.684V46.3977H776.821C777.116 45.5625 777.608 44.9119 778.295 44.446C778.983 43.9744 779.809 43.7386 780.775 43.7386C781.701 43.7386 782.505 43.9489 783.187 44.3693C783.875 44.7898 784.406 45.3693 784.781 46.108C785.162 46.8466 785.349 47.6932 785.343 48.6477V57H780.639V49.6364C780.645 48.9886 780.483 48.4801 780.153 48.1108C779.829 47.7415 779.366 47.5568 778.764 47.5568C778.383 47.5568 778.048 47.642 777.758 47.8125C777.474 47.9773 777.252 48.2159 777.093 48.5284C776.94 48.8352 776.86 49.2045 776.855 49.6364ZM808.674 46.0909H803.868C803.833 45.6932 803.743 45.3324 803.595 45.0085C803.453 44.6847 803.254 44.4062 802.998 44.1733C802.748 43.9347 802.444 43.7528 802.086 43.6278C801.728 43.4972 801.322 43.4318 800.868 43.4318C800.072 43.4318 799.399 43.625 798.848 44.0114C798.302 44.3977 797.887 44.9517 797.603 45.6733C797.325 46.3949 797.186 47.2614 797.186 48.2727C797.186 49.3409 797.328 50.2358 797.612 50.9574C797.902 51.6733 798.319 52.2131 798.865 52.5767C799.41 52.9347 800.066 53.1136 800.833 53.1136C801.271 53.1136 801.663 53.0597 802.01 52.9517C802.356 52.8381 802.657 52.6761 802.913 52.4659C803.169 52.2557 803.376 52.0028 803.535 51.7074C803.7 51.4062 803.811 51.0682 803.868 50.6932L808.674 50.7273C808.618 51.4659 808.41 52.2187 808.052 52.9858C807.694 53.7472 807.186 54.4517 806.527 55.0994C805.873 55.7415 805.064 56.2585 804.098 56.6506C803.132 57.0426 802.01 57.2386 800.731 57.2386C799.129 57.2386 797.691 56.8949 796.419 56.2074C795.152 55.5199 794.149 54.5085 793.41 53.1733C792.677 51.8381 792.311 50.2045 792.311 48.2727C792.311 46.3295 792.686 44.6932 793.436 43.3636C794.186 42.0284 795.197 41.0199 796.47 40.3381C797.743 39.6506 799.163 39.3068 800.731 39.3068C801.833 39.3068 802.848 39.4574 803.774 39.7585C804.7 40.0597 805.512 40.5 806.211 41.0795C806.91 41.6534 807.473 42.3608 807.899 43.2017C808.325 44.0426 808.583 45.0057 808.674 46.0909ZM810.892 57V43.9091H815.461V46.3977H815.597C815.836 45.4773 816.213 44.804 816.73 44.3778C817.253 43.9517 817.864 43.7386 818.563 43.7386C818.767 43.7386 818.969 43.7557 819.168 43.7898C819.373 43.8182 819.569 43.8608 819.756 43.9176V47.9318C819.523 47.8523 819.236 47.7926 818.895 47.7528C818.554 47.7131 818.262 47.6932 818.017 47.6932C817.557 47.6932 817.142 47.7983 816.773 48.0085C816.409 48.2131 816.123 48.5028 815.912 48.8778C815.702 49.2472 815.597 49.6818 815.597 50.1818V57H810.892ZM826.821 57.2386C825.424 57.2386 824.219 56.9716 823.208 56.4375C822.202 55.8977 821.426 55.125 820.881 54.1193C820.341 53.108 820.071 51.8977 820.071 50.4886C820.071 49.1364 820.344 47.9545 820.89 46.9432C821.435 45.9318 822.205 45.1449 823.199 44.5824C824.194 44.0199 825.367 43.7386 826.719 43.7386C827.708 43.7386 828.603 43.892 829.404 44.1989C830.205 44.5057 830.89 44.9517 831.458 45.5369C832.026 46.1165 832.463 46.821 832.77 47.6506C833.077 48.4801 833.23 49.4148 833.23 50.4545V51.5455H821.537V48.9545H828.901C828.895 48.5795 828.799 48.25 828.611 47.9659C828.429 47.6761 828.182 47.4517 827.87 47.2926C827.563 47.1278 827.213 47.0455 826.821 47.0455C826.441 47.0455 826.091 47.1278 825.773 47.2926C825.455 47.4517 825.199 47.6733 825.006 47.9574C824.819 48.2415 824.719 48.5739 824.708 48.9545V51.75C824.708 52.1705 824.796 52.5455 824.972 52.875C825.148 53.2045 825.401 53.4631 825.73 53.6506C826.06 53.8381 826.458 53.9318 826.924 53.9318C827.248 53.9318 827.543 53.8864 827.81 53.7955C828.083 53.7045 828.316 53.5739 828.509 53.4034C828.702 53.2273 828.844 53.017 828.935 52.7727H833.23C833.083 53.6818 832.733 54.4716 832.182 55.142C831.631 55.8068 830.901 56.3239 829.992 56.6932C829.088 57.0568 828.032 57.2386 826.821 57.2386ZM839.889 57.1705C838.957 57.1705 838.099 56.9261 837.315 56.4375C836.537 55.9489 835.912 55.2074 835.44 54.2131C834.974 53.2187 834.741 51.9659 834.741 50.4545C834.741 48.875 834.985 47.5909 835.474 46.6023C835.968 45.6136 836.605 44.8892 837.383 44.429C838.167 43.9688 838.991 43.7386 839.855 43.7386C840.502 43.7386 841.071 43.8523 841.559 44.0795C842.048 44.3011 842.457 44.5994 842.787 44.9744C843.116 45.3437 843.366 45.75 843.537 46.1932H843.605V39.5455H848.309V57H843.639V54.8523H843.537C843.355 55.2955 843.093 55.6932 842.752 56.0455C842.417 56.392 842.008 56.6676 841.525 56.8722C841.048 57.071 840.502 57.1705 839.889 57.1705ZM841.627 53.5568C842.059 53.5568 842.429 53.4318 842.735 53.1818C843.048 52.9261 843.287 52.5682 843.451 52.108C843.622 51.642 843.707 51.0909 843.707 50.4545C843.707 49.8068 843.622 49.2528 843.451 48.7926C843.287 48.3267 843.048 47.9716 842.735 47.7273C842.429 47.4773 842.059 47.3523 841.627 47.3523C841.196 47.3523 840.826 47.4773 840.52 47.7273C840.218 47.9716 839.985 48.3267 839.821 48.7926C839.662 49.2528 839.582 49.8068 839.582 50.4545C839.582 51.1023 839.662 51.6591 839.821 52.125C839.985 52.5852 840.218 52.9403 840.52 53.1903C840.826 53.4347 841.196 53.5568 841.627 53.5568ZM850.619 57V43.9091H855.324V57H850.619ZM852.971 42.5455C852.335 42.5455 851.789 42.3352 851.335 41.9148C850.88 41.4943 850.653 40.9886 850.653 40.3977C850.653 39.8068 850.88 39.3011 851.335 38.8807C851.789 38.4602 852.335 38.25 852.971 38.25C853.613 38.25 854.159 38.4602 854.608 38.8807C855.062 39.3011 855.289 39.8068 855.289 40.3977C855.289 40.9886 855.062 41.4943 854.608 41.9148C854.159 42.3352 853.613 42.5455 852.971 42.5455ZM865.527 43.9091V47.3182H856.902V43.9091H865.527ZM858.573 40.7727H863.277V52.7898C863.277 52.9716 863.309 53.125 863.371 53.25C863.434 53.3693 863.53 53.4602 863.661 53.5227C863.792 53.5795 863.959 53.608 864.164 53.608C864.306 53.608 864.471 53.5909 864.658 53.5568C864.851 53.5227 864.993 53.4943 865.084 53.4716L865.766 56.7784C865.556 56.8409 865.255 56.9176 864.863 57.0085C864.476 57.0994 864.016 57.1591 863.482 57.1875C862.402 57.2443 861.496 57.1335 860.763 56.8551C860.03 56.571 859.479 56.125 859.11 55.517C858.74 54.9091 858.561 54.1477 858.573 53.233V40.7727ZM879.272 48.1705H874.943C874.92 47.9034 874.826 47.6733 874.662 47.4801C874.497 47.2869 874.284 47.1392 874.022 47.0369C873.767 46.929 873.483 46.875 873.17 46.875C872.767 46.875 872.42 46.9489 872.13 47.0966C871.841 47.2443 871.699 47.4545 871.704 47.7273C871.699 47.9205 871.781 48.0994 871.951 48.2642C872.127 48.429 872.466 48.5568 872.966 48.6477L875.625 49.125C876.966 49.3693 877.963 49.7812 878.616 50.3608C879.275 50.9347 879.608 51.7045 879.613 52.6705C879.608 53.6023 879.329 54.4119 878.778 55.0994C878.233 55.7812 877.485 56.3097 876.537 56.6847C875.593 57.054 874.517 57.2386 873.306 57.2386C871.306 57.2386 869.741 56.8295 868.61 56.0114C867.485 55.1932 866.858 54.1136 866.727 52.7727H871.397C871.46 53.1875 871.664 53.5085 872.011 53.7358C872.363 53.9574 872.806 54.0682 873.341 54.0682C873.772 54.0682 874.127 53.9943 874.406 53.8466C874.69 53.6989 874.835 53.4886 874.841 53.2159C874.835 52.9659 874.71 52.767 874.466 52.6193C874.227 52.4716 873.852 52.3523 873.341 52.2614L871.022 51.8523C869.687 51.6193 868.687 51.1761 868.022 50.5227C867.358 49.8693 867.028 49.0284 867.034 48C867.028 47.0909 867.267 46.321 867.75 45.6903C868.238 45.054 868.934 44.571 869.838 44.2415C870.747 43.9062 871.824 43.7386 873.068 43.7386C874.96 43.7386 876.451 44.1307 877.542 44.9148C878.639 45.6989 879.216 46.7841 879.272 48.1705Z" fill="black"/>
<path d="M751.461 383C751.415 382.432 751.202 381.989 750.822 381.67C750.447 381.352 749.876 381.193 749.109 381.193C748.62 381.193 748.219 381.253 747.907 381.372C747.6 381.486 747.373 381.642 747.225 381.841C747.077 382.04 747.001 382.267 746.995 382.523C746.984 382.733 747.021 382.923 747.106 383.094C747.197 383.259 747.339 383.409 747.532 383.545C747.725 383.676 747.972 383.795 748.273 383.903C748.574 384.011 748.932 384.108 749.347 384.193L750.779 384.5C751.745 384.705 752.572 384.974 753.259 385.31C753.947 385.645 754.509 386.04 754.947 386.494C755.384 386.943 755.705 387.449 755.91 388.011C756.12 388.574 756.228 389.187 756.234 389.852C756.228 391 755.941 391.972 755.373 392.767C754.805 393.562 753.992 394.168 752.935 394.582C751.884 394.997 750.62 395.205 749.143 395.205C747.626 395.205 746.302 394.98 745.171 394.531C744.046 394.082 743.171 393.392 742.546 392.46C741.927 391.523 741.614 390.324 741.609 388.864H746.109C746.137 389.398 746.271 389.847 746.509 390.21C746.748 390.574 747.083 390.849 747.515 391.037C747.952 391.224 748.472 391.318 749.074 391.318C749.58 391.318 750.003 391.256 750.344 391.131C750.685 391.006 750.944 390.832 751.12 390.611C751.296 390.389 751.387 390.136 751.393 389.852C751.387 389.585 751.299 389.352 751.128 389.153C750.964 388.949 750.691 388.767 750.31 388.608C749.93 388.443 749.415 388.29 748.768 388.148L747.029 387.773C745.484 387.437 744.265 386.878 743.373 386.094C742.486 385.304 742.046 384.227 742.052 382.864C742.046 381.756 742.342 380.787 742.938 379.957C743.54 379.122 744.373 378.472 745.435 378.006C746.503 377.54 747.728 377.307 749.109 377.307C750.518 377.307 751.736 377.543 752.765 378.014C753.793 378.486 754.586 379.151 755.143 380.009C755.705 380.861 755.989 381.858 755.995 383H751.461ZM764.411 395.239C762.991 395.239 761.775 394.957 760.763 394.395C759.752 393.827 758.976 393.037 758.437 392.026C757.897 391.009 757.627 389.83 757.627 388.489C757.627 387.148 757.897 385.972 758.437 384.96C758.976 383.943 759.752 383.153 760.763 382.591C761.775 382.023 762.991 381.739 764.411 381.739C765.832 381.739 767.047 382.023 768.059 382.591C769.07 383.153 769.846 383.943 770.386 384.96C770.925 385.972 771.195 387.148 771.195 388.489C771.195 389.83 770.925 391.009 770.386 392.026C769.846 393.037 769.07 393.827 768.059 394.395C767.047 394.957 765.832 395.239 764.411 395.239ZM764.445 391.761C764.843 391.761 765.187 391.628 765.476 391.361C765.766 391.094 765.991 390.713 766.15 390.219C766.309 389.724 766.388 389.136 766.388 388.455C766.388 387.767 766.309 387.179 766.15 386.69C765.991 386.196 765.766 385.815 765.476 385.548C765.187 385.281 764.843 385.148 764.445 385.148C764.025 385.148 763.664 385.281 763.363 385.548C763.062 385.815 762.832 386.196 762.672 386.69C762.513 387.179 762.434 387.767 762.434 388.455C762.434 389.136 762.513 389.724 762.672 390.219C762.832 390.713 763.062 391.094 763.363 391.361C763.664 391.628 764.025 391.761 764.445 391.761ZM777.809 377.545V395H773.104V377.545H777.809ZM783.854 395.205C783.018 395.205 782.28 395.068 781.638 394.795C781.001 394.517 780.501 394.097 780.138 393.534C779.774 392.972 779.592 392.256 779.592 391.386C779.592 390.67 779.714 390.06 779.959 389.554C780.203 389.043 780.544 388.625 780.981 388.301C781.419 387.977 781.927 387.73 782.507 387.56C783.092 387.389 783.723 387.278 784.399 387.227C785.132 387.17 785.72 387.102 786.163 387.023C786.612 386.937 786.936 386.821 787.135 386.673C787.334 386.52 787.433 386.318 787.433 386.068V386.034C787.433 385.693 787.302 385.432 787.041 385.25C786.78 385.068 786.445 384.977 786.035 384.977C785.587 384.977 785.22 385.077 784.936 385.276C784.658 385.469 784.49 385.767 784.433 386.17H780.104C780.16 385.375 780.413 384.642 780.862 383.972C781.317 383.295 781.979 382.756 782.848 382.352C783.717 381.943 784.802 381.739 786.104 381.739C787.041 381.739 787.882 381.849 788.626 382.071C789.371 382.287 790.004 382.591 790.527 382.983C791.05 383.369 791.447 383.824 791.72 384.347C791.998 384.864 792.138 385.426 792.138 386.034V395H787.74V393.159H787.638C787.376 393.648 787.058 394.043 786.683 394.344C786.314 394.645 785.891 394.864 785.413 395C784.942 395.136 784.422 395.205 783.854 395.205ZM785.388 392.239C785.746 392.239 786.081 392.165 786.393 392.017C786.712 391.869 786.97 391.656 787.169 391.378C787.368 391.099 787.467 390.761 787.467 390.364V389.273C787.342 389.324 787.209 389.372 787.067 389.418C786.93 389.463 786.783 389.506 786.623 389.545C786.47 389.585 786.305 389.622 786.129 389.656C785.959 389.69 785.78 389.722 785.592 389.75C785.229 389.807 784.93 389.901 784.697 390.031C784.47 390.156 784.3 390.312 784.186 390.5C784.078 390.682 784.024 390.886 784.024 391.114C784.024 391.477 784.152 391.756 784.408 391.949C784.663 392.142 784.99 392.239 785.388 392.239ZM794.386 395V381.909H798.954V384.398H799.09C799.329 383.477 799.707 382.804 800.224 382.378C800.746 381.952 801.357 381.739 802.056 381.739C802.261 381.739 802.462 381.756 802.661 381.79C802.866 381.818 803.062 381.861 803.249 381.918V385.932C803.016 385.852 802.729 385.793 802.388 385.753C802.047 385.713 801.755 385.693 801.511 385.693C801.05 385.693 800.636 385.798 800.266 386.009C799.903 386.213 799.616 386.503 799.405 386.878C799.195 387.247 799.09 387.682 799.09 388.182V395H794.386ZM809.505 395V377.545H822.084V381.364H814.244V384.364H821.437V388.182H814.244V391.182H822.05V395H809.505ZM829.207 387.636V395H824.503V381.909H828.969V384.398H829.105C829.389 383.568 829.889 382.918 830.605 382.446C831.327 381.974 832.168 381.739 833.128 381.739C834.054 381.739 834.858 381.952 835.54 382.378C836.227 382.798 836.758 383.378 837.133 384.116C837.514 384.855 837.702 385.699 837.696 386.648V395H832.991V387.636C832.997 386.989 832.832 386.48 832.497 386.111C832.168 385.741 831.707 385.557 831.116 385.557C830.73 385.557 830.392 385.642 830.102 385.812C829.818 385.977 829.599 386.216 829.446 386.528C829.293 386.835 829.213 387.205 829.207 387.636ZM846.291 395.239C844.893 395.239 843.689 394.972 842.677 394.438C841.672 393.898 840.896 393.125 840.351 392.119C839.811 391.108 839.541 389.898 839.541 388.489C839.541 387.136 839.814 385.955 840.359 384.943C840.905 383.932 841.675 383.145 842.669 382.582C843.663 382.02 844.837 381.739 846.189 381.739C847.177 381.739 848.072 381.892 848.873 382.199C849.675 382.506 850.359 382.952 850.927 383.537C851.496 384.116 851.933 384.821 852.24 385.651C852.547 386.48 852.7 387.415 852.7 388.455V389.545H841.007V386.955H848.371C848.365 386.58 848.268 386.25 848.081 385.966C847.899 385.676 847.652 385.452 847.339 385.293C847.033 385.128 846.683 385.045 846.291 385.045C845.91 385.045 845.561 385.128 845.243 385.293C844.925 385.452 844.669 385.673 844.476 385.957C844.288 386.241 844.189 386.574 844.177 386.955V389.75C844.177 390.17 844.266 390.545 844.442 390.875C844.618 391.205 844.871 391.463 845.2 391.651C845.53 391.838 845.927 391.932 846.393 391.932C846.717 391.932 847.013 391.886 847.28 391.795C847.552 391.705 847.785 391.574 847.979 391.403C848.172 391.227 848.314 391.017 848.405 390.773H852.7C852.552 391.682 852.203 392.472 851.652 393.142C851.101 393.807 850.371 394.324 849.462 394.693C848.558 395.057 847.501 395.239 846.291 395.239ZM854.62 395V381.909H859.188V384.398H859.324C859.563 383.477 859.941 382.804 860.458 382.378C860.981 381.952 861.592 381.739 862.29 381.739C862.495 381.739 862.697 381.756 862.896 381.79C863.1 381.818 863.296 381.861 863.484 381.918V385.932C863.251 385.852 862.964 385.793 862.623 385.753C862.282 385.713 861.989 385.693 861.745 385.693C861.285 385.693 860.87 385.798 860.501 386.009C860.137 386.213 859.85 386.503 859.64 386.878C859.43 387.247 859.324 387.682 859.324 388.182V395H854.62ZM870.583 400.182C869.271 400.182 868.146 399.994 867.208 399.619C866.276 399.25 865.552 398.739 865.035 398.085C864.523 397.438 864.236 396.693 864.174 395.852H868.708C868.753 396.131 868.867 396.355 869.049 396.526C869.231 396.696 869.464 396.818 869.748 396.892C870.038 396.972 870.361 397.011 870.719 397.011C871.327 397.011 871.83 396.864 872.228 396.568C872.631 396.273 872.833 395.739 872.833 394.966V392.75H872.697C872.526 393.193 872.265 393.571 871.913 393.884C871.56 394.19 871.137 394.426 870.643 394.591C870.148 394.75 869.606 394.83 869.015 394.83C868.083 394.83 867.225 394.614 866.441 394.182C865.663 393.75 865.038 393.065 864.566 392.128C864.1 391.19 863.867 389.966 863.867 388.455C863.867 386.875 864.111 385.591 864.6 384.602C865.094 383.614 865.731 382.889 866.509 382.429C867.293 381.969 868.117 381.739 868.981 381.739C869.628 381.739 870.197 381.852 870.685 382.08C871.174 382.301 871.583 382.599 871.913 382.974C872.242 383.344 872.492 383.75 872.663 384.193H872.765V381.909H877.469V394.966C877.469 396.074 877.182 397.014 876.609 397.787C876.04 398.565 875.239 399.159 874.205 399.568C873.171 399.977 871.964 400.182 870.583 400.182ZM870.753 391.489C871.185 391.489 871.555 391.369 871.861 391.131C872.174 390.886 872.413 390.54 872.577 390.091C872.748 389.636 872.833 389.091 872.833 388.455C872.833 387.807 872.748 387.253 872.577 386.793C872.413 386.327 872.174 385.972 871.861 385.727C871.555 385.477 871.185 385.352 870.753 385.352C870.322 385.352 869.952 385.477 869.646 385.727C869.344 385.972 869.111 386.327 868.947 386.793C868.788 387.253 868.708 387.807 868.708 388.455C868.708 389.102 868.788 389.653 868.947 390.108C869.111 390.557 869.344 390.901 869.646 391.139C869.952 391.372 870.322 391.489 870.753 391.489ZM882.726 399.909C882.186 399.909 881.672 399.866 881.183 399.781C880.695 399.702 880.266 399.591 879.896 399.449L880.919 396.108C881.305 396.244 881.658 396.332 881.976 396.372C882.3 396.412 882.575 396.389 882.802 396.304C883.035 396.219 883.203 396.057 883.305 395.818L883.408 395.58L878.805 381.909H883.714L885.828 390.977H885.964L888.112 381.909H893.055L888.283 396.091C888.044 396.812 887.697 397.46 887.243 398.034C886.794 398.614 886.203 399.071 885.47 399.406C884.737 399.741 883.822 399.909 882.726 399.909ZM899.106 395V377.545H906.641C907.936 377.545 909.07 377.801 910.041 378.312C911.013 378.824 911.768 379.543 912.308 380.469C912.848 381.395 913.118 382.477 913.118 383.716C913.118 384.966 912.839 386.048 912.283 386.963C911.731 387.878 910.956 388.582 909.956 389.077C908.962 389.571 907.8 389.818 906.47 389.818H901.97V386.136H905.516C906.072 386.136 906.547 386.04 906.939 385.847C907.337 385.648 907.641 385.366 907.851 385.003C908.067 384.639 908.175 384.21 908.175 383.716C908.175 383.216 908.067 382.79 907.851 382.438C907.641 382.08 907.337 381.807 906.939 381.619C906.547 381.426 906.072 381.33 905.516 381.33H903.845V395H899.106ZM914.925 395V381.909H919.493V384.398H919.629C919.868 383.477 920.246 382.804 920.763 382.378C921.285 381.952 921.896 381.739 922.595 381.739C922.8 381.739 923.001 381.756 923.2 381.79C923.405 381.818 923.601 381.861 923.788 381.918V385.932C923.555 385.852 923.268 385.793 922.927 385.753C922.587 385.713 922.294 385.693 922.05 385.693C921.589 385.693 921.175 385.798 920.805 386.009C920.442 386.213 920.155 386.503 919.945 386.878C919.734 387.247 919.629 387.682 919.629 388.182V395H914.925ZM930.888 395.239C929.467 395.239 928.251 394.957 927.24 394.395C926.229 393.827 925.453 393.037 924.913 392.026C924.373 391.009 924.104 389.83 924.104 388.489C924.104 387.148 924.373 385.972 924.913 384.96C925.453 383.943 926.229 383.153 927.24 382.591C928.251 382.023 929.467 381.739 930.888 381.739C932.308 381.739 933.524 382.023 934.535 382.591C935.547 383.153 936.322 383.943 936.862 384.96C937.402 385.972 937.672 387.148 937.672 388.489C937.672 389.83 937.402 391.009 936.862 392.026C936.322 393.037 935.547 393.827 934.535 394.395C933.524 394.957 932.308 395.239 930.888 395.239ZM930.922 391.761C931.32 391.761 931.663 391.628 931.953 391.361C932.243 391.094 932.467 390.713 932.626 390.219C932.785 389.724 932.865 389.136 932.865 388.455C932.865 387.767 932.785 387.179 932.626 386.69C932.467 386.196 932.243 385.815 931.953 385.548C931.663 385.281 931.32 385.148 930.922 385.148C930.501 385.148 930.141 385.281 929.839 385.548C929.538 385.815 929.308 386.196 929.149 386.69C928.99 387.179 928.91 387.767 928.91 388.455C928.91 389.136 928.99 389.724 929.149 390.219C929.308 390.713 929.538 391.094 929.839 391.361C930.141 391.628 930.501 391.761 930.922 391.761ZM944.32 395.17C943.388 395.17 942.53 394.926 941.746 394.438C940.967 393.949 940.342 393.207 939.871 392.213C939.405 391.219 939.172 389.966 939.172 388.455C939.172 386.875 939.416 385.591 939.905 384.602C940.399 383.614 941.035 382.889 941.814 382.429C942.598 381.969 943.422 381.739 944.285 381.739C944.933 381.739 945.501 381.852 945.99 382.08C946.479 382.301 946.888 382.599 947.217 382.974C947.547 383.344 947.797 383.75 947.967 384.193H948.035V377.545H952.74V395H948.07V392.852H947.967C947.785 393.295 947.524 393.693 947.183 394.045C946.848 394.392 946.439 394.668 945.956 394.872C945.479 395.071 944.933 395.17 944.32 395.17ZM946.058 391.557C946.49 391.557 946.859 391.432 947.166 391.182C947.479 390.926 947.717 390.568 947.882 390.108C948.052 389.642 948.138 389.091 948.138 388.455C948.138 387.807 948.052 387.253 947.882 386.793C947.717 386.327 947.479 385.972 947.166 385.727C946.859 385.477 946.49 385.352 946.058 385.352C945.626 385.352 945.257 385.477 944.95 385.727C944.649 385.972 944.416 386.327 944.251 386.793C944.092 387.253 944.013 387.807 944.013 388.455C944.013 389.102 944.092 389.659 944.251 390.125C944.416 390.585 944.649 390.94 944.95 391.19C945.257 391.435 945.626 391.557 946.058 391.557ZM963.538 389.273V381.909H968.243V395H963.777V392.511H963.641C963.356 393.347 962.859 394 962.149 394.472C961.439 394.937 960.595 395.17 959.618 395.17C958.703 395.17 957.902 394.96 957.214 394.54C956.533 394.119 956.001 393.54 955.621 392.801C955.246 392.062 955.055 391.216 955.05 390.261V381.909H959.754V389.273C959.76 389.92 959.925 390.429 960.248 390.798C960.578 391.168 961.038 391.352 961.629 391.352C962.021 391.352 962.359 391.27 962.643 391.105C962.933 390.935 963.155 390.696 963.308 390.389C963.467 390.077 963.544 389.705 963.538 389.273ZM976.942 395.239C975.522 395.239 974.306 394.957 973.295 394.395C972.283 393.827 971.508 393.037 970.968 392.026C970.428 391.009 970.158 389.83 970.158 388.489C970.158 387.148 970.428 385.972 970.968 384.96C971.508 383.943 972.283 383.153 973.295 382.591C974.306 382.023 975.522 381.739 976.942 381.739C978.226 381.739 979.337 381.972 980.275 382.438C981.218 382.898 981.948 383.551 982.465 384.398C982.982 385.239 983.244 386.227 983.249 387.364H978.886C978.823 386.676 978.624 386.153 978.289 385.795C977.959 385.432 977.533 385.25 977.011 385.25C976.601 385.25 976.244 385.369 975.937 385.608C975.63 385.841 975.391 386.196 975.221 386.673C975.05 387.145 974.965 387.739 974.965 388.455C974.965 389.17 975.05 389.767 975.221 390.244C975.391 390.716 975.63 391.071 975.937 391.31C976.244 391.543 976.601 391.659 977.011 391.659C977.357 391.659 977.664 391.58 977.931 391.42C978.198 391.256 978.414 391.017 978.579 390.705C978.749 390.386 978.851 390 978.886 389.545H983.249C983.232 390.699 982.968 391.705 982.457 392.562C981.945 393.415 981.221 394.074 980.283 394.54C979.351 395.006 978.238 395.239 976.942 395.239ZM991.463 395.239C990.065 395.239 988.861 394.972 987.849 394.438C986.844 393.898 986.068 393.125 985.523 392.119C984.983 391.108 984.713 389.898 984.713 388.489C984.713 387.136 984.986 385.955 985.531 384.943C986.077 383.932 986.847 383.145 987.841 382.582C988.835 382.02 990.008 381.739 991.361 381.739C992.349 381.739 993.244 381.892 994.045 382.199C994.847 382.506 995.531 382.952 996.099 383.537C996.668 384.116 997.105 384.821 997.412 385.651C997.719 386.48 997.872 387.415 997.872 388.455V389.545H986.179V386.955H993.543C993.537 386.58 993.44 386.25 993.253 385.966C993.071 385.676 992.824 385.452 992.511 385.293C992.204 385.128 991.855 385.045 991.463 385.045C991.082 385.045 990.733 385.128 990.415 385.293C990.097 385.452 989.841 385.673 989.648 385.957C989.46 386.241 989.361 386.574 989.349 386.955V389.75C989.349 390.17 989.437 390.545 989.614 390.875C989.79 391.205 990.043 391.463 990.372 391.651C990.702 391.838 991.099 391.932 991.565 391.932C991.889 391.932 992.185 391.886 992.452 391.795C992.724 391.705 992.957 391.574 993.15 391.403C993.344 391.227 993.486 391.017 993.577 390.773H997.872C997.724 391.682 997.375 392.472 996.824 393.142C996.273 393.807 995.543 394.324 994.633 394.693C993.73 395.057 992.673 395.239 991.463 395.239ZM1004.53 395.17C1003.6 395.17 1002.74 394.926 1001.96 394.438C1001.18 393.949 1000.55 393.207 1000.08 392.213C999.616 391.219 999.383 389.966 999.383 388.455C999.383 386.875 999.627 385.591 1000.12 384.602C1000.61 383.614 1001.25 382.889 1002.02 382.429C1002.81 381.969 1003.63 381.739 1004.5 381.739C1005.14 381.739 1005.71 381.852 1006.2 382.08C1006.69 382.301 1007.1 382.599 1007.43 382.974C1007.76 383.344 1008.01 383.75 1008.18 384.193H1008.25V377.545H1012.95V395H1008.28V392.852H1008.18C1008 393.295 1007.73 393.693 1007.39 394.045C1007.06 394.392 1006.65 394.668 1006.17 394.872C1005.69 395.071 1005.14 395.17 1004.53 395.17ZM1006.27 391.557C1006.7 391.557 1007.07 391.432 1007.38 391.182C1007.69 390.926 1007.93 390.568 1008.09 390.108C1008.26 389.642 1008.35 389.091 1008.35 388.455C1008.35 387.807 1008.26 387.253 1008.09 386.793C1007.93 386.327 1007.69 385.972 1007.38 385.727C1007.07 385.477 1006.7 385.352 1006.27 385.352C1005.84 385.352 1005.47 385.477 1005.16 385.727C1004.86 385.972 1004.63 386.327 1004.46 386.793C1004.3 387.253 1004.22 387.807 1004.22 388.455C1004.22 389.102 1004.3 389.659 1004.46 390.125C1004.63 390.585 1004.86 390.94 1005.16 391.19C1005.47 391.435 1005.84 391.557 1006.27 391.557Z" fill="black"/>
<path d="M823.125 131V113.545H830.659C831.955 113.545 833.088 113.801 834.06 114.312C835.031 114.824 835.787 115.543 836.327 116.469C836.866 117.395 837.136 118.477 837.136 119.716C837.136 120.966 836.858 122.048 836.301 122.963C835.75 123.878 834.974 124.582 833.974 125.077C832.98 125.571 831.818 125.818 830.489 125.818H825.989V122.136H829.534C830.091 122.136 830.565 122.04 830.957 121.847C831.355 121.648 831.659 121.366 831.869 121.003C832.085 120.639 832.193 120.21 832.193 119.716C832.193 119.216 832.085 118.79 831.869 118.438C831.659 118.08 831.355 117.807 830.957 117.619C830.565 117.426 830.091 117.33 829.534 117.33H827.864V131H823.125ZM844.969 131.239C843.548 131.239 842.332 130.957 841.321 130.395C840.31 129.827 839.534 129.037 838.994 128.026C838.455 127.009 838.185 125.83 838.185 124.489C838.185 123.148 838.455 121.972 838.994 120.96C839.534 119.943 840.31 119.153 841.321 118.591C842.332 118.023 843.548 117.739 844.969 117.739C846.389 117.739 847.605 118.023 848.616 118.591C849.628 119.153 850.403 119.943 850.943 120.96C851.483 121.972 851.753 123.148 851.753 124.489C851.753 125.83 851.483 127.009 850.943 128.026C850.403 129.037 849.628 129.827 848.616 130.395C847.605 130.957 846.389 131.239 844.969 131.239ZM845.003 127.761C845.401 127.761 845.744 127.628 846.034 127.361C846.324 127.094 846.548 126.713 846.707 126.219C846.866 125.724 846.946 125.136 846.946 124.455C846.946 123.767 846.866 123.179 846.707 122.69C846.548 122.196 846.324 121.815 846.034 121.548C845.744 121.281 845.401 121.148 845.003 121.148C844.582 121.148 844.222 121.281 843.92 121.548C843.619 121.815 843.389 122.196 843.23 122.69C843.071 123.179 842.991 123.767 842.991 124.455C842.991 125.136 843.071 125.724 843.23 126.219C843.389 126.713 843.619 127.094 843.92 127.361C844.222 127.628 844.582 127.761 845.003 127.761ZM855.746 131L852.473 117.909H857.178L858.678 125.886H858.78L860.45 117.909H865.018L866.757 125.818H866.859L868.291 117.909H872.996L869.723 131H864.643L862.803 123.977H862.666L860.825 131H855.746ZM880.466 131.239C879.068 131.239 877.864 130.972 876.852 130.438C875.847 129.898 875.071 129.125 874.526 128.119C873.986 127.108 873.716 125.898 873.716 124.489C873.716 123.136 873.989 121.955 874.534 120.943C875.08 119.932 875.849 119.145 876.844 118.582C877.838 118.02 879.011 117.739 880.364 117.739C881.352 117.739 882.247 117.892 883.048 118.199C883.849 118.506 884.534 118.952 885.102 119.537C885.67 120.116 886.108 120.821 886.415 121.651C886.722 122.48 886.875 123.415 886.875 124.455V125.545H875.182V122.955H882.545C882.54 122.58 882.443 122.25 882.256 121.966C882.074 121.676 881.827 121.452 881.514 121.293C881.207 121.128 880.858 121.045 880.466 121.045C880.085 121.045 879.736 121.128 879.418 121.293C879.099 121.452 878.844 121.673 878.651 121.957C878.463 122.241 878.364 122.574 878.352 122.955V125.75C878.352 126.17 878.44 126.545 878.616 126.875C878.793 127.205 879.045 127.463 879.375 127.651C879.705 127.838 880.102 127.932 880.568 127.932C880.892 127.932 881.188 127.886 881.455 127.795C881.727 127.705 881.96 127.574 882.153 127.403C882.347 127.227 882.489 127.017 882.58 126.773H886.875C886.727 127.682 886.378 128.472 885.827 129.142C885.276 129.807 884.545 130.324 883.636 130.693C882.733 131.057 881.676 131.239 880.466 131.239ZM888.795 131V117.909H893.363V120.398H893.499C893.738 119.477 894.116 118.804 894.633 118.378C895.156 117.952 895.766 117.739 896.465 117.739C896.67 117.739 896.871 117.756 897.07 117.79C897.275 117.818 897.471 117.861 897.658 117.918V121.932C897.425 121.852 897.138 121.793 896.798 121.753C896.457 121.713 896.164 121.693 895.92 121.693C895.46 121.693 895.045 121.798 894.675 122.009C894.312 122.213 894.025 122.503 893.815 122.878C893.604 123.247 893.499 123.682 893.499 124.182V131H888.795ZM910.63 131H903.914V113.545H910.562C912.357 113.545 913.908 113.895 915.215 114.594C916.528 115.287 917.539 116.287 918.249 117.594C918.965 118.895 919.323 120.455 919.323 122.273C919.323 124.091 918.968 125.653 918.258 126.96C917.548 128.261 916.542 129.261 915.241 129.96C913.94 130.653 912.403 131 910.63 131ZM908.653 126.977H910.46C911.323 126.977 912.059 126.838 912.667 126.56C913.281 126.281 913.746 125.801 914.065 125.119C914.388 124.437 914.55 123.489 914.55 122.273C914.55 121.057 914.386 120.108 914.056 119.426C913.732 118.744 913.255 118.264 912.624 117.986C911.999 117.707 911.232 117.568 910.323 117.568H908.653V126.977ZM927.857 131.239C926.459 131.239 925.254 130.972 924.243 130.438C923.237 129.898 922.462 129.125 921.916 128.119C921.376 127.108 921.107 125.898 921.107 124.489C921.107 123.136 921.379 121.955 921.925 120.943C922.47 119.932 923.24 119.145 924.234 118.582C925.229 118.02 926.402 117.739 927.754 117.739C928.743 117.739 929.638 117.892 930.439 118.199C931.24 118.506 931.925 118.952 932.493 119.537C933.061 120.116 933.499 120.821 933.805 121.651C934.112 122.48 934.266 123.415 934.266 124.455V125.545H922.572V122.955H929.936C929.93 122.58 929.834 122.25 929.646 121.966C929.464 121.676 929.217 121.452 928.905 121.293C928.598 121.128 928.249 121.045 927.857 121.045C927.476 121.045 927.126 121.128 926.808 121.293C926.49 121.452 926.234 121.673 926.041 121.957C925.854 122.241 925.754 122.574 925.743 122.955V125.75C925.743 126.17 925.831 126.545 926.007 126.875C926.183 127.205 926.436 127.463 926.766 127.651C927.095 127.838 927.493 127.932 927.959 127.932C928.283 127.932 928.578 127.886 928.845 127.795C929.118 127.705 929.351 127.574 929.544 127.403C929.737 127.227 929.879 127.017 929.97 126.773H934.266C934.118 127.682 933.768 128.472 933.217 129.142C932.666 129.807 931.936 130.324 931.027 130.693C930.124 131.057 929.067 131.239 927.857 131.239ZM936.185 131V117.909H940.651V120.398H940.788C941.06 119.58 941.526 118.932 942.185 118.455C942.844 117.977 943.629 117.739 944.538 117.739C945.458 117.739 946.251 117.983 946.915 118.472C947.58 118.955 947.981 119.597 948.117 120.398H948.254C948.475 119.597 948.947 118.955 949.668 118.472C950.39 117.983 951.237 117.739 952.208 117.739C953.464 117.739 954.481 118.142 955.259 118.949C956.043 119.756 956.435 120.83 956.435 122.17V131H951.731V123.364C951.731 122.79 951.586 122.341 951.296 122.017C951.006 121.687 950.617 121.523 950.129 121.523C949.646 121.523 949.262 121.687 948.978 122.017C948.7 122.341 948.56 122.79 948.56 123.364V131H944.06V123.364C944.06 122.79 943.915 122.341 943.626 122.017C943.336 121.687 942.947 121.523 942.458 121.523C942.134 121.523 941.856 121.597 941.623 121.744C941.39 121.892 941.208 122.105 941.077 122.384C940.952 122.656 940.89 122.983 940.89 123.364V131H936.185ZM962.403 131.205C961.568 131.205 960.83 131.068 960.188 130.795C959.551 130.517 959.051 130.097 958.688 129.534C958.324 128.972 958.142 128.256 958.142 127.386C958.142 126.67 958.264 126.06 958.509 125.554C958.753 125.043 959.094 124.625 959.531 124.301C959.969 123.977 960.477 123.73 961.057 123.56C961.642 123.389 962.273 123.278 962.949 123.227C963.682 123.17 964.27 123.102 964.713 123.023C965.162 122.937 965.486 122.821 965.685 122.673C965.884 122.52 965.983 122.318 965.983 122.068V122.034C965.983 121.693 965.852 121.432 965.591 121.25C965.33 121.068 964.994 120.977 964.585 120.977C964.136 120.977 963.77 121.077 963.486 121.276C963.207 121.469 963.04 121.767 962.983 122.17H958.653C958.71 121.375 958.963 120.642 959.412 119.972C959.866 119.295 960.528 118.756 961.398 118.352C962.267 117.943 963.352 117.739 964.653 117.739C965.591 117.739 966.432 117.849 967.176 118.071C967.92 118.287 968.554 118.591 969.077 118.983C969.599 119.369 969.997 119.824 970.27 120.347C970.548 120.864 970.688 121.426 970.688 122.034V131H966.29V129.159H966.188C965.926 129.648 965.608 130.043 965.233 130.344C964.864 130.645 964.44 130.864 963.963 131C963.491 131.136 962.972 131.205 962.403 131.205ZM963.938 128.239C964.295 128.239 964.631 128.165 964.943 128.017C965.261 127.869 965.52 127.656 965.719 127.378C965.918 127.099 966.017 126.761 966.017 126.364V125.273C965.892 125.324 965.759 125.372 965.616 125.418C965.48 125.463 965.332 125.506 965.173 125.545C965.02 125.585 964.855 125.622 964.679 125.656C964.509 125.69 964.33 125.722 964.142 125.75C963.778 125.807 963.48 125.901 963.247 126.031C963.02 126.156 962.849 126.312 962.736 126.5C962.628 126.682 962.574 126.886 962.574 127.114C962.574 127.477 962.702 127.756 962.957 127.949C963.213 128.142 963.54 128.239 963.938 128.239ZM977.64 123.636V131H972.935V117.909H977.401V120.398H977.538C977.822 119.568 978.322 118.918 979.038 118.446C979.759 117.974 980.6 117.739 981.56 117.739C982.487 117.739 983.29 117.952 983.972 118.378C984.66 118.798 985.191 119.378 985.566 120.116C985.947 120.855 986.134 121.699 986.129 122.648V131H981.424V123.636C981.43 122.989 981.265 122.48 980.93 122.111C980.6 121.741 980.14 121.557 979.549 121.557C979.163 121.557 978.825 121.642 978.535 121.812C978.251 121.977 978.032 122.216 977.879 122.528C977.725 122.835 977.646 123.205 977.64 123.636ZM993.19 131.17C992.258 131.17 991.4 130.926 990.616 130.438C989.837 129.949 989.212 129.207 988.741 128.213C988.275 127.219 988.042 125.966 988.042 124.455C988.042 122.875 988.286 121.591 988.775 120.602C989.269 119.614 989.906 118.889 990.684 118.429C991.468 117.969 992.292 117.739 993.156 117.739C993.803 117.739 994.371 117.852 994.86 118.08C995.349 118.301 995.758 118.599 996.087 118.974C996.417 119.344 996.667 119.75 996.837 120.193H996.906V113.545H1001.61V131H996.94V128.852H996.837C996.656 129.295 996.394 129.693 996.053 130.045C995.718 130.392 995.309 130.668 994.826 130.872C994.349 131.071 993.803 131.17 993.19 131.17ZM994.928 127.557C995.36 127.557 995.729 127.432 996.036 127.182C996.349 126.926 996.587 126.568 996.752 126.108C996.923 125.642 997.008 125.091 997.008 124.455C997.008 123.807 996.923 123.253 996.752 122.793C996.587 122.327 996.349 121.972 996.036 121.727C995.729 121.477 995.36 121.352 994.928 121.352C994.496 121.352 994.127 121.477 993.82 121.727C993.519 121.972 993.286 122.327 993.121 122.793C992.962 123.253 992.883 123.807 992.883 124.455C992.883 125.102 992.962 125.659 993.121 126.125C993.286 126.585 993.519 126.94 993.82 127.19C994.127 127.435 994.496 127.557 994.928 127.557Z" fill="black"/>
</svg>
