<svg width="438" height="108" viewBox="0 0 438 108" fill="none" xmlns="http://www.w3.org/2000/svg">
<path d="M171.229 61.0462H165.521C165.481 60.5739 165.373 60.1455 165.197 59.7609C165.029 59.3764 164.793 59.0458 164.489 58.7691C164.192 58.4858 163.831 58.2699 163.406 58.1215C162.981 57.9663 162.499 57.8887 161.959 57.8887C161.014 57.8887 160.215 58.1181 159.56 58.5769C158.913 59.0356 158.42 59.6934 158.083 60.5503C157.752 61.4071 157.587 62.436 157.587 63.6369C157.587 64.9053 157.756 65.968 158.093 66.8248C158.437 67.6749 158.933 68.3158 159.581 68.7476C160.228 69.1727 161.008 69.3852 161.918 69.3852C162.438 69.3852 162.903 69.3211 163.315 69.1929C163.727 69.058 164.084 68.8657 164.388 68.6161C164.691 68.3664 164.938 68.0662 165.126 67.7154C165.322 67.3578 165.454 66.9564 165.521 66.5111L171.229 66.5516C171.161 67.4286 170.915 68.3226 170.49 69.2334C170.065 70.1375 169.461 70.9741 168.679 71.7432C167.903 72.5056 166.941 73.1195 165.794 73.5851C164.647 74.0506 163.315 74.2834 161.797 74.2834C159.894 74.2834 158.187 73.8752 156.676 73.0588C155.172 72.2425 153.981 71.0415 153.104 69.456C152.233 67.8705 151.798 65.9308 151.798 63.6369C151.798 61.3295 152.244 59.3865 153.134 57.8077C154.025 56.2222 155.226 55.0247 156.737 54.2151C158.248 53.3987 159.935 52.9905 161.797 52.9905C163.106 52.9905 164.31 53.1693 165.41 53.5269C166.51 53.8845 167.474 54.4073 168.304 55.0955C169.134 55.7769 169.802 56.6169 170.308 57.6154C170.814 58.614 171.121 59.7575 171.229 61.0462ZM181.352 74.2834C179.665 74.2834 178.221 73.9494 177.02 73.2815C175.819 72.6068 174.898 71.669 174.257 70.4681C173.616 69.2604 173.296 67.8604 173.296 66.2682C173.296 64.6759 173.616 63.2794 174.257 62.0784C174.898 60.8708 175.819 59.933 177.02 59.265C178.221 58.5904 179.665 58.253 181.352 58.253C183.038 58.253 184.482 58.5904 185.683 59.265C186.884 59.933 187.805 60.8708 188.446 62.0784C189.087 63.2794 189.407 64.6759 189.407 66.2682C189.407 67.8604 189.087 69.2604 188.446 70.4681C187.805 71.669 186.884 72.6068 185.683 73.2815C184.482 73.9494 183.038 74.2834 181.352 74.2834ZM181.392 70.1543C181.864 70.1543 182.273 69.9958 182.617 69.6787C182.961 69.3616 183.227 68.9096 183.416 68.3226C183.605 67.7356 183.7 67.0373 183.7 66.2277C183.7 65.4113 183.605 64.7131 183.416 64.1328C183.227 63.5459 182.961 63.0938 182.617 62.7767C182.273 62.4596 181.864 62.3011 181.392 62.3011C180.893 62.3011 180.464 62.4596 180.107 62.7767C179.749 63.0938 179.476 63.5459 179.287 64.1328C179.098 64.7131 179.004 65.4113 179.004 66.2277C179.004 67.0373 179.098 67.7356 179.287 68.3226C179.476 68.9096 179.749 69.3616 180.107 69.6787C180.464 69.9958 180.893 70.1543 181.392 70.1543ZM197.261 65.2562V74H191.674V58.4554H196.977V61.4105H197.139C197.476 60.4255 198.07 59.653 198.92 59.093C199.777 58.533 200.776 58.253 201.916 58.253C203.016 58.253 203.97 58.506 204.78 59.012C205.596 59.5113 206.227 60.1995 206.672 61.0765C207.124 61.9536 207.347 62.9555 207.34 64.0822V74H201.754V65.2562C201.761 64.487 201.565 63.8832 201.167 63.4447C200.776 63.0061 200.229 62.7868 199.527 62.7868C199.069 62.7868 198.667 62.8881 198.323 63.0905C197.986 63.2861 197.726 63.5695 197.544 63.9405C197.362 64.3049 197.267 64.7434 197.261 65.2562ZM225.207 58.4554L219.985 74H213.508L208.286 58.4554H214.156L216.666 68.7375H216.828L219.338 58.4554H225.207ZM233.772 74.2834C232.112 74.2834 230.682 73.9663 229.481 73.3321C228.286 72.6911 227.366 71.7736 226.718 70.5794C226.077 69.3785 225.756 67.9414 225.756 66.2682C225.756 64.6625 226.08 63.2591 226.728 62.0582C227.376 60.8573 228.29 59.9228 229.471 59.2549C230.651 58.587 232.044 58.253 233.65 58.253C234.824 58.253 235.887 58.4352 236.838 58.7995C237.789 59.1638 238.602 59.6935 239.277 60.3884C239.952 61.0765 240.471 61.9131 240.835 62.8982C241.2 63.8832 241.382 64.993 241.382 66.2277V67.5231H227.497V64.4466H236.241C236.234 64.0013 236.119 63.61 235.897 63.2726C235.681 62.9285 235.387 62.662 235.016 62.4731C234.652 62.2775 234.237 62.1796 233.772 62.1796C233.32 62.1796 232.905 62.2775 232.527 62.4731C232.149 62.662 231.845 62.9252 231.616 63.2625C231.393 63.5998 231.275 63.9945 231.262 64.4466V67.766C231.262 68.2652 231.366 68.7105 231.576 69.1018C231.785 69.4932 232.085 69.8001 232.476 70.0228C232.868 70.2454 233.34 70.3567 233.893 70.3567C234.278 70.3567 234.628 70.3028 234.946 70.1948C235.269 70.0869 235.546 69.9317 235.775 69.7293C236.005 69.5201 236.173 69.2705 236.281 68.9804H241.382C241.207 70.0599 240.792 70.9977 240.137 71.7938C239.483 72.5832 238.616 73.1971 237.536 73.6357C236.464 74.0675 235.209 74.2834 233.772 74.2834ZM249.248 65.2562V74H243.662V58.4554H248.965V61.4105H249.126C249.464 60.4255 250.058 59.653 250.908 59.093C251.764 58.533 252.763 58.253 253.903 58.253C255.003 58.253 255.958 58.506 256.767 59.012C257.584 59.5113 258.214 60.1995 258.66 61.0765C259.112 61.9536 259.334 62.9555 259.328 64.0822V74H253.741V65.2562C253.748 64.487 253.552 63.8832 253.154 63.4447C252.763 63.0061 252.216 62.7868 251.515 62.7868C251.056 62.7868 250.655 62.8881 250.311 63.0905C249.973 63.2861 249.713 63.5695 249.531 63.9405C249.349 64.3049 249.255 64.7434 249.248 65.2562ZM271.355 58.4554V62.5035H261.114V58.4554H271.355ZM263.097 54.7312H268.684V69.0006C268.684 69.2165 268.721 69.3987 268.795 69.5471C268.869 69.6888 268.984 69.7968 269.139 69.871C269.294 69.9384 269.493 69.9722 269.736 69.9722C269.905 69.9722 270.101 69.9519 270.323 69.9115C270.553 69.871 270.721 69.8372 270.829 69.8102L271.639 73.7369C271.389 73.8111 271.032 73.9022 270.566 74.0101C270.107 74.1181 269.561 74.1889 268.927 74.2226C267.645 74.2901 266.569 74.1585 265.698 73.828C264.828 73.4906 264.173 72.961 263.735 72.2391C263.296 71.5172 263.084 70.6131 263.097 69.5269V54.7312ZM273.635 74V58.4554H279.221V74H273.635ZM276.428 56.8362C275.672 56.8362 275.025 56.5866 274.485 56.0873C273.945 55.588 273.675 54.9876 273.675 54.2859C273.675 53.5842 273.945 52.9838 274.485 52.4845C275.025 51.9853 275.672 51.7356 276.428 51.7356C277.191 51.7356 277.838 51.9853 278.371 52.4845C278.911 52.9838 279.181 53.5842 279.181 54.2859C279.181 54.9876 278.911 55.588 278.371 56.0873C277.838 56.5866 277.191 56.8362 276.428 56.8362ZM289.557 74.2834C287.87 74.2834 286.426 73.9494 285.225 73.2815C284.024 72.6068 283.103 71.669 282.462 70.4681C281.821 69.2604 281.501 67.8604 281.501 66.2682C281.501 64.6759 281.821 63.2794 282.462 62.0784C283.103 60.8708 284.024 59.933 285.225 59.265C286.426 58.5904 287.87 58.253 289.557 58.253C291.243 58.253 292.687 58.5904 293.888 59.265C295.089 59.933 296.01 60.8708 296.651 62.0784C297.292 63.2794 297.612 64.6759 297.612 66.2682C297.612 67.8604 297.292 69.2604 296.651 70.4681C296.01 71.669 295.089 72.6068 293.888 73.2815C292.687 73.9494 291.243 74.2834 289.557 74.2834ZM289.597 70.1543C290.069 70.1543 290.477 69.9958 290.822 69.6787C291.166 69.3616 291.432 68.9096 291.621 68.3226C291.81 67.7356 291.904 67.0373 291.904 66.2277C291.904 65.4113 291.81 64.7131 291.621 64.1328C291.432 63.5459 291.166 63.0938 290.822 62.7767C290.477 62.4596 290.069 62.3011 289.597 62.3011C289.098 62.3011 288.669 62.4596 288.312 62.7767C287.954 63.0938 287.681 63.5459 287.492 64.1328C287.303 64.7131 287.209 65.4113 287.209 66.2277C287.209 67.0373 287.303 67.7356 287.492 68.3226C287.681 68.9096 287.954 69.3616 288.312 69.6787C288.669 69.9958 289.098 70.1543 289.597 70.1543ZM305.465 65.2562V74H299.879V58.4554H305.182V61.4105H305.344C305.681 60.4255 306.275 59.653 307.125 59.093C307.982 58.533 308.981 58.253 310.121 58.253C311.22 58.253 312.175 58.506 312.985 59.012C313.801 59.5113 314.432 60.1995 314.877 61.0765C315.329 61.9536 315.552 62.9555 315.545 64.0822V74H309.959V65.2562C309.966 64.487 309.77 63.8832 309.372 63.4447C308.981 63.0061 308.434 62.7868 307.732 62.7868C307.274 62.7868 306.872 62.8881 306.528 63.0905C306.191 63.2861 305.931 63.5695 305.749 63.9405C305.567 64.3049 305.472 64.7434 305.465 65.2562ZM322.634 74.2429C321.643 74.2429 320.765 74.081 320.003 73.7571C319.247 73.4265 318.654 72.9273 318.222 72.2593C317.79 71.5914 317.574 70.7413 317.574 69.709C317.574 68.859 317.719 68.1337 318.009 67.5332C318.299 66.926 318.704 66.4301 319.224 66.0455C319.743 65.661 320.347 65.3675 321.035 65.1651C321.73 64.9627 322.479 64.8311 323.282 64.7704C324.152 64.7029 324.851 64.622 325.377 64.5275C325.91 64.4263 326.294 64.288 326.531 64.1126C326.767 63.9304 326.885 63.6909 326.885 63.3941V63.3536C326.885 62.9488 326.73 62.6384 326.419 62.4225C326.109 62.2066 325.711 62.0987 325.225 62.0987C324.692 62.0987 324.257 62.2167 323.92 62.4529C323.589 62.6823 323.39 63.0365 323.322 63.5155H318.181C318.249 62.571 318.549 61.7006 319.082 60.9045C319.622 60.1016 320.408 59.4607 321.44 58.9817C322.472 58.4959 323.761 58.253 325.306 58.253C326.419 58.253 327.418 58.3846 328.302 58.6477C329.185 58.9041 329.938 59.265 330.558 59.7306C331.179 60.1893 331.651 60.7291 331.975 61.3498C332.306 61.9637 332.471 62.6317 332.471 63.3536V74H327.249V71.814H327.128C326.817 72.3943 326.439 72.8632 325.994 73.2207C325.556 73.5783 325.053 73.8381 324.486 74C323.926 74.1619 323.309 74.2429 322.634 74.2429ZM324.456 70.7211C324.881 70.7211 325.279 70.6334 325.65 70.4579C326.028 70.2825 326.335 70.0295 326.571 69.6989C326.807 69.3683 326.925 68.9669 326.925 68.4946V67.1992C326.777 67.26 326.618 67.3173 326.45 67.3713C326.288 67.4253 326.112 67.4759 325.923 67.5231C325.741 67.5703 325.546 67.6142 325.336 67.6547C325.134 67.6951 324.921 67.7322 324.699 67.766C324.267 67.8334 323.913 67.9448 323.636 68.0999C323.366 68.2484 323.164 68.4339 323.029 68.6565C322.901 68.8724 322.837 69.1153 322.837 69.3852C322.837 69.817 322.989 70.1476 323.292 70.377C323.596 70.6064 323.984 70.7211 324.456 70.7211ZM340.727 53.2739V74H335.14V53.2739H340.727ZM360.342 59.7508C360.288 59.0761 360.035 58.5499 359.583 58.1721C359.138 57.7942 358.46 57.6053 357.549 57.6053C356.969 57.6053 356.493 57.6762 356.122 57.8178C355.758 57.9528 355.488 58.1383 355.312 58.3745C355.137 58.6106 355.046 58.8805 355.039 59.1841C355.026 59.4337 355.069 59.6597 355.171 59.8621C355.279 60.0578 355.447 60.2366 355.677 60.3985C355.906 60.5537 356.2 60.6953 356.557 60.8235C356.915 60.9517 357.34 61.0664 357.832 61.1676L359.532 61.5319C360.679 61.7748 361.661 62.0953 362.477 62.4934C363.294 62.8914 363.962 63.3603 364.481 63.9001C365.001 64.4331 365.382 65.0335 365.625 65.7015C365.874 66.3694 366.003 67.098 366.009 67.8874C366.003 69.2503 365.662 70.404 364.987 71.3485C364.313 72.2931 363.348 73.0116 362.093 73.5041C360.845 73.9966 359.344 74.2429 357.589 74.2429C355.788 74.2429 354.216 73.9764 352.873 73.4434C351.538 72.9104 350.499 72.0907 349.756 70.9842C349.021 69.871 348.65 68.4474 348.643 66.7135H353.987C354.02 67.3477 354.179 67.8807 354.462 68.3125C354.746 68.7443 355.144 69.0715 355.656 69.2941C356.176 69.5168 356.793 69.6281 357.508 69.6281C358.109 69.6281 358.612 69.5539 359.016 69.4054C359.421 69.257 359.728 69.0512 359.937 68.7881C360.146 68.525 360.254 68.2248 360.261 67.8874C360.254 67.5703 360.15 67.2937 359.947 67.0576C359.752 66.8147 359.428 66.5988 358.976 66.4099C358.524 66.2142 357.913 66.0321 357.144 65.8634L355.08 65.4181C353.244 65.02 351.797 64.3555 350.738 63.4244C349.686 62.4866 349.163 61.2081 349.169 59.5889C349.163 58.2733 349.513 57.1229 350.222 56.1379C350.937 55.1461 351.925 54.3736 353.187 53.8204C354.456 53.2671 355.909 52.9905 357.549 52.9905C359.222 52.9905 360.669 53.2705 361.89 53.8305C363.112 54.3905 364.053 55.1799 364.714 56.1986C365.382 57.2106 365.719 58.3947 365.726 59.7508H360.342ZM375.72 74.2834C374.033 74.2834 372.589 73.9494 371.388 73.2815C370.187 72.6068 369.266 71.669 368.625 70.4681C367.984 69.2604 367.664 67.8604 367.664 66.2682C367.664 64.6759 367.984 63.2794 368.625 62.0784C369.266 60.8708 370.187 59.933 371.388 59.265C372.589 58.5904 374.033 58.253 375.72 58.253C377.406 58.253 378.85 58.5904 380.051 59.265C381.252 59.933 382.173 60.8708 382.814 62.0784C383.455 63.2794 383.775 64.6759 383.775 66.2682C383.775 67.8604 383.455 69.2604 382.814 70.4681C382.173 71.669 381.252 72.6068 380.051 73.2815C378.85 73.9494 377.406 74.2834 375.72 74.2834ZM375.76 70.1543C376.232 70.1543 376.641 69.9958 376.985 69.6787C377.329 69.3616 377.595 68.9096 377.784 68.3226C377.973 67.7356 378.068 67.0373 378.068 66.2277C378.068 65.4113 377.973 64.7131 377.784 64.1328C377.595 63.5459 377.329 63.0938 376.985 62.7767C376.641 62.4596 376.232 62.3011 375.76 62.3011C375.261 62.3011 374.832 62.4596 374.475 62.7767C374.117 63.0938 373.844 63.5459 373.655 64.1328C373.466 64.7131 373.372 65.4113 373.372 66.2277C373.372 67.0373 373.466 67.7356 373.655 68.3226C373.844 68.9096 374.117 69.3616 374.475 69.6787C374.832 69.9958 375.261 70.1543 375.76 70.1543ZM391.629 53.2739V74H386.042V53.2739H391.629ZM398.806 74.2429C397.815 74.2429 396.937 74.081 396.175 73.7571C395.419 73.4265 394.826 72.9273 394.394 72.2593C393.962 71.5914 393.746 70.7413 393.746 69.709C393.746 68.859 393.891 68.1337 394.181 67.5332C394.471 66.926 394.876 66.4301 395.396 66.0455C395.915 65.661 396.519 65.3675 397.207 65.1651C397.902 64.9627 398.651 64.8311 399.454 64.7704C400.324 64.7029 401.023 64.622 401.549 64.5275C402.082 64.4263 402.466 64.288 402.703 64.1126C402.939 63.9304 403.057 63.6909 403.057 63.3941V63.3536C403.057 62.9488 402.902 62.6384 402.591 62.4225C402.281 62.2066 401.883 62.0987 401.397 62.0987C400.864 62.0987 400.429 62.2167 400.092 62.4529C399.761 62.6823 399.562 63.0365 399.494 63.5155H394.353C394.421 62.571 394.721 61.7006 395.254 60.9045C395.794 60.1016 396.58 59.4607 397.612 58.9817C398.644 58.4959 399.933 58.253 401.478 58.253C402.591 58.253 403.59 58.3846 404.474 58.6477C405.357 58.9041 406.11 59.265 406.73 59.7306C407.351 60.1893 407.823 60.7291 408.147 61.3498C408.478 61.9637 408.643 62.6317 408.643 63.3536V74H403.421V71.814H403.3C402.989 72.3943 402.611 72.8632 402.166 73.2207C401.728 73.5783 401.225 73.8381 400.658 74C400.098 74.1619 399.481 74.2429 398.806 74.2429ZM400.628 70.7211C401.053 70.7211 401.451 70.6334 401.822 70.4579C402.2 70.2825 402.507 70.0295 402.743 69.6989C402.979 69.3683 403.097 68.9669 403.097 68.4946V67.1992C402.949 67.26 402.79 67.3173 402.622 67.3713C402.46 67.4253 402.284 67.4759 402.095 67.5231C401.913 67.5703 401.718 67.6142 401.508 67.6547C401.306 67.6951 401.093 67.7322 400.871 67.766C400.439 67.8334 400.085 67.9448 399.808 68.0999C399.538 68.2484 399.336 68.4339 399.201 68.6565C399.073 68.8724 399.009 69.1153 399.009 69.3852C399.009 69.817 399.161 70.1476 399.464 70.377C399.768 70.6064 400.156 70.7211 400.628 70.7211ZM411.312 74V58.4554H416.737V61.4105H416.899C417.182 60.3175 417.631 59.518 418.245 59.012C418.865 58.506 419.591 58.253 420.42 58.253C420.663 58.253 420.903 58.2733 421.139 58.3137C421.382 58.3475 421.615 58.3981 421.837 58.4655V63.2321C421.561 63.1377 421.22 63.0668 420.815 63.0196C420.41 62.9724 420.063 62.9488 419.773 62.9488C419.226 62.9488 418.734 63.0736 418.295 63.3232C417.863 63.5661 417.523 63.9102 417.273 64.3555C417.023 64.794 416.899 65.3101 416.899 65.9039V74H411.312Z" fill="white"/>
<g filter="url(#filter0_d_406_5)">
<path d="M53.7976 29.432V25.3656H41.1677C40.8647 23.6292 40.1811 22.0229 39.2056 20.6353L48.2566 11.5843L45.3811 8.70881L36.3321 17.7572C34.8997 16.7472 33.234 16.0468 31.432 15.757V3H27.3656V15.8129C25.6846 16.1296 24.1292 16.8041 22.7801 17.7547L13.7424 8.71746L10.8674 11.593L19.9056 20.6307C18.9282 22.0199 18.244 23.6277 17.94 25.3656H5V29.432H17.94C18.244 31.174 18.9312 32.7854 19.9122 34.1766L10.876 43.2133L13.7515 46.0888L22.7903 37.0501C24.1368 37.9965 25.6887 38.6685 27.3656 38.9847V51.7976H31.432V39.0406C33.2299 38.7514 34.8916 38.054 36.322 37.0475L45.3719 46.098L48.2474 43.223L39.1985 34.1725C40.178 32.7823 40.8637 31.1725 41.1677 29.432H53.7976ZM29.5538 19.6725C33.814 19.6725 37.2801 23.1387 37.2801 27.3988C37.2801 31.6589 33.8145 35.1251 29.5538 35.1251C25.2932 35.1251 21.8276 31.6589 21.8276 27.3988C21.8276 23.1387 25.2937 19.6725 29.5538 19.6725ZM126.994 92.4623V59.9306H116.828V82.2961L98.5288 63.997H41.5982L5 100.595H70.0635L98.5288 72.13L126.994 100.595H135.127L126.994 92.4623ZM40.3422 79.7546H48.9738L43.8907 84.8377H35.2591L40.3422 79.7546ZM51.8493 79.7546H60.4814L55.3983 84.8377H46.7657L51.8493 79.7546ZM63.3564 79.7546H71.9885L66.9054 84.8377H58.2733L63.3564 79.7546ZM74.0217 77.7214H65.3896L70.981 72.13H79.6131L74.0217 77.7214ZM62.5141 77.7214H53.8825L59.4739 72.13H68.1055L62.5141 77.7214ZM51.007 77.7214H42.3754L47.9668 72.13H56.5984L51.007 77.7214ZM33.2259 86.8709H41.8575L36.2661 92.4623H27.6345L33.2259 86.8709ZM44.7324 86.8709H53.3645L47.7732 92.4623H39.1411L44.7324 86.8709ZM56.2395 86.8709H64.8716L59.2802 92.4623H50.6481L56.2395 86.8709Z" fill="white"/>
</g>
<defs>
<filter id="filter0_d_406_5" x="0" y="0" width="140.127" height="107.596" filterUnits="userSpaceOnUse" color-interpolation-filters="sRGB">
<feFlood flood-opacity="0" result="BackgroundImageFix"/>
<feColorMatrix in="SourceAlpha" type="matrix" values="0 0 0 0 0 0 0 0 0 0 0 0 0 0 0 0 0 0 127 0" result="hardAlpha"/>
<feOffset dy="2"/>
<feGaussianBlur stdDeviation="2.5"/>
<feComposite in2="hardAlpha" operator="out"/>
<feColorMatrix type="matrix" values="0 0 0 0 1 0 0 0 0 1 0 0 0 0 1 0 0 0 0.65 0"/>
<feBlend mode="normal" in2="BackgroundImageFix" result="effect1_dropShadow_406_5"/>
<feBlend mode="normal" in="SourceGraphic" in2="effect1_dropShadow_406_5" result="shape"/>
</filter>
</defs>
</svg>
