<svg width="420" height="200" viewBox="0 0 420 200" fill="none" xmlns="http://www.w3.org/2000/svg">
<path d="M65.3675 126.719C65.3293 126.241 65.15 125.868 64.8296 125.6C64.514 125.332 64.0335 125.198 63.388 125.198C62.9768 125.198 62.6397 125.248 62.3767 125.349C62.1185 125.445 61.9272 125.576 61.8029 125.743C61.6786 125.911 61.614 126.102 61.6093 126.317C61.5997 126.494 61.6308 126.654 61.7025 126.798C61.779 126.936 61.8985 127.063 62.0611 127.178C62.2237 127.288 62.4317 127.388 62.6851 127.479C62.9385 127.57 63.2398 127.651 63.5888 127.723L64.7938 127.981C65.6066 128.153 66.3023 128.38 66.8809 128.662C67.4595 128.945 67.9328 129.277 68.301 129.659C68.6692 130.037 68.9393 130.463 69.1115 130.936C69.2884 131.409 69.3792 131.926 69.384 132.485C69.3792 133.451 69.1378 134.269 68.6596 134.938C68.1815 135.608 67.4977 136.117 66.6083 136.466C65.7238 136.815 64.6599 136.99 63.4167 136.99C62.14 136.99 61.0259 136.801 60.0744 136.423C59.1276 136.045 58.3913 135.464 57.8653 134.68C57.3441 133.891 57.0811 132.882 57.0764 131.653H60.8633C60.8872 132.103 60.9996 132.481 61.2004 132.787C61.4013 133.093 61.6834 133.324 62.0468 133.482C62.4149 133.64 62.8525 133.719 63.3593 133.719C63.7849 133.719 64.1411 133.666 64.428 133.561C64.7149 133.456 64.9324 133.31 65.0806 133.124C65.2289 132.937 65.3054 132.724 65.3102 132.485C65.3054 132.261 65.2313 132.065 65.0878 131.897C64.9492 131.725 64.7196 131.572 64.3993 131.438C64.0789 131.299 63.6462 131.17 63.1011 131.051L61.6379 130.735C60.3374 130.453 59.3117 129.982 58.561 129.322C57.8151 128.658 57.4445 127.752 57.4493 126.604C57.4445 125.672 57.6932 124.856 58.1952 124.158C58.7021 123.455 59.4026 122.908 60.2967 122.516C61.1957 122.124 62.2261 121.928 63.388 121.928C64.5738 121.928 65.5994 122.126 66.4649 122.523C67.3304 122.92 67.9974 123.479 68.466 124.201C68.9393 124.919 69.1784 125.758 69.1832 126.719H65.3675ZM78.102 131.998V125.801H82.0611V136.817H78.3028V134.723H78.188C77.949 135.426 77.5306 135.976 76.9329 136.373C76.3352 136.765 75.6251 136.961 74.8027 136.961C74.0329 136.961 73.3587 136.784 72.7801 136.43C72.2063 136.076 71.7593 135.589 71.4389 134.967C71.1233 134.345 70.9631 133.633 70.9583 132.83V125.801H74.9175V131.998C74.9222 132.543 75.0609 132.971 75.3335 133.281C75.6108 133.592 75.9981 133.748 76.4954 133.748C76.8253 133.748 77.1098 133.678 77.3489 133.54C77.5927 133.396 77.7792 133.195 77.9083 132.937C78.0422 132.674 78.1067 132.361 78.102 131.998ZM84.0747 136.817V125.801H87.833V127.895H87.9477C88.1773 127.206 88.5693 126.661 89.124 126.26C89.6787 125.858 90.3385 125.657 91.1036 125.657C91.8782 125.657 92.5452 125.863 93.1046 126.274C93.6641 126.681 94.0012 127.221 94.1159 127.895H94.2307C94.4172 127.221 94.814 126.681 95.4213 126.274C96.0285 125.863 96.741 125.657 97.5586 125.657C98.6153 125.657 99.4712 125.997 100.126 126.676C100.786 127.355 101.116 128.258 101.116 129.387V136.817H97.157V130.391C97.157 129.908 97.035 129.53 96.7912 129.258C96.5473 128.98 96.2198 128.842 95.8086 128.842C95.4022 128.842 95.0794 128.98 94.8403 129.258C94.606 129.53 94.4889 129.908 94.4889 130.391V136.817H90.7019V130.391C90.7019 129.908 90.58 129.53 90.3361 129.258C90.0923 128.98 89.7647 128.842 89.3535 128.842C89.081 128.842 88.8467 128.904 88.6506 129.028C88.4546 129.153 88.3016 129.332 88.1916 129.566C88.0864 129.796 88.0338 130.071 88.0338 130.391V136.817H84.0747ZM103.069 136.817V125.801H106.827V127.895H106.942C107.171 127.206 107.563 126.661 108.118 126.26C108.673 125.858 109.333 125.657 110.098 125.657C110.872 125.657 111.539 125.863 112.099 126.274C112.658 126.681 112.995 127.221 113.11 127.895H113.225C113.411 127.221 113.808 126.681 114.415 126.274C115.023 125.863 115.735 125.657 116.553 125.657C117.609 125.657 118.465 125.997 119.12 126.676C119.78 127.355 120.11 128.258 120.11 129.387V136.817H116.151V130.391C116.151 129.908 116.029 129.53 115.785 129.258C115.541 128.98 115.214 128.842 114.803 128.842C114.396 128.842 114.073 128.98 113.834 129.258C113.6 129.53 113.483 129.908 113.483 130.391V136.817H109.696V130.391C109.696 129.908 109.574 129.53 109.33 129.258C109.086 128.98 108.759 128.842 108.348 128.842C108.075 128.842 107.841 128.904 107.645 129.028C107.449 129.153 107.296 129.332 107.186 129.566C107.08 129.796 107.028 130.071 107.028 130.391V136.817H103.069ZM127.342 137.018C126.165 137.018 125.152 136.793 124.301 136.344C123.454 135.89 122.802 135.239 122.343 134.393C121.888 133.542 121.661 132.524 121.661 131.338C121.661 130.2 121.891 129.205 122.35 128.354C122.809 127.503 123.457 126.841 124.293 126.367C125.13 125.894 126.118 125.657 127.256 125.657C128.088 125.657 128.841 125.786 129.515 126.045C130.189 126.303 130.765 126.678 131.243 127.171C131.721 127.658 132.09 128.251 132.348 128.949C132.606 129.647 132.735 130.434 132.735 131.309V132.227H122.895V130.047H129.092C129.087 129.731 129.006 129.454 128.848 129.215C128.695 128.971 128.487 128.782 128.224 128.648C127.966 128.509 127.672 128.44 127.342 128.44C127.021 128.44 126.727 128.509 126.459 128.648C126.192 128.782 125.976 128.968 125.814 129.208C125.656 129.447 125.572 129.726 125.563 130.047V132.399C125.563 132.753 125.637 133.069 125.785 133.346C125.933 133.623 126.146 133.841 126.424 133.999C126.701 134.156 127.036 134.235 127.428 134.235C127.7 134.235 127.949 134.197 128.174 134.121C128.403 134.044 128.599 133.934 128.762 133.791C128.924 133.642 129.044 133.466 129.12 133.26H132.735C132.611 134.025 132.317 134.69 131.853 135.254C131.389 135.813 130.775 136.248 130.01 136.559C129.249 136.865 128.36 137.018 127.342 137.018ZM134.351 136.817V125.801H138.195V127.895H138.31C138.511 127.12 138.829 126.554 139.264 126.195C139.704 125.837 140.218 125.657 140.806 125.657C140.978 125.657 141.148 125.672 141.315 125.7C141.487 125.724 141.652 125.76 141.81 125.808V129.186C141.614 129.119 141.372 129.069 141.086 129.035C140.799 129.002 140.552 128.985 140.347 128.985C139.959 128.985 139.61 129.074 139.3 129.251C138.994 129.423 138.752 129.667 138.575 129.982C138.398 130.293 138.31 130.659 138.31 131.08V136.817H134.351Z" fill="white"/>
<path d="M56.3823 57.2089C56.3823 58.1628 56.1968 58.9675 55.8259 59.623C55.4549 60.2757 54.9542 60.7708 54.3239 61.1083C53.6935 61.443 52.9906 61.6103 52.2152 61.6103C51.4342 61.6103 50.7285 61.4416 50.0982 61.1041C49.4706 60.7638 48.9713 60.2673 48.6004 59.6146C48.2322 58.9591 48.0481 58.1572 48.0481 57.2089C48.0481 56.255 48.2322 55.4517 48.6004 54.799C48.9713 54.1435 49.4706 53.6485 50.0982 53.3138C50.7285 52.9763 51.4342 52.8075 52.2152 52.8075C52.9906 52.8075 53.6935 52.9763 54.3239 53.3138C54.9542 53.6485 55.4549 54.1435 55.8259 54.799C56.1968 55.4517 56.3823 56.255 56.3823 57.2089ZM53.9892 57.2089C53.9892 56.6957 53.9208 56.2634 53.7841 55.9119C53.6503 55.5577 53.4508 55.2899 53.1859 55.1086C52.9237 54.9245 52.6001 54.8325 52.2152 54.8325C51.8303 54.8325 51.5053 54.9245 51.2404 55.1086C50.9782 55.2899 50.7788 55.5577 50.6421 55.9119C50.5082 56.2634 50.4413 56.6957 50.4413 57.2089C50.4413 57.7221 50.5082 58.1559 50.6421 58.5101C50.7788 58.8615 50.9782 59.1293 51.2404 59.3134C51.5053 59.4947 51.8303 59.5853 52.2152 59.5853C52.6001 59.5853 52.9237 59.4947 53.1859 59.3134C53.4508 59.1293 53.6503 58.8615 53.7841 58.5101C53.9208 58.1559 53.9892 57.7221 53.9892 57.2089ZM59.8016 57.8783V61.4932H57.4921V55.0668H59.6844V56.2885H59.7514C59.8908 55.8812 60.1363 55.5619 60.4877 55.3304C60.8419 55.0989 61.2547 54.9831 61.7261 54.9831C62.1808 54.9831 62.5754 55.0877 62.9102 55.2969C63.2477 55.5033 63.5084 55.7878 63.6925 56.1504C63.8794 56.513 63.9715 56.9272 63.9687 57.393V61.4932H61.6592V57.8783C61.662 57.5604 61.5811 57.3107 61.4165 57.1294C61.2547 56.9481 61.0288 56.8575 60.7387 56.8575C60.5491 56.8575 60.3831 56.8993 60.2409 56.983C60.1014 57.0639 59.994 57.181 59.9187 57.3344C59.8434 57.485 59.8043 57.6663 59.8016 57.8783ZM67.4182 52.9247V61.4932H65.1088V52.9247H67.4182ZM70.0007 63.9031C69.7357 63.9031 69.4833 63.8821 69.2434 63.8403C69.0036 63.8013 68.793 63.7469 68.6117 63.6771L69.1137 62.0371C69.3034 62.104 69.4763 62.1472 69.6325 62.1668C69.7915 62.1863 69.9268 62.1751 70.0384 62.1333C70.1527 62.0915 70.235 62.012 70.2852 61.8948L70.3354 61.7777L68.0762 55.0668H70.486L71.5236 59.5184H71.5906L72.6449 55.0668H75.0715L72.7286 62.0287C72.6114 62.3829 72.4413 62.7009 72.2182 62.9826C71.9978 63.2671 71.7077 63.4916 71.3479 63.6562C70.9881 63.8208 70.539 63.9031 70.0007 63.9031ZM77.9751 60.1543V58.3469L81.4226 52.9247H83.0627V55.3345H82.1255L80.2679 58.28V58.3469H85.3554V60.1543H77.9751ZM82.1422 61.4932V59.6021L82.1924 58.8155V52.9247H84.368V61.4932H82.1422ZM90.5654 56.3387V58.0791H86.5489V56.3387H90.5654ZM95.3538 61.6103C94.6955 61.6103 94.1112 61.4946 93.6007 61.2631C93.0931 61.0288 92.6928 60.7066 92.4 60.2966C92.1099 59.8866 91.9621 59.4152 91.9565 58.8824H94.2158C94.2241 59.1781 94.3385 59.4138 94.5588 59.5895C94.782 59.7652 95.047 59.8531 95.3538 59.8531C95.5909 59.8531 95.8 59.8029 95.9813 59.7025C96.1626 59.5993 96.3049 59.4542 96.4081 59.2674C96.5113 59.0805 96.5615 58.8629 96.5587 58.6147C96.5615 58.3636 96.5113 58.1461 96.4081 57.962C96.3049 57.7751 96.1626 57.6315 95.9813 57.5311C95.8 57.4279 95.5909 57.3763 95.3538 57.3763C95.1083 57.3763 94.881 57.4362 94.6718 57.5562C94.4654 57.6733 94.3134 57.8365 94.2158 58.0457L92.174 57.644L92.5088 52.9247H98.2657V54.7823H94.4166L94.2492 56.6734H94.2994C94.4333 56.414 94.6648 56.1992 94.994 56.0291C95.3231 55.8561 95.7052 55.7697 96.1403 55.7697C96.6508 55.7697 97.1054 55.8882 97.5043 56.1253C97.9059 56.3624 98.2225 56.6901 98.454 57.1085C98.6883 57.5241 98.804 58.0038 98.8013 58.5477C98.804 59.1446 98.6618 59.6746 98.3745 60.1376C98.09 60.5978 97.6897 60.959 97.1737 61.2212C96.6577 61.4806 96.0511 61.6103 95.3538 61.6103ZM102.135 61.4932V52.9247H104.461V56.2717H107.54V52.9247H109.866V61.4932H107.54V58.1461H104.461V61.4932H102.135ZM114.101 61.6103C113.403 61.6103 112.806 61.4722 112.31 61.1961C111.813 60.9172 111.433 60.5295 111.168 60.033C110.903 59.5337 110.77 58.955 110.77 58.2967C110.77 57.6384 110.903 57.0611 111.168 56.5646C111.433 56.0653 111.813 55.6776 112.31 55.4015C112.806 55.1226 113.403 54.9831 114.101 54.9831C114.798 54.9831 115.395 55.1226 115.891 55.4015C116.388 55.6776 116.768 56.0653 117.033 56.5646C117.298 57.0611 117.431 57.6384 117.431 58.2967C117.431 58.955 117.298 59.5337 117.033 60.033C116.768 60.5295 116.388 60.9172 115.891 61.1961C115.395 61.4722 114.798 61.6103 114.101 61.6103ZM114.117 59.9033C114.313 59.9033 114.481 59.8378 114.624 59.7067C114.766 59.5756 114.876 59.3887 114.954 59.146C115.032 58.9034 115.071 58.6147 115.071 58.28C115.071 57.9425 115.032 57.6538 114.954 57.4139C114.876 57.1713 114.766 56.9844 114.624 56.8533C114.481 56.7222 114.313 56.6566 114.117 56.6566C113.911 56.6566 113.734 56.7222 113.586 56.8533C113.438 56.9844 113.325 57.1713 113.247 57.4139C113.169 57.6538 113.13 57.9425 113.13 58.28C113.13 58.6147 113.169 58.9034 113.247 59.146C113.325 59.3887 113.438 59.5756 113.586 59.7067C113.734 59.8378 113.911 59.9033 114.117 59.9033ZM122.535 58.6816V55.0668H124.845V61.4932H122.652V60.2715H122.585C122.446 60.6815 122.202 61.0023 121.853 61.2338C121.505 61.4625 121.09 61.5768 120.611 61.5768C120.162 61.5768 119.768 61.4736 119.431 61.2672C119.096 61.0608 118.835 60.7763 118.648 60.4137C118.464 60.0511 118.371 59.6355 118.368 59.1669V55.0668H120.678V58.6816C120.68 58.9996 120.761 59.2492 120.92 59.4305C121.082 59.6118 121.308 59.7025 121.598 59.7025C121.79 59.7025 121.956 59.662 122.096 59.5811C122.238 59.4975 122.347 59.3803 122.422 59.2297C122.5 59.0763 122.538 58.8936 122.535 58.6816ZM126.019 61.4932V55.0668H128.262V56.2885H128.329C128.446 55.8366 128.631 55.5061 128.885 55.2969C129.142 55.0877 129.442 54.9831 129.785 54.9831C129.885 54.9831 129.984 54.9915 130.082 55.0082C130.182 55.0222 130.278 55.0431 130.37 55.071V57.0416C130.256 57.0025 130.115 56.9732 129.948 56.9537C129.781 56.9342 129.637 56.9244 129.517 56.9244C129.291 56.9244 129.087 56.976 128.906 57.0792C128.728 57.1796 128.587 57.3219 128.484 57.506C128.38 57.6873 128.329 57.9006 128.329 58.1461V61.4932H126.019ZM137.002 57.1587H134.876C134.865 57.0276 134.819 56.9146 134.738 56.8198C134.657 56.725 134.553 56.6525 134.425 56.6023C134.299 56.5493 134.16 56.5228 134.006 56.5228C133.808 56.5228 133.638 56.559 133.496 56.6315C133.354 56.7041 133.284 56.8073 133.287 56.9411C133.284 57.036 133.324 57.1238 133.408 57.2047C133.494 57.2856 133.66 57.3484 133.906 57.393L135.211 57.6273C135.869 57.7472 136.359 57.9494 136.68 58.234C137.003 58.5157 137.166 58.8936 137.169 59.3678C137.166 59.8252 137.03 60.2227 136.759 60.5602C136.491 60.8949 136.125 61.1543 135.659 61.3384C135.196 61.5197 134.667 61.6103 134.073 61.6103C133.091 61.6103 132.323 61.4095 131.768 61.0078C131.216 60.6062 130.907 60.0762 130.843 59.418H133.136C133.167 59.6216 133.267 59.7792 133.437 59.8908C133.61 59.9995 133.828 60.0539 134.09 60.0539C134.302 60.0539 134.476 60.0177 134.613 59.9451C134.752 59.8726 134.823 59.7694 134.826 59.6355C134.823 59.5128 134.762 59.4152 134.642 59.3427C134.525 59.2701 134.341 59.2116 134.09 59.1669L132.952 58.9661C132.296 58.8518 131.805 58.6342 131.479 58.3134C131.153 57.9927 130.991 57.5799 130.994 57.075C130.991 56.6287 131.108 56.2508 131.345 55.9412C131.585 55.6288 131.927 55.3917 132.37 55.23C132.817 55.0654 133.345 54.9831 133.956 54.9831C134.885 54.9831 135.617 55.1756 136.153 55.5605C136.691 55.9454 136.974 56.4781 137.002 57.1587ZM143.497 61.6103C142.8 61.6103 142.203 61.4722 141.707 61.1961C141.21 60.9172 140.829 60.5295 140.564 60.033C140.299 59.5337 140.167 58.955 140.167 58.2967C140.167 57.6384 140.299 57.0611 140.564 56.5646C140.829 56.0653 141.21 55.6776 141.707 55.4015C142.203 55.1226 142.8 54.9831 143.497 54.9831C144.195 54.9831 144.791 55.1226 145.288 55.4015C145.784 55.6776 146.165 56.0653 146.43 56.5646C146.695 57.0611 146.828 57.6384 146.828 58.2967C146.828 58.955 146.695 59.5337 146.43 60.033C146.165 60.5295 145.784 60.9172 145.288 61.1961C144.791 61.4722 144.195 61.6103 143.497 61.6103ZM143.514 59.9033C143.709 59.9033 143.878 59.8378 144.02 59.7067C144.162 59.5756 144.273 59.3887 144.351 59.146C144.429 58.9034 144.468 58.6147 144.468 58.28C144.468 57.9425 144.429 57.6538 144.351 57.4139C144.273 57.1713 144.162 56.9844 144.02 56.8533C143.878 56.7222 143.709 56.6566 143.514 56.6566C143.308 56.6566 143.13 56.7222 142.983 56.8533C142.835 56.9844 142.722 57.1713 142.644 57.4139C142.566 57.6538 142.527 57.9425 142.527 58.28C142.527 58.6147 142.566 58.9034 142.644 59.146C142.722 59.3887 142.835 59.5756 142.983 59.7067C143.13 59.8378 143.308 59.9033 143.514 59.9033ZM151.614 55.0668V56.7403H147.313V55.0668H151.614ZM148.133 61.4932V54.8827C148.133 54.3527 148.228 53.9134 148.417 53.5648C148.607 53.2161 148.875 52.9553 149.221 52.7824C149.567 52.6095 149.974 52.523 150.442 52.523C150.735 52.523 151.02 52.5453 151.296 52.5899C151.575 52.6346 151.781 52.6736 151.915 52.7071L151.58 54.3639C151.497 54.3388 151.399 54.3193 151.288 54.3053C151.176 54.2886 151.078 54.2802 150.995 54.2802C150.777 54.2802 150.631 54.3262 150.555 54.4183C150.48 54.5103 150.442 54.6317 150.442 54.7823V61.4932H148.133ZM68.3314 75.4932V66.9247H72.0299C72.6658 66.9247 73.2223 67.0502 73.6992 67.3012C74.1762 67.5522 74.5472 67.9051 74.8121 68.3597C75.0771 68.8144 75.2096 69.3457 75.2096 69.9538C75.2096 70.5674 75.0729 71.0987 74.7996 71.5478C74.529 71.9969 74.1483 72.3427 73.6574 72.5854C73.1693 72.8281 72.5989 72.9494 71.9462 72.9494H69.7371V71.142H71.4776C71.751 71.142 71.9839 71.0946 72.1763 70.9997C72.3716 70.9021 72.5208 70.764 72.624 70.5855C72.73 70.407 72.783 70.1964 72.783 69.9538C72.783 69.7083 72.73 69.4991 72.624 69.3262C72.5208 69.1505 72.3716 69.0166 72.1763 68.9245C71.9839 68.8297 71.751 68.7823 71.4776 68.7823H70.6576V75.4932H68.3314ZM79.0378 75.6103C78.3517 75.6103 77.7604 75.4792 77.2639 75.217C76.7702 74.9521 76.3894 74.5727 76.1217 74.079C75.8567 73.5825 75.7242 72.9884 75.7242 72.2967C75.7242 71.6329 75.8581 71.0527 76.1259 70.5562C76.3936 70.0597 76.7716 69.6734 77.2597 69.3973C77.7478 69.1212 78.3238 68.9831 78.9876 68.9831C79.4729 68.9831 79.9122 69.0584 80.3055 69.209C80.6988 69.3596 81.0349 69.5786 81.3138 69.8659C81.5928 70.1504 81.8075 70.4963 81.9581 70.9035C82.1088 71.3107 82.1841 71.7695 82.1841 72.28V72.8155H76.4438V71.5436H80.0587C80.0559 71.3595 80.0085 71.1978 79.9164 71.0583C79.8272 70.916 79.7058 70.8059 79.5524 70.7278C79.4018 70.6469 79.2303 70.6064 79.0378 70.6064C78.8509 70.6064 78.6794 70.6469 78.5232 70.7278C78.367 70.8059 78.2415 70.9146 78.1467 71.0541C78.0546 71.1936 78.0058 71.3567 78.0002 71.5436V72.9159C78.0002 73.1223 78.0435 73.3064 78.1299 73.4682C78.2164 73.63 78.3405 73.7569 78.5023 73.8489C78.6641 73.941 78.8593 73.987 79.088 73.987C79.247 73.987 79.3921 73.9647 79.5231 73.92C79.657 73.8754 79.7714 73.8113 79.8662 73.7276C79.9611 73.6411 80.0308 73.5379 80.0754 73.418H82.1841C82.1116 73.8643 81.94 74.252 81.6695 74.5811C81.3989 74.9074 81.0405 75.1612 80.5942 75.3425C80.1507 75.5211 79.6319 75.6103 79.0378 75.6103ZM84.9172 75.5936C84.5072 75.5936 84.1446 75.5266 83.8294 75.3928C83.517 75.2561 83.2715 75.0497 83.093 74.7735C82.9145 74.4974 82.8252 74.146 82.8252 73.7192C82.8252 73.3678 82.8852 73.0679 83.0052 72.8197C83.1251 72.5687 83.2924 72.3636 83.5072 72.2047C83.722 72.0457 83.9716 71.9243 84.2561 71.8407C84.5434 71.757 84.853 71.7026 85.1849 71.6775C85.5447 71.6496 85.8334 71.6161 86.051 71.5771C86.2713 71.5352 86.4303 71.4781 86.5279 71.4055C86.6256 71.3302 86.6744 71.2312 86.6744 71.1085V71.0918C86.6744 70.9244 86.6102 70.7961 86.4819 70.7068C86.3536 70.6176 86.1891 70.573 85.9882 70.573C85.7679 70.573 85.588 70.6218 85.4485 70.7194C85.3118 70.8142 85.2296 70.9607 85.2017 71.1587H83.0763C83.1042 70.7682 83.2283 70.4084 83.4486 70.0793C83.6718 69.7474 83.9967 69.4824 84.4235 69.2843C84.8502 69.0835 85.383 68.9831 86.0217 68.9831C86.4819 68.9831 86.8947 69.0375 87.2601 69.1463C87.6255 69.2523 87.9365 69.4015 88.1931 69.5939C88.4497 69.7836 88.645 70.0068 88.7789 70.2634C88.9155 70.5172 88.9839 70.7933 88.9839 71.0918V75.4932H86.825V74.5895H86.7748C86.6465 74.8293 86.4903 75.0232 86.3062 75.171C86.1249 75.3188 85.9171 75.4262 85.6828 75.4932C85.4513 75.5601 85.1961 75.5936 84.9172 75.5936ZM85.6703 74.1376C85.846 74.1376 86.0105 74.1013 86.164 74.0288C86.3201 73.9563 86.4471 73.8517 86.5447 73.715C86.6423 73.5784 86.6911 73.4124 86.6911 73.2172V72.6816C86.6298 72.7067 86.5642 72.7304 86.4945 72.7527C86.4275 72.7751 86.355 72.796 86.2769 72.8155C86.2016 72.835 86.1207 72.8532 86.0343 72.8699C85.9506 72.8866 85.8627 72.902 85.7707 72.9159C85.5922 72.9438 85.4457 72.9898 85.3314 73.054C85.2198 73.1153 85.1361 73.1921 85.0803 73.2841C85.0273 73.3734 85.0008 73.4738 85.0008 73.5853C85.0008 73.7638 85.0636 73.9005 85.1891 73.9953C85.3146 74.0902 85.475 74.1376 85.6703 74.1376ZM92.1625 73.9702L92.1793 71.2256H92.4805L94.0369 69.0668H96.6309L94.0202 72.4306H93.3675L92.1625 73.9702ZM90.0874 75.4932V66.9247H92.3968V75.4932H90.0874ZM94.0536 75.4932L92.5809 72.9494L94.0871 71.3093L96.6978 75.4932H94.0536ZM99.546 75.4932V66.9247H103.244C103.88 66.9247 104.437 67.0502 104.914 67.3012C105.391 67.5522 105.762 67.9051 106.027 68.3597C106.292 68.8144 106.424 69.3457 106.424 69.9538C106.424 70.5674 106.288 71.0987 106.014 71.5478C105.744 71.9969 105.363 72.3427 104.872 72.5854C104.384 72.8281 103.813 72.9494 103.161 72.9494H100.952V71.142H102.692C102.966 71.142 103.198 71.0946 103.391 70.9997C103.586 70.9021 103.735 70.764 103.839 70.5855C103.945 70.407 103.998 70.1964 103.998 69.9538C103.998 69.7083 103.945 69.4991 103.839 69.3262C103.735 69.1505 103.586 69.0166 103.391 68.9245C103.198 68.8297 102.966 68.7823 102.692 68.7823H101.872V75.4932H99.546ZM108.814 75.5936C108.404 75.5936 108.042 75.5266 107.726 75.3928C107.414 75.2561 107.169 75.0497 106.99 74.7735C106.812 74.4974 106.722 74.146 106.722 73.7192C106.722 73.3678 106.782 73.0679 106.902 72.8197C107.022 72.5687 107.19 72.3636 107.404 72.2047C107.619 72.0457 107.869 71.9243 108.153 71.8407C108.44 71.757 108.75 71.7026 109.082 71.6775C109.442 71.6496 109.73 71.6161 109.948 71.5771C110.168 71.5352 110.327 71.4781 110.425 71.4055C110.523 71.3302 110.571 71.2312 110.571 71.1085V71.0918C110.571 70.9244 110.507 70.7961 110.379 70.7068C110.251 70.6176 110.086 70.573 109.885 70.573C109.665 70.573 109.485 70.6218 109.346 70.7194C109.209 70.8142 109.127 70.9607 109.099 71.1587H106.973C107.001 70.7682 107.125 70.4084 107.346 70.0793C107.569 69.7474 107.894 69.4824 108.321 69.2843C108.747 69.0835 109.28 68.9831 109.919 68.9831C110.379 68.9831 110.792 69.0375 111.157 69.1463C111.523 69.2523 111.834 69.4015 112.09 69.5939C112.347 69.7836 112.542 70.0068 112.676 70.2634C112.813 70.5172 112.881 70.7933 112.881 71.0918V75.4932H110.722V74.5895H110.672C110.544 74.8293 110.387 75.0232 110.203 75.171C110.022 75.3188 109.814 75.4262 109.58 75.4932C109.348 75.5601 109.093 75.5936 108.814 75.5936ZM109.567 74.1376C109.743 74.1376 109.908 74.1013 110.061 74.0288C110.217 73.9563 110.344 73.8517 110.442 73.715C110.539 73.5784 110.588 73.4124 110.588 73.2172V72.6816C110.527 72.7067 110.461 72.7304 110.392 72.7527C110.325 72.7751 110.252 72.796 110.174 72.8155C110.099 72.835 110.018 72.8532 109.931 72.8699C109.848 72.8866 109.76 72.902 109.668 72.9159C109.489 72.9438 109.343 72.9898 109.228 73.054C109.117 73.1153 109.033 73.1921 108.977 73.2841C108.924 73.3734 108.898 73.4738 108.898 73.5853C108.898 73.7638 108.961 73.9005 109.086 73.9953C109.212 74.0902 109.372 74.1376 109.567 74.1376ZM116.294 71.8783V75.4932H113.984V69.0668H116.177V70.2885H116.244C116.383 69.8812 116.629 69.5619 116.98 69.3304C117.334 69.0989 117.747 68.9831 118.218 68.9831C118.673 68.9831 119.068 69.0877 119.402 69.2969C119.74 69.5033 120.001 69.7878 120.185 70.1504C120.372 70.513 120.464 70.9272 120.461 71.393V75.4932H118.152V71.8783C118.154 71.5604 118.073 71.3107 117.909 71.1294C117.747 70.9481 117.521 70.8575 117.231 70.8575C117.041 70.8575 116.875 70.8993 116.733 70.983C116.594 71.0639 116.486 71.181 116.411 71.3344C116.336 71.485 116.297 71.6663 116.294 71.8783ZM124.68 75.6103C123.994 75.6103 123.403 75.4792 122.906 75.217C122.413 74.9521 122.032 74.5727 121.764 74.079C121.499 73.5825 121.367 72.9884 121.367 72.2967C121.367 71.6329 121.501 71.0527 121.768 70.5562C122.036 70.0597 122.414 69.6734 122.902 69.3973C123.39 69.1212 123.966 68.9831 124.63 68.9831C125.116 68.9831 125.555 69.0584 125.948 69.209C126.341 69.3596 126.677 69.5786 126.956 69.8659C127.235 70.1504 127.45 70.4963 127.601 70.9035C127.751 71.3107 127.827 71.7695 127.827 72.28V72.8155H122.086V71.5436H125.701C125.698 71.3595 125.651 71.1978 125.559 71.0583C125.47 70.916 125.348 70.8059 125.195 70.7278C125.044 70.6469 124.873 70.6064 124.68 70.6064C124.494 70.6064 124.322 70.6469 124.166 70.7278C124.01 70.8059 123.884 70.9146 123.789 71.0541C123.697 71.1936 123.648 71.3567 123.643 71.5436V72.9159C123.643 73.1223 123.686 73.3064 123.773 73.4682C123.859 73.63 123.983 73.7569 124.145 73.8489C124.307 73.941 124.502 73.987 124.731 73.987C124.89 73.987 125.035 73.9647 125.166 73.92C125.3 73.8754 125.414 73.8113 125.509 73.7276C125.604 73.6411 125.673 73.5379 125.718 73.418H127.827C127.754 73.8643 127.583 74.252 127.312 74.5811C127.041 74.9074 126.683 75.1612 126.237 75.3425C125.793 75.5211 125.275 75.6103 124.68 75.6103ZM131.079 66.9247V75.4932H128.769V66.9247H131.079ZM60.8182 89.4932V80.9247H64.5167C65.1527 80.9247 65.7091 81.0502 66.1861 81.3012C66.6631 81.5522 67.034 81.9051 67.299 82.3597C67.564 82.8144 67.6965 83.3457 67.6965 83.9538C67.6965 84.5674 67.5598 85.0987 67.2865 85.5478C67.0159 85.9969 66.6352 86.3427 66.1443 86.5854C65.6561 86.8281 65.0858 86.9494 64.4331 86.9494H62.224V85.142H63.9645C64.2378 85.142 64.4707 85.0946 64.6632 84.9997C64.8584 84.9021 65.0077 84.764 65.1109 84.5855C65.2168 84.407 65.2698 84.1964 65.2698 83.9538C65.2698 83.7083 65.2168 83.4991 65.1109 83.3262C65.0077 83.1505 64.8584 83.0166 64.6632 82.9245C64.4707 82.8297 64.2378 82.7823 63.9645 82.7823H63.1444V89.4932H60.8182ZM68.5834 89.4932V83.0668H70.826V84.2885H70.8929C71.0101 83.8366 71.1956 83.5061 71.4494 83.2969C71.706 83.0877 72.0058 82.9831 72.3489 82.9831C72.4493 82.9831 72.5483 82.9915 72.646 83.0082C72.7464 83.0222 72.8426 83.0431 72.9346 83.071V85.0416C72.8203 85.0025 72.6794 84.9732 72.5121 84.9537C72.3447 84.9342 72.2011 84.9244 72.0811 84.9244C71.8552 84.9244 71.6516 84.976 71.4703 85.0792C71.2918 85.1796 71.1509 85.3219 71.0477 85.506C70.9445 85.6873 70.8929 85.9006 70.8929 86.1461V89.4932H68.5834ZM76.4198 89.6103C75.7225 89.6103 75.1256 89.4722 74.6291 89.1961C74.1326 88.9172 73.7519 88.5295 73.4869 88.033C73.2219 87.5337 73.0894 86.955 73.0894 86.2967C73.0894 85.6384 73.2219 85.0611 73.4869 84.5646C73.7519 84.0653 74.1326 83.6776 74.6291 83.4015C75.1256 83.1226 75.7225 82.9831 76.4198 82.9831C77.1171 82.9831 77.714 83.1226 78.2105 83.4015C78.707 83.6776 79.0877 84.0653 79.3527 84.5646C79.6176 85.0611 79.7501 85.6384 79.7501 86.2967C79.7501 86.955 79.6176 87.5337 79.3527 88.033C79.0877 88.5295 78.707 88.9172 78.2105 89.1961C77.714 89.4722 77.1171 89.6103 76.4198 89.6103ZM76.4365 87.9033C76.6318 87.9033 76.8005 87.8378 76.9428 87.7067C77.085 87.5756 77.1952 87.3887 77.2733 87.146C77.3514 86.9034 77.3904 86.6147 77.3904 86.28C77.3904 85.9425 77.3514 85.6538 77.2733 85.4139C77.1952 85.1713 77.085 84.9844 76.9428 84.8533C76.8005 84.7222 76.6318 84.6566 76.4365 84.6566C76.2301 84.6566 76.053 84.7222 75.9052 84.8533C75.7573 84.9844 75.6444 85.1713 75.5663 85.4139C75.4882 85.6538 75.4491 85.9425 75.4491 86.28C75.4491 86.6147 75.4882 86.9034 75.5663 87.146C75.6444 87.3887 75.7573 87.5756 75.9052 87.7067C76.053 87.8378 76.2301 87.9033 76.4365 87.9033ZM83.0135 89.5768C82.5561 89.5768 82.1349 89.4569 81.75 89.217C81.3679 88.9772 81.0611 88.6132 80.8296 88.125C80.6008 87.6369 80.4865 87.0219 80.4865 86.28C80.4865 85.5046 80.6064 84.8742 80.8463 84.3889C81.0889 83.9035 81.4013 83.5479 81.7835 83.322C82.1684 83.0961 82.5728 82.9831 82.9968 82.9831C83.3148 82.9831 83.5937 83.0389 83.8336 83.1505C84.0734 83.2592 84.2742 83.4057 84.436 83.5898C84.5978 83.7711 84.7205 83.9705 84.8042 84.1881H84.8377V80.9247H87.1472V89.4932H84.8544V88.4388H84.8042C84.7149 88.6564 84.5866 88.8516 84.4193 89.0246C84.2547 89.1947 84.0539 89.33 83.8168 89.4304C83.5825 89.528 83.3148 89.5768 83.0135 89.5768ZM83.867 87.8029C84.079 87.8029 84.2603 87.7415 84.4109 87.6188C84.5643 87.4933 84.6815 87.3176 84.7624 87.0916C84.846 86.8629 84.8879 86.5924 84.8879 86.28C84.8879 85.962 84.846 85.6901 84.7624 85.4641C84.6815 85.2354 84.5643 85.0611 84.4109 84.9411C84.2603 84.8184 84.079 84.7571 83.867 84.7571C83.655 84.7571 83.4737 84.8184 83.3231 84.9411C83.1753 85.0611 83.0609 85.2354 82.98 85.4641C82.9019 85.6901 82.8629 85.962 82.8629 86.28C82.8629 86.5979 82.9019 86.8713 82.98 87.1C83.0609 87.3259 83.1753 87.5003 83.3231 87.623C83.4737 87.7429 83.655 87.8029 83.867 87.8029ZM92.4481 86.6816V83.0668H94.7576V89.4932H92.5652V88.2715H92.4983C92.3588 88.6815 92.1148 89.0023 91.7661 89.2338C91.4175 89.4625 91.0033 89.5768 90.5235 89.5768C90.0745 89.5768 89.6812 89.4736 89.3437 89.2672C89.009 89.0608 88.7482 88.7763 88.5613 88.4137C88.3772 88.0511 88.2838 87.6355 88.281 87.1669V83.0668H90.5905V86.6816C90.5932 86.9996 90.6741 87.2492 90.8331 87.4305C90.9949 87.6118 91.2208 87.7025 91.5109 87.7025C91.7034 87.7025 91.8693 87.662 92.0088 87.5811C92.151 87.4975 92.2598 87.3803 92.3351 87.2297C92.4132 87.0763 92.4509 86.8936 92.4481 86.6816ZM99.0282 89.6103C98.3309 89.6103 97.734 89.4722 97.2375 89.1961C96.7411 88.9172 96.3603 88.5295 96.0954 88.033C95.8304 87.5337 95.6979 86.955 95.6979 86.2967C95.6979 85.6384 95.8304 85.0611 96.0954 84.5646C96.3603 84.0653 96.7411 83.6776 97.2375 83.4015C97.734 83.1226 98.3309 82.9831 99.0282 82.9831C99.6586 82.9831 100.204 83.0975 100.664 83.3262C101.127 83.5521 101.486 83.8729 101.739 84.2885C101.993 84.7013 102.121 85.1866 102.124 85.7444H99.9821C99.9515 85.4069 99.8538 85.1503 99.6893 84.9746C99.5275 84.7961 99.3183 84.7068 99.0617 84.7068C98.8609 84.7068 98.6852 84.7654 98.5345 84.8826C98.3839 84.9969 98.2668 85.1713 98.1831 85.4055C98.0994 85.6371 98.0576 85.9285 98.0576 86.28C98.0576 86.6314 98.0994 86.9243 98.1831 87.1586C98.2668 87.3901 98.3839 87.5644 98.5345 87.6816C98.6852 87.7959 98.8609 87.8531 99.0617 87.8531C99.2318 87.8531 99.3825 87.814 99.5136 87.7359C99.6446 87.6551 99.7506 87.5379 99.8315 87.3845C99.9152 87.2283 99.9654 87.0386 99.9821 86.8155H102.124C102.116 87.3817 101.986 87.8754 101.735 88.2966C101.484 88.715 101.129 89.0385 100.668 89.2672C100.211 89.496 99.6642 89.6103 99.0282 89.6103ZM106.91 83.0668V84.7403H102.675V83.0668H106.91ZM103.496 81.5271H105.805V87.4263C105.805 87.5156 105.82 87.5909 105.851 87.6523C105.882 87.7108 105.929 87.7555 105.993 87.7862C106.057 87.814 106.14 87.828 106.24 87.828C106.31 87.828 106.391 87.8196 106.483 87.8029C106.578 87.7862 106.647 87.7722 106.692 87.7611L107.027 89.3844C106.923 89.4151 106.776 89.4527 106.583 89.4973C106.394 89.542 106.168 89.5713 105.905 89.5852C105.375 89.6131 104.931 89.5587 104.571 89.422C104.211 89.2826 103.94 89.0636 103.759 88.7652C103.578 88.4667 103.49 88.093 103.496 87.6439V81.5271ZM107.852 89.4932V83.0668H110.161V89.4932H107.852ZM109.007 82.3974C108.694 82.3974 108.427 82.2942 108.203 82.0878C107.98 81.8814 107.869 81.6331 107.869 81.343C107.869 81.053 107.98 80.8047 108.203 80.5983C108.427 80.3919 108.694 80.2887 109.007 80.2887C109.322 80.2887 109.59 80.3919 109.81 80.5983C110.033 80.8047 110.145 81.053 110.145 81.343C110.145 81.6331 110.033 81.8814 109.81 82.0878C109.59 82.2942 109.322 82.3974 109.007 82.3974ZM114.434 89.6103C113.737 89.6103 113.14 89.4722 112.643 89.1961C112.147 88.9172 111.766 88.5295 111.501 88.033C111.236 87.5337 111.104 86.955 111.104 86.2967C111.104 85.6384 111.236 85.0611 111.501 84.5646C111.766 84.0653 112.147 83.6776 112.643 83.4015C113.14 83.1226 113.737 82.9831 114.434 82.9831C115.131 82.9831 115.728 83.1226 116.225 83.4015C116.721 83.6776 117.102 84.0653 117.367 84.5646C117.632 85.0611 117.765 85.6384 117.765 86.2967C117.765 86.955 117.632 87.5337 117.367 88.033C117.102 88.5295 116.721 88.9172 116.225 89.1961C115.728 89.4722 115.131 89.6103 114.434 89.6103ZM114.451 87.9033C114.646 87.9033 114.815 87.8378 114.957 87.7067C115.099 87.5756 115.21 87.3887 115.288 87.146C115.366 86.9034 115.405 86.6147 115.405 86.28C115.405 85.9425 115.366 85.6538 115.288 85.4139C115.21 85.1713 115.099 84.9844 114.957 84.8533C114.815 84.7222 114.646 84.6566 114.451 84.6566C114.245 84.6566 114.067 84.7222 113.92 84.8533C113.772 84.9844 113.659 85.1713 113.581 85.4139C113.503 85.6538 113.464 85.9425 113.464 86.28C113.464 86.6147 113.503 86.9034 113.581 87.146C113.659 87.3887 113.772 87.5756 113.92 87.7067C114.067 87.8378 114.245 87.9033 114.451 87.9033ZM121.011 85.8783V89.4932H118.702V83.0668H120.894V84.2885H120.961C121.1 83.8812 121.346 83.5619 121.697 83.3304C122.052 83.0989 122.464 82.9831 122.936 82.9831C123.39 82.9831 123.785 83.0877 124.12 83.2969C124.457 83.5033 124.718 83.7878 124.902 84.1504C125.089 84.513 125.181 84.9272 125.178 85.393V89.4932H122.869V85.8783C122.872 85.5604 122.791 85.3107 122.626 85.1294C122.464 84.9481 122.238 84.8575 121.948 84.8575C121.759 84.8575 121.593 84.8993 121.45 84.983C121.311 85.0639 121.204 85.181 121.128 85.3344C121.053 85.485 121.014 85.6663 121.011 85.8783ZM128.666 89.4932V83.0668H130.975V89.4932H128.666ZM129.82 82.3974C129.508 82.3974 129.24 82.2942 129.017 82.0878C128.794 81.8814 128.682 81.6331 128.682 81.343C128.682 81.053 128.794 80.8047 129.017 80.5983C129.24 80.3919 129.508 80.2887 129.82 80.2887C130.135 80.2887 130.403 80.3919 130.624 80.5983C130.847 80.8047 130.958 81.053 130.958 81.343C130.958 81.6331 130.847 81.8814 130.624 82.0878C130.403 82.2942 130.135 82.3974 129.82 82.3974ZM134.461 85.8783V89.4932H132.152V83.0668H134.344V84.2885H134.411C134.55 83.8812 134.796 83.5619 135.147 83.3304C135.502 83.0989 135.914 82.9831 136.386 82.9831C136.84 82.9831 137.235 83.0877 137.57 83.2969C137.907 83.5033 138.168 83.7878 138.352 84.1504C138.539 84.513 138.631 84.9272 138.628 85.393V89.4932H136.319V85.8783C136.322 85.5604 136.241 85.3107 136.076 85.1294C135.914 84.9481 135.688 84.8575 135.398 84.8575C135.209 84.8575 135.043 84.8993 134.9 84.983C134.761 85.0639 134.654 85.181 134.578 85.3344C134.503 85.485 134.464 85.6663 134.461 85.8783ZM58.3555 97.6023C58.3332 97.3234 58.2286 97.1058 58.0417 96.9496C57.8576 96.7934 57.5773 96.7153 57.2008 96.7153C56.9609 96.7153 56.7643 96.7446 56.6109 96.8032C56.4602 96.859 56.3487 96.9357 56.2761 97.0333C56.2036 97.1309 56.166 97.2425 56.1632 97.368C56.1576 97.4712 56.1757 97.5647 56.2176 97.6483C56.2622 97.7292 56.3319 97.8031 56.4268 97.8701C56.5216 97.9342 56.6429 97.9928 56.7908 98.0458C56.9386 98.0988 57.1143 98.1462 57.3179 98.1881L58.0208 98.3387C58.495 98.4391 58.9008 98.5716 59.2383 98.7361C59.5758 98.9007 59.8519 99.0946 60.0667 99.3177C60.2815 99.538 60.4391 99.7863 60.5395 100.062C60.6427 100.339 60.6957 100.64 60.6985 100.966C60.6957 101.53 60.5548 102.007 60.2759 102.397C59.997 102.787 59.5981 103.085 59.0793 103.288C58.5633 103.492 57.9427 103.594 57.2175 103.594C56.4728 103.594 55.8229 103.483 55.2678 103.263C54.7156 103.043 54.286 102.704 53.9792 102.246C53.6752 101.786 53.5218 101.198 53.519 100.481H55.7281C55.742 100.743 55.8076 100.963 55.9247 101.142C56.0419 101.32 56.2064 101.456 56.4184 101.548C56.6332 101.64 56.8884 101.686 57.184 101.686C57.4323 101.686 57.6401 101.655 57.8074 101.594C57.9748 101.532 58.1017 101.447 58.1882 101.338C58.2746 101.23 58.3193 101.106 58.322 100.966C58.3193 100.835 58.276 100.721 58.1923 100.623C58.1115 100.523 57.9776 100.433 57.7907 100.355C57.6038 100.274 57.3514 100.199 57.0334 100.129L56.1799 99.9453C55.4212 99.7807 54.823 99.506 54.3851 99.121C53.9499 98.7333 53.7338 98.2048 53.7366 97.5354C53.7338 96.9915 53.8788 96.5159 54.1717 96.1087C54.4673 95.6987 54.876 95.3793 55.3975 95.1506C55.9219 94.9219 56.523 94.8075 57.2008 94.8075C57.8925 94.8075 58.4908 94.9233 58.9956 95.1548C59.5005 95.3863 59.8896 95.7126 60.1629 96.1338C60.4391 96.5522 60.5785 97.0417 60.5813 97.6023H58.3555ZM65.7839 100.682V97.0668H68.0934V103.493H65.9011V102.271H65.8341C65.6947 102.681 65.4506 103.002 65.102 103.234C64.7533 103.462 64.3391 103.577 63.8594 103.577C63.4103 103.577 63.017 103.474 62.6795 103.267C62.3448 103.061 62.084 102.776 61.8971 102.414C61.7131 102.051 61.6196 101.636 61.6168 101.167V97.0668H63.9263V100.682C63.9291 101 64.01 101.249 64.169 101.431C64.3307 101.612 64.5567 101.702 64.8468 101.702C65.0392 101.702 65.2052 101.662 65.3446 101.581C65.4869 101.497 65.5957 101.38 65.671 101.23C65.7491 101.076 65.7867 100.894 65.7839 100.682ZM69.268 103.493V97.0668H71.4604V98.2885H71.5273C71.6612 97.8868 71.8899 97.5688 72.2135 97.3345C72.537 97.1003 72.9219 96.9831 73.3682 96.9831C73.82 96.9831 74.2091 97.103 74.5355 97.3429C74.8618 97.58 75.0585 97.8952 75.1254 98.2885H75.1923C75.3011 97.8952 75.5326 97.58 75.8869 97.3429C76.2411 97.103 76.6567 96.9831 77.1337 96.9831C77.7501 96.9831 78.2493 97.1811 78.6315 97.5772C79.0164 97.9733 79.2088 98.5004 79.2088 99.1587V103.493H76.8994V99.7444C76.8994 99.4627 76.8282 99.2424 76.686 99.0834C76.5437 98.9216 76.3527 98.8407 76.1128 98.8407C75.8757 98.8407 75.6874 98.9216 75.548 99.0834C75.4113 99.2424 75.343 99.4627 75.343 99.7444V103.493H73.1339V99.7444C73.1339 99.4627 73.0628 99.2424 72.9205 99.0834C72.7783 98.9216 72.5872 98.8407 72.3473 98.8407C72.1883 98.8407 72.0517 98.877 71.9373 98.9495C71.823 99.022 71.7337 99.1266 71.6696 99.2633C71.6082 99.3972 71.5775 99.5576 71.5775 99.7444V103.493H69.268ZM80.3479 103.493V97.0668H82.5402V98.2885H82.6072C82.7411 97.8868 82.9698 97.5688 83.2933 97.3345C83.6169 97.1003 84.0018 96.9831 84.4481 96.9831C84.8999 96.9831 85.289 97.103 85.6154 97.3429C85.9417 97.58 86.1383 97.8952 86.2053 98.2885H86.2722C86.381 97.8952 86.6125 97.58 86.9667 97.3429C87.321 97.103 87.7366 96.9831 88.2135 96.9831C88.8299 96.9831 89.3292 97.1811 89.7113 97.5772C90.0962 97.9733 90.2887 98.5004 90.2887 99.1587V103.493H87.9792V99.7444C87.9792 99.4627 87.9081 99.2424 87.7658 99.0834C87.6236 98.9216 87.4325 98.8407 87.1927 98.8407C86.9556 98.8407 86.7673 98.9216 86.6278 99.0834C86.4912 99.2424 86.4228 99.4627 86.4228 99.7444V103.493H84.2138V99.7444C84.2138 99.4627 84.1426 99.2424 84.0004 99.0834C83.8581 98.9216 83.6671 98.8407 83.4272 98.8407C83.2682 98.8407 83.1315 98.877 83.0172 98.9495C82.9028 99.022 82.8136 99.1266 82.7494 99.2633C82.6881 99.3972 82.6574 99.5576 82.6574 99.7444V103.493H80.3479ZM94.5071 103.61C93.8209 103.61 93.2296 103.479 92.7331 103.217C92.2394 102.952 91.8587 102.573 91.5909 102.079C91.3259 101.583 91.1935 100.988 91.1935 100.297C91.1935 99.6329 91.3273 99.0527 91.5951 98.5562C91.8629 98.0597 92.2408 97.6734 92.7289 97.3973C93.217 97.1212 93.793 96.9831 94.4569 96.9831C94.9422 96.9831 95.3815 97.0584 95.7748 97.209C96.168 97.3596 96.5041 97.5786 96.7831 97.8659C97.062 98.1504 97.2768 98.4963 97.4274 98.9035C97.578 99.3107 97.6533 99.7695 97.6533 100.28V100.816H91.9131V99.5436H95.5279C95.5251 99.3595 95.4777 99.1978 95.3857 99.0583C95.2964 98.916 95.1751 98.8059 95.0217 98.7278C94.8711 98.6469 94.6995 98.6064 94.5071 98.6064C94.3202 98.6064 94.1486 98.6469 93.9924 98.7278C93.8363 98.8059 93.7107 98.9146 93.6159 99.0541C93.5239 99.1936 93.475 99.3567 93.4695 99.5436V100.916C93.4695 101.122 93.5127 101.306 93.5992 101.468C93.6856 101.63 93.8098 101.757 93.9715 101.849C94.1333 101.941 94.3286 101.987 94.5573 101.987C94.7163 101.987 94.8613 101.965 94.9924 101.92C95.1263 101.875 95.2406 101.811 95.3355 101.728C95.4303 101.641 95.5 101.538 95.5447 101.418H97.6533C97.5808 101.864 97.4093 102.252 97.1387 102.581C96.8681 102.907 96.5097 103.161 96.0635 103.343C95.62 103.521 95.1012 103.61 94.5071 103.61ZM98.5957 103.493V97.0668H100.838V98.2885H100.905C101.022 97.8366 101.208 97.5061 101.462 97.2969C101.718 97.0877 102.018 96.9831 102.361 96.9831C102.462 96.9831 102.561 96.9915 102.658 97.0082C102.759 97.0222 102.855 97.0431 102.947 97.071V99.0416C102.833 99.0025 102.692 98.9732 102.524 98.9537C102.357 98.9342 102.213 98.9244 102.093 98.9244C101.867 98.9244 101.664 98.976 101.483 99.0792C101.304 99.1796 101.163 99.3219 101.06 99.506C100.957 99.6873 100.905 99.9006 100.905 100.146V103.493H98.5957ZM107.842 103.594C107.432 103.594 107.069 103.527 106.754 103.393C106.442 103.256 106.196 103.05 106.018 102.774C105.839 102.497 105.75 102.146 105.75 101.719C105.75 101.368 105.81 101.068 105.93 100.82C106.05 100.569 106.217 100.364 106.432 100.205C106.647 100.046 106.896 99.9243 107.181 99.8407C107.468 99.757 107.778 99.7026 108.11 99.6775C108.47 99.6496 108.758 99.6161 108.976 99.5771C109.196 99.5352 109.355 99.4781 109.453 99.4055C109.55 99.3302 109.599 99.2312 109.599 99.1085V99.0918C109.599 98.9244 109.535 98.7961 109.407 98.7068C109.278 98.6176 109.114 98.573 108.913 98.573C108.693 98.573 108.513 98.6218 108.373 98.7194C108.237 98.8142 108.154 98.9607 108.127 99.1587H106.001C106.029 98.7682 106.153 98.4084 106.373 98.0793C106.597 97.7474 106.922 97.4824 107.348 97.2843C107.775 97.0835 108.308 96.9831 108.947 96.9831C109.407 96.9831 109.82 97.0375 110.185 97.1463C110.55 97.2523 110.861 97.4015 111.118 97.5939C111.375 97.7836 111.57 98.0068 111.704 98.2634C111.84 98.5172 111.909 98.7933 111.909 99.0918V103.493H109.75V102.589H109.7C109.571 102.829 109.415 103.023 109.231 103.171C109.05 103.319 108.842 103.426 108.608 103.493C108.376 103.56 108.121 103.594 107.842 103.594ZM108.595 102.138C108.771 102.138 108.935 102.101 109.089 102.029C109.245 101.956 109.372 101.852 109.47 101.715C109.567 101.578 109.616 101.412 109.616 101.217V100.682C109.555 100.707 109.489 100.73 109.419 100.753C109.352 100.775 109.28 100.796 109.202 100.816C109.126 100.835 109.046 100.853 108.959 100.87C108.875 100.887 108.788 100.902 108.696 100.916C108.517 100.944 108.371 100.99 108.256 101.054C108.145 101.115 108.061 101.192 108.005 101.284C107.952 101.373 107.926 101.474 107.926 101.585C107.926 101.764 107.988 101.901 108.114 101.995C108.239 102.09 108.4 102.138 108.595 102.138ZM116.845 97.0668V98.7403H112.611V97.0668H116.845ZM113.431 95.5271H115.74V101.426C115.74 101.516 115.755 101.591 115.786 101.652C115.817 101.711 115.864 101.755 115.928 101.786C115.992 101.814 116.075 101.828 116.175 101.828C116.245 101.828 116.326 101.82 116.418 101.803C116.513 101.786 116.582 101.772 116.627 101.761L116.962 103.384C116.859 103.415 116.711 103.453 116.518 103.497C116.329 103.542 116.103 103.571 115.84 103.585C115.311 103.613 114.866 103.559 114.506 103.422C114.146 103.283 113.875 103.064 113.694 102.765C113.513 102.467 113.425 102.093 113.431 101.644V95.5271ZM120.117 103.493V101.82L123.314 99.1754C123.526 98.9997 123.707 98.8352 123.858 98.6817C124.011 98.5255 124.128 98.3652 124.209 98.2006C124.293 98.036 124.335 97.8533 124.335 97.6525C124.335 97.4322 124.287 97.2439 124.192 97.0877C124.1 96.9315 123.972 96.8116 123.808 96.7279C123.643 96.6414 123.453 96.5982 123.239 96.5982C123.024 96.5982 122.834 96.6414 122.67 96.7279C122.508 96.8144 122.382 96.9413 122.293 97.1086C122.204 97.276 122.159 97.4796 122.159 97.7195H119.95C119.95 97.117 120.085 96.5982 120.356 96.1631C120.626 95.728 121.009 95.3932 121.502 95.1589C121.996 94.9247 122.575 94.8075 123.239 94.8075C123.925 94.8075 124.519 94.9177 125.021 95.138C125.526 95.3556 125.915 95.6624 126.188 96.0585C126.464 96.4545 126.602 96.919 126.602 97.4517C126.602 97.7808 126.534 98.1086 126.397 98.4349C126.261 98.7584 126.015 99.1169 125.661 99.5101C125.307 99.9034 124.803 100.372 124.151 100.916L123.347 101.585V101.636H126.694V103.493H120.117ZM131.466 103.727C130.688 103.725 130.016 103.545 129.449 103.188C128.883 102.831 128.447 102.316 128.14 101.644C127.833 100.972 127.681 100.166 127.684 99.2256C127.687 98.2829 127.84 97.4824 128.144 96.8241C128.451 96.1659 128.886 95.6652 129.449 95.3221C130.016 94.979 130.688 94.8075 131.466 94.8075C132.244 94.8075 132.916 94.9804 133.483 95.3263C134.049 95.6694 134.485 96.17 134.792 96.8283C135.099 97.4866 135.251 98.2857 135.248 99.2256C135.248 100.171 135.095 100.98 134.788 101.652C134.481 102.324 134.045 102.839 133.479 103.196C132.915 103.55 132.244 103.727 131.466 103.727ZM131.466 101.836C131.868 101.836 132.197 101.627 132.453 101.209C132.713 100.788 132.841 100.127 132.838 99.2256C132.838 98.6371 132.78 98.156 132.663 97.7822C132.546 97.4085 132.384 97.1323 132.177 96.9538C131.971 96.7725 131.734 96.6819 131.466 96.6819C131.064 96.6819 130.737 96.8855 130.483 97.2927C130.229 97.6999 130.099 98.3442 130.094 99.2256C130.091 99.8253 130.148 100.319 130.265 100.707C130.382 101.092 130.544 101.376 130.751 101.56C130.96 101.744 131.198 101.836 131.466 101.836ZM141.244 101.887V101.435C141.244 101.072 141.322 100.737 141.478 100.431C141.637 100.124 141.867 99.8769 142.168 99.6901C142.47 99.5032 142.836 99.4097 143.269 99.4097C143.712 99.4097 144.085 99.5018 144.386 99.6859C144.69 99.87 144.92 100.115 145.076 100.422C145.232 100.729 145.31 101.067 145.31 101.435V101.887C145.31 102.249 145.231 102.584 145.072 102.891C144.916 103.198 144.686 103.444 144.382 103.631C144.078 103.818 143.707 103.912 143.269 103.912C142.831 103.912 142.461 103.818 142.16 103.631C141.859 103.444 141.63 103.198 141.474 102.891C141.32 102.584 141.244 102.249 141.244 101.887ZM142.7 101.435V101.887C142.7 102.046 142.739 102.203 142.817 102.359C142.898 102.513 143.048 102.589 143.269 102.589C143.5 102.589 143.652 102.514 143.725 102.364C143.8 102.213 143.838 102.054 143.838 101.887V101.435C143.838 101.267 143.803 101.106 143.733 100.949C143.663 100.793 143.509 100.715 143.269 100.715C143.048 100.715 142.898 100.793 142.817 100.949C142.739 101.106 142.7 101.267 142.7 101.435ZM136.759 96.9831V96.5312C136.759 96.1631 136.838 95.8256 136.997 95.5188C137.159 95.2119 137.39 94.9665 137.692 94.7824C137.993 94.5983 138.357 94.5063 138.784 94.5063C139.227 94.5063 139.599 94.5983 139.901 94.7824C140.205 94.9665 140.435 95.2119 140.591 95.5188C140.747 95.8256 140.825 96.1631 140.825 96.5312V96.9831C140.825 97.3513 140.746 97.6874 140.587 97.9914C140.431 98.2954 140.201 98.5381 139.897 98.7194C139.592 98.9007 139.222 98.9913 138.784 98.9913C138.346 98.9913 137.976 98.8993 137.675 98.7152C137.374 98.5311 137.145 98.2871 136.989 97.983C136.835 97.679 136.759 97.3457 136.759 96.9831ZM138.231 96.5312V96.9831C138.231 97.1505 138.27 97.3094 138.349 97.4601C138.427 97.6107 138.572 97.686 138.784 97.686C139.015 97.686 139.167 97.6107 139.24 97.4601C139.315 97.3094 139.353 97.1505 139.353 96.9831V96.5312C139.353 96.3639 139.318 96.2021 139.248 96.0459C139.178 95.8897 139.023 95.8116 138.784 95.8116C138.563 95.8116 138.415 95.8925 138.34 96.0543C138.268 96.2133 138.231 96.3723 138.231 96.5312ZM137.47 103.493L143.361 94.9247H144.549L138.658 103.493H137.47Z" fill="white"/>
<path d="M199.242 99.621C199.242 154.64 154.64 199.242 99.621 199.242C44.6018 199.242 0 154.64 0 99.621C0 44.6018 44.6018 0 99.621 0C154.64 0 199.242 44.6018 199.242 99.621ZM25.7582 99.621C25.7582 140.414 58.8277 173.484 99.621 173.484C140.414 173.484 173.484 140.414 173.484 99.621C173.484 58.8277 140.414 25.7582 99.621 25.7582C58.8277 25.7582 25.7582 58.8277 25.7582 99.621Z" fill="#949494"/>
<path d="M199.242 99.621C199.242 154.64 154.64 199.242 99.621 199.242C44.6018 199.242 0 154.64 0 99.621C0 44.6018 44.6018 0 99.621 0C154.64 0 199.242 44.6018 199.242 99.621ZM25.7582 99.621C25.7582 140.414 58.8277 173.484 99.621 173.484C140.414 173.484 173.484 140.414 173.484 99.621C173.484 58.8277 140.414 25.7582 99.621 25.7582C58.8277 25.7582 25.7582 58.8277 25.7582 99.621Z" fill="#949494"/>
<path d="M199.242 99.621C199.242 154.64 154.64 199.242 99.621 199.242C44.6018 199.242 0 154.64 0 99.621C0 44.6018 44.6018 0 99.621 0C154.64 0 199.242 44.6018 199.242 99.621ZM25.7582 99.621C25.7582 140.414 58.8277 173.484 99.621 173.484C140.414 173.484 173.484 140.414 173.484 99.621C173.484 58.8277 140.414 25.7582 99.621 25.7582C58.8277 25.7582 25.7582 58.8277 25.7582 99.621Z" fill="#BDBDBD"/>
<path d="M199.242 99.621C199.242 120.921 192.415 141.66 179.763 158.795C167.111 175.93 149.301 188.559 128.945 194.828C108.589 201.098 86.7589 200.678 66.6588 193.631C46.5588 186.583 29.2467 173.279 17.263 155.67C5.27925 138.061 -0.745203 117.075 0.073644 95.7912C0.892491 74.5071 8.51153 54.0459 21.8127 37.4099C35.114 20.7739 53.397 8.83901 73.9791 3.35658C94.5612 -2.12585 116.359 -0.867179 136.173 6.94791L126.722 30.9097C112.031 25.1153 95.8695 24.182 80.6091 28.2469C65.3488 32.3118 51.793 41.1608 41.931 53.4953C32.069 65.8299 26.4199 81.0006 25.8128 96.7814C25.2057 112.562 29.6725 128.122 38.5577 141.178C47.4429 154.234 60.2787 164.098 75.1816 169.323C90.0845 174.549 106.27 174.86 121.363 170.211C136.455 165.563 149.661 156.199 159.042 143.495C168.422 130.79 173.484 115.413 173.484 99.621H199.242Z" fill="#949494"/>
<path d="M199.242 99.621C199.242 120.921 192.415 141.66 179.763 158.795C167.111 175.93 149.301 188.559 128.945 194.828C108.589 201.098 86.7589 200.678 66.6588 193.631C46.5588 186.583 29.2467 173.279 17.263 155.67C5.27925 138.061 -0.745203 117.075 0.073644 95.7912C0.892491 74.5071 8.51153 54.0459 21.8127 37.4099C35.114 20.7739 53.397 8.83901 73.9791 3.35658C94.5612 -2.12585 116.359 -0.867179 136.173 6.94791L126.722 30.9097C112.031 25.1153 95.8695 24.182 80.6091 28.2469C65.3488 32.3118 51.793 41.1608 41.931 53.4953C32.069 65.8299 26.4199 81.0006 25.8128 96.7814C25.2057 112.562 29.6725 128.122 38.5577 141.178C47.4429 154.234 60.2787 164.098 75.1816 169.323C90.0845 174.549 106.27 174.86 121.363 170.211C136.455 165.563 149.661 156.199 159.042 143.495C168.422 130.79 173.484 115.413 173.484 99.621H199.242Z" fill="#949494"/>
<path d="M199.242 99.621C199.242 120.921 192.415 141.66 179.763 158.795C167.111 175.93 149.301 188.559 128.945 194.828C108.589 201.098 86.7589 200.678 66.6588 193.631C46.5588 186.583 29.2467 173.279 17.263 155.67C5.27925 138.061 -0.745203 117.075 0.073644 95.7912C0.892491 74.5071 8.51153 54.0459 21.8127 37.4099C35.114 20.7739 53.397 8.83901 73.9791 3.35658C94.5612 -2.12585 116.359 -0.867179 136.173 6.94791L126.722 30.9097C112.031 25.1153 95.8695 24.182 80.6091 28.2469C65.3488 32.3118 51.793 41.1608 41.931 53.4953C32.069 65.8299 26.4199 81.0006 25.8128 96.7814C25.2057 112.562 29.6725 128.122 38.5577 141.178C47.4429 154.234 60.2787 164.098 75.1816 169.323C90.0845 174.549 106.27 174.86 121.363 170.211C136.455 165.563 149.661 156.199 159.042 143.495C168.422 130.79 173.484 115.413 173.484 99.621H199.242Z" fill="#8205E9"/>
<path d="M199.447 99.7237C199.447 112.82 196.868 125.787 191.856 137.886C186.845 149.985 179.499 160.979 170.239 170.239C160.979 179.499 149.985 186.845 137.886 191.856C125.787 196.868 112.82 199.447 99.7237 199.447C86.6278 199.447 73.6601 196.868 61.5611 191.856C49.462 186.845 38.4686 179.499 29.2084 170.239C19.9482 160.979 12.6026 149.985 7.59101 137.886C2.57943 125.787 -1.14488e-06 112.82 0 99.7237H25.7848C25.7848 109.433 27.6973 119.048 31.413 128.019C35.1288 136.99 40.5751 145.141 47.441 152.006C54.3068 158.872 62.4578 164.319 71.4285 168.034C80.3992 171.75 90.0139 173.663 99.7237 173.663C109.433 173.663 119.048 171.75 128.019 168.034C136.99 164.319 145.141 158.872 152.006 152.006C158.872 145.141 164.319 136.99 168.034 128.019C171.75 119.048 173.663 109.433 173.663 99.7237H199.447Z" fill="#949494"/>
<path d="M199.447 99.7237C199.447 112.82 196.868 125.787 191.856 137.886C186.845 149.985 179.499 160.979 170.239 170.239C160.979 179.499 149.985 186.845 137.886 191.856C125.787 196.868 112.82 199.447 99.7237 199.447C86.6278 199.447 73.6601 196.868 61.5611 191.856C49.462 186.845 38.4686 179.499 29.2084 170.239C19.9482 160.979 12.6026 149.985 7.59101 137.886C2.57943 125.787 -1.14488e-06 112.82 0 99.7237H25.7848C25.7848 109.433 27.6973 119.048 31.413 128.019C35.1288 136.99 40.5751 145.141 47.441 152.006C54.3068 158.872 62.4578 164.319 71.4285 168.034C80.3992 171.75 90.0139 173.663 99.7237 173.663C109.433 173.663 119.048 171.75 128.019 168.034C136.99 164.319 145.141 158.872 152.006 152.006C158.872 145.141 164.319 136.99 168.034 128.019C171.75 119.048 173.663 109.433 173.663 99.7237H199.447Z" fill="#949494"/>
<path d="M199.447 99.7237C199.447 112.82 196.868 125.787 191.856 137.886C186.845 149.985 179.499 160.979 170.239 170.239C160.979 179.499 149.985 186.845 137.886 191.856C125.787 196.868 112.82 199.447 99.7237 199.447C86.6278 199.447 73.6601 196.868 61.5611 191.856C49.462 186.845 38.4686 179.499 29.2084 170.239C19.9482 160.979 12.6026 149.985 7.59101 137.886C2.57943 125.787 -1.14488e-06 112.82 0 99.7237H25.7848C25.7848 109.433 27.6973 119.048 31.413 128.019C35.1288 136.99 40.5751 145.141 47.441 152.006C54.3068 158.872 62.4578 164.319 71.4285 168.034C80.3992 171.75 90.0139 173.663 99.7237 173.663C109.433 173.663 119.048 171.75 128.019 168.034C136.99 164.319 145.141 158.872 152.006 152.006C158.872 145.141 164.319 136.99 168.034 128.019C171.75 119.048 173.663 109.433 173.663 99.7237H199.447Z" fill="#FFD600"/>
<path d="M288.085 139.342L283.753 124.653H288.2L290.208 133.69H290.323L292.704 124.653H296.204L298.585 133.719H298.7L300.708 124.653H305.155L300.823 139.342H297.007L294.511 131.137H294.397L291.901 139.342H288.085ZM306.503 139.342V128.325H310.462V139.342H306.503ZM308.483 127.178C307.947 127.178 307.488 127.001 307.106 126.647C306.723 126.293 306.532 125.867 306.532 125.37C306.532 124.873 306.723 124.447 307.106 124.093C307.488 123.74 307.947 123.563 308.483 123.563C309.023 123.563 309.482 123.74 309.86 124.093C310.243 124.447 310.434 124.873 310.434 125.37C310.434 125.867 310.243 126.293 309.86 126.647C309.482 127.001 309.023 127.178 308.483 127.178ZM316.439 133.145V139.342H312.48V128.325H316.238V130.419H316.353C316.592 129.721 317.013 129.174 317.615 128.777C318.222 128.38 318.93 128.182 319.738 128.182C320.517 128.182 321.194 128.361 321.768 128.72C322.346 129.073 322.793 129.561 323.109 130.183C323.429 130.804 323.587 131.514 323.582 132.313V139.342H319.623V133.145C319.628 132.6 319.489 132.172 319.207 131.861C318.93 131.55 318.543 131.395 318.045 131.395C317.72 131.395 317.436 131.467 317.192 131.61C316.953 131.749 316.769 131.95 316.64 132.213C316.511 132.471 316.444 132.782 316.439 133.145ZM332.107 128.325V131.194H324.848V128.325H332.107ZM326.254 125.686H330.213V135.799C330.213 135.952 330.239 136.081 330.292 136.186C330.345 136.286 330.426 136.363 330.536 136.415C330.646 136.463 330.787 136.487 330.959 136.487C331.079 136.487 331.217 136.473 331.375 136.444C331.538 136.415 331.657 136.392 331.734 136.372L332.308 139.155C332.131 139.208 331.877 139.272 331.547 139.349C331.222 139.425 330.835 139.476 330.385 139.5C329.477 139.547 328.714 139.454 328.097 139.22C327.481 138.981 327.017 138.605 326.706 138.094C326.395 137.582 326.245 136.941 326.254 136.172V125.686ZM338.883 139.543C337.706 139.543 336.693 139.318 335.842 138.868C334.995 138.414 334.343 137.764 333.884 136.918C333.429 136.066 333.202 135.048 333.202 133.862C333.202 132.724 333.432 131.73 333.891 130.878C334.35 130.027 334.998 129.365 335.834 128.892C336.671 128.418 337.659 128.182 338.797 128.182C339.629 128.182 340.382 128.311 341.056 128.569C341.73 128.827 342.306 129.203 342.784 129.695C343.263 130.183 343.631 130.776 343.889 131.474C344.147 132.172 344.276 132.958 344.276 133.833V134.752H334.436V132.571H340.633C340.628 132.256 340.547 131.978 340.389 131.739C340.236 131.495 340.028 131.306 339.765 131.173C339.507 131.034 339.213 130.965 338.883 130.965C338.562 130.965 338.268 131.034 338.001 131.173C337.733 131.306 337.518 131.493 337.355 131.732C337.197 131.971 337.114 132.251 337.104 132.571V134.924C337.104 135.277 337.178 135.593 337.326 135.87C337.475 136.148 337.687 136.365 337.965 136.523C338.242 136.681 338.577 136.76 338.969 136.76C339.241 136.76 339.49 136.722 339.715 136.645C339.944 136.569 340.14 136.459 340.303 136.315C340.465 136.167 340.585 135.99 340.661 135.784H344.276C344.152 136.549 343.858 137.214 343.394 137.778C342.93 138.338 342.316 138.773 341.551 139.084C340.791 139.39 339.901 139.543 338.883 139.543ZM345.892 139.342V128.325H349.736V130.419H349.851C350.052 129.645 350.37 129.078 350.805 128.72C351.245 128.361 351.759 128.182 352.347 128.182C352.519 128.182 352.689 128.196 352.856 128.225C353.028 128.249 353.193 128.284 353.351 128.332V131.71C353.155 131.644 352.914 131.593 352.627 131.56C352.34 131.526 352.093 131.51 351.888 131.51C351.501 131.51 351.152 131.598 350.841 131.775C350.535 131.947 350.293 132.191 350.116 132.507C349.939 132.817 349.851 133.183 349.851 133.604V139.342H345.892Z" fill="white"/>
<path d="M277.385 57.2089C277.385 58.1628 277.199 58.9675 276.828 59.623C276.457 60.2757 275.956 60.7708 275.326 61.1083C274.696 61.443 273.993 61.6103 273.217 61.6103C272.436 61.6103 271.731 61.4416 271.1 61.1041C270.473 60.7638 269.974 60.2673 269.603 59.6146C269.234 58.9591 269.05 58.1572 269.05 57.2089C269.05 56.255 269.234 55.4517 269.603 54.799C269.974 54.1435 270.473 53.6485 271.1 53.3138C271.731 52.9763 272.436 52.8075 273.217 52.8075C273.993 52.8075 274.696 52.9763 275.326 53.3138C275.956 53.6485 276.457 54.1435 276.828 54.799C277.199 55.4517 277.385 56.255 277.385 57.2089ZM274.991 57.2089C274.991 56.6957 274.923 56.2634 274.786 55.9119C274.652 55.5577 274.453 55.2899 274.188 55.1086C273.926 54.9245 273.602 54.8325 273.217 54.8325C272.832 54.8325 272.508 54.9245 272.243 55.1086C271.98 55.2899 271.781 55.5577 271.644 55.9119C271.51 56.2634 271.443 56.6957 271.443 57.2089C271.443 57.7221 271.51 58.1559 271.644 58.5101C271.781 58.8615 271.98 59.1293 272.243 59.3134C272.508 59.4947 272.832 59.5853 273.217 59.5853C273.602 59.5853 273.926 59.4947 274.188 59.3134C274.453 59.1293 274.652 58.8615 274.786 58.5101C274.923 58.1559 274.991 57.7221 274.991 57.2089ZM280.804 57.8783V61.4932H278.494V55.0668H280.687V56.2885H280.754C280.893 55.8812 281.138 55.5619 281.49 55.3304C281.844 55.0989 282.257 54.9831 282.728 54.9831C283.183 54.9831 283.578 55.0877 283.912 55.2969C284.25 55.5033 284.511 55.7878 284.695 56.1504C284.882 56.513 284.974 56.9272 284.971 57.393V61.4932H282.661V57.8783C282.664 57.5604 282.583 57.3107 282.419 57.1294C282.257 56.9481 282.031 56.8575 281.741 56.8575C281.551 56.8575 281.385 56.8993 281.243 56.983C281.104 57.0639 280.996 57.181 280.921 57.3344C280.846 57.485 280.807 57.6663 280.804 57.8783ZM288.42 52.9247V61.4932H286.111V52.9247H288.42ZM291.003 63.9031C290.738 63.9031 290.486 63.8821 290.246 63.8403C290.006 63.8013 289.795 63.7469 289.614 63.6771L290.116 62.0371C290.306 62.104 290.479 62.1472 290.635 62.1668C290.794 62.1863 290.929 62.1751 291.041 62.1333C291.155 62.0915 291.237 62.012 291.287 61.8948L291.338 61.7777L289.078 55.0668H291.488L292.526 59.5184H292.593L293.647 55.0668H296.074L293.731 62.0287C293.614 62.3829 293.443 62.7009 293.22 62.9826C293 63.2671 292.71 63.4916 292.35 63.6562C291.99 63.8208 291.541 63.9031 291.003 63.9031ZM303.262 52.9247V61.4932H300.935V55.0668H300.885L299.011 56.1881V54.2133L301.119 52.9247H303.262ZM309.255 56.3387V58.0791H305.238V56.3387H309.255ZM310.475 61.4932V59.8196L313.671 57.1754C313.883 56.9997 314.064 56.8352 314.215 56.6817C314.368 56.5255 314.485 56.3652 314.566 56.2006C314.65 56.036 314.692 55.8533 314.692 55.6525C314.692 55.4322 314.644 55.2439 314.55 55.0877C314.458 54.9315 314.329 54.8116 314.165 54.7279C314 54.6414 313.81 54.5982 313.596 54.5982C313.381 54.5982 313.191 54.6414 313.027 54.7279C312.865 54.8144 312.739 54.9413 312.65 55.1086C312.561 55.276 312.516 55.4796 312.516 55.7195H310.307C310.307 55.117 310.442 54.5982 310.713 54.1631C310.984 53.728 311.366 53.3932 311.859 53.1589C312.353 52.9247 312.932 52.8075 313.596 52.8075C314.282 52.8075 314.876 52.9177 315.378 53.138C315.883 53.3556 316.272 53.6624 316.545 54.0585C316.821 54.4545 316.959 54.919 316.959 55.4517C316.959 55.7808 316.891 56.1086 316.754 56.4349C316.618 56.7584 316.372 57.1169 316.018 57.5101C315.664 57.9034 315.16 58.372 314.508 58.9159L313.704 59.5853V59.6355H317.052V61.4932H310.475ZM320.422 61.4932V52.9247H322.748V56.2717H325.827V52.9247H328.153V61.4932H325.827V58.1461H322.748V61.4932H320.422ZM332.387 61.6103C331.69 61.6103 331.093 61.4722 330.597 61.1961C330.1 60.9172 329.719 60.5295 329.455 60.033C329.19 59.5337 329.057 58.955 329.057 58.2967C329.057 57.6384 329.19 57.0611 329.455 56.5646C329.719 56.0653 330.1 55.6776 330.597 55.4015C331.093 55.1226 331.69 54.9831 332.387 54.9831C333.085 54.9831 333.682 55.1226 334.178 55.4015C334.675 55.6776 335.055 56.0653 335.32 56.5646C335.585 57.0611 335.718 57.6384 335.718 58.2967C335.718 58.955 335.585 59.5337 335.32 60.033C335.055 60.5295 334.675 60.9172 334.178 61.1961C333.682 61.4722 333.085 61.6103 332.387 61.6103ZM332.404 59.9033C332.599 59.9033 332.768 59.8378 332.91 59.7067C333.053 59.5756 333.163 59.3887 333.241 59.146C333.319 58.9034 333.358 58.6147 333.358 58.28C333.358 57.9425 333.319 57.6538 333.241 57.4139C333.163 57.1713 333.053 56.9844 332.91 56.8533C332.768 56.7222 332.599 56.6566 332.404 56.6566C332.198 56.6566 332.021 56.7222 331.873 56.8533C331.725 56.9844 331.612 57.1713 331.534 57.4139C331.456 57.6538 331.417 57.9425 331.417 58.28C331.417 58.6147 331.456 58.9034 331.534 59.146C331.612 59.3887 331.725 59.5756 331.873 59.7067C332.021 59.8378 332.198 59.9033 332.404 59.9033ZM340.822 58.6816V55.0668H343.132V61.4932H340.939V60.2715H340.872C340.733 60.6815 340.489 61.0023 340.14 61.2338C339.791 61.4625 339.377 61.5768 338.897 61.5768C338.448 61.5768 338.055 61.4736 337.718 61.2672C337.383 61.0608 337.122 60.7763 336.935 60.4137C336.751 60.0511 336.658 59.6355 336.655 59.1669V55.0668H338.964V58.6816C338.967 58.9996 339.048 59.2492 339.207 59.4305C339.369 59.6118 339.595 59.7025 339.885 59.7025C340.077 59.7025 340.243 59.662 340.383 59.5811C340.525 59.4975 340.634 59.3803 340.709 59.2297C340.787 59.0763 340.825 58.8936 340.822 58.6816ZM344.306 61.4932V55.0668H346.549V56.2885H346.616C346.733 55.8366 346.918 55.5061 347.172 55.2969C347.429 55.0877 347.729 54.9831 348.072 54.9831C348.172 54.9831 348.271 54.9915 348.369 55.0082C348.469 55.0222 348.565 55.0431 348.657 55.071V57.0416C348.543 57.0025 348.402 56.9732 348.235 56.9537C348.067 56.9342 347.924 56.9244 347.804 56.9244C347.578 56.9244 347.374 56.976 347.193 57.0792C347.014 57.1796 346.874 57.3219 346.77 57.506C346.667 57.6873 346.616 57.9006 346.616 58.1461V61.4932H344.306ZM355.289 57.1587H353.163C353.152 57.0276 353.106 56.9146 353.025 56.8198C352.944 56.725 352.84 56.6525 352.711 56.6023C352.586 56.5493 352.446 56.5228 352.293 56.5228C352.095 56.5228 351.925 56.559 351.783 56.6315C351.64 56.7041 351.571 56.8073 351.573 56.9411C351.571 57.036 351.611 57.1238 351.695 57.2047C351.781 57.2856 351.947 57.3484 352.193 57.393L353.498 57.6273C354.156 57.7472 354.646 57.9494 354.967 58.234C355.29 58.5157 355.453 58.8936 355.456 59.3678C355.453 59.8252 355.317 60.2227 355.046 60.5602C354.778 60.8949 354.411 61.1543 353.946 61.3384C353.483 61.5197 352.954 61.6103 352.36 61.6103C351.378 61.6103 350.61 61.4095 350.055 61.0078C349.502 60.6062 349.194 60.0762 349.13 59.418H351.423C351.454 59.6216 351.554 59.7792 351.724 59.8908C351.897 59.9995 352.115 60.0539 352.377 60.0539C352.589 60.0539 352.763 60.0177 352.9 59.9451C353.039 59.8726 353.11 59.7694 353.113 59.6355C353.11 59.5128 353.049 59.4152 352.929 59.3427C352.812 59.2701 352.628 59.2116 352.377 59.1669L351.239 58.9661C350.583 58.8518 350.092 58.6342 349.766 58.3134C349.44 57.9927 349.278 57.5799 349.281 57.075C349.278 56.6287 349.395 56.2508 349.632 55.9412C349.872 55.6288 350.214 55.3917 350.657 55.23C351.103 55.0654 351.632 54.9831 352.243 54.9831C353.172 54.9831 353.904 55.1756 354.439 55.5605C354.978 55.9454 355.261 56.4781 355.289 57.1587ZM361.784 61.6103C361.087 61.6103 360.49 61.4722 359.993 61.1961C359.497 60.9172 359.116 60.5295 358.851 60.033C358.586 59.5337 358.454 58.955 358.454 58.2967C358.454 57.6384 358.586 57.0611 358.851 56.5646C359.116 56.0653 359.497 55.6776 359.993 55.4015C360.49 55.1226 361.087 54.9831 361.784 54.9831C362.481 54.9831 363.078 55.1226 363.575 55.4015C364.071 55.6776 364.452 56.0653 364.717 56.5646C364.982 57.0611 365.114 57.6384 365.114 58.2967C365.114 58.955 364.982 59.5337 364.717 60.033C364.452 60.5295 364.071 60.9172 363.575 61.1961C363.078 61.4722 362.481 61.6103 361.784 61.6103ZM361.801 59.9033C361.996 59.9033 362.165 59.8378 362.307 59.7067C362.449 59.5756 362.56 59.3887 362.638 59.146C362.716 58.9034 362.755 58.6147 362.755 58.28C362.755 57.9425 362.716 57.6538 362.638 57.4139C362.56 57.1713 362.449 56.9844 362.307 56.8533C362.165 56.7222 361.996 56.6566 361.801 56.6566C361.594 56.6566 361.417 56.7222 361.27 56.8533C361.122 56.9844 361.009 57.1713 360.931 57.4139C360.853 57.6538 360.813 57.9425 360.813 58.28C360.813 58.6147 360.853 58.9034 360.931 59.146C361.009 59.3887 361.122 59.5756 361.27 59.7067C361.417 59.8378 361.594 59.9033 361.801 59.9033ZM369.901 55.0668V56.7403H365.6V55.0668H369.901ZM366.42 61.4932V54.8827C366.42 54.3527 366.515 53.9134 366.704 53.5648C366.894 53.2161 367.162 52.9553 367.508 52.7824C367.853 52.6095 368.261 52.523 368.729 52.523C369.022 52.523 369.307 52.5453 369.583 52.5899C369.862 52.6346 370.068 52.6736 370.202 52.7071L369.867 54.3639C369.784 54.3388 369.686 54.3193 369.574 54.3053C369.463 54.2886 369.365 54.2802 369.282 54.2802C369.064 54.2802 368.918 54.3262 368.842 54.4183C368.767 54.5103 368.729 54.6317 368.729 54.7823V61.4932H366.42ZM287.976 75.4932V66.9247H291.674C292.31 66.9247 292.867 67.0502 293.344 67.3012C293.821 67.5522 294.192 67.9051 294.457 68.3597C294.722 68.8144 294.854 69.3457 294.854 69.9538C294.854 70.5674 294.717 71.0987 294.444 71.5478C294.174 71.9969 293.793 72.3427 293.302 72.5854C292.814 72.8281 292.243 72.9494 291.591 72.9494H289.382V71.142H291.122C291.395 71.142 291.628 71.0946 291.821 70.9997C292.016 70.9021 292.165 70.764 292.269 70.5855C292.375 70.407 292.428 70.1964 292.428 69.9538C292.428 69.7083 292.375 69.4991 292.269 69.3262C292.165 69.1505 292.016 69.0166 291.821 68.9245C291.628 68.8297 291.395 68.7823 291.122 68.7823H290.302V75.4932H287.976ZM298.682 75.6103C297.996 75.6103 297.405 75.4792 296.908 75.217C296.415 74.9521 296.034 74.5727 295.766 74.079C295.501 73.5825 295.369 72.9884 295.369 72.2967C295.369 71.6329 295.503 71.0527 295.77 70.5562C296.038 70.0597 296.416 69.6734 296.904 69.3973C297.392 69.1212 297.968 68.9831 298.632 68.9831C299.117 68.9831 299.557 69.0584 299.95 69.209C300.343 69.3596 300.679 69.5786 300.958 69.8659C301.237 70.1504 301.452 70.4963 301.603 70.9035C301.753 71.3107 301.829 71.7695 301.829 72.28V72.8155H296.088V71.5436H299.703C299.7 71.3595 299.653 71.1978 299.561 71.0583C299.472 70.916 299.35 70.8059 299.197 70.7278C299.046 70.6469 298.875 70.6064 298.682 70.6064C298.495 70.6064 298.324 70.6469 298.168 70.7278C298.012 70.8059 297.886 70.9146 297.791 71.0541C297.699 71.1936 297.65 71.3567 297.645 71.5436V72.9159C297.645 73.1223 297.688 73.3064 297.774 73.4682C297.861 73.63 297.985 73.7569 298.147 73.8489C298.309 73.941 298.504 73.987 298.733 73.987C298.892 73.987 299.037 73.9647 299.168 73.92C299.302 73.8754 299.416 73.8113 299.511 73.7276C299.606 73.6411 299.675 73.5379 299.72 73.418H301.829C301.756 73.8643 301.585 74.252 301.314 74.5811C301.043 74.9074 300.685 75.1612 300.239 75.3425C299.795 75.5211 299.276 75.6103 298.682 75.6103ZM304.562 75.5936C304.152 75.5936 303.789 75.5266 303.474 75.3928C303.162 75.2561 302.916 75.0497 302.738 74.7735C302.559 74.4974 302.47 74.146 302.47 73.7192C302.47 73.3678 302.53 73.0679 302.65 72.8197C302.77 72.5687 302.937 72.3636 303.152 72.2047C303.367 72.0457 303.616 71.9243 303.901 71.8407C304.188 71.757 304.498 71.7026 304.829 71.6775C305.189 71.6496 305.478 71.6161 305.696 71.5771C305.916 71.5352 306.075 71.4781 306.172 71.4055C306.27 71.3302 306.319 71.2312 306.319 71.1085V71.0918C306.319 70.9244 306.255 70.7961 306.126 70.7068C305.998 70.6176 305.834 70.573 305.633 70.573C305.412 70.573 305.233 70.6218 305.093 70.7194C304.956 70.8142 304.874 70.9607 304.846 71.1587H302.721C302.749 70.7682 302.873 70.4084 303.093 70.0793C303.316 69.7474 303.641 69.4824 304.068 69.2843C304.495 69.0835 305.028 68.9831 305.666 68.9831C306.126 68.9831 306.539 69.0375 306.905 69.1463C307.27 69.2523 307.581 69.4015 307.838 69.5939C308.094 69.7836 308.29 70.0068 308.423 70.2634C308.56 70.5172 308.628 70.7933 308.628 71.0918V75.4932H306.47V74.5895H306.419C306.291 74.8293 306.135 75.0232 305.951 75.171C305.769 75.3188 305.562 75.4262 305.327 75.4932C305.096 75.5601 304.841 75.5936 304.562 75.5936ZM305.315 74.1376C305.491 74.1376 305.655 74.1013 305.808 74.0288C305.965 73.9563 306.092 73.8517 306.189 73.715C306.287 73.5784 306.336 73.4124 306.336 73.2172V72.6816C306.274 72.7067 306.209 72.7304 306.139 72.7527C306.072 72.7751 306 72.796 305.921 72.8155C305.846 72.835 305.765 72.8532 305.679 72.8699C305.595 72.8866 305.507 72.902 305.415 72.9159C305.237 72.9438 305.09 72.9898 304.976 73.054C304.864 73.1153 304.781 73.1921 304.725 73.2841C304.672 73.3734 304.645 73.4738 304.645 73.5853C304.645 73.7638 304.708 73.9005 304.834 73.9953C304.959 74.0902 305.12 74.1376 305.315 74.1376ZM311.807 73.9702L311.824 71.2256H312.125L313.681 69.0668H316.275L313.665 72.4306H313.012L311.807 73.9702ZM309.732 75.4932V66.9247H312.041V75.4932H309.732ZM313.698 75.4932L312.225 72.9494L313.732 71.3093L316.342 75.4932H313.698ZM319.191 75.4932V66.9247H322.889C323.525 66.9247 324.081 67.0502 324.558 67.3012C325.035 67.5522 325.406 67.9051 325.671 68.3597C325.936 68.8144 326.069 69.3457 326.069 69.9538C326.069 70.5674 325.932 71.0987 325.659 71.5478C325.388 71.9969 325.007 72.3427 324.517 72.5854C324.028 72.8281 323.458 72.9494 322.805 72.9494H320.596V71.142H322.337C322.61 71.142 322.843 71.0946 323.035 70.9997C323.231 70.9021 323.38 70.764 323.483 70.5855C323.589 70.407 323.642 70.1964 323.642 69.9538C323.642 69.7083 323.589 69.4991 323.483 69.3262C323.38 69.1505 323.231 69.0166 323.035 68.9245C322.843 68.8297 322.61 68.7823 322.337 68.7823H321.517V75.4932H319.191ZM328.459 75.5936C328.049 75.5936 327.686 75.5266 327.371 75.3928C327.059 75.2561 326.813 75.0497 326.635 74.7735C326.456 74.4974 326.367 74.146 326.367 73.7192C326.367 73.3678 326.427 73.0679 326.547 72.8197C326.667 72.5687 326.834 72.3636 327.049 72.2047C327.264 72.0457 327.513 71.9243 327.798 71.8407C328.085 71.757 328.395 71.7026 328.727 71.6775C329.086 71.6496 329.375 71.6161 329.593 71.5771C329.813 71.5352 329.972 71.4781 330.07 71.4055C330.167 71.3302 330.216 71.2312 330.216 71.1085V71.0918C330.216 70.9244 330.152 70.7961 330.024 70.7068C329.895 70.6176 329.731 70.573 329.53 70.573C329.309 70.573 329.13 70.6218 328.99 70.7194C328.853 70.8142 328.771 70.9607 328.743 71.1587H326.618C326.646 70.7682 326.77 70.4084 326.99 70.0793C327.213 69.7474 327.538 69.4824 327.965 69.2843C328.392 69.0835 328.925 68.9831 329.563 68.9831C330.024 68.9831 330.436 69.0375 330.802 69.1463C331.167 69.2523 331.478 69.4015 331.735 69.5939C331.991 69.7836 332.187 70.0068 332.32 70.2634C332.457 70.5172 332.525 70.7933 332.525 71.0918V75.4932H330.367V74.5895H330.316C330.188 74.8293 330.032 75.0232 329.848 75.171C329.667 75.3188 329.459 75.4262 329.224 75.4932C328.993 75.5601 328.738 75.5936 328.459 75.5936ZM329.212 74.1376C329.388 74.1376 329.552 74.1013 329.706 74.0288C329.862 73.9563 329.989 73.8517 330.086 73.715C330.184 73.5784 330.233 73.4124 330.233 73.2172V72.6816C330.171 72.7067 330.106 72.7304 330.036 72.7527C329.969 72.7751 329.897 72.796 329.819 72.8155C329.743 72.835 329.662 72.8532 329.576 72.8699C329.492 72.8866 329.404 72.902 329.312 72.9159C329.134 72.9438 328.987 72.9898 328.873 73.054C328.761 73.1153 328.678 73.1921 328.622 73.2841C328.569 73.3734 328.542 73.4738 328.542 73.5853C328.542 73.7638 328.605 73.9005 328.731 73.9953C328.856 74.0902 329.017 74.1376 329.212 74.1376ZM335.938 71.8783V75.4932H333.629V69.0668H335.821V70.2885H335.888C336.028 69.8812 336.273 69.5619 336.625 69.3304C336.979 69.0989 337.392 68.9831 337.863 68.9831C338.318 68.9831 338.712 69.0877 339.047 69.2969C339.385 69.5033 339.645 69.7878 339.829 70.1504C340.016 70.513 340.108 70.9272 340.106 71.393V75.4932H337.796V71.8783C337.799 71.5604 337.718 71.3107 337.553 71.1294C337.392 70.9481 337.166 70.8575 336.876 70.8575C336.686 70.8575 336.52 70.8993 336.378 70.983C336.238 71.0639 336.131 71.181 336.056 71.3344C335.98 71.485 335.941 71.6663 335.938 71.8783ZM344.325 75.6103C343.639 75.6103 343.047 75.4792 342.551 75.217C342.057 74.9521 341.677 74.5727 341.409 74.079C341.144 73.5825 341.011 72.9884 341.011 72.2967C341.011 71.6329 341.145 71.0527 341.413 70.5562C341.681 70.0597 342.059 69.6734 342.547 69.3973C343.035 69.1212 343.611 68.9831 344.275 68.9831C344.76 68.9831 345.199 69.0584 345.593 69.209C345.986 69.3596 346.322 69.5786 346.601 69.8659C346.88 70.1504 347.095 70.4963 347.245 70.9035C347.396 71.3107 347.471 71.7695 347.471 72.28V72.8155H341.731V71.5436H345.346C345.343 71.3595 345.296 71.1978 345.204 71.0583C345.114 70.916 344.993 70.8059 344.84 70.7278C344.689 70.6469 344.517 70.6064 344.325 70.6064C344.138 70.6064 343.967 70.6469 343.81 70.7278C343.654 70.8059 343.529 70.9146 343.434 71.0541C343.342 71.1936 343.293 71.3567 343.287 71.5436V72.9159C343.287 73.1223 343.331 73.3064 343.417 73.4682C343.504 73.63 343.628 73.7569 343.789 73.8489C343.951 73.941 344.146 73.987 344.375 73.987C344.534 73.987 344.679 73.9647 344.81 73.92C344.944 73.8754 345.059 73.8113 345.153 73.7276C345.248 73.6411 345.318 73.5379 345.363 73.418H347.471C347.399 73.8643 347.227 74.252 346.957 74.5811C346.686 74.9074 346.328 75.1612 345.881 75.3425C345.438 75.5211 344.919 75.6103 344.325 75.6103ZM350.723 66.9247V75.4932H348.414V66.9247H350.723ZM280.463 89.4932V80.9247H284.161C284.797 80.9247 285.354 81.0502 285.831 81.3012C286.308 81.5522 286.679 81.9051 286.944 82.3597C287.209 82.8144 287.341 83.3457 287.341 83.9538C287.341 84.5674 287.204 85.0987 286.931 85.5478C286.66 85.9969 286.28 86.3427 285.789 86.5854C285.301 86.8281 284.73 86.9494 284.078 86.9494H281.869V85.142H283.609C283.882 85.142 284.115 85.0946 284.308 84.9997C284.503 84.9021 284.652 84.764 284.755 84.5855C284.861 84.407 284.914 84.1964 284.914 83.9538C284.914 83.7083 284.861 83.4991 284.755 83.3262C284.652 83.1505 284.503 83.0166 284.308 82.9245C284.115 82.8297 283.882 82.7823 283.609 82.7823H282.789V89.4932H280.463ZM288.228 89.4932V83.0668H290.471V84.2885H290.537C290.655 83.8366 290.84 83.5061 291.094 83.2969C291.351 83.0877 291.65 82.9831 291.993 82.9831C292.094 82.9831 292.193 82.9915 292.29 83.0082C292.391 83.0222 292.487 83.0431 292.579 83.071V85.0416C292.465 85.0025 292.324 84.9732 292.157 84.9537C291.989 84.9342 291.846 84.9244 291.726 84.9244C291.5 84.9244 291.296 84.976 291.115 85.0792C290.936 85.1796 290.795 85.3219 290.692 85.506C290.589 85.6873 290.537 85.9006 290.537 86.1461V89.4932H288.228ZM296.064 89.6103C295.367 89.6103 294.77 89.4722 294.274 89.1961C293.777 88.9172 293.396 88.5295 293.131 88.033C292.866 87.5337 292.734 86.955 292.734 86.2967C292.734 85.6384 292.866 85.0611 293.131 84.5646C293.396 84.0653 293.777 83.6776 294.274 83.4015C294.77 83.1226 295.367 82.9831 296.064 82.9831C296.762 82.9831 297.359 83.1226 297.855 83.4015C298.351 83.6776 298.732 84.0653 298.997 84.5646C299.262 85.0611 299.395 85.6384 299.395 86.2967C299.395 86.955 299.262 87.5337 298.997 88.033C298.732 88.5295 298.351 88.9172 297.855 89.1961C297.359 89.4722 296.762 89.6103 296.064 89.6103ZM296.081 87.9033C296.276 87.9033 296.445 87.8378 296.587 87.7067C296.73 87.5756 296.84 87.3887 296.918 87.146C296.996 86.9034 297.035 86.6147 297.035 86.28C297.035 85.9425 296.996 85.6538 296.918 85.4139C296.84 85.1713 296.73 84.9844 296.587 84.8533C296.445 84.7222 296.276 84.6566 296.081 84.6566C295.875 84.6566 295.698 84.7222 295.55 84.8533C295.402 84.9844 295.289 85.1713 295.211 85.4139C295.133 85.6538 295.094 85.9425 295.094 86.28C295.094 86.6147 295.133 86.9034 295.211 87.146C295.289 87.3887 295.402 87.5756 295.55 87.7067C295.698 87.8378 295.875 87.9033 296.081 87.9033ZM302.658 89.5768C302.201 89.5768 301.779 89.4569 301.395 89.217C301.012 88.9772 300.706 88.6132 300.474 88.125C300.245 87.6369 300.131 87.0219 300.131 86.28C300.131 85.5046 300.251 84.8742 300.491 84.3889C300.733 83.9035 301.046 83.5479 301.428 83.322C301.813 83.0961 302.217 82.9831 302.641 82.9831C302.959 82.9831 303.238 83.0389 303.478 83.1505C303.718 83.2592 303.919 83.4057 304.081 83.5898C304.242 83.7711 304.365 83.9705 304.449 84.1881H304.482V80.9247H306.792V89.4932H304.499V88.4388H304.449C304.359 88.6564 304.231 88.8516 304.064 89.0246C303.899 89.1947 303.698 89.33 303.461 89.4304C303.227 89.528 302.959 89.5768 302.658 89.5768ZM303.512 87.8029C303.724 87.8029 303.905 87.7415 304.055 87.6188C304.209 87.4933 304.326 87.3176 304.407 87.0916C304.491 86.8629 304.532 86.5924 304.532 86.28C304.532 85.962 304.491 85.6901 304.407 85.4641C304.326 85.2354 304.209 85.0611 304.055 84.9411C303.905 84.8184 303.724 84.7571 303.512 84.7571C303.3 84.7571 303.118 84.8184 302.968 84.9411C302.82 85.0611 302.705 85.2354 302.625 85.4641C302.546 85.6901 302.507 85.962 302.507 86.28C302.507 86.5979 302.546 86.8713 302.625 87.1C302.705 87.3259 302.82 87.5003 302.968 87.623C303.118 87.7429 303.3 87.8029 303.512 87.8029ZM312.093 86.6816V83.0668H314.402V89.4932H312.21V88.2715H312.143C312.003 88.6815 311.759 89.0023 311.411 89.2338C311.062 89.4625 310.648 89.5768 310.168 89.5768C309.719 89.5768 309.326 89.4736 308.988 89.2672C308.653 89.0608 308.393 88.7763 308.206 88.4137C308.022 88.0511 307.928 87.6355 307.926 87.1669V83.0668H310.235V86.6816C310.238 86.9996 310.319 87.2492 310.478 87.4305C310.639 87.6118 310.865 87.7025 311.155 87.7025C311.348 87.7025 311.514 87.662 311.653 87.5811C311.796 87.4975 311.904 87.3803 311.98 87.2297C312.058 87.0763 312.095 86.8936 312.093 86.6816ZM318.673 89.6103C317.975 89.6103 317.379 89.4722 316.882 89.1961C316.386 88.9172 316.005 88.5295 315.74 88.033C315.475 87.5337 315.342 86.955 315.342 86.2967C315.342 85.6384 315.475 85.0611 315.74 84.5646C316.005 84.0653 316.386 83.6776 316.882 83.4015C317.379 83.1226 317.975 82.9831 318.673 82.9831C319.303 82.9831 319.848 83.0975 320.309 83.3262C320.772 83.5521 321.13 83.8729 321.384 84.2885C321.638 84.7013 321.766 85.1866 321.769 85.7444H319.627C319.596 85.4069 319.498 85.1503 319.334 84.9746C319.172 84.7961 318.963 84.7068 318.706 84.7068C318.505 84.7068 318.33 84.7654 318.179 84.8826C318.028 84.9969 317.911 85.1713 317.828 85.4055C317.744 85.6371 317.702 85.9285 317.702 86.28C317.702 86.6314 317.744 86.9243 317.828 87.1586C317.911 87.3901 318.028 87.5644 318.179 87.6816C318.33 87.7959 318.505 87.8531 318.706 87.8531C318.876 87.8531 319.027 87.814 319.158 87.7359C319.289 87.6551 319.395 87.5379 319.476 87.3845C319.56 87.2283 319.61 87.0386 319.627 86.8155H321.769C321.76 87.3817 321.631 87.8754 321.38 88.2966C321.129 88.715 320.773 89.0385 320.313 89.2672C319.855 89.496 319.309 89.6103 318.673 89.6103ZM326.554 83.0668V84.7403H322.32V83.0668H326.554ZM323.14 81.5271H325.45V87.4263C325.45 87.5156 325.465 87.5909 325.496 87.6523C325.526 87.7108 325.574 87.7555 325.638 87.7862C325.702 87.814 325.784 87.828 325.885 87.828C325.954 87.828 326.035 87.8196 326.127 87.8029C326.222 87.7862 326.292 87.7722 326.337 87.7611L326.671 89.3844C326.568 89.4151 326.42 89.4527 326.228 89.4973C326.038 89.542 325.812 89.5713 325.55 89.5852C325.02 89.6131 324.575 89.5587 324.215 89.422C323.855 89.2826 323.585 89.0636 323.404 88.7652C323.222 88.4667 323.134 88.093 323.14 87.6439V81.5271ZM327.496 89.4932V83.0668H329.806V89.4932H327.496ZM328.651 82.3974C328.339 82.3974 328.071 82.2942 327.848 82.0878C327.625 81.8814 327.513 81.6331 327.513 81.343C327.513 81.053 327.625 80.8047 327.848 80.5983C328.071 80.3919 328.339 80.2887 328.651 80.2887C328.966 80.2887 329.234 80.3919 329.455 80.5983C329.678 80.8047 329.789 81.053 329.789 81.343C329.789 81.6331 329.678 81.8814 329.455 82.0878C329.234 82.2942 328.966 82.3974 328.651 82.3974ZM334.079 89.6103C333.381 89.6103 332.785 89.4722 332.288 89.1961C331.792 88.9172 331.411 88.5295 331.146 88.033C330.881 87.5337 330.748 86.955 330.748 86.2967C330.748 85.6384 330.881 85.0611 331.146 84.5646C331.411 84.0653 331.792 83.6776 332.288 83.4015C332.785 83.1226 333.381 82.9831 334.079 82.9831C334.776 82.9831 335.373 83.1226 335.869 83.4015C336.366 83.6776 336.747 84.0653 337.012 84.5646C337.277 85.0611 337.409 85.6384 337.409 86.2967C337.409 86.955 337.277 87.5337 337.012 88.033C336.747 88.5295 336.366 88.9172 335.869 89.1961C335.373 89.4722 334.776 89.6103 334.079 89.6103ZM334.095 87.9033C334.291 87.9033 334.459 87.8378 334.602 87.7067C334.744 87.5756 334.854 87.3887 334.932 87.146C335.01 86.9034 335.049 86.6147 335.049 86.28C335.049 85.9425 335.01 85.6538 334.932 85.4139C334.854 85.1713 334.744 84.9844 334.602 84.8533C334.459 84.7222 334.291 84.6566 334.095 84.6566C333.889 84.6566 333.712 84.7222 333.564 84.8533C333.416 84.9844 333.303 85.1713 333.225 85.4139C333.147 85.6538 333.108 85.9425 333.108 86.28C333.108 86.6147 333.147 86.9034 333.225 87.146C333.303 87.3887 333.416 87.5756 333.564 87.7067C333.712 87.8378 333.889 87.9033 334.095 87.9033ZM340.656 85.8783V89.4932H338.346V83.0668H340.539V84.2885H340.606C340.745 83.8812 340.99 83.5619 341.342 83.3304C341.696 83.0989 342.109 82.9831 342.58 82.9831C343.035 82.9831 343.43 83.0877 343.764 83.2969C344.102 83.5033 344.363 83.7878 344.547 84.1504C344.734 84.513 344.826 84.9272 344.823 85.393V89.4932H342.513V85.8783C342.516 85.5604 342.435 85.3107 342.271 85.1294C342.109 84.9481 341.883 84.8575 341.593 84.8575C341.403 84.8575 341.237 84.8993 341.095 84.983C340.956 85.0639 340.848 85.181 340.773 85.3344C340.698 85.485 340.659 85.6663 340.656 85.8783ZM348.31 89.4932V83.0668H350.62V89.4932H348.31ZM349.465 82.3974C349.152 82.3974 348.885 82.2942 348.662 82.0878C348.438 81.8814 348.327 81.6331 348.327 81.343C348.327 81.053 348.438 80.8047 348.662 80.5983C348.885 80.3919 349.152 80.2887 349.465 80.2887C349.78 80.2887 350.048 80.3919 350.268 80.5983C350.491 80.8047 350.603 81.053 350.603 81.343C350.603 81.6331 350.491 81.8814 350.268 82.0878C350.048 82.2942 349.78 82.3974 349.465 82.3974ZM354.106 85.8783V89.4932H351.796V83.0668H353.989V84.2885H354.056C354.195 83.8812 354.44 83.5619 354.792 83.3304C355.146 83.0989 355.559 82.9831 356.03 82.9831C356.485 82.9831 356.88 83.0877 357.214 83.2969C357.552 83.5033 357.813 83.7878 357.997 84.1504C358.184 84.513 358.276 84.9272 358.273 85.393V89.4932H355.963V85.8783C355.966 85.5604 355.885 85.3107 355.721 85.1294C355.559 84.9481 355.333 84.8575 355.043 84.8575C354.853 84.8575 354.687 84.8993 354.545 84.983C354.406 85.0639 354.298 85.181 354.223 85.3344C354.148 85.485 354.109 85.6663 354.106 85.8783ZM280.038 103.493L277.511 94.9247H280.105L281.277 100.196H281.343L282.732 94.9247H284.774L286.163 100.213H286.23L287.402 94.9247H289.996L287.469 103.493H285.243L283.787 98.7068H283.72L282.264 103.493H280.038ZM290.782 103.493V97.0668H293.092V103.493H290.782ZM291.937 96.3974C291.625 96.3974 291.357 96.2942 291.134 96.0878C290.911 95.8814 290.799 95.6331 290.799 95.343C290.799 95.053 290.911 94.8047 291.134 94.5983C291.357 94.3919 291.625 94.2887 291.937 94.2887C292.252 94.2887 292.52 94.3919 292.74 94.5983C292.963 94.8047 293.075 95.053 293.075 95.343C293.075 95.6331 292.963 95.8814 292.74 96.0878C292.52 96.2942 292.252 96.3974 291.937 96.3974ZM296.578 99.8783V103.493H294.268V97.0668H296.461V98.2885H296.528C296.667 97.8812 296.913 97.5619 297.264 97.3304C297.618 97.0989 298.031 96.9831 298.502 96.9831C298.957 96.9831 299.352 97.0877 299.686 97.2969C300.024 97.5033 300.285 97.7878 300.469 98.1504C300.656 98.513 300.748 98.9272 300.745 99.393V103.493H298.436V99.8783C298.438 99.5604 298.357 99.3107 298.193 99.1294C298.031 98.9481 297.805 98.8575 297.515 98.8575C297.325 98.8575 297.159 98.8993 297.017 98.983C296.878 99.0639 296.77 99.181 296.695 99.3344C296.62 99.485 296.581 99.6663 296.578 99.8783ZM305.717 97.0668V98.7403H301.483V97.0668H305.717ZM302.303 95.5271H304.613V101.426C304.613 101.516 304.628 101.591 304.659 101.652C304.69 101.711 304.737 101.755 304.801 101.786C304.865 101.814 304.948 101.828 305.048 101.828C305.118 101.828 305.199 101.82 305.291 101.803C305.386 101.786 305.455 101.772 305.5 101.761L305.835 103.384C305.731 103.415 305.584 103.453 305.391 103.497C305.201 103.542 304.976 103.571 304.713 103.585C304.183 103.613 303.739 103.559 303.379 103.422C303.019 103.283 302.748 103.064 302.567 102.765C302.386 102.467 302.298 102.093 302.303 101.644V95.5271ZM309.67 103.61C308.984 103.61 308.393 103.479 307.896 103.217C307.403 102.952 307.022 102.573 306.754 102.079C306.489 101.583 306.357 100.988 306.357 100.297C306.357 99.6329 306.49 99.0527 306.758 98.5562C307.026 98.0597 307.404 97.6734 307.892 97.3973C308.38 97.1212 308.956 96.9831 309.62 96.9831C310.105 96.9831 310.545 97.0584 310.938 97.209C311.331 97.3596 311.667 97.5786 311.946 97.8659C312.225 98.1504 312.44 98.4963 312.59 98.9035C312.741 99.3107 312.816 99.7695 312.816 100.28V100.816H307.076V99.5436H310.691C310.688 99.3595 310.641 99.1978 310.549 99.0583C310.46 98.916 310.338 98.8059 310.185 98.7278C310.034 98.6469 309.863 98.6064 309.67 98.6064C309.483 98.6064 309.312 98.6469 309.156 98.7278C308.999 98.8059 308.874 98.9146 308.779 99.0541C308.687 99.1936 308.638 99.3567 308.633 99.5436V100.916C308.633 101.122 308.676 101.306 308.762 101.468C308.849 101.63 308.973 101.757 309.135 101.849C309.296 101.941 309.492 101.987 309.72 101.987C309.879 101.987 310.024 101.965 310.155 101.92C310.289 101.875 310.404 101.811 310.499 101.728C310.593 101.641 310.663 101.538 310.708 101.418H312.816C312.744 101.864 312.572 102.252 312.302 102.581C312.031 102.907 311.673 103.161 311.227 103.343C310.783 103.521 310.264 103.61 309.67 103.61ZM313.759 103.493V97.0668H316.001V98.2885H316.068C316.185 97.8366 316.371 97.5061 316.625 97.2969C316.881 97.0877 317.181 96.9831 317.524 96.9831C317.625 96.9831 317.724 96.9915 317.821 97.0082C317.922 97.0222 318.018 97.0431 318.11 97.071V99.0416C317.996 99.0025 317.855 98.9732 317.687 98.9537C317.52 98.9342 317.376 98.9244 317.257 98.9244C317.031 98.9244 316.827 98.976 316.646 99.0792C316.467 99.1796 316.326 99.3219 316.223 99.506C316.12 99.6873 316.068 99.9006 316.068 100.146V103.493H313.759ZM323.005 103.594C322.595 103.594 322.233 103.527 321.917 103.393C321.605 103.256 321.359 103.05 321.181 102.774C321.002 102.497 320.913 102.146 320.913 101.719C320.913 101.368 320.973 101.068 321.093 100.82C321.213 100.569 321.38 100.364 321.595 100.205C321.81 100.046 322.06 99.9243 322.344 99.8407C322.631 99.757 322.941 99.7026 323.273 99.6775C323.633 99.6496 323.921 99.6161 324.139 99.5771C324.359 99.5352 324.518 99.4781 324.616 99.4055C324.714 99.3302 324.762 99.2312 324.762 99.1085V99.0918C324.762 98.9244 324.698 98.7961 324.57 98.7068C324.442 98.6176 324.277 98.573 324.076 98.573C323.856 98.573 323.676 98.6218 323.536 98.7194C323.4 98.8142 323.318 98.9607 323.29 99.1587H321.164C321.192 98.7682 321.316 98.4084 321.537 98.0793C321.76 97.7474 322.085 97.4824 322.511 97.2843C322.938 97.0835 323.471 96.9831 324.11 96.9831C324.57 96.9831 324.983 97.0375 325.348 97.1463C325.713 97.2523 326.024 97.4015 326.281 97.5939C326.538 97.7836 326.733 98.0068 326.867 98.2634C327.003 98.5172 327.072 98.7933 327.072 99.0918V103.493H324.913V102.589H324.863C324.734 102.829 324.578 103.023 324.394 103.171C324.213 103.319 324.005 103.426 323.771 103.493C323.539 103.56 323.284 103.594 323.005 103.594ZM323.758 102.138C323.934 102.138 324.099 102.101 324.252 102.029C324.408 101.956 324.535 101.852 324.633 101.715C324.73 101.578 324.779 101.412 324.779 101.217V100.682C324.718 100.707 324.652 100.73 324.582 100.753C324.515 100.775 324.443 100.796 324.365 100.816C324.29 100.835 324.209 100.853 324.122 100.87C324.039 100.887 323.951 100.902 323.859 100.916C323.68 100.944 323.534 100.99 323.419 101.054C323.308 101.115 323.224 101.192 323.168 101.284C323.115 101.373 323.089 101.474 323.089 101.585C323.089 101.764 323.152 101.901 323.277 101.995C323.403 102.09 323.563 102.138 323.758 102.138ZM332.008 97.0668V98.7403H327.774V97.0668H332.008ZM328.594 95.5271H330.903V101.426C330.903 101.516 330.919 101.591 330.949 101.652C330.98 101.711 331.027 101.755 331.091 101.786C331.156 101.814 331.238 101.828 331.338 101.828C331.408 101.828 331.489 101.82 331.581 101.803C331.676 101.786 331.746 101.772 331.79 101.761L332.125 103.384C332.022 103.415 331.874 103.453 331.681 103.497C331.492 103.542 331.266 103.571 331.004 103.585C330.474 103.613 330.029 103.559 329.669 103.422C329.309 103.283 329.039 103.064 328.857 102.765C328.676 102.467 328.588 102.093 328.594 101.644V95.5271ZM335.281 103.493V101.82L338.477 99.1754C338.689 98.9997 338.87 98.8352 339.021 98.6817C339.174 98.5255 339.291 98.3652 339.372 98.2006C339.456 98.036 339.498 97.8533 339.498 97.6525C339.498 97.4322 339.45 97.2439 339.356 97.0877C339.264 96.9315 339.135 96.8116 338.971 96.7279C338.806 96.6414 338.616 96.5982 338.402 96.5982C338.187 96.5982 337.997 96.6414 337.833 96.7279C337.671 96.8144 337.545 96.9413 337.456 97.1086C337.367 97.276 337.322 97.4796 337.322 97.7195H335.113C335.113 97.117 335.248 96.5982 335.519 96.1631C335.79 95.728 336.172 95.3932 336.665 95.1589C337.159 94.9247 337.738 94.8075 338.402 94.8075C339.088 94.8075 339.682 94.9177 340.184 95.138C340.689 95.3556 341.078 95.6624 341.351 96.0585C341.627 96.4545 341.765 96.919 341.765 97.4517C341.765 97.7808 341.697 98.1086 341.56 98.4349C341.424 98.7584 341.178 99.1169 340.824 99.5101C340.47 99.9034 339.966 100.372 339.314 100.916L338.51 101.585V101.636H341.858V103.493H335.281ZM346.629 103.727C345.851 103.725 345.179 103.545 344.613 103.188C344.046 102.831 343.61 102.316 343.303 101.644C342.996 100.972 342.844 100.166 342.847 99.2256C342.85 98.2829 343.003 97.4824 343.307 96.8241C343.614 96.1659 344.049 95.6652 344.613 95.3221C345.179 94.979 345.851 94.8075 346.629 94.8075C347.407 94.8075 348.08 94.9804 348.646 95.3263C349.212 95.6694 349.649 96.17 349.955 96.8283C350.262 97.4866 350.414 98.2857 350.411 99.2256C350.411 100.171 350.258 100.98 349.951 101.652C349.644 102.324 349.208 102.839 348.642 103.196C348.078 103.55 347.407 103.727 346.629 103.727ZM346.629 101.836C347.031 101.836 347.36 101.627 347.617 101.209C347.876 100.788 348.004 100.127 348.001 99.2256C348.001 98.6371 347.943 98.156 347.826 97.7822C347.709 97.4085 347.547 97.1323 347.34 96.9538C347.134 96.7725 346.897 96.6819 346.629 96.6819C346.228 96.6819 345.9 96.8855 345.646 97.2927C345.392 97.6999 345.262 98.3442 345.257 99.2256C345.254 99.8253 345.311 100.319 345.428 100.707C345.546 101.092 345.707 101.376 345.914 101.56C346.123 101.744 346.361 101.836 346.629 101.836ZM356.407 101.887V101.435C356.407 101.072 356.485 100.737 356.641 100.431C356.8 100.124 357.03 99.8769 357.331 99.6901C357.633 99.5032 357.999 99.4097 358.432 99.4097C358.875 99.4097 359.248 99.5018 359.549 99.6859C359.853 99.87 360.083 100.115 360.239 100.422C360.395 100.729 360.474 101.067 360.474 101.435V101.887C360.474 102.249 360.394 102.584 360.235 102.891C360.079 103.198 359.849 103.444 359.545 103.631C359.241 103.818 358.87 103.912 358.432 103.912C357.994 103.912 357.624 103.818 357.323 103.631C357.022 103.444 356.793 103.198 356.637 102.891C356.484 102.584 356.407 102.249 356.407 101.887ZM357.863 101.435V101.887C357.863 102.046 357.902 102.203 357.98 102.359C358.061 102.513 358.211 102.589 358.432 102.589C358.663 102.589 358.815 102.514 358.888 102.364C358.963 102.213 359.001 102.054 359.001 101.887V101.435C359.001 101.267 358.966 101.106 358.896 100.949C358.826 100.793 358.672 100.715 358.432 100.715C358.211 100.715 358.061 100.793 357.98 100.949C357.902 101.106 357.863 101.267 357.863 101.435ZM351.922 96.9831V96.5312C351.922 96.1631 352.001 95.8256 352.16 95.5188C352.322 95.2119 352.554 94.9665 352.855 94.7824C353.156 94.5983 353.52 94.5063 353.947 94.5063C354.39 94.5063 354.763 94.5983 355.064 94.7824C355.368 94.9665 355.598 95.2119 355.754 95.5188C355.91 95.8256 355.988 96.1631 355.988 96.5312V96.9831C355.988 97.3513 355.909 97.6874 355.75 97.9914C355.594 98.2954 355.364 98.5381 355.06 98.7194C354.756 98.9007 354.385 98.9913 353.947 98.9913C353.509 98.9913 353.139 98.8993 352.838 98.7152C352.537 98.5311 352.308 98.2871 352.152 97.983C351.998 97.679 351.922 97.3457 351.922 96.9831ZM353.394 96.5312V96.9831C353.394 97.1505 353.434 97.3094 353.512 97.4601C353.59 97.6107 353.735 97.686 353.947 97.686C354.178 97.686 354.33 97.6107 354.403 97.4601C354.478 97.3094 354.516 97.1505 354.516 96.9831V96.5312C354.516 96.3639 354.481 96.2021 354.411 96.0459C354.341 95.8897 354.187 95.8116 353.947 95.8116C353.726 95.8116 353.579 95.8925 353.503 96.0543C353.431 96.2133 353.394 96.3723 353.394 96.5312ZM352.633 103.493L358.524 94.9247H359.712L353.821 103.493H352.633Z" fill="white"/>
<path d="M418.886 99.621C418.886 154.64 374.285 199.242 319.266 199.242C264.246 199.242 219.645 154.64 219.645 99.621C219.645 44.6018 264.246 0 319.266 0C374.285 0 418.886 44.6018 418.886 99.621ZM245.403 99.621C245.403 140.414 278.472 173.484 319.266 173.484C360.059 173.484 393.128 140.414 393.128 99.621C393.128 58.8277 360.059 25.7582 319.266 25.7582C278.472 25.7582 245.403 58.8277 245.403 99.621Z" fill="#949494"/>
<path d="M418.886 99.621C418.886 154.64 374.285 199.242 319.266 199.242C264.246 199.242 219.645 154.64 219.645 99.621C219.645 44.6018 264.246 0 319.266 0C374.285 0 418.886 44.6018 418.886 99.621ZM245.403 99.621C245.403 140.414 278.472 173.484 319.266 173.484C360.059 173.484 393.128 140.414 393.128 99.621C393.128 58.8277 360.059 25.7582 319.266 25.7582C278.472 25.7582 245.403 58.8277 245.403 99.621Z" fill="#949494"/>
<path d="M418.886 99.621C418.886 154.64 374.285 199.242 319.266 199.242C264.246 199.242 219.645 154.64 219.645 99.621C219.645 44.6018 264.246 0 319.266 0C374.285 0 418.886 44.6018 418.886 99.621ZM245.403 99.621C245.403 140.414 278.472 173.484 319.266 173.484C360.059 173.484 393.128 140.414 393.128 99.621C393.128 58.8277 360.059 25.7582 319.266 25.7582C278.472 25.7582 245.403 58.8277 245.403 99.621Z" fill="#BDBDBD"/>
<path d="M419.092 99.7237C419.092 121.045 412.258 141.806 399.593 158.959C386.928 176.111 369.099 188.753 348.722 195.029C328.345 201.305 306.493 200.885 286.372 193.83C266.251 186.776 248.921 173.458 236.925 155.831C224.929 138.204 218.899 117.196 219.718 95.8899C220.538 74.584 228.165 54.1016 241.48 37.4485C254.795 20.7953 273.097 8.84812 293.7 3.36004C314.303 -2.12805 336.123 -0.868073 355.958 6.95507L346.497 30.9415C331.791 25.1412 315.613 24.207 300.337 28.276C285.061 32.3451 271.491 41.2032 261.619 53.5505C251.747 65.8978 246.092 81.0842 245.484 96.8812C244.876 112.678 249.348 128.254 258.242 141.323C267.136 154.393 279.985 164.267 294.904 169.498C309.822 174.729 326.024 175.04 341.132 170.387C356.241 165.734 369.46 156.36 378.85 143.643C388.24 130.925 393.307 115.532 393.307 99.7237H419.092Z" fill="#949494"/>
<path d="M419.092 99.7237C419.092 121.045 412.258 141.806 399.593 158.959C386.928 176.111 369.099 188.753 348.722 195.029C328.345 201.305 306.493 200.885 286.372 193.83C266.251 186.776 248.921 173.458 236.925 155.831C224.929 138.204 218.899 117.196 219.718 95.8899C220.538 74.584 228.165 54.1016 241.48 37.4485C254.795 20.7953 273.097 8.84812 293.7 3.36004C314.303 -2.12805 336.123 -0.868073 355.958 6.95507L346.497 30.9415C331.791 25.1412 315.613 24.207 300.337 28.276C285.061 32.3451 271.491 41.2032 261.619 53.5505C251.747 65.8978 246.092 81.0842 245.484 96.8812C244.876 112.678 249.348 128.254 258.242 141.323C267.136 154.393 279.985 164.267 294.904 169.498C309.822 174.729 326.024 175.04 341.132 170.387C356.241 165.734 369.46 156.36 378.85 143.643C388.24 130.925 393.307 115.532 393.307 99.7237H419.092Z" fill="#949494"/>
<path d="M419.092 99.7237C419.092 121.045 412.258 141.806 399.593 158.959C386.928 176.111 369.099 188.753 348.722 195.029C328.345 201.305 306.493 200.885 286.372 193.83C266.251 186.776 248.921 173.458 236.925 155.831C224.929 138.204 218.899 117.196 219.718 95.8899C220.538 74.584 228.165 54.1016 241.48 37.4485C254.795 20.7953 273.097 8.84812 293.7 3.36004C314.303 -2.12805 336.123 -0.868073 355.958 6.95507L346.497 30.9415C331.791 25.1412 315.613 24.207 300.337 28.276C285.061 32.3451 271.491 41.2032 261.619 53.5505C251.747 65.8978 246.092 81.0842 245.484 96.8812C244.876 112.678 249.348 128.254 258.242 141.323C267.136 154.393 279.985 164.267 294.904 169.498C309.822 174.729 326.024 175.04 341.132 170.387C356.241 165.734 369.46 156.36 378.85 143.643C388.24 130.925 393.307 115.532 393.307 99.7237H419.092Z" fill="#8205E9"/>
<path d="M419.092 99.7237C419.092 123.062 410.906 145.662 395.96 163.587C381.014 181.512 360.254 193.627 337.296 197.823L332.66 172.458C349.683 169.347 365.075 160.365 376.156 147.074C387.238 133.784 393.307 117.028 393.307 99.7237H419.092Z" fill="#949494"/>
<path d="M419.092 99.7237C419.092 123.062 410.906 145.662 395.96 163.587C381.014 181.512 360.254 193.627 337.296 197.823L332.66 172.458C349.683 169.347 365.075 160.365 376.156 147.074C387.238 133.784 393.307 117.028 393.307 99.7237H419.092Z" fill="#949494"/>
<path d="M419.092 99.7237C419.092 123.062 410.906 145.662 395.96 163.587C381.014 181.512 360.254 193.627 337.296 197.823L332.66 172.458C349.683 169.347 365.075 160.365 376.156 147.074C387.238 133.784 393.307 117.028 393.307 99.7237H419.092Z" fill="#FF9900"/>
</svg>
