<svg width="232" height="135" viewBox="0 0 232 135" fill="none" xmlns="http://www.w3.org/2000/svg">
<path d="M17.4205 120.091H12.6136C12.5795 119.693 12.4886 119.332 12.3409 119.009C12.1989 118.685 12 118.406 11.7443 118.173C11.4943 117.935 11.1903 117.753 10.8324 117.628C10.4744 117.497 10.0682 117.432 9.61364 117.432C8.81818 117.432 8.14489 117.625 7.59375 118.011C7.0483 118.398 6.63352 118.952 6.34943 119.673C6.07102 120.395 5.93182 121.261 5.93182 122.273C5.93182 123.341 6.07386 124.236 6.35795 124.957C6.64773 125.673 7.06534 126.213 7.6108 126.577C8.15625 126.935 8.8125 127.114 9.57955 127.114C10.017 127.114 10.4091 127.06 10.7557 126.952C11.1023 126.838 11.4034 126.676 11.6591 126.466C11.9148 126.256 12.1222 126.003 12.2812 125.707C12.446 125.406 12.5568 125.068 12.6136 124.693L17.4205 124.727C17.3636 125.466 17.1563 126.219 16.7983 126.986C16.4403 127.747 15.9318 128.452 15.2727 129.099C14.6193 129.741 13.8097 130.259 12.8438 130.651C11.8778 131.043 10.7557 131.239 9.47727 131.239C7.875 131.239 6.4375 130.895 5.16477 130.207C3.89773 129.52 2.89489 128.509 2.15625 127.173C1.4233 125.838 1.05682 124.205 1.05682 122.273C1.05682 120.33 1.43182 118.693 2.18182 117.364C2.93182 116.028 3.94318 115.02 5.21591 114.338C6.48864 113.651 7.90909 113.307 9.47727 113.307C10.5795 113.307 11.5938 113.457 12.5199 113.759C13.446 114.06 14.2585 114.5 14.9574 115.08C15.6563 115.653 16.2188 116.361 16.6449 117.202C17.071 118.043 17.3295 119.006 17.4205 120.091ZM25.9453 131.239C24.5249 131.239 23.3089 130.957 22.2976 130.395C21.2862 129.827 20.5107 129.037 19.9709 128.026C19.4311 127.009 19.1612 125.83 19.1612 124.489C19.1612 123.148 19.4311 121.972 19.9709 120.96C20.5107 119.943 21.2862 119.153 22.2976 118.591C23.3089 118.023 24.5249 117.739 25.9453 117.739C27.3658 117.739 28.5817 118.023 29.593 118.591C30.6044 119.153 31.38 119.943 31.9197 120.96C32.4595 121.972 32.7294 123.148 32.7294 124.489C32.7294 125.83 32.4595 127.009 31.9197 128.026C31.38 129.037 30.6044 129.827 29.593 130.395C28.5817 130.957 27.3658 131.239 25.9453 131.239ZM25.9794 127.761C26.3771 127.761 26.7209 127.628 27.0107 127.361C27.3004 127.094 27.5249 126.713 27.6839 126.219C27.843 125.724 27.9226 125.136 27.9226 124.455C27.9226 123.767 27.843 123.179 27.6839 122.69C27.5249 122.196 27.3004 121.815 27.0107 121.548C26.7209 121.281 26.3771 121.148 25.9794 121.148C25.5589 121.148 25.1982 121.281 24.897 121.548C24.5959 121.815 24.3658 122.196 24.2067 122.69C24.0476 123.179 23.968 123.767 23.968 124.455C23.968 125.136 24.0476 125.724 24.2067 126.219C24.3658 126.713 24.5959 127.094 24.897 127.361C25.1982 127.628 25.5589 127.761 25.9794 127.761ZM39.343 123.636V131H34.6385V117.909H39.1044V120.398H39.2408C39.5249 119.568 40.0249 118.918 40.7408 118.446C41.4624 117.974 42.3033 117.739 43.2635 117.739C44.1896 117.739 44.9936 117.952 45.6754 118.378C46.3629 118.798 46.8942 119.378 47.2692 120.116C47.6499 120.855 47.8374 121.699 47.8317 122.648V131H43.1271V123.636C43.1328 122.989 42.968 122.48 42.6328 122.111C42.3033 121.741 41.843 121.557 41.2521 121.557C40.8658 121.557 40.5277 121.642 40.2379 121.812C39.9538 121.977 39.7351 122.216 39.5817 122.528C39.4283 122.835 39.3487 123.205 39.343 123.636ZM62.8786 117.909L58.4808 131H53.0263L48.6286 117.909H53.5717L55.6854 126.568H55.8217L57.9354 117.909H62.8786ZM70.0909 131.239C68.6932 131.239 67.4886 130.972 66.4773 130.438C65.4716 129.898 64.696 129.125 64.1506 128.119C63.6108 127.108 63.3409 125.898 63.3409 124.489C63.3409 123.136 63.6136 121.955 64.1591 120.943C64.7045 119.932 65.4744 119.145 66.4688 118.582C67.4631 118.02 68.6364 117.739 69.9886 117.739C70.9773 117.739 71.8722 117.892 72.6733 118.199C73.4744 118.506 74.1591 118.952 74.7273 119.537C75.2955 120.116 75.733 120.821 76.0398 121.651C76.3466 122.48 76.5 123.415 76.5 124.455V125.545H64.8068V122.955H72.1705C72.1648 122.58 72.0682 122.25 71.8807 121.966C71.6989 121.676 71.4517 121.452 71.1392 121.293C70.8324 121.128 70.483 121.045 70.0909 121.045C69.7102 121.045 69.3608 121.128 69.0426 121.293C68.7244 121.452 68.4688 121.673 68.2756 121.957C68.0881 122.241 67.9886 122.574 67.9773 122.955V125.75C67.9773 126.17 68.0653 126.545 68.2415 126.875C68.4176 127.205 68.6705 127.463 69 127.651C69.3295 127.838 69.7273 127.932 70.1932 127.932C70.517 127.932 70.8125 127.886 71.0795 127.795C71.3523 127.705 71.5852 127.574 71.7784 127.403C71.9716 127.227 72.1136 127.017 72.2045 126.773H76.5C76.3523 127.682 76.0028 128.472 75.4517 129.142C74.9006 129.807 74.1705 130.324 73.2614 130.693C72.358 131.057 71.3011 131.239 70.0909 131.239ZM83.1243 123.636V131H78.4197V117.909H82.8857V120.398H83.022C83.3061 119.568 83.8061 118.918 84.522 118.446C85.2436 117.974 86.0845 117.739 87.0447 117.739C87.9709 117.739 88.7749 117.952 89.4567 118.378C90.1442 118.798 90.6754 119.378 91.0504 120.116C91.4311 120.855 91.6186 121.699 91.6129 122.648V131H86.9084V123.636C86.9141 122.989 86.7493 122.48 86.4141 122.111C86.0845 121.741 85.6243 121.557 85.0334 121.557C84.647 121.557 84.3089 121.642 84.0192 121.812C83.7351 121.977 83.5163 122.216 83.3629 122.528C83.2095 122.835 83.13 123.205 83.1243 123.636ZM101.742 117.909V121.318H93.1172V117.909H101.742ZM94.7876 114.773H99.4922V126.79C99.4922 126.972 99.5234 127.125 99.5859 127.25C99.6484 127.369 99.745 127.46 99.8757 127.523C100.006 127.58 100.174 127.608 100.379 127.608C100.521 127.608 100.685 127.591 100.873 127.557C101.066 127.523 101.208 127.494 101.299 127.472L101.981 130.778C101.771 130.841 101.469 130.918 101.077 131.009C100.691 131.099 100.231 131.159 99.6967 131.188C98.6172 131.244 97.7109 131.134 96.978 130.855C96.245 130.571 95.6939 130.125 95.3246 129.517C94.9553 128.909 94.7763 128.148 94.7876 127.233V114.773ZM103.662 131V117.909H108.366V131H103.662ZM106.014 116.545C105.378 116.545 104.832 116.335 104.378 115.915C103.923 115.494 103.696 114.989 103.696 114.398C103.696 113.807 103.923 113.301 104.378 112.881C104.832 112.46 105.378 112.25 106.014 112.25C106.656 112.25 107.202 112.46 107.651 112.881C108.105 113.301 108.332 113.807 108.332 114.398C108.332 114.989 108.105 115.494 107.651 115.915C107.202 116.335 106.656 116.545 106.014 116.545ZM117.07 131.239C115.65 131.239 114.434 130.957 113.423 130.395C112.411 129.827 111.636 129.037 111.096 128.026C110.556 127.009 110.286 125.83 110.286 124.489C110.286 123.148 110.556 121.972 111.096 120.96C111.636 119.943 112.411 119.153 113.423 118.591C114.434 118.023 115.65 117.739 117.07 117.739C118.491 117.739 119.707 118.023 120.718 118.591C121.729 119.153 122.505 119.943 123.045 120.96C123.585 121.972 123.854 123.148 123.854 124.489C123.854 125.83 123.585 127.009 123.045 128.026C122.505 129.037 121.729 129.827 120.718 130.395C119.707 130.957 118.491 131.239 117.07 131.239ZM117.104 127.761C117.502 127.761 117.846 127.628 118.136 127.361C118.425 127.094 118.65 126.713 118.809 126.219C118.968 125.724 119.048 125.136 119.048 124.455C119.048 123.767 118.968 123.179 118.809 122.69C118.65 122.196 118.425 121.815 118.136 121.548C117.846 121.281 117.502 121.148 117.104 121.148C116.684 121.148 116.323 121.281 116.022 121.548C115.721 121.815 115.491 122.196 115.332 122.69C115.173 123.179 115.093 123.767 115.093 124.455C115.093 125.136 115.173 125.724 115.332 126.219C115.491 126.713 115.721 127.094 116.022 127.361C116.323 127.628 116.684 127.761 117.104 127.761ZM130.468 123.636V131H125.763V117.909H130.229V120.398H130.366C130.65 119.568 131.15 118.918 131.866 118.446C132.587 117.974 133.428 117.739 134.388 117.739C135.315 117.739 136.119 117.952 136.8 118.378C137.488 118.798 138.019 119.378 138.394 120.116C138.775 120.855 138.962 121.699 138.957 122.648V131H134.252V123.636C134.258 122.989 134.093 122.48 133.758 122.111C133.428 121.741 132.968 121.557 132.377 121.557C131.991 121.557 131.653 121.642 131.363 121.812C131.079 121.977 130.86 122.216 130.707 122.528C130.553 122.835 130.474 123.205 130.468 123.636ZM144.927 131.205C144.092 131.205 143.353 131.068 142.711 130.795C142.075 130.517 141.575 130.097 141.211 129.534C140.847 128.972 140.665 128.256 140.665 127.386C140.665 126.67 140.788 126.06 141.032 125.554C141.276 125.043 141.617 124.625 142.055 124.301C142.492 123.977 143.001 123.73 143.58 123.56C144.165 123.389 144.796 123.278 145.472 123.227C146.205 123.17 146.793 123.102 147.237 123.023C147.685 122.937 148.009 122.821 148.208 122.673C148.407 122.52 148.506 122.318 148.506 122.068V122.034C148.506 121.693 148.376 121.432 148.114 121.25C147.853 121.068 147.518 120.977 147.109 120.977C146.66 120.977 146.293 121.077 146.009 121.276C145.731 121.469 145.563 121.767 145.506 122.17H141.177C141.234 121.375 141.487 120.642 141.935 119.972C142.39 119.295 143.052 118.756 143.921 118.352C144.79 117.943 145.876 117.739 147.177 117.739C148.114 117.739 148.955 117.849 149.7 118.071C150.444 118.287 151.077 118.591 151.6 118.983C152.123 119.369 152.521 119.824 152.793 120.347C153.072 120.864 153.211 121.426 153.211 122.034V131H148.813V129.159H148.711C148.45 129.648 148.131 130.043 147.756 130.344C147.387 130.645 146.964 130.864 146.487 131C146.015 131.136 145.495 131.205 144.927 131.205ZM146.461 128.239C146.819 128.239 147.154 128.165 147.467 128.017C147.785 127.869 148.043 127.656 148.242 127.378C148.441 127.099 148.54 126.761 148.54 126.364V125.273C148.415 125.324 148.282 125.372 148.14 125.418C148.004 125.463 147.856 125.506 147.697 125.545C147.543 125.585 147.379 125.622 147.202 125.656C147.032 125.69 146.853 125.722 146.665 125.75C146.302 125.807 146.004 125.901 145.771 126.031C145.543 126.156 145.373 126.312 145.259 126.5C145.151 126.682 145.097 126.886 145.097 127.114C145.097 127.477 145.225 127.756 145.481 127.949C145.737 128.142 146.063 128.239 146.461 128.239ZM160.163 113.545V131H155.459V113.545H160.163ZM176.683 119C176.637 118.432 176.424 117.989 176.043 117.67C175.668 117.352 175.097 117.193 174.33 117.193C173.842 117.193 173.441 117.253 173.129 117.372C172.822 117.486 172.594 117.642 172.447 117.841C172.299 118.04 172.222 118.267 172.217 118.523C172.205 118.733 172.242 118.923 172.327 119.094C172.418 119.259 172.56 119.409 172.754 119.545C172.947 119.676 173.194 119.795 173.495 119.903C173.796 120.011 174.154 120.108 174.569 120.193L176.001 120.5C176.967 120.705 177.793 120.974 178.481 121.31C179.168 121.645 179.731 122.04 180.168 122.494C180.606 122.943 180.927 123.449 181.131 124.011C181.342 124.574 181.45 125.187 181.455 125.852C181.45 127 181.163 127.972 180.594 128.767C180.026 129.562 179.214 130.168 178.157 130.582C177.106 130.997 175.842 131.205 174.364 131.205C172.847 131.205 171.523 130.98 170.393 130.531C169.268 130.082 168.393 129.392 167.768 128.46C167.148 127.523 166.836 126.324 166.83 124.864H171.33C171.359 125.398 171.492 125.847 171.731 126.21C171.969 126.574 172.305 126.849 172.737 127.037C173.174 127.224 173.694 127.318 174.296 127.318C174.802 127.318 175.225 127.256 175.566 127.131C175.907 127.006 176.165 126.832 176.342 126.611C176.518 126.389 176.609 126.136 176.614 125.852C176.609 125.585 176.521 125.352 176.35 125.153C176.185 124.949 175.913 124.767 175.532 124.608C175.151 124.443 174.637 124.29 173.989 124.148L172.251 123.773C170.705 123.437 169.487 122.878 168.594 122.094C167.708 121.304 167.268 120.227 167.273 118.864C167.268 117.756 167.563 116.787 168.16 115.957C168.762 115.122 169.594 114.472 170.657 114.006C171.725 113.54 172.95 113.307 174.33 113.307C175.739 113.307 176.958 113.543 177.987 114.014C179.015 114.486 179.808 115.151 180.364 116.009C180.927 116.861 181.211 117.858 181.217 119H176.683ZM189.633 131.239C188.212 131.239 186.996 130.957 185.985 130.395C184.974 129.827 184.198 129.037 183.658 128.026C183.119 127.009 182.849 125.83 182.849 124.489C182.849 123.148 183.119 121.972 183.658 120.96C184.198 119.943 184.974 119.153 185.985 118.591C186.996 118.023 188.212 117.739 189.633 117.739C191.053 117.739 192.269 118.023 193.281 118.591C194.292 119.153 195.067 119.943 195.607 120.96C196.147 121.972 196.417 123.148 196.417 124.489C196.417 125.83 196.147 127.009 195.607 128.026C195.067 129.037 194.292 129.827 193.281 130.395C192.269 130.957 191.053 131.239 189.633 131.239ZM189.667 127.761C190.065 127.761 190.408 127.628 190.698 127.361C190.988 127.094 191.212 126.713 191.371 126.219C191.531 125.724 191.61 125.136 191.61 124.455C191.61 123.767 191.531 123.179 191.371 122.69C191.212 122.196 190.988 121.815 190.698 121.548C190.408 121.281 190.065 121.148 189.667 121.148C189.246 121.148 188.886 121.281 188.585 121.548C188.283 121.815 188.053 122.196 187.894 122.69C187.735 123.179 187.656 123.767 187.656 124.455C187.656 125.136 187.735 125.724 187.894 126.219C188.053 126.713 188.283 127.094 188.585 127.361C188.886 127.628 189.246 127.761 189.667 127.761ZM203.031 113.545V131H198.326V113.545H203.031ZM209.075 131.205C208.24 131.205 207.501 131.068 206.859 130.795C206.223 130.517 205.723 130.097 205.359 129.534C204.996 128.972 204.814 128.256 204.814 127.386C204.814 126.67 204.936 126.06 205.18 125.554C205.425 125.043 205.766 124.625 206.203 124.301C206.641 123.977 207.149 123.73 207.729 123.56C208.314 123.389 208.945 123.278 209.621 123.227C210.354 123.17 210.942 123.102 211.385 123.023C211.834 122.937 212.158 122.821 212.357 122.673C212.555 122.52 212.655 122.318 212.655 122.068V122.034C212.655 121.693 212.524 121.432 212.263 121.25C212.001 121.068 211.666 120.977 211.257 120.977C210.808 120.977 210.442 121.077 210.158 121.276C209.879 121.469 209.712 121.767 209.655 122.17H205.325C205.382 121.375 205.635 120.642 206.084 119.972C206.538 119.295 207.2 118.756 208.07 118.352C208.939 117.943 210.024 117.739 211.325 117.739C212.263 117.739 213.104 117.849 213.848 118.071C214.592 118.287 215.226 118.591 215.749 118.983C216.271 119.369 216.669 119.824 216.942 120.347C217.22 120.864 217.359 121.426 217.359 122.034V131H212.962V129.159H212.859C212.598 129.648 212.28 130.043 211.905 130.344C211.536 130.645 211.112 130.864 210.635 131C210.163 131.136 209.643 131.205 209.075 131.205ZM210.609 128.239C210.967 128.239 211.303 128.165 211.615 128.017C211.933 127.869 212.192 127.656 212.391 127.378C212.589 127.099 212.689 126.761 212.689 126.364V125.273C212.564 125.324 212.43 125.372 212.288 125.418C212.152 125.463 212.004 125.506 211.845 125.545C211.692 125.585 211.527 125.622 211.351 125.656C211.18 125.69 211.001 125.722 210.814 125.75C210.45 125.807 210.152 125.901 209.919 126.031C209.692 126.156 209.521 126.312 209.408 126.5C209.3 126.682 209.246 126.886 209.246 127.114C209.246 127.477 209.374 127.756 209.629 127.949C209.885 128.142 210.212 128.239 210.609 128.239ZM219.607 131V117.909H224.175V120.398H224.312C224.55 119.477 224.928 118.804 225.445 118.378C225.968 117.952 226.579 117.739 227.278 117.739C227.482 117.739 227.684 117.756 227.883 117.79C228.087 117.818 228.283 117.861 228.471 117.918V121.932C228.238 121.852 227.951 121.793 227.61 121.753C227.269 121.713 226.977 121.693 226.732 121.693C226.272 121.693 225.857 121.798 225.488 122.009C225.124 122.213 224.837 122.503 224.627 122.878C224.417 123.247 224.312 123.682 224.312 124.182V131H219.607Z" fill="black"/>
<path d="M84.8539 24.4667V20.7026H74.0909C73.8327 19.0953 73.2501 17.6085 72.4189 16.324L80.1319 7.94602L77.6815 5.28433L69.9702 13.6599C68.7495 12.725 67.33 12.0767 65.7944 11.8085V0H62.329V11.8602C60.8965 12.1533 59.571 12.7777 58.4214 13.6576L50.7196 5.29233L48.2696 7.95402L55.9718 16.3197C55.1388 17.6056 54.5558 19.0939 54.2968 20.7026H43.2695V24.4667H54.2968C54.5558 26.0791 55.1414 27.5706 55.9775 28.8584L48.277 37.2232L50.7274 39.8849L58.4301 31.5182C59.5775 32.3943 60.9 33.0164 62.329 33.309V45.1692H65.7944V33.3608C67.3265 33.093 68.7426 32.4475 69.9615 31.5159L77.6737 39.8934L80.1241 37.2321L72.4128 28.8547C73.2475 27.5678 73.8319 26.0777 74.0909 24.4667H84.8539ZM64.1938 15.4328C67.8242 15.4328 70.778 18.6412 70.778 22.5846C70.778 26.528 67.8247 29.7364 64.1938 29.7364C60.563 29.7364 57.6096 26.528 57.6096 22.5846C57.6096 18.6412 60.5634 15.4328 64.1938 15.4328ZM147.23 82.8102V52.6974H138.567V73.4L122.973 56.4615H74.4578L43.2695 90.3385H98.7154L122.973 63.9897L147.23 90.3385H154.161L147.23 82.8102ZM73.3874 71.0474H80.7431L76.4114 75.7526H69.0557L73.3874 71.0474ZM83.1936 71.0474H90.5497L86.218 75.7526H78.8614L83.1936 71.0474ZM92.9997 71.0474H100.356L96.0241 75.7526H88.668L92.9997 71.0474ZM102.088 69.1654H94.7324L99.4972 63.9897H106.853L102.088 69.1654ZM92.2819 69.1654H84.9262L89.6911 63.9897H97.0468L92.2819 69.1654ZM82.4758 69.1654H75.1201L79.885 63.9897H87.2407L82.4758 69.1654ZM67.3231 77.6346H74.6787L69.9138 82.8102H62.5582L67.3231 77.6346ZM77.1287 77.6346H84.4848L79.72 82.8102H72.3639L77.1287 77.6346ZM86.9349 77.6346H94.291L89.5261 82.8102H82.17L86.9349 77.6346Z" fill="black"/>
</svg>
