<svg width="433" height="98" viewBox="0 0 433 98" fill="none" xmlns="http://www.w3.org/2000/svg">
<path d="M166.229 58.0462H160.521C160.481 57.5739 160.373 57.1455 160.197 56.7609C160.029 56.3764 159.793 56.0458 159.489 55.7691C159.192 55.4858 158.831 55.2699 158.406 55.1215C157.981 54.9663 157.499 54.8887 156.959 54.8887C156.014 54.8887 155.215 55.1181 154.56 55.5769C153.913 56.0356 153.42 56.6934 153.083 57.5503C152.752 58.4071 152.587 59.436 152.587 60.6369C152.587 61.9053 152.756 62.968 153.093 63.8248C153.437 64.6749 153.933 65.3158 154.581 65.7476C155.228 66.1727 156.008 66.3852 156.918 66.3852C157.438 66.3852 157.903 66.3211 158.315 66.1929C158.727 66.058 159.084 65.8657 159.388 65.6161C159.691 65.3664 159.938 65.0662 160.126 64.7154C160.322 64.3578 160.454 63.9564 160.521 63.5111L166.229 63.5516C166.161 64.4286 165.915 65.3226 165.49 66.2334C165.065 67.1375 164.461 67.9741 163.679 68.7432C162.903 69.5056 161.941 70.1195 160.794 70.5851C159.647 71.0506 158.315 71.2834 156.797 71.2834C154.894 71.2834 153.187 70.8752 151.676 70.0588C150.172 69.2425 148.981 68.0415 148.104 66.456C147.233 64.8705 146.798 62.9308 146.798 60.6369C146.798 58.3295 147.244 56.3865 148.134 54.8077C149.025 53.2222 150.226 52.0247 151.737 51.2151C153.248 50.3987 154.935 49.9905 156.797 49.9905C158.106 49.9905 159.31 50.1693 160.41 50.5269C161.51 50.8845 162.474 51.4073 163.304 52.0955C164.134 52.7769 164.802 53.6169 165.308 54.6154C165.814 55.614 166.121 56.7575 166.229 58.0462ZM176.352 71.2834C174.665 71.2834 173.221 70.9494 172.02 70.2815C170.819 69.6068 169.898 68.669 169.257 67.4681C168.616 66.2604 168.296 64.8604 168.296 63.2682C168.296 61.6759 168.616 60.2794 169.257 59.0784C169.898 57.8708 170.819 56.933 172.02 56.265C173.221 55.5904 174.665 55.253 176.352 55.253C178.038 55.253 179.482 55.5904 180.683 56.265C181.884 56.933 182.805 57.8708 183.446 59.0784C184.087 60.2794 184.407 61.6759 184.407 63.2682C184.407 64.8604 184.087 66.2604 183.446 67.4681C182.805 68.669 181.884 69.6068 180.683 70.2815C179.482 70.9494 178.038 71.2834 176.352 71.2834ZM176.392 67.1543C176.864 67.1543 177.273 66.9958 177.617 66.6787C177.961 66.3616 178.227 65.9096 178.416 65.3226C178.605 64.7356 178.7 64.0373 178.7 63.2277C178.7 62.4113 178.605 61.7131 178.416 61.1328C178.227 60.5459 177.961 60.0938 177.617 59.7767C177.273 59.4596 176.864 59.3011 176.392 59.3011C175.893 59.3011 175.464 59.4596 175.107 59.7767C174.749 60.0938 174.476 60.5459 174.287 61.1328C174.098 61.7131 174.004 62.4113 174.004 63.2277C174.004 64.0373 174.098 64.7356 174.287 65.3226C174.476 65.9096 174.749 66.3616 175.107 66.6787C175.464 66.9958 175.893 67.1543 176.392 67.1543ZM192.261 62.2562V71H186.674V55.4554H191.977V58.4105H192.139C192.476 57.4255 193.07 56.653 193.92 56.093C194.777 55.533 195.776 55.253 196.916 55.253C198.016 55.253 198.97 55.506 199.78 56.012C200.596 56.5113 201.227 57.1995 201.672 58.0765C202.124 58.9536 202.347 59.9555 202.34 61.0822V71H196.754V62.2562C196.761 61.487 196.565 60.8832 196.167 60.4447C195.776 60.0061 195.229 59.7868 194.527 59.7868C194.069 59.7868 193.667 59.8881 193.323 60.0905C192.986 60.2861 192.726 60.5695 192.544 60.9405C192.362 61.3049 192.267 61.7434 192.261 62.2562ZM220.207 55.4554L214.985 71H208.508L203.286 55.4554H209.156L211.666 65.7375H211.828L214.338 55.4554H220.207ZM228.772 71.2834C227.112 71.2834 225.682 70.9663 224.481 70.3321C223.286 69.6911 222.366 68.7736 221.718 67.5794C221.077 66.3785 220.756 64.9414 220.756 63.2682C220.756 61.6625 221.08 60.2591 221.728 59.0582C222.376 57.8573 223.29 56.9228 224.471 56.2549C225.651 55.587 227.044 55.253 228.65 55.253C229.824 55.253 230.887 55.4352 231.838 55.7995C232.789 56.1638 233.602 56.6935 234.277 57.3884C234.952 58.0765 235.471 58.9131 235.835 59.8982C236.2 60.8832 236.382 61.993 236.382 63.2277V64.5231H222.497V61.4466H231.241C231.234 61.0013 231.119 60.61 230.897 60.2726C230.681 59.9285 230.387 59.662 230.016 59.4731C229.652 59.2775 229.237 59.1796 228.772 59.1796C228.32 59.1796 227.905 59.2775 227.527 59.4731C227.149 59.662 226.845 59.9252 226.616 60.2625C226.393 60.5998 226.275 60.9945 226.262 61.4466V64.766C226.262 65.2652 226.366 65.7105 226.576 66.1018C226.785 66.4932 227.085 66.8001 227.476 67.0228C227.868 67.2454 228.34 67.3567 228.893 67.3567C229.278 67.3567 229.628 67.3028 229.946 67.1948C230.269 67.0869 230.546 66.9317 230.775 66.7293C231.005 66.5201 231.173 66.2705 231.281 65.9804H236.382C236.207 67.0599 235.792 67.9977 235.137 68.7938C234.483 69.5832 233.616 70.1971 232.536 70.6357C231.464 71.0675 230.209 71.2834 228.772 71.2834ZM244.248 62.2562V71H238.662V55.4554H243.965V58.4105H244.126C244.464 57.4255 245.058 56.653 245.908 56.093C246.764 55.533 247.763 55.253 248.903 55.253C250.003 55.253 250.958 55.506 251.767 56.012C252.584 56.5113 253.214 57.1995 253.66 58.0765C254.112 58.9536 254.334 59.9555 254.328 61.0822V71H248.741V62.2562C248.748 61.487 248.552 60.8832 248.154 60.4447C247.763 60.0061 247.216 59.7868 246.515 59.7868C246.056 59.7868 245.655 59.8881 245.311 60.0905C244.973 60.2861 244.713 60.5695 244.531 60.9405C244.349 61.3049 244.255 61.7434 244.248 62.2562ZM266.355 55.4554V59.5035H256.114V55.4554H266.355ZM258.097 51.7312H263.684V66.0006C263.684 66.2165 263.721 66.3987 263.795 66.5471C263.869 66.6888 263.984 66.7968 264.139 66.871C264.294 66.9384 264.493 66.9722 264.736 66.9722C264.905 66.9722 265.101 66.9519 265.323 66.9115C265.553 66.871 265.721 66.8372 265.829 66.8102L266.639 70.7369C266.389 70.8111 266.032 70.9022 265.566 71.0101C265.107 71.1181 264.561 71.1889 263.927 71.2226C262.645 71.2901 261.569 71.1585 260.698 70.828C259.828 70.4906 259.173 69.961 258.735 69.2391C258.296 68.5172 258.084 67.6131 258.097 66.5269V51.7312ZM268.635 71V55.4554H274.221V71H268.635ZM271.428 53.8362C270.672 53.8362 270.025 53.5866 269.485 53.0873C268.945 52.588 268.675 51.9876 268.675 51.2859C268.675 50.5842 268.945 49.9838 269.485 49.4845C270.025 48.9853 270.672 48.7356 271.428 48.7356C272.191 48.7356 272.838 48.9853 273.371 49.4845C273.911 49.9838 274.181 50.5842 274.181 51.2859C274.181 51.9876 273.911 52.588 273.371 53.0873C272.838 53.5866 272.191 53.8362 271.428 53.8362ZM284.557 71.2834C282.87 71.2834 281.426 70.9494 280.225 70.2815C279.024 69.6068 278.103 68.669 277.462 67.4681C276.821 66.2604 276.501 64.8604 276.501 63.2682C276.501 61.6759 276.821 60.2794 277.462 59.0784C278.103 57.8708 279.024 56.933 280.225 56.265C281.426 55.5904 282.87 55.253 284.557 55.253C286.243 55.253 287.687 55.5904 288.888 56.265C290.089 56.933 291.01 57.8708 291.651 59.0784C292.292 60.2794 292.612 61.6759 292.612 63.2682C292.612 64.8604 292.292 66.2604 291.651 67.4681C291.01 68.669 290.089 69.6068 288.888 70.2815C287.687 70.9494 286.243 71.2834 284.557 71.2834ZM284.597 67.1543C285.069 67.1543 285.477 66.9958 285.822 66.6787C286.166 66.3616 286.432 65.9096 286.621 65.3226C286.81 64.7356 286.904 64.0373 286.904 63.2277C286.904 62.4113 286.81 61.7131 286.621 61.1328C286.432 60.5459 286.166 60.0938 285.822 59.7767C285.477 59.4596 285.069 59.3011 284.597 59.3011C284.098 59.3011 283.669 59.4596 283.312 59.7767C282.954 60.0938 282.681 60.5459 282.492 61.1328C282.303 61.7131 282.209 62.4113 282.209 63.2277C282.209 64.0373 282.303 64.7356 282.492 65.3226C282.681 65.9096 282.954 66.3616 283.312 66.6787C283.669 66.9958 284.098 67.1543 284.597 67.1543ZM300.465 62.2562V71H294.879V55.4554H300.182V58.4105H300.344C300.681 57.4255 301.275 56.653 302.125 56.093C302.982 55.533 303.981 55.253 305.121 55.253C306.22 55.253 307.175 55.506 307.985 56.012C308.801 56.5113 309.432 57.1995 309.877 58.0765C310.329 58.9536 310.552 59.9555 310.545 61.0822V71H304.959V62.2562C304.966 61.487 304.77 60.8832 304.372 60.4447C303.981 60.0061 303.434 59.7868 302.732 59.7868C302.274 59.7868 301.872 59.8881 301.528 60.0905C301.191 60.2861 300.931 60.5695 300.749 60.9405C300.567 61.3049 300.472 61.7434 300.465 62.2562ZM317.634 71.2429C316.643 71.2429 315.765 71.081 315.003 70.7571C314.247 70.4265 313.654 69.9273 313.222 69.2593C312.79 68.5914 312.574 67.7413 312.574 66.709C312.574 65.859 312.719 65.1337 313.009 64.5332C313.299 63.926 313.704 63.4301 314.224 63.0455C314.743 62.661 315.347 62.3675 316.035 62.1651C316.73 61.9627 317.479 61.8311 318.282 61.7704C319.152 61.7029 319.851 61.622 320.377 61.5275C320.91 61.4263 321.294 61.288 321.531 61.1126C321.767 60.9304 321.885 60.6909 321.885 60.3941V60.3536C321.885 59.9488 321.73 59.6384 321.419 59.4225C321.109 59.2066 320.711 59.0987 320.225 59.0987C319.692 59.0987 319.257 59.2167 318.92 59.4529C318.589 59.6823 318.39 60.0365 318.322 60.5155H313.181C313.249 59.571 313.549 58.7006 314.082 57.9045C314.622 57.1016 315.408 56.4607 316.44 55.9817C317.472 55.4959 318.761 55.253 320.306 55.253C321.419 55.253 322.418 55.3846 323.302 55.6477C324.185 55.9041 324.938 56.265 325.558 56.7306C326.179 57.1893 326.651 57.7291 326.975 58.3498C327.306 58.9637 327.471 59.6317 327.471 60.3536V71H322.249V68.814H322.128C321.817 69.3943 321.439 69.8632 320.994 70.2207C320.556 70.5783 320.053 70.8381 319.486 71C318.926 71.1619 318.309 71.2429 317.634 71.2429ZM319.456 67.7211C319.881 67.7211 320.279 67.6334 320.65 67.4579C321.028 67.2825 321.335 67.0295 321.571 66.6989C321.807 66.3683 321.925 65.9669 321.925 65.4946V64.1992C321.777 64.26 321.618 64.3173 321.45 64.3713C321.288 64.4253 321.112 64.4759 320.923 64.5231C320.741 64.5703 320.546 64.6142 320.336 64.6547C320.134 64.6951 319.921 64.7322 319.699 64.766C319.267 64.8334 318.913 64.9448 318.636 65.0999C318.366 65.2484 318.164 65.4339 318.029 65.6565C317.901 65.8724 317.837 66.1153 317.837 66.3852C317.837 66.817 317.989 67.1476 318.292 67.377C318.596 67.6064 318.984 67.7211 319.456 67.7211ZM335.727 50.2739V71H330.14V50.2739H335.727ZM355.342 56.7508C355.288 56.0761 355.035 55.5499 354.583 55.1721C354.138 54.7942 353.46 54.6053 352.549 54.6053C351.969 54.6053 351.493 54.6762 351.122 54.8178C350.758 54.9528 350.488 55.1383 350.312 55.3745C350.137 55.6106 350.046 55.8805 350.039 56.1841C350.026 56.4337 350.069 56.6597 350.171 56.8621C350.279 57.0578 350.447 57.2366 350.677 57.3985C350.906 57.5537 351.2 57.6953 351.557 57.8235C351.915 57.9517 352.34 58.0664 352.832 58.1676L354.532 58.5319C355.679 58.7748 356.661 59.0953 357.477 59.4934C358.294 59.8914 358.962 60.3603 359.481 60.9001C360.001 61.4331 360.382 62.0335 360.625 62.7015C360.874 63.3694 361.003 64.098 361.009 64.8874C361.003 66.2503 360.662 67.404 359.987 68.3485C359.313 69.2931 358.348 70.0116 357.093 70.5041C355.845 70.9966 354.344 71.2429 352.589 71.2429C350.788 71.2429 349.216 70.9764 347.873 70.4434C346.538 69.9104 345.499 69.0907 344.756 67.9842C344.021 66.871 343.65 65.4474 343.643 63.7135H348.987C349.02 64.3477 349.179 64.8807 349.462 65.3125C349.746 65.7443 350.144 66.0715 350.656 66.2941C351.176 66.5168 351.793 66.6281 352.508 66.6281C353.109 66.6281 353.612 66.5539 354.016 66.4054C354.421 66.257 354.728 66.0512 354.937 65.7881C355.146 65.525 355.254 65.2248 355.261 64.8874C355.254 64.5703 355.15 64.2937 354.947 64.0576C354.752 63.8147 354.428 63.5988 353.976 63.4099C353.524 63.2142 352.913 63.0321 352.144 62.8634L350.08 62.4181C348.244 62.02 346.797 61.3555 345.738 60.4244C344.686 59.4866 344.163 58.2081 344.169 56.5889C344.163 55.2733 344.513 54.1229 345.222 53.1379C345.937 52.1461 346.925 51.3736 348.187 50.8204C349.456 50.2671 350.909 49.9905 352.549 49.9905C354.222 49.9905 355.669 50.2705 356.89 50.8305C358.112 51.3905 359.053 52.1799 359.714 53.1986C360.382 54.2106 360.719 55.3947 360.726 56.7508H355.342ZM370.72 71.2834C369.033 71.2834 367.589 70.9494 366.388 70.2815C365.187 69.6068 364.266 68.669 363.625 67.4681C362.984 66.2604 362.664 64.8604 362.664 63.2682C362.664 61.6759 362.984 60.2794 363.625 59.0784C364.266 57.8708 365.187 56.933 366.388 56.265C367.589 55.5904 369.033 55.253 370.72 55.253C372.406 55.253 373.85 55.5904 375.051 56.265C376.252 56.933 377.173 57.8708 377.814 59.0784C378.455 60.2794 378.775 61.6759 378.775 63.2682C378.775 64.8604 378.455 66.2604 377.814 67.4681C377.173 68.669 376.252 69.6068 375.051 70.2815C373.85 70.9494 372.406 71.2834 370.72 71.2834ZM370.76 67.1543C371.232 67.1543 371.641 66.9958 371.985 66.6787C372.329 66.3616 372.595 65.9096 372.784 65.3226C372.973 64.7356 373.068 64.0373 373.068 63.2277C373.068 62.4113 372.973 61.7131 372.784 61.1328C372.595 60.5459 372.329 60.0938 371.985 59.7767C371.641 59.4596 371.232 59.3011 370.76 59.3011C370.261 59.3011 369.832 59.4596 369.475 59.7767C369.117 60.0938 368.844 60.5459 368.655 61.1328C368.466 61.7131 368.372 62.4113 368.372 63.2277C368.372 64.0373 368.466 64.7356 368.655 65.3226C368.844 65.9096 369.117 66.3616 369.475 66.6787C369.832 66.9958 370.261 67.1543 370.76 67.1543ZM386.629 50.2739V71H381.042V50.2739H386.629ZM393.806 71.2429C392.815 71.2429 391.937 71.081 391.175 70.7571C390.419 70.4265 389.826 69.9273 389.394 69.2593C388.962 68.5914 388.746 67.7413 388.746 66.709C388.746 65.859 388.891 65.1337 389.181 64.5332C389.471 63.926 389.876 63.4301 390.396 63.0455C390.915 62.661 391.519 62.3675 392.207 62.1651C392.902 61.9627 393.651 61.8311 394.454 61.7704C395.324 61.7029 396.023 61.622 396.549 61.5275C397.082 61.4263 397.466 61.288 397.703 61.1126C397.939 60.9304 398.057 60.6909 398.057 60.3941V60.3536C398.057 59.9488 397.902 59.6384 397.591 59.4225C397.281 59.2066 396.883 59.0987 396.397 59.0987C395.864 59.0987 395.429 59.2167 395.092 59.4529C394.761 59.6823 394.562 60.0365 394.494 60.5155H389.353C389.421 59.571 389.721 58.7006 390.254 57.9045C390.794 57.1016 391.58 56.4607 392.612 55.9817C393.644 55.4959 394.933 55.253 396.478 55.253C397.591 55.253 398.59 55.3846 399.474 55.6477C400.357 55.9041 401.11 56.265 401.73 56.7306C402.351 57.1893 402.823 57.7291 403.147 58.3498C403.478 58.9637 403.643 59.6317 403.643 60.3536V71H398.421V68.814H398.3C397.989 69.3943 397.611 69.8632 397.166 70.2207C396.728 70.5783 396.225 70.8381 395.658 71C395.098 71.1619 394.481 71.2429 393.806 71.2429ZM395.628 67.7211C396.053 67.7211 396.451 67.6334 396.822 67.4579C397.2 67.2825 397.507 67.0295 397.743 66.6989C397.979 66.3683 398.097 65.9669 398.097 65.4946V64.1992C397.949 64.26 397.79 64.3173 397.622 64.3713C397.46 64.4253 397.284 64.4759 397.095 64.5231C396.913 64.5703 396.718 64.6142 396.508 64.6547C396.306 64.6951 396.093 64.7322 395.871 64.766C395.439 64.8334 395.085 64.9448 394.808 65.0999C394.538 65.2484 394.336 65.4339 394.201 65.6565C394.073 65.8724 394.009 66.1153 394.009 66.3852C394.009 66.817 394.161 67.1476 394.464 67.377C394.768 67.6064 395.156 67.7211 395.628 67.7211ZM406.312 71V55.4554H411.737V58.4105H411.899C412.182 57.3175 412.631 56.518 413.245 56.012C413.865 55.506 414.591 55.253 415.42 55.253C415.663 55.253 415.903 55.2733 416.139 55.3137C416.382 55.3475 416.615 55.3981 416.837 55.4655V60.2321C416.561 60.1377 416.22 60.0668 415.815 60.0196C415.41 59.9724 415.063 59.9488 414.773 59.9488C414.226 59.9488 413.734 60.0736 413.295 60.3232C412.863 60.5661 412.523 60.9102 412.273 61.3555C412.023 61.794 411.899 62.3101 411.899 62.9039V71H406.312Z" fill="white"/>
<path d="M48.7976 26.432V22.3656H36.1677C35.8647 20.6292 35.1811 19.0229 34.2056 17.6353L43.2566 8.58432L40.3811 5.70881L31.3321 14.7572C29.8997 13.7472 28.234 13.0468 26.432 12.757V0H22.3656V12.8129C20.6846 13.1296 19.1292 13.8041 17.7801 14.7547L8.7424 5.71745L5.86741 8.59296L14.9056 17.6307C13.9282 19.0199 13.244 20.6277 12.94 22.3656H0V26.432H12.94C13.244 28.174 13.9312 29.7854 14.9122 31.1766L5.87605 40.2133L8.75155 43.0888L17.7903 34.0501C19.1368 34.9965 20.6887 35.6685 22.3656 35.9847V48.7976H26.432V36.0406C28.2299 35.7514 29.8916 35.054 31.322 34.0475L40.3719 43.098L43.2474 40.223L34.1985 31.1725C35.178 29.7823 35.8637 28.1725 36.1677 26.432H48.7976ZM24.5538 16.6725C28.814 16.6725 32.2801 20.1387 32.2801 24.3988C32.2801 28.6589 28.8145 32.1251 24.5538 32.1251C20.2932 32.1251 16.8276 28.6589 16.8276 24.3988C16.8276 20.1387 20.2937 16.6725 24.5538 16.6725ZM121.994 89.4623V56.9306H111.828V79.2961L93.5288 60.997H36.5982L0 97.5952H65.0635L93.5288 69.13L121.994 97.5952H130.127L121.994 89.4623ZM35.3422 76.7546H43.9738L38.8907 81.8377H30.2591L35.3422 76.7546ZM46.8493 76.7546H55.4814L50.3983 81.8377H41.7657L46.8493 76.7546ZM58.3564 76.7546H66.9885L61.9054 81.8377H53.2733L58.3564 76.7546ZM69.0217 74.7214H60.3896L65.981 69.13H74.6131L69.0217 74.7214ZM57.5141 74.7214H48.8825L54.4739 69.13H63.1055L57.5141 74.7214ZM46.007 74.7214H37.3754L42.9668 69.13H51.5984L46.007 74.7214ZM28.2259 83.8709H36.8575L31.2661 89.4623H22.6345L28.2259 83.8709ZM39.7324 83.8709H48.3645L42.7732 89.4623H34.1411L39.7324 83.8709ZM51.2395 83.8709H59.8716L54.2802 89.4623H45.6481L51.2395 83.8709Z" fill="white"/>
</svg>
