<svg width="242" height="162" viewBox="0 0 242 162" fill="none" xmlns="http://www.w3.org/2000/svg">
<path d="M24.0103 121.467H19.2035C19.1694 121.069 19.0785 120.708 18.9308 120.384C18.7887 120.06 18.5898 119.782 18.3342 119.549C18.0842 119.31 17.7802 119.129 17.4222 119.004C17.0643 118.873 16.658 118.808 16.2035 118.808C15.408 118.808 14.7347 119.001 14.1836 119.387C13.6381 119.774 13.2234 120.327 12.9393 121.049C12.6609 121.771 12.5217 122.637 12.5217 123.649C12.5217 124.717 12.6637 125.612 12.9478 126.333C13.2376 127.049 13.6552 127.589 14.2006 127.952C14.7461 128.31 15.4023 128.489 16.1694 128.489C16.6069 128.489 16.9989 128.435 17.3455 128.327C17.6921 128.214 17.9933 128.052 18.2489 127.842C18.5046 127.631 18.712 127.379 18.8711 127.083C19.0359 126.782 19.1467 126.444 19.2035 126.069L24.0103 126.103C23.9535 126.842 23.7461 127.595 23.3881 128.362C23.0302 129.123 22.5217 129.827 21.8626 130.475C21.2092 131.117 20.3995 131.634 19.4336 132.026C18.4677 132.418 17.3455 132.614 16.0671 132.614C14.4648 132.614 13.0273 132.271 11.7546 131.583C10.4876 130.896 9.48473 129.884 8.74609 128.549C8.01314 127.214 7.64666 125.58 7.64666 123.649C7.64666 121.705 8.02166 120.069 8.77166 118.739C9.52166 117.404 10.533 116.396 11.8058 115.714C13.0785 115.026 14.4989 114.683 16.0671 114.683C17.1694 114.683 18.1836 114.833 19.1097 115.134C20.0359 115.435 20.8484 115.876 21.5472 116.455C22.2461 117.029 22.8086 117.737 23.2347 118.577C23.6609 119.418 23.9194 120.381 24.0103 121.467ZM32.5352 132.614C31.1147 132.614 29.8988 132.333 28.8874 131.771C27.8761 131.202 27.1005 130.413 26.5607 129.401C26.021 128.384 25.7511 127.205 25.7511 125.864C25.7511 124.524 26.021 123.347 26.5607 122.336C27.1005 121.319 27.8761 120.529 28.8874 119.967C29.8988 119.399 31.1147 119.114 32.5352 119.114C33.9556 119.114 35.1715 119.399 36.1829 119.967C37.1942 120.529 37.9698 121.319 38.5096 122.336C39.0494 123.347 39.3192 124.524 39.3192 125.864C39.3192 127.205 39.0494 128.384 38.5096 129.401C37.9698 130.413 37.1942 131.202 36.1829 131.771C35.1715 132.333 33.9556 132.614 32.5352 132.614ZM32.5692 129.137C32.967 129.137 33.3107 129.004 33.6005 128.737C33.8903 128.47 34.1147 128.089 34.2738 127.595C34.4329 127.1 34.5124 126.512 34.5124 125.83C34.5124 125.143 34.4329 124.555 34.2738 124.066C34.1147 123.572 33.8903 123.191 33.6005 122.924C33.3107 122.657 32.967 122.524 32.5692 122.524C32.1488 122.524 31.788 122.657 31.4869 122.924C31.1857 123.191 30.9556 123.572 30.7965 124.066C30.6374 124.555 30.5579 125.143 30.5579 125.83C30.5579 126.512 30.6374 127.1 30.7965 127.595C30.9556 128.089 31.1857 128.47 31.4869 128.737C31.788 129.004 32.1488 129.137 32.5692 129.137ZM45.9329 125.012V132.376H41.2283V119.285H45.6942V121.774H45.8306C46.1147 120.944 46.6147 120.293 47.3306 119.822C48.0522 119.35 48.8931 119.114 49.8533 119.114C50.7795 119.114 51.5835 119.327 52.2653 119.754C52.9528 120.174 53.484 120.754 53.859 121.492C54.2397 122.231 54.4272 123.075 54.4215 124.024V132.376H49.717V125.012C49.7227 124.364 49.5579 123.856 49.2227 123.487C48.8931 123.117 48.4329 122.933 47.842 122.933C47.4556 122.933 47.1175 123.018 46.8278 123.188C46.5437 123.353 46.3249 123.592 46.1715 123.904C46.0181 124.211 45.9386 124.58 45.9329 125.012ZM69.4684 119.285L65.0707 132.376H59.6161L55.2184 119.285H60.1616L62.2752 127.944H62.4116L64.5252 119.285H69.4684ZM76.6808 132.614C75.283 132.614 74.0785 132.347 73.0671 131.813C72.0614 131.274 71.2859 130.501 70.7404 129.495C70.2006 128.484 69.9308 127.274 69.9308 125.864C69.9308 124.512 70.2035 123.33 70.7489 122.319C71.2944 121.308 72.0643 120.521 73.0586 119.958C74.0529 119.396 75.2262 119.114 76.5785 119.114C77.5671 119.114 78.462 119.268 79.2631 119.575C80.0643 119.881 80.7489 120.327 81.3171 120.913C81.8853 121.492 82.3228 122.197 82.6296 123.026C82.9364 123.856 83.0898 124.791 83.0898 125.83V126.921H71.3967V124.33H78.7603C78.7546 123.955 78.658 123.626 78.4705 123.342C78.2887 123.052 78.0415 122.827 77.729 122.668C77.4222 122.504 77.0728 122.421 76.6808 122.421C76.3001 122.421 75.9506 122.504 75.6325 122.668C75.3143 122.827 75.0586 123.049 74.8654 123.333C74.6779 123.617 74.5785 123.95 74.5671 124.33V127.126C74.5671 127.546 74.6552 127.921 74.8313 128.251C75.0075 128.58 75.2603 128.839 75.5898 129.026C75.9194 129.214 76.3171 129.308 76.783 129.308C77.1069 129.308 77.4023 129.262 77.6694 129.171C77.9421 129.08 78.1751 128.95 78.3683 128.779C78.5614 128.603 78.7035 128.393 78.7944 128.149H83.0898C82.9421 129.058 82.5927 129.847 82.0415 130.518C81.4904 131.183 80.7603 131.7 79.8512 132.069C78.9478 132.433 77.891 132.614 76.6808 132.614ZM89.7141 125.012V132.376H85.0096V119.285H89.4755V121.774H89.6119C89.896 120.944 90.396 120.293 91.1119 119.822C91.8335 119.35 92.6744 119.114 93.6346 119.114C94.5607 119.114 95.3647 119.327 96.0465 119.754C96.734 120.174 97.2653 120.754 97.6403 121.492C98.021 122.231 98.2085 123.075 98.2028 124.024V132.376H93.4982V125.012C93.5039 124.364 93.3391 123.856 93.0039 123.487C92.6744 123.117 92.2141 122.933 91.6232 122.933C91.2369 122.933 90.8988 123.018 90.609 123.188C90.3249 123.353 90.1062 123.592 89.9528 123.904C89.7994 124.211 89.7198 124.58 89.7141 125.012ZM108.332 119.285V122.694H99.707V119.285H108.332ZM101.377 116.149H106.082V128.166C106.082 128.347 106.113 128.501 106.176 128.626C106.238 128.745 106.335 128.836 106.466 128.899C106.596 128.955 106.764 128.984 106.968 128.984C107.11 128.984 107.275 128.967 107.463 128.933C107.656 128.899 107.798 128.87 107.889 128.847L108.571 132.154C108.36 132.217 108.059 132.293 107.667 132.384C107.281 132.475 106.821 132.535 106.287 132.563C105.207 132.62 104.301 132.509 103.568 132.231C102.835 131.947 102.284 131.501 101.914 130.893C101.545 130.285 101.366 129.524 101.377 128.609V116.149ZM110.252 132.376V119.285H114.956V132.376H110.252ZM112.604 117.921C111.968 117.921 111.422 117.711 110.968 117.291C110.513 116.87 110.286 116.364 110.286 115.774C110.286 115.183 110.513 114.677 110.968 114.256C111.422 113.836 111.968 113.626 112.604 113.626C113.246 113.626 113.792 113.836 114.24 114.256C114.695 114.677 114.922 115.183 114.922 115.774C114.922 116.364 114.695 116.87 114.24 117.291C113.792 117.711 113.246 117.921 112.604 117.921ZM123.66 132.614C122.24 132.614 121.024 132.333 120.012 131.771C119.001 131.202 118.225 130.413 117.686 129.401C117.146 128.384 116.876 127.205 116.876 125.864C116.876 124.524 117.146 123.347 117.686 122.336C118.225 121.319 119.001 120.529 120.012 119.967C121.024 119.399 122.24 119.114 123.66 119.114C125.081 119.114 126.297 119.399 127.308 119.967C128.319 120.529 129.095 121.319 129.635 122.336C130.174 123.347 130.444 124.524 130.444 125.864C130.444 127.205 130.174 128.384 129.635 129.401C129.095 130.413 128.319 131.202 127.308 131.771C126.297 132.333 125.081 132.614 123.66 132.614ZM123.694 129.137C124.092 129.137 124.436 129.004 124.725 128.737C125.015 128.47 125.24 128.089 125.399 127.595C125.558 127.1 125.637 126.512 125.637 125.83C125.637 125.143 125.558 124.555 125.399 124.066C125.24 123.572 125.015 123.191 124.725 122.924C124.436 122.657 124.092 122.524 123.694 122.524C123.274 122.524 122.913 122.657 122.612 122.924C122.311 123.191 122.081 123.572 121.922 124.066C121.762 124.555 121.683 125.143 121.683 125.83C121.683 126.512 121.762 127.1 121.922 127.595C122.081 128.089 122.311 128.47 122.612 128.737C122.913 129.004 123.274 129.137 123.694 129.137ZM137.058 125.012V132.376H132.353V119.285H136.819V121.774H136.956C137.24 120.944 137.74 120.293 138.456 119.822C139.177 119.35 140.018 119.114 140.978 119.114C141.904 119.114 142.708 119.327 143.39 119.754C144.078 120.174 144.609 120.754 144.984 121.492C145.365 122.231 145.552 123.075 145.547 124.024V132.376H140.842V125.012C140.848 124.364 140.683 123.856 140.348 123.487C140.018 123.117 139.558 122.933 138.967 122.933C138.581 122.933 138.243 123.018 137.953 123.188C137.669 123.353 137.45 123.592 137.297 123.904C137.143 124.211 137.064 124.58 137.058 125.012ZM151.517 132.58C150.681 132.58 149.943 132.444 149.301 132.171C148.664 131.893 148.164 131.472 147.801 130.91C147.437 130.347 147.255 129.631 147.255 128.762C147.255 128.046 147.377 127.435 147.622 126.93C147.866 126.418 148.207 126.001 148.645 125.677C149.082 125.353 149.591 125.106 150.17 124.935C150.755 124.765 151.386 124.654 152.062 124.603C152.795 124.546 153.383 124.478 153.826 124.399C154.275 124.313 154.599 124.197 154.798 124.049C154.997 123.896 155.096 123.694 155.096 123.444V123.41C155.096 123.069 154.966 122.808 154.704 122.626C154.443 122.444 154.108 122.353 153.699 122.353C153.25 122.353 152.883 122.452 152.599 122.651C152.321 122.845 152.153 123.143 152.096 123.546H147.767C147.824 122.751 148.076 122.018 148.525 121.347C148.98 120.671 149.642 120.131 150.511 119.728C151.38 119.319 152.466 119.114 153.767 119.114C154.704 119.114 155.545 119.225 156.289 119.447C157.034 119.663 157.667 119.967 158.19 120.359C158.713 120.745 159.11 121.2 159.383 121.722C159.662 122.239 159.801 122.802 159.801 123.41V132.376H155.403V130.535H155.301C155.039 131.024 154.721 131.418 154.346 131.72C153.977 132.021 153.554 132.239 153.076 132.376C152.605 132.512 152.085 132.58 151.517 132.58ZM153.051 129.614C153.409 129.614 153.744 129.541 154.056 129.393C154.375 129.245 154.633 129.032 154.832 128.754C155.031 128.475 155.13 128.137 155.13 127.739V126.649C155.005 126.7 154.872 126.748 154.73 126.793C154.593 126.839 154.446 126.881 154.287 126.921C154.133 126.961 153.968 126.998 153.792 127.032C153.622 127.066 153.443 127.097 153.255 127.126C152.892 127.183 152.593 127.276 152.36 127.407C152.133 127.532 151.963 127.688 151.849 127.876C151.741 128.058 151.687 128.262 151.687 128.489C151.687 128.853 151.815 129.131 152.071 129.325C152.326 129.518 152.653 129.614 153.051 129.614ZM166.753 114.921V132.376H162.049V114.921H166.753ZM183.272 120.376C183.227 119.808 183.014 119.364 182.633 119.046C182.258 118.728 181.687 118.569 180.92 118.569C180.431 118.569 180.031 118.629 179.718 118.748C179.412 118.862 179.184 119.018 179.037 119.217C178.889 119.416 178.812 119.643 178.806 119.899C178.795 120.109 178.832 120.299 178.917 120.47C179.008 120.634 179.15 120.785 179.343 120.921C179.537 121.052 179.784 121.171 180.085 121.279C180.386 121.387 180.744 121.484 181.159 121.569L182.591 121.876C183.556 122.08 184.383 122.35 185.071 122.685C185.758 123.021 186.321 123.416 186.758 123.87C187.196 124.319 187.517 124.825 187.721 125.387C187.931 125.95 188.039 126.563 188.045 127.228C188.039 128.376 187.752 129.347 187.184 130.143C186.616 130.938 185.804 131.543 184.747 131.958C183.696 132.373 182.431 132.58 180.954 132.58C179.437 132.58 178.113 132.356 176.983 131.907C175.858 131.458 174.983 130.768 174.358 129.836C173.738 128.899 173.426 127.7 173.42 126.239H177.92C177.949 126.774 178.082 127.222 178.321 127.586C178.559 127.95 178.895 128.225 179.326 128.413C179.764 128.6 180.284 128.694 180.886 128.694C181.392 128.694 181.815 128.631 182.156 128.506C182.497 128.381 182.755 128.208 182.931 127.987C183.108 127.765 183.199 127.512 183.204 127.228C183.199 126.961 183.11 126.728 182.94 126.529C182.775 126.325 182.502 126.143 182.122 125.984C181.741 125.819 181.227 125.666 180.579 125.524L178.841 125.149C177.295 124.813 176.076 124.254 175.184 123.47C174.298 122.68 173.858 121.603 173.863 120.239C173.858 119.131 174.153 118.163 174.75 117.333C175.352 116.498 176.184 115.847 177.247 115.381C178.315 114.916 179.539 114.683 180.92 114.683C182.329 114.683 183.548 114.918 184.576 115.39C185.605 115.862 186.397 116.526 186.954 117.384C187.517 118.237 187.801 119.234 187.806 120.376H183.272ZM196.223 132.614C194.802 132.614 193.586 132.333 192.575 131.771C191.564 131.202 190.788 130.413 190.248 129.401C189.708 128.384 189.439 127.205 189.439 125.864C189.439 124.524 189.708 123.347 190.248 122.336C190.788 121.319 191.564 120.529 192.575 119.967C193.586 119.399 194.802 119.114 196.223 119.114C197.643 119.114 198.859 119.399 199.87 119.967C200.882 120.529 201.657 121.319 202.197 122.336C202.737 123.347 203.007 124.524 203.007 125.864C203.007 127.205 202.737 128.384 202.197 129.401C201.657 130.413 200.882 131.202 199.87 131.771C198.859 132.333 197.643 132.614 196.223 132.614ZM196.257 129.137C196.654 129.137 196.998 129.004 197.288 128.737C197.578 128.47 197.802 128.089 197.961 127.595C198.12 127.1 198.2 126.512 198.2 125.83C198.2 125.143 198.12 124.555 197.961 124.066C197.802 123.572 197.578 123.191 197.288 122.924C196.998 122.657 196.654 122.524 196.257 122.524C195.836 122.524 195.475 122.657 195.174 122.924C194.873 123.191 194.643 123.572 194.484 124.066C194.325 124.555 194.245 125.143 194.245 125.83C194.245 126.512 194.325 127.1 194.484 127.595C194.643 128.089 194.873 128.47 195.174 128.737C195.475 129.004 195.836 129.137 196.257 129.137ZM209.62 114.921V132.376H204.916V114.921H209.62ZM215.665 132.58C214.83 132.58 214.091 132.444 213.449 132.171C212.813 131.893 212.313 131.472 211.949 130.91C211.586 130.347 211.404 129.631 211.404 128.762C211.404 128.046 211.526 127.435 211.77 126.93C212.015 126.418 212.355 126.001 212.793 125.677C213.23 125.353 213.739 125.106 214.319 124.935C214.904 124.765 215.534 124.654 216.211 124.603C216.944 124.546 217.532 124.478 217.975 124.399C218.424 124.313 218.748 124.197 218.946 124.049C219.145 123.896 219.245 123.694 219.245 123.444V123.41C219.245 123.069 219.114 122.808 218.853 122.626C218.591 122.444 218.256 122.353 217.847 122.353C217.398 122.353 217.032 122.452 216.748 122.651C216.469 122.845 216.301 123.143 216.245 123.546H211.915C211.972 122.751 212.225 122.018 212.674 121.347C213.128 120.671 213.79 120.131 214.659 119.728C215.529 119.319 216.614 119.114 217.915 119.114C218.853 119.114 219.694 119.225 220.438 119.447C221.182 119.663 221.816 119.967 222.338 120.359C222.861 120.745 223.259 121.2 223.532 121.722C223.81 122.239 223.949 122.802 223.949 123.41V132.376H219.551V130.535H219.449C219.188 131.024 218.87 131.418 218.495 131.72C218.125 132.021 217.702 132.239 217.225 132.376C216.753 132.512 216.233 132.58 215.665 132.58ZM217.199 129.614C217.557 129.614 217.892 129.541 218.205 129.393C218.523 129.245 218.782 129.032 218.98 128.754C219.179 128.475 219.279 128.137 219.279 127.739V126.649C219.154 126.7 219.02 126.748 218.878 126.793C218.742 126.839 218.594 126.881 218.435 126.921C218.282 126.961 218.117 126.998 217.941 127.032C217.77 127.066 217.591 127.097 217.404 127.126C217.04 127.183 216.742 127.276 216.509 127.407C216.282 127.532 216.111 127.688 215.998 127.876C215.89 128.058 215.836 128.262 215.836 128.489C215.836 128.853 215.963 129.131 216.219 129.325C216.475 129.518 216.801 129.614 217.199 129.614ZM226.197 132.376V119.285H230.765V121.774H230.902C231.14 120.853 231.518 120.18 232.035 119.754C232.558 119.327 233.169 119.114 233.868 119.114C234.072 119.114 234.274 119.131 234.473 119.166C234.677 119.194 234.873 119.237 235.061 119.293V123.308C234.828 123.228 234.541 123.168 234.2 123.129C233.859 123.089 233.566 123.069 233.322 123.069C232.862 123.069 232.447 123.174 232.078 123.384C231.714 123.589 231.427 123.879 231.217 124.254C231.007 124.623 230.902 125.058 230.902 125.558V132.376H226.197ZM45.1083 161.376V157.967L51.6197 152.58C52.0515 152.222 52.4208 151.887 52.7276 151.575C53.0401 151.256 53.2788 150.93 53.4435 150.595C53.614 150.259 53.6992 149.887 53.6992 149.478C53.6992 149.029 53.6026 148.646 53.4094 148.327C53.2219 148.009 52.9606 147.765 52.6254 147.595C52.2901 147.418 51.9038 147.33 51.4663 147.33C51.0288 147.33 50.6424 147.418 50.3072 147.595C49.9776 147.771 49.7219 148.029 49.5401 148.37C49.3583 148.711 49.2674 149.126 49.2674 149.614H44.7674C44.7674 148.387 45.043 147.33 45.5941 146.444C46.1452 145.558 46.9237 144.876 47.9293 144.399C48.935 143.921 50.114 143.683 51.4663 143.683C52.864 143.683 54.0742 143.907 55.0969 144.356C56.1254 144.799 56.918 145.424 57.4748 146.231C58.0373 147.038 58.3185 147.984 58.3185 149.069C58.3185 149.739 58.1793 150.407 57.9009 151.072C57.6225 151.731 57.1225 152.461 56.4009 153.262C55.6793 154.063 54.6538 155.018 53.3242 156.126L51.6879 157.489V157.592H58.506V161.376H45.1083ZM68.2262 161.853C66.641 161.847 65.2717 161.481 64.1183 160.754C62.9648 160.026 62.0756 158.978 61.4506 157.609C60.8256 156.239 60.516 154.597 60.5217 152.683C60.5273 150.762 60.8398 149.131 61.4592 147.791C62.0842 146.45 62.9705 145.43 64.1183 144.731C65.2717 144.032 66.641 143.683 68.2262 143.683C69.8114 143.683 71.1808 144.035 72.3342 144.739C73.4876 145.438 74.3768 146.458 75.0018 147.799C75.6268 149.14 75.9364 150.768 75.9308 152.683C75.9308 154.609 75.6183 156.256 74.9933 157.626C74.3683 158.995 73.479 160.043 72.3256 160.771C71.1779 161.492 69.8114 161.853 68.2262 161.853ZM68.2262 158.001C69.0444 158.001 69.7148 157.575 70.2376 156.722C70.766 155.864 71.0273 154.518 71.0217 152.683C71.0217 151.484 70.9023 150.504 70.6637 149.742C70.4251 148.981 70.0955 148.418 69.6751 148.055C69.2546 147.685 68.7717 147.501 68.2262 147.501C67.408 147.501 66.7404 147.916 66.2234 148.745C65.7063 149.575 65.4421 150.887 65.4308 152.683C65.4251 153.904 65.5415 154.91 65.7802 155.7C66.0188 156.484 66.3484 157.063 66.7688 157.438C67.195 157.813 67.6808 158.001 68.2262 158.001ZM82.1864 143.921H87.4705L90.8796 151.012H91.016L94.4251 143.921H99.7092L93.3001 155.887V161.376H88.5955V155.887L82.1864 143.921ZM104.267 161.614C102.869 161.614 101.664 161.347 100.653 160.813C99.6474 160.274 98.8718 159.501 98.3263 158.495C97.7866 157.484 97.5167 156.274 97.5167 154.864C97.5167 153.512 97.7894 152.33 98.3349 151.319C98.8803 150.308 99.6502 149.521 100.645 148.958C101.639 148.396 102.812 148.114 104.164 148.114C105.153 148.114 106.048 148.268 106.849 148.575C107.65 148.881 108.335 149.327 108.903 149.913C109.471 150.492 109.909 151.197 110.216 152.026C110.522 152.856 110.676 153.791 110.676 154.83V155.921H98.9826V153.33H106.346C106.341 152.955 106.244 152.626 106.056 152.342C105.875 152.052 105.627 151.827 105.315 151.668C105.008 151.504 104.659 151.421 104.267 151.421C103.886 151.421 103.537 151.504 103.218 151.668C102.9 151.827 102.645 152.049 102.451 152.333C102.264 152.617 102.164 152.95 102.153 153.33V156.126C102.153 156.546 102.241 156.921 102.417 157.251C102.593 157.58 102.846 157.839 103.176 158.026C103.505 158.214 103.903 158.308 104.369 158.308C104.693 158.308 104.988 158.262 105.255 158.171C105.528 158.08 105.761 157.95 105.954 157.779C106.147 157.603 106.289 157.393 106.38 157.149H110.676C110.528 158.058 110.179 158.847 109.627 159.518C109.076 160.183 108.346 160.7 107.437 161.069C106.534 161.433 105.477 161.614 104.267 161.614ZM116.243 161.58C115.408 161.58 114.669 161.444 114.027 161.171C113.391 160.893 112.891 160.472 112.527 159.91C112.164 159.347 111.982 158.631 111.982 157.762C111.982 157.046 112.104 156.435 112.348 155.93C112.593 155.418 112.934 155.001 113.371 154.677C113.809 154.353 114.317 154.106 114.897 153.935C115.482 153.765 116.113 153.654 116.789 153.603C117.522 153.546 118.11 153.478 118.553 153.399C119.002 153.313 119.326 153.197 119.525 153.049C119.723 152.896 119.823 152.694 119.823 152.444V152.41C119.823 152.069 119.692 151.808 119.431 151.626C119.169 151.444 118.834 151.353 118.425 151.353C117.976 151.353 117.61 151.452 117.326 151.651C117.047 151.845 116.88 152.143 116.823 152.546H112.493C112.55 151.751 112.803 151.018 113.252 150.347C113.706 149.671 114.368 149.131 115.238 148.728C116.107 148.319 117.192 148.114 118.493 148.114C119.431 148.114 120.272 148.225 121.016 148.447C121.76 148.663 122.394 148.967 122.917 149.359C123.439 149.745 123.837 150.2 124.11 150.722C124.388 151.239 124.527 151.802 124.527 152.41V161.376H120.13V159.535H120.027C119.766 160.024 119.448 160.418 119.073 160.72C118.703 161.021 118.28 161.239 117.803 161.376C117.331 161.512 116.811 161.58 116.243 161.58ZM117.777 158.614C118.135 158.614 118.471 158.541 118.783 158.393C119.101 158.245 119.36 158.032 119.559 157.754C119.757 157.475 119.857 157.137 119.857 156.739V155.649C119.732 155.7 119.598 155.748 119.456 155.793C119.32 155.839 119.172 155.881 119.013 155.921C118.86 155.961 118.695 155.998 118.519 156.032C118.348 156.066 118.169 156.097 117.982 156.126C117.618 156.183 117.32 156.276 117.087 156.407C116.86 156.532 116.689 156.688 116.576 156.876C116.468 157.058 116.414 157.262 116.414 157.489C116.414 157.853 116.542 158.131 116.797 158.325C117.053 158.518 117.38 158.614 117.777 158.614ZM126.775 161.376V148.285H131.343V150.774H131.48C131.718 149.853 132.096 149.18 132.613 148.754C133.136 148.327 133.747 148.114 134.446 148.114C134.65 148.114 134.852 148.131 135.051 148.166C135.255 148.194 135.451 148.237 135.639 148.293V152.308C135.406 152.228 135.119 152.168 134.778 152.129C134.437 152.089 134.145 152.069 133.9 152.069C133.44 152.069 133.025 152.174 132.656 152.384C132.292 152.589 132.005 152.879 131.795 153.254C131.585 153.623 131.48 154.058 131.48 154.558V161.376H126.775ZM158.19 150.467H153.383C153.349 150.069 153.258 149.708 153.11 149.384C152.968 149.06 152.77 148.782 152.514 148.549C152.264 148.31 151.96 148.129 151.602 148.004C151.244 147.873 150.838 147.808 150.383 147.808C149.588 147.808 148.914 148.001 148.363 148.387C147.818 148.774 147.403 149.327 147.119 150.049C146.841 150.771 146.701 151.637 146.701 152.649C146.701 153.717 146.843 154.612 147.127 155.333C147.417 156.049 147.835 156.589 148.38 156.952C148.926 157.31 149.582 157.489 150.349 157.489C150.787 157.489 151.179 157.435 151.525 157.327C151.872 157.214 152.173 157.052 152.429 156.842C152.684 156.631 152.892 156.379 153.051 156.083C153.216 155.782 153.326 155.444 153.383 155.069L158.19 155.103C158.133 155.842 157.926 156.595 157.568 157.362C157.21 158.123 156.701 158.827 156.042 159.475C155.389 160.117 154.579 160.634 153.613 161.026C152.647 161.418 151.525 161.614 150.247 161.614C148.645 161.614 147.207 161.271 145.934 160.583C144.667 159.896 143.664 158.884 142.926 157.549C142.193 156.214 141.826 154.58 141.826 152.649C141.826 150.705 142.201 149.069 142.951 147.739C143.701 146.404 144.713 145.396 145.985 144.714C147.258 144.026 148.679 143.683 150.247 143.683C151.349 143.683 152.363 143.833 153.289 144.134C154.216 144.435 155.028 144.876 155.727 145.455C156.426 146.029 156.988 146.737 157.414 147.577C157.841 148.418 158.099 149.381 158.19 150.467ZM166.715 161.614C165.294 161.614 164.078 161.333 163.067 160.771C162.056 160.202 161.28 159.413 160.74 158.401C160.201 157.384 159.931 156.205 159.931 154.864C159.931 153.524 160.201 152.347 160.74 151.336C161.28 150.319 162.056 149.529 163.067 148.967C164.078 148.399 165.294 148.114 166.715 148.114C168.135 148.114 169.351 148.399 170.363 148.967C171.374 149.529 172.15 150.319 172.689 151.336C173.229 152.347 173.499 153.524 173.499 154.864C173.499 156.205 173.229 157.384 172.689 158.401C172.15 159.413 171.374 160.202 170.363 160.771C169.351 161.333 168.135 161.614 166.715 161.614ZM166.749 158.137C167.147 158.137 167.49 158.004 167.78 157.737C168.07 157.47 168.294 157.089 168.453 156.595C168.613 156.1 168.692 155.512 168.692 154.83C168.692 154.143 168.613 153.555 168.453 153.066C168.294 152.572 168.07 152.191 167.78 151.924C167.49 151.657 167.147 151.524 166.749 151.524C166.328 151.524 165.968 151.657 165.667 151.924C165.365 152.191 165.135 152.572 164.976 153.066C164.817 153.555 164.738 154.143 164.738 154.83C164.738 155.512 164.817 156.1 164.976 156.595C165.135 157.089 165.365 157.47 165.667 157.737C165.968 158.004 166.328 158.137 166.749 158.137ZM187.374 152.546H183.044C183.022 152.279 182.928 152.049 182.763 151.856C182.598 151.663 182.385 151.515 182.124 151.413C181.868 151.305 181.584 151.251 181.272 151.251C180.868 151.251 180.522 151.325 180.232 151.472C179.942 151.62 179.8 151.83 179.806 152.103C179.8 152.296 179.882 152.475 180.053 152.64C180.229 152.805 180.567 152.933 181.067 153.024L183.726 153.501C185.067 153.745 186.064 154.157 186.718 154.737C187.377 155.31 187.709 156.08 187.715 157.046C187.709 157.978 187.431 158.788 186.88 159.475C186.334 160.157 185.587 160.685 184.638 161.06C183.695 161.43 182.618 161.614 181.408 161.614C179.408 161.614 177.843 161.205 176.712 160.387C175.587 159.569 174.959 158.489 174.828 157.149H179.499C179.561 157.563 179.766 157.884 180.113 158.112C180.465 158.333 180.908 158.444 181.442 158.444C181.874 158.444 182.229 158.37 182.507 158.222C182.792 158.075 182.936 157.864 182.942 157.592C182.936 157.342 182.811 157.143 182.567 156.995C182.328 156.847 181.953 156.728 181.442 156.637L179.124 156.228C177.789 155.995 176.789 155.552 176.124 154.899C175.459 154.245 175.13 153.404 175.135 152.376C175.13 151.467 175.368 150.697 175.851 150.066C176.34 149.43 177.036 148.947 177.939 148.617C178.848 148.282 179.925 148.114 181.169 148.114C183.061 148.114 184.553 148.506 185.644 149.291C186.74 150.075 187.317 151.16 187.374 152.546ZM197.324 148.285V151.694H188.699V148.285H197.324ZM190.37 145.149H195.074V157.166C195.074 157.347 195.105 157.501 195.168 157.626C195.23 157.745 195.327 157.836 195.458 157.899C195.588 157.955 195.756 157.984 195.961 157.984C196.103 157.984 196.267 157.967 196.455 157.933C196.648 157.899 196.79 157.87 196.881 157.847L197.563 161.154C197.353 161.217 197.051 161.293 196.659 161.384C196.273 161.475 195.813 161.535 195.279 161.563C194.199 161.62 193.293 161.509 192.56 161.231C191.827 160.947 191.276 160.501 190.907 159.893C190.537 159.285 190.358 158.524 190.37 157.609V145.149Z" fill="white"/>
<path d="M103.169 24.7783V20.9663H91.4784C91.198 19.3385 90.5651 17.8328 89.6622 16.5319L98.0402 8.04724L95.3785 5.35165L87.0024 13.8339C85.6765 12.8871 84.1346 12.2305 82.4667 11.9589V0H78.7026V12.0113C77.1466 12.3082 75.7068 12.9405 74.4581 13.8316L66.0923 5.35975L63.4311 8.05534L71.7973 16.5276C70.8925 17.8299 70.2592 19.3371 69.9778 20.9663H58V24.7783H69.9778C70.2592 26.4113 70.8953 27.9219 71.8034 29.2261L63.4391 37.6974L66.1008 40.393L74.4675 31.9197C75.7139 32.807 77.1503 33.4369 78.7026 33.7333V45.7446H82.4667V33.7857C84.1309 33.5146 85.669 32.8608 86.993 31.9174L95.37 40.4016L98.0317 37.7064L89.6556 29.2222C90.5623 27.919 91.197 26.4099 91.4784 24.7783H103.169ZM80.7281 15.6294C84.6715 15.6294 87.8799 18.8787 87.8799 22.8723C87.8799 26.8659 84.672 30.1152 80.7281 30.1152C76.7843 30.1152 73.5763 26.8659 73.5763 22.8723C73.5763 18.8787 76.7848 15.6294 80.7281 15.6294ZM170.923 83.8652V53.3687H161.513V74.335L144.574 57.1808H91.8769L58 91.4893H118.226L144.574 64.8049L170.923 91.4893H178.451L170.923 83.8652ZM90.7143 71.9525H98.7041L93.9989 76.7176H86.0092L90.7143 71.9525ZM101.366 71.9525H109.356L104.651 76.7176H96.6602L101.366 71.9525ZM112.017 71.9525H120.007L115.302 76.7176H107.312L112.017 71.9525ZM121.89 70.0465H113.899L119.075 64.8049H127.065L121.89 70.0465ZM111.238 70.0465H103.248L108.423 64.8049H116.413L111.238 70.0465ZM100.586 70.0465H92.5963L97.772 64.8049H105.762L100.586 70.0465ZM84.1271 78.6236H92.1169L86.9412 83.8652H78.9515L84.1271 78.6236ZM94.7781 78.6236H102.768L97.5927 83.8652H89.6025L94.7781 78.6236ZM105.43 78.6236H113.42L108.244 83.8652H100.254L105.43 78.6236Z" fill="white"/>
</svg>
