<svg width="1038" height="569" viewBox="0 0 1038 569" fill="none" xmlns="http://www.w3.org/2000/svg">
<path d="M7.81641 567.597H1026.23" stroke="#CCCCCC" stroke-width="1.75752"/>
<path d="M7.81641 497.296H1026.23" stroke="#CCCCCC" stroke-width="1.75752"/>
<path d="M7.81641 426.995H1026.23" stroke="#CCCCCC" stroke-width="1.75752"/>
<path d="M7.81641 356.695H1026.23" stroke="#CCCCCC" stroke-width="1.75752"/>
<path d="M7.81641 286.394H1026.23" stroke="#CCCCCC" stroke-width="1.75752"/>
<path d="M7.81641 286.394V567.597" stroke="#CCCCCC" stroke-width="1.75752"/>
<path d="M58.7373 286.394V567.597" stroke="#CCCCCC" stroke-width="1.75752"/>
<path d="M109.656 286.394V567.597" stroke="#CCCCCC" stroke-width="1.75752"/>
<path d="M160.578 286.394V567.597" stroke="#CCCCCC" stroke-width="1.75752"/>
<path d="M211.497 286.394V567.597" stroke="#CCCCCC" stroke-width="1.75752"/>
<path d="M262.419 286.394V567.597" stroke="#CCCCCC" stroke-width="1.75752"/>
<path d="M313.342 286.394V567.597" stroke="#CCCCCC" stroke-width="1.75752"/>
<path d="M364.26 286.394V567.597" stroke="#CCCCCC" stroke-width="1.75752"/>
<path d="M415.181 286.394V567.597" stroke="#CCCCCC" stroke-width="1.75752"/>
<path d="M466.101 286.394V567.597" stroke="#CCCCCC" stroke-width="1.75752"/>
<path d="M517.021 286.394V567.597" stroke="#CCCCCC" stroke-width="1.75752"/>
<path d="M567.942 286.394V567.597" stroke="#CCCCCC" stroke-width="1.75752"/>
<path d="M618.862 286.394V567.597" stroke="#CCCCCC" stroke-width="1.75752"/>
<path d="M669.783 286.394V567.597" stroke="#CCCCCC" stroke-width="1.75752"/>
<path d="M720.703 286.394V567.597" stroke="#CCCCCC" stroke-width="1.75752"/>
<path d="M771.624 286.394V567.597" stroke="#CCCCCC" stroke-width="1.75752"/>
<path d="M822.546 286.394V567.597" stroke="#CCCCCC" stroke-width="1.75752"/>
<path d="M873.465 286.394V567.597" stroke="#CCCCCC" stroke-width="1.75752"/>
<path d="M924.388 286.394V567.597" stroke="#CCCCCC" stroke-width="1.75752"/>
<path d="M975.307 286.394V567.597" stroke="#CCCCCC" stroke-width="1.75752"/>
<path d="M1026.23 286.394V567.597" stroke="#CCCCCC" stroke-width="1.75752"/>
<path d="M7.80273 286.477H1026.21" stroke="#CCCCCC" stroke-width="1.75752"/>
<path d="M7.80273 216.176H1026.21" stroke="#CCCCCC" stroke-width="1.75752"/>
<path d="M7.80273 145.876H1026.21" stroke="#CCCCCC" stroke-width="1.75752"/>
<path d="M7.80273 75.5752H1026.21" stroke="#CCCCCC" stroke-width="1.75752"/>
<path d="M7.80273 5.27441H1026.21" stroke="#CCCCCC" stroke-width="1.75752"/>
<path d="M7.80273 5.27441V286.477" stroke="#CCCCCC" stroke-width="1.75752"/>
<path d="M58.7236 5.27441V286.477" stroke="#CCCCCC" stroke-width="1.75752"/>
<path d="M109.644 5.27441V286.477" stroke="#CCCCCC" stroke-width="1.75752"/>
<path d="M160.563 5.27441V286.477" stroke="#CCCCCC" stroke-width="1.75752"/>
<path d="M211.485 5.27441V286.477" stroke="#CCCCCC" stroke-width="1.75752"/>
<path d="M262.405 5.27441V286.477" stroke="#CCCCCC" stroke-width="1.75752"/>
<path d="M313.327 5.27441V286.477" stroke="#CCCCCC" stroke-width="1.75752"/>
<path d="M364.246 5.27441V286.477" stroke="#CCCCCC" stroke-width="1.75752"/>
<path d="M415.168 5.27441V286.477" stroke="#CCCCCC" stroke-width="1.75752"/>
<path d="M466.087 5.27441V286.477" stroke="#CCCCCC" stroke-width="1.75752"/>
<path d="M517.008 5.27441V286.477" stroke="#CCCCCC" stroke-width="1.75752"/>
<path d="M567.929 5.27441V286.477" stroke="#CCCCCC" stroke-width="1.75752"/>
<path d="M618.849 5.27441V286.477" stroke="#CCCCCC" stroke-width="1.75752"/>
<path d="M669.77 5.27441V286.477" stroke="#CCCCCC" stroke-width="1.75752"/>
<path d="M720.69 5.27441V286.477" stroke="#CCCCCC" stroke-width="1.75752"/>
<path d="M771.61 5.27441V286.477" stroke="#CCCCCC" stroke-width="1.75752"/>
<path d="M822.532 5.27441V286.477" stroke="#CCCCCC" stroke-width="1.75752"/>
<path d="M873.451 5.27441V286.477" stroke="#CCCCCC" stroke-width="1.75752"/>
<path d="M924.373 5.27441V286.477" stroke="#CCCCCC" stroke-width="1.75752"/>
<path d="M975.292 5.27441V286.477" stroke="#CCCCCC" stroke-width="1.75752"/>
<path d="M1026.21 5.27441V286.477" stroke="#CCCCCC" stroke-width="1.75752"/>
<path d="M4.24339 495.275L1024.86 3.00021" stroke="#8205E9" stroke-width="5"/>
<path d="M7.75293 557.411L1025.57 143.774" stroke="#FF0000" stroke-width="5"/>
<line x1="7.38965" y1="554.659" x2="1025.87" y2="554.659" stroke="#0038FF" stroke-width="5"/>
<path d="M665.5 537.182V515.364H666.898V537.182H665.5ZM668.534 523C668.489 522.432 668.276 521.989 667.895 521.67C667.52 521.352 666.949 521.193 666.182 521.193C665.693 521.193 665.293 521.253 664.98 521.372C664.673 521.486 664.446 521.642 664.298 521.841C664.151 522.04 664.074 522.267 664.068 522.523C664.057 522.733 664.094 522.923 664.179 523.094C664.27 523.259 664.412 523.409 664.605 523.545C664.798 523.676 665.045 523.795 665.347 523.903C665.648 524.011 666.006 524.108 666.42 524.193L667.852 524.5C668.818 524.705 669.645 524.974 670.332 525.31C671.02 525.645 671.582 526.04 672.02 526.494C672.457 526.943 672.778 527.449 672.983 528.011C673.193 528.574 673.301 529.187 673.307 529.852C673.301 531 673.014 531.972 672.446 532.767C671.878 533.562 671.065 534.168 670.009 534.582C668.957 534.997 667.693 535.205 666.216 535.205C664.699 535.205 663.375 534.98 662.244 534.531C661.119 534.082 660.244 533.392 659.619 532.46C659 531.523 658.688 530.324 658.682 528.864H663.182C663.21 529.398 663.344 529.847 663.582 530.21C663.821 530.574 664.156 530.849 664.588 531.037C665.026 531.224 665.545 531.318 666.148 531.318C666.653 531.318 667.077 531.256 667.418 531.131C667.759 531.006 668.017 530.832 668.193 530.611C668.369 530.389 668.46 530.136 668.466 529.852C668.46 529.585 668.372 529.352 668.202 529.153C668.037 528.949 667.764 528.767 667.384 528.608C667.003 528.443 666.489 528.29 665.841 528.148L664.102 527.773C662.557 527.437 661.338 526.878 660.446 526.094C659.56 525.304 659.119 524.227 659.125 522.864C659.119 521.756 659.415 520.787 660.011 519.957C660.614 519.122 661.446 518.472 662.509 518.006C663.577 517.54 664.801 517.307 666.182 517.307C667.591 517.307 668.81 517.543 669.838 518.014C670.866 518.486 671.659 519.151 672.216 520.009C672.778 520.861 673.063 521.858 673.068 523H668.534ZM682.746 535.477C681.161 535.472 679.791 535.105 678.638 534.378C677.484 533.651 676.595 532.602 675.97 531.233C675.345 529.864 675.036 528.222 675.041 526.307C675.047 524.386 675.359 522.756 675.979 521.415C676.604 520.074 677.49 519.054 678.638 518.355C679.791 517.656 681.161 517.307 682.746 517.307C684.331 517.307 685.7 517.659 686.854 518.364C688.007 519.062 688.896 520.082 689.521 521.423C690.146 522.764 690.456 524.392 690.45 526.307C690.45 528.233 690.138 529.881 689.513 531.25C688.888 532.619 687.999 533.668 686.845 534.395C685.697 535.116 684.331 535.477 682.746 535.477ZM682.746 531.625C683.564 531.625 684.234 531.199 684.757 530.347C685.286 529.489 685.547 528.142 685.541 526.307C685.541 525.108 685.422 524.128 685.183 523.366C684.945 522.605 684.615 522.043 684.195 521.679C683.774 521.31 683.291 521.125 682.746 521.125C681.928 521.125 681.26 521.54 680.743 522.369C680.226 523.199 679.962 524.511 679.95 526.307C679.945 527.528 680.061 528.534 680.3 529.324C680.538 530.108 680.868 530.688 681.288 531.062C681.714 531.438 682.2 531.625 682.746 531.625ZM694.492 535.273C693.833 535.273 693.268 535.043 692.796 534.582C692.33 534.116 692.1 533.551 692.106 532.886C692.1 532.239 692.33 531.685 692.796 531.224C693.268 530.764 693.833 530.534 694.492 530.534C695.117 530.534 695.668 530.764 696.146 531.224C696.629 531.685 696.873 532.239 696.879 532.886C696.873 533.33 696.756 533.733 696.529 534.097C696.308 534.455 696.018 534.741 695.66 534.957C695.302 535.168 694.913 535.273 694.492 535.273ZM706.23 535.477C704.645 535.472 703.276 535.105 702.122 534.378C700.969 533.651 700.08 532.602 699.455 531.233C698.83 529.864 698.52 528.222 698.526 526.307C698.531 524.386 698.844 522.756 699.463 521.415C700.088 520.074 700.974 519.054 702.122 518.355C703.276 517.656 704.645 517.307 706.23 517.307C707.815 517.307 709.185 517.659 710.338 518.364C711.491 519.062 712.381 520.082 713.006 521.423C713.631 522.764 713.94 524.392 713.935 526.307C713.935 528.233 713.622 529.881 712.997 531.25C712.372 532.619 711.483 533.668 710.33 534.395C709.182 535.116 707.815 535.477 706.23 535.477ZM706.23 531.625C707.048 531.625 707.719 531.199 708.241 530.347C708.77 529.489 709.031 528.142 709.026 526.307C709.026 525.108 708.906 524.128 708.668 523.366C708.429 522.605 708.099 522.043 707.679 521.679C707.259 521.31 706.776 521.125 706.23 521.125C705.412 521.125 704.744 521.54 704.227 522.369C703.71 523.199 703.446 524.511 703.435 526.307C703.429 527.528 703.545 528.534 703.784 529.324C704.023 530.108 704.352 530.688 704.773 531.062C705.199 531.438 705.685 531.625 706.23 531.625ZM723.761 535.477C722.176 535.472 720.807 535.105 719.653 534.378C718.5 533.651 717.611 532.602 716.986 531.233C716.361 529.864 716.051 528.222 716.057 526.307C716.063 524.386 716.375 522.756 716.994 521.415C717.619 520.074 718.506 519.054 719.653 518.355C720.807 517.656 722.176 517.307 723.761 517.307C725.347 517.307 726.716 517.659 727.869 518.364C729.023 519.062 729.912 520.082 730.537 521.423C731.162 522.764 731.472 524.392 731.466 526.307C731.466 528.233 731.153 529.881 730.528 531.25C729.903 532.619 729.014 533.668 727.861 534.395C726.713 535.116 725.347 535.477 723.761 535.477ZM723.761 531.625C724.58 531.625 725.25 531.199 725.773 530.347C726.301 529.489 726.563 528.142 726.557 526.307C726.557 525.108 726.438 524.128 726.199 523.366C725.96 522.605 725.631 522.043 725.21 521.679C724.79 521.31 724.307 521.125 723.761 521.125C722.943 521.125 722.276 521.54 721.759 522.369C721.241 523.199 720.977 524.511 720.966 526.307C720.96 527.528 721.077 528.534 721.315 529.324C721.554 530.108 721.884 530.688 722.304 531.062C722.73 531.438 723.216 531.625 723.761 531.625ZM748.767 517.545H753.506V528.727C753.506 530.057 753.188 531.207 752.551 532.179C751.92 533.145 751.04 533.892 749.909 534.42C748.778 534.943 747.466 535.205 745.972 535.205C744.466 535.205 743.148 534.943 742.017 534.42C740.886 533.892 740.006 533.145 739.375 532.179C738.75 531.207 738.438 530.057 738.438 528.727V517.545H743.176V528.318C743.176 528.858 743.295 529.341 743.534 529.767C743.773 530.187 744.102 530.517 744.523 530.756C744.949 530.994 745.432 531.114 745.972 531.114C746.517 531.114 747 530.994 747.42 530.756C747.841 530.517 748.17 530.187 748.409 529.767C748.648 529.341 748.767 528.858 748.767 528.318V517.545ZM763.633 521.909V525.318H755.008V521.909H763.633ZM756.678 518.773H761.383V530.79C761.383 530.972 761.414 531.125 761.477 531.25C761.539 531.369 761.636 531.46 761.766 531.523C761.897 531.58 762.065 531.608 762.269 531.608C762.411 531.608 762.576 531.591 762.763 531.557C762.957 531.523 763.099 531.494 763.19 531.472L763.871 534.778C763.661 534.841 763.36 534.918 762.968 535.009C762.582 535.099 762.121 535.159 761.587 535.188C760.508 535.244 759.602 535.134 758.869 534.855C758.136 534.571 757.585 534.125 757.215 533.517C756.846 532.909 756.667 532.148 756.678 531.233V518.773ZM765.553 535V521.909H770.257V535H765.553ZM767.905 520.545C767.268 520.545 766.723 520.335 766.268 519.915C765.814 519.494 765.587 518.989 765.587 518.398C765.587 517.807 765.814 517.301 766.268 516.881C766.723 516.46 767.268 516.25 767.905 516.25C768.547 516.25 769.092 516.46 769.541 516.881C769.996 517.301 770.223 517.807 770.223 518.398C770.223 518.989 769.996 519.494 769.541 519.915C769.092 520.335 768.547 520.545 767.905 520.545ZM777.359 517.545V535H772.654V517.545H777.359ZM779.756 535V521.909H784.46V535H779.756ZM782.108 520.545C781.472 520.545 780.926 520.335 780.472 519.915C780.017 519.494 779.79 518.989 779.79 518.398C779.79 517.807 780.017 517.301 780.472 516.881C780.926 516.46 781.472 516.25 782.108 516.25C782.75 516.25 783.295 516.46 783.744 516.881C784.199 517.301 784.426 517.807 784.426 518.398C784.426 518.989 784.199 519.494 783.744 519.915C783.295 520.335 782.75 520.545 782.108 520.545ZM794.664 521.909V525.318H786.039V521.909H794.664ZM787.71 518.773H792.414V530.79C792.414 530.972 792.445 531.125 792.508 531.25C792.57 531.369 792.667 531.46 792.798 531.523C792.928 531.58 793.096 531.608 793.3 531.608C793.442 531.608 793.607 531.591 793.795 531.557C793.988 531.523 794.13 531.494 794.221 531.472L794.903 534.778C794.692 534.841 794.391 534.918 793.999 535.009C793.613 535.099 793.153 535.159 792.619 535.188C791.539 535.244 790.633 535.134 789.9 534.855C789.167 534.571 788.616 534.125 788.246 533.517C787.877 532.909 787.698 532.148 787.71 531.233V518.773ZM799.447 539.909C798.908 539.909 798.393 539.866 797.905 539.781C797.416 539.702 796.987 539.591 796.618 539.449L797.641 536.108C798.027 536.244 798.379 536.332 798.697 536.372C799.021 536.412 799.297 536.389 799.524 536.304C799.757 536.219 799.925 536.057 800.027 535.818L800.129 535.58L795.527 521.909H800.436L802.55 530.977H802.686L804.834 521.909H809.777L805.004 536.091C804.766 536.812 804.419 537.46 803.964 538.034C803.516 538.614 802.925 539.071 802.192 539.406C801.459 539.741 800.544 539.909 799.447 539.909ZM832.124 524.091H827.317C827.283 523.693 827.192 523.332 827.044 523.009C826.902 522.685 826.703 522.406 826.447 522.173C826.197 521.935 825.893 521.753 825.536 521.628C825.178 521.497 824.771 521.432 824.317 521.432C823.521 521.432 822.848 521.625 822.297 522.011C821.751 522.398 821.337 522.952 821.053 523.673C820.774 524.395 820.635 525.261 820.635 526.273C820.635 527.341 820.777 528.236 821.061 528.957C821.351 529.673 821.768 530.213 822.314 530.577C822.859 530.935 823.516 531.114 824.283 531.114C824.72 531.114 825.112 531.06 825.459 530.952C825.805 530.838 826.107 530.676 826.362 530.466C826.618 530.256 826.825 530.003 826.984 529.707C827.149 529.406 827.26 529.068 827.317 528.693L832.124 528.727C832.067 529.466 831.859 530.219 831.501 530.986C831.143 531.747 830.635 532.452 829.976 533.099C829.322 533.741 828.513 534.259 827.547 534.651C826.581 535.043 825.459 535.239 824.18 535.239C822.578 535.239 821.141 534.895 819.868 534.207C818.601 533.52 817.598 532.509 816.859 531.173C816.126 529.838 815.76 528.205 815.76 526.273C815.76 524.33 816.135 522.693 816.885 521.364C817.635 520.028 818.646 519.02 819.919 518.338C821.192 517.651 822.612 517.307 824.18 517.307C825.283 517.307 826.297 517.457 827.223 517.759C828.149 518.06 828.962 518.5 829.661 519.08C830.359 519.653 830.922 520.361 831.348 521.202C831.774 522.043 832.033 523.006 832.124 524.091ZM840.648 535.239C839.228 535.239 838.012 534.957 837.001 534.395C835.989 533.827 835.214 533.037 834.674 532.026C834.134 531.009 833.864 529.83 833.864 528.489C833.864 527.148 834.134 525.972 834.674 524.96C835.214 523.943 835.989 523.153 837.001 522.591C838.012 522.023 839.228 521.739 840.648 521.739C842.069 521.739 843.285 522.023 844.296 522.591C845.308 523.153 846.083 523.943 846.623 524.96C847.163 525.972 847.433 527.148 847.433 528.489C847.433 529.83 847.163 531.009 846.623 532.026C846.083 533.037 845.308 533.827 844.296 534.395C843.285 534.957 842.069 535.239 840.648 535.239ZM840.683 531.761C841.08 531.761 841.424 531.628 841.714 531.361C842.004 531.094 842.228 530.713 842.387 530.219C842.546 529.724 842.626 529.136 842.626 528.455C842.626 527.767 842.546 527.179 842.387 526.69C842.228 526.196 842.004 525.815 841.714 525.548C841.424 525.281 841.08 525.148 840.683 525.148C840.262 525.148 839.901 525.281 839.6 525.548C839.299 525.815 839.069 526.196 838.91 526.69C838.751 527.179 838.671 527.767 838.671 528.455C838.671 529.136 838.751 529.724 838.91 530.219C839.069 530.713 839.299 531.094 839.6 531.361C839.901 531.628 840.262 531.761 840.683 531.761ZM861.308 526.17H856.978C856.955 525.903 856.862 525.673 856.697 525.48C856.532 525.287 856.319 525.139 856.058 525.037C855.802 524.929 855.518 524.875 855.205 524.875C854.802 524.875 854.455 524.949 854.165 525.097C853.876 525.244 853.734 525.455 853.739 525.727C853.734 525.92 853.816 526.099 853.987 526.264C854.163 526.429 854.501 526.557 855.001 526.648L857.66 527.125C859.001 527.369 859.998 527.781 860.651 528.361C861.31 528.935 861.643 529.705 861.648 530.67C861.643 531.602 861.364 532.412 860.813 533.099C860.268 533.781 859.521 534.31 858.572 534.685C857.629 535.054 856.552 535.239 855.342 535.239C853.342 535.239 851.776 534.83 850.646 534.011C849.521 533.193 848.893 532.114 848.762 530.773H853.433C853.495 531.187 853.7 531.509 854.046 531.736C854.398 531.957 854.842 532.068 855.376 532.068C855.808 532.068 856.163 531.994 856.441 531.847C856.725 531.699 856.87 531.489 856.876 531.216C856.87 530.966 856.745 530.767 856.501 530.619C856.262 530.472 855.887 530.352 855.376 530.261L853.058 529.852C851.722 529.619 850.722 529.176 850.058 528.523C849.393 527.869 849.063 527.028 849.069 526C849.063 525.091 849.302 524.321 849.785 523.69C850.273 523.054 850.969 522.571 851.873 522.241C852.782 521.906 853.859 521.739 855.103 521.739C856.995 521.739 858.487 522.131 859.577 522.915C860.674 523.699 861.251 524.784 861.308 526.17ZM871.258 521.909V525.318H862.633V521.909H871.258ZM864.303 518.773H869.008V530.79C869.008 530.972 869.039 531.125 869.102 531.25C869.164 531.369 869.261 531.46 869.391 531.523C869.522 531.58 869.69 531.608 869.894 531.608C870.036 531.608 870.201 531.591 870.388 531.557C870.582 531.523 870.724 531.494 870.815 531.472L871.496 534.778C871.286 534.841 870.985 534.918 870.593 535.009C870.207 535.099 869.746 535.159 869.212 535.188C868.133 535.244 867.227 535.134 866.494 534.855C865.761 534.571 865.21 534.125 864.84 533.517C864.471 532.909 864.292 532.148 864.303 531.233V518.773ZM882.322 535L877.175 517.545H882.459L884.845 528.284H884.982L887.811 517.545H891.97L894.8 528.318H894.936L897.322 517.545H902.607L897.459 535H892.925L889.959 525.25H889.822L886.857 535H882.322ZM904.209 535V521.909H908.913V535H904.209ZM906.561 520.545C905.925 520.545 905.379 520.335 904.925 519.915C904.47 519.494 904.243 518.989 904.243 518.398C904.243 517.807 904.47 517.301 904.925 516.881C905.379 516.46 905.925 516.25 906.561 516.25C907.203 516.25 907.749 516.46 908.197 516.881C908.652 517.301 908.879 517.807 908.879 518.398C908.879 518.989 908.652 519.494 908.197 519.915C907.749 520.335 907.203 520.545 906.561 520.545ZM919.117 521.909V525.318H910.492V521.909H919.117ZM912.163 518.773H916.867V530.79C916.867 530.972 916.898 531.125 916.961 531.25C917.023 531.369 917.12 531.46 917.251 531.523C917.381 531.58 917.549 531.608 917.754 531.608C917.896 531.608 918.06 531.591 918.248 531.557C918.441 531.523 918.583 531.494 918.674 531.472L919.356 534.778C919.146 534.841 918.844 534.918 918.452 535.009C918.066 535.099 917.606 535.159 917.072 535.188C915.992 535.244 915.086 535.134 914.353 534.855C913.62 534.571 913.069 534.125 912.7 533.517C912.33 532.909 912.151 532.148 912.163 531.233V518.773ZM926.023 527.636V535H921.318V517.545H925.852V524.398H925.989C926.284 523.562 926.776 522.912 927.463 522.446C928.151 521.974 928.977 521.739 929.943 521.739C930.869 521.739 931.673 521.949 932.355 522.369C933.043 522.79 933.574 523.369 933.949 524.108C934.33 524.847 934.517 525.693 934.511 526.648V535H929.807V527.636C929.813 526.989 929.651 526.48 929.321 526.111C928.997 525.741 928.534 525.557 927.932 525.557C927.551 525.557 927.216 525.642 926.926 525.812C926.642 525.977 926.42 526.216 926.261 526.528C926.108 526.835 926.028 527.205 926.023 527.636ZM957.842 524.091H953.036C953.001 523.693 952.911 523.332 952.763 523.009C952.621 522.685 952.422 522.406 952.166 522.173C951.916 521.935 951.612 521.753 951.254 521.628C950.896 521.497 950.49 521.432 950.036 521.432C949.24 521.432 948.567 521.625 948.016 522.011C947.47 522.398 947.055 522.952 946.771 523.673C946.493 524.395 946.354 525.261 946.354 526.273C946.354 527.341 946.496 528.236 946.78 528.957C947.07 529.673 947.487 530.213 948.033 530.577C948.578 530.935 949.234 531.114 950.001 531.114C950.439 531.114 950.831 531.06 951.178 530.952C951.524 530.838 951.825 530.676 952.081 530.466C952.337 530.256 952.544 530.003 952.703 529.707C952.868 529.406 952.979 529.068 953.036 528.693L957.842 528.727C957.786 529.466 957.578 530.219 957.22 530.986C956.862 531.747 956.354 532.452 955.695 533.099C955.041 533.741 954.232 534.259 953.266 534.651C952.3 535.043 951.178 535.239 949.899 535.239C948.297 535.239 946.859 534.895 945.587 534.207C944.32 533.52 943.317 532.509 942.578 531.173C941.845 529.838 941.479 528.205 941.479 526.273C941.479 524.33 941.854 522.693 942.604 521.364C943.354 520.028 944.365 519.02 945.638 518.338C946.911 517.651 948.331 517.307 949.899 517.307C951.001 517.307 952.016 517.457 952.942 517.759C953.868 518.06 954.68 518.5 955.379 519.08C956.078 519.653 956.641 520.361 957.067 521.202C957.493 522.043 957.751 523.006 957.842 524.091ZM960.06 535V521.909H964.629V524.398H964.765C965.004 523.477 965.381 522.804 965.898 522.378C966.421 521.952 967.032 521.739 967.731 521.739C967.935 521.739 968.137 521.756 968.336 521.79C968.54 521.818 968.737 521.861 968.924 521.918V525.932C968.691 525.852 968.404 525.793 968.063 525.753C967.722 525.713 967.43 525.693 967.185 525.693C966.725 525.693 966.31 525.798 965.941 526.009C965.577 526.213 965.29 526.503 965.08 526.878C964.87 527.247 964.765 527.682 964.765 528.182V535H960.06ZM975.989 535.239C974.592 535.239 973.387 534.972 972.376 534.438C971.37 533.898 970.594 533.125 970.049 532.119C969.509 531.108 969.239 529.898 969.239 528.489C969.239 527.136 969.512 525.955 970.058 524.943C970.603 523.932 971.373 523.145 972.367 522.582C973.362 522.02 974.535 521.739 975.887 521.739C976.876 521.739 977.771 521.892 978.572 522.199C979.373 522.506 980.058 522.952 980.626 523.537C981.194 524.116 981.631 524.821 981.938 525.651C982.245 526.48 982.398 527.415 982.398 528.455V529.545H970.705V526.955H978.069C978.063 526.58 977.967 526.25 977.779 525.966C977.597 525.676 977.35 525.452 977.038 525.293C976.731 525.128 976.381 525.045 975.989 525.045C975.609 525.045 975.259 525.128 974.941 525.293C974.623 525.452 974.367 525.673 974.174 525.957C973.987 526.241 973.887 526.574 973.876 526.955V529.75C973.876 530.17 973.964 530.545 974.14 530.875C974.316 531.205 974.569 531.463 974.898 531.651C975.228 531.838 975.626 531.932 976.092 531.932C976.415 531.932 976.711 531.886 976.978 531.795C977.251 531.705 977.484 531.574 977.677 531.403C977.87 531.227 978.012 531.017 978.103 530.773H982.398C982.251 531.682 981.901 532.472 981.35 533.142C980.799 533.807 980.069 534.324 979.16 534.693C978.256 535.057 977.2 535.239 975.989 535.239ZM989.057 535.17C988.125 535.17 987.267 534.926 986.483 534.438C985.705 533.949 985.08 533.207 984.608 532.213C984.142 531.219 983.909 529.966 983.909 528.455C983.909 526.875 984.153 525.591 984.642 524.602C985.136 523.614 985.773 522.889 986.551 522.429C987.335 521.969 988.159 521.739 989.023 521.739C989.67 521.739 990.239 521.852 990.727 522.08C991.216 522.301 991.625 522.599 991.955 522.974C992.284 523.344 992.534 523.75 992.705 524.193H992.773V517.545H997.477V535H992.807V532.852H992.705C992.523 533.295 992.261 533.693 991.92 534.045C991.585 534.392 991.176 534.668 990.693 534.872C990.216 535.071 989.67 535.17 989.057 535.17ZM990.795 531.557C991.227 531.557 991.597 531.432 991.903 531.182C992.216 530.926 992.455 530.568 992.619 530.108C992.79 529.642 992.875 529.091 992.875 528.455C992.875 527.807 992.79 527.253 992.619 526.793C992.455 526.327 992.216 525.972 991.903 525.727C991.597 525.477 991.227 525.352 990.795 525.352C990.364 525.352 989.994 525.477 989.688 525.727C989.386 525.972 989.153 526.327 988.989 526.793C988.83 527.253 988.75 527.807 988.75 528.455C988.75 529.102 988.83 529.659 988.989 530.125C989.153 530.585 989.386 530.94 989.688 531.19C989.994 531.435 990.364 531.557 990.795 531.557ZM999.787 535V521.909H1004.49V535H999.787ZM1002.14 520.545C1001.5 520.545 1000.96 520.335 1000.5 519.915C1000.05 519.494 999.821 518.989 999.821 518.398C999.821 517.807 1000.05 517.301 1000.5 516.881C1000.96 516.46 1001.5 516.25 1002.14 516.25C1002.78 516.25 1003.33 516.46 1003.78 516.881C1004.23 517.301 1004.46 517.807 1004.46 518.398C1004.46 518.989 1004.23 519.494 1003.78 519.915C1003.33 520.335 1002.78 520.545 1002.14 520.545ZM1014.7 521.909V525.318H1006.07V521.909H1014.7ZM1007.74 518.773H1012.45V530.79C1012.45 530.972 1012.48 531.125 1012.54 531.25C1012.6 531.369 1012.7 531.46 1012.83 531.523C1012.96 531.58 1013.13 531.608 1013.33 531.608C1013.47 531.608 1013.64 531.591 1013.83 531.557C1014.02 531.523 1014.16 531.494 1014.25 531.472L1014.93 534.778C1014.72 534.841 1014.42 534.918 1014.03 535.009C1013.64 535.099 1013.18 535.159 1012.65 535.188C1011.57 535.244 1010.66 535.134 1009.93 534.855C1009.2 534.571 1008.65 534.125 1008.28 533.517C1007.91 532.909 1007.73 532.148 1007.74 531.233V518.773ZM1028.44 526.17H1024.11C1024.09 525.903 1023.99 525.673 1023.83 525.48C1023.66 525.287 1023.45 525.139 1023.19 525.037C1022.93 524.929 1022.65 524.875 1022.34 524.875C1021.93 524.875 1021.59 524.949 1021.3 525.097C1021.01 525.244 1020.87 525.455 1020.87 525.727C1020.87 525.92 1020.95 526.099 1021.12 526.264C1021.3 526.429 1021.63 526.557 1022.13 526.648L1024.79 527.125C1026.13 527.369 1027.13 527.781 1027.78 528.361C1028.44 528.935 1028.78 529.705 1028.78 530.67C1028.78 531.602 1028.5 532.412 1027.95 533.099C1027.4 533.781 1026.65 534.31 1025.7 534.685C1024.76 535.054 1023.68 535.239 1022.47 535.239C1020.47 535.239 1018.91 534.83 1017.78 534.011C1016.65 533.193 1016.03 532.114 1015.89 530.773H1020.57C1020.63 531.187 1020.83 531.509 1021.18 531.736C1021.53 531.957 1021.97 532.068 1022.51 532.068C1022.94 532.068 1023.3 531.994 1023.57 531.847C1023.86 531.699 1024 531.489 1024.01 531.216C1024 530.966 1023.88 530.767 1023.63 530.619C1023.39 530.472 1023.02 530.352 1022.51 530.261L1020.19 529.852C1018.86 529.619 1017.86 529.176 1017.19 528.523C1016.53 527.869 1016.2 527.028 1016.2 526C1016.2 525.091 1016.43 524.321 1016.92 523.69C1017.41 523.054 1018.1 522.571 1019.01 522.241C1019.91 521.906 1020.99 521.739 1022.24 521.739C1024.13 521.739 1025.62 522.131 1026.71 522.915C1027.81 523.699 1028.38 524.784 1028.44 526.17Z" fill="black"/>
<path d="M844.125 133V115.545H851.659C852.955 115.545 854.088 115.801 855.06 116.312C856.031 116.824 856.787 117.543 857.327 118.469C857.866 119.395 858.136 120.477 858.136 121.716C858.136 122.966 857.858 124.048 857.301 124.963C856.75 125.878 855.974 126.582 854.974 127.077C853.98 127.571 852.818 127.818 851.489 127.818H846.989V124.136H850.534C851.091 124.136 851.565 124.04 851.957 123.847C852.355 123.648 852.659 123.366 852.869 123.003C853.085 122.639 853.193 122.21 853.193 121.716C853.193 121.216 853.085 120.79 852.869 120.438C852.659 120.08 852.355 119.807 851.957 119.619C851.565 119.426 851.091 119.33 850.534 119.33H848.864V133H844.125ZM865.969 133.239C864.548 133.239 863.332 132.957 862.321 132.395C861.31 131.827 860.534 131.037 859.994 130.026C859.455 129.009 859.185 127.83 859.185 126.489C859.185 125.148 859.455 123.972 859.994 122.96C860.534 121.943 861.31 121.153 862.321 120.591C863.332 120.023 864.548 119.739 865.969 119.739C867.389 119.739 868.605 120.023 869.616 120.591C870.628 121.153 871.403 121.943 871.943 122.96C872.483 123.972 872.753 125.148 872.753 126.489C872.753 127.83 872.483 129.009 871.943 130.026C871.403 131.037 870.628 131.827 869.616 132.395C868.605 132.957 867.389 133.239 865.969 133.239ZM866.003 129.761C866.401 129.761 866.744 129.628 867.034 129.361C867.324 129.094 867.548 128.713 867.707 128.219C867.866 127.724 867.946 127.136 867.946 126.455C867.946 125.767 867.866 125.179 867.707 124.69C867.548 124.196 867.324 123.815 867.034 123.548C866.744 123.281 866.401 123.148 866.003 123.148C865.582 123.148 865.222 123.281 864.92 123.548C864.619 123.815 864.389 124.196 864.23 124.69C864.071 125.179 863.991 125.767 863.991 126.455C863.991 127.136 864.071 127.724 864.23 128.219C864.389 128.713 864.619 129.094 864.92 129.361C865.222 129.628 865.582 129.761 866.003 129.761ZM876.746 133L873.473 119.909H878.178L879.678 127.886H879.78L881.45 119.909H886.018L887.757 127.818H887.859L889.291 119.909H893.996L890.723 133H885.643L883.803 125.977H883.666L881.825 133H876.746ZM901.466 133.239C900.068 133.239 898.864 132.972 897.852 132.438C896.847 131.898 896.071 131.125 895.526 130.119C894.986 129.108 894.716 127.898 894.716 126.489C894.716 125.136 894.989 123.955 895.534 122.943C896.08 121.932 896.849 121.145 897.844 120.582C898.838 120.02 900.011 119.739 901.364 119.739C902.352 119.739 903.247 119.892 904.048 120.199C904.849 120.506 905.534 120.952 906.102 121.537C906.67 122.116 907.108 122.821 907.415 123.651C907.722 124.48 907.875 125.415 907.875 126.455V127.545H896.182V124.955H903.545C903.54 124.58 903.443 124.25 903.256 123.966C903.074 123.676 902.827 123.452 902.514 123.293C902.207 123.128 901.858 123.045 901.466 123.045C901.085 123.045 900.736 123.128 900.418 123.293C900.099 123.452 899.844 123.673 899.651 123.957C899.463 124.241 899.364 124.574 899.352 124.955V127.75C899.352 128.17 899.44 128.545 899.616 128.875C899.793 129.205 900.045 129.463 900.375 129.651C900.705 129.838 901.102 129.932 901.568 129.932C901.892 129.932 902.188 129.886 902.455 129.795C902.727 129.705 902.96 129.574 903.153 129.403C903.347 129.227 903.489 129.017 903.58 128.773H907.875C907.727 129.682 907.378 130.472 906.827 131.142C906.276 131.807 905.545 132.324 904.636 132.693C903.733 133.057 902.676 133.239 901.466 133.239ZM909.795 133V119.909H914.363V122.398H914.499C914.738 121.477 915.116 120.804 915.633 120.378C916.156 119.952 916.766 119.739 917.465 119.739C917.67 119.739 917.871 119.756 918.07 119.79C918.275 119.818 918.471 119.861 918.658 119.918V123.932C918.425 123.852 918.138 123.793 917.798 123.753C917.457 123.713 917.164 123.693 916.92 123.693C916.46 123.693 916.045 123.798 915.675 124.009C915.312 124.213 915.025 124.503 914.815 124.878C914.604 125.247 914.499 125.682 914.499 126.182V133H909.795ZM931.63 133H924.914V115.545H931.562C933.357 115.545 934.908 115.895 936.215 116.594C937.528 117.287 938.539 118.287 939.249 119.594C939.965 120.895 940.323 122.455 940.323 124.273C940.323 126.091 939.968 127.653 939.258 128.96C938.548 130.261 937.542 131.261 936.241 131.96C934.94 132.653 933.403 133 931.63 133ZM929.653 128.977H931.46C932.323 128.977 933.059 128.838 933.667 128.56C934.281 128.281 934.746 127.801 935.065 127.119C935.388 126.437 935.55 125.489 935.55 124.273C935.55 123.057 935.386 122.108 935.056 121.426C934.732 120.744 934.255 120.264 933.624 119.986C932.999 119.707 932.232 119.568 931.323 119.568H929.653V128.977ZM948.857 133.239C947.459 133.239 946.254 132.972 945.243 132.438C944.237 131.898 943.462 131.125 942.916 130.119C942.376 129.108 942.107 127.898 942.107 126.489C942.107 125.136 942.379 123.955 942.925 122.943C943.47 121.932 944.24 121.145 945.234 120.582C946.229 120.02 947.402 119.739 948.754 119.739C949.743 119.739 950.638 119.892 951.439 120.199C952.24 120.506 952.925 120.952 953.493 121.537C954.061 122.116 954.499 122.821 954.805 123.651C955.112 124.48 955.266 125.415 955.266 126.455V127.545H943.572V124.955H950.936C950.93 124.58 950.834 124.25 950.646 123.966C950.464 123.676 950.217 123.452 949.905 123.293C949.598 123.128 949.249 123.045 948.857 123.045C948.476 123.045 948.126 123.128 947.808 123.293C947.49 123.452 947.234 123.673 947.041 123.957C946.854 124.241 946.754 124.574 946.743 124.955V127.75C946.743 128.17 946.831 128.545 947.007 128.875C947.183 129.205 947.436 129.463 947.766 129.651C948.095 129.838 948.493 129.932 948.959 129.932C949.283 129.932 949.578 129.886 949.845 129.795C950.118 129.705 950.351 129.574 950.544 129.403C950.737 129.227 950.879 129.017 950.97 128.773H955.266C955.118 129.682 954.768 130.472 954.217 131.142C953.666 131.807 952.936 132.324 952.027 132.693C951.124 133.057 950.067 133.239 948.857 133.239ZM957.185 133V119.909H961.651V122.398H961.788C962.06 121.58 962.526 120.932 963.185 120.455C963.844 119.977 964.629 119.739 965.538 119.739C966.458 119.739 967.251 119.983 967.915 120.472C968.58 120.955 968.981 121.597 969.117 122.398H969.254C969.475 121.597 969.947 120.955 970.668 120.472C971.39 119.983 972.237 119.739 973.208 119.739C974.464 119.739 975.481 120.142 976.259 120.949C977.043 121.756 977.435 122.83 977.435 124.17V133H972.731V125.364C972.731 124.79 972.586 124.341 972.296 124.017C972.006 123.687 971.617 123.523 971.129 123.523C970.646 123.523 970.262 123.687 969.978 124.017C969.7 124.341 969.56 124.79 969.56 125.364V133H965.06V125.364C965.06 124.79 964.915 124.341 964.626 124.017C964.336 123.687 963.947 123.523 963.458 123.523C963.134 123.523 962.856 123.597 962.623 123.744C962.39 123.892 962.208 124.105 962.077 124.384C961.952 124.656 961.89 124.983 961.89 125.364V133H957.185ZM983.403 133.205C982.568 133.205 981.83 133.068 981.188 132.795C980.551 132.517 980.051 132.097 979.688 131.534C979.324 130.972 979.142 130.256 979.142 129.386C979.142 128.67 979.264 128.06 979.509 127.554C979.753 127.043 980.094 126.625 980.531 126.301C980.969 125.977 981.477 125.73 982.057 125.56C982.642 125.389 983.273 125.278 983.949 125.227C984.682 125.17 985.27 125.102 985.713 125.023C986.162 124.937 986.486 124.821 986.685 124.673C986.884 124.52 986.983 124.318 986.983 124.068V124.034C986.983 123.693 986.852 123.432 986.591 123.25C986.33 123.068 985.994 122.977 985.585 122.977C985.136 122.977 984.77 123.077 984.486 123.276C984.207 123.469 984.04 123.767 983.983 124.17H979.653C979.71 123.375 979.963 122.642 980.412 121.972C980.866 121.295 981.528 120.756 982.398 120.352C983.267 119.943 984.352 119.739 985.653 119.739C986.591 119.739 987.432 119.849 988.176 120.071C988.92 120.287 989.554 120.591 990.077 120.983C990.599 121.369 990.997 121.824 991.27 122.347C991.548 122.864 991.688 123.426 991.688 124.034V133H987.29V131.159H987.188C986.926 131.648 986.608 132.043 986.233 132.344C985.864 132.645 985.44 132.864 984.963 133C984.491 133.136 983.972 133.205 983.403 133.205ZM984.938 130.239C985.295 130.239 985.631 130.165 985.943 130.017C986.261 129.869 986.52 129.656 986.719 129.378C986.918 129.099 987.017 128.761 987.017 128.364V127.273C986.892 127.324 986.759 127.372 986.616 127.418C986.48 127.463 986.332 127.506 986.173 127.545C986.02 127.585 985.855 127.622 985.679 127.656C985.509 127.69 985.33 127.722 985.142 127.75C984.778 127.807 984.48 127.901 984.247 128.031C984.02 128.156 983.849 128.312 983.736 128.5C983.628 128.682 983.574 128.886 983.574 129.114C983.574 129.477 983.702 129.756 983.957 129.949C984.213 130.142 984.54 130.239 984.938 130.239ZM998.64 125.636V133H993.935V119.909H998.401V122.398H998.538C998.822 121.568 999.322 120.918 1000.04 120.446C1000.76 119.974 1001.6 119.739 1002.56 119.739C1003.49 119.739 1004.29 119.952 1004.97 120.378C1005.66 120.798 1006.19 121.378 1006.57 122.116C1006.95 122.855 1007.13 123.699 1007.13 124.648V133H1002.42V125.636C1002.43 124.989 1002.26 124.48 1001.93 124.111C1001.6 123.741 1001.14 123.557 1000.55 123.557C1000.16 123.557 999.825 123.642 999.535 123.812C999.251 123.977 999.032 124.216 998.879 124.528C998.725 124.835 998.646 125.205 998.64 125.636ZM1014.19 133.17C1013.26 133.17 1012.4 132.926 1011.62 132.438C1010.84 131.949 1010.21 131.207 1009.74 130.213C1009.27 129.219 1009.04 127.966 1009.04 126.455C1009.04 124.875 1009.29 123.591 1009.77 122.602C1010.27 121.614 1010.91 120.889 1011.68 120.429C1012.47 119.969 1013.29 119.739 1014.16 119.739C1014.8 119.739 1015.37 119.852 1015.86 120.08C1016.35 120.301 1016.76 120.599 1017.09 120.974C1017.42 121.344 1017.67 121.75 1017.84 122.193H1017.91V115.545H1022.61V133H1017.94V130.852H1017.84C1017.66 131.295 1017.39 131.693 1017.05 132.045C1016.72 132.392 1016.31 132.668 1015.83 132.872C1015.35 133.071 1014.8 133.17 1014.19 133.17ZM1015.93 129.557C1016.36 129.557 1016.73 129.432 1017.04 129.182C1017.35 128.926 1017.59 128.568 1017.75 128.108C1017.92 127.642 1018.01 127.091 1018.01 126.455C1018.01 125.807 1017.92 125.253 1017.75 124.793C1017.59 124.327 1017.35 123.972 1017.04 123.727C1016.73 123.477 1016.36 123.352 1015.93 123.352C1015.5 123.352 1015.13 123.477 1014.82 123.727C1014.52 123.972 1014.29 124.327 1014.12 124.793C1013.96 125.253 1013.88 125.807 1013.88 126.455C1013.88 127.102 1013.96 127.659 1014.12 128.125C1014.29 128.585 1014.52 128.94 1014.82 129.19C1015.13 129.435 1015.5 129.557 1015.93 129.557Z" fill="black"/>
<path d="M534.857 24.5812C534.783 24.2801 534.666 24.0159 534.507 23.7886C534.348 23.5557 534.149 23.3596 533.911 23.2006C533.678 23.0358 533.405 22.9136 533.092 22.8341C532.786 22.7488 532.447 22.7062 532.078 22.7062C531.283 22.7062 530.604 22.8966 530.041 23.2773C529.484 23.6579 529.058 24.2062 528.763 24.9221C528.473 25.6381 528.328 26.5017 528.328 27.513C528.328 28.5358 528.467 29.4108 528.746 30.1381C529.024 30.8653 529.439 31.4221 529.99 31.8085C530.541 32.1949 531.226 32.3881 532.044 32.3881C532.766 32.3881 533.365 32.2829 533.842 32.0727C534.325 31.8625 534.686 31.5642 534.925 31.1778C535.163 30.7915 535.283 30.3369 535.283 29.8142L536.101 29.8994H532.112V26.5244H539.851V28.9449C539.851 30.5358 539.513 31.8966 538.837 33.0273C538.166 34.1523 537.24 35.0159 536.058 35.6182C534.882 36.2148 533.533 36.5131 532.01 36.5131C530.311 36.5131 528.82 36.1523 527.536 35.4307C526.251 34.7091 525.249 33.6807 524.527 32.3454C523.811 31.0102 523.453 29.4221 523.453 27.5812C523.453 26.1381 523.672 24.8596 524.109 23.746C524.553 22.6324 525.166 21.692 525.95 20.925C526.734 20.1523 527.641 19.5699 528.669 19.1778C529.697 18.7801 530.8 18.5812 531.976 18.5812C533.01 18.5812 533.97 18.729 534.857 19.0244C535.749 19.3142 536.536 19.729 537.217 20.2687C537.905 20.8028 538.459 21.4363 538.879 22.1693C539.3 22.9023 539.555 23.7062 539.646 24.5812H534.857ZM542.129 36.2744V23.1835H546.697V25.6721H546.833C547.072 24.7517 547.45 24.0784 547.967 23.6523C548.489 23.2261 549.1 23.0131 549.799 23.0131C550.004 23.0131 550.205 23.0301 550.404 23.0642C550.609 23.0926 550.805 23.1352 550.992 23.192V27.2062C550.759 27.1267 550.472 27.067 550.131 27.0273C549.79 26.9875 549.498 26.9676 549.254 26.9676C548.793 26.9676 548.379 27.0727 548.009 27.2829C547.646 27.4875 547.359 27.7773 547.148 28.1523C546.938 28.5216 546.833 28.9562 546.833 29.4562V36.2744H542.129ZM555.573 36.479C554.738 36.479 553.999 36.3426 553.357 36.0699C552.721 35.7915 552.221 35.371 551.857 34.8085C551.494 34.246 551.312 33.5301 551.312 32.6608C551.312 31.9449 551.434 31.3341 551.678 30.8284C551.923 30.317 552.263 29.8994 552.701 29.5756C553.138 29.2517 553.647 29.0045 554.227 28.8341C554.812 28.6636 555.442 28.5528 556.119 28.5017C556.852 28.4449 557.44 28.3767 557.883 28.2971C558.332 28.2119 558.656 28.0954 558.854 27.9477C559.053 27.7943 559.153 27.5926 559.153 27.3426V27.3085C559.153 26.9676 559.022 26.7062 558.761 26.5244C558.499 26.3426 558.164 26.2517 557.755 26.2517C557.306 26.2517 556.94 26.3511 556.656 26.55C556.377 26.7432 556.21 27.0415 556.153 27.4449H551.823C551.88 26.6494 552.133 25.9165 552.582 25.246C553.036 24.5699 553.698 24.0301 554.567 23.6267C555.437 23.2176 556.522 23.0131 557.823 23.0131C558.761 23.0131 559.602 23.1238 560.346 23.3454C561.09 23.5613 561.724 23.8653 562.246 24.2574C562.769 24.6437 563.167 25.0983 563.44 25.621C563.718 26.1381 563.857 26.7006 563.857 27.3085V36.2744H559.46V34.4335H559.357C559.096 34.9221 558.778 35.317 558.403 35.6182C558.033 35.9193 557.61 36.1381 557.133 36.2744C556.661 36.4108 556.141 36.479 555.573 36.479ZM557.107 33.5131C557.465 33.5131 557.8 33.4392 558.113 33.2915C558.431 33.1437 558.69 32.9307 558.888 32.6523C559.087 32.3738 559.187 32.0358 559.187 31.6381V30.5471C559.062 30.5983 558.928 30.6466 558.786 30.692C558.65 30.7375 558.502 30.7801 558.343 30.8199C558.19 30.8596 558.025 30.8966 557.849 30.9307C557.678 30.9648 557.499 30.996 557.312 31.0244C556.948 31.0812 556.65 31.175 556.417 31.3057C556.19 31.4307 556.019 31.5869 555.906 31.7744C555.798 31.9562 555.744 32.1608 555.744 32.3881C555.744 32.7517 555.871 33.0301 556.127 33.2233C556.383 33.4165 556.71 33.5131 557.107 33.5131ZM578.83 23.1835L574.432 36.2744H568.977L564.58 23.1835H569.523L571.636 31.8426H571.773L573.886 23.1835H578.83ZM586.076 36.5131C584.656 36.5131 583.44 36.2318 582.428 35.6693C581.417 35.1011 580.641 34.3113 580.102 33.3C579.562 32.2829 579.292 31.104 579.292 29.7631C579.292 28.4221 579.562 27.246 580.102 26.2346C580.641 25.2176 581.417 24.4278 582.428 23.8653C583.44 23.2971 584.656 23.0131 586.076 23.0131C587.496 23.0131 588.712 23.2971 589.724 23.8653C590.735 24.4278 591.511 25.2176 592.05 26.2346C592.59 27.246 592.86 28.4221 592.86 29.7631C592.86 31.104 592.59 32.2829 592.05 33.3C591.511 34.3113 590.735 35.1011 589.724 35.6693C588.712 36.2318 587.496 36.5131 586.076 36.5131ZM586.11 33.0358C586.508 33.0358 586.852 32.9023 587.141 32.6352C587.431 32.3682 587.656 31.9875 587.815 31.4932C587.974 30.9988 588.053 30.4108 588.053 29.729C588.053 29.0415 587.974 28.4534 587.815 27.9648C587.656 27.4704 587.431 27.0898 587.141 26.8227C586.852 26.5557 586.508 26.4221 586.11 26.4221C585.69 26.4221 585.329 26.5557 585.028 26.8227C584.727 27.0898 584.496 27.4704 584.337 27.9648C584.178 28.4534 584.099 29.0415 584.099 29.729C584.099 30.4108 584.178 30.9988 584.337 31.4932C584.496 31.9875 584.727 32.3682 585.028 32.6352C585.329 32.9023 585.69 33.0358 586.11 33.0358ZM606.735 27.4449H602.406C602.383 27.1778 602.289 26.9477 602.124 26.7545C601.96 26.5613 601.746 26.4136 601.485 26.3113C601.229 26.2034 600.945 26.1494 600.633 26.1494C600.229 26.1494 599.883 26.2233 599.593 26.371C599.303 26.5187 599.161 26.729 599.167 27.0017C599.161 27.1949 599.244 27.3738 599.414 27.5386C599.59 27.7034 599.928 27.8312 600.428 27.9221L603.087 28.3994C604.428 28.6437 605.425 29.0557 606.079 29.6352C606.738 30.2091 607.07 30.979 607.076 31.9449C607.07 32.8767 606.792 33.6863 606.241 34.3738C605.695 35.0557 604.948 35.5841 603.999 35.9591C603.056 36.3284 601.979 36.5131 600.769 36.5131C598.769 36.5131 597.204 36.104 596.073 35.2858C594.948 34.4676 594.32 33.3881 594.19 32.0471H598.86C598.923 32.4619 599.127 32.7829 599.474 33.0102C599.826 33.2318 600.269 33.3426 600.803 33.3426C601.235 33.3426 601.59 33.2687 601.869 33.121C602.153 32.9733 602.298 32.7631 602.303 32.4903C602.298 32.2403 602.173 32.0415 601.928 31.8937C601.69 31.746 601.315 31.6267 600.803 31.5358L598.485 31.1267C597.15 30.8937 596.15 30.4506 595.485 29.7971C594.82 29.1437 594.491 28.3028 594.496 27.2744C594.491 26.3653 594.729 25.5954 595.212 24.9648C595.701 24.3284 596.397 23.8454 597.3 23.5159C598.21 23.1807 599.286 23.0131 600.531 23.0131C602.423 23.0131 603.914 23.4051 605.005 24.1892C606.102 24.9733 606.678 26.0585 606.735 27.4449ZM613.592 36.2744V18.8199H618.33V25.8767H618.569L623.819 18.8199H629.342L623.444 26.5926L629.478 36.2744H623.819L619.898 29.729L618.33 31.7744V36.2744H613.592ZM631.636 36.2744V23.1835H636.341V36.2744H631.636ZM633.989 21.8199C633.352 21.8199 632.807 21.6096 632.352 21.1892C631.898 20.7687 631.67 20.2631 631.67 19.6721C631.67 19.0812 631.898 18.5756 632.352 18.1551C632.807 17.7346 633.352 17.5244 633.989 17.5244C634.631 17.5244 635.176 17.7346 635.625 18.1551C636.08 18.5756 636.307 19.0812 636.307 19.6721C636.307 20.2631 636.08 20.7687 635.625 21.1892C635.176 21.6096 634.631 21.8199 633.989 21.8199ZM643.442 28.9108V36.2744H638.738V23.1835H643.204V25.6721H643.34C643.624 24.8426 644.124 24.192 644.84 23.7204C645.562 23.2488 646.403 23.0131 647.363 23.0131C648.289 23.0131 649.093 23.2261 649.775 23.6523C650.462 24.0727 650.994 24.6523 651.369 25.3909C651.749 26.1295 651.937 26.9733 651.931 27.9221V36.2744H647.227V28.9108C647.232 28.2631 647.067 27.7545 646.732 27.3852C646.403 27.0159 645.942 26.8312 645.352 26.8312C644.965 26.8312 644.627 26.9165 644.337 27.0869C644.053 27.2517 643.835 27.4903 643.681 27.8028C643.528 28.1096 643.448 28.479 643.442 28.9108ZM660.526 36.5131C659.129 36.5131 657.924 36.246 656.913 35.7119C655.907 35.1721 655.131 34.3994 654.586 33.3937C654.046 32.3824 653.776 31.1721 653.776 29.7631C653.776 28.4108 654.049 27.229 654.594 26.2176C655.14 25.2062 655.91 24.4193 656.904 23.8568C657.898 23.2943 659.072 23.0131 660.424 23.0131C661.413 23.0131 662.308 23.1665 663.109 23.4733C663.91 23.7801 664.594 24.2261 665.163 24.8113C665.731 25.3909 666.168 26.0954 666.475 26.925C666.782 27.7545 666.935 28.6892 666.935 29.729V30.8199H655.242V28.229H662.606C662.6 27.854 662.504 27.5244 662.316 27.2403C662.134 26.9506 661.887 26.7261 661.575 26.567C661.268 26.4023 660.918 26.3199 660.526 26.3199C660.146 26.3199 659.796 26.4023 659.478 26.567C659.16 26.7261 658.904 26.9477 658.711 27.2318C658.523 27.5159 658.424 27.8483 658.413 28.229V31.0244C658.413 31.4449 658.501 31.8199 658.677 32.1494C658.853 32.479 659.106 32.7375 659.435 32.925C659.765 33.1125 660.163 33.2062 660.629 33.2062C660.952 33.2062 661.248 33.1608 661.515 33.0699C661.788 32.979 662.021 32.8483 662.214 32.6778C662.407 32.5017 662.549 32.2915 662.64 32.0471H666.935C666.788 32.9562 666.438 33.746 665.887 34.4165C665.336 35.0812 664.606 35.5983 663.697 35.9676C662.793 36.3312 661.737 36.5131 660.526 36.5131ZM676.662 23.1835V26.5926H668.037V23.1835H676.662ZM669.707 20.0471H674.412V32.0642C674.412 32.246 674.443 32.3994 674.506 32.5244C674.568 32.6437 674.665 32.7346 674.795 32.7971C674.926 32.854 675.094 32.8824 675.298 32.8824C675.44 32.8824 675.605 32.8653 675.793 32.8312C675.986 32.7971 676.128 32.7687 676.219 32.746L676.901 36.0528C676.69 36.1153 676.389 36.192 675.997 36.2829C675.611 36.3738 675.151 36.4335 674.616 36.4619C673.537 36.5187 672.631 36.4079 671.898 36.1295C671.165 35.8454 670.614 35.3994 670.244 34.7915C669.875 34.1835 669.696 33.4221 669.707 32.5074V20.0471ZM678.582 36.2744V23.1835H683.286V36.2744H678.582ZM680.934 21.8199C680.298 21.8199 679.752 21.6096 679.298 21.1892C678.843 20.7687 678.616 20.2631 678.616 19.6721C678.616 19.0812 678.843 18.5756 679.298 18.1551C679.752 17.7346 680.298 17.5244 680.934 17.5244C681.576 17.5244 682.121 17.7346 682.57 18.1551C683.025 18.5756 683.252 19.0812 683.252 19.6721C683.252 20.2631 683.025 20.7687 682.57 21.1892C682.121 21.6096 681.576 21.8199 680.934 21.8199ZM691.99 36.5131C690.57 36.5131 689.354 36.2318 688.342 35.6693C687.331 35.1011 686.555 34.3113 686.016 33.3C685.476 32.2829 685.206 31.104 685.206 29.7631C685.206 28.4221 685.476 27.246 686.016 26.2346C686.555 25.2176 687.331 24.4278 688.342 23.8653C689.354 23.2971 690.57 23.0131 691.99 23.0131C693.274 23.0131 694.385 23.246 695.322 23.7119C696.266 24.1721 696.996 24.8256 697.513 25.6721C698.03 26.5131 698.291 27.5017 698.297 28.6381H693.933C693.871 27.9506 693.672 27.4278 693.337 27.0699C693.007 26.7062 692.581 26.5244 692.058 26.5244C691.649 26.5244 691.291 26.6437 690.984 26.8824C690.678 27.1153 690.439 27.4704 690.268 27.9477C690.098 28.4193 690.013 29.0131 690.013 29.729C690.013 30.4449 690.098 31.0415 690.268 31.5187C690.439 31.9903 690.678 32.3454 690.984 32.5841C691.291 32.817 691.649 32.9335 692.058 32.9335C692.405 32.9335 692.712 32.854 692.979 32.6949C693.246 32.5301 693.462 32.2915 693.626 31.979C693.797 31.6608 693.899 31.2744 693.933 30.8199H698.297C698.28 31.9733 698.016 32.979 697.504 33.8369C696.993 34.6892 696.268 35.3483 695.331 35.8142C694.399 36.2801 693.286 36.5131 691.99 36.5131ZM704.951 36.2744V18.8199H717.531V22.6381H709.69V25.638H716.883V29.4562H709.69V32.4562H717.496V36.2744H704.951ZM724.653 28.9108V36.2744H719.949V23.1835H724.415V25.6721H724.551C724.835 24.8426 725.335 24.192 726.051 23.7204C726.773 23.2488 727.614 23.0131 728.574 23.0131C729.5 23.0131 730.304 23.2261 730.986 23.6523C731.673 24.0727 732.205 24.6523 732.58 25.3909C732.96 26.1295 733.148 26.9733 733.142 27.9221V36.2744H728.437V28.9108C728.443 28.2631 728.278 27.7545 727.943 27.3852C727.614 27.0159 727.153 26.8312 726.562 26.8312C726.176 26.8312 725.838 26.9165 725.548 27.0869C725.264 27.2517 725.045 27.4903 724.892 27.8028C724.739 28.1096 724.659 28.479 724.653 28.9108ZM741.737 36.5131C740.339 36.5131 739.135 36.246 738.124 35.7119C737.118 35.1721 736.342 34.3994 735.797 33.3937C735.257 32.3824 734.987 31.1721 734.987 29.7631C734.987 28.4108 735.26 27.229 735.805 26.2176C736.351 25.2062 737.121 24.4193 738.115 23.8568C739.109 23.2943 740.283 23.0131 741.635 23.0131C742.624 23.0131 743.518 23.1665 744.32 23.4733C745.121 23.7801 745.805 24.2261 746.374 24.8113C746.942 25.3909 747.379 26.0954 747.686 26.925C747.993 27.7545 748.146 28.6892 748.146 29.729V30.8199H736.453V28.229H743.817C743.811 27.854 743.714 27.5244 743.527 27.2403C743.345 26.9506 743.098 26.7261 742.786 26.567C742.479 26.4023 742.129 26.3199 741.737 26.3199C741.357 26.3199 741.007 26.4023 740.689 26.567C740.371 26.7261 740.115 26.9477 739.922 27.2318C739.734 27.5159 739.635 27.8483 739.624 28.229V31.0244C739.624 31.4449 739.712 31.8199 739.888 32.1494C740.064 32.479 740.317 32.7375 740.646 32.925C740.976 33.1125 741.374 33.2062 741.839 33.2062C742.163 33.2062 742.459 33.1608 742.726 33.0699C742.999 32.979 743.232 32.8483 743.425 32.6778C743.618 32.5017 743.76 32.2915 743.851 32.0471H748.146C747.999 32.9562 747.649 33.746 747.098 34.4165C746.547 35.0812 745.817 35.5983 744.908 35.9676C744.004 36.3312 742.947 36.5131 741.737 36.5131ZM750.066 36.2744V23.1835H754.634V25.6721H754.771C755.009 24.7517 755.387 24.0784 755.904 23.6523C756.427 23.2261 757.038 23.0131 757.737 23.0131C757.941 23.0131 758.143 23.0301 758.342 23.0642C758.546 23.0926 758.742 23.1352 758.93 23.192V27.2062C758.697 27.1267 758.41 27.067 758.069 27.0273C757.728 26.9875 757.435 26.9676 757.191 26.9676C756.731 26.9676 756.316 27.0727 755.947 27.2829C755.583 27.4875 755.296 27.7773 755.086 28.1523C754.876 28.5216 754.771 28.9562 754.771 29.4562V36.2744H750.066ZM766.029 41.4562C764.717 41.4562 763.592 41.2687 762.654 40.8937C761.722 40.5244 760.998 40.0131 760.481 39.3596C759.969 38.7119 759.683 37.9676 759.62 37.1267H764.154C764.2 37.4051 764.313 37.6295 764.495 37.8C764.677 37.9704 764.91 38.0926 765.194 38.1665C765.484 38.246 765.808 38.2858 766.165 38.2858C766.773 38.2858 767.276 38.1381 767.674 37.8426C768.077 37.5471 768.279 37.0131 768.279 36.2403V34.0244H768.143C767.972 34.4676 767.711 34.8454 767.359 35.1579C767.006 35.4648 766.583 35.7006 766.089 35.8653C765.594 36.0244 765.052 36.104 764.461 36.104C763.529 36.104 762.671 35.8881 761.887 35.4562C761.109 35.0244 760.484 34.3398 760.012 33.4023C759.546 32.4648 759.313 31.2403 759.313 29.729C759.313 28.1494 759.558 26.8653 760.046 25.8767C760.54 24.888 761.177 24.1636 761.955 23.7034C762.739 23.2432 763.563 23.0131 764.427 23.0131C765.075 23.0131 765.643 23.1267 766.131 23.354C766.62 23.5755 767.029 23.8738 767.359 24.2488C767.688 24.6182 767.938 25.0244 768.109 25.4676H768.211V23.1835H772.915V36.2403C772.915 37.3483 772.629 38.2886 772.055 39.0613C771.487 39.8398 770.685 40.4335 769.651 40.8426C768.617 41.2517 767.41 41.4562 766.029 41.4562ZM766.2 32.7631C766.631 32.7631 767.001 32.6437 767.308 32.4051C767.62 32.1608 767.859 31.8142 768.023 31.3653C768.194 30.9108 768.279 30.3653 768.279 29.729C768.279 29.0812 768.194 28.5273 768.023 28.067C767.859 27.6011 767.62 27.246 767.308 27.0017C767.001 26.7517 766.631 26.6267 766.2 26.6267C765.768 26.6267 765.398 26.7517 765.092 27.0017C764.79 27.246 764.558 27.6011 764.393 28.067C764.234 28.5273 764.154 29.0812 764.154 29.729C764.154 30.3767 764.234 30.9278 764.393 31.3824C764.558 31.8312 764.79 32.175 765.092 32.4136C765.398 32.6466 765.768 32.7631 766.2 32.7631ZM778.172 41.1835C777.632 41.1835 777.118 41.1409 776.629 41.0557C776.141 40.9761 775.712 40.8653 775.342 40.7233L776.365 37.3824C776.751 37.5187 777.104 37.6068 777.422 37.6466C777.746 37.6863 778.021 37.6636 778.249 37.5784C778.482 37.4932 778.649 37.3312 778.751 37.0926L778.854 36.854L774.251 23.1835H779.161L781.274 32.2517H781.411L783.558 23.1835H788.501L783.729 37.3653C783.49 38.0869 783.143 38.7346 782.689 39.3085C782.24 39.8881 781.649 40.3454 780.916 40.6807C780.183 41.0159 779.268 41.1835 778.172 41.1835ZM794.553 36.2744V18.8199H802.087C803.382 18.8199 804.516 19.0756 805.487 19.5869C806.459 20.0983 807.214 20.817 807.754 21.7432C808.294 22.6693 808.564 23.7517 808.564 24.9903C808.564 26.2403 808.286 27.3227 807.729 28.2375C807.178 29.1523 806.402 29.8568 805.402 30.3511C804.408 30.8454 803.246 31.0926 801.916 31.0926H797.416V27.4108H800.962C801.518 27.4108 801.993 27.3142 802.385 27.121C802.783 26.9221 803.087 26.6409 803.297 26.2773C803.513 25.9136 803.621 25.4846 803.621 24.9903C803.621 24.4903 803.513 24.0642 803.297 23.7119C803.087 23.354 802.783 23.0812 802.385 22.8937C801.993 22.7005 801.518 22.604 800.962 22.604H799.291V36.2744H794.553ZM810.371 36.2744V23.1835H814.939V25.6721H815.075C815.314 24.7517 815.692 24.0784 816.209 23.6523C816.732 23.2261 817.342 23.0131 818.041 23.0131C818.246 23.0131 818.447 23.0301 818.646 23.0642C818.851 23.0926 819.047 23.1352 819.234 23.192V27.2062C819.001 27.1267 818.714 27.067 818.374 27.0273C818.033 26.9875 817.74 26.9676 817.496 26.9676C817.036 26.9676 816.621 27.0727 816.251 27.2829C815.888 27.4875 815.601 27.7773 815.391 28.1523C815.18 28.5216 815.075 28.9562 815.075 29.4562V36.2744H810.371ZM826.334 36.5131C824.913 36.5131 823.697 36.2318 822.686 35.6693C821.675 35.1011 820.899 34.3113 820.359 33.3C819.82 32.2829 819.55 31.104 819.55 29.7631C819.55 28.4221 819.82 27.246 820.359 26.2346C820.899 25.2176 821.675 24.4278 822.686 23.8653C823.697 23.2971 824.913 23.0131 826.334 23.0131C827.754 23.0131 828.97 23.2971 829.982 23.8653C830.993 24.4278 831.768 25.2176 832.308 26.2346C832.848 27.246 833.118 28.4221 833.118 29.7631C833.118 31.104 832.848 32.2829 832.308 33.3C831.768 34.3113 830.993 35.1011 829.982 35.6693C828.97 36.2318 827.754 36.5131 826.334 36.5131ZM826.368 33.0358C826.766 33.0358 827.109 32.9023 827.399 32.6352C827.689 32.3682 827.913 31.9875 828.072 31.4932C828.232 30.9988 828.311 30.4108 828.311 29.729C828.311 29.0415 828.232 28.4534 828.072 27.9648C827.913 27.4704 827.689 27.0898 827.399 26.8227C827.109 26.5557 826.766 26.4221 826.368 26.4221C825.947 26.4221 825.587 26.5557 825.286 26.8227C824.984 27.0898 824.754 27.4704 824.595 27.9648C824.436 28.4534 824.357 29.0415 824.357 29.729C824.357 30.4108 824.436 30.9988 824.595 31.4932C824.754 31.9875 824.984 32.3682 825.286 32.6352C825.587 32.9023 825.947 33.0358 826.368 33.0358ZM839.766 36.4449C838.834 36.4449 837.976 36.2006 837.192 35.7119C836.413 35.2233 835.788 34.4818 835.317 33.4875C834.851 32.4932 834.618 31.2403 834.618 29.729C834.618 28.1494 834.862 26.8653 835.351 25.8767C835.845 24.888 836.482 24.1636 837.26 23.7034C838.044 23.2432 838.868 23.0131 839.732 23.0131C840.379 23.0131 840.947 23.1267 841.436 23.354C841.925 23.5755 842.334 23.8738 842.663 24.2488C842.993 24.6182 843.243 25.0244 843.413 25.4676H843.482V18.8199H848.186V36.2744H843.516V34.1267H843.413C843.232 34.5699 842.97 34.9676 842.629 35.3199C842.294 35.6665 841.885 35.942 841.402 36.1466C840.925 36.3454 840.379 36.4449 839.766 36.4449ZM841.504 32.8312C841.936 32.8312 842.305 32.7062 842.612 32.4562C842.925 32.2006 843.163 31.8426 843.328 31.3824C843.499 30.9165 843.584 30.3653 843.584 29.729C843.584 29.0812 843.499 28.5273 843.328 28.067C843.163 27.6011 842.925 27.246 842.612 27.0017C842.305 26.7517 841.936 26.6267 841.504 26.6267C841.072 26.6267 840.703 26.7517 840.396 27.0017C840.095 27.246 839.862 27.6011 839.697 28.067C839.538 28.5273 839.459 29.0812 839.459 29.729C839.459 30.3767 839.538 30.9335 839.697 31.3994C839.862 31.8596 840.095 32.2148 840.396 32.4648C840.703 32.7091 841.072 32.8312 841.504 32.8312ZM858.984 30.5471V23.1835H863.689V36.2744H859.223V33.7858H859.087C858.803 34.621 858.305 35.2744 857.595 35.746C856.885 36.2119 856.041 36.4449 855.064 36.4449C854.149 36.4449 853.348 36.2346 852.661 35.8142C851.979 35.3937 851.447 34.8142 851.067 34.0756C850.692 33.3369 850.501 32.4903 850.496 31.5358V23.1835H855.2V30.5471C855.206 31.1949 855.371 31.7034 855.695 32.0727C856.024 32.442 856.484 32.6267 857.075 32.6267C857.467 32.6267 857.805 32.5443 858.089 32.3795C858.379 32.2091 858.601 31.9704 858.754 31.6636C858.913 31.3511 858.99 30.979 858.984 30.5471ZM872.388 36.5131C870.968 36.5131 869.752 36.2318 868.741 35.6693C867.729 35.1011 866.954 34.3113 866.414 33.3C865.874 32.2829 865.604 31.104 865.604 29.7631C865.604 28.4221 865.874 27.246 866.414 26.2346C866.954 25.2176 867.729 24.4278 868.741 23.8653C869.752 23.2971 870.968 23.0131 872.388 23.0131C873.673 23.0131 874.783 23.246 875.721 23.7119C876.664 24.1721 877.394 24.8256 877.911 25.6721C878.428 26.5131 878.69 27.5017 878.695 28.6381H874.332C874.269 27.9506 874.07 27.4278 873.735 27.0699C873.406 26.7062 872.979 26.5244 872.457 26.5244C872.048 26.5244 871.69 26.6437 871.383 26.8824C871.076 27.1153 870.837 27.4704 870.667 27.9477C870.496 28.4193 870.411 29.0131 870.411 29.729C870.411 30.4449 870.496 31.0415 870.667 31.5187C870.837 31.9903 871.076 32.3454 871.383 32.5841C871.69 32.817 872.048 32.9335 872.457 32.9335C872.803 32.9335 873.11 32.854 873.377 32.6949C873.644 32.5301 873.86 32.2915 874.025 31.979C874.195 31.6608 874.298 31.2744 874.332 30.8199H878.695C878.678 31.9733 878.414 32.979 877.903 33.8369C877.391 34.6892 876.667 35.3483 875.729 35.8142C874.798 36.2801 873.684 36.5131 872.388 36.5131ZM886.909 36.5131C885.511 36.5131 884.307 36.246 883.295 35.7119C882.29 35.1721 881.514 34.3994 880.969 33.3937C880.429 32.3824 880.159 31.1721 880.159 29.7631C880.159 28.4108 880.432 27.229 880.977 26.2176C881.523 25.2062 882.293 24.4193 883.287 23.8568C884.281 23.2943 885.455 23.0131 886.807 23.0131C887.795 23.0131 888.69 23.1665 889.491 23.4733C890.293 23.7801 890.977 24.2261 891.545 24.8113C892.114 25.3909 892.551 26.0954 892.858 26.925C893.165 27.7545 893.318 28.6892 893.318 29.729V30.8199H881.625V28.229H888.989C888.983 27.854 888.886 27.5244 888.699 27.2403C888.517 26.9506 888.27 26.7261 887.957 26.567C887.651 26.4023 887.301 26.3199 886.909 26.3199C886.528 26.3199 886.179 26.4023 885.861 26.567C885.543 26.7261 885.287 26.9477 885.094 27.2318C884.906 27.5159 884.807 27.8483 884.795 28.229V31.0244C884.795 31.4449 884.884 31.8199 885.06 32.1494C885.236 32.479 885.489 32.7375 885.818 32.925C886.148 33.1125 886.545 33.2062 887.011 33.2062C887.335 33.2062 887.631 33.1608 887.898 33.0699C888.17 32.979 888.403 32.8483 888.597 32.6778C888.79 32.5017 888.932 32.2915 889.023 32.0471H893.318C893.17 32.9562 892.821 33.746 892.27 34.4165C891.719 35.0812 890.989 35.5983 890.08 35.9676C889.176 36.3312 888.119 36.5131 886.909 36.5131ZM899.977 36.4449C899.045 36.4449 898.187 36.2006 897.403 35.7119C896.624 35.2233 895.999 34.4818 895.528 33.4875C895.062 32.4932 894.829 31.2403 894.829 29.729C894.829 28.1494 895.073 26.8653 895.562 25.8767C896.056 24.888 896.692 24.1636 897.471 23.7034C898.255 23.2432 899.079 23.0131 899.942 23.0131C900.59 23.0131 901.158 23.1267 901.647 23.354C902.136 23.5755 902.545 23.8738 902.874 24.2488C903.204 24.6182 903.454 25.0244 903.624 25.4676H903.692V18.8199H908.397V36.2744H903.727V34.1267H903.624C903.442 34.5699 903.181 34.9676 902.84 35.3199C902.505 35.6665 902.096 35.942 901.613 36.1466C901.136 36.3454 900.59 36.4449 899.977 36.4449ZM901.715 32.8312C902.147 32.8312 902.516 32.7062 902.823 32.4562C903.136 32.2006 903.374 31.8426 903.539 31.3824C903.71 30.9165 903.795 30.3653 903.795 29.729C903.795 29.0812 903.71 28.5273 903.539 28.067C903.374 27.6011 903.136 27.246 902.823 27.0017C902.516 26.7517 902.147 26.6267 901.715 26.6267C901.283 26.6267 900.914 26.7517 900.607 27.0017C900.306 27.246 900.073 27.6011 899.908 28.067C899.749 28.5273 899.67 29.0812 899.67 29.729C899.67 30.3767 899.749 30.9335 899.908 31.3994C900.073 31.8596 900.306 32.2148 900.607 32.4648C900.914 32.7091 901.283 32.8312 901.715 32.8312Z" fill="black"/>
</svg>
