<svg width="98" height="64" viewBox="0 0 98 64" fill="none" xmlns="http://www.w3.org/2000/svg">
<path d="M55.6269 25.0553L53.1481 6.96075H55.8691V7.84866H55.0198V9.48401H55.8691V10.3772H55.0198V12.0125H55.8691V13.021H57.4897V12.0125H58.3391V10.3772H57.4897V9.48411H58.3391V7.84876H57.4897V5.32545H52.924L52.7944 4.37905H53.9618V0.0117188H43.4098V4.37905H44.5772L44.4476 5.32545H39.8767V7.84871H39.0272V9.48406H39.8767V10.3772H39.0272V12.0126H39.8767V13.0211H41.4972V12.0126H42.3466V10.3772H41.4972V9.48411H42.3466V7.84876H41.4972V6.9608H44.2236L41.7447 25.0554H37.7715V26.6907H42.6439L42.6799 26.7284L42.7186 26.6907H54.5765L54.6151 26.7284L54.6512 26.6907H59.595V25.0554H55.6269V25.0553ZM45.0303 1.64707H52.3413V2.7437H45.0303V1.64707ZM46.0705 5.41995L46.2131 4.379H51.1585L51.295 5.37555L48.6506 7.20209L46.0705 5.41995ZM47.2162 8.19305L45.5312 9.3569L45.8225 7.23042L47.2162 8.19305ZM51.543 7.18601L51.8478 9.41059L50.0851 8.19305L51.543 7.18601ZM45.2314 11.5458L48.6507 9.18392L52.1477 11.5995L52.4614 13.8898H44.9102L45.2314 11.5458ZM51.8466 15.5251L48.6475 18.6416L45.4485 15.5251H51.8466ZM44.5012 16.8754L47.4809 19.7782L43.5834 23.5751L44.5012 16.8754ZM44.3972 25.0553L48.6476 20.9146L52.8979 25.0553H44.3972ZM49.8142 19.7781L52.8614 16.8095L53.8 23.6611L49.8142 19.7781Z" fill="white"/>
<path d="M41.5346 37.0597C41.4635 36.8295 41.3655 36.6236 41.2405 36.4418C41.1184 36.2571 40.9706 36.0994 40.7973 35.9688C40.6269 35.8381 40.4309 35.7401 40.2093 35.6747C39.9877 35.6065 39.7462 35.5724 39.4848 35.5724C39.0161 35.5724 38.5985 35.6903 38.232 35.9261C37.8655 36.1619 37.5772 36.5085 37.3669 36.9659C37.1596 37.4205 37.0559 37.9744 37.0559 38.6278C37.0559 39.2869 37.1596 39.8452 37.3669 40.3026C37.5743 40.7599 37.8627 41.108 38.232 41.3466C38.6013 41.5824 39.0303 41.7003 39.5189 41.7003C39.9621 41.7003 40.3456 41.6151 40.6695 41.4446C40.9962 41.2741 41.2476 41.0327 41.4238 40.7202C41.5999 40.4048 41.688 40.0355 41.688 39.6122L42.0459 39.6676H39.6766V38.4318H43.2178V39.4801C43.2178 40.2273 43.0587 40.8736 42.7405 41.419C42.4223 41.9645 41.9848 42.3849 41.428 42.6804C40.8712 42.973 40.232 43.1193 39.5104 43.1193C38.7064 43.1193 38.0005 42.9389 37.3925 42.5781C36.7874 42.2145 36.3144 41.6989 35.9735 41.0312C35.6354 40.3608 35.4664 39.5653 35.4664 38.6449C35.4664 37.9403 35.5658 37.3111 35.7647 36.7571C35.9664 36.2031 36.2476 35.733 36.6084 35.3466C36.9692 34.9574 37.3925 34.6619 37.8783 34.4602C38.3641 34.2557 38.8925 34.1534 39.4635 34.1534C39.9465 34.1534 40.3968 34.2244 40.8144 34.3665C41.232 34.5057 41.6027 34.7045 41.9266 34.9631C42.2533 35.2216 42.5218 35.5284 42.732 35.8835C42.9422 36.2386 43.08 36.6307 43.1454 37.0597H41.5346ZM44.6784 43V36.4545H46.1741V37.5455H46.2423C46.3616 37.1676 46.5662 36.8764 46.8559 36.6719C47.1486 36.4645 47.4824 36.3608 47.8574 36.3608C47.9426 36.3608 48.0378 36.3651 48.1429 36.3736C48.2508 36.3793 48.3403 36.3892 48.4113 36.4034V37.8224C48.346 37.7997 48.2423 37.7798 48.1003 37.7628C47.9611 37.7429 47.8261 37.733 47.6954 37.733C47.4142 37.733 47.1613 37.794 46.9369 37.9162C46.7153 38.0355 46.5406 38.2017 46.4128 38.4148C46.2849 38.6278 46.221 38.8736 46.221 39.152V43H44.6784ZM49.4362 43V36.4545H50.9788V43H49.4362ZM50.2118 35.5256C49.9674 35.5256 49.7572 35.4446 49.5811 35.2827C49.4049 35.1179 49.3169 34.9205 49.3169 34.6903C49.3169 34.4574 49.4049 34.2599 49.5811 34.098C49.7572 33.9332 49.9674 33.8509 50.2118 33.8509C50.4589 33.8509 50.6691 33.9332 50.8424 34.098C51.0186 34.2599 51.1066 34.4574 51.1066 34.6903C51.1066 34.9205 51.0186 35.1179 50.8424 35.2827C50.6691 35.4446 50.4589 35.5256 50.2118 35.5256ZM54.9941 43.1151C54.4799 43.1151 54.0196 42.983 53.6134 42.7188C53.2071 42.4545 52.8861 42.071 52.6503 41.5682C52.4145 41.0653 52.2966 40.4545 52.2966 39.7358C52.2966 39.0085 52.416 38.3949 52.6546 37.8949C52.8961 37.392 53.2214 37.0128 53.6304 36.7571C54.0395 36.4986 54.4955 36.3693 54.9983 36.3693C55.3819 36.3693 55.6972 36.4347 55.9444 36.5653C56.1915 36.6932 56.3875 36.848 56.5324 37.0298C56.6773 37.2088 56.7895 37.3778 56.8691 37.5369H56.933V34.2727H58.4799V43H56.9628V41.9688H56.8691C56.7895 42.1278 56.6745 42.2969 56.5239 42.4759C56.3733 42.652 56.1745 42.8026 55.9273 42.9276C55.6802 43.0526 55.3691 43.1151 54.9941 43.1151ZM55.4245 41.8494C55.7512 41.8494 56.0296 41.7614 56.2597 41.5852C56.4898 41.4062 56.6645 41.1577 56.7839 40.8395C56.9032 40.5213 56.9628 40.1506 56.9628 39.7273C56.9628 39.304 56.9032 38.9361 56.7839 38.6236C56.6674 38.3111 56.4941 38.0682 56.264 37.8949C56.0367 37.7216 55.7569 37.6349 55.4245 37.6349C55.0807 37.6349 54.7938 37.7244 54.5637 37.9034C54.3336 38.0824 54.1603 38.3295 54.0438 38.6449C53.9273 38.9602 53.8691 39.321 53.8691 39.7273C53.8691 40.1364 53.9273 40.5014 54.0438 40.8224C54.1631 41.1406 54.3378 41.392 54.5679 41.5767C54.8009 41.7585 55.0864 41.8494 55.4245 41.8494ZM9.39589 49.2727V58H7.81492V49.2727H9.39589ZM12.5823 54.1648V58H11.0397V51.4545H12.5141V52.5668H12.5908C12.7414 52.2003 12.9815 51.9091 13.311 51.6932C13.6434 51.4773 14.0539 51.3693 14.5426 51.3693C14.9943 51.3693 15.3877 51.4659 15.7229 51.6591C16.061 51.8523 16.3224 52.1321 16.507 52.4986C16.6945 52.8651 16.7869 53.3097 16.784 53.8324V58H15.2414V54.071C15.2414 53.6335 15.1278 53.2912 14.9005 53.044C14.6761 52.7969 14.365 52.6733 13.9673 52.6733C13.6974 52.6733 13.4573 52.733 13.2471 52.8523C13.0397 52.9687 12.8764 53.1378 12.757 53.3594C12.6406 53.581 12.5823 53.8494 12.5823 54.1648ZM20.7812 58.1151C20.267 58.1151 19.8068 57.983 19.4005 57.7188C18.9943 57.4545 18.6732 57.071 18.4374 56.5682C18.2016 56.0653 18.0837 55.4545 18.0837 54.7358C18.0837 54.0085 18.2031 53.3949 18.4417 52.8949C18.6832 52.392 19.0085 52.0128 19.4176 51.7571C19.8266 51.4986 20.2826 51.3693 20.7854 51.3693C21.169 51.3693 21.4843 51.4347 21.7315 51.5653C21.9786 51.6932 22.1747 51.848 22.3195 52.0298C22.4644 52.2088 22.5766 52.3778 22.6562 52.5369H22.7201V49.2727H24.267V58H22.7499V56.9688H22.6562C22.5766 57.1278 22.4616 57.2969 22.311 57.4759C22.1604 57.652 21.9616 57.8026 21.7144 57.9276C21.4673 58.0526 21.1562 58.1151 20.7812 58.1151ZM21.2116 56.8494C21.5383 56.8494 21.8167 56.7614 22.0468 56.5852C22.2769 56.4062 22.4516 56.1577 22.571 55.8395C22.6903 55.5213 22.7499 55.1506 22.7499 54.7273C22.7499 54.304 22.6903 53.9361 22.571 53.6236C22.4545 53.3111 22.2812 53.0682 22.0511 52.8949C21.8238 52.7216 21.544 52.6349 21.2116 52.6349C20.8678 52.6349 20.5809 52.7244 20.3508 52.9034C20.1207 53.0824 19.9474 53.3295 19.8309 53.6449C19.7144 53.9602 19.6562 54.321 19.6562 54.7273C19.6562 55.1364 19.7144 55.5014 19.8309 55.8224C19.9502 56.1406 20.1249 56.392 20.3551 56.5767C20.588 56.7585 20.8735 56.8494 21.2116 56.8494ZM28.8085 58.1278C28.1523 58.1278 27.5855 57.9915 27.1082 57.7188C26.6338 57.4432 26.2688 57.054 26.0131 56.5511C25.7574 56.0455 25.6296 55.4503 25.6296 54.7656C25.6296 54.0923 25.7574 53.5014 26.0131 52.9929C26.2716 52.4815 26.6324 52.0838 27.0955 51.7997C27.5585 51.5128 28.1026 51.3693 28.7276 51.3693C29.131 51.3693 29.5117 51.4347 29.8696 51.5653C30.2304 51.6932 30.5486 51.892 30.8242 52.1619C31.1026 52.4318 31.3213 52.7756 31.4804 53.1932C31.6395 53.608 31.719 54.1023 31.719 54.6761V55.1491H26.354V54.1094H30.2403C30.2375 53.8139 30.1736 53.5511 30.0486 53.321C29.9236 53.0881 29.7489 52.9048 29.5244 52.7713C29.3029 52.6378 29.0443 52.571 28.7489 52.571C28.4335 52.571 28.1565 52.6477 27.9179 52.8011C27.6793 52.9517 27.4932 53.1506 27.3597 53.3977C27.229 53.642 27.1622 53.9105 27.1594 54.2031V55.1108C27.1594 55.4915 27.229 55.8182 27.3682 56.0909C27.5074 56.3608 27.702 56.5682 27.952 56.7131C28.202 56.8551 28.4946 56.9261 28.8298 56.9261C29.0543 56.9261 29.2574 56.8949 29.4392 56.8324C29.621 56.767 29.7787 56.6719 29.9122 56.5469C30.0457 56.4219 30.1466 56.267 30.2148 56.0824L31.6551 56.2443C31.5642 56.625 31.3909 56.9574 31.1352 57.2415C30.8824 57.5227 30.5585 57.7415 30.1636 57.8977C29.7688 58.0511 29.3171 58.1278 28.8085 58.1278ZM33.0241 60.4545V51.4545H34.5411V52.5369H34.6306C34.7102 52.3778 34.8224 52.2088 34.9673 52.0298C35.1122 51.848 35.3082 51.6932 35.5553 51.5653C35.8025 51.4347 36.1178 51.3693 36.5014 51.3693C37.007 51.3693 37.463 51.4986 37.8693 51.7571C38.2783 52.0128 38.6022 52.392 38.8408 52.8949C39.0823 53.3949 39.2031 54.0085 39.2031 54.7358C39.2031 55.4545 39.0852 56.0653 38.8494 56.5682C38.6136 57.071 38.2926 57.4545 37.8863 57.7188C37.4801 57.983 37.0198 58.1151 36.5056 58.1151C36.1306 58.1151 35.8195 58.0526 35.5724 57.9276C35.3252 57.8026 35.1264 57.652 34.9758 57.4759C34.8281 57.2969 34.713 57.1278 34.6306 56.9688H34.5667V60.4545H33.0241ZM34.5369 54.7273C34.5369 55.1506 34.5965 55.5213 34.7158 55.8395C34.838 56.1577 35.0127 56.4062 35.24 56.5852C35.4701 56.7614 35.7485 56.8494 36.0752 56.8494C36.4161 56.8494 36.7016 56.7585 36.9318 56.5767C37.1619 56.392 37.3352 56.1406 37.4516 55.8224C37.571 55.5014 37.6306 55.1364 37.6306 54.7273C37.6306 54.321 37.5724 53.9602 37.4559 53.6449C37.3394 53.3295 37.1661 53.0824 36.936 52.9034C36.7059 52.7244 36.419 52.6349 36.0752 52.6349C35.7457 52.6349 35.4658 52.7216 35.2357 52.8949C35.0056 53.0682 34.8309 53.3111 34.7116 53.6236C34.5951 53.9361 34.5369 54.304 34.5369 54.7273ZM43.4218 58.1278C42.7656 58.1278 42.1988 57.9915 41.7215 57.7188C41.2471 57.4432 40.882 57.054 40.6264 56.5511C40.3707 56.0455 40.2428 55.4503 40.2428 54.7656C40.2428 54.0923 40.3707 53.5014 40.6264 52.9929C40.8849 52.4815 41.2457 52.0838 41.7087 51.7997C42.1718 51.5128 42.7158 51.3693 43.3408 51.3693C43.7443 51.3693 44.1249 51.4347 44.4829 51.5653C44.8437 51.6932 45.1619 51.892 45.4374 52.1619C45.7158 52.4318 45.9346 52.7756 46.0937 53.1932C46.2528 53.608 46.3323 54.1023 46.3323 54.6761V55.1491H40.9673V54.1094H44.8536C44.8508 53.8139 44.7869 53.5511 44.6619 53.321C44.5369 53.0881 44.3622 52.9048 44.1377 52.7713C43.9161 52.6378 43.6576 52.571 43.3622 52.571C43.0468 52.571 42.7698 52.6477 42.5312 52.8011C42.2926 52.9517 42.1065 53.1506 41.9729 53.3977C41.8423 53.642 41.7755 53.9105 41.7727 54.2031V55.1108C41.7727 55.4915 41.8423 55.8182 41.9815 56.0909C42.1207 56.3608 42.3153 56.5682 42.5653 56.7131C42.8153 56.8551 43.1079 56.9261 43.4431 56.9261C43.6676 56.9261 43.8707 56.8949 44.0525 56.8324C44.2343 56.767 44.392 56.6719 44.5255 56.5469C44.659 56.4219 44.7599 56.267 44.8281 56.0824L46.2684 56.2443C46.1775 56.625 46.0042 56.9574 45.7485 57.2415C45.4957 57.5227 45.1718 57.7415 44.7769 57.8977C44.382 58.0511 43.9303 58.1278 43.4218 58.1278ZM49.18 54.1648V58H47.6374V51.4545H49.1118V52.5668H49.1885C49.3391 52.2003 49.5791 51.9091 49.9087 51.6932C50.2411 51.4773 50.6516 51.3693 51.1402 51.3693C51.5919 51.3693 51.9854 51.4659 52.3206 51.6591C52.6587 51.8523 52.92 52.1321 53.1047 52.4986C53.2922 52.8651 53.3845 53.3097 53.3817 53.8324V58H51.8391V54.071C51.8391 53.6335 51.7254 53.2912 51.4982 53.044C51.2737 52.7969 50.9627 52.6733 50.5649 52.6733C50.295 52.6733 50.055 52.733 49.8448 52.8523C49.6374 52.9687 49.474 53.1378 49.3547 53.3594C49.2382 53.581 49.18 53.8494 49.18 54.1648ZM57.3788 58.1151C56.8646 58.1151 56.4044 57.983 55.9982 57.7188C55.5919 57.4545 55.2709 57.071 55.0351 56.5682C54.7993 56.0653 54.6814 55.4545 54.6814 54.7358C54.6814 54.0085 54.8007 53.3949 55.0394 52.8949C55.2808 52.392 55.6061 52.0128 56.0152 51.7571C56.4243 51.4986 56.8803 51.3693 57.3831 51.3693C57.7666 51.3693 58.082 51.4347 58.3291 51.5653C58.5763 51.6932 58.7723 51.848 58.9172 52.0298C59.0621 52.2088 59.1743 52.3778 59.2538 52.5369H59.3178V49.2727H60.8646V58H59.3476V56.9688H59.2538C59.1743 57.1278 59.0592 57.2969 58.9087 57.4759C58.7581 57.652 58.5592 57.8026 58.3121 57.9276C58.0649 58.0526 57.7538 58.1151 57.3788 58.1151ZM57.8092 56.8494C58.1359 56.8494 58.4144 56.7614 58.6445 56.5852C58.8746 56.4062 59.0493 56.1577 59.1686 55.8395C59.2879 55.5213 59.3476 55.1506 59.3476 54.7273C59.3476 54.304 59.2879 53.9361 59.1686 53.6236C59.0521 53.3111 58.8788 53.0682 58.6487 52.8949C58.4215 52.7216 58.1416 52.6349 57.8092 52.6349C57.4655 52.6349 57.1786 52.7244 56.9484 52.9034C56.7183 53.0824 56.545 53.3295 56.4286 53.6449C56.3121 53.9602 56.2538 54.321 56.2538 54.7273C56.2538 55.1364 56.3121 55.5014 56.4286 55.8224C56.5479 56.1406 56.7226 56.392 56.9527 56.5767C57.1857 56.7585 57.4712 56.8494 57.8092 56.8494ZM65.4062 58.1278C64.7499 58.1278 64.1832 57.9915 63.7059 57.7188C63.2315 57.4432 62.8664 57.054 62.6107 56.5511C62.3551 56.0455 62.2272 55.4503 62.2272 54.7656C62.2272 54.0923 62.3551 53.5014 62.6107 52.9929C62.8693 52.4815 63.2301 52.0838 63.6931 51.7997C64.1562 51.5128 64.7002 51.3693 65.3252 51.3693C65.7286 51.3693 66.1093 51.4347 66.4673 51.5653C66.8281 51.6932 67.1462 51.892 67.4218 52.1619C67.7002 52.4318 67.919 52.7756 68.0781 53.1932C68.2372 53.608 68.3167 54.1023 68.3167 54.6761V55.1491H62.9516V54.1094H66.838C66.8352 53.8139 66.7712 53.5511 66.6462 53.321C66.5212 53.0881 66.3465 52.9048 66.1221 52.7713C65.9005 52.6378 65.642 52.571 65.3465 52.571C65.0312 52.571 64.7542 52.6477 64.5156 52.8011C64.2769 52.9517 64.0908 53.1506 63.9573 53.3977C63.8266 53.642 63.7599 53.9105 63.757 54.2031V55.1108C63.757 55.4915 63.8266 55.8182 63.9658 56.0909C64.1051 56.3608 64.2997 56.5682 64.5497 56.7131C64.7997 56.8551 65.0923 56.9261 65.4275 56.9261C65.6519 56.9261 65.8551 56.8949 66.0369 56.8324C66.2187 56.767 66.3764 56.6719 66.5099 56.5469C66.6434 56.4219 66.7443 56.267 66.8124 56.0824L68.2528 56.2443C68.1619 56.625 67.9886 56.9574 67.7329 57.2415C67.4801 57.5227 67.1562 57.7415 66.7613 57.8977C66.3664 58.0511 65.9147 58.1278 65.4062 58.1278ZM71.1644 54.1648V58H69.6217V51.4545H71.0962V52.5668H71.1729C71.3235 52.2003 71.5635 51.9091 71.8931 51.6932C72.2254 51.4773 72.636 51.3693 73.1246 51.3693C73.5763 51.3693 73.9698 51.4659 74.305 51.6591C74.6431 51.8523 74.9044 52.1321 75.0891 52.4986C75.2766 52.8651 75.3689 53.3097 75.3661 53.8324V58H73.8235V54.071C73.8235 53.6335 73.7098 53.2912 73.4825 53.044C73.2581 52.7969 72.947 52.6733 72.5493 52.6733C72.2794 52.6733 72.0394 52.733 71.8291 52.8523C71.6217 52.9687 71.4584 53.1378 71.3391 53.3594C71.2226 53.581 71.1644 53.8494 71.1644 54.1648ZM79.7894 58.1278C79.136 58.1278 78.5749 57.9844 78.1061 57.6974C77.6402 57.4105 77.2808 57.0142 77.028 56.5085C76.778 56 76.653 55.4148 76.653 54.7528C76.653 54.0881 76.7808 53.5014 77.0365 52.9929C77.2922 52.4815 77.653 52.0838 78.1189 51.7997C78.5877 51.5128 79.1416 51.3693 79.7808 51.3693C80.3121 51.3693 80.7823 51.4673 81.1913 51.6634C81.6033 51.8565 81.9314 52.1307 82.1757 52.4858C82.42 52.8381 82.5592 53.25 82.5933 53.7216H81.1189C81.0592 53.4062 80.9172 53.1435 80.6928 52.9332C80.4712 52.7202 80.1743 52.6136 79.8021 52.6136C79.4868 52.6136 79.2098 52.6989 78.9712 52.8693C78.7325 53.0369 78.5465 53.2784 78.4129 53.5938C78.2823 53.9091 78.2169 54.2869 78.2169 54.7273C78.2169 55.1733 78.2823 55.5568 78.4129 55.8778C78.5436 56.196 78.7269 56.4418 78.9627 56.6151C79.2013 56.7855 79.4811 56.8707 79.8021 56.8707C80.0294 56.8707 80.2325 56.8281 80.4115 56.7429C80.5933 56.6548 80.7453 56.5284 80.8675 56.3636C80.9896 56.1989 81.0735 55.9986 81.1189 55.7628H82.5933C82.5564 56.2259 82.42 56.6364 82.1842 56.9943C81.9485 57.3494 81.6274 57.6278 81.2212 57.8295C80.8149 58.0284 80.3377 58.1278 79.7894 58.1278ZM86.7578 58.1278C86.1015 58.1278 85.5347 57.9915 85.0575 57.7188C84.583 57.4432 84.218 57.054 83.9623 56.5511C83.7066 56.0455 83.5788 55.4503 83.5788 54.7656C83.5788 54.0923 83.7066 53.5014 83.9623 52.9929C84.2208 52.4815 84.5816 52.0838 85.0447 51.7997C85.5078 51.5128 86.0518 51.3693 86.6768 51.3693C87.0802 51.3693 87.4609 51.4347 87.8188 51.5653C88.1796 51.6932 88.4978 51.892 88.7734 52.1619C89.0518 52.4318 89.2705 52.7756 89.4296 53.1932C89.5887 53.608 89.6683 54.1023 89.6683 54.6761V55.1491H84.3032V54.1094H88.1896C88.1867 53.8139 88.1228 53.5511 87.9978 53.321C87.8728 53.0881 87.6981 52.9048 87.4737 52.7713C87.2521 52.6378 86.9935 52.571 86.6981 52.571C86.3828 52.571 86.1058 52.6477 85.8671 52.8011C85.6285 52.9517 85.4424 53.1506 85.3089 53.3977C85.1782 53.642 85.1114 53.9105 85.1086 54.2031V55.1108C85.1086 55.4915 85.1782 55.8182 85.3174 56.0909C85.4566 56.3608 85.6512 56.5682 85.9012 56.7131C86.1512 56.8551 86.4438 56.9261 86.7791 56.9261C87.0035 56.9261 87.2066 56.8949 87.3884 56.8324C87.5703 56.767 87.7279 56.6719 87.8614 56.5469C87.995 56.4219 88.0958 56.267 88.164 56.0824L89.6043 56.2443C89.5134 56.625 89.3401 56.9574 89.0845 57.2415C88.8316 57.5227 88.5078 57.7415 88.1129 57.8977C87.718 58.0511 87.2663 58.1278 86.7578 58.1278Z" fill="white"/>
</svg>
