<svg width="123" height="82" viewBox="0 0 123 82" fill="none" xmlns="http://www.w3.org/2000/svg">
<path d="M5.37884 17.7506H16.5481C19.5313 17.7506 21.8436 15.5182 21.8436 12.6436C21.8436 12.562 21.8436 12.4805 21.8436 12.399C25.1366 12.2766 27.16 10.4621 27.9238 8.505C28.2644 7.67928 27.8206 6.94534 27.0154 6.94534C26.3959 6.94534 25.8903 7.21037 24.796 7.21037C22.1637 7.21037 20.7701 5.76288 20.7701 3.39799C20.7701 2.2461 21.1314 1.61412 21.1314 1.04325C21.1314 0.207392 20.3984 -0.21056 19.4901 0.105428C17.3016 0.808793 15.4435 3.11258 15.4435 5.93618C15.4435 6.02795 15.4539 6.12987 15.4539 6.22159C14.2048 4.81486 12.4706 3.9892 10.4989 3.9892C7.08206 3.9892 4.22267 6.59878 3.88203 9.9423C2.15812 10.4826 1.00195 11.9504 1.00195 13.8056C1.00195 16.0992 2.7465 17.7506 5.37884 17.7506ZM16.961 5.90561C16.961 3.93824 18.1481 2.39902 19.5004 1.66508L19.6139 1.74661C19.4385 2.23591 19.2836 2.91889 19.2836 3.70379C19.2836 6.63955 21.4515 8.64768 24.445 8.64768C25.178 8.64768 25.8592 8.52538 26.334 8.37246L26.3959 8.4438C25.7664 9.64665 24.156 10.9107 21.5443 10.9209C20.894 9.19812 19.294 7.9545 17.25 7.6589C17.0539 7.10846 16.961 6.5172 16.961 5.90561ZM5.33751 16.1196C3.58268 16.1196 2.65357 15.1206 2.65357 13.8464C2.65357 12.7659 3.2936 11.8077 4.81105 11.4101C5.30654 11.2776 5.49237 11.0534 5.53365 10.5437C5.77108 7.68948 7.91824 5.63039 10.4989 5.63039C12.5015 5.63039 14.0603 6.71089 15.0203 8.6171C15.2371 9.05544 15.4951 9.20836 16.0216 9.20836C18.6849 9.20836 20.192 10.7883 20.192 12.6946C20.192 14.5905 18.6229 16.1196 16.5791 16.1196H5.33751ZM13.9261 21.3489H11.8718L12.8215 19.5752C12.9351 19.351 12.8422 19.1879 12.6151 19.1879H10.4576C10.1789 19.1879 10.086 19.3 9.9931 19.4937L8.6718 22.46C8.56854 22.7046 8.6718 22.8576 8.94019 22.8576H10.6641L9.3428 26.0176C9.28082 26.1501 9.31179 26.2622 9.40472 26.2928C9.50793 26.3336 9.61119 26.303 9.71439 26.1908L14.081 21.8382C14.2977 21.6241 14.2151 21.3489 13.9261 21.3489Z" fill="white"/>
<path d="M100.016 18.5625C102.945 18.5625 105.32 16.1513 105.32 13.177C105.32 10.2027 102.945 7.7915 100.016 7.7915C97.0866 7.7915 94.7119 10.2027 94.7119 13.177C94.7119 16.1513 97.0866 18.5625 100.016 18.5625Z" fill="white"/>
<path d="M100.015 0.227539C99.6563 0.227539 99.3041 0.252835 98.9526 0.282338V5.62312H101.078V0.282338C100.727 0.252835 100.374 0.227539 100.015 0.227539ZM90.9972 4.02033C90.7433 4.27813 90.5119 4.54888 90.2838 4.82213L94.0032 8.59863L95.5063 7.07253L91.7869 3.29603C91.5177 3.52755 91.2511 3.76253 90.9972 4.02033ZM87.2617 13.1769C87.2617 13.5415 87.2866 13.8991 87.3157 14.2561H92.5757V12.0978H87.3157C87.2866 12.4547 87.2617 12.8124 87.2617 13.1769ZM90.9972 22.3335C91.2511 22.5913 91.5177 22.8263 91.7869 23.0578L95.5063 19.2813L94.0032 17.7552L90.2838 21.5317C90.5119 21.805 90.7433 22.0757 90.9972 22.3335ZM100.015 26.1263C100.374 26.1263 100.727 26.101 101.078 26.0715V20.7307H98.9526V26.0715C99.3041 26.101 99.6563 26.1263 100.015 26.1263ZM109.034 22.3335C109.287 22.0757 109.519 21.805 109.747 21.5317L106.028 17.7552L104.524 19.2813L108.244 23.0578C108.513 22.8263 108.78 22.5913 109.034 22.3335ZM112.769 13.1769C112.769 12.8124 112.744 12.4547 112.715 12.0978H107.455V14.2561H112.715C112.744 13.8991 112.769 13.5415 112.769 13.1769ZM109.034 4.02033C108.78 3.76253 108.513 3.52755 108.244 3.29603L104.524 7.07253L106.028 8.59863L109.747 4.82213C109.519 4.54888 109.287 4.27813 109.034 4.02033Z" fill="white"/>
<path d="M63.288 15.3628C62.9576 15.3628 62.7373 15.2516 62.5169 15.0293C61.5256 14.0289 61.085 12.8062 61.085 11.4723C61.085 8.69336 63.288 6.47022 66.0418 6.47022H66.7028C67.2535 3.9136 69.4566 2.02393 72.1003 2.02393C74.7439 2.02393 76.947 3.9136 77.4977 6.47022H78.1587C80.9125 6.47022 83.1155 8.69336 83.1155 11.4723C83.1155 12.8062 82.5648 14.0289 81.6836 14.9182C81.2429 15.3628 80.582 15.3628 80.1414 14.9182C79.7008 14.4735 79.7008 13.8066 80.1414 13.362C80.6922 12.8062 80.9125 12.1392 80.9125 11.4723C80.9125 9.91609 79.7008 8.69336 78.1587 8.69336H76.5064C75.8454 8.69336 75.4048 8.24873 75.4048 7.58179C75.4048 5.69212 73.9728 4.24707 72.1003 4.24707C70.2277 4.24707 68.7957 5.69212 68.7957 7.58179C68.7957 8.24873 68.3551 8.69336 67.6941 8.69336H66.0418C64.4997 8.69336 63.288 9.91609 63.288 11.4723C63.288 12.2504 63.6185 12.9173 64.0591 13.4731C64.4997 13.9178 64.4997 14.5847 64.0591 15.0293C63.8388 15.2516 63.6185 15.3628 63.288 15.3628Z" fill="white"/>
<path d="M67.6937 17.5857C67.5836 17.5857 67.3633 17.5857 67.2531 17.4746C66.7023 17.2523 66.482 16.5853 66.8125 16.0295L67.914 13.8064C68.1343 13.2506 68.7952 13.0283 69.346 13.3618C69.8968 13.5841 70.1171 14.251 69.7866 14.8068L68.6851 17.0299C68.4648 17.3634 68.1343 17.5857 67.6937 17.5857Z" fill="white"/>
<path d="M75.4047 17.5857C75.2945 17.5857 75.0742 17.5857 74.964 17.4746C74.4133 17.2523 74.193 16.5853 74.5234 16.0295L75.625 13.8064C75.8453 13.2506 76.5062 13.0283 77.0569 13.3618C77.6077 13.5841 77.828 14.251 77.4976 14.8068L76.396 17.0299C76.1757 17.3634 75.8453 17.5857 75.4047 17.5857Z" fill="white"/>
<path d="M63.2875 23.1434C63.1773 23.1434 62.957 23.1434 62.8469 23.0322C62.2961 22.8099 62.0758 22.1429 62.4062 21.5872L63.5078 19.364C63.7281 18.8082 64.389 18.5859 64.9398 18.9194C65.4905 19.1417 65.7108 19.8086 65.3804 20.3644L64.2788 22.5876C64.0585 22.921 63.7281 23.1434 63.2875 23.1434Z" fill="white"/>
<path d="M70.9984 23.1438C70.8882 23.1438 70.6679 23.1438 70.5578 23.0327C70.007 22.8104 69.7867 22.1434 70.1172 21.5876L71.2187 19.3645C71.439 18.8087 72.0999 18.5864 72.6507 18.9199C73.2015 19.1422 73.4218 19.8091 73.0913 20.3649L71.9898 22.5881C71.7695 22.9215 71.439 23.1438 70.9984 23.1438Z" fill="white"/>
<path d="M78.7084 23.1438C78.5982 23.1438 78.3779 23.1438 78.2678 23.0327C77.717 22.8104 77.4967 22.1434 77.8271 21.5876L78.9287 19.3645C79.149 18.8087 79.8099 18.5864 80.3607 18.9199C80.9114 19.1422 81.1317 19.8091 80.8013 20.3649L79.6997 22.5881C79.4794 22.9215 79.149 23.1438 78.7084 23.1438Z" fill="white"/>
<path d="M39.7247 27.1194C39.5919 26.9919 39.5088 26.8143 39.5088 26.6196C39.5088 26.4249 39.5907 26.2474 39.7247 26.1199L40.6274 25.2536H40.3332C40.2822 25.2536 40.2324 25.2479 40.1838 25.2388L40.1885 25.2399C40.166 25.2365 40.1458 25.2274 40.1233 25.2217C40.0948 25.2149 40.0699 25.208 40.0474 25.1989L40.0509 25.2001C40.0213 25.1875 39.9975 25.175 39.9738 25.1614L39.9774 25.1636C39.956 25.1545 39.9394 25.1443 39.9228 25.134L39.9252 25.1352C39.8433 25.0828 39.7745 25.0168 39.7211 24.9417L39.72 24.9394C39.7081 24.9223 39.6998 24.9029 39.6891 24.8859C39.6784 24.8688 39.6654 24.846 39.6547 24.8233L39.6523 24.8187C39.6429 24.7948 39.6357 24.7698 39.6286 24.7459C39.6227 24.7288 39.6156 24.7083 39.6108 24.6867L39.6096 24.6832C39.6002 24.6411 39.5954 24.5933 39.5954 24.5444C39.5954 24.4954 39.6002 24.4476 39.6108 24.4009L39.6096 24.4055C39.6144 24.3839 39.6215 24.3656 39.6286 24.3429C39.6357 24.3201 39.6417 24.2939 39.6523 24.2712C39.6654 24.2438 39.6773 24.2222 39.6915 24.2006L39.6891 24.204C39.6998 24.1858 39.7081 24.1664 39.72 24.1493C39.7484 24.1095 39.7781 24.0754 39.8101 24.0435L41.8813 22.0559C42.0141 21.9284 42.1992 21.8487 42.402 21.8487C42.8089 21.8487 43.1387 22.1652 43.1387 22.5556C43.1387 22.7514 43.0556 22.9279 42.9228 23.0554L42.1078 23.8374H42.4032C42.453 23.8374 42.5028 23.842 42.5503 23.8522L42.5455 23.8511C42.5716 23.8568 42.5942 23.8636 42.6143 23.8716L42.6096 23.8704C42.6381 23.8773 42.6618 23.8841 42.6855 23.8932L42.6808 23.8921C42.7104 23.9046 42.7353 23.9183 42.7591 23.9319L42.7555 23.9296C42.7733 23.9387 42.7899 23.9456 42.8077 23.9558C42.8895 24.0082 42.9572 24.0742 43.0105 24.1493L43.0117 24.1516C43.0236 24.1687 43.0319 24.1869 43.0426 24.2051C43.0544 24.2245 43.0675 24.2461 43.0782 24.27L43.0793 24.2734C43.0865 24.2916 43.0948 24.3155 43.1019 24.3406L43.1031 24.3463C43.109 24.3622 43.1149 24.3839 43.1209 24.4043L43.122 24.4078C43.1315 24.4499 43.1363 24.4977 43.1375 24.5466C43.1375 24.5944 43.1327 24.6423 43.122 24.6867L43.1232 24.6821C43.1185 24.7037 43.1102 24.7254 43.1043 24.7447C43.0971 24.772 43.09 24.7948 43.0805 24.8164L43.0817 24.8119C43.0687 24.8403 43.0556 24.8642 43.0402 24.887L43.0414 24.8847C43.0319 24.9018 43.0248 24.9177 43.0141 24.9348C42.9856 24.9758 42.9548 25.0111 42.9216 25.0441L40.7638 27.1148C40.631 27.2423 40.4459 27.322 40.2431 27.322C40.0402 27.322 39.8552 27.2423 39.7223 27.1148L39.7247 27.1194ZM36.79 23.3741C36.6571 23.2466 36.5741 23.069 36.5741 22.8744C36.5741 22.6797 36.656 22.5021 36.79 22.3746L39.1031 20.1548H37.4543C37.4033 20.1548 37.3535 20.1491 37.306 20.14L37.3107 20.1412C37.2882 20.1366 37.268 20.1286 37.2455 20.1229C37.217 20.1161 37.1921 20.1081 37.1684 20.099L37.172 20.1002C37.1435 20.0876 37.1198 20.0751 37.0972 20.0626L37.1008 20.0649C37.0782 20.0546 37.0605 20.0455 37.0427 20.0353L37.045 20.0364C36.9632 19.9841 36.8956 19.9192 36.8422 19.8429L36.841 19.8406C36.8291 19.8247 36.822 19.8065 36.8113 19.7894C36.7829 19.7496 36.7603 19.7029 36.7473 19.6517L36.7461 19.6482C36.7402 19.6323 36.7331 19.6118 36.7271 19.5902L36.7259 19.5856C36.7165 19.5435 36.7117 19.4968 36.7117 19.4479C36.7117 19.3989 36.7165 19.3511 36.7271 19.3056L36.7259 19.3101C36.7319 19.2851 36.739 19.2646 36.7473 19.2441L36.7461 19.2487C36.7532 19.2202 36.7615 19.1974 36.7698 19.1747L36.7686 19.1792C36.7817 19.1508 36.7947 19.128 36.8102 19.1052L36.809 19.1075C36.8197 19.087 36.8291 19.0711 36.8386 19.0551L36.8374 19.0574C36.8659 19.0164 36.8968 18.9812 36.93 18.9481L39.0984 16.8672H36.3582C33.4235 16.8672 31.0439 14.5836 31.0439 11.7673C31.0439 8.95099 33.4235 6.66742 36.3582 6.66742C36.4412 6.66742 36.5231 6.67425 36.6049 6.67767C37.8588 4.55689 40.1921 3.14759 42.8706 3.14076H42.8718H42.8789C43.8955 3.14076 44.8622 3.34453 45.7365 3.71222L45.6902 3.69514C46.7424 1.49809 49.0164 0 51.6545 0C51.7779 0 51.9001 0.0034151 52.0223 0.0102453L52.0056 0.00910695C52.3947 0.0295976 52.7031 0.336957 52.7031 0.714895V0.735386V0.734248C52.6996 0.866298 52.6593 0.988104 52.5916 1.0917L52.5928 1.08828C52.269 1.64153 52.078 2.30406 52.078 3.00757C52.078 5.20348 53.9333 6.98389 56.2215 6.98389C56.4753 6.98389 56.7244 6.96226 56.9652 6.92014L56.9403 6.92356L57.2345 6.8803C57.2677 6.87575 57.3057 6.87233 57.3448 6.87233C57.7517 6.87233 58.0815 7.1888 58.0815 7.57926C58.0815 7.63618 58.0744 7.69082 58.0613 7.74432L58.0625 7.73977C57.4338 10.2294 55.3318 12.1191 52.7126 12.5289L52.6747 12.5334C52.7494 12.7964 52.7921 13.0992 52.7921 13.4111C52.7921 15.319 51.18 16.8661 49.1919 16.8661C49.1872 16.8661 49.1824 16.8661 49.1777 16.8661H46.8337L46.2359 17.4398H46.5301C46.5811 17.4398 46.6309 17.4455 46.6795 17.4546L46.6748 17.4535C46.7009 17.4592 46.7234 17.466 46.7436 17.474L46.7388 17.4728C46.7685 17.4808 46.7922 17.4876 46.8159 17.4967L46.8112 17.4956C46.8408 17.5081 46.8646 17.5206 46.8883 17.5354L46.8859 17.5343C46.9037 17.5434 46.9215 17.5514 46.9381 17.5616C47.02 17.614 47.0876 17.68 47.141 17.7551L47.1421 17.7574C47.1516 17.7722 47.1623 17.7893 47.1706 17.8075L47.1718 17.8109C47.1837 17.8291 47.1967 17.8519 47.2074 17.8747L47.2098 17.8792C47.2169 17.8974 47.2252 17.9213 47.2323 17.9464L47.2335 17.9509C47.2394 17.9669 47.2453 17.9885 47.2513 18.009L47.2525 18.0124C47.262 18.0545 47.2667 18.1023 47.2679 18.1513C47.2679 18.1991 47.2631 18.2469 47.2525 18.2913L47.2537 18.2867C47.2477 18.3118 47.2406 18.3323 47.2323 18.3528L47.2335 18.3494C47.2276 18.3687 47.2216 18.3949 47.2121 18.4165C47.1979 18.445 47.1849 18.4689 47.1706 18.4917L47.173 18.4882C47.1635 18.5053 47.1564 18.5213 47.1457 18.5383C47.1172 18.5793 47.0864 18.6146 47.052 18.6465L44.8931 20.7183C44.7602 20.8458 44.5752 20.9255 44.3723 20.9255C43.9654 20.9255 43.6357 20.609 43.6357 20.2186C43.6357 20.0239 43.7175 19.8463 43.8516 19.7188L44.7531 18.8537H44.4589C44.4079 18.8537 44.3581 18.848 44.3106 18.8389L44.3154 18.84C44.2928 18.8366 44.2715 18.8275 44.2501 18.8218C44.2205 18.815 44.1968 18.807 44.173 18.7979L44.1778 18.799C44.1481 18.7865 44.1244 18.774 44.1007 18.7603L44.1042 18.7626C44.0864 18.7535 44.0686 18.7455 44.0509 18.7341C43.969 18.6818 43.9014 18.6157 43.848 18.5406L43.8468 18.5383C43.835 18.5213 43.8267 18.5019 43.816 18.4848C43.8041 18.4666 43.7923 18.4438 43.7804 18.4211L43.778 18.4165C43.7709 18.3983 43.7626 18.3733 43.7555 18.3494L43.7543 18.3448C43.7484 18.3289 43.7424 18.3072 43.7365 18.2867L43.7353 18.2833C43.7258 18.2412 43.7211 18.1934 43.7199 18.1445C43.7199 18.0966 43.7258 18.0488 43.7353 18.0033L43.7341 18.0078C43.7389 17.9862 43.7472 17.9657 43.7531 17.9452C43.759 17.9247 43.7662 17.8997 43.7757 17.8769C43.7899 17.8473 43.8029 17.8246 43.8172 17.8018L43.8148 17.8052C43.8243 17.7893 43.8326 17.7711 43.8433 17.7551C43.8717 17.7141 43.9026 17.6789 43.9358 17.6458L44.7495 16.8649H41.1838L39.2301 18.7398H40.8801C40.9311 18.7398 40.9809 18.7444 41.0296 18.7546L41.0248 18.7535C41.0473 18.758 41.0675 18.766 41.09 18.7717C41.1197 18.7785 41.1446 18.7865 41.1683 18.7956L41.1636 18.7945C41.1921 18.807 41.2158 18.8195 41.2383 18.832L41.2348 18.8298C41.2526 18.84 41.2727 18.8468 41.2893 18.8593C41.3712 18.9117 41.4388 18.9766 41.4922 19.0529L41.4934 19.0551C41.504 19.0711 41.5123 19.0882 41.5218 19.1052C41.5349 19.1246 41.5479 19.1485 41.5598 19.1724L41.561 19.177C41.5681 19.1952 41.5764 19.2179 41.5823 19.2407L41.5835 19.2453C41.5894 19.2669 41.5989 19.2862 41.6025 19.3079C41.612 19.35 41.6167 19.3967 41.6167 19.4456C41.6167 19.4946 41.612 19.5424 41.6013 19.5879L41.6025 19.5833C41.5978 19.605 41.5894 19.6255 41.5835 19.646C41.5764 19.6744 41.5681 19.6972 41.5598 19.72L41.561 19.7154C41.5479 19.7439 41.5349 19.7666 41.5195 19.7894L41.5206 19.7871C41.5112 19.8065 41.5017 19.8235 41.491 19.8395L41.4922 19.8372C41.4637 19.8793 41.4329 19.9158 41.3997 19.9488L37.8291 23.3753C37.6963 23.5028 37.5112 23.5824 37.3084 23.5824C37.1055 23.5824 36.9205 23.5039 36.7876 23.3753L36.79 23.3741ZM32.5172 11.765C32.5196 13.7993 34.2373 15.4488 36.357 15.4511H49.1813C50.3639 15.4511 51.3212 14.5313 51.3212 13.3963C51.3212 12.2614 50.3627 11.3416 49.1801 11.3416C48.6522 11.3416 48.1694 11.5248 47.7958 11.8288L47.7993 11.8265C47.6712 11.9301 47.5051 11.9938 47.3236 11.9938C46.9168 11.9938 46.587 11.6774 46.587 11.2869C46.587 11.0706 46.6878 10.8771 46.8468 10.7473L46.848 10.7462C47.3189 10.3614 47.9025 10.0905 48.5431 9.98121L48.5644 9.9778C48.5431 6.97592 46.0034 4.5512 42.8729 4.5512C40.9145 4.5512 39.1874 5.5006 38.1625 6.94519L38.1494 6.96454C38.7342 7.16831 39.2407 7.44379 39.6867 7.78758L39.6761 7.77961C39.8291 7.90938 39.9264 8.09949 39.9264 8.31009C39.9264 8.70055 39.5966 9.01702 39.1897 9.01702C39.0272 9.01702 38.8754 8.96579 38.7544 8.88041L38.7568 8.88155C38.1103 8.37839 37.2787 8.07445 36.3713 8.07445C36.3677 8.07445 36.3641 8.07445 36.3606 8.07445C34.2384 8.07559 32.5172 9.72622 32.5172 11.7639V11.765ZM46.9808 4.38727C48.8396 5.64517 50.0389 7.69765 50.0401 10.0188V10.0324C50.8182 10.2191 51.479 10.6278 51.9618 11.1833L51.9665 11.189C53.868 11.0752 55.4777 9.97894 56.2618 8.42734L56.2749 8.39774C56.2618 8.39774 56.2464 8.39774 56.231 8.39774C53.1254 8.39774 50.6083 5.98213 50.6083 3.00188C50.6083 2.45888 50.6913 1.93523 50.8467 1.44117L50.836 1.47988C49.0899 1.76219 47.6653 2.86755 46.9927 4.35654L46.9796 4.38841L46.9808 4.38727Z" fill="white"/>
<path d="M15.9436 44.605V35.8777H19.2164C19.8868 35.8777 20.4493 36.0027 20.9039 36.2527C21.3612 36.5027 21.7064 36.8465 21.9394 37.284C22.1752 37.7186 22.2931 38.2129 22.2931 38.7669C22.2931 39.3266 22.1752 39.8237 21.9394 40.2584C21.7036 40.693 21.3556 41.0354 20.8953 41.2854C20.4351 41.5325 19.8683 41.6561 19.195 41.6561H17.026V40.3564H18.982C19.374 40.3564 19.695 40.2882 19.945 40.1519C20.195 40.0155 20.3797 39.828 20.499 39.5894C20.6212 39.3507 20.6823 39.0766 20.6823 38.7669C20.6823 38.4573 20.6212 38.1845 20.499 37.9487C20.3797 37.7129 20.1936 37.5297 19.9408 37.399C19.6908 37.2655 19.3683 37.1987 18.9735 37.1987H17.5246V44.605H15.9436ZM23.5981 44.605V38.0595H25.0938V39.1504H25.162C25.2813 38.7726 25.4859 38.4814 25.7757 38.2769C26.0683 38.0695 26.4021 37.9658 26.7771 37.9658C26.8623 37.9658 26.9575 37.97 27.0626 37.9786C27.1705 37.9842 27.26 37.9942 27.3311 38.0084V39.4274C27.2657 39.4047 27.162 39.3848 27.02 39.3678C26.8808 39.3479 26.7458 39.3379 26.6151 39.3379C26.3339 39.3379 26.0811 39.399 25.8566 39.5212C25.635 39.6405 25.4603 39.8067 25.3325 40.0198C25.2046 40.2328 25.1407 40.4786 25.1407 40.757V44.605H23.5981ZM30.9415 44.7328C30.3023 44.7328 29.7483 44.5922 29.2796 44.3109C28.8108 44.0297 28.4472 43.6362 28.1887 43.1305C27.933 42.6249 27.8051 42.034 27.8051 41.3578C27.8051 40.6817 27.933 40.0894 28.1887 39.5808C28.4472 39.0723 28.8108 38.6774 29.2796 38.3962C29.7483 38.1149 30.3023 37.9743 30.9415 37.9743C31.5807 37.9743 32.1347 38.1149 32.6034 38.3962C33.0722 38.6774 33.4344 39.0723 33.6901 39.5808C33.9486 40.0894 34.0779 40.6817 34.0779 41.3578C34.0779 42.034 33.9486 42.6249 33.6901 43.1305C33.4344 43.6362 33.0722 44.0297 32.6034 44.3109C32.1347 44.5922 31.5807 44.7328 30.9415 44.7328ZM30.95 43.497C31.2966 43.497 31.5864 43.4019 31.8193 43.2115C32.0523 43.0183 32.2256 42.7598 32.3392 42.4359C32.4557 42.1121 32.5139 41.7513 32.5139 41.3536C32.5139 40.953 32.4557 40.5908 32.3392 40.2669C32.2256 39.9402 32.0523 39.6803 31.8193 39.4871C31.5864 39.2939 31.2966 39.1973 30.95 39.1973C30.5949 39.1973 30.2994 39.2939 30.0637 39.4871C29.8307 39.6803 29.656 39.9402 29.5395 40.2669C29.4259 40.5908 29.3691 40.953 29.3691 41.3536C29.3691 41.7513 29.4259 42.1121 29.5395 42.4359C29.656 42.7598 29.8307 43.0183 30.0637 43.2115C30.2994 43.4019 30.5949 43.497 30.95 43.497ZM37.8161 44.72C37.3019 44.72 36.8417 44.5879 36.4355 44.3237C36.0292 44.0595 35.7082 43.676 35.4724 43.1732C35.2366 42.6703 35.1187 42.0595 35.1187 41.3408C35.1187 40.6135 35.238 39.9999 35.4766 39.4999C35.7181 38.997 36.0434 38.6178 36.4525 38.3621C36.8616 38.1036 37.3176 37.9743 37.8204 37.9743C38.2039 37.9743 38.5193 38.0396 38.7664 38.1703C39.0136 38.2982 39.2096 38.453 39.3545 38.6348C39.4994 38.8138 39.6116 38.9828 39.6911 39.1419H39.7551V35.8777H41.3019V44.605H39.7849V43.5737H39.6911C39.6116 43.7328 39.4965 43.9019 39.346 44.0808C39.1954 44.257 38.9965 44.4075 38.7494 44.5325C38.5022 44.6575 38.1911 44.72 37.8161 44.72ZM38.2465 43.4544C38.5732 43.4544 38.8516 43.3663 39.0818 43.1902C39.3119 43.0112 39.4866 42.7627 39.6059 42.4445C39.7252 42.1263 39.7849 41.7555 39.7849 41.3323C39.7849 40.909 39.7252 40.5411 39.6059 40.2286C39.4894 39.9161 39.3161 39.6732 39.086 39.4999C38.8588 39.3266 38.5789 39.2399 38.2465 39.2399C37.9028 39.2399 37.6159 39.3294 37.3857 39.5084C37.1556 39.6874 36.9823 39.9345 36.8659 40.2499C36.7494 40.5652 36.6911 40.926 36.6911 41.3323C36.6911 41.7413 36.7494 42.1064 36.8659 42.4274C36.9852 42.7456 37.1599 42.997 37.39 43.1817C37.623 43.3635 37.9085 43.4544 38.2465 43.4544ZM47.1176 41.8521V38.0595H48.6602V44.605H47.1645V43.4416H47.0963C46.9486 43.8081 46.7057 44.1078 46.3676 44.3408C46.0324 44.5737 45.6191 44.6902 45.1276 44.6902C44.6986 44.6902 44.3193 44.595 43.9898 44.4047C43.6631 44.2115 43.4074 43.9317 43.2227 43.5652C43.0381 43.1959 42.9458 42.7499 42.9458 42.2271V38.0595H44.4884V41.9885C44.4884 42.4033 44.602 42.7328 44.8293 42.9771C45.0566 43.2215 45.3548 43.3436 45.7242 43.3436C45.9514 43.3436 46.1716 43.2882 46.3847 43.1774C46.5977 43.0666 46.7725 42.9019 46.9088 42.6831C47.048 42.4615 47.1176 42.1845 47.1176 41.8521ZM53.1016 44.7328C52.4482 44.7328 51.8872 44.5894 51.4184 44.3024C50.9525 44.0155 50.5931 43.6192 50.3403 43.1135C50.0903 42.605 49.9653 42.0198 49.9653 41.3578C49.9653 40.693 50.0931 40.1064 50.3488 39.5979C50.6045 39.0865 50.9653 38.6888 51.4312 38.4047C51.8999 38.1178 52.4539 37.9743 53.0931 37.9743C53.6244 37.9743 54.0945 38.0723 54.5036 38.2683C54.9156 38.4615 55.2437 38.7357 55.488 39.0908C55.7323 39.443 55.8715 39.855 55.9056 40.3266H54.4312C54.3715 40.0112 54.2295 39.7484 54.0051 39.5382C53.7835 39.3252 53.4866 39.2186 53.1144 39.2186C52.7991 39.2186 52.5221 39.3038 52.2835 39.4743C52.0448 39.6419 51.8588 39.8834 51.7252 40.1987C51.5945 40.5141 51.5292 40.8919 51.5292 41.3323C51.5292 41.7783 51.5945 42.1618 51.7252 42.4828C51.8559 42.801 52.0391 43.0467 52.2749 43.22C52.5136 43.3905 52.7934 43.4757 53.1144 43.4757C53.3417 43.4757 53.5448 43.4331 53.7238 43.3479C53.9056 43.2598 54.0576 43.1334 54.1798 42.9686C54.3019 42.8038 54.3857 42.6036 54.4312 42.3678H55.9056C55.8687 42.8308 55.7323 43.2413 55.4965 43.5993C55.2607 43.9544 54.9397 44.2328 54.5335 44.4345C54.1272 44.6334 53.6499 44.7328 53.1016 44.7328ZM60.07 44.7328C59.4138 44.7328 58.847 44.5965 58.3698 44.3237C57.8953 44.0482 57.5303 43.659 57.2746 43.1561C57.0189 42.6504 56.8911 42.0553 56.8911 41.3706C56.8911 40.6973 57.0189 40.1064 57.2746 39.5979C57.5331 39.0865 57.8939 38.6888 58.357 38.4047C58.82 38.1178 59.3641 37.9743 59.9891 37.9743C60.3925 37.9743 60.7732 38.0396 61.1311 38.1703C61.4919 38.2982 61.8101 38.497 62.0857 38.7669C62.3641 39.0368 62.5828 39.3805 62.7419 39.7982C62.901 40.2129 62.9806 40.7073 62.9806 41.2811V41.7541H57.6155V40.7144H61.5019C61.499 40.4189 61.4351 40.1561 61.3101 39.926C61.1851 39.693 61.0104 39.5098 60.786 39.3763C60.5644 39.2428 60.3058 39.176 60.0104 39.176C59.695 39.176 59.4181 39.2527 59.1794 39.4061C58.9408 39.5567 58.7547 39.7555 58.6212 40.0027C58.4905 40.247 58.4237 40.5155 58.4209 40.8081V41.7158C58.4209 42.0965 58.4905 42.4232 58.6297 42.6959C58.7689 42.9658 58.9635 43.1732 59.2135 43.318C59.4635 43.4601 59.7561 43.5311 60.0914 43.5311C60.3158 43.5311 60.5189 43.4999 60.7007 43.4374C60.8825 43.372 61.0402 43.2769 61.1737 43.1519C61.3073 43.0269 61.4081 42.872 61.4763 42.6874L62.9166 42.8493C62.8257 43.23 62.6524 43.5624 62.3967 43.8465C62.1439 44.1277 61.82 44.3465 61.4252 44.5027C61.0303 44.6561 60.5786 44.7328 60.07 44.7328ZM67.3303 44.605V35.8777H73.0065V37.203H68.9113V39.5723H72.7124V40.8976H68.9113V43.2797H73.0406V44.605H67.3303ZM76.0938 40.7698V44.605H74.5512V38.0595H76.0257V39.1717H76.1024C76.2529 38.8053 76.493 38.5141 76.8225 38.2982C77.1549 38.0823 77.5654 37.9743 78.0541 37.9743C78.5058 37.9743 78.8992 38.0709 79.2345 38.2641C79.5725 38.4573 79.8339 38.7371 80.0185 39.1036C80.206 39.47 80.2984 39.9146 80.2955 40.4374V44.605H78.7529V40.676C78.7529 40.2385 78.6393 39.8962 78.412 39.649C78.1876 39.4019 77.8765 39.2783 77.4788 39.2783C77.2089 39.2783 76.9688 39.3379 76.7586 39.4573C76.5512 39.5737 76.3879 39.7428 76.2685 39.9644C76.1521 40.1859 76.0938 40.4544 76.0938 40.7698ZM84.7614 44.7328C84.1052 44.7328 83.5384 44.5965 83.0612 44.3237C82.5867 44.0482 82.2217 43.659 81.966 43.1561C81.7103 42.6504 81.5825 42.0553 81.5825 41.3706C81.5825 40.6973 81.7103 40.1064 81.966 39.5979C82.2245 39.0865 82.5853 38.6888 83.0484 38.4047C83.5114 38.1178 84.0555 37.9743 84.6805 37.9743C85.0839 37.9743 85.4646 38.0396 85.8225 38.1703C86.1833 38.2982 86.5015 38.497 86.7771 38.7669C87.0555 39.0368 87.2742 39.3805 87.4333 39.7982C87.5924 40.2129 87.672 40.7073 87.672 41.2811V41.7541H82.3069V40.7144H86.1933C86.1904 40.4189 86.1265 40.1561 86.0015 39.926C85.8765 39.693 85.7018 39.5098 85.4774 39.3763C85.2558 39.2428 84.9972 39.176 84.7018 39.176C84.3864 39.176 84.1095 39.2527 83.8708 39.4061C83.6322 39.5567 83.4461 39.7555 83.3126 40.0027C83.1819 40.247 83.1151 40.5155 83.1123 40.8081V41.7158C83.1123 42.0965 83.1819 42.4232 83.3211 42.6959C83.4603 42.9658 83.6549 43.1732 83.9049 43.318C84.1549 43.4601 84.4475 43.5311 84.7828 43.5311C85.0072 43.5311 85.2103 43.4999 85.3921 43.4374C85.5739 43.372 85.7316 43.2769 85.8651 43.1519C85.9987 43.0269 86.0995 42.872 86.1677 42.6874L87.608 42.8493C87.5171 43.23 87.3438 43.5624 87.0882 43.8465C86.8353 44.1277 86.5114 44.3465 86.1166 44.5027C85.7217 44.6561 85.27 44.7328 84.7614 44.7328ZM88.977 44.605V38.0595H90.4727V39.1504H90.5409C90.6602 38.7726 90.8648 38.4814 91.1546 38.2769C91.4472 38.0695 91.781 37.9658 92.156 37.9658C92.2412 37.9658 92.3364 37.97 92.4415 37.9786C92.5494 37.9842 92.6389 37.9942 92.71 38.0084V39.4274C92.6446 39.4047 92.5409 39.3848 92.3989 39.3678C92.2597 39.3479 92.1247 39.3379 91.994 39.3379C91.7128 39.3379 91.46 39.399 91.2355 39.5212C91.0139 39.6405 90.8392 39.8067 90.7114 40.0198C90.5835 40.2328 90.5196 40.4786 90.5196 40.757V44.605H88.977ZM96.3119 47.1959C95.7579 47.1959 95.282 47.1206 94.8843 46.97C94.4866 46.8223 94.167 46.6234 93.9255 46.3734C93.684 46.1234 93.5164 45.8465 93.4227 45.5425L94.8119 45.2058C94.8744 45.3337 94.9653 45.4601 95.0846 45.5851C95.2039 45.7129 95.3644 45.818 95.5661 45.9004C95.7707 45.9857 96.0278 46.0283 96.3374 46.0283C96.7749 46.0283 97.1372 45.9217 97.4241 45.7087C97.711 45.4984 97.8545 45.1519 97.8545 44.6689V43.4288H97.7778C97.6982 43.5879 97.5818 43.7513 97.4284 43.9189C97.2778 44.0865 97.0775 44.2271 96.8275 44.3408C96.5803 44.4544 96.2693 44.5112 95.8943 44.5112C95.3914 44.5112 94.9355 44.3933 94.5264 44.1575C94.1201 43.9189 93.7962 43.5638 93.5548 43.0922C93.3161 42.6178 93.1968 42.024 93.1968 41.3109C93.1968 40.5922 93.3161 39.9857 93.5548 39.4913C93.7962 38.9942 94.1215 38.6178 94.5306 38.3621C94.9397 38.1036 95.3957 37.9743 95.8985 37.9743C96.282 37.9743 96.5974 38.0396 96.8445 38.1703C97.0945 38.2982 97.2934 38.453 97.4411 38.6348C97.5889 38.8138 97.7011 38.9828 97.7778 39.1419H97.863V38.0595H99.3843V44.7115C99.3843 45.2712 99.2508 45.7342 98.9837 46.1007C98.7167 46.4672 98.3516 46.7413 97.8886 46.9232C97.4255 47.105 96.8999 47.1959 96.3119 47.1959ZM96.3247 43.301C96.6514 43.301 96.9298 43.2215 97.1599 43.0624C97.39 42.9033 97.5647 42.6746 97.684 42.3763C97.8034 42.078 97.863 41.72 97.863 41.3024C97.863 40.8905 97.8034 40.5297 97.684 40.22C97.5676 39.9104 97.3943 39.6703 97.1641 39.4999C96.9369 39.3266 96.657 39.2399 96.3247 39.2399C95.9809 39.2399 95.694 39.3294 95.4639 39.5084C95.2337 39.6874 95.0605 39.9331 94.944 40.2456C94.8275 40.5553 94.7693 40.9075 94.7693 41.3024C94.7693 41.703 94.8275 42.0538 94.944 42.355C95.0633 42.6533 95.238 42.8862 95.4681 43.0538C95.7011 43.2186 95.9866 43.301 96.3247 43.301ZM101.924 47.0595C101.714 47.0595 101.519 47.0425 101.34 47.0084C101.164 46.9771 101.024 46.9402 100.918 46.8976L101.276 45.6959C101.501 45.7612 101.701 45.7925 101.877 45.7896C102.053 45.7868 102.208 45.7314 102.342 45.6234C102.478 45.5183 102.593 45.3422 102.687 45.095L102.819 44.7413L100.445 38.0595H102.082L103.59 43.0027H103.658L105.171 38.0595H106.812L104.191 45.3976C104.069 45.7442 103.907 46.0411 103.705 46.2882C103.504 46.5382 103.256 46.7286 102.964 46.8592C102.674 46.9928 102.327 47.0595 101.924 47.0595ZM29.1608 59.605H26.2034V50.8777H29.2204C30.0869 50.8777 30.8312 51.0524 31.4534 51.4019C32.0784 51.7484 32.5585 52.247 32.8937 52.8976C33.229 53.5482 33.3966 54.3266 33.3966 55.2328C33.3966 56.1419 33.2275 56.9232 32.8895 57.5766C32.5542 58.23 32.0699 58.7314 31.4363 59.0808C30.8057 59.4303 30.0471 59.605 29.1608 59.605ZM27.7844 58.2371H29.0841C29.692 58.2371 30.1991 58.1263 30.6054 57.9047C31.0116 57.6803 31.317 57.3465 31.5216 56.9033C31.7261 56.4573 31.8284 55.9004 31.8284 55.2328C31.8284 54.5652 31.7261 54.0112 31.5216 53.5709C31.317 53.1277 31.0145 52.7967 30.6139 52.578C30.2162 52.3564 29.7219 52.2456 29.1309 52.2456H27.7844V58.2371ZM36.714 59.7371C36.2993 59.7371 35.9257 59.6632 35.5933 59.5155C35.2638 59.3649 35.0024 59.1433 34.8092 58.8507C34.6189 58.5581 34.5237 58.1973 34.5237 57.7683C34.5237 57.399 34.5919 57.0936 34.7282 56.8521C34.8646 56.6107 35.0507 56.4175 35.2865 56.2726C35.5223 56.1277 35.7879 56.0183 36.0834 55.9445C36.3817 55.8678 36.6899 55.8124 37.0081 55.7783C37.3916 55.7385 37.7027 55.703 37.9413 55.6717C38.18 55.6377 38.3532 55.5865 38.4612 55.5183C38.572 55.4473 38.6274 55.3379 38.6274 55.1902V55.1646C38.6274 54.8436 38.5322 54.595 38.3419 54.4189C38.1515 54.2428 37.8774 54.1547 37.5194 54.1547C37.1416 54.1547 36.8419 54.2371 36.6203 54.4019C36.4015 54.5666 36.2538 54.7612 36.1771 54.9857L34.7368 54.7811C34.8504 54.3834 35.0379 54.051 35.2993 53.784C35.5606 53.5141 35.8802 53.3124 36.2581 53.1788C36.6359 53.0425 37.0535 52.9743 37.5109 52.9743C37.8263 52.9743 38.1402 53.0112 38.4527 53.0851C38.7652 53.159 39.0507 53.2811 39.3092 53.4516C39.5677 53.6192 39.7751 53.8479 39.9314 54.1377C40.0905 54.4274 40.17 54.7896 40.17 55.2243V59.605H38.6871V58.7058H38.6359C38.5422 58.8877 38.4101 59.0581 38.2396 59.2172C38.072 59.3734 37.8603 59.4999 37.6047 59.5965C37.3518 59.6902 37.055 59.7371 36.714 59.7371ZM37.1146 58.6036C37.4243 58.6036 37.6927 58.5425 37.92 58.4203C38.1473 58.2953 38.322 58.1305 38.4442 57.926C38.5692 57.7215 38.6317 57.4984 38.6317 57.257V56.4857C38.5834 56.5254 38.501 56.5624 38.3845 56.5965C38.2709 56.6305 38.143 56.6604 38.001 56.6859C37.8589 56.7115 37.7183 56.7342 37.5791 56.7541C37.4399 56.774 37.3192 56.7911 37.2169 56.8053C36.9868 56.8365 36.7808 56.8877 36.599 56.9587C36.4172 57.0297 36.2737 57.1291 36.1686 57.257C36.0635 57.382 36.0109 57.5439 36.0109 57.7428C36.0109 58.0269 36.1146 58.2413 36.322 58.3862C36.5294 58.5311 36.7936 58.6036 37.1146 58.6036ZM42.4456 62.0595C42.2353 62.0595 42.0407 62.0425 41.8618 62.0084C41.6856 61.9771 41.545 61.9402 41.4399 61.8976L41.7978 60.6959C42.0223 60.7612 42.2226 60.7925 42.3987 60.7896C42.5748 60.7868 42.7297 60.7314 42.8632 60.6234C42.9996 60.5183 43.1146 60.3422 43.2084 60.095L43.3405 59.7413L40.9669 53.0595H42.6032L44.1118 58.0027H44.18L45.6927 53.0595H47.3334L44.7126 60.3976C44.5905 60.7442 44.4285 61.0411 44.2268 61.2882C44.0251 61.5382 43.778 61.7286 43.4853 61.8592C43.1956 61.9928 42.849 62.0595 42.4456 62.0595ZM51.2836 50.4686L48.4711 60.9175H47.1203L49.9328 50.4686H51.2836ZM59.5081 50.8777V59.605H58.1018L53.9896 53.6604H53.9172V59.605H52.3362V50.8777H53.751L57.8589 56.8266H57.9356V50.8777H59.5081ZM61.1626 59.605V53.0595H62.7052V59.605H61.1626ZM61.9381 52.1305C61.6938 52.1305 61.4836 52.0496 61.3074 51.8877C61.1313 51.7229 61.0432 51.5254 61.0432 51.2953C61.0432 51.0624 61.1313 50.8649 61.3074 50.703C61.4836 50.5382 61.6938 50.4558 61.9381 50.4558C62.1853 50.4558 62.3955 50.5382 62.5688 50.703C62.7449 50.8649 62.833 51.0624 62.833 51.2953C62.833 51.5254 62.7449 51.7229 62.5688 51.8877C62.3955 52.0496 62.1853 52.1305 61.9381 52.1305ZM67.138 62.1959C66.5841 62.1959 66.1082 62.1206 65.7105 61.97C65.3128 61.8223 64.9932 61.6234 64.7517 61.3734C64.5102 61.1234 64.3426 60.8465 64.2488 60.5425L65.638 60.2058C65.7005 60.3337 65.7915 60.4601 65.9108 60.5851C66.0301 60.7129 66.1906 60.818 66.3923 60.9004C66.5969 60.9857 66.854 61.0283 67.1636 61.0283C67.6011 61.0283 67.9633 60.9217 68.2503 60.7087C68.5372 60.4984 68.6807 60.1519 68.6807 59.6689V58.4288H68.604C68.5244 58.5879 68.4079 58.7513 68.2545 58.9189C68.104 59.0865 67.9037 59.2271 67.6537 59.3408C67.4065 59.4544 67.0954 59.5112 66.7204 59.5112C66.2176 59.5112 65.7616 59.3933 65.3525 59.1575C64.9463 58.9189 64.6224 58.5638 64.3809 58.0922C64.1423 57.6178 64.023 57.024 64.023 56.3109C64.023 55.5922 64.1423 54.9857 64.3809 54.4913C64.6224 53.9942 64.9477 53.6178 65.3568 53.3621C65.7659 53.1036 66.2219 52.9743 66.7247 52.9743C67.1082 52.9743 67.4236 53.0396 67.6707 53.1703C67.9207 53.2982 68.1196 53.453 68.2673 53.6348C68.415 53.8138 68.5273 53.9828 68.604 54.1419H68.6892V53.0595H70.2105V59.7115C70.2105 60.2712 70.077 60.7342 69.8099 61.1007C69.5429 61.4672 69.1778 61.7413 68.7148 61.9232C68.2517 62.105 67.7261 62.1959 67.138 62.1959ZM67.1508 58.301C67.4775 58.301 67.7559 58.2215 67.9861 58.0624C68.2162 57.9033 68.3909 57.6746 68.5102 57.3763C68.6295 57.078 68.6892 56.72 68.6892 56.3024C68.6892 55.8905 68.6295 55.5297 68.5102 55.22C68.3937 54.9104 68.2204 54.6703 67.9903 54.4999C67.763 54.3266 67.4832 54.2399 67.1508 54.2399C66.8071 54.2399 66.5202 54.3294 66.29 54.5084C66.0599 54.6874 65.8866 54.9331 65.7702 55.2456C65.6537 55.5553 65.5954 55.9075 65.5954 56.3024C65.5954 56.703 65.6537 57.0538 65.7702 57.355C65.8895 57.6533 66.0642 57.8862 66.2943 58.0538C66.5273 58.2186 66.8128 58.301 67.1508 58.301ZM73.3341 55.7698V59.605H71.7915V50.8777H73.3V54.1717H73.3767C73.5301 53.8024 73.7673 53.5112 74.0883 53.2982C74.4122 53.0823 74.8241 52.9743 75.3241 52.9743C75.7787 52.9743 76.175 53.0695 76.513 53.2598C76.8511 53.4502 77.1125 53.7286 77.2971 54.095C77.4846 54.4615 77.5784 54.909 77.5784 55.4374V59.605H76.0358V55.676C76.0358 55.2357 75.9221 54.8933 75.6949 54.649C75.4704 54.4019 75.1551 54.2783 74.7488 54.2783C74.4761 54.2783 74.2318 54.3379 74.0159 54.4573C73.8028 54.5737 73.6352 54.7428 73.513 54.9644C73.3937 55.1859 73.3341 55.4544 73.3341 55.7698ZM82.4193 53.0595V54.2527H78.6565V53.0595H82.4193ZM79.5855 51.4913H81.1281V57.6362C81.1281 57.8436 81.1594 58.0027 81.2219 58.1135C81.2872 58.2215 81.3724 58.2953 81.4775 58.3351C81.5826 58.3749 81.6991 58.3948 81.827 58.3948C81.9236 58.3948 82.0116 58.3877 82.0912 58.3734C82.1736 58.3592 82.2361 58.3465 82.2787 58.3351L82.5386 59.5411C82.4562 59.5695 82.3383 59.6007 82.1849 59.6348C82.0344 59.6689 81.8497 59.6888 81.6309 59.6945C81.2446 59.7058 80.8966 59.6476 80.5869 59.5198C80.2772 59.3891 80.0315 59.1874 79.8497 58.9146C79.6707 58.6419 79.5826 58.301 79.5855 57.8919V51.4913ZM89.2939 59.7328C88.6973 59.7328 88.1846 59.6249 87.7556 59.409C87.3266 59.193 86.9956 58.9019 86.7627 58.5354C86.5326 58.1661 86.4175 57.7499 86.4175 57.2868C86.4175 56.9374 86.4885 56.6277 86.6306 56.3578C86.7755 56.0879 86.9743 55.8379 87.2272 55.6078C87.4829 55.3777 87.7783 55.149 88.1135 54.9217L89.6604 53.8692C89.8877 53.7215 90.0596 53.5652 90.176 53.4004C90.2954 53.2357 90.355 53.0425 90.355 52.8209C90.355 52.6334 90.2755 52.4558 90.1164 52.2882C89.9601 52.1206 89.7442 52.0368 89.4687 52.0368C89.284 52.0368 89.1206 52.0808 88.9786 52.1689C88.8394 52.2541 88.73 52.3663 88.6505 52.5055C88.5738 52.6448 88.5354 52.7925 88.5354 52.9487C88.5354 53.1391 88.588 53.3323 88.6931 53.5283C88.801 53.7243 88.9402 53.9274 89.1107 54.1377C89.284 54.3479 89.4687 54.5709 89.6647 54.8067L93.7598 59.605H92.0894L88.6888 55.7101C88.436 55.4146 88.1917 55.1234 87.9559 54.8365C87.7229 54.5496 87.5312 54.2513 87.3806 53.9416C87.2329 53.6291 87.159 53.2911 87.159 52.9274C87.159 52.5155 87.2542 52.1476 87.4445 51.8237C87.6348 51.497 87.9005 51.2399 88.2414 51.0524C88.5851 50.8649 88.9871 50.7712 89.4473 50.7712C89.9076 50.7712 90.3025 50.8621 90.632 51.0439C90.9616 51.2257 91.2158 51.4672 91.3948 51.7683C91.5738 52.0695 91.6633 52.3976 91.6633 52.7527C91.6633 53.1646 91.561 53.534 91.3564 53.8607C91.1519 54.1845 90.8678 54.4786 90.5042 54.7428L88.74 56.034C88.4502 56.2442 88.2428 56.4573 88.1178 56.6732C87.9928 56.8862 87.9303 57.068 87.9303 57.2186C87.9303 57.4487 87.9885 57.6575 88.105 57.845C88.2215 58.0325 88.3848 58.1831 88.5951 58.2967C88.8081 58.4075 89.0567 58.4629 89.3408 58.4629C89.6533 58.4629 89.9616 58.3933 90.2655 58.2541C90.5695 58.1121 90.8465 57.9104 91.0965 57.649C91.3465 57.3877 91.5454 57.0752 91.6931 56.7115C91.8408 56.345 91.9147 55.9388 91.9147 55.4928H93.24C93.24 56.0439 93.1789 56.524 93.0567 56.9331C92.9346 57.3394 92.7769 57.6831 92.5837 57.9644C92.3905 58.2428 92.186 58.4658 91.9701 58.6334C91.9019 58.6817 91.8366 58.73 91.7741 58.7783C91.7116 58.8266 91.6462 58.8749 91.578 58.9232C91.2712 59.2016 90.9118 59.4061 90.4999 59.5368C90.0908 59.6675 89.6888 59.7328 89.2939 59.7328ZM17.6684 74.605V68.0595H19.211V74.605H17.6684ZM18.444 67.1305C18.1997 67.1305 17.9894 67.0496 17.8133 66.8877C17.6372 66.7229 17.5491 66.5254 17.5491 66.2953C17.5491 66.0624 17.6372 65.8649 17.8133 65.703C17.9894 65.5382 18.1997 65.4558 18.444 65.4558C18.6911 65.4558 18.9014 65.5382 19.0747 65.703C19.2508 65.8649 19.3389 66.0624 19.3389 66.2953C19.3389 66.5254 19.2508 66.7229 19.0747 66.8877C18.9014 67.0496 18.6911 67.1305 18.444 67.1305ZM22.3399 70.7698V74.605H20.7973V68.0595H22.2717V69.1717H22.3485C22.499 68.8053 22.7391 68.5141 23.0686 68.2982C23.401 68.0823 23.8115 67.9743 24.3002 67.9743C24.7519 67.9743 25.1453 68.0709 25.4806 68.2641C25.8186 68.4573 26.08 68.7371 26.2646 69.1036C26.4521 69.47 26.5445 69.9146 26.5416 70.4374V74.605H24.999V70.676C24.999 70.2385 24.8854 69.8962 24.6581 69.649C24.4337 69.4019 24.1226 69.2783 23.7249 69.2783C23.455 69.2783 23.2149 69.3379 23.0047 69.4573C22.7973 69.5737 22.634 69.7428 22.5146 69.9644C22.3982 70.1859 22.3399 70.4544 22.3399 70.7698ZM32.2753 74.605H30.5878L33.6602 65.8777H35.6119L38.6887 74.605H37.0012L34.6702 67.6675H34.602L32.2753 74.605ZM32.3307 71.1831H36.933V72.453H32.3307V71.1831ZM41.3126 70.7698V74.605H39.77V68.0595H41.2444V69.1717H41.3211C41.4717 68.8053 41.7117 68.5141 42.0413 68.2982C42.3737 68.0823 42.7842 67.9743 43.2728 67.9743C43.7245 67.9743 44.118 68.0709 44.4532 68.2641C44.7913 68.4573 45.0526 68.7371 45.2373 69.1036C45.4248 69.47 45.5171 69.9146 45.5143 70.4374V74.605H43.9717V70.676C43.9717 70.2385 43.858 69.8962 43.6308 69.649C43.4063 69.4019 43.0953 69.2783 42.6975 69.2783C42.4276 69.2783 42.1876 69.3379 41.9774 69.4573C41.77 69.5737 41.6066 69.7428 41.4873 69.9644C41.3708 70.1859 41.3126 70.4544 41.3126 70.7698ZM47.8069 77.0595C47.5967 77.0595 47.4021 77.0425 47.2231 77.0084C47.047 76.9771 46.9063 76.9402 46.8012 76.8976L47.1592 75.6959C47.3836 75.7612 47.5839 75.7925 47.76 75.7896C47.9362 75.7868 48.091 75.7314 48.2245 75.6234C48.3609 75.5183 48.4759 75.3422 48.5697 75.095L48.7018 74.7413L46.3282 68.0595H47.9646L49.4731 73.0027H49.5413L51.0541 68.0595H52.6947L50.074 75.3976C49.9518 75.7442 49.7899 76.0411 49.5882 76.2882C49.3865 76.5382 49.1393 76.7286 48.8467 76.8592C48.5569 76.9928 48.2103 77.0595 47.8069 77.0595ZM58.6436 74.605L56.1805 65.8777H57.8808L59.4532 72.2911H59.5342L61.2132 65.8777H62.76L64.4433 72.2953H64.52L66.0924 65.8777H67.7927L65.3296 74.605H63.77L62.0228 68.4814H61.9546L60.2032 74.605H58.6436ZM71.0505 74.7328C70.3943 74.7328 69.8275 74.5965 69.3502 74.3237C68.8758 74.0482 68.5107 73.659 68.2551 73.1561C67.9994 72.6504 67.8715 72.0553 67.8715 71.3706C67.8715 70.6973 67.9994 70.1064 68.2551 69.5979C68.5136 69.0865 68.8744 68.6888 69.3374 68.4047C69.8005 68.1178 70.3445 67.9743 70.9695 67.9743C71.373 67.9743 71.7536 68.0396 72.1116 68.1703C72.4724 68.2982 72.7906 68.497 73.0661 68.7669C73.3445 69.0368 73.5633 69.3805 73.7224 69.7982C73.8815 70.2129 73.961 70.7073 73.961 71.2811V71.7541H68.596V70.7144H72.4823C72.4795 70.4189 72.4156 70.1561 72.2906 69.926C72.1656 69.693 71.9909 69.5098 71.7664 69.3763C71.5448 69.2428 71.2863 69.176 70.9909 69.176C70.6755 69.176 70.3985 69.2527 70.1599 69.4061C69.9212 69.5567 69.7352 69.7555 69.6016 70.0027C69.471 70.247 69.4042 70.5155 69.4014 70.8081V71.7158C69.4014 72.0965 69.471 72.4232 69.6102 72.6959C69.7494 72.9658 69.944 73.1732 70.194 73.318C70.444 73.4601 70.7366 73.5311 71.0718 73.5311C71.2962 73.5311 71.4994 73.4999 71.6812 73.4374C71.863 73.372 72.0207 73.2769 72.1542 73.1519C72.2877 73.0269 72.3886 72.872 72.4568 72.6874L73.8971 72.8493C73.8062 73.23 73.6329 73.5624 73.3772 73.8465C73.1244 74.1277 72.8005 74.3465 72.4056 74.5027C72.0107 74.6561 71.559 74.7328 71.0505 74.7328ZM77.1496 74.7371C76.7348 74.7371 76.3612 74.6632 76.0288 74.5155C75.6993 74.3649 75.4379 74.1433 75.2448 73.8507C75.0544 73.5581 74.9592 73.1973 74.9592 72.7683C74.9592 72.399 75.0274 72.0936 75.1638 71.8521C75.3002 71.6107 75.4862 71.4175 75.722 71.2726C75.9578 71.1277 76.2234 71.0183 76.5189 70.9445C76.8172 70.8678 77.1254 70.8124 77.4436 70.7783C77.8271 70.7385 78.1382 70.703 78.3769 70.6717C78.6155 70.6377 78.7888 70.5865 78.8967 70.5183C79.0075 70.4473 79.0629 70.3379 79.0629 70.1902V70.1646C79.0629 69.8436 78.9678 69.595 78.7774 69.4189C78.5871 69.2428 78.3129 69.1547 77.955 69.1547C77.5771 69.1547 77.2774 69.2371 77.0558 69.4019C76.8371 69.5666 76.6894 69.7612 76.6127 69.9857L75.1723 69.7811C75.2859 69.3834 75.4734 69.051 75.7348 68.784C75.9962 68.5141 76.3158 68.3124 76.6936 68.1788C77.0715 68.0425 77.4891 67.9743 77.9465 67.9743C78.2618 67.9743 78.5757 68.0112 78.8882 68.0851C79.2007 68.159 79.4862 68.2811 79.7448 68.4516C80.0033 68.6192 80.2107 68.8479 80.3669 69.1377C80.526 69.4274 80.6056 69.7896 80.6056 70.2243V74.605H79.1226V73.7058H79.0715C78.9777 73.8877 78.8456 74.0581 78.6752 74.2172C78.5075 74.3734 78.2959 74.4999 78.0402 74.5965C77.7874 74.6902 77.4905 74.7371 77.1496 74.7371ZM77.5502 73.6036C77.8598 73.6036 78.1283 73.5425 78.3556 73.4203C78.5828 73.2953 78.7575 73.1305 78.8797 72.926C79.0047 72.7215 79.0672 72.4984 79.0672 72.257V71.4857C79.0189 71.5254 78.9365 71.5624 78.82 71.5965C78.7064 71.6305 78.5786 71.6604 78.4365 71.6859C78.2945 71.7115 78.1538 71.7342 78.0146 71.7541C77.8754 71.774 77.7547 71.7911 77.6524 71.8053C77.4223 71.8365 77.2163 71.8877 77.0345 71.9587C76.8527 72.0297 76.7092 72.1291 76.6041 72.257C76.499 72.382 76.4465 72.5439 76.4465 72.7428C76.4465 73.0269 76.5502 73.2413 76.7575 73.3862C76.9649 73.5311 77.2291 73.6036 77.5502 73.6036ZM85.4252 68.0595V69.2527H81.6624V68.0595H85.4252ZM82.5913 66.4913H84.134V72.6362C84.134 72.8436 84.1652 73.0027 84.2277 73.1135C84.2931 73.2215 84.3783 73.2953 84.4834 73.3351C84.5885 73.3749 84.705 73.3948 84.8328 73.3948C84.9294 73.3948 85.0175 73.3877 85.097 73.3734C85.1794 73.3592 85.2419 73.3465 85.2845 73.3351L85.5445 74.5411C85.4621 74.5695 85.3442 74.6007 85.1908 74.6348C85.0402 74.6689 84.8556 74.6888 84.6368 74.6945C84.2504 74.7058 83.9024 74.6476 83.5928 74.5198C83.2831 74.3891 83.0374 74.1874 82.8556 73.9146C82.6766 73.6419 82.5885 73.301 82.5913 72.8919V66.4913ZM88.3985 70.7698V74.605H86.8559V65.8777H88.3644V69.1717H88.4411C88.5945 68.8024 88.8318 68.5112 89.1528 68.2982C89.4766 68.0823 89.8886 67.9743 90.3886 67.9743C90.8431 67.9743 91.2394 68.0695 91.5775 68.2598C91.9156 68.4502 92.1769 68.7286 92.3616 69.095C92.5491 69.4615 92.6428 69.909 92.6428 70.4374V74.605H91.1002V70.676C91.1002 70.2357 90.9866 69.8933 90.7593 69.649C90.5349 69.4019 90.2195 69.2783 89.8133 69.2783C89.5406 69.2783 89.2962 69.3379 89.0803 69.4573C88.8673 69.5737 88.6997 69.7428 88.5775 69.9644C88.4582 70.1859 88.3985 70.4544 88.3985 70.7698ZM97.113 74.7328C96.4568 74.7328 95.89 74.5965 95.4127 74.3237C94.9383 74.0482 94.5732 73.659 94.3176 73.1561C94.0619 72.6504 93.934 72.0553 93.934 71.3706C93.934 70.6973 94.0619 70.1064 94.3176 69.5979C94.5761 69.0865 94.9369 68.6888 95.3999 68.4047C95.863 68.1178 96.407 67.9743 97.032 67.9743C97.4355 67.9743 97.8161 68.0396 98.1741 68.1703C98.5349 68.2982 98.8531 68.497 99.1286 68.7669C99.407 69.0368 99.6258 69.3805 99.7849 69.7982C99.944 70.2129 100.024 70.7073 100.024 71.2811V71.7541H94.6585V70.7144H98.5448C98.542 70.4189 98.4781 70.1561 98.3531 69.926C98.2281 69.693 98.0534 69.5098 97.8289 69.3763C97.6073 69.2428 97.3488 69.176 97.0534 69.176C96.738 69.176 96.461 69.2527 96.2224 69.4061C95.9837 69.5567 95.7977 69.7555 95.6641 70.0027C95.5335 70.247 95.4667 70.5155 95.4639 70.8081V71.7158C95.4639 72.0965 95.5335 72.4232 95.6727 72.6959C95.8119 72.9658 96.0065 73.1732 96.2565 73.318C96.5065 73.4601 96.7991 73.5311 97.1343 73.5311C97.3587 73.5311 97.5619 73.4999 97.7437 73.4374C97.9255 73.372 98.0832 73.2769 98.2167 73.1519C98.3502 73.0269 98.4511 72.872 98.5193 72.6874L99.9596 72.8493C99.8687 73.23 99.6954 73.5624 99.4397 73.8465C99.1869 74.1277 98.863 74.3465 98.4681 74.5027C98.0732 74.6561 97.6215 74.7328 97.113 74.7328ZM101.329 74.605V68.0595H102.824V69.1504H102.892C103.012 68.7726 103.216 68.4814 103.506 68.2769C103.799 68.0695 104.133 67.9658 104.508 67.9658C104.593 67.9658 104.688 67.97 104.793 67.9786C104.901 67.9842 104.99 67.9942 105.062 68.0084V69.4274C104.996 69.4047 104.892 69.3848 104.75 69.3678C104.611 69.3479 104.476 69.3379 104.346 69.3379C104.064 69.3379 103.812 69.399 103.587 69.5212C103.365 69.6405 103.191 69.8067 103.063 70.0198C102.935 70.2328 102.871 70.4786 102.871 70.757V74.605H101.329Z" fill="white"/>
</svg>
