<svg width="83" height="86" viewBox="0 0 83 86" fill="none" xmlns="http://www.w3.org/2000/svg">
<path d="M29.6773 6.78304C29.2906 6.57552 29.1603 6.11572 29.3819 5.75358C29.6035 5.39144 30.0944 5.26937 30.4811 5.47689L32.2756 6.44531C32.6623 6.65283 32.7927 7.11263 32.5711 7.47477C32.3495 7.83692 31.8585 7.95898 31.4718 7.75146L29.6773 6.78304ZM46.2795 17.0085L46.6618 20.6095H53.831L53.1272 17.0085H46.2795ZM54.9998 17.0085L55.7037 20.6095H61.3174L60.2573 17.0085H54.9998ZM61.8258 22.3429H56.0426L56.5858 25.1302H62.647L61.8258 22.3429ZM63.1597 26.8717H56.929L57.4721 29.659H63.9766L63.1597 26.8717ZM64.4893 31.3924H57.811L58.8278 36.5967H66.0187L64.4893 31.3924ZM56.9507 36.5967L55.934 31.3924H47.8002L48.352 36.5967H56.9507ZM46.4924 36.5967L45.9406 31.3924H35.8863L35.1259 36.5967H46.4924ZM33.2663 36.5967L34.0266 31.3924H26.3447L25.0543 36.5967H33.2663ZM23.1599 36.5967L24.4503 31.3924H18.5064L16.977 36.5967H23.1599ZM19.0191 29.659H24.8805L25.5713 26.8717H19.836L19.0191 29.659ZM20.3487 25.1302H25.9971L26.688 22.3429H21.1699L20.3487 25.1302ZM21.6782 20.6095H27.1181L28.0132 17.0085H22.7384L21.6782 20.6095ZM29.9076 17.0085L29.0125 20.6095H35.5952L36.1209 17.0085H29.9076ZM37.9762 17.0085C37.9762 17.041 37.9719 17.0695 37.9675 17.1021L37.4548 20.6095H44.8065L44.4242 17.0085H37.9762ZM66.4271 38.3301H43.4509V46.342H50.5289V50H32.4668V46.342H39.5448V38.3301H16.5685C16.4338 38.3301 16.2905 38.3097 16.1471 38.2731C15.8646 38.1999 15.5996 38.0575 15.4041 37.8662C15.1564 37.6261 15 37.3169 15 36.967C15 36.8652 15.0174 36.7554 15.0521 36.6414L20.9743 16.5039C21.0656 16.1987 21.2177 15.9017 21.4566 15.6779C21.7217 15.4297 22.0649 15.2751 22.4951 15.2751H34.018C33.3575 14.2537 32.9752 13.0575 32.9752 11.7757C32.9752 9.91211 33.7833 8.22347 35.0868 6.9987C36.3903 5.778 38.1935 5.02116 40.1878 5.02116C42.1822 5.02116 43.981 5.778 45.2888 6.9987C46.5923 8.2194 47.4005 9.90804 47.4005 11.7757C47.4005 13.0575 47.0181 14.2537 46.3577 15.2751H60.5049C60.896 15.2751 61.2132 15.4053 61.4652 15.6169C61.4912 15.6372 61.5173 15.6576 61.539 15.6779C61.778 15.9017 61.9301 16.1987 62.0213 16.5039L67.9479 36.6455C67.9826 36.7635 68 36.8693 68 36.967C68 37.3169 67.8436 37.6261 67.5959 37.8621C67.4004 38.0534 67.131 38.1958 66.8529 38.269C66.7052 38.3097 66.5618 38.3301 66.4271 38.3301ZM46.84 22.3429L47.1354 25.1302H54.7131L54.1699 22.3429H46.84ZM28.5867 22.3429L27.8959 25.1302H34.9347L35.3388 22.3429H28.5867ZM37.2028 22.3429L36.7987 25.1302H45.2845L44.989 22.3429H37.2028ZM47.3223 26.8717L47.6177 29.659H55.5994L55.0563 26.8717H47.3223ZM27.4657 26.8717L26.7749 29.659H34.2787L34.6827 26.8717H27.4657ZM36.5424 26.8717L36.1383 29.659H45.7624L45.467 26.8717H36.5424ZM33.7486 2.53499C33.527 2.17285 33.6573 1.71305 34.044 1.50553C34.4307 1.29801 34.9217 1.42008 35.1433 1.78223L36.1774 3.45866C36.399 3.8208 36.2687 4.2806 35.8863 4.48812C35.4996 4.69564 35.0086 4.57357 34.787 4.21143L33.7486 2.53499ZM39.5404 0.756836C39.5404 0.337728 39.901 0 40.3486 0C40.7961 0 41.1567 0.337728 41.1567 0.756836V2.69369C41.1567 3.11279 40.7961 3.45052 40.3486 3.45052C39.901 3.45052 39.5404 3.11279 39.5404 2.69369V0.756836ZM45.5148 1.93685C45.7364 1.57471 46.2273 1.45264 46.614 1.66016C47.0007 1.86768 47.1311 2.32747 46.9095 2.68962L45.8754 4.37012C45.6538 4.73226 45.1628 4.85433 44.7761 4.64681C44.3894 4.43929 44.2591 3.97949 44.4807 3.61735L45.5148 1.93685ZM50.0509 5.74951C50.4376 5.54199 50.9286 5.66406 51.1502 6.02621C51.3718 6.38835 51.2414 6.84815 50.8547 7.05566L49.0646 8.02409C48.6779 8.23161 48.1869 8.10954 47.9653 7.75146C47.7437 7.38932 47.8741 6.92953 48.2608 6.72201L50.0509 5.74951ZM51.9497 11.1735C52.3972 11.1735 52.7578 11.5112 52.7578 11.9303C52.7578 12.3494 52.3972 12.6872 51.9497 12.6872H49.8815C49.4339 12.6872 49.0733 12.3494 49.0733 11.9303C49.0733 11.5112 49.4339 11.1735 49.8815 11.1735H51.9497ZM28.4173 12.3779C27.9697 12.3779 27.6091 12.0402 27.6091 11.6211C27.6091 11.202 27.9697 10.8643 28.4173 10.8643H30.4855C30.933 10.8643 31.2937 11.202 31.2937 11.6211C31.2937 12.0402 30.933 12.3779 30.4855 12.3779H28.4173Z" fill="white"/>
<path d="M9.78267 63V54.2727H11.3636V57.9673H15.4077V54.2727H16.9929V63H15.4077V59.2926H11.3636V63H9.78267ZM18.6442 63V56.4545H20.1868V63H18.6442ZM19.4197 55.5256C19.1754 55.5256 18.9652 55.4446 18.7891 55.2827C18.6129 55.1179 18.5249 54.9205 18.5249 54.6903C18.5249 54.4574 18.6129 54.2599 18.7891 54.098C18.9652 53.9332 19.1754 53.8509 19.4197 53.8509C19.6669 53.8509 19.8771 53.9332 20.0504 54.098C20.2266 54.2599 20.3146 54.4574 20.3146 54.6903C20.3146 54.9205 20.2266 55.1179 20.0504 55.2827C19.8771 55.4446 19.6669 55.5256 19.4197 55.5256ZM24.6197 65.5909C24.0657 65.5909 23.5898 65.5156 23.1921 65.3651C22.7944 65.2173 22.4748 65.0185 22.2333 64.7685C21.9918 64.5185 21.8242 64.2415 21.7305 63.9375L23.1197 63.6009C23.1822 63.7287 23.2731 63.8551 23.3924 63.9801C23.5117 64.108 23.6722 64.2131 23.8739 64.2955C24.0785 64.3807 24.3356 64.4233 24.6452 64.4233C25.0827 64.4233 25.445 64.3168 25.7319 64.1037C26.0188 63.8935 26.1623 63.5469 26.1623 63.0639V61.8239H26.0856C26.006 61.983 25.8896 62.1463 25.7362 62.3139C25.5856 62.4815 25.3853 62.6222 25.1353 62.7358C24.8881 62.8494 24.5771 62.9062 24.2021 62.9062C23.6992 62.9062 23.2433 62.7884 22.8342 62.5526C22.4279 62.3139 22.104 61.9588 21.8626 61.4872C21.6239 61.0128 21.5046 60.419 21.5046 59.706C21.5046 58.9872 21.6239 58.3807 21.8626 57.8864C22.104 57.3892 22.4293 57.0128 22.8384 56.7571C23.2475 56.4986 23.7035 56.3693 24.2063 56.3693C24.5898 56.3693 24.9052 56.4347 25.1523 56.5653C25.4023 56.6932 25.6012 56.848 25.7489 57.0298C25.8967 57.2088 26.0089 57.3778 26.0856 57.5369H26.1708V56.4545H27.6921V63.1065C27.6921 63.6662 27.5586 64.1293 27.2915 64.4957C27.0245 64.8622 26.6594 65.1364 26.1964 65.3182C25.7333 65.5 25.2077 65.5909 24.6197 65.5909ZM24.6325 61.696C24.9592 61.696 25.2376 61.6165 25.4677 61.4574C25.6978 61.2983 25.8725 61.0696 25.9918 60.7713C26.1112 60.473 26.1708 60.1151 26.1708 59.6974C26.1708 59.2855 26.1112 58.9247 25.9918 58.6151C25.8754 58.3054 25.7021 58.0653 25.4719 57.8949C25.2447 57.7216 24.9648 57.6349 24.6325 57.6349C24.2887 57.6349 24.0018 57.7244 23.7717 57.9034C23.5415 58.0824 23.3683 58.3281 23.2518 58.6406C23.1353 58.9503 23.0771 59.3026 23.0771 59.6974C23.0771 60.098 23.1353 60.4489 23.2518 60.75C23.3711 61.0483 23.5458 61.2812 23.7759 61.4489C24.0089 61.6136 24.2944 61.696 24.6325 61.696ZM30.8157 59.1648V63H29.2731V54.2727H30.7816V57.5668H30.8583C31.0117 57.1974 31.2489 56.9062 31.57 56.6932C31.8938 56.4773 32.3058 56.3693 32.8058 56.3693C33.2603 56.3693 33.6566 56.4645 33.9947 56.6548C34.3327 56.8452 34.5941 57.1236 34.7788 57.4901C34.9663 57.8565 35.06 58.304 35.06 58.8324V63H33.5174V59.071C33.5174 58.6307 33.4038 58.2884 33.1765 58.044C32.9521 57.7969 32.6367 57.6733 32.2305 57.6733C31.9577 57.6733 31.7134 57.733 31.4975 57.8523C31.2844 57.9687 31.1168 58.1378 30.9947 58.3594C30.8754 58.581 30.8157 58.8494 30.8157 59.1648ZM45.5238 57.0597C45.4528 56.8295 45.3548 56.6236 45.2298 56.4418C45.1076 56.2571 44.9599 56.0994 44.7866 55.9688C44.6161 55.8381 44.4201 55.7401 44.1985 55.6747C43.9769 55.6065 43.7354 55.5724 43.4741 55.5724C43.0053 55.5724 42.5877 55.6903 42.2212 55.9261C41.8548 56.1619 41.5664 56.5085 41.3562 56.9659C41.1488 57.4205 41.0451 57.9744 41.0451 58.6278C41.0451 59.2869 41.1488 59.8452 41.3562 60.3026C41.5636 60.7599 41.8519 61.108 42.2212 61.3466C42.5906 61.5824 43.0195 61.7003 43.5082 61.7003C43.9513 61.7003 44.3349 61.6151 44.6587 61.4446C44.9854 61.2741 45.2369 61.0327 45.413 60.7202C45.5891 60.4048 45.6772 60.0355 45.6772 59.6122L46.0352 59.6676H43.6658V58.4318H47.207V59.4801C47.207 60.2273 47.0479 60.8736 46.7298 61.419C46.4116 61.9645 45.9741 62.3849 45.4173 62.6804C44.8604 62.973 44.2212 63.1193 43.4996 63.1193C42.6957 63.1193 41.9897 62.9389 41.3817 62.5781C40.7766 62.2145 40.3036 61.6989 39.9627 61.0312C39.6246 60.3608 39.4556 59.5653 39.4556 58.6449C39.4556 57.9403 39.555 57.3111 39.7539 56.7571C39.9556 56.2031 40.2369 55.733 40.5977 55.3466C40.9585 54.9574 41.3817 54.6619 41.8675 54.4602C42.3533 54.2557 42.8817 54.1534 43.4528 54.1534C43.9357 54.1534 44.386 54.2244 44.8036 54.3665C45.2212 54.5057 45.592 54.7045 45.9158 54.9631C46.2425 55.2216 46.511 55.5284 46.7212 55.8835C46.9315 56.2386 47.0692 56.6307 47.1346 57.0597H45.5238ZM48.6676 63V56.4545H50.1634V57.5455H50.2315C50.3509 57.1676 50.5554 56.8764 50.8452 56.6719C51.1378 56.4645 51.4716 56.3608 51.8466 56.3608C51.9318 56.3608 52.027 56.3651 52.1321 56.3736C52.2401 56.3793 52.3295 56.3892 52.4006 56.4034V57.8224C52.3352 57.7997 52.2315 57.7798 52.0895 57.7628C51.9503 57.7429 51.8153 57.733 51.6847 57.733C51.4034 57.733 51.1506 57.794 50.9261 57.9162C50.7045 58.0355 50.5298 58.2017 50.402 58.4148C50.2741 58.6278 50.2102 58.8736 50.2102 59.152V63H48.6676ZM55.1918 63.1321C54.777 63.1321 54.4034 63.0582 54.071 62.9105C53.7415 62.7599 53.4801 62.5384 53.2869 62.2457C53.0966 61.9531 53.0014 61.5923 53.0014 61.1634C53.0014 60.794 53.0696 60.4886 53.206 60.2472C53.3423 60.0057 53.5284 59.8125 53.7642 59.6676C54 59.5227 54.2656 59.4134 54.5611 59.3395C54.8594 59.2628 55.1676 59.2074 55.4858 59.1733C55.8693 59.1335 56.1804 59.098 56.419 59.0668C56.6577 59.0327 56.831 58.9815 56.9389 58.9134C57.0497 58.8423 57.1051 58.733 57.1051 58.5852V58.5597C57.1051 58.2386 57.0099 57.9901 56.8196 57.8139C56.6293 57.6378 56.3551 57.5497 55.9972 57.5497C55.6193 57.5497 55.3196 57.6321 55.098 57.7969C54.8793 57.9616 54.7315 58.1562 54.6548 58.3807L53.2145 58.1761C53.3281 57.7784 53.5156 57.446 53.777 57.179C54.0384 56.9091 54.358 56.7074 54.7358 56.5739C55.1136 56.4375 55.5313 56.3693 55.9886 56.3693C56.304 56.3693 56.6179 56.4062 56.9304 56.4801C57.2429 56.554 57.5284 56.6761 57.7869 56.8466C58.0455 57.0142 58.2528 57.2429 58.4091 57.5327C58.5682 57.8224 58.6477 58.1847 58.6477 58.6193V63H57.1648V62.1009H57.1136C57.0199 62.2827 56.8878 62.4531 56.7173 62.6122C56.5497 62.7685 56.3381 62.8949 56.0824 62.9915C55.8295 63.0852 55.5327 63.1321 55.1918 63.1321ZM55.5923 61.9986C55.902 61.9986 56.1705 61.9375 56.3977 61.8153C56.625 61.6903 56.7997 61.5256 56.9219 61.321C57.0469 61.1165 57.1094 60.8935 57.1094 60.652V59.8807C57.0611 59.9205 56.9787 59.9574 56.8622 59.9915C56.7486 60.0256 56.6207 60.0554 56.4787 60.081C56.3366 60.1065 56.196 60.1293 56.0568 60.1491C55.9176 60.169 55.7969 60.1861 55.6946 60.2003C55.4645 60.2315 55.2585 60.2827 55.0767 60.3537C54.8949 60.4247 54.7514 60.5241 54.6463 60.652C54.5412 60.777 54.4886 60.9389 54.4886 61.1378C54.4886 61.4219 54.5923 61.6364 54.7997 61.7812C55.0071 61.9261 55.2713 61.9986 55.5923 61.9986ZM62.6278 63.1151C62.1136 63.1151 61.6534 62.983 61.2472 62.7188C60.8409 62.4545 60.5199 62.071 60.2841 61.5682C60.0483 61.0653 59.9304 60.4545 59.9304 59.7358C59.9304 59.0085 60.0497 58.3949 60.2884 57.8949C60.5298 57.392 60.8551 57.0128 61.2642 56.7571C61.6733 56.4986 62.1293 56.3693 62.6321 56.3693C63.0156 56.3693 63.331 56.4347 63.5781 56.5653C63.8253 56.6932 64.0213 56.848 64.1662 57.0298C64.3111 57.2088 64.4233 57.3778 64.5028 57.5369H64.5668V54.2727H66.1136V63H64.5966V61.9688H64.5028C64.4233 62.1278 64.3082 62.2969 64.1577 62.4759C64.0071 62.652 63.8082 62.8026 63.5611 62.9276C63.3139 63.0526 63.0028 63.1151 62.6278 63.1151ZM63.0582 61.8494C63.3849 61.8494 63.6634 61.7614 63.8935 61.5852C64.1236 61.4062 64.2983 61.1577 64.4176 60.8395C64.5369 60.5213 64.5966 60.1506 64.5966 59.7273C64.5966 59.304 64.5369 58.9361 64.4176 58.6236C64.3011 58.3111 64.1278 58.0682 63.8977 57.8949C63.6705 57.7216 63.3906 57.6349 63.0582 57.6349C62.7145 57.6349 62.4276 57.7244 62.1974 57.9034C61.9673 58.0824 61.794 58.3295 61.6776 58.6449C61.5611 58.9602 61.5028 59.321 61.5028 59.7273C61.5028 60.1364 61.5611 60.5014 61.6776 60.8224C61.7969 61.1406 61.9716 61.392 62.2017 61.5767C62.4347 61.7585 62.7202 61.8494 63.0582 61.8494ZM70.6552 63.1278C69.9989 63.1278 69.4322 62.9915 68.9549 62.7188C68.4805 62.4432 68.1154 62.054 67.8597 61.5511C67.604 61.0455 67.4762 60.4503 67.4762 59.7656C67.4762 59.0923 67.604 58.5014 67.8597 57.9929C68.1183 57.4815 68.479 57.0838 68.9421 56.7997C69.4052 56.5128 69.9492 56.3693 70.5742 56.3693C70.9776 56.3693 71.3583 56.4347 71.7163 56.5653C72.0771 56.6932 72.3952 56.892 72.6708 57.1619C72.9492 57.4318 73.168 57.7756 73.3271 58.1932C73.4862 58.608 73.5657 59.1023 73.5657 59.6761V60.1491H68.2006V59.1094H72.087C72.0842 58.8139 72.0202 58.5511 71.8952 58.321C71.7702 58.0881 71.5955 57.9048 71.3711 57.7713C71.1495 57.6378 70.891 57.571 70.5955 57.571C70.2802 57.571 70.0032 57.6477 69.7646 57.8011C69.5259 57.9517 69.3398 58.1506 69.2063 58.3977C69.0756 58.642 69.0089 58.9105 69.006 59.2031V60.1108C69.006 60.4915 69.0756 60.8182 69.2148 61.0909C69.354 61.3608 69.5487 61.5682 69.7987 61.7131C70.0487 61.8551 70.3413 61.9261 70.6765 61.9261C70.9009 61.9261 71.104 61.8949 71.2859 61.8324C71.4677 61.767 71.6254 61.6719 71.7589 61.5469C71.8924 61.4219 71.9933 61.267 72.0614 61.0824L73.5018 61.2443C73.4109 61.625 73.2376 61.9574 72.9819 62.2415C72.729 62.5227 72.4052 62.7415 72.0103 62.8977C71.6154 63.0511 71.1637 63.1278 70.6552 63.1278ZM23.0424 78V69.2727H26.3152C26.9856 69.2727 27.5481 69.3977 28.0027 69.6477C28.4601 69.8977 28.8052 70.2415 29.0382 70.679C29.274 71.1136 29.3919 71.608 29.3919 72.1619C29.3919 72.7216 29.274 73.2187 29.0382 73.6534C28.8024 74.0881 28.4544 74.4304 27.9941 74.6804C27.5339 74.9276 26.9672 75.0511 26.2939 75.0511H24.1248V73.7514H26.0808C26.4728 73.7514 26.7939 73.6832 27.0439 73.5469C27.2939 73.4105 27.4785 73.223 27.5978 72.9844C27.72 72.7457 27.7811 72.4716 27.7811 72.1619C27.7811 71.8523 27.72 71.5795 27.5978 71.3438C27.4785 71.108 27.2924 70.9247 27.0396 70.794C26.7896 70.6605 26.4672 70.5938 26.0723 70.5938H24.6234V78H23.0424ZM32.4632 78.1321C32.0485 78.1321 31.6749 78.0582 31.3425 77.9105C31.013 77.7599 30.7516 77.5384 30.5584 77.2457C30.3681 76.9531 30.2729 76.5923 30.2729 76.1634C30.2729 75.794 30.3411 75.4886 30.4775 75.2472C30.6138 75.0057 30.7999 74.8125 31.0357 74.6676C31.2715 74.5227 31.5371 74.4134 31.8326 74.3395C32.1309 74.2628 32.4391 74.2074 32.7573 74.1733C33.1408 74.1335 33.4519 74.098 33.6905 74.0668C33.9292 74.0327 34.1025 73.9815 34.2104 73.9134C34.3212 73.8423 34.3766 73.733 34.3766 73.5852V73.5597C34.3766 73.2386 34.2814 72.9901 34.0911 72.8139C33.9007 72.6378 33.6266 72.5497 33.2686 72.5497C32.8908 72.5497 32.5911 72.6321 32.3695 72.7969C32.1507 72.9616 32.003 73.1562 31.9263 73.3807L30.486 73.1761C30.5996 72.7784 30.7871 72.446 31.0485 72.179C31.3098 71.9091 31.6294 71.7074 32.0073 71.5739C32.3851 71.4375 32.8027 71.3693 33.2601 71.3693C33.5755 71.3693 33.8894 71.4062 34.2019 71.4801C34.5144 71.554 34.7999 71.6761 35.0584 71.8466C35.3169 72.0142 35.5243 72.2429 35.6806 72.5327C35.8397 72.8224 35.9192 73.1847 35.9192 73.6193V78H34.4363V77.1009H34.3851C34.2914 77.2827 34.1593 77.4531 33.9888 77.6122C33.8212 77.7685 33.6096 77.8949 33.3539 77.9915C33.101 78.0852 32.8042 78.1321 32.4632 78.1321ZM32.8638 76.9986C33.1735 76.9986 33.4419 76.9375 33.6692 76.8153C33.8965 76.6903 34.0712 76.5256 34.1934 76.321C34.3184 76.1165 34.3809 75.8935 34.3809 75.652V74.8807C34.3326 74.9205 34.2502 74.9574 34.1337 74.9915C34.0201 75.0256 33.8922 75.0554 33.7502 75.081C33.6081 75.1065 33.4675 75.1293 33.3283 75.1491C33.1891 75.169 33.0684 75.1861 32.9661 75.2003C32.736 75.2315 32.53 75.2827 32.3482 75.3537C32.1664 75.4247 32.0229 75.5241 31.9178 75.652C31.8127 75.777 31.7601 75.9389 31.7601 76.1378C31.7601 76.4219 31.8638 76.6364 32.0712 76.7812C32.2786 76.9261 32.5428 76.9986 32.8638 76.9986ZM39.013 74.1648V78H37.4703V71.4545H38.9448V72.5668H39.0215C39.1721 72.2003 39.4121 71.9091 39.7417 71.6932C40.074 71.4773 40.4846 71.3693 40.9732 71.3693C41.4249 71.3693 41.8184 71.4659 42.1536 71.6591C42.4917 71.8523 42.753 72.1321 42.9377 72.4986C43.1252 72.8651 43.2175 73.3097 43.2147 73.8324V78H41.6721V74.071C41.6721 73.6335 41.5584 73.2912 41.3311 73.044C41.1067 72.7969 40.7956 72.6733 40.3979 72.6733C40.128 72.6733 39.888 72.733 39.6777 72.8523C39.4703 72.9687 39.307 73.1378 39.1877 73.3594C39.0712 73.581 39.013 73.8494 39.013 74.1648ZM47.6806 78.1278C47.0243 78.1278 46.4576 77.9915 45.9803 77.7188C45.5059 77.4432 45.1408 77.054 44.8851 76.5511C44.6294 76.0455 44.5016 75.4503 44.5016 74.7656C44.5016 74.0923 44.6294 73.5014 44.8851 72.9929C45.1436 72.4815 45.5044 72.0838 45.9675 71.7997C46.4306 71.5128 46.9746 71.3693 47.5996 71.3693C48.003 71.3693 48.3837 71.4347 48.7417 71.5653C49.1025 71.6932 49.4206 71.892 49.6962 72.1619C49.9746 72.4318 50.1934 72.7756 50.3525 73.1932C50.5115 73.608 50.5911 74.1023 50.5911 74.6761V75.1491H45.226V74.1094H49.1124C49.1096 73.8139 49.0456 73.5511 48.9206 73.321C48.7956 73.0881 48.6209 72.9048 48.3965 72.7713C48.1749 72.6378 47.9164 72.571 47.6209 72.571C47.3056 72.571 47.0286 72.6477 46.79 72.8011C46.5513 72.9517 46.3652 73.1506 46.2317 73.3977C46.101 73.642 46.0343 73.9105 46.0314 74.2031V75.1108C46.0314 75.4915 46.101 75.8182 46.2402 76.0909C46.3794 76.3608 46.574 76.5682 46.824 76.7131C47.074 76.8551 47.3667 76.9261 47.7019 76.9261C47.9263 76.9261 48.1294 76.8949 48.3113 76.8324C48.4931 76.767 48.6507 76.6719 48.7843 76.5469C48.9178 76.4219 49.0186 76.267 49.0868 76.0824L50.5272 76.2443C50.4363 76.625 50.263 76.9574 50.0073 77.2415C49.7544 77.5227 49.4306 77.7415 49.0357 77.8977C48.6408 78.0511 48.1891 78.1278 47.6806 78.1278ZM53.4387 69.2727V78H51.8961V69.2727H53.4387ZM60.1983 73.1847L58.7921 73.3381C58.7523 73.196 58.6827 73.0625 58.5833 72.9375C58.4867 72.8125 58.356 72.7116 58.1912 72.6349C58.0265 72.5582 57.8248 72.5199 57.5861 72.5199C57.2651 72.5199 56.9952 72.5895 56.7765 72.7287C56.5605 72.8679 56.454 73.0483 56.4569 73.2699C56.454 73.4602 56.5236 73.6151 56.6657 73.7344C56.8105 73.8537 57.0492 73.9517 57.3816 74.0284L58.498 74.267C59.1174 74.4006 59.5776 74.6122 59.8787 74.902C60.1827 75.1918 60.3361 75.571 60.339 76.0398C60.3361 76.4517 60.2154 76.8153 59.9767 77.1307C59.7409 77.4432 59.4128 77.6875 58.9924 77.8636C58.5719 78.0398 58.089 78.1278 57.5435 78.1278C56.7424 78.1278 56.0975 77.9602 55.6088 77.625C55.1202 77.2869 54.829 76.8168 54.7353 76.2145L56.2395 76.0696C56.3077 76.3651 56.4526 76.5881 56.6742 76.7386C56.8958 76.8892 57.1841 76.9645 57.5392 76.9645C57.9057 76.9645 58.1998 76.8892 58.4213 76.7386C58.6458 76.5881 58.758 76.402 58.758 76.1804C58.758 75.9929 58.6855 75.8381 58.5407 75.7159C58.3986 75.5937 58.177 75.5 57.8759 75.4347L56.7594 75.2003C56.1316 75.0696 55.6671 74.8494 55.3659 74.5398C55.0648 74.2273 54.9157 73.8324 54.9185 73.3551C54.9157 72.9517 55.025 72.6023 55.2466 72.3068C55.4711 72.0085 55.7821 71.7784 56.1799 71.6165C56.5804 71.4517 57.0421 71.3693 57.5648 71.3693C58.3319 71.3693 58.9355 71.5327 59.3759 71.8594C59.8191 72.1861 60.0932 72.6278 60.1983 73.1847Z" fill="white"/>
</svg>
