<svg width="129" height="58" viewBox="0 0 129 58" fill="none" xmlns="http://www.w3.org/2000/svg">
<path fill-rule="evenodd" clip-rule="evenodd" d="M58.5469 7.4795C57.1634 7.4795 56.4494 8.68063 56.0257 10.0051L54.9663 13.3703L54.443 12.3861C52.0955 12.2479 51.8285 13.5702 54.1549 14.7522C51.5637 16.4401 51.9217 19.3845 52.176 22.6541C52.1738 22.6945 52.1738 22.7349 52.176 22.7753V24.595C52.1765 24.8024 52.2584 25.0012 52.4039 25.1484C52.5495 25.2956 52.7469 25.3794 52.9535 25.3816H56.3075C56.5141 25.3794 56.7115 25.2956 56.8571 25.1484C57.0026 25.0012 57.0845 24.8024 57.085 24.595V23.9573H72.9457V24.595C72.9462 24.8039 73.0293 25.0039 73.1766 25.1514C73.324 25.2988 73.5236 25.3816 73.7317 25.3816H77.0856C77.2937 25.3816 77.4933 25.2988 77.6407 25.1514C77.788 25.0039 77.8711 24.8039 77.8717 24.595V23.1962C78.1344 18.9444 78.2954 17.2161 76.6174 15.492L76.1936 14.8542C78.7361 13.6446 78.5242 12.2436 76.1195 12.3839L75.664 13.264L74.8546 10.0008C74.5199 8.65512 73.7232 7.47738 72.3397 7.47738H65.8755C65.8755 7.40084 65.8607 7.31793 65.8501 7.2244C67.3332 6.98842 67.8438 6.20822 67.8438 4.67333V3.75919H68.1383C68.2376 3.75864 68.3327 3.71881 68.4029 3.64837C68.4731 3.57792 68.5128 3.48254 68.5133 3.38291V2.95348C68.5128 2.85386 68.4731 2.75847 68.4029 2.68803C68.3327 2.61758 68.2376 2.57776 68.1383 2.5772H66.9942V0.678779C66.9942 0.522008 66.9326 0.371563 66.8227 0.260114C66.7128 0.148664 66.5636 0.0852099 66.4073 0.0835302C66.2502 0.0840904 66.0996 0.146984 65.9885 0.258494C65.8773 0.370003 65.8147 0.521082 65.8141 0.678779V2.5772H64.0768V0.678779C64.0765 0.599971 64.0607 0.521995 64.0302 0.449346C63.9998 0.376696 63.9553 0.310808 63.8994 0.255478C63.8435 0.200148 63.7772 0.156469 63.7043 0.126959C63.6315 0.0974479 63.5536 0.0826883 63.475 0.0835302C63.3179 0.0840904 63.1673 0.146984 63.0562 0.258494C62.945 0.370003 62.8824 0.521082 62.8818 0.678779V2.5772H61.7695C61.6702 2.57776 61.5751 2.61758 61.5049 2.68803C61.4347 2.75847 61.395 2.85386 61.3945 2.95348V3.39142C61.395 3.49104 61.4347 3.58642 61.5049 3.65687C61.5751 3.72732 61.6702 3.76714 61.7695 3.7677H62.0025V4.59254C62.0025 6.14019 62.5915 7.08621 64.1954 7.2414C64.1954 7.32856 64.2145 7.40722 64.2208 7.4795H58.5469ZM66.5027 4.10359H63.3437V4.57554H66.5027V4.10359ZM65.795 17.9729H66.8544C66.9035 17.9735 66.9516 17.9872 66.9936 18.0127C67.0357 18.0382 67.0701 18.0746 67.0935 18.1179C67.1168 18.1613 67.1282 18.2101 67.1264 18.2594C67.1246 18.3087 67.1097 18.3565 67.0832 18.3981L64.5831 22.6754C64.5648 22.7067 64.5404 22.734 64.5115 22.7558C64.4825 22.7776 64.4496 22.7934 64.4145 22.8023C64.3794 22.8112 64.3429 22.813 64.3071 22.8076C64.2713 22.8023 64.237 22.7898 64.206 22.771C64.1578 22.7407 64.1198 22.6965 64.0971 22.6441C64.0744 22.5918 64.0681 22.5337 64.0789 22.4777L64.4369 19.8543L63.1954 19.8756C63.1592 19.8761 63.1233 19.8695 63.0896 19.8562C63.056 19.8428 63.0253 19.8229 62.9994 19.7976C62.9734 19.7724 62.9526 19.7422 62.9383 19.7089C62.9239 19.6756 62.9163 19.6397 62.9157 19.6035C62.9153 19.5527 62.9284 19.5028 62.9538 19.4589L65.4115 15.188C65.4443 15.1339 65.4946 15.0928 65.554 15.0715C65.6134 15.0502 65.6783 15.0499 65.7378 15.0709C65.7973 15.0918 65.8479 15.1325 65.8811 15.1863C65.9142 15.2402 65.928 15.3038 65.92 15.3666L65.795 17.9729ZM57.5321 9.73507C57.6236 9.54949 57.7528 9.38512 57.9113 9.25249C58.055 9.10865 58.2255 8.99462 58.413 8.91693C58.6006 8.83923 58.8016 8.79939 59.0046 8.79968H71.7401C72.7995 8.79968 73.4351 9.69043 73.647 10.713L74.469 14.1144H56.0744L57.085 10.7279C57.1875 10.3816 57.3297 10.0484 57.5088 9.73507H57.5321ZM58.4474 18.6298L55.4579 18.2535C54.7544 18.1749 54.5659 18.4661 54.8053 19.0805L55.1273 19.8649C55.2178 20.0494 55.357 20.2053 55.5299 20.3156C55.733 20.4336 55.9626 20.498 56.1973 20.5027L58.8541 20.5218C59.4898 20.5218 59.7737 20.2646 59.5724 19.6715C59.5006 19.4079 59.3558 19.1702 59.1548 18.9858C58.9538 18.8014 58.7048 18.678 58.4368 18.6298H58.4474ZM71.6088 18.6298L74.5877 18.2535C75.2911 18.1749 75.4796 18.4661 75.2402 19.0805L74.9182 19.8649C74.8277 20.0494 74.6885 20.2053 74.5156 20.3156C74.3125 20.4336 74.0829 20.498 73.8482 20.5027L71.1914 20.5218C70.5558 20.5218 70.2719 20.2646 70.4731 19.6715C70.545 19.4079 70.6898 19.1702 70.8908 18.9858C71.0917 18.8014 71.3407 18.678 71.6088 18.6298Z" fill="white"/>
<path d="M8.1733 32.1345H10.108L12.6989 38.4584H12.8011L15.392 32.1345H17.3267V40.8618H15.8097V34.8661H15.7287L13.3168 40.8362H12.1832L9.77131 34.8533H9.69034V40.8618H8.1733V32.1345ZM23.152 38.109V34.3164H24.6946V40.8618H23.1989V39.6985H23.1307C22.983 40.0649 22.7401 40.3647 22.402 40.5976C22.0668 40.8306 21.6534 40.947 21.1619 40.947C20.733 40.947 20.3537 40.8519 20.0241 40.6615C19.6974 40.4684 19.4418 40.1885 19.2571 39.822C19.0724 39.4527 18.9801 39.0067 18.9801 38.484V34.3164H20.5227V38.2453C20.5227 38.6601 20.6364 38.9897 20.8636 39.234C21.0909 39.4783 21.3892 39.6005 21.7585 39.6005C21.9858 39.6005 22.206 39.5451 22.419 39.4343C22.6321 39.3235 22.8068 39.1587 22.9432 38.9399C23.0824 38.7184 23.152 38.4414 23.152 38.109ZM27.8235 32.1345V40.8618H26.2809V32.1345H27.8235ZM32.6783 34.3164V35.5095H28.9155V34.3164H32.6783ZM29.8445 32.7482H31.3871V38.8931C31.3871 39.1005 31.4183 39.2595 31.4808 39.3703C31.5462 39.4783 31.6314 39.5522 31.7365 39.5919C31.8416 39.6317 31.9581 39.6516 32.0859 39.6516C32.1825 39.6516 32.2706 39.6445 32.3501 39.6303C32.4325 39.6161 32.495 39.6033 32.5376 39.5919L32.7976 40.7979C32.7152 40.8263 32.5973 40.8576 32.4439 40.8916C32.2933 40.9257 32.1087 40.9456 31.8899 40.9513C31.5036 40.9627 31.1555 40.9044 30.8459 40.7766C30.5362 40.6459 30.2905 40.4442 30.1087 40.1715C29.9297 39.8987 29.8416 39.5578 29.8445 39.1487V32.7482ZM33.9684 40.8618V34.3164H35.511V40.8618H33.9684ZM34.744 33.3874C34.4996 33.3874 34.2894 33.3064 34.1133 33.1445C33.9371 32.9797 33.8491 32.7823 33.8491 32.5522C33.8491 32.3192 33.9371 32.1218 34.1133 31.9598C34.2894 31.7951 34.4996 31.7127 34.744 31.7127C34.9911 31.7127 35.2013 31.7951 35.3746 31.9598C35.5508 32.1218 35.6388 32.3192 35.6388 32.5522C35.6388 32.7823 35.5508 32.9797 35.3746 33.1445C35.2013 33.3064 34.9911 33.3874 34.744 33.3874ZM37.0973 43.3164V34.3164H38.6143V35.3987H38.7038C38.7834 35.2397 38.8956 35.0706 39.0405 34.8916C39.1854 34.7098 39.3814 34.555 39.6286 34.4272C39.8757 34.2965 40.1911 34.2311 40.5746 34.2311C41.0803 34.2311 41.5362 34.3604 41.9425 34.6189C42.3516 34.8746 42.6754 35.2539 42.9141 35.7567C43.1555 36.2567 43.2763 36.8703 43.2763 37.5976C43.2763 38.3164 43.1584 38.9272 42.9226 39.43C42.6868 39.9328 42.3658 40.3164 41.9595 40.5806C41.5533 40.8448 41.093 40.9769 40.5788 40.9769C40.2038 40.9769 39.8928 40.9144 39.6456 40.7894C39.3984 40.6644 39.1996 40.5138 39.049 40.3377C38.9013 40.1587 38.7862 39.9897 38.7038 39.8306H38.6399V43.3164H37.0973ZM38.6101 37.5891C38.6101 38.0124 38.6697 38.3831 38.7891 38.7013C38.9112 39.0195 39.0859 39.2681 39.3132 39.447C39.5433 39.6232 39.8217 39.7112 40.1484 39.7112C40.4893 39.7112 40.7749 39.6203 41.005 39.4385C41.2351 39.2539 41.4084 39.0024 41.5249 38.6843C41.6442 38.3632 41.7038 37.9982 41.7038 37.5891C41.7038 37.1828 41.6456 36.822 41.5291 36.5067C41.4126 36.1914 41.2393 35.9442 41.0092 35.7652C40.7791 35.5862 40.4922 35.4968 40.1484 35.4968C39.8189 35.4968 39.5391 35.5834 39.3089 35.7567C39.0788 35.93 38.9041 36.1729 38.7848 36.4854C38.6683 36.7979 38.6101 37.1658 38.6101 37.5891ZM46.1399 32.1345V40.8618H44.5973V32.1345H46.1399ZM50.6239 40.9897C49.9677 40.9897 49.4009 40.8533 48.9237 40.5806C48.4492 40.305 48.0842 39.9158 47.8285 39.413C47.5728 38.9073 47.445 38.3121 47.445 37.6274C47.445 36.9541 47.5728 36.3632 47.8285 35.8547C48.087 35.3434 48.4478 34.9456 48.9109 34.6615C49.3739 34.3746 49.918 34.2311 50.543 34.2311C50.9464 34.2311 51.3271 34.2965 51.685 34.4272C52.0458 34.555 52.364 34.7539 52.6396 35.0237C52.918 35.2936 53.1367 35.6374 53.2958 36.055C53.4549 36.4698 53.5344 36.9641 53.5344 37.538V38.011H48.1694V36.9712H52.0558C52.0529 36.6757 51.989 36.413 51.864 36.1828C51.739 35.9499 51.5643 35.7666 51.3398 35.6331C51.1183 35.4996 50.8597 35.4328 50.5643 35.4328C50.2489 35.4328 49.9719 35.5095 49.7333 35.663C49.4947 35.8135 49.3086 36.0124 49.1751 36.2595C49.0444 36.5039 48.9776 36.7723 48.9748 37.0649V37.9726C48.9748 38.3533 49.0444 38.68 49.1836 38.9527C49.3228 39.2226 49.5174 39.43 49.7674 39.5749C50.0174 39.7169 50.31 39.788 50.6452 39.788C50.8697 39.788 51.0728 39.7567 51.2546 39.6942C51.4364 39.6289 51.5941 39.5337 51.7276 39.4087C51.8612 39.2837 51.962 39.1289 52.0302 38.9442L53.4705 39.1061C53.3796 39.4868 53.2063 39.8192 52.9506 40.1033C52.6978 40.3845 52.3739 40.6033 51.979 40.7595C51.5842 40.913 51.1325 40.9897 50.6239 40.9897ZM57.8842 40.8618V32.1345H61.157C61.8274 32.1345 62.3899 32.251 62.8445 32.484C63.3018 32.7169 63.647 33.0436 63.88 33.4641C64.1158 33.8817 64.2337 34.3689 64.2337 34.9257C64.2337 35.4854 64.1143 35.9712 63.8757 36.3831C63.6399 36.7922 63.2919 37.109 62.8317 37.3334C62.3714 37.555 61.8061 37.6658 61.1357 37.6658H58.8047V36.3533H60.9226C61.3146 36.3533 61.6357 36.2993 61.8857 36.1914C62.1357 36.0806 62.3203 35.9201 62.4396 35.7098C62.5618 35.4968 62.6229 35.2354 62.6229 34.9257C62.6229 34.6161 62.5618 34.3519 62.4396 34.1331C62.3175 33.9115 62.1314 33.7439 61.8814 33.6303C61.6314 33.5138 61.3089 33.4556 60.9141 33.4556H59.4652V40.8618H57.8842ZM62.3928 36.9073L64.5533 40.8618H62.7891L60.6669 36.9073H62.3928ZM68.4247 40.9897C67.7685 40.9897 67.2017 40.8533 66.7244 40.5806C66.25 40.305 65.8849 39.9158 65.6293 39.413C65.3736 38.9073 65.2457 38.3121 65.2457 37.6274C65.2457 36.9541 65.3736 36.3632 65.6293 35.8547C65.8878 35.3434 66.2486 34.9456 66.7116 34.6615C67.1747 34.3746 67.7188 34.2311 68.3438 34.2311C68.7472 34.2311 69.1278 34.2965 69.4858 34.4272C69.8466 34.555 70.1648 34.7539 70.4403 35.0237C70.7188 35.2936 70.9375 35.6374 71.0966 36.055C71.2557 36.4698 71.3352 36.9641 71.3352 37.538V38.011H65.9702V36.9712H69.8565C69.8537 36.6757 69.7898 36.413 69.6648 36.1828C69.5398 35.9499 69.3651 35.7666 69.1406 35.6331C68.919 35.4996 68.6605 35.4328 68.3651 35.4328C68.0497 35.4328 67.7727 35.5095 67.5341 35.663C67.2955 35.8135 67.1094 36.0124 66.9759 36.2595C66.8452 36.5039 66.7784 36.7723 66.7756 37.0649V37.9726C66.7756 38.3533 66.8452 38.68 66.9844 38.9527C67.1236 39.2226 67.3182 39.43 67.5682 39.5749C67.8182 39.7169 68.1108 39.788 68.446 39.788C68.6705 39.788 68.8736 39.7567 69.0554 39.6942C69.2372 39.6289 69.3949 39.5337 69.5284 39.4087C69.6619 39.2837 69.7628 39.1289 69.831 38.9442L71.2713 39.1061C71.1804 39.4868 71.0071 39.8192 70.7514 40.1033C70.4986 40.3845 70.1747 40.6033 69.7798 40.7595C69.3849 40.913 68.9332 40.9897 68.4247 40.9897ZM75.4954 40.9897C74.842 40.9897 74.2809 40.8462 73.8121 40.5593C73.3462 40.2723 72.9869 39.876 72.734 39.3703C72.484 38.8618 72.359 38.2766 72.359 37.6147C72.359 36.9499 72.4869 36.3632 72.7425 35.8547C72.9982 35.3434 73.359 34.9456 73.8249 34.6615C74.2937 34.3746 74.8477 34.2311 75.4869 34.2311C76.0181 34.2311 76.4883 34.3291 76.8974 34.5252C77.3093 34.7184 77.6374 34.9925 77.8817 35.3476C78.1261 35.6999 78.2653 36.1118 78.2994 36.5834H76.8249C76.7653 36.2681 76.6232 36.0053 76.3988 35.7951C76.1772 35.582 75.8803 35.4755 75.5082 35.4755C75.1928 35.4755 74.9158 35.5607 74.6772 35.7311C74.4386 35.8987 74.2525 36.1402 74.119 36.4556C73.9883 36.7709 73.9229 37.1487 73.9229 37.5891C73.9229 38.0351 73.9883 38.4186 74.119 38.7397C74.2496 39.0578 74.4329 39.3036 74.6687 39.4769C74.9073 39.6473 75.1871 39.7326 75.5082 39.7326C75.7354 39.7326 75.9386 39.6899 76.1175 39.6047C76.2994 39.5166 76.4513 39.3902 76.5735 39.2255C76.6957 39.0607 76.7795 38.8604 76.8249 38.6246H78.2994C78.2624 39.0877 78.1261 39.4982 77.8903 39.8561C77.6545 40.2112 77.3335 40.4897 76.9272 40.6914C76.521 40.8902 76.0437 40.9897 75.4954 40.9897ZM81.1087 37.0266V40.8618H79.5661V32.1345H81.0746V35.4286H81.1513C81.3047 35.0593 81.5419 34.7681 81.8629 34.555C82.1868 34.3391 82.5987 34.2311 83.0987 34.2311C83.5533 34.2311 83.9496 34.3263 84.2876 34.5166C84.6257 34.707 84.8871 34.9854 85.0717 35.3519C85.2592 35.7184 85.353 36.1658 85.353 36.6942V40.8618H83.8104V36.9328C83.8104 36.4925 83.6967 36.1502 83.4695 35.9059C83.245 35.6587 82.9297 35.5351 82.5234 35.5351C82.2507 35.5351 82.0064 35.5948 81.7905 35.7141C81.5774 35.8306 81.4098 35.9996 81.2876 36.2212C81.1683 36.4428 81.1087 36.7112 81.1087 37.0266ZM88.8089 40.9939C88.3942 40.9939 88.0206 40.9201 87.6882 40.7723C87.3587 40.6218 87.0973 40.4002 86.9041 40.1076C86.7138 39.8149 86.6186 39.4541 86.6186 39.0252C86.6186 38.6559 86.6868 38.3505 86.8232 38.109C86.9595 37.8675 87.1456 37.6743 87.3814 37.5294C87.6172 37.3845 87.8828 37.2752 88.1783 37.2013C88.4766 37.1246 88.7848 37.0692 89.103 37.0351C89.4865 36.9953 89.7976 36.9598 90.0362 36.9286C90.2749 36.8945 90.4482 36.8434 90.5561 36.7752C90.6669 36.7041 90.7223 36.5948 90.7223 36.447V36.4215C90.7223 36.1005 90.6271 35.8519 90.4368 35.6757C90.2464 35.4996 89.9723 35.4115 89.6143 35.4115C89.2365 35.4115 88.9368 35.4939 88.7152 35.6587C88.4964 35.8235 88.3487 36.0181 88.272 36.2425L86.8317 36.038C86.9453 35.6402 87.1328 35.3078 87.3942 35.0408C87.6555 34.7709 87.9751 34.5692 88.353 34.4357C88.7308 34.2993 89.1484 34.2311 89.6058 34.2311C89.9212 34.2311 90.2351 34.2681 90.5476 34.3419C90.8601 34.4158 91.1456 34.538 91.4041 34.7084C91.6626 34.876 91.87 35.1047 92.0263 35.3945C92.1854 35.6843 92.2649 36.0465 92.2649 36.4811V40.8618H90.782V39.9627H90.7308C90.6371 40.1445 90.505 40.3149 90.3345 40.474C90.1669 40.6303 89.9553 40.7567 89.6996 40.8533C89.4467 40.947 89.1499 40.9939 88.8089 40.9939ZM89.2095 39.8604C89.5192 39.8604 89.7876 39.7993 90.0149 39.6772C90.2422 39.5522 90.4169 39.3874 90.5391 39.1828C90.6641 38.9783 90.7266 38.7553 90.7266 38.5138V37.7425C90.6783 37.7823 90.5959 37.8192 90.4794 37.8533C90.3658 37.8874 90.2379 37.9172 90.0959 37.9428C89.9538 37.9684 89.8132 37.9911 89.674 38.011C89.5348 38.0309 89.4141 38.0479 89.3118 38.0621C89.0817 38.0934 88.8757 38.1445 88.6939 38.2155C88.5121 38.2865 88.3686 38.386 88.2635 38.5138C88.1584 38.6388 88.1058 38.8007 88.1058 38.9996C88.1058 39.2837 88.2095 39.4982 88.4169 39.6431C88.6243 39.788 88.8885 39.8604 89.2095 39.8604ZM93.8161 40.8618V34.3164H95.3118V35.4073H95.38C95.4993 35.0294 95.7038 34.7382 95.9936 34.5337C96.2862 34.3263 96.62 34.2226 96.995 34.2226C97.0803 34.2226 97.1754 34.2269 97.2805 34.2354C97.3885 34.2411 97.478 34.251 97.549 34.2652V35.6843C97.4837 35.6615 97.38 35.6416 97.2379 35.6246C97.0987 35.6047 96.9638 35.5948 96.8331 35.5948C96.5518 35.5948 96.299 35.6559 96.0746 35.778C95.853 35.8973 95.6783 36.0635 95.5504 36.2766C95.4226 36.4897 95.3587 36.7354 95.3587 37.0138V40.8618H93.8161ZM101.151 43.4527C100.597 43.4527 100.121 43.3774 99.7234 43.2269C99.3256 43.0791 99.006 42.8803 98.7646 42.6303C98.5231 42.3803 98.3555 42.1033 98.2617 41.7993L99.6509 41.4627C99.7134 41.5905 99.8043 41.7169 99.9237 41.8419C100.043 41.9698 100.203 42.0749 100.405 42.1573C100.61 42.2425 100.867 42.2851 101.176 42.2851C101.614 42.2851 101.976 42.1786 102.263 41.9655C102.55 41.7553 102.694 41.4087 102.694 40.9257V39.6857H102.617C102.537 39.8448 102.421 40.0081 102.267 40.1757C102.117 40.3434 101.917 40.484 101.667 40.5976C101.419 40.7112 101.108 40.7681 100.733 40.7681C100.23 40.7681 99.7745 40.6502 99.3654 40.4144C98.9592 40.1757 98.6353 39.8206 98.3938 39.349C98.1552 38.8746 98.0359 38.2809 98.0359 37.5678C98.0359 36.849 98.1552 36.2425 98.3938 35.7482C98.6353 35.251 98.9606 34.8746 99.3697 34.6189C99.7788 34.3604 100.235 34.2311 100.738 34.2311C101.121 34.2311 101.436 34.2965 101.684 34.4272C101.934 34.555 102.132 34.7098 102.28 34.8916C102.428 35.0706 102.54 35.2397 102.617 35.3987H102.702V34.3164H104.223V40.9684C104.223 41.528 104.09 41.9911 103.823 42.3576C103.556 42.724 103.191 42.9982 102.728 43.18C102.265 43.3618 101.739 43.4527 101.151 43.4527ZM101.164 39.5578C101.49 39.5578 101.769 39.4783 101.999 39.3192C102.229 39.1601 102.404 38.9314 102.523 38.6331C102.642 38.3348 102.702 37.9769 102.702 37.5593C102.702 37.1473 102.642 36.7865 102.523 36.4769C102.407 36.1672 102.233 35.9272 102.003 35.7567C101.776 35.5834 101.496 35.4968 101.164 35.4968C100.82 35.4968 100.533 35.5862 100.303 35.7652C100.073 35.9442 99.8995 36.1899 99.783 36.5024C99.6665 36.8121 99.6083 37.1644 99.6083 37.5593C99.6083 37.9598 99.6665 38.3107 99.783 38.6118C99.9023 38.9101 100.077 39.1431 100.307 39.3107C100.54 39.4755 100.826 39.5578 101.164 39.5578ZM108.702 40.9897C108.046 40.9897 107.479 40.8533 107.002 40.5806C106.527 40.305 106.162 39.9158 105.907 39.413C105.651 38.9073 105.523 38.3121 105.523 37.6274C105.523 36.9541 105.651 36.3632 105.907 35.8547C106.165 35.3434 106.526 34.9456 106.989 34.6615C107.452 34.3746 107.996 34.2311 108.621 34.2311C109.025 34.2311 109.405 34.2965 109.763 34.4272C110.124 34.555 110.442 34.7539 110.718 35.0237C110.996 35.2936 111.215 35.6374 111.374 36.055C111.533 36.4698 111.613 36.9641 111.613 37.538V38.011H106.248V36.9712H110.134C110.131 36.6757 110.067 36.413 109.942 36.1828C109.817 35.9499 109.642 35.7666 109.418 35.6331C109.196 35.4996 108.938 35.4328 108.642 35.4328C108.327 35.4328 108.05 35.5095 107.811 35.663C107.573 35.8135 107.387 36.0124 107.253 36.2595C107.123 36.5039 107.056 36.7723 107.053 37.0649V37.9726C107.053 38.3533 107.123 38.68 107.262 38.9527C107.401 39.2226 107.596 39.43 107.846 39.5749C108.096 39.7169 108.388 39.788 108.723 39.788C108.948 39.788 109.151 39.7567 109.333 39.6942C109.515 39.6289 109.672 39.5337 109.806 39.4087C109.939 39.2837 110.04 39.1289 110.108 38.9442L111.549 39.1061C111.458 39.4868 111.284 39.8192 111.029 40.1033C110.776 40.3845 110.452 40.6033 110.057 40.7595C109.662 40.913 109.211 40.9897 108.702 40.9897ZM118.091 36.0465L116.685 36.1999C116.645 36.0578 116.575 35.9243 116.476 35.7993C116.379 35.6743 116.249 35.5735 116.084 35.4968C115.919 35.4201 115.717 35.3817 115.479 35.3817C115.158 35.3817 114.888 35.4513 114.669 35.5905C114.453 35.7297 114.347 35.9101 114.349 36.1317C114.347 36.322 114.416 36.4769 114.558 36.5962C114.703 36.7155 114.942 36.8135 115.274 36.8902L116.391 37.1289C117.01 37.2624 117.47 37.474 117.771 37.7638C118.075 38.0536 118.229 38.4328 118.232 38.9016C118.229 39.3135 118.108 39.6772 117.869 39.9925C117.634 40.305 117.305 40.5493 116.885 40.7255C116.464 40.9016 115.982 40.9897 115.436 40.9897C114.635 40.9897 113.99 40.822 113.501 40.4868C113.013 40.1487 112.722 39.6786 112.628 39.0763L114.132 38.9314C114.2 39.2269 114.345 39.4499 114.567 39.6005C114.788 39.751 115.077 39.8263 115.432 39.8263C115.798 39.8263 116.092 39.751 116.314 39.6005C116.538 39.4499 116.651 39.2638 116.651 39.0422C116.651 38.8547 116.578 38.6999 116.433 38.5777C116.291 38.4556 116.07 38.3618 115.768 38.2965L114.652 38.0621C114.024 37.9314 113.56 37.7112 113.259 37.4016C112.957 37.0891 112.808 36.6942 112.811 36.2169C112.808 35.8135 112.918 35.4641 113.139 35.1686C113.364 34.8703 113.675 34.6402 114.072 34.4783C114.473 34.3135 114.935 34.2311 115.457 34.2311C116.224 34.2311 116.828 34.3945 117.268 34.7212C117.712 35.0479 117.986 35.4897 118.091 36.0465ZM5.67241 49.3164V50.5095H1.80309V49.3164H5.67241ZM2.77042 55.8618V48.6985C2.77042 48.2581 2.86133 47.8916 3.04315 47.599C3.22781 47.3064 3.47496 47.0877 3.78462 46.9428C4.09428 46.7979 4.43803 46.7255 4.81587 46.7255C5.08292 46.7255 5.32014 46.7468 5.52752 46.7894C5.73491 46.832 5.88832 46.8703 5.98775 46.9044L5.68093 48.0976C5.61559 48.0777 5.5332 48.0578 5.43377 48.038C5.33434 48.0152 5.22354 48.0039 5.10138 48.0039C4.81445 48.0039 4.61133 48.0735 4.49201 48.2127C4.37553 48.349 4.31729 48.5451 4.31729 48.8007V55.8618H2.77042ZM9.48952 55.9897C8.85032 55.9897 8.29634 55.849 7.82759 55.5678C7.35884 55.2865 6.99521 54.8931 6.73668 54.3874C6.481 53.8817 6.35316 53.2908 6.35316 52.6147C6.35316 51.9385 6.481 51.3462 6.73668 50.8377C6.99521 50.3291 7.35884 49.9343 7.82759 49.653C8.29634 49.3718 8.85032 49.2311 9.48952 49.2311C10.1287 49.2311 10.6827 49.3718 11.1515 49.653C11.6202 49.9343 11.9824 50.3291 12.2381 50.8377C12.4966 51.3462 12.6259 51.9385 12.6259 52.6147C12.6259 53.2908 12.4966 53.8817 12.2381 54.3874C11.9824 54.8931 11.6202 55.2865 11.1515 55.5678C10.6827 55.849 10.1287 55.9897 9.48952 55.9897ZM9.49805 54.7539C9.84464 54.7539 10.1344 54.6587 10.3674 54.4684C10.6003 54.2752 10.7736 54.0166 10.8873 53.6928C11.0037 53.3689 11.062 53.0081 11.062 52.6104C11.062 52.2098 11.0037 51.8476 10.8873 51.5237C10.7736 51.197 10.6003 50.9371 10.3674 50.7439C10.1344 50.5507 9.84464 50.4541 9.49805 50.4541C9.14293 50.4541 8.84748 50.5507 8.61168 50.7439C8.37873 50.9371 8.20401 51.197 8.08754 51.5237C7.9739 51.8476 7.91708 52.2098 7.91708 52.6104C7.91708 53.0081 7.9739 53.3689 8.08754 53.6928C8.20401 54.0166 8.37873 54.2752 8.61168 54.4684C8.84748 54.6587 9.14293 54.7539 9.49805 54.7539ZM13.9352 55.8618V49.3164H15.4309V50.4073H15.4991C15.6184 50.0294 15.823 49.7382 16.1127 49.5337C16.4054 49.3263 16.7392 49.2226 17.1142 49.2226C17.1994 49.2226 17.2946 49.2269 17.3997 49.2354C17.5076 49.2411 17.5971 49.251 17.6681 49.2652V50.6843C17.6028 50.6615 17.4991 50.6416 17.3571 50.6246C17.2179 50.6047 17.0829 50.5948 16.9522 50.5948C16.671 50.5948 16.4181 50.6559 16.1937 50.778C15.9721 50.8973 15.7974 51.0635 15.6696 51.2766C15.5417 51.4897 15.4778 51.7354 15.4778 52.0138V55.8618H13.9352ZM21.7377 55.8618V47.1345H27.4139V48.4598H23.3187V50.8291H27.1199V52.1544H23.3187V54.5365H27.448V55.8618H21.7377ZM30.1944 47.1345L32.4657 54.0039H32.5552L34.8223 47.1345H36.5609L33.4842 55.8618H31.5325L28.46 47.1345H30.1944ZM40.687 55.8618V47.1345H43.9597C44.6301 47.1345 45.1926 47.2595 45.6472 47.5095C46.1046 47.7595 46.4498 48.1033 46.6827 48.5408C46.9185 48.9755 47.0364 49.4698 47.0364 50.0237C47.0364 50.5834 46.9185 51.0806 46.6827 51.5152C46.4469 51.9499 46.0989 52.2922 45.6387 52.5422C45.1784 52.7894 44.6117 52.913 43.9384 52.913H41.7694V51.6132H43.7253C44.1174 51.6132 44.4384 51.5451 44.6884 51.4087C44.9384 51.2723 45.123 51.0848 45.2424 50.8462C45.3645 50.6076 45.4256 50.3334 45.4256 50.0237C45.4256 49.7141 45.3645 49.4414 45.2424 49.2056C45.123 48.9698 44.937 48.7865 44.6841 48.6559C44.4341 48.5223 44.1117 48.4556 43.7168 48.4556H42.2679V55.8618H40.687ZM51.1028 55.9897C50.4636 55.9897 49.9096 55.849 49.4409 55.5678C48.9721 55.2865 48.6085 54.8931 48.35 54.3874C48.0943 53.8817 47.9664 53.2908 47.9664 52.6147C47.9664 51.9385 48.0943 51.3462 48.35 50.8377C48.6085 50.3291 48.9721 49.9343 49.4409 49.653C49.9096 49.3718 50.4636 49.2311 51.1028 49.2311C51.742 49.2311 52.296 49.3718 52.7647 49.653C53.2335 49.9343 53.5957 50.3291 53.8514 50.8377C54.1099 51.3462 54.2392 51.9385 54.2392 52.6147C54.2392 53.2908 54.1099 53.8817 53.8514 54.3874C53.5957 54.8931 53.2335 55.2865 52.7647 55.5678C52.296 55.849 51.742 55.9897 51.1028 55.9897ZM51.1113 54.7539C51.4579 54.7539 51.7477 54.6587 51.9806 54.4684C52.2136 54.2752 52.3869 54.0166 52.5005 53.6928C52.617 53.3689 52.6752 53.0081 52.6752 52.6104C52.6752 52.2098 52.617 51.8476 52.5005 51.5237C52.3869 51.197 52.2136 50.9371 51.9806 50.7439C51.7477 50.5507 51.4579 50.4541 51.1113 50.4541C50.7562 50.4541 50.4608 50.5507 50.225 50.7439C49.992 50.9371 49.8173 51.197 49.7008 51.5237C49.5872 51.8476 49.5304 52.2098 49.5304 52.6104C49.5304 53.0081 49.5872 53.3689 49.7008 53.6928C49.8173 54.0166 49.992 54.2752 50.225 54.4684C50.4608 54.6587 50.7562 54.7539 51.1113 54.7539ZM56.7118 55.8618L54.8624 49.3164H56.4348L57.5854 53.9186H57.6451L58.8212 49.3164H60.3766L61.5527 53.8931H61.6167L62.7502 49.3164H64.3269L62.4732 55.8618H60.8667L59.6394 51.4385H59.5499L58.3226 55.8618H56.7118ZM68.1142 55.9897C67.4579 55.9897 66.8912 55.8533 66.4139 55.5806C65.9395 55.305 65.5744 54.9158 65.3187 54.413C65.063 53.9073 64.9352 53.3121 64.9352 52.6274C64.9352 51.9541 65.063 51.3632 65.3187 50.8547C65.5772 50.3434 65.938 49.9456 66.4011 49.6615C66.8642 49.3746 67.4082 49.2311 68.0332 49.2311C68.4366 49.2311 68.8173 49.2965 69.1752 49.4272C69.536 49.555 69.8542 49.7539 70.1298 50.0237C70.4082 50.2936 70.627 50.6374 70.786 51.055C70.9451 51.4698 71.0247 51.9641 71.0247 52.538V53.011H65.6596V51.9712H69.546C69.5431 51.6757 69.4792 51.413 69.3542 51.1828C69.2292 50.9499 69.0545 50.7666 68.8301 50.6331C68.6085 50.4996 68.35 50.4328 68.0545 50.4328C67.7392 50.4328 67.4622 50.5095 67.2235 50.663C66.9849 50.8135 66.7988 51.0124 66.6653 51.2595C66.5346 51.5039 66.4679 51.7723 66.465 52.0649V52.9726C66.465 53.3533 66.5346 53.68 66.6738 53.9527C66.813 54.2226 67.0076 54.43 67.2576 54.5749C67.5076 54.7169 67.8002 54.788 68.1355 54.788C68.3599 54.788 68.563 54.7567 68.7449 54.6942C68.9267 54.6289 69.0843 54.5337 69.2179 54.4087C69.3514 54.2837 69.4522 54.1289 69.5204 53.9442L70.9608 54.1061C70.8699 54.4868 70.6966 54.8192 70.4409 55.1033C70.188 55.3845 69.8642 55.6033 69.4693 55.7595C69.0744 55.913 68.6227 55.9897 68.1142 55.9897ZM72.3297 55.8618V49.3164H73.8255V50.4073H73.8936C74.013 50.0294 74.2175 49.7382 74.5073 49.5337C74.7999 49.3263 75.1337 49.2226 75.5087 49.2226C75.5939 49.2226 75.6891 49.2269 75.7942 49.2354C75.9022 49.2411 75.9917 49.251 76.0627 49.2652V50.6843C75.9973 50.6615 75.8936 50.6416 75.7516 50.6246C75.6124 50.6047 75.4775 50.5948 75.3468 50.5948C75.0655 50.5948 74.8127 50.6559 74.5882 50.778C74.3667 50.8973 74.1919 51.0635 74.0641 51.2766C73.9363 51.4897 73.8723 51.7354 73.8723 52.0138V55.8618H72.3297ZM87.9306 51.4982C87.9306 52.4385 87.7544 53.2439 87.4022 53.9144C87.0527 54.582 86.5755 55.0934 85.9703 55.4485C85.3681 55.8036 84.6848 55.9811 83.9206 55.9811C83.1564 55.9811 82.4718 55.8036 81.8667 55.4485C81.2644 55.0905 80.7871 54.5777 80.4348 53.9101C80.0854 53.2397 79.9107 52.4357 79.9107 51.4982C79.9107 50.5578 80.0854 49.7539 80.4348 49.0862C80.7871 48.4158 81.2644 47.903 81.8667 47.5479C82.4718 47.1928 83.1564 47.0152 83.9206 47.0152C84.6848 47.0152 85.3681 47.1928 85.9703 47.5479C86.5755 47.903 87.0527 48.4158 87.4022 49.0862C87.7544 49.7539 87.9306 50.5578 87.9306 51.4982ZM86.3411 51.4982C86.3411 50.8362 86.2374 50.278 86.03 49.8235C85.8255 49.3661 85.5414 49.0209 85.1777 48.788C84.8141 48.5522 84.3951 48.4343 83.9206 48.4343C83.4462 48.4343 83.0272 48.5522 82.6635 48.788C82.2999 49.0209 82.0144 49.3661 81.807 49.8235C81.6025 50.278 81.5002 50.8362 81.5002 51.4982C81.5002 52.1601 81.6025 52.7198 81.807 53.1772C82.0144 53.6317 82.2999 53.9769 82.6635 54.2127C83.0272 54.4456 83.4462 54.5621 83.9206 54.5621C84.3951 54.5621 84.8141 54.4456 85.1777 54.2127C85.5414 53.9769 85.8255 53.6317 86.03 53.1772C86.2374 52.7198 86.3411 52.1601 86.3411 51.4982ZM92.6724 49.3164V50.5095H88.8031V49.3164H92.6724ZM89.7704 55.8618V48.6985C89.7704 48.2581 89.8613 47.8916 90.0431 47.599C90.2278 47.3064 90.475 47.0877 90.7846 46.9428C91.0943 46.7979 91.438 46.7255 91.8159 46.7255C92.0829 46.7255 92.3201 46.7468 92.5275 46.7894C92.7349 46.832 92.8883 46.8703 92.9877 46.9044L92.6809 48.0976C92.6156 48.0777 92.5332 48.0578 92.4338 48.038C92.3343 48.0152 92.2235 48.0039 92.1014 48.0039C91.8145 48.0039 91.6113 48.0735 91.492 48.2127C91.3755 48.349 91.3173 48.5451 91.3173 48.8007V55.8618H89.7704ZM97.1958 49.3164V50.5095H93.3265V49.3164H97.1958ZM94.2939 55.8618V48.6985C94.2939 48.2581 94.3848 47.8916 94.5666 47.599C94.7512 47.3064 94.9984 47.0877 95.3081 46.9428C95.6177 46.7979 95.9615 46.7255 96.3393 46.7255C96.6064 46.7255 96.8436 46.7468 97.051 46.7894C97.2583 46.832 97.4118 46.8703 97.5112 46.9044L97.2044 48.0976C97.139 48.0777 97.0566 48.0578 96.9572 48.038C96.8578 48.0152 96.747 48.0039 96.6248 48.0039C96.3379 48.0039 96.1348 48.0735 96.0154 48.2127C95.899 48.349 95.8407 48.5451 95.8407 48.8007V55.8618H94.2939ZM102.102 51.5919V52.8618H98.1728V51.5919H102.102ZM109.639 49.9215C109.568 49.6914 109.47 49.4854 109.345 49.3036C109.223 49.1189 109.075 48.9612 108.902 48.8306C108.731 48.6999 108.535 48.6019 108.314 48.5365C108.092 48.4684 107.851 48.4343 107.589 48.4343C107.121 48.4343 106.703 48.5522 106.336 48.788C105.97 49.0237 105.682 49.3703 105.471 49.8277C105.264 50.2823 105.16 50.8362 105.16 51.4897C105.16 52.1487 105.264 52.707 105.471 53.1644C105.679 53.6218 105.967 53.9698 106.336 54.2084C106.706 54.4442 107.135 54.5621 107.623 54.5621C108.067 54.5621 108.45 54.4769 108.774 54.3064C109.101 54.136 109.352 53.8945 109.528 53.582C109.704 53.2666 109.792 52.8973 109.792 52.474L110.15 52.5294H107.781V51.2936H111.322V52.3419C111.322 53.0891 111.163 53.7354 110.845 54.2809C110.527 54.8263 110.089 55.2468 109.532 55.5422C108.976 55.8348 108.336 55.9811 107.615 55.9811C106.811 55.9811 106.105 55.8007 105.497 55.4399C104.892 55.0763 104.419 54.5607 104.078 53.8931C103.74 53.2226 103.571 52.4272 103.571 51.5067C103.571 50.8022 103.67 50.1729 103.869 49.6189C104.071 49.0649 104.352 48.5948 104.713 48.2084C105.074 47.8192 105.497 47.5237 105.983 47.322C106.469 47.1175 106.997 47.0152 107.568 47.0152C108.051 47.0152 108.501 47.0862 108.919 47.2283C109.336 47.3675 109.707 47.5664 110.031 47.8249C110.358 48.0834 110.626 48.3902 110.836 48.7453C111.047 49.1005 111.184 49.4925 111.25 49.9215H109.639ZM112.783 55.8618V49.3164H114.279V50.4073H114.347C114.466 50.0294 114.671 49.7382 114.96 49.5337C115.253 49.3263 115.587 49.2226 115.962 49.2226C116.047 49.2226 116.142 49.2269 116.247 49.2354C116.355 49.2411 116.445 49.251 116.516 49.2652V50.6843C116.45 50.6615 116.347 50.6416 116.205 50.6246C116.066 50.6047 115.931 50.5948 115.8 50.5948C115.519 50.5948 115.266 50.6559 115.041 50.778C114.82 50.8973 114.645 51.0635 114.517 51.2766C114.389 51.4897 114.325 51.7354 114.325 52.0138V55.8618H112.783ZM117.541 55.8618V49.3164H119.083V55.8618H117.541ZM118.316 48.3874C118.072 48.3874 117.862 48.3064 117.686 48.1445C117.509 47.9797 117.421 47.7823 117.421 47.5522C117.421 47.3192 117.509 47.1218 117.686 46.9598C117.862 46.7951 118.072 46.7127 118.316 46.7127C118.563 46.7127 118.774 46.7951 118.947 46.9598C119.123 47.1218 119.211 47.3192 119.211 47.5522C119.211 47.7823 119.123 47.9797 118.947 48.1445C118.774 48.3064 118.563 48.3874 118.316 48.3874ZM123.099 55.9769C122.584 55.9769 122.124 55.8448 121.718 55.5806C121.312 55.3164 120.991 54.9328 120.755 54.43C120.519 53.9272 120.401 53.3164 120.401 52.5976C120.401 51.8703 120.52 51.2567 120.759 50.7567C121.001 50.2539 121.326 49.8746 121.735 49.6189C122.144 49.3604 122.6 49.2311 123.103 49.2311C123.486 49.2311 123.802 49.2965 124.049 49.4272C124.296 49.555 124.492 49.7098 124.637 49.8916C124.782 50.0706 124.894 50.2397 124.974 50.3987H125.037V47.1345H126.584V55.8618H125.067V54.8306H124.974C124.894 54.9897 124.779 55.1587 124.628 55.3377C124.478 55.5138 124.279 55.6644 124.032 55.7894C123.785 55.9144 123.474 55.9769 123.099 55.9769ZM123.529 54.7112C123.856 54.7112 124.134 54.6232 124.364 54.447C124.594 54.2681 124.769 54.0195 124.888 53.7013C125.008 53.3831 125.067 53.0124 125.067 52.5891C125.067 52.1658 125.008 51.7979 124.888 51.4854C124.772 51.1729 124.599 50.93 124.368 50.7567C124.141 50.5834 123.861 50.4968 123.529 50.4968C123.185 50.4968 122.898 50.5862 122.668 50.7652C122.438 50.9442 122.265 51.1914 122.148 51.5067C122.032 51.822 121.974 52.1828 121.974 52.5891C121.974 52.9982 122.032 53.3632 122.148 53.6843C122.268 54.0024 122.442 54.2539 122.672 54.4385C122.905 54.6203 123.191 54.7112 123.529 54.7112Z" fill="white"/>
</svg>
