<svg width="129" height="112" viewBox="0 0 129 112" fill="none" xmlns="http://www.w3.org/2000/svg">
<path d="M9.538 66.6364C9.538 67.5767 9.36186 68.3821 9.00959 69.0526C8.66016 69.7202 8.18288 70.2315 7.57777 70.5866C6.9755 70.9418 6.29226 71.1193 5.52805 71.1193C4.76385 71.1193 4.07919 70.9418 3.47408 70.5866C2.8718 70.2287 2.39453 69.7159 2.04226 69.0483C1.69283 68.3778 1.51811 67.5739 1.51811 66.6364C1.51811 65.696 1.69283 64.892 2.04226 64.2244C2.39453 63.554 2.8718 63.0412 3.47408 62.6861C4.07919 62.331 4.76385 62.1534 5.52805 62.1534C6.29226 62.1534 6.9755 62.331 7.57777 62.6861C8.18288 63.0412 8.66016 63.554 9.00959 64.2244C9.36186 64.892 9.538 65.696 9.538 66.6364ZM7.94851 66.6364C7.94851 65.9744 7.84482 65.4162 7.63743 64.9616C7.43288 64.5043 7.14879 64.1591 6.78516 63.9261C6.42152 63.6903 6.00249 63.5724 5.52805 63.5724C5.05362 63.5724 4.63459 63.6903 4.27095 63.9261C3.90732 64.1591 3.6218 64.5043 3.41442 64.9616C3.20987 65.4162 3.1076 65.9744 3.1076 66.6364C3.1076 67.2983 3.20987 67.858 3.41442 68.3153C3.6218 68.7699 3.90732 69.1151 4.27095 69.3509C4.63459 69.5838 5.05362 69.7003 5.52805 69.7003C6.00249 69.7003 6.42152 69.5838 6.78516 69.3509C7.14879 69.1151 7.43288 68.7699 7.63743 68.3153C7.84482 67.858 7.94851 67.2983 7.94851 66.6364ZM12.5071 67.1648V71H10.9645V64.4545H12.4389V65.5668H12.5156C12.6662 65.2003 12.9063 64.9091 13.2358 64.6932C13.5682 64.4773 13.9787 64.3693 14.4673 64.3693C14.919 64.3693 15.3125 64.4659 15.6477 64.6591C15.9858 64.8523 16.2472 65.1321 16.4318 65.4986C16.6193 65.8651 16.7116 66.3097 16.7088 66.8324V71H15.1662V67.071C15.1662 66.6335 15.0526 66.2912 14.8253 66.044C14.6009 65.7969 14.2898 65.6733 13.892 65.6733C13.6222 65.6733 13.3821 65.733 13.1719 65.8523C12.9645 65.9687 12.8011 66.1378 12.6818 66.3594C12.5653 66.581 12.5071 66.8494 12.5071 67.1648ZM19.8196 62.2727V71H18.277V62.2727H19.8196ZM22.3647 73.4545C22.1545 73.4545 21.9599 73.4375 21.7809 73.4034C21.6048 73.3722 21.4641 73.3352 21.359 73.2926L21.717 72.0909C21.9414 72.1563 22.1417 72.1875 22.3178 72.1847C22.494 72.1818 22.6488 72.1264 22.7823 72.0185C22.9187 71.9134 23.0337 71.7372 23.1275 71.4901L23.2596 71.1364L20.886 64.4545H22.5224L24.0309 69.3977H24.0991L25.6119 64.4545H27.2525L24.6317 71.7926C24.5096 72.1392 24.3477 72.4361 24.146 72.6832C23.9442 72.9332 23.6971 73.1236 23.4045 73.2543C23.1147 73.3878 22.7681 73.4545 22.3647 73.4545ZM36.1076 64.6719C36.0678 64.2997 35.9002 64.0099 35.6048 63.8026C35.3121 63.5952 34.9315 63.4915 34.4627 63.4915C34.1332 63.4915 33.8505 63.5412 33.6147 63.6406C33.3789 63.7401 33.1985 63.875 33.0735 64.0455C32.9485 64.2159 32.8846 64.4105 32.8817 64.6293C32.8817 64.8111 32.9229 64.9687 33.0053 65.1023C33.0906 65.2358 33.2056 65.3494 33.3505 65.4432C33.4954 65.5341 33.6559 65.6108 33.832 65.6733C34.0082 65.7358 34.1857 65.7884 34.3647 65.831L35.1829 66.0355C35.5124 66.1122 35.8292 66.2159 36.1332 66.3466C36.44 66.4773 36.7141 66.642 36.9556 66.8409C37.1999 67.0398 37.3931 67.2798 37.5352 67.5611C37.6772 67.8423 37.7482 68.1719 37.7482 68.5497C37.7482 69.0611 37.6175 69.5114 37.3562 69.9006C37.0948 70.2869 36.717 70.5895 36.2227 70.8082C35.7312 71.0241 35.136 71.1321 34.4371 71.1321C33.7582 71.1321 33.1687 71.027 32.6687 70.8168C32.1715 70.6065 31.7823 70.2997 31.5011 69.8963C31.2227 69.4929 31.0721 69.0014 31.0494 68.4219H32.6048C32.6275 68.7259 32.7212 68.9787 32.886 69.1804C33.0508 69.3821 33.2653 69.5327 33.5295 69.6321C33.7965 69.7315 34.0948 69.7812 34.4244 69.7812C34.7681 69.7812 35.0692 69.7301 35.3278 69.6278C35.5891 69.5227 35.7937 69.3778 35.9414 69.1932C36.0891 69.0057 36.1644 68.7869 36.1673 68.5369C36.1644 68.3097 36.0977 68.1222 35.967 67.9744C35.8363 67.8239 35.6531 67.6989 35.4173 67.5994C35.1843 67.4972 34.9116 67.4062 34.5991 67.3267L33.6062 67.071C32.8874 66.8864 32.3192 66.6065 31.9016 66.2315C31.4869 65.8537 31.2795 65.3523 31.2795 64.7273C31.2795 64.2131 31.4187 63.7628 31.6971 63.3764C31.9783 62.9901 32.3604 62.6903 32.8434 62.4773C33.3263 62.2614 33.8732 62.1534 34.484 62.1534C35.1033 62.1534 35.646 62.2614 36.1119 62.4773C36.5806 62.6903 36.9485 62.9872 37.2156 63.3679C37.4826 63.7457 37.6204 64.1804 37.6289 64.6719H36.1076ZM40.0483 73.4545C39.8381 73.4545 39.6435 73.4375 39.4645 73.4034C39.2884 73.3722 39.1477 73.3352 39.0426 73.2926L39.4006 72.0909C39.625 72.1563 39.8253 72.1875 40.0014 72.1847C40.1776 72.1818 40.3324 72.1264 40.4659 72.0185C40.6023 71.9134 40.7173 71.7372 40.8111 71.4901L40.9432 71.1364L38.5696 64.4545H40.206L41.7145 69.3977H41.7827L43.2955 64.4545H44.9361L42.3153 71.7926C42.1932 72.1392 42.0313 72.4361 41.8295 72.6832C41.6278 72.9332 41.3807 73.1236 41.0881 73.2543C40.7983 73.3878 40.4517 73.4545 40.0483 73.4545ZM51.1768 66.1847L49.7706 66.3381C49.7308 66.196 49.6612 66.0625 49.5618 65.9375C49.4652 65.8125 49.3345 65.7116 49.1697 65.6349C49.005 65.5582 48.8033 65.5199 48.5646 65.5199C48.2436 65.5199 47.9737 65.5895 47.755 65.7287C47.5391 65.8679 47.4325 66.0483 47.4354 66.2699C47.4325 66.4602 47.5021 66.6151 47.6442 66.7344C47.7891 66.8537 48.0277 66.9517 48.3601 67.0284L49.4766 67.267C50.0959 67.4006 50.5561 67.6122 50.8572 67.902C51.1612 68.1918 51.3146 68.571 51.3175 69.0398C51.3146 69.4517 51.1939 69.8153 50.9553 70.1307C50.7195 70.4432 50.3913 70.6875 49.9709 70.8636C49.5504 71.0398 49.0675 71.1278 48.522 71.1278C47.7209 71.1278 47.076 70.9602 46.5874 70.625C46.0987 70.2869 45.8075 69.8168 45.7138 69.2145L47.218 69.0696C47.2862 69.3651 47.4311 69.5881 47.6527 69.7386C47.8743 69.8892 48.1626 69.9645 48.5178 69.9645C48.8842 69.9645 49.1783 69.8892 49.3999 69.7386C49.6243 69.5881 49.7365 69.402 49.7365 69.1804C49.7365 68.9929 49.6641 68.8381 49.5192 68.7159C49.3771 68.5937 49.1555 68.5 48.8544 68.4347L47.7379 68.2003C47.1101 68.0696 46.6456 67.8494 46.3445 67.5398C46.0433 67.2273 45.8942 66.8324 45.897 66.3551C45.8942 65.9517 46.0036 65.6023 46.2251 65.3068C46.4496 65.0085 46.7607 64.7784 47.1584 64.6165C47.5589 64.4517 48.0206 64.3693 48.5433 64.3693C49.3104 64.3693 49.9141 64.5327 50.3544 64.8594C50.7976 65.1861 51.0717 65.6278 51.1768 66.1847ZM55.858 64.4545V65.6477H52.0952V64.4545H55.858ZM53.0241 62.8864H54.5668V69.0312C54.5668 69.2386 54.598 69.3977 54.6605 69.5085C54.7259 69.6165 54.8111 69.6903 54.9162 69.7301C55.0213 69.7699 55.1378 69.7898 55.2656 69.7898C55.3622 69.7898 55.4503 69.7827 55.5298 69.7685C55.6122 69.7543 55.6747 69.7415 55.7173 69.7301L55.9773 70.9361C55.8949 70.9645 55.777 70.9957 55.6236 71.0298C55.473 71.0639 55.2884 71.0838 55.0696 71.0895C54.6832 71.1009 54.3352 71.0426 54.0256 70.9148C53.7159 70.7841 53.4702 70.5824 53.2884 70.3097C53.1094 70.0369 53.0213 69.696 53.0241 69.2869V62.8864ZM59.9755 71.1278C59.3192 71.1278 58.7525 70.9915 58.2752 70.7188C57.8008 70.4432 57.4357 70.054 57.18 69.5511C56.9244 69.0455 56.7965 68.4503 56.7965 67.7656C56.7965 67.0923 56.9244 66.5014 57.18 65.9929C57.4386 65.4815 57.7994 65.0838 58.2624 64.7997C58.7255 64.5128 59.2695 64.3693 59.8945 64.3693C60.2979 64.3693 60.6786 64.4347 61.0366 64.5653C61.3974 64.6932 61.7156 64.892 61.9911 65.1619C62.2695 65.4318 62.4883 65.7756 62.6474 66.1932C62.8065 66.608 62.886 67.1023 62.886 67.6761V68.1491H57.521V67.1094H61.4073C61.4045 66.8139 61.3406 66.5511 61.2156 66.321C61.0906 66.0881 60.9158 65.9048 60.6914 65.7713C60.4698 65.6378 60.2113 65.571 59.9158 65.571C59.6005 65.571 59.3235 65.6477 59.0849 65.8011C58.8462 65.9517 58.6602 66.1506 58.5266 66.3977C58.396 66.642 58.3292 66.9105 58.3263 67.2031V68.1108C58.3263 68.4915 58.396 68.8182 58.5352 69.0909C58.6744 69.3608 58.869 69.5682 59.119 69.7131C59.369 69.8551 59.6616 69.9261 59.9968 69.9261C60.2212 69.9261 60.4244 69.8949 60.6062 69.8324C60.788 69.767 60.9457 69.6719 61.0792 69.5469C61.2127 69.4219 61.3136 69.267 61.3817 69.0824L62.8221 69.2443C62.7312 69.625 62.5579 69.9574 62.3022 70.2415C62.0494 70.5227 61.7255 70.7415 61.3306 70.8977C60.9357 71.0511 60.484 71.1278 59.9755 71.1278ZM64.1911 71V64.4545H65.6655V65.5668H65.7422C65.8786 65.1918 66.1044 64.8991 66.4197 64.6889C66.7351 64.4759 67.1115 64.3693 67.549 64.3693C67.9922 64.3693 68.3658 64.4773 68.6697 64.6932C68.9766 64.9062 69.1925 65.1974 69.3175 65.5668H69.3857C69.5305 65.2031 69.7749 64.9134 70.1186 64.6974C70.4652 64.4787 70.8757 64.3693 71.3501 64.3693C71.9524 64.3693 72.4439 64.5597 72.8246 64.9403C73.2053 65.321 73.3956 65.8764 73.3956 66.6065V71H71.8487V66.8452C71.8487 66.4389 71.7408 66.142 71.5249 65.9545C71.3089 65.7642 71.0447 65.669 70.7322 65.669C70.3601 65.669 70.0689 65.7855 69.8587 66.0185C69.6513 66.2486 69.5476 66.5483 69.5476 66.9176V71H68.0348V66.7812C68.0348 66.4432 67.9325 66.1733 67.728 65.9716C67.5263 65.7699 67.2621 65.669 66.9354 65.669C66.7138 65.669 66.5121 65.7259 66.3303 65.8395C66.1484 65.9503 66.0036 66.108 65.8956 66.3125C65.7876 66.5142 65.7337 66.75 65.7337 67.0199V71H64.1911ZM85.4755 65.2173H83.8817C83.8363 64.956 83.7525 64.7244 83.6303 64.5227C83.5082 64.3182 83.3562 64.1449 83.1744 64.0028C82.9925 63.8608 82.7852 63.7543 82.5522 63.6832C82.3221 63.6094 82.0735 63.5724 81.8065 63.5724C81.332 63.5724 80.9116 63.6918 80.5451 63.9304C80.1786 64.1662 79.8917 64.5128 79.6843 64.9702C79.4769 65.4247 79.3732 65.9801 79.3732 66.6364C79.3732 67.304 79.4769 67.8665 79.6843 68.3239C79.8945 68.7784 80.1815 69.1222 80.5451 69.3551C80.9116 69.5852 81.3306 69.7003 81.8022 69.7003C82.0636 69.7003 82.3079 69.6662 82.5352 69.598C82.7653 69.527 82.9712 69.4233 83.1531 69.2869C83.3377 69.1506 83.4925 68.983 83.6175 68.7841C83.7454 68.5852 83.8335 68.358 83.8817 68.1023L85.4755 68.1108C85.4158 68.5256 85.2866 68.9148 85.0877 69.2784C84.8917 69.642 84.6346 69.9631 84.3164 70.2415C83.9982 70.517 83.6261 70.733 83.1999 70.8892C82.7738 71.0426 82.3008 71.1193 81.7809 71.1193C81.0138 71.1193 80.3292 70.9418 79.7269 70.5866C79.1246 70.2315 78.6502 69.7188 78.3036 69.0483C77.957 68.3778 77.7837 67.5739 77.7837 66.6364C77.7837 65.696 77.9585 64.892 78.3079 64.2244C78.6573 63.554 79.1332 63.0412 79.7354 62.6861C80.3377 62.331 81.0195 62.1534 81.7809 62.1534C82.2667 62.1534 82.7184 62.2216 83.136 62.358C83.5536 62.4943 83.9258 62.6946 84.2525 62.9588C84.5792 63.2202 84.8477 63.5412 85.0579 63.9219C85.271 64.2997 85.4102 64.7315 85.4755 65.2173ZM88.7386 71.1321C88.3239 71.1321 87.9503 71.0582 87.6179 70.9105C87.2884 70.7599 87.027 70.5384 86.8338 70.2457C86.6435 69.9531 86.5483 69.5923 86.5483 69.1634C86.5483 68.794 86.6165 68.4886 86.7528 68.2472C86.8892 68.0057 87.0753 67.8125 87.3111 67.6676C87.5469 67.5227 87.8125 67.4134 88.108 67.3395C88.4063 67.2628 88.7145 67.2074 89.0327 67.1733C89.4162 67.1335 89.7273 67.098 89.9659 67.0668C90.2045 67.0327 90.3778 66.9815 90.4858 66.9134C90.5966 66.8423 90.652 66.733 90.652 66.5852V66.5597C90.652 66.2386 90.5568 65.9901 90.3665 65.8139C90.1761 65.6378 89.902 65.5497 89.544 65.5497C89.1662 65.5497 88.8665 65.6321 88.6449 65.7969C88.4261 65.9616 88.2784 66.1562 88.2017 66.3807L86.7614 66.1761C86.875 65.7784 87.0625 65.446 87.3239 65.179C87.5852 64.9091 87.9048 64.7074 88.2827 64.5739C88.6605 64.4375 89.0781 64.3693 89.5355 64.3693C89.8509 64.3693 90.1648 64.4062 90.4773 64.4801C90.7898 64.554 91.0753 64.6761 91.3338 64.8466C91.5923 65.0142 91.7997 65.2429 91.956 65.5327C92.1151 65.8224 92.1946 66.1847 92.1946 66.6193V71H90.7116V70.1009H90.6605C90.5668 70.2827 90.4347 70.4531 90.2642 70.6122C90.0966 70.7685 89.8849 70.8949 89.6293 70.9915C89.3764 71.0852 89.0795 71.1321 88.7386 71.1321ZM89.1392 69.9986C89.4489 69.9986 89.7173 69.9375 89.9446 69.8153C90.1719 69.6903 90.3466 69.5256 90.4688 69.321C90.5938 69.1165 90.6562 68.8935 90.6562 68.652V67.8807C90.608 67.9205 90.5256 67.9574 90.4091 67.9915C90.2955 68.0256 90.1676 68.0554 90.0256 68.081C89.8835 68.1065 89.7429 68.1293 89.6037 68.1491C89.4645 68.169 89.3438 68.1861 89.2415 68.2003C89.0114 68.2315 88.8054 68.2827 88.6236 68.3537C88.4418 68.4247 88.2983 68.5241 88.1932 68.652C88.0881 68.777 88.0355 68.9389 88.0355 69.1378C88.0355 69.4219 88.1392 69.6364 88.3466 69.7812C88.554 69.9261 88.8182 69.9986 89.1392 69.9986ZM93.7457 73.4545V64.4545H95.2628V65.5369H95.3523C95.4318 65.3778 95.544 65.2088 95.6889 65.0298C95.8338 64.848 96.0298 64.6932 96.277 64.5653C96.5241 64.4347 96.8395 64.3693 97.223 64.3693C97.7287 64.3693 98.1847 64.4986 98.5909 64.7571C99 65.0128 99.3239 65.392 99.5625 65.8949C99.804 66.3949 99.9247 67.0085 99.9247 67.7358C99.9247 68.4545 99.8068 69.0653 99.571 69.5682C99.3352 70.071 99.0142 70.4545 98.608 70.7188C98.2017 70.983 97.7415 71.1151 97.2273 71.1151C96.8523 71.1151 96.5412 71.0526 96.294 70.9276C96.0469 70.8026 95.848 70.652 95.6974 70.4759C95.5497 70.2969 95.4347 70.1278 95.3523 69.9688H95.2884V73.4545H93.7457ZM95.2585 67.7273C95.2585 68.1506 95.3182 68.5213 95.4375 68.8395C95.5597 69.1577 95.7344 69.4062 95.9616 69.5852C96.1918 69.7614 96.4702 69.8494 96.7969 69.8494C97.1378 69.8494 97.4233 69.7585 97.6534 69.5767C97.8835 69.392 98.0568 69.1406 98.1733 68.8224C98.2926 68.5014 98.3523 68.1364 98.3523 67.7273C98.3523 67.321 98.294 66.9602 98.1776 66.6449C98.0611 66.3295 97.8878 66.0824 97.6577 65.9034C97.4276 65.7244 97.1406 65.6349 96.7969 65.6349C96.4673 65.6349 96.1875 65.7216 95.9574 65.8949C95.7273 66.0682 95.5526 66.3111 95.4332 66.6236C95.3168 66.9361 95.2585 67.304 95.2585 67.7273ZM103.129 71.1321C102.714 71.1321 102.341 71.0582 102.009 70.9105C101.679 70.7599 101.418 70.5384 101.224 70.2457C101.034 69.9531 100.939 69.5923 100.939 69.1634C100.939 68.794 101.007 68.4886 101.143 68.2472C101.28 68.0057 101.466 67.8125 101.702 67.6676C101.938 67.5227 102.203 67.4134 102.499 67.3395C102.797 67.2628 103.105 67.2074 103.423 67.1733C103.807 67.1335 104.118 67.098 104.357 67.0668C104.595 67.0327 104.768 66.9815 104.876 66.9134C104.987 66.8423 105.043 66.733 105.043 66.5852V66.5597C105.043 66.2386 104.947 65.9901 104.757 65.8139C104.567 65.6378 104.293 65.5497 103.935 65.5497C103.557 65.5497 103.257 65.6321 103.036 65.7969C102.817 65.9616 102.669 66.1562 102.592 66.3807L101.152 66.1761C101.266 65.7784 101.453 65.446 101.714 65.179C101.976 64.9091 102.295 64.7074 102.673 64.5739C103.051 64.4375 103.469 64.3693 103.926 64.3693C104.241 64.3693 104.555 64.4062 104.868 64.4801C105.18 64.554 105.466 64.6761 105.724 64.8466C105.983 65.0142 106.19 65.2429 106.347 65.5327C106.506 65.8224 106.585 66.1847 106.585 66.6193V71H105.102V70.1009H105.051C104.957 70.2827 104.825 70.4531 104.655 70.6122C104.487 70.7685 104.276 70.8949 104.02 70.9915C103.767 71.0852 103.47 71.1321 103.129 71.1321ZM103.53 69.9986C103.839 69.9986 104.108 69.9375 104.335 69.8153C104.563 69.6903 104.737 69.5256 104.859 69.321C104.984 69.1165 105.047 68.8935 105.047 68.652V67.8807C104.999 67.9205 104.916 67.9574 104.8 67.9915C104.686 68.0256 104.558 68.0554 104.416 68.081C104.274 68.1065 104.134 68.1293 103.994 68.1491C103.855 68.169 103.734 68.1861 103.632 68.2003C103.402 68.2315 103.196 68.2827 103.014 68.3537C102.832 68.4247 102.689 68.5241 102.584 68.652C102.479 68.777 102.426 68.9389 102.426 69.1378C102.426 69.4219 102.53 69.6364 102.737 69.7812C102.945 69.9261 103.209 69.9986 103.53 69.9986ZM108.205 71V62.2727H109.747V65.5369H109.811C109.891 65.3778 110.003 65.2088 110.148 65.0298C110.293 64.848 110.489 64.6932 110.736 64.5653C110.983 64.4347 111.298 64.3693 111.682 64.3693C112.188 64.3693 112.643 64.4986 113.05 64.7571C113.459 65.0128 113.783 65.392 114.021 65.8949C114.263 66.3949 114.384 67.0085 114.384 67.7358C114.384 68.4545 114.266 69.0653 114.03 69.5682C113.794 70.071 113.473 70.4545 113.067 70.7188C112.661 70.983 112.2 71.1151 111.686 71.1151C111.311 71.1151 111 71.0526 110.753 70.9276C110.506 70.8026 110.307 70.652 110.156 70.4759C110.009 70.2969 109.893 70.1278 109.811 69.9688H109.722V71H108.205ZM109.717 67.7273C109.717 68.1506 109.777 68.5213 109.896 68.8395C110.018 69.1577 110.193 69.4062 110.42 69.5852C110.651 69.7614 110.929 69.8494 111.256 69.8494C111.597 69.8494 111.882 69.7585 112.112 69.5767C112.342 69.392 112.516 69.1406 112.632 68.8224C112.751 68.5014 112.811 68.1364 112.811 67.7273C112.811 67.321 112.753 66.9602 112.636 66.6449C112.52 66.3295 112.347 66.0824 112.116 65.9034C111.886 65.7244 111.599 65.6349 111.256 65.6349C110.926 65.6349 110.646 65.7216 110.416 65.8949C110.186 66.0682 110.011 66.3111 109.892 66.6236C109.776 66.9361 109.717 67.304 109.717 67.7273ZM117.238 62.2727V71H115.695V62.2727H117.238ZM121.722 71.1278C121.065 71.1278 120.499 70.9915 120.021 70.7188C119.547 70.4432 119.182 70.054 118.926 69.5511C118.67 69.0455 118.543 68.4503 118.543 67.7656C118.543 67.0923 118.67 66.5014 118.926 65.9929C119.185 65.4815 119.545 65.0838 120.009 64.7997C120.472 64.5128 121.016 64.3693 121.641 64.3693C122.044 64.3693 122.425 64.4347 122.783 64.5653C123.143 64.6932 123.462 64.892 123.737 65.1619C124.016 65.4318 124.234 65.7756 124.393 66.1932C124.553 66.608 124.632 67.1023 124.632 67.6761V68.1491H119.267V67.1094H123.153C123.151 66.8139 123.087 66.5511 122.962 66.321C122.837 66.0881 122.662 65.9048 122.438 65.7713C122.216 65.6378 121.957 65.571 121.662 65.571C121.347 65.571 121.07 65.6477 120.831 65.8011C120.592 65.9517 120.406 66.1506 120.273 66.3977C120.142 66.642 120.075 66.9105 120.072 67.2031V68.1108C120.072 68.4915 120.142 68.8182 120.281 69.0909C120.42 69.3608 120.615 69.5682 120.865 69.7131C121.115 69.8551 121.408 69.9261 121.743 69.9261C121.967 69.9261 122.17 69.8949 122.352 69.8324C122.534 69.767 122.692 69.6719 122.825 69.5469C122.959 69.4219 123.06 69.267 123.128 69.0824L124.568 69.2443C124.477 69.625 124.304 69.9574 124.048 70.2415C123.795 70.5227 123.472 70.7415 123.077 70.8977C122.682 71.0511 122.23 71.1278 121.722 71.1278ZM19.6673 86.1278C19.0281 86.1278 18.4741 85.9872 18.0053 85.706C17.5366 85.4247 17.1729 85.0312 16.9144 84.5256C16.6587 84.0199 16.5309 83.429 16.5309 82.7528C16.5309 82.0767 16.6587 81.4844 16.9144 80.9759C17.1729 80.4673 17.5366 80.0724 18.0053 79.7912C18.4741 79.5099 19.0281 79.3693 19.6673 79.3693C20.3065 79.3693 20.8604 79.5099 21.3292 79.7912C21.7979 80.0724 22.1602 80.4673 22.4158 80.9759C22.6744 81.4844 22.8036 82.0767 22.8036 82.7528C22.8036 83.429 22.6744 84.0199 22.4158 84.5256C22.1602 85.0312 21.7979 85.4247 21.3292 85.706C20.8604 85.9872 20.3065 86.1278 19.6673 86.1278ZM19.6758 84.892C20.0224 84.892 20.3121 84.7969 20.5451 84.6065C20.7781 84.4134 20.9513 84.1548 21.065 83.831C21.1815 83.5071 21.2397 83.1463 21.2397 82.7486C21.2397 82.348 21.1815 81.9858 21.065 81.6619C20.9513 81.3352 20.7781 81.0753 20.5451 80.8821C20.3121 80.6889 20.0224 80.5923 19.6758 80.5923C19.3207 80.5923 19.0252 80.6889 18.7894 80.8821C18.5565 81.0753 18.3817 81.3352 18.2653 81.6619C18.1516 81.9858 18.0948 82.348 18.0948 82.7486C18.0948 83.1463 18.1516 83.5071 18.2653 83.831C18.3817 84.1548 18.5565 84.4134 18.7894 84.6065C19.0252 84.7969 19.3207 84.892 19.6758 84.892ZM27.4283 79.4545V80.6477H23.5589V79.4545H27.4283ZM24.5263 86V78.8366C24.5263 78.3963 24.6172 78.0298 24.799 77.7372C24.9837 77.4446 25.2308 77.2259 25.5405 77.081C25.8501 76.9361 26.1939 76.8636 26.5717 76.8636C26.8388 76.8636 27.076 76.8849 27.2834 76.9276C27.4908 76.9702 27.6442 77.0085 27.7436 77.0426L27.4368 78.2358C27.3714 78.2159 27.2891 78.196 27.1896 78.1761C27.0902 78.1534 26.9794 78.142 26.8572 78.142C26.5703 78.142 26.3672 78.2116 26.2479 78.3509C26.1314 78.4872 26.0732 78.6832 26.0732 78.9389V86H24.5263ZM36.424 79.6719C36.3842 79.2997 36.2166 79.0099 35.9212 78.8026C35.6286 78.5952 35.2479 78.4915 34.7791 78.4915C34.4496 78.4915 34.1669 78.5412 33.9311 78.6406C33.6953 78.7401 33.5149 78.875 33.3899 79.0455C33.2649 79.2159 33.201 79.4105 33.1982 79.6293C33.1982 79.8111 33.2393 79.9687 33.3217 80.1023C33.407 80.2358 33.522 80.3494 33.6669 80.4432C33.8118 80.5341 33.9723 80.6108 34.1484 80.6733C34.3246 80.7358 34.5021 80.7884 34.6811 80.831L35.4993 81.0355C35.8288 81.1122 36.1456 81.2159 36.4496 81.3466C36.7564 81.4773 37.0305 81.642 37.272 81.8409C37.5163 82.0398 37.7095 82.2798 37.8516 82.5611C37.9936 82.8423 38.0646 83.1719 38.0646 83.5497C38.0646 84.0611 37.9339 84.5114 37.6726 84.9006C37.4112 85.2869 37.0334 85.5895 36.5391 85.8082C36.0476 86.0241 35.4524 86.1321 34.7536 86.1321C34.0746 86.1321 33.4851 86.027 32.9851 85.8168C32.4879 85.6065 32.0987 85.2997 31.8175 84.8963C31.5391 84.4929 31.3885 84.0014 31.3658 83.4219H32.9212C32.9439 83.7259 33.0376 83.9787 33.2024 84.1804C33.3672 84.3821 33.5817 84.5327 33.8459 84.6321C34.1129 84.7315 34.4112 84.7812 34.7408 84.7812C35.0845 84.7812 35.3857 84.7301 35.6442 84.6278C35.9055 84.5227 36.1101 84.3778 36.2578 84.1932C36.4055 84.0057 36.4808 83.7869 36.4837 83.5369C36.4808 83.3097 36.4141 83.1222 36.2834 82.9744C36.1527 82.8239 35.9695 82.6989 35.7337 82.5994C35.5007 82.4972 35.228 82.4062 34.9155 82.3267L33.9226 82.071C33.2038 81.8864 32.6357 81.6065 32.218 81.2315C31.8033 80.8537 31.5959 80.3523 31.5959 79.7273C31.5959 79.2131 31.7351 78.7628 32.0135 78.3764C32.2947 77.9901 32.6768 77.6903 33.1598 77.4773C33.6428 77.2614 34.1896 77.1534 34.8004 77.1534C35.4197 77.1534 35.9624 77.2614 36.4283 77.4773C36.897 77.6903 37.2649 77.9872 37.532 78.3679C37.799 78.7457 37.9368 79.1804 37.9453 79.6719H36.424ZM39.4059 86V79.4545H40.9485V86H39.4059ZM40.1815 78.5256C39.9371 78.5256 39.7269 78.4446 39.5508 78.2827C39.3746 78.1179 39.2866 77.9205 39.2866 77.6903C39.2866 77.4574 39.3746 77.2599 39.5508 77.098C39.7269 76.9332 39.9371 76.8509 40.1815 76.8509C40.4286 76.8509 40.6388 76.9332 40.8121 77.098C40.9883 77.2599 41.0763 77.4574 41.0763 77.6903C41.0763 77.9205 40.9883 78.1179 40.8121 78.2827C40.6388 78.4446 40.4286 78.5256 40.1815 78.5256ZM42.5348 86V79.4545H44.0092V80.5668H44.0859C44.2223 80.1918 44.4482 79.8991 44.7635 79.6889C45.0788 79.4759 45.4553 79.3693 45.8928 79.3693C46.3359 79.3693 46.7095 79.4773 47.0135 79.6932C47.3203 79.9062 47.5362 80.1974 47.6612 80.5668H47.7294C47.8743 80.2031 48.1186 79.9134 48.4624 79.6974C48.8089 79.4787 49.2195 79.3693 49.6939 79.3693C50.2962 79.3693 50.7876 79.5597 51.1683 79.9403C51.549 80.321 51.7393 80.8764 51.7393 81.6065V86H50.1925V81.8452C50.1925 81.4389 50.0845 81.142 49.8686 80.9545C49.6527 80.7642 49.3885 80.669 49.076 80.669C48.7038 80.669 48.4126 80.7855 48.2024 81.0185C47.995 81.2486 47.8913 81.5483 47.8913 81.9176V86H46.3786V81.7812C46.3786 81.4432 46.2763 81.1733 46.0717 80.9716C45.87 80.7699 45.6058 80.669 45.2791 80.669C45.0575 80.669 44.8558 80.7259 44.674 80.8395C44.4922 80.9503 44.3473 81.108 44.2393 81.3125C44.1314 81.5142 44.0774 81.75 44.0774 82.0199V86H42.5348ZM57.4762 83.2472V79.4545H59.0188V86H57.5231V84.8366H57.4549C57.3072 85.2031 57.0643 85.5028 56.7262 85.7358C56.391 85.9687 55.9776 86.0852 55.4862 86.0852C55.0572 86.0852 54.6779 85.9901 54.3484 85.7997C54.0217 85.6065 53.766 85.3267 53.5813 84.9602C53.3967 84.5909 53.3043 84.1449 53.3043 83.6222V79.4545H54.8469V83.3835C54.8469 83.7983 54.9606 84.1278 55.1879 84.3722C55.4151 84.6165 55.7134 84.7386 56.0827 84.7386C56.31 84.7386 56.5302 84.6832 56.7433 84.5724C56.9563 84.4616 57.131 84.2969 57.2674 84.0781C57.4066 83.8565 57.4762 83.5795 57.4762 83.2472ZM62.1477 77.2727V86H60.6051V77.2727H62.1477ZM67.0025 79.4545V80.6477H63.2397V79.4545H67.0025ZM64.1687 77.8864H65.7113V84.0312C65.7113 84.2386 65.7425 84.3977 65.805 84.5085C65.8704 84.6165 65.9556 84.6903 66.0607 84.7301C66.1658 84.7699 66.2823 84.7898 66.4102 84.7898C66.5067 84.7898 66.5948 84.7827 66.6744 84.7685C66.7567 84.7543 66.8192 84.7415 66.8619 84.7301L67.1218 85.9361C67.0394 85.9645 66.9215 85.9957 66.7681 86.0298C66.6175 86.0639 66.4329 86.0838 66.2141 86.0895C65.8278 86.1009 65.4798 86.0426 65.1701 85.9148C64.8604 85.7841 64.6147 85.5824 64.4329 85.3097C64.2539 85.0369 64.1658 84.696 64.1687 84.2869V77.8864ZM70.1761 86.1321C69.7614 86.1321 69.3878 86.0582 69.0554 85.9105C68.7259 85.7599 68.4645 85.5384 68.2713 85.2457C68.081 84.9531 67.9858 84.5923 67.9858 84.1634C67.9858 83.794 68.054 83.4886 68.1903 83.2472C68.3267 83.0057 68.5128 82.8125 68.7486 82.6676C68.9844 82.5227 69.25 82.4134 69.5455 82.3395C69.8438 82.2628 70.152 82.2074 70.4702 82.1733C70.8537 82.1335 71.1648 82.098 71.4034 82.0668C71.642 82.0327 71.8153 81.9815 71.9233 81.9134C72.0341 81.8423 72.0895 81.733 72.0895 81.5852V81.5597C72.0895 81.2386 71.9943 80.9901 71.804 80.8139C71.6136 80.6378 71.3395 80.5497 70.9815 80.5497C70.6037 80.5497 70.304 80.6321 70.0824 80.7969C69.8636 80.9616 69.7159 81.1562 69.6392 81.3807L68.1989 81.1761C68.3125 80.7784 68.5 80.446 68.7614 80.179C69.0227 79.9091 69.3423 79.7074 69.7202 79.5739C70.098 79.4375 70.5156 79.3693 70.973 79.3693C71.2884 79.3693 71.6023 79.4062 71.9148 79.4801C72.2273 79.554 72.5128 79.6761 72.7713 79.8466C73.0298 80.0142 73.2372 80.2429 73.3935 80.5327C73.5526 80.8224 73.6321 81.1847 73.6321 81.6193V86H72.1491V85.1009H72.098C72.0043 85.2827 71.8722 85.4531 71.7017 85.6122C71.5341 85.7685 71.3224 85.8949 71.0668 85.9915C70.8139 86.0852 70.517 86.1321 70.1761 86.1321ZM70.5767 84.9986C70.8864 84.9986 71.1548 84.9375 71.3821 84.8153C71.6094 84.6903 71.7841 84.5256 71.9062 84.321C72.0312 84.1165 72.0938 83.8935 72.0938 83.652V82.8807C72.0455 82.9205 71.9631 82.9574 71.8466 82.9915C71.733 83.0256 71.6051 83.0554 71.4631 83.081C71.321 83.1065 71.1804 83.1293 71.0412 83.1491C70.902 83.169 70.7813 83.1861 70.679 83.2003C70.4489 83.2315 70.2429 83.2827 70.0611 83.3537C69.8793 83.4247 69.7358 83.5241 69.6307 83.652C69.5256 83.777 69.473 83.9389 69.473 84.1378C69.473 84.4219 69.5767 84.6364 69.7841 84.7812C69.9915 84.9261 70.2557 84.9986 70.5767 84.9986ZM76.7259 82.1648V86H75.1832V79.4545H76.6577V80.5668H76.7344C76.8849 80.2003 77.125 79.9091 77.4545 79.6932C77.7869 79.4773 78.1974 79.3693 78.6861 79.3693C79.1378 79.3693 79.5313 79.4659 79.8665 79.6591C80.2045 79.8523 80.4659 80.1321 80.6506 80.4986C80.8381 80.8651 80.9304 81.3097 80.9276 81.8324V86H79.3849V82.071C79.3849 81.6335 79.2713 81.2912 79.044 81.044C78.8196 80.7969 78.5085 80.6733 78.1108 80.6733C77.8409 80.6733 77.6009 80.733 77.3906 80.8523C77.1832 80.9687 77.0199 81.1378 76.9006 81.3594C76.7841 81.581 76.7259 81.8494 76.7259 82.1648ZM85.3935 86.1278C84.7372 86.1278 84.1705 85.9915 83.6932 85.7188C83.2188 85.4432 82.8537 85.054 82.598 84.5511C82.3423 84.0455 82.2145 83.4503 82.2145 82.7656C82.2145 82.0923 82.3423 81.5014 82.598 80.9929C82.8565 80.4815 83.2173 80.0838 83.6804 79.7997C84.1435 79.5128 84.6875 79.3693 85.3125 79.3693C85.7159 79.3693 86.0966 79.4347 86.4545 79.5653C86.8153 79.6932 87.1335 79.892 87.4091 80.1619C87.6875 80.4318 87.9063 80.7756 88.0653 81.1932C88.2244 81.608 88.304 82.1023 88.304 82.6761V83.1491H82.9389V82.1094H86.8253C86.8224 81.8139 86.7585 81.5511 86.6335 81.321C86.5085 81.0881 86.3338 80.9048 86.1094 80.7713C85.8878 80.6378 85.6293 80.571 85.3338 80.571C85.0185 80.571 84.7415 80.6477 84.5028 80.8011C84.2642 80.9517 84.0781 81.1506 83.9446 81.3977C83.8139 81.642 83.7472 81.9105 83.7443 82.2031V83.1108C83.7443 83.4915 83.8139 83.8182 83.9531 84.0909C84.0923 84.3608 84.2869 84.5682 84.5369 84.7131C84.7869 84.8551 85.0795 84.9261 85.4148 84.9261C85.6392 84.9261 85.8423 84.8949 86.0241 84.8324C86.206 84.767 86.3636 84.6719 86.4972 84.5469C86.6307 84.4219 86.7315 84.267 86.7997 84.0824L88.2401 84.2443C88.1491 84.625 87.9759 84.9574 87.7202 85.2415C87.4673 85.5227 87.1435 85.7415 86.7486 85.8977C86.3537 86.0511 85.902 86.1278 85.3935 86.1278ZM92.4641 86.1278C91.8249 86.1278 91.271 85.9872 90.8022 85.706C90.3335 85.4247 89.9698 85.0312 89.7113 84.5256C89.4556 84.0199 89.3278 83.429 89.3278 82.7528C89.3278 82.0767 89.4556 81.4844 89.7113 80.9759C89.9698 80.4673 90.3335 80.0724 90.8022 79.7912C91.271 79.5099 91.8249 79.3693 92.4641 79.3693C93.1033 79.3693 93.6573 79.5099 94.1261 79.7912C94.5948 80.0724 94.957 80.4673 95.2127 80.9759C95.4712 81.4844 95.6005 82.0767 95.6005 82.7528C95.6005 83.429 95.4712 84.0199 95.2127 84.5256C94.957 85.0312 94.5948 85.4247 94.1261 85.706C93.6573 85.9872 93.1033 86.1278 92.4641 86.1278ZM92.4727 84.892C92.8192 84.892 93.109 84.7969 93.342 84.6065C93.5749 84.4134 93.7482 84.1548 93.8619 83.831C93.9783 83.5071 94.0366 83.1463 94.0366 82.7486C94.0366 82.348 93.9783 81.9858 93.8619 81.6619C93.7482 81.3352 93.5749 81.0753 93.342 80.8821C93.109 80.6889 92.8192 80.5923 92.4727 80.5923C92.1175 80.5923 91.8221 80.6889 91.5863 80.8821C91.3533 81.0753 91.1786 81.3352 91.0621 81.6619C90.9485 81.9858 90.8917 82.348 90.8917 82.7486C90.8917 83.1463 90.9485 83.5071 91.0621 83.831C91.1786 84.1548 91.3533 84.4134 91.5863 84.6065C91.8221 84.7969 92.1175 84.892 92.4727 84.892ZM101.082 83.2472V79.4545H102.624V86H101.129V84.8366H101.06C100.913 85.2031 100.67 85.5028 100.332 85.7358C99.9964 85.9687 99.5831 86.0852 99.0916 86.0852C98.6626 86.0852 98.2834 85.9901 97.9538 85.7997C97.6271 85.6065 97.3714 85.3267 97.1868 84.9602C97.0021 84.5909 96.9098 84.1449 96.9098 83.6222V79.4545H98.4524V83.3835C98.4524 83.7983 98.5661 84.1278 98.7933 84.3722C99.0206 84.6165 99.3189 84.7386 99.6882 84.7386C99.9155 84.7386 100.136 84.6832 100.349 84.5724C100.562 84.4616 100.737 84.2969 100.873 84.0781C101.012 83.8565 101.082 83.5795 101.082 83.2472ZM109.384 81.1847L107.978 81.3381C107.938 81.196 107.868 81.0625 107.769 80.9375C107.672 80.8125 107.542 80.7116 107.377 80.6349C107.212 80.5582 107.01 80.5199 106.772 80.5199C106.451 80.5199 106.181 80.5895 105.962 80.7287C105.746 80.8679 105.64 81.0483 105.642 81.2699C105.64 81.4602 105.709 81.6151 105.851 81.7344C105.996 81.8537 106.235 81.9517 106.567 82.0284L107.684 82.267C108.303 82.4006 108.763 82.6122 109.064 82.902C109.368 83.1918 109.522 83.571 109.525 84.0398C109.522 84.4517 109.401 84.8153 109.162 85.1307C108.926 85.4432 108.598 85.6875 108.178 85.8636C107.757 86.0398 107.275 86.1278 106.729 86.1278C105.928 86.1278 105.283 85.9602 104.794 85.625C104.306 85.2869 104.015 84.8168 103.921 84.2145L105.425 84.0696C105.493 84.3651 105.638 84.5881 105.86 84.7386C106.081 84.8892 106.37 84.9645 106.725 84.9645C107.091 84.9645 107.385 84.8892 107.607 84.7386C107.831 84.5881 107.944 84.402 107.944 84.1804C107.944 83.9929 107.871 83.8381 107.726 83.7159C107.584 83.5937 107.363 83.5 107.061 83.4347L105.945 83.2003C105.317 83.0696 104.853 82.8494 104.551 82.5398C104.25 82.2273 104.101 81.8324 104.104 81.3551C104.101 80.9517 104.211 80.6023 104.432 80.3068C104.657 80.0085 104.968 79.7784 105.365 79.6165C105.766 79.4517 106.228 79.3693 106.75 79.3693C107.517 79.3693 108.121 79.5327 108.561 79.8594C109.005 80.1861 109.279 80.6278 109.384 81.1847ZM29.3374 101V92.2727H35.0135V93.598H30.9183V95.9673H34.7195V97.2926H30.9183V99.6747H35.0476V101H29.3374ZM37.794 92.2727L40.0653 99.142H40.1548L42.4219 92.2727H44.1605L41.0838 101H39.1321L36.0597 92.2727H37.794ZM55.7567 95.2173H54.163C54.1175 94.956 54.0337 94.7244 53.9116 94.5227C53.7894 94.3182 53.6374 94.1449 53.4556 94.0028C53.2738 93.8608 53.0664 93.7543 52.8335 93.6832C52.6033 93.6094 52.3548 93.5724 52.0877 93.5724C51.6133 93.5724 51.1928 93.6918 50.8263 93.9304C50.4599 94.1662 50.1729 94.5128 49.9656 94.9702C49.7582 95.4247 49.6545 95.9801 49.6545 96.6364C49.6545 97.304 49.7582 97.8665 49.9656 98.3239C50.1758 98.7784 50.4627 99.1222 50.8263 99.3551C51.1928 99.5852 51.6119 99.7003 52.0835 99.7003C52.3448 99.7003 52.5891 99.6662 52.8164 99.598C53.0465 99.527 53.2525 99.4233 53.4343 99.2869C53.619 99.1506 53.7738 98.983 53.8988 98.7841C54.0266 98.5852 54.1147 98.358 54.163 98.1023L55.7567 98.1108C55.6971 98.5256 55.5678 98.9148 55.369 99.2784C55.1729 99.642 54.9158 99.9631 54.5977 100.241C54.2795 100.517 53.9073 100.733 53.4812 100.889C53.055 101.043 52.582 101.119 52.0621 101.119C51.2951 101.119 50.6104 100.942 50.0082 100.587C49.4059 100.232 48.9315 99.7188 48.5849 99.0483C48.2383 98.3778 48.065 97.5739 48.065 96.6364C48.065 95.696 48.2397 94.892 48.5891 94.2244C48.9386 93.554 49.4144 93.0412 50.0167 92.6861C50.619 92.331 51.3008 92.1534 52.0621 92.1534C52.5479 92.1534 52.9996 92.2216 53.4173 92.358C53.8349 92.4943 54.207 92.6946 54.5337 92.9588C54.8604 93.2202 55.1289 93.5412 55.3391 93.9219C55.5522 94.2997 55.6914 94.7315 55.7567 95.2173ZM58.679 97.1648V101H57.1364V92.2727H58.6449V95.5668H58.7216C58.875 95.1974 59.1122 94.9062 59.4332 94.6932C59.7571 94.4773 60.169 94.3693 60.669 94.3693C61.1236 94.3693 61.5199 94.4645 61.858 94.6548C62.196 94.8452 62.4574 95.1236 62.642 95.4901C62.8295 95.8565 62.9233 96.304 62.9233 96.8324V101H61.3807V97.071C61.3807 96.6307 61.267 96.2884 61.0398 96.044C60.8153 95.7969 60.5 95.6733 60.0938 95.6733C59.821 95.6733 59.5767 95.733 59.3608 95.8523C59.1477 95.9687 58.9801 96.1378 58.858 96.3594C58.7386 96.581 58.679 96.8494 58.679 97.1648ZM66.3793 101.132C65.9645 101.132 65.5909 101.058 65.2585 100.911C64.929 100.76 64.6676 100.538 64.4744 100.246C64.2841 99.9531 64.1889 99.5923 64.1889 99.1634C64.1889 98.794 64.2571 98.4886 64.3935 98.2472C64.5298 98.0057 64.7159 97.8125 64.9517 97.6676C65.1875 97.5227 65.4531 97.4134 65.7486 97.3395C66.0469 97.2628 66.3551 97.2074 66.6733 97.1733C67.0568 97.1335 67.3679 97.098 67.6065 97.0668C67.8452 97.0327 68.0185 96.9815 68.1264 96.9134C68.2372 96.8423 68.2926 96.733 68.2926 96.5852V96.5597C68.2926 96.2386 68.1974 95.9901 68.0071 95.8139C67.8168 95.6378 67.5426 95.5497 67.1847 95.5497C66.8068 95.5497 66.5071 95.6321 66.2855 95.7969C66.0668 95.9616 65.919 96.1562 65.8423 96.3807L64.402 96.1761C64.5156 95.7784 64.7031 95.446 64.9645 95.179C65.2259 94.9091 65.5455 94.7074 65.9233 94.5739C66.3011 94.4375 66.7188 94.3693 67.1761 94.3693C67.4915 94.3693 67.8054 94.4062 68.1179 94.4801C68.4304 94.554 68.7159 94.6761 68.9744 94.8466C69.233 95.0142 69.4403 95.2429 69.5966 95.5327C69.7557 95.8224 69.8352 96.1847 69.8352 96.6193V101H68.3523V100.101H68.3011C68.2074 100.283 68.0753 100.453 67.9048 100.612C67.7372 100.768 67.5256 100.895 67.2699 100.991C67.017 101.085 66.7202 101.132 66.3793 101.132ZM66.7798 99.9986C67.0895 99.9986 67.358 99.9375 67.5852 99.8153C67.8125 99.6903 67.9872 99.5256 68.1094 99.321C68.2344 99.1165 68.2969 98.8935 68.2969 98.652V97.8807C68.2486 97.9205 68.1662 97.9574 68.0497 97.9915C67.9361 98.0256 67.8082 98.0554 67.6662 98.081C67.5241 98.1065 67.3835 98.1293 67.2443 98.1491C67.1051 98.169 66.9844 98.1861 66.8821 98.2003C66.652 98.2315 66.446 98.2827 66.2642 98.3537C66.0824 98.4247 65.9389 98.5241 65.8338 98.652C65.7287 98.777 65.6761 98.9389 65.6761 99.1378C65.6761 99.4219 65.7798 99.6364 65.9872 99.7812C66.1946 99.9261 66.4588 99.9986 66.7798 99.9986ZM71.3864 101V94.4545H72.8821V95.5455H72.9503C73.0696 95.1676 73.2741 94.8764 73.5639 94.6719C73.8565 94.4645 74.1903 94.3608 74.5653 94.3608C74.6506 94.3608 74.7457 94.3651 74.8509 94.3736C74.9588 94.3793 75.0483 94.3892 75.1193 94.4034V95.8224C75.054 95.7997 74.9503 95.7798 74.8082 95.7628C74.669 95.7429 74.5341 95.733 74.4034 95.733C74.1222 95.733 73.8693 95.794 73.6449 95.9162C73.4233 96.0355 73.2486 96.2017 73.1207 96.4148C72.9929 96.6278 72.929 96.8736 72.929 97.152V101H71.3864ZM78.7212 103.591C78.1673 103.591 77.6914 103.516 77.2937 103.365C76.896 103.217 76.5763 103.018 76.3349 102.768C76.0934 102.518 75.9258 102.241 75.832 101.938L77.2212 101.601C77.2837 101.729 77.3746 101.855 77.494 101.98C77.6133 102.108 77.7738 102.213 77.9755 102.295C78.18 102.381 78.4371 102.423 78.7468 102.423C79.1843 102.423 79.5465 102.317 79.8335 102.104C80.1204 101.893 80.2638 101.547 80.2638 101.064V99.8239H80.1871C80.1076 99.983 79.9911 100.146 79.8377 100.314C79.6871 100.482 79.4869 100.622 79.2369 100.736C78.9897 100.849 78.6786 100.906 78.3036 100.906C77.8008 100.906 77.3448 100.788 76.9357 100.553C76.5295 100.314 76.2056 99.9588 75.9641 99.4872C75.7255 99.0128 75.6062 98.419 75.6062 97.706C75.6062 96.9872 75.7255 96.3807 75.9641 95.8864C76.2056 95.3892 76.5309 95.0128 76.94 94.7571C77.3491 94.4986 77.805 94.3693 78.3079 94.3693C78.6914 94.3693 79.0067 94.4347 79.2539 94.5653C79.5039 94.6932 79.7028 94.848 79.8505 95.0298C79.9982 95.2088 80.1104 95.3778 80.1871 95.5369H80.2724V94.4545H81.7937V101.107C81.7937 101.666 81.6602 102.129 81.3931 102.496C81.1261 102.862 80.761 103.136 80.2979 103.318C79.8349 103.5 79.3093 103.591 78.7212 103.591ZM78.734 99.696C79.0607 99.696 79.3391 99.6165 79.5692 99.4574C79.7994 99.2983 79.9741 99.0696 80.0934 98.7713C80.2127 98.473 80.2724 98.1151 80.2724 97.6974C80.2724 97.2855 80.2127 96.9247 80.0934 96.6151C79.9769 96.3054 79.8036 96.0653 79.5735 95.8949C79.3462 95.7216 79.0664 95.6349 78.734 95.6349C78.3903 95.6349 78.1033 95.7244 77.8732 95.9034C77.6431 96.0824 77.4698 96.3281 77.3533 96.6406C77.2369 96.9503 77.1786 97.3026 77.1786 97.6974C77.1786 98.098 77.2369 98.4489 77.3533 98.75C77.4727 99.0483 77.6474 99.2812 77.8775 99.4489C78.1104 99.6136 78.396 99.696 78.734 99.696ZM83.3746 101V94.4545H84.9173V101H83.3746ZM84.1502 93.5256C83.9059 93.5256 83.6957 93.4446 83.5195 93.2827C83.3434 93.1179 83.2553 92.9205 83.2553 92.6903C83.2553 92.4574 83.3434 92.2599 83.5195 92.098C83.6957 91.9332 83.9059 91.8509 84.1502 91.8509C84.3974 91.8509 84.6076 91.9332 84.7809 92.098C84.957 92.2599 85.0451 92.4574 85.0451 92.6903C85.0451 92.9205 84.957 93.1179 84.7809 93.2827C84.6076 93.4446 84.3974 93.5256 84.1502 93.5256ZM88.0462 97.1648V101H86.5036V94.4545H87.978V95.5668H88.0547C88.2053 95.2003 88.4453 94.9091 88.7749 94.6932C89.1072 94.4773 89.5178 94.3693 90.0064 94.3693C90.4581 94.3693 90.8516 94.4659 91.1868 94.6591C91.5249 94.8523 91.7862 95.1321 91.9709 95.4986C92.1584 95.8651 92.2507 96.3097 92.2479 96.8324V101H90.7053V97.071C90.7053 96.6335 90.5916 96.2912 90.3643 96.044C90.1399 95.7969 89.8288 95.6733 89.4311 95.6733C89.1612 95.6733 88.9212 95.733 88.7109 95.8523C88.5036 95.9687 88.3402 96.1378 88.2209 96.3594C88.1044 96.581 88.0462 96.8494 88.0462 97.1648ZM96.6626 103.591C96.1087 103.591 95.6328 103.516 95.2351 103.365C94.8374 103.217 94.5178 103.018 94.2763 102.768C94.0348 102.518 93.8672 102.241 93.7734 101.938L95.1626 101.601C95.2251 101.729 95.3161 101.855 95.4354 101.98C95.5547 102.108 95.7152 102.213 95.9169 102.295C96.1214 102.381 96.3786 102.423 96.6882 102.423C97.1257 102.423 97.4879 102.317 97.7749 102.104C98.0618 101.893 98.2053 101.547 98.2053 101.064V99.8239H98.1286C98.049 99.983 97.9325 100.146 97.7791 100.314C97.6286 100.482 97.4283 100.622 97.1783 100.736C96.9311 100.849 96.62 100.906 96.245 100.906C95.7422 100.906 95.2862 100.788 94.8771 100.553C94.4709 100.314 94.147 99.9588 93.9055 99.4872C93.6669 99.0128 93.5476 98.419 93.5476 97.706C93.5476 96.9872 93.6669 96.3807 93.9055 95.8864C94.147 95.3892 94.4723 95.0128 94.8814 94.7571C95.2905 94.4986 95.7464 94.3693 96.2493 94.3693C96.6328 94.3693 96.9482 94.4347 97.1953 94.5653C97.4453 94.6932 97.6442 94.848 97.7919 95.0298C97.9396 95.2088 98.0518 95.3778 98.1286 95.5369H98.2138V94.4545H99.7351V101.107C99.7351 101.666 99.6016 102.129 99.3345 102.496C99.0675 102.862 98.7024 103.136 98.2393 103.318C97.7763 103.5 97.2507 103.591 96.6626 103.591ZM96.6754 99.696C97.0021 99.696 97.2805 99.6165 97.5107 99.4574C97.7408 99.2983 97.9155 99.0696 98.0348 98.7713C98.1541 98.473 98.2138 98.1151 98.2138 97.6974C98.2138 97.2855 98.1541 96.9247 98.0348 96.6151C97.9183 96.3054 97.745 96.0653 97.5149 95.8949C97.2876 95.7216 97.0078 95.6349 96.6754 95.6349C96.3317 95.6349 96.0447 95.7244 95.8146 95.9034C95.5845 96.0824 95.4112 96.3281 95.2947 96.6406C95.1783 96.9503 95.12 97.3026 95.12 97.6974C95.12 98.098 95.1783 98.4489 95.2947 98.75C95.4141 99.0483 95.5888 99.2812 95.8189 99.4489C96.0518 99.6136 96.3374 99.696 96.6754 99.696Z" fill="white"/>
<path d="M26.6748 50.9839C30.2471 50.9839 33.1537 48.5743 33.1537 45.6128C33.1537 42.6513 30.2471 40.2417 26.6748 40.2417C23.1025 40.2417 20.1959 42.6513 20.1959 45.6128C20.1959 48.5743 23.1025 50.9839 26.6748 50.9839ZM26.6748 42.9761C28.4286 42.9761 29.8553 44.1589 29.8553 45.6128C29.8553 47.0667 28.4286 48.2495 26.6748 48.2495C24.921 48.2495 23.4943 47.0667 23.4943 45.6128C23.4943 44.1589 24.921 42.9761 26.6748 42.9761ZM9.7119 9.57764V8.01514H14.528C14.6502 7.51807 14.8879 7.05596 15.2147 6.64678L11.8104 3.82451L13.1429 2.71963L16.5461 5.54092C17.0385 5.26982 17.5949 5.07236 18.1931 4.97021V0.983887H20.0779V4.96768C20.6824 5.06885 21.2445 5.2667 21.7417 5.54014L25.1411 2.72236L26.4736 3.82725L23.0742 6.64541C23.4014 7.05498 23.6396 7.51748 23.7619 8.01514H28.5596V9.57764H23.7619C23.6391 10.0765 23.4005 10.5403 23.0716 10.9507L26.4701 13.7681L25.1375 14.8729L21.7377 12.0544C21.2415 12.3267 20.6808 12.5239 20.0779 12.6249V16.6089H18.1931V12.6226C17.5963 12.5208 17.0415 12.3239 16.5501 12.0538L13.1462 14.8759L11.8137 13.771L15.2171 10.9493C14.8889 10.5394 14.6505 10.0761 14.528 9.57764H9.7119ZM19.1449 6.45264C17.586 6.45264 16.3178 7.504 16.3178 8.79639C16.3178 10.0888 17.586 11.1401 19.1449 11.1401C20.7039 11.1401 21.9721 10.0888 21.9721 8.79639C21.9721 7.504 20.7039 6.45264 19.1449 6.45264ZM65.3125 0.983887L61.3568 6.45264H55.7025L59.6558 0.983887H65.3125ZM52.1215 0.983887H57.7734L53.8178 6.45264H48.1658L52.1215 0.983887ZM32.9101 27.5464L36.865 22.0776H42.5181L38.563 27.5464H32.9101ZM44.5801 0.983887H50.2344L46.2787 6.45264H40.6221L44.5801 0.983887ZM46.1077 27.5464H40.4461L44.4013 22.0776H50.0614L46.1077 27.5464ZM36.1092 20.5151H30.4472L34.4042 15.0464H40.0642L36.1092 20.5151ZM41.1943 13.4839H35.5348L39.4919 8.01514H45.1493L41.1943 13.4839ZM31.0241 27.5464H25.3595L29.3165 22.0776H34.9793L31.0241 27.5464ZM37.9949 20.5151L41.9499 15.0464H47.6032L43.6481 20.5151H37.9949ZM52.6883 8.01514L48.7332 13.4839H43.0798L47.035 8.01514H52.6883ZM54.5715 8.01514H60.2281L56.2743 13.4839H50.6163L54.5715 8.01514ZM11.9995 24.2261H4.99998V21.8823L12.2964 21.894C13.6157 21.894 14.8408 22.4663 15.524 23.4038L21.9629 32.2456H33.2715C35.3541 32.2456 37.041 33.644 37.041 35.3706V35.5542H49.9988C50.6483 35.5542 51.1768 35.1161 51.1768 34.5776V20.5151H45.5312L49.4864 15.0464H55.1447L53.5327 17.2761V34.5776C53.5327 36.1931 51.9474 37.5073 49.9988 37.5073H37.041V40.8394H40.8105V41.6206C40.8105 43.3472 39.1237 44.7339 37.041 44.7339H35.3259C34.7958 41.1636 31.1252 38.3979 26.6748 38.3979C22.2244 38.3979 18.5538 41.1636 18.0237 44.7339H4.99998V32.2339H18.1933L12.8123 24.6128C12.6427 24.3726 12.3341 24.2261 11.9995 24.2261Z" fill="white"/>
<path fill-rule="evenodd" clip-rule="evenodd" d="M113.58 24.6655C113.701 26.3125 113.945 27.9711 114.194 29.6181C114.531 31.5971 114.758 33.5934 114.873 35.5976C114.978 38.2133 114.668 40.3641 113.802 41.8832C112.839 43.5806 111.274 44.4874 108.967 44.406C106.214 44.3556 104.522 42.8133 103.757 39.965C103.263 38.132 103.19 35.7022 103.485 32.7958C103.694 30.6954 104.013 29.3507 103.873 27.1883C103.698 24.7353 103.263 22.8015 102.553 21.3754C102.076 20.313 101.203 19.4786 100.118 19.0503V42.2746C100.451 42.4332 100.753 42.6482 101.011 42.9101C101.318 43.215 101.56 43.5775 101.725 43.9767C101.889 44.3758 101.973 44.8036 101.97 45.2353V47.5604C101.965 47.8407 101.849 48.1076 101.648 48.3029C101.446 48.4981 101.176 48.606 100.895 48.6029H73.6138C73.3316 48.6029 73.061 48.491 72.8615 48.2919C72.6619 48.0927 72.5498 47.8227 72.5498 47.5411V45.2159C72.5477 44.7843 72.6313 44.3565 72.796 43.9574C72.9606 43.5583 73.2029 43.1958 73.5089 42.8908C73.6899 42.7219 73.8891 42.5737 74.103 42.449V6.61074C74.104 5.8708 74.2511 5.1383 74.5357 4.45506C74.8204 3.77183 75.2371 3.15125 75.7621 2.62875C76.2871 2.10625 76.91 1.69206 77.5954 1.40983C78.2807 1.12761 79.0151 0.982874 79.7565 0.983892H94.426C95.9273 0.987983 97.3658 1.58498 98.4273 2.64442C99.4889 3.70386 100.087 5.1396 100.091 6.63787V16.8724C104.502 17.8334 105.683 22.9371 105.966 27.1457C106.156 29.9785 105.908 29.9358 105.601 32.8151C105.302 35.5782 105.352 37.8064 105.791 39.4379C106.284 41.2864 107.344 42.2862 108.991 42.3095H109.01C110.431 42.356 111.375 41.8367 111.93 40.8563C112.586 39.6937 112.815 37.9305 112.707 35.6983C112.592 33.7698 112.374 31.8488 112.054 29.9436C111.798 28.223 111.538 26.4907 111.418 24.6849H111.06L111.025 22.4062C108.307 22.1427 107.282 20.3175 107.282 17.6939V16.4849H106.894C106.724 16.4849 106.561 16.4175 106.441 16.2976C106.321 16.1777 106.253 16.015 106.253 15.8454V15.113C106.253 14.9434 106.321 14.7808 106.441 14.6609C106.561 14.541 106.724 14.4736 106.894 14.4736H108.793V11.1215C108.792 10.9891 108.818 10.8578 108.869 10.7353C108.919 10.6129 108.993 10.5016 109.087 10.4079C109.181 10.3143 109.293 10.2401 109.415 10.1896C109.538 10.1392 109.67 10.1135 109.802 10.114C110.07 10.114 110.327 10.2201 110.516 10.4091C110.705 10.598 110.812 10.8543 110.812 11.1215V14.4736H113.782V11.1215C113.782 10.8543 113.889 10.598 114.078 10.4091C114.267 10.2201 114.524 10.114 114.792 10.114C114.925 10.1135 115.056 10.1391 115.179 10.1895C115.302 10.24 115.414 10.3141 115.508 10.4077C115.602 10.5013 115.677 10.6126 115.728 10.7351C115.779 10.8575 115.805 10.9889 115.805 11.1215V14.4736H117.747C117.831 14.4736 117.914 14.4902 117.992 14.5223C118.07 14.5544 118.14 14.6015 118.2 14.6609C118.259 14.7203 118.306 14.7908 118.339 14.8683C118.371 14.9459 118.387 15.0291 118.387 15.113V15.8532C118.385 16.0188 118.319 16.1772 118.202 16.295C118.086 16.4128 117.928 16.4809 117.762 16.4849H117.261V17.8218C117.261 20.4105 116.384 21.9528 113.864 22.3559V24.6577L113.58 24.6655ZM88.9395 28.6066H91.6148C91.7071 28.6066 91.7985 28.6248 91.8838 28.66C91.969 28.6953 92.0465 28.7469 92.1118 28.8121C92.177 28.8772 92.2288 28.9545 92.2641 29.0396C92.2994 29.1247 92.3176 29.2159 92.3176 29.308C92.3157 29.4461 92.2739 29.5806 92.1972 29.6956L85.8254 40.5462C85.7412 40.6896 85.6084 40.7982 85.4511 40.8525C85.2937 40.9068 85.1221 40.9033 84.9671 40.8426C84.8121 40.7818 84.6839 40.6678 84.6057 40.5211C84.5274 40.3745 84.5042 40.2047 84.5402 40.0425L85.4799 33.3887L82.3114 33.4429C82.1274 33.445 81.9499 33.3746 81.8176 33.2469C81.6853 33.1192 81.6088 32.9445 81.6047 32.7609C81.6003 32.6313 81.6341 32.5033 81.7018 32.3927L87.9649 21.5421C88.0524 21.4135 88.1802 21.3175 88.3283 21.2693C88.4764 21.2211 88.6363 21.2233 88.7829 21.2756C88.9296 21.328 89.0547 21.4275 89.1385 21.5584C89.2224 21.6894 89.2603 21.8445 89.2463 21.9993L88.924 28.6066H88.9395ZM81.0378 5.84345H93.3932C94.0109 5.84399 94.603 6.08931 95.0395 6.52549C95.0667 6.55649 95.0978 6.58362 95.1249 6.61849C95.5115 7.04294 95.7272 7.59501 95.7307 8.16859V16.0353C95.7307 16.652 95.4852 17.2434 95.0483 17.6795C94.6114 18.1155 94.0188 18.3605 93.4009 18.3605H81.0378C80.4215 18.3589 79.8309 18.1137 79.3954 17.6784C78.9583 17.2428 78.7125 16.6518 78.712 16.0353V8.16472C78.7125 7.54826 78.9583 6.95724 79.3954 6.52161C79.4246 6.49246 79.4557 6.46528 79.4886 6.44023C79.915 6.05724 80.468 5.84474 81.0417 5.84345H81.0378ZM99.1243 44.189H75.3688C75.2372 44.2466 75.1174 44.3281 75.0155 44.4292C74.9096 44.5344 74.8256 44.6594 74.7683 44.7971C74.711 44.9347 74.6815 45.0823 74.6816 45.2314V46.487H99.8232V45.2314C99.82 44.931 99.7003 44.6435 99.4893 44.4292C99.3843 44.3255 99.2604 44.2426 99.1243 44.1851V44.189Z" fill="white"/>
</svg>
