<svg width="95" height="63" viewBox="0 0 95 63" fill="none" xmlns="http://www.w3.org/2000/svg">
<path d="M4.681 39.6045V30.8772H8.02191C8.65259 30.8772 9.17674 30.9767 9.59435 31.1755C10.0148 31.3715 10.3287 31.64 10.5361 31.9809C10.7463 32.3218 10.8515 32.7082 10.8515 33.14C10.8515 33.4951 10.7833 33.7991 10.6469 34.0519C10.5105 34.3019 10.3273 34.5051 10.0972 34.6613C9.86708 34.8176 9.60998 34.9298 9.32589 34.998V35.0832C9.63555 35.1002 9.93242 35.1954 10.2165 35.3687C10.5034 35.5392 10.7378 35.7806 10.9196 36.0931C11.1015 36.4056 11.1924 36.7835 11.1924 37.2267C11.1924 37.6784 11.083 38.0846 10.8642 38.4454C10.6455 38.8034 10.3159 39.086 9.8756 39.2934C9.43526 39.5008 8.88129 39.6045 8.21367 39.6045H4.681ZM6.26197 38.2835H7.96225C8.53612 38.2835 8.94947 38.1741 9.20231 37.9553C9.45799 37.7338 9.58583 37.4497 9.58583 37.1031C9.58583 36.8445 9.52191 36.6116 9.39407 36.4042C9.26623 36.194 9.08441 36.0292 8.84861 35.9099C8.61282 35.7877 8.33157 35.7267 8.00486 35.7267H6.26197V38.2835ZM6.26197 34.5889H7.82589C8.09862 34.5889 8.34435 34.5392 8.5631 34.4397C8.78185 34.3374 8.95373 34.194 9.07873 34.0093C9.20657 33.8218 9.27049 33.6002 9.27049 33.3445C9.27049 33.0065 9.15117 32.7281 8.91254 32.5093C8.67674 32.2906 8.32589 32.1812 7.85998 32.1812H6.26197V34.5889ZM14.3831 39.7366C13.9683 39.7366 13.5947 39.6627 13.2623 39.515C12.9328 39.3644 12.6714 39.1428 12.4782 38.8502C12.2879 38.5576 12.1927 38.1968 12.1927 37.7678C12.1927 37.3985 12.2609 37.0931 12.3973 36.8517C12.5336 36.6102 12.7197 36.417 12.9555 36.2721C13.1913 36.1272 13.4569 36.0178 13.7524 35.944C14.0507 35.8673 14.3589 35.8119 14.6771 35.7778C15.0606 35.738 15.3717 35.7025 15.6103 35.6713C15.849 35.6372 16.0223 35.586 16.1302 35.5178C16.241 35.4468 16.2964 35.3374 16.2964 35.1897V35.1642C16.2964 34.8431 16.2012 34.5945 16.0109 34.4184C15.8206 34.2423 15.5464 34.1542 15.1885 34.1542C14.8106 34.1542 14.5109 34.2366 14.2893 34.4014C14.0706 34.5661 13.9228 34.7607 13.8461 34.9852L12.4058 34.7806C12.5194 34.3829 12.7069 34.0505 12.9683 33.7835C13.2297 33.5136 13.5493 33.3119 13.9271 33.1784C14.3049 33.042 14.7225 32.9738 15.1799 32.9738C15.4953 32.9738 15.8092 33.0107 16.1217 33.0846C16.4342 33.1585 16.7197 33.2806 16.9782 33.4511C17.2368 33.6187 17.4441 33.8474 17.6004 34.1372C17.7595 34.4269 17.839 34.7892 17.839 35.2238V39.6045H16.3561V38.7053H16.3049C16.2112 38.8872 16.0791 39.0576 15.9086 39.2167C15.741 39.373 15.5294 39.4994 15.2737 39.596C15.0208 39.6897 14.724 39.7366 14.3831 39.7366ZM14.7836 38.6031C15.0933 38.6031 15.3618 38.542 15.589 38.4198C15.8163 38.2948 15.991 38.1301 16.1132 37.9255C16.2382 37.721 16.3007 37.498 16.3007 37.2565V36.4852C16.2524 36.5249 16.17 36.5619 16.0535 36.596C15.9399 36.6301 15.812 36.6599 15.67 36.6855C15.5279 36.711 15.3873 36.7338 15.2481 36.7536C15.1089 36.7735 14.9882 36.7906 14.8859 36.8048C14.6558 36.836 14.4498 36.8872 14.268 36.9582C14.0862 37.0292 13.9427 37.1286 13.8376 37.2565C13.7325 37.3815 13.6799 37.5434 13.6799 37.7423C13.6799 38.0264 13.7836 38.2409 13.991 38.3857C14.1984 38.5306 14.4626 38.6031 14.7836 38.6031ZM22.2453 39.7323C21.5919 39.7323 21.0308 39.5889 20.562 39.3019C20.0961 39.015 19.7368 38.6187 19.4839 38.113C19.2339 37.6045 19.1089 37.0193 19.1089 36.3573C19.1089 35.6926 19.2368 35.1059 19.4924 34.5974C19.7481 34.086 20.1089 33.6883 20.5748 33.4042C21.0436 33.1173 21.5975 32.9738 22.2368 32.9738C22.768 32.9738 23.2382 33.0718 23.6473 33.2678C24.0592 33.461 24.3873 33.7352 24.6316 34.0903C24.876 34.4426 25.0152 34.8545 25.0493 35.3261H23.5748C23.5152 35.0107 23.3731 34.748 23.1487 34.5377C22.9271 34.3247 22.6302 34.2181 22.2581 34.2181C21.9427 34.2181 21.6657 34.3034 21.4271 34.4738C21.1885 34.6414 21.0024 34.8829 20.8689 35.1982C20.7382 35.5136 20.6728 35.8914 20.6728 36.3318C20.6728 36.7778 20.7382 37.1613 20.8689 37.4823C20.9995 37.8005 21.1828 38.0463 21.4186 38.2195C21.6572 38.39 21.937 38.4752 22.2581 38.4752C22.4853 38.4752 22.6885 38.4326 22.8674 38.3474C23.0493 38.2593 23.2012 38.1329 23.3234 37.9681C23.4456 37.8034 23.5294 37.6031 23.5748 37.3673H25.0493C25.0123 37.8303 24.876 38.2409 24.6402 38.5988C24.4044 38.9539 24.0833 39.2323 23.6771 39.434C23.2708 39.6329 22.7936 39.7323 22.2453 39.7323ZM27.7222 37.5505L27.7179 35.6883H27.9651L30.3174 33.059H32.1199L29.2265 36.2806H28.9069L27.7222 37.5505ZM26.3159 39.6045V30.8772H27.8586V39.6045H26.3159ZM30.4239 39.6045L28.2932 36.6258L29.333 35.5392L32.2691 39.6045H30.4239ZM37.3199 36.8517V33.059H38.8625V39.6045H37.3667V38.4411H37.2985C37.1508 38.8076 36.9079 39.1073 36.5699 39.3403C36.2346 39.5732 35.8213 39.6897 35.3298 39.6897C34.9008 39.6897 34.5216 39.5945 34.192 39.4042C33.8653 39.211 33.6096 38.9312 33.425 38.5647C33.2403 38.1954 33.148 37.7494 33.148 37.2267V33.059H34.6906V36.988C34.6906 37.4028 34.8042 37.7323 35.0315 37.9767C35.2588 38.221 35.5571 38.3431 35.9264 38.3431C36.1537 38.3431 36.3738 38.2877 36.5869 38.1769C36.8 38.0661 36.9747 37.9014 37.111 37.6826C37.2502 37.461 37.3199 37.184 37.3199 36.8517ZM40.4488 42.059V33.059H41.9658V34.1414H42.0553C42.1348 33.9823 42.2471 33.8133 42.3919 33.6343C42.5368 33.4525 42.7328 33.2977 42.98 33.1698C43.2272 33.0392 43.5425 32.9738 43.926 32.9738C44.4317 32.9738 44.8877 33.1031 45.2939 33.3616C45.703 33.6173 46.0269 33.9965 46.2655 34.4994C46.507 34.9994 46.6277 35.613 46.6277 36.3403C46.6277 37.059 46.5098 37.6698 46.274 38.1727C46.0382 38.6755 45.7172 39.059 45.311 39.3232C44.9047 39.5874 44.4445 39.7195 43.9303 39.7195C43.5553 39.7195 43.2442 39.657 42.9971 39.532C42.7499 39.407 42.551 39.2565 42.4005 39.0803C42.2527 38.9014 42.1377 38.7323 42.0553 38.5732H41.9914V42.059H40.4488ZM41.9615 36.3318C41.9615 36.7551 42.0212 37.1258 42.1405 37.444C42.2627 37.7622 42.4374 38.0107 42.6647 38.1897C42.8948 38.3659 43.1732 38.4539 43.4999 38.4539C43.8408 38.4539 44.1263 38.363 44.3564 38.1812C44.5865 37.9965 44.7598 37.7451 44.8763 37.4269C44.9956 37.1059 45.0553 36.7409 45.0553 36.3318C45.0553 35.9255 44.9971 35.5647 44.8806 35.2494C44.7641 34.934 44.5908 34.6869 44.3607 34.5079C44.1306 34.3289 43.8436 34.2394 43.4999 34.2394C43.1703 34.2394 42.8905 34.3261 42.6604 34.4994C42.4303 34.6727 42.2556 34.9156 42.1363 35.2281C42.0198 35.5406 41.9615 35.9085 41.9615 36.3318ZM50.9935 39.6045V30.8772H56.6696V32.2025H52.5745V34.5718H56.3756V35.8971H52.5745V38.2792H56.7037V39.6045H50.9935ZM59.757 35.7693V39.6045H58.2144V33.059H59.6888V34.1713H59.7655C59.9161 33.8048 60.1561 33.5136 60.4857 33.2977C60.8181 33.0818 61.2286 32.9738 61.7172 32.9738C62.1689 32.9738 62.5624 33.0704 62.8976 33.2636C63.2357 33.4568 63.4971 33.7366 63.6817 34.1031C63.8692 34.4695 63.9615 34.9142 63.9587 35.4369V39.6045H62.4161V35.6755C62.4161 35.238 62.3025 34.8957 62.0752 34.6485C61.8507 34.4014 61.5397 34.2778 61.1419 34.2778C60.8721 34.2778 60.632 34.3374 60.4218 34.4568C60.2144 34.5732 60.051 34.7423 59.9317 34.9639C59.8152 35.1855 59.757 35.4539 59.757 35.7693ZM68.4246 39.7323C67.7684 39.7323 67.2016 39.596 66.7243 39.3232C66.2499 39.0477 65.8848 38.6585 65.6292 38.1556C65.3735 37.6499 65.2456 37.0548 65.2456 36.3701C65.2456 35.6968 65.3735 35.1059 65.6292 34.5974C65.8877 34.086 66.2485 33.6883 66.7115 33.4042C67.1746 33.1173 67.7186 32.9738 68.3436 32.9738C68.7471 32.9738 69.1277 33.0392 69.4857 33.1698C69.8465 33.2977 70.1647 33.4965 70.4402 33.7664C70.7186 34.0363 70.9374 34.3801 71.0965 34.7977C71.2556 35.2124 71.3351 35.7068 71.3351 36.2806V36.7536H65.9701V35.7139H69.8564C69.8536 35.4184 69.7897 35.1556 69.6647 34.9255C69.5397 34.6926 69.365 34.5093 69.1405 34.3758C68.9189 34.2423 68.6604 34.1755 68.3649 34.1755C68.0496 34.1755 67.7726 34.2522 67.534 34.4056C67.2953 34.5562 67.1093 34.7551 66.9757 35.0022C66.8451 35.2465 66.7783 35.515 66.7755 35.8076V36.7153C66.7755 37.096 66.8451 37.4227 66.9843 37.6954C67.1235 37.9653 67.3181 38.1727 67.5681 38.3176C67.8181 38.4596 68.1107 38.5306 68.4459 38.5306C68.6703 38.5306 68.8735 38.4994 69.0553 38.4369C69.2371 38.3715 69.3948 38.2764 69.5283 38.1514C69.6618 38.0264 69.7627 37.8715 69.8309 37.6869L71.2712 37.8488C71.1803 38.2295 71.007 38.5619 70.7513 38.846C70.4985 39.1272 70.1746 39.346 69.7797 39.5022C69.3848 39.6556 68.9331 39.7323 68.4246 39.7323ZM72.6402 39.6045V33.059H74.1359V34.1499H74.2041C74.3234 33.7721 74.5279 33.4809 74.8177 33.2764C75.1103 33.069 75.4441 32.9653 75.8191 32.9653C75.9044 32.9653 75.9995 32.9695 76.1047 32.9781C76.2126 32.9838 76.3021 32.9937 76.3731 33.0079V34.4269C76.3078 34.4042 76.2041 34.3843 76.062 34.3673C75.9228 34.3474 75.7879 34.3374 75.6572 34.3374C75.376 34.3374 75.1231 34.3985 74.8987 34.5207C74.6771 34.64 74.5024 34.8062 74.3745 35.0193C74.2467 35.2323 74.1828 35.4781 74.1828 35.7565V39.6045H72.6402ZM79.975 42.1954C79.4211 42.1954 78.9452 42.1201 78.5475 41.9695C78.1498 41.8218 77.8301 41.623 77.5887 41.373C77.3472 41.123 77.1796 40.846 77.0858 40.542L78.475 40.2053C78.5375 40.3332 78.6284 40.4596 78.7478 40.5846C78.8671 40.7124 79.0276 40.8176 79.2293 40.8999C79.4338 40.9852 79.6909 41.0278 80.0006 41.0278C80.4381 41.0278 80.8003 40.9213 81.0873 40.7082C81.3742 40.498 81.5176 40.1514 81.5176 39.6684V38.4284H81.4409C81.3614 38.5874 81.2449 38.7508 81.0915 38.9184C80.9409 39.086 80.7407 39.2267 80.4907 39.3403C80.2435 39.4539 79.9324 39.5107 79.5574 39.5107C79.0546 39.5107 78.5986 39.3928 78.1895 39.157C77.7833 38.9184 77.4594 38.5633 77.2179 38.0917C76.9793 37.6173 76.86 37.0235 76.86 36.3105C76.86 35.5917 76.9793 34.9852 77.2179 34.4909C77.4594 33.9937 77.7847 33.6173 78.1938 33.3616C78.6029 33.1031 79.0588 32.9738 79.5617 32.9738C79.9452 32.9738 80.2605 33.0392 80.5077 33.1698C80.7577 33.2977 80.9566 33.4525 81.1043 33.6343C81.252 33.8133 81.3642 33.9823 81.4409 34.1414H81.5262V33.059H83.0475V39.711C83.0475 40.2707 82.914 40.7338 82.6469 41.1002C82.3799 41.4667 82.0148 41.7409 81.5517 41.9227C81.0887 42.1045 80.5631 42.1954 79.975 42.1954ZM79.9878 38.3005C80.3145 38.3005 80.5929 38.221 80.823 38.0619C81.0532 37.9028 81.2279 37.6741 81.3472 37.3758C81.4665 37.0775 81.5262 36.7195 81.5262 36.3019C81.5262 35.89 81.4665 35.5292 81.3472 35.2195C81.2307 34.9099 81.0574 34.6698 80.8273 34.4994C80.6 34.3261 80.3202 34.2394 79.9878 34.2394C79.6441 34.2394 79.3571 34.3289 79.127 34.5079C78.8969 34.6869 78.7236 34.9326 78.6071 35.2451C78.4907 35.5548 78.4324 35.907 78.4324 36.3019C78.4324 36.7025 78.4907 37.0534 78.6071 37.3545C78.7265 37.6528 78.9012 37.8857 79.1313 38.0534C79.3642 38.2181 79.6498 38.3005 79.9878 38.3005ZM85.5873 42.059C85.377 42.059 85.1824 42.042 85.0034 42.0079C84.8273 41.9767 84.6867 41.9397 84.5816 41.8971L84.9395 40.6954C85.164 40.7607 85.3642 40.792 85.5404 40.7892C85.7165 40.7863 85.8713 40.7309 86.0049 40.623C86.1412 40.5178 86.2563 40.3417 86.35 40.0945L86.4821 39.7409L84.1086 33.059H85.7449L87.2534 38.0022H87.3216L88.8344 33.059H90.475L87.8543 40.3971C87.7321 40.7437 87.5702 41.0406 87.3685 41.2877C87.1668 41.5377 86.9196 41.7281 86.627 41.8588C86.3373 41.9923 85.9907 42.059 85.5873 42.059ZM30.0255 48.2764C29.9857 47.9042 29.8181 47.6144 29.5226 47.407C29.23 47.1997 28.8493 47.096 28.3806 47.096C28.051 47.096 27.7684 47.1457 27.5326 47.2451C27.2968 47.3445 27.1164 47.4795 26.9914 47.6499C26.8664 47.8204 26.8025 48.015 26.7996 48.2338C26.7996 48.4156 26.8408 48.5732 26.9232 48.7068C27.0084 48.8403 27.1235 48.9539 27.2684 49.0477C27.4132 49.1386 27.5738 49.2153 27.7499 49.2778C27.926 49.3403 28.1036 49.3928 28.2826 49.4355L29.1007 49.64C29.4303 49.7167 29.7471 49.8204 30.051 49.9511C30.3578 50.0818 30.632 50.2465 30.8735 50.4454C31.1178 50.6443 31.311 50.8843 31.453 51.1656C31.5951 51.4468 31.6661 51.7764 31.6661 52.1542C31.6661 52.6656 31.5354 53.1159 31.274 53.5051C31.0127 53.8914 30.6348 54.194 30.1405 54.4127C29.649 54.6286 29.0539 54.7366 28.355 54.7366C27.676 54.7366 27.0865 54.6315 26.5865 54.4213C26.0894 54.211 25.7002 53.9042 25.4189 53.5008C25.1405 53.0974 24.99 52.6059 24.9672 52.0264H26.5226C26.5453 52.3303 26.6391 52.5832 26.8039 52.7849C26.9686 52.9866 27.1831 53.1372 27.4473 53.2366C27.7144 53.336 28.0127 53.3857 28.3422 53.3857C28.686 53.3857 28.9871 53.3346 29.2456 53.2323C29.507 53.1272 29.7115 52.9823 29.8593 52.7977C30.007 52.6102 30.0823 52.3914 30.0851 52.1414C30.0823 51.9142 30.0155 51.7267 29.8848 51.5789C29.7542 51.4284 29.5709 51.3034 29.3351 51.2039C29.1022 51.1017 28.8294 51.0107 28.5169 50.9312L27.524 50.6755C26.8053 50.4909 26.2371 50.211 25.8195 49.836C25.4047 49.4582 25.1973 48.9568 25.1973 48.3318C25.1973 47.8176 25.3365 47.3673 25.615 46.9809C25.8962 46.5945 26.2783 46.2948 26.7613 46.0818C27.2442 45.8659 27.7911 45.7579 28.4019 45.7579C29.0212 45.7579 29.5638 45.8659 30.0297 46.0818C30.4985 46.2948 30.8664 46.5917 31.1334 46.9724C31.4005 47.3502 31.5382 47.7849 31.5468 48.2764H30.0255ZM36.2758 48.059V49.2522H32.513V48.059H36.2758ZM33.442 46.4909H34.9846V52.6357C34.9846 52.8431 35.0159 53.0022 35.0784 53.113C35.1437 53.221 35.2289 53.2948 35.3341 53.3346C35.4392 53.3744 35.5556 53.3943 35.6835 53.3943C35.7801 53.3943 35.8681 53.3872 35.9477 53.373C36.0301 53.3588 36.0926 53.346 36.1352 53.3346L36.3951 54.5406C36.3127 54.569 36.1949 54.6002 36.0414 54.6343C35.8909 54.6684 35.7062 54.6883 35.4875 54.694C35.1011 54.7053 34.7531 54.6471 34.4434 54.5193C34.1338 54.3886 33.888 54.1869 33.7062 53.9142C33.5272 53.6414 33.4392 53.3005 33.442 52.8914V46.4909ZM40.3507 54.7323C39.7115 54.7323 39.1576 54.5917 38.6888 54.3105C38.2201 54.0292 37.8564 53.6357 37.5979 53.1301C37.3422 52.6244 37.2144 52.0335 37.2144 51.3573C37.2144 50.6812 37.3422 50.0889 37.5979 49.5803C37.8564 49.0718 38.2201 48.6769 38.6888 48.3957C39.1576 48.1144 39.7115 47.9738 40.3507 47.9738C40.99 47.9738 41.5439 48.1144 42.0127 48.3957C42.4814 48.6769 42.8436 49.0718 43.0993 49.5803C43.3578 50.0889 43.4871 50.6812 43.4871 51.3573C43.4871 52.0335 43.3578 52.6244 43.0993 53.1301C42.8436 53.6357 42.4814 54.0292 42.0127 54.3105C41.5439 54.5917 40.99 54.7323 40.3507 54.7323ZM40.3593 53.4965C40.7059 53.4965 40.9956 53.4014 41.2286 53.211C41.4615 53.0178 41.6348 52.7593 41.7485 52.4355C41.865 52.1116 41.9232 51.7508 41.9232 51.3531C41.9232 50.9525 41.865 50.5903 41.7485 50.2664C41.6348 49.9397 41.4615 49.6798 41.2286 49.4866C40.9956 49.2934 40.7059 49.1968 40.3593 49.1968C40.0042 49.1968 39.7087 49.2934 39.4729 49.4866C39.24 49.6798 39.0652 49.9397 38.9488 50.2664C38.8351 50.5903 38.7783 50.9525 38.7783 51.3531C38.7783 51.7508 38.8351 52.1116 38.9488 52.4355C39.0652 52.7593 39.24 53.0178 39.4729 53.211C39.7087 53.4014 40.0042 53.4965 40.3593 53.4965ZM44.7964 54.6045V48.059H46.2922V49.1499H46.3603C46.4797 48.7721 46.6842 48.4809 46.974 48.2764C47.2666 48.069 47.6004 47.9653 47.9754 47.9653C48.0606 47.9653 48.1558 47.9695 48.2609 47.9781C48.3689 47.9838 48.4583 47.9937 48.5294 48.0079V49.4269C48.464 49.4042 48.3603 49.3843 48.2183 49.3673C48.0791 49.3474 47.9441 49.3374 47.8135 49.3374C47.5322 49.3374 47.2794 49.3985 47.0549 49.5207C46.8333 49.64 46.6586 49.8062 46.5308 50.0193C46.4029 50.2323 46.339 50.4781 46.339 50.7565V54.6045H44.7964ZM51.3206 54.7366C50.9058 54.7366 50.5322 54.6627 50.1998 54.515C49.8703 54.3644 49.6089 54.1428 49.4157 53.8502C49.2254 53.5576 49.1302 53.1968 49.1302 52.7678C49.1302 52.3985 49.1984 52.0931 49.3348 51.8517C49.4711 51.6102 49.6572 51.417 49.893 51.2721C50.1288 51.1272 50.3944 51.0178 50.6899 50.944C50.9882 50.8673 51.2964 50.8119 51.6146 50.7778C51.9981 50.738 52.3092 50.7025 52.5478 50.6713C52.7865 50.6372 52.9598 50.586 53.0677 50.5178C53.1785 50.4468 53.2339 50.3374 53.2339 50.1897V50.1642C53.2339 49.8431 53.1387 49.5945 52.9484 49.4184C52.7581 49.2423 52.4839 49.1542 52.126 49.1542C51.7481 49.1542 51.4484 49.2366 51.2268 49.4014C51.0081 49.5661 50.8603 49.7607 50.7836 49.9852L49.3433 49.7806C49.4569 49.3829 49.6444 49.0505 49.9058 48.7835C50.1672 48.5136 50.4868 48.3119 50.8646 48.1784C51.2424 48.042 51.66 47.9738 52.1174 47.9738C52.4328 47.9738 52.7467 48.0107 53.0592 48.0846C53.3717 48.1585 53.6572 48.2806 53.9157 48.4511C54.1743 48.6187 54.3816 48.8474 54.5379 49.1372C54.697 49.4269 54.7765 49.7892 54.7765 50.2238V54.6045H53.2936V53.7053H53.2424C53.1487 53.8872 53.0166 54.0576 52.8461 54.2167C52.6785 54.373 52.4669 54.4994 52.2112 54.596C51.9583 54.6897 51.6615 54.7366 51.3206 54.7366ZM51.7211 53.6031C52.0308 53.6031 52.2993 53.542 52.5265 53.4198C52.7538 53.2948 52.9285 53.1301 53.0507 52.9255C53.1757 52.721 53.2382 52.498 53.2382 52.2565V51.4852C53.1899 51.5249 53.1075 51.5619 52.991 51.596C52.8774 51.6301 52.7495 51.6599 52.6075 51.6855C52.4654 51.711 52.3248 51.7338 52.1856 51.7536C52.0464 51.7735 51.9257 51.7906 51.8234 51.8048C51.5933 51.836 51.3873 51.8872 51.2055 51.9582C51.0237 52.0292 50.8802 52.1286 50.7751 52.2565C50.67 52.3815 50.6174 52.5434 50.6174 52.7423C50.6174 53.0264 50.7211 53.2409 50.9285 53.3857C51.1359 53.5306 51.4001 53.6031 51.7211 53.6031ZM59.1743 57.1954C58.6203 57.1954 58.1444 57.1201 57.7467 56.9695C57.349 56.8218 57.0294 56.623 56.7879 56.373C56.5464 56.123 56.3788 55.846 56.285 55.542L57.6743 55.2053C57.7368 55.3332 57.8277 55.4596 57.947 55.5846C58.0663 55.7124 58.2268 55.8176 58.4285 55.8999C58.6331 55.9852 58.8902 56.0278 59.1998 56.0278C59.6373 56.0278 59.9995 55.9213 60.2865 55.7082C60.5734 55.498 60.7169 55.1514 60.7169 54.6684V53.4284H60.6402C60.5606 53.5874 60.4441 53.7508 60.2907 53.9184C60.1402 54.086 59.9399 54.2267 59.6899 54.3403C59.4427 54.4539 59.1316 54.5107 58.7566 54.5107C58.2538 54.5107 57.7978 54.3928 57.3887 54.157C56.9825 53.9184 56.6586 53.5633 56.4172 53.0917C56.1785 52.6173 56.0592 52.0235 56.0592 51.3105C56.0592 50.5917 56.1785 49.9852 56.4172 49.4909C56.6586 48.9937 56.9839 48.6173 57.393 48.3616C57.8021 48.1031 58.2581 47.9738 58.7609 47.9738C59.1444 47.9738 59.4598 48.0392 59.7069 48.1698C59.9569 48.2977 60.1558 48.4525 60.3035 48.6343C60.4512 48.8133 60.5635 48.9823 60.6402 49.1414H60.7254V48.059H62.2467V54.711C62.2467 55.2707 62.1132 55.7338 61.8461 56.1002C61.5791 56.4667 61.214 56.7409 60.751 56.9227C60.2879 57.1045 59.7623 57.1954 59.1743 57.1954ZM59.187 53.3005C59.5137 53.3005 59.7922 53.221 60.0223 53.0619C60.2524 52.9028 60.4271 52.6741 60.5464 52.3758C60.6657 52.0775 60.7254 51.7195 60.7254 51.3019C60.7254 50.89 60.6657 50.5292 60.5464 50.2195C60.4299 49.9099 60.2566 49.6698 60.0265 49.4994C59.7993 49.3261 59.5194 49.2394 59.187 49.2394C58.8433 49.2394 58.5564 49.3289 58.3262 49.5079C58.0961 49.6869 57.9228 49.9326 57.8064 50.2451C57.6899 50.5548 57.6316 50.907 57.6316 51.3019C57.6316 51.7025 57.6899 52.0534 57.8064 52.3545C57.9257 52.6528 58.1004 52.8857 58.3305 53.0534C58.5635 53.2181 58.849 53.3005 59.187 53.3005ZM66.7254 54.7323C66.0691 54.7323 65.5024 54.596 65.0251 54.3232C64.5507 54.0477 64.1856 53.6585 63.9299 53.1556C63.6743 52.6499 63.5464 52.0548 63.5464 51.3701C63.5464 50.6968 63.6743 50.1059 63.9299 49.5974C64.1885 49.086 64.5493 48.6883 65.0123 48.4042C65.4754 48.1173 66.0194 47.9738 66.6444 47.9738C67.0478 47.9738 67.4285 48.0392 67.7865 48.1698C68.1473 48.2977 68.4654 48.4965 68.741 48.7664C69.0194 49.0363 69.2382 49.3801 69.3973 49.7977C69.5564 50.2124 69.6359 50.7068 69.6359 51.2806V51.7536H64.2708V50.7139H68.1572C68.1544 50.4184 68.0904 50.1556 67.9654 49.9255C67.8404 49.6926 67.6657 49.5093 67.4413 49.3758C67.2197 49.2423 66.9612 49.1755 66.6657 49.1755C66.3504 49.1755 66.0734 49.2522 65.8348 49.4056C65.5961 49.5562 65.41 49.7551 65.2765 50.0022C65.1458 50.2465 65.0791 50.515 65.0762 50.8076V51.7153C65.0762 52.096 65.1458 52.4227 65.285 52.6954C65.4243 52.9653 65.6189 53.1727 65.8689 53.3176C66.1189 53.4596 66.4115 53.5306 66.7467 53.5306C66.9711 53.5306 67.1743 53.4994 67.3561 53.4369C67.5379 53.3715 67.6956 53.2764 67.8291 53.1514C67.9626 53.0264 68.0635 52.8715 68.1316 52.6869L69.572 52.8488C69.4811 53.2295 69.3078 53.5619 69.0521 53.846C68.7993 54.1272 68.4754 54.346 68.0805 54.5022C67.6856 54.6556 67.2339 54.7323 66.7254 54.7323Z" fill="white"/>
<path fill-rule="evenodd" clip-rule="evenodd" d="M32.8207 8.17352H57.7345V20.1252C57.7333 20.4422 57.6046 20.7458 57.3764 20.97C57.1482 21.1941 56.8391 21.3205 56.5164 21.3217H34.0388C33.7161 21.3205 33.4069 21.1941 33.1788 20.97C32.9506 20.7458 32.8219 20.4422 32.8207 20.1252V8.17352ZM53.4415 2.08788H56.4069C56.4674 2.08788 56.5254 2.11149 56.5682 2.15351C56.611 2.19553 56.635 2.25252 56.635 2.31195V4.08431H59.3016V6.88514H31.2627V4.08431H34V2.31195C34 2.25252 34.024 2.19553 34.0668 2.15351C34.1096 2.11149 34.1676 2.08788 34.2281 2.08788H37.1935C37.254 2.08788 37.312 2.11149 37.3548 2.15351C37.3976 2.19553 37.4216 2.25252 37.4216 2.31195V4.08431H40.4326V0.839836C40.4332 0.636186 40.5158 0.441047 40.6624 0.297044C40.809 0.153042 41.0077 0.0718802 41.215 0.0712891L49.7394 0.0712891C49.9467 0.0718802 50.1453 0.153042 50.2919 0.297044C50.4385 0.441047 50.5212 0.636186 50.5218 0.839836V4.08431H53.2134V2.31195C53.2134 2.25252 53.2375 2.19553 53.2802 2.15351C53.323 2.11149 53.381 2.08788 53.4415 2.08788ZM42.0476 4.08207H48.9045V1.63975H42.0476V4.08431V4.08207ZM47.4058 11.6062L44.356 11.6331L43.2406 15.4422L44.7529 15.4557L43.1562 19.4216L47.3899 14.351H45.5308L47.4058 11.6062ZM55.2253 10.7256V11.7586H52.212V10.7256H55.2253ZM36.3107 9.76215H37.3623V10.7256H38.334V11.7586H37.3532V12.7221H36.3107V11.7586H35.3298V10.7256H36.3107V9.76215Z" fill="white"/>
</svg>
