<svg width="122" height="76" viewBox="0 0 122 76" fill="none" xmlns="http://www.w3.org/2000/svg">
<path d="M12.3708 17.8101H23.5245C26.5037 17.8101 28.8128 15.5777 28.8128 12.7031C28.8128 12.6216 28.8128 12.5401 28.8128 12.4585C32.1011 12.3362 34.1217 10.5217 34.8845 8.56457C35.2246 7.73885 34.7815 7.00491 33.9773 7.00491C33.3587 7.00491 32.8538 7.26994 31.761 7.26994C29.1324 7.26994 27.7407 5.82245 27.7407 3.45756C27.7407 2.30567 28.1015 1.67369 28.1015 1.10282C28.1015 0.266962 27.3696 -0.15099 26.4625 0.164998C24.2771 0.868363 22.4215 3.17215 22.4215 5.99575C22.4215 6.08752 22.4319 6.18944 22.4319 6.28117C21.1845 4.87443 19.4527 4.04877 17.4838 4.04877C14.0717 4.04877 11.2162 6.65835 10.8761 10.0019C9.15457 10.5421 8 12.01 8 13.8652C8 16.1588 9.74213 17.8101 12.3708 17.8101ZM23.9369 5.96518C23.9369 3.99781 25.1224 2.45859 26.4728 1.72465L26.5861 1.80618C26.4109 2.29548 26.2563 2.97846 26.2563 3.76336C26.2563 6.69912 28.4211 8.70725 31.4105 8.70725C32.1425 8.70725 32.8227 8.58495 33.2969 8.43203L33.3587 8.50337C32.73 9.70622 31.1219 10.9703 28.5138 10.9805C27.8644 9.25769 26.2666 8.01407 24.2255 7.71847C24.0297 7.16803 23.9369 6.57677 23.9369 5.96518ZM12.3295 16.1791C10.5771 16.1791 9.64932 15.1802 9.64932 13.906C9.64932 12.8255 10.2885 11.8673 11.8038 11.4697C12.2986 11.3372 12.4842 11.1129 12.5254 10.6033C12.7625 7.74905 14.9067 5.68996 17.4838 5.68996C19.4836 5.68996 21.0402 6.77046 21.9989 8.67667C22.2154 9.11501 22.4731 9.26793 22.9988 9.26793C25.6584 9.26793 27.1634 10.8479 27.1634 12.7541C27.1634 14.6501 25.5965 16.1791 23.5555 16.1791H12.3295ZM20.9062 21.4085H18.8548L19.8032 19.6348C19.9166 19.4106 19.8238 19.2474 19.597 19.2474H17.4426C17.1642 19.2474 17.0715 19.3595 16.9787 19.5532L15.6592 22.5196C15.5561 22.7642 15.6592 22.9171 15.9272 22.9171H17.6487L16.3293 26.0772C16.2674 26.2097 16.2983 26.3218 16.3911 26.3524C16.4942 26.3932 16.5973 26.3626 16.7003 26.2504L21.0609 21.8978C21.2773 21.6837 21.1948 21.4085 20.9062 21.4085Z" fill="white"/>
<path d="M106.877 18.6221C109.802 18.6221 112.174 16.2109 112.174 13.2366C112.174 10.2623 109.802 7.85107 106.877 7.85107C103.952 7.85107 101.58 10.2623 101.58 13.2366C101.58 16.2109 103.952 18.6221 106.877 18.6221Z" fill="white"/>
<path d="M106.877 0.287109C106.518 0.287109 106.166 0.312405 105.815 0.341908V5.68269H107.938V0.341908C107.587 0.312405 107.235 0.287109 106.877 0.287109ZM97.8709 4.0799C97.6174 4.3377 97.3862 4.60845 97.1585 4.8817L100.873 8.6582L102.374 7.1321L98.6595 3.3556C98.3907 3.58712 98.1245 3.8221 97.8709 4.0799ZM94.1406 13.2365C94.1406 13.6011 94.1655 13.9587 94.1945 14.3156H99.4473V12.1574H94.1945C94.1655 12.5143 94.1406 12.8719 94.1406 13.2365ZM97.8709 22.3931C98.1245 22.6509 98.3907 22.8859 98.6595 23.1174L102.374 19.3409L100.873 17.8148L97.1585 21.5913C97.3862 21.8646 97.6174 22.1353 97.8709 22.3931V22.3931ZM106.877 26.1859C107.235 26.1859 107.587 26.1606 107.938 26.1311V20.7903H105.815V26.1311C106.166 26.1606 106.518 26.1859 106.877 26.1859ZM115.882 22.3931C116.136 22.1353 116.367 21.8646 116.595 21.5913L112.88 17.8148L111.379 19.3409L115.094 23.1174C115.362 22.8859 115.629 22.6509 115.882 22.3931V22.3931ZM119.613 13.2365C119.613 12.8719 119.588 12.5143 119.559 12.1574H114.306V14.3156H119.559C119.588 13.9587 119.613 13.6011 119.613 13.2365ZM115.882 4.0799C115.629 3.8221 115.362 3.58712 115.094 3.3556L111.379 7.1321L112.88 8.6582L116.595 4.8817C116.367 4.60845 116.136 4.3377 115.882 4.0799Z" fill="white"/>
<path d="M70.2 15.4224C69.87 15.4224 69.65 15.3112 69.43 15.0889C68.44 14.0885 68 12.8658 68 11.5319C68 8.75293 70.2 6.52979 72.95 6.52979H73.61C74.16 3.97317 76.36 2.0835 79 2.0835C81.64 2.0835 83.84 3.97317 84.39 6.52979H85.05C87.8 6.52979 90 8.75293 90 11.5319C90 12.8658 89.45 14.0885 88.57 14.9777C88.13 15.4224 87.47 15.4224 87.03 14.9777C86.59 14.5331 86.59 13.8662 87.03 13.4215C87.58 12.8658 87.8 12.1988 87.8 11.5319C87.8 9.97566 86.59 8.75293 85.05 8.75293H83.4C82.74 8.75293 82.3 8.3083 82.3 7.64136C82.3 5.75169 80.87 4.30664 79 4.30664C77.13 4.30664 75.7 5.75169 75.7 7.64136C75.7 8.3083 75.26 8.75293 74.6 8.75293H72.95C71.41 8.75293 70.2 9.97566 70.2 11.5319C70.2 12.31 70.53 12.9769 70.97 13.5327C71.41 13.9773 71.41 14.6443 70.97 15.0889C70.75 15.3112 70.53 15.4224 70.2 15.4224Z" fill="white"/>
<path d="M74.5995 17.6453C74.4895 17.6453 74.2695 17.6453 74.1595 17.5341C73.6095 17.3118 73.3895 16.6449 73.7195 16.0891L74.8195 13.866C75.0395 13.3102 75.6995 13.0879 76.2495 13.4213C76.7995 13.6436 77.0195 14.3106 76.6895 14.8664L75.5895 17.0895C75.3695 17.423 75.0395 17.6453 74.5995 17.6453Z" fill="white"/>
<path d="M82.2997 17.6453C82.1897 17.6453 81.9697 17.6453 81.8597 17.5341C81.3097 17.3118 81.0897 16.6449 81.4197 16.0891L82.5197 13.866C82.7397 13.3102 83.3997 13.0879 83.9497 13.4213C84.4997 13.6436 84.7197 14.3106 84.3897 14.8664L83.2897 17.0895C83.0697 17.423 82.7397 17.6453 82.2997 17.6453Z" fill="white"/>
<path d="M70.2001 23.2029C70.0901 23.2029 69.8701 23.2029 69.7601 23.0918C69.2101 22.8694 68.9901 22.2025 69.3201 21.6467L70.4201 19.4236C70.6401 18.8678 71.3001 18.6455 71.8501 18.9789C72.4001 19.2013 72.6201 19.8682 72.2901 20.424L71.1901 22.6471C70.9701 22.9806 70.6401 23.2029 70.2001 23.2029Z" fill="white"/>
<path d="M77.9003 23.2029C77.7903 23.2029 77.5703 23.2029 77.4603 23.0918C76.9103 22.8694 76.6903 22.2025 77.0203 21.6467L78.1203 19.4236C78.3403 18.8678 79.0003 18.6455 79.5503 18.9789C80.1003 19.2013 80.3203 19.8682 79.9903 20.424L78.8903 22.6471C78.6703 22.9806 78.3403 23.2029 77.9003 23.2029Z" fill="white"/>
<path d="M85.5995 23.2029C85.4895 23.2029 85.2695 23.2029 85.1595 23.0918C84.6095 22.8694 84.3895 22.2025 84.7195 21.6467L85.8195 19.4236C86.0395 18.8678 86.6995 18.6455 87.2495 18.9789C87.7995 19.2013 88.0195 19.8682 87.6895 20.424L86.5895 22.6471C86.3695 22.9806 86.0395 23.2029 85.5995 23.2029Z" fill="white"/>
<path d="M46.6687 27.1789C46.536 27.0514 46.4531 26.8738 46.4531 26.6792C46.4531 26.4845 46.5349 26.3069 46.6687 26.1794L47.5702 25.3131H47.2764C47.2255 25.3131 47.1757 25.3074 47.1271 25.2983L47.1319 25.2995C47.1094 25.2961 47.0892 25.287 47.0667 25.2813C47.0383 25.2744 47.0134 25.2676 46.9909 25.2585L46.9945 25.2596C46.9649 25.2471 46.9412 25.2346 46.9175 25.2209L46.921 25.2232C46.8997 25.2141 46.8831 25.2039 46.8665 25.1936L46.8689 25.1947C46.7872 25.1424 46.7185 25.0764 46.6652 25.0012L46.664 24.9989C46.6521 24.9819 46.6438 24.9625 46.6332 24.9454C46.6225 24.9284 46.6095 24.9056 46.5988 24.8828L46.5965 24.8783C46.587 24.8544 46.5799 24.8293 46.5728 24.8054C46.5668 24.7883 46.5597 24.7679 46.555 24.7462L46.5538 24.7428C46.5443 24.7007 46.5396 24.6529 46.5396 24.6039C46.5396 24.555 46.5443 24.5072 46.555 24.4605L46.5538 24.465C46.5585 24.4434 46.5657 24.4252 46.5728 24.4024C46.5799 24.3797 46.5858 24.3535 46.5965 24.3307C46.6095 24.3034 46.6213 24.2818 46.6355 24.2601L46.6332 24.2636C46.6438 24.2453 46.6521 24.226 46.664 24.2089C46.6924 24.1691 46.722 24.1349 46.754 24.103L48.8223 22.1155C48.9549 21.988 49.1397 21.9083 49.3423 21.9083C49.7486 21.9083 50.0779 22.2247 50.0779 22.6152C50.0779 22.811 49.995 22.9874 49.8623 23.1149L49.0485 23.897H49.3435C49.3932 23.897 49.443 23.9016 49.4904 23.9118L49.4856 23.9107C49.5117 23.9164 49.5342 23.9232 49.5543 23.9312L49.5496 23.93C49.578 23.9368 49.6017 23.9437 49.6254 23.9528L49.6207 23.9516C49.6503 23.9642 49.6752 23.9778 49.6989 23.9915L49.6953 23.9892C49.7131 23.9983 49.7297 24.0051 49.7474 24.0154C49.8292 24.0678 49.8967 24.1338 49.95 24.2089L49.9512 24.2112C49.963 24.2283 49.9713 24.2465 49.982 24.2647C49.9938 24.284 50.0068 24.3057 50.0175 24.3296L50.0187 24.333C50.0258 24.3512 50.0341 24.3751 50.0412 24.4002L50.0424 24.4059C50.0483 24.4218 50.0542 24.4434 50.0602 24.4639L50.0613 24.4673C50.0708 24.5094 50.0756 24.5573 50.0767 24.6062C50.0767 24.654 50.072 24.7018 50.0613 24.7462L50.0625 24.7417C50.0578 24.7633 50.0495 24.7849 50.0436 24.8043C50.0365 24.8316 50.0294 24.8544 50.0199 24.876L50.0211 24.8714C50.008 24.8999 49.995 24.9238 49.9796 24.9466L49.9808 24.9443C49.9713 24.9614 49.9642 24.9773 49.9535 24.9944C49.9251 25.0354 49.8943 25.0707 49.8611 25.1037L47.7064 27.1744C47.5737 27.3019 47.3889 27.3815 47.1864 27.3815C46.9838 27.3815 46.799 27.3019 46.6663 27.1744L46.6687 27.1789ZM43.7381 23.4337C43.6054 23.3062 43.5225 23.1286 43.5225 22.9339C43.5225 22.7393 43.6042 22.5617 43.7381 22.4342L46.048 20.2144H44.4014C44.3505 20.2144 44.3008 20.2087 44.2534 20.1996L44.2581 20.2007C44.2356 20.1962 44.2155 20.1882 44.193 20.1825C44.1645 20.1757 44.1396 20.1677 44.116 20.1586L44.1195 20.1597C44.0911 20.1472 44.0674 20.1347 44.0449 20.1222L44.0484 20.1245C44.0259 20.1142 44.0082 20.1051 43.9904 20.0949L43.9928 20.096C43.911 20.0436 43.8435 19.9787 43.7902 19.9025L43.789 19.9002C43.7772 19.8843 43.7701 19.866 43.7594 19.849C43.731 19.8091 43.7085 19.7625 43.6954 19.7112L43.6942 19.7078C43.6883 19.6919 43.6812 19.6714 43.6753 19.6498L43.6741 19.6452C43.6646 19.6031 43.6599 19.5564 43.6599 19.5075C43.6599 19.4585 43.6646 19.4107 43.6753 19.3652L43.6741 19.3697C43.68 19.3447 43.6871 19.3242 43.6954 19.3037L43.6942 19.3082C43.7014 19.2798 43.7096 19.257 43.7179 19.2342L43.7168 19.2388C43.7298 19.2103 43.7428 19.1876 43.7582 19.1648L43.757 19.1671C43.7677 19.1466 43.7772 19.1307 43.7866 19.1147L43.7855 19.117C43.8139 19.076 43.8447 19.0407 43.8779 19.0077L46.0433 16.9268H43.3069C40.3763 16.9268 38 14.6432 38 11.8269C38 9.01056 40.3763 6.72699 43.3069 6.72699C43.3898 6.72699 43.4715 6.73382 43.5533 6.73724C44.8054 4.61646 47.1354 3.20716 49.8102 3.20033H49.8114H49.8185C50.8337 3.20033 51.7991 3.4041 52.6721 3.77179L52.6259 3.75471C53.6767 1.55766 55.9475 0.0595703 58.582 0.0595703C58.7052 0.0595703 58.8272 0.0629854 58.9492 0.0698156L58.9326 0.0686773C59.3212 0.0891679 59.6291 0.396527 59.6291 0.774466V0.794956V0.793818C59.6256 0.925869 59.5853 1.04767 59.5178 1.15127L59.519 1.14785C59.1956 1.7011 59.0049 2.36363 59.0049 3.06714C59.0049 5.26305 60.8575 7.04346 63.1426 7.04346C63.3961 7.04346 63.6448 7.02183 63.8853 6.97971L63.8604 6.98313L64.1542 6.93987C64.1874 6.93532 64.2253 6.9319 64.2644 6.9319C64.6707 6.9319 65 7.24837 65 7.63883C65 7.69575 64.9929 7.75039 64.9799 7.80389L64.981 7.79934C64.3532 10.2889 62.2542 12.1786 59.6386 12.5885L59.6007 12.593C59.6753 12.856 59.718 13.1588 59.718 13.4707C59.718 15.3786 58.1081 16.9256 56.1228 16.9256C56.1181 16.9256 56.1133 16.9256 56.1086 16.9256H53.7679L53.1708 17.4994H53.4646C53.5156 17.4994 53.5653 17.5051 53.6139 17.5142L53.6091 17.513C53.6352 17.5187 53.6577 17.5256 53.6778 17.5335L53.6731 17.5324C53.7027 17.5404 53.7264 17.5472 53.7501 17.5563L53.7454 17.5552C53.775 17.5677 53.7987 17.5802 53.8224 17.595L53.82 17.5939C53.8378 17.603 53.8555 17.6109 53.8721 17.6212C53.9538 17.6735 54.0214 17.7396 54.0747 17.8147L54.0759 17.817C54.0853 17.8318 54.096 17.8489 54.1043 17.8671L54.1055 17.8705C54.1173 17.8887 54.1303 17.9115 54.141 17.9342L54.1434 17.9388C54.1505 17.957 54.1588 17.9809 54.1659 18.0059L54.1671 18.0105C54.173 18.0264 54.1789 18.0481 54.1848 18.0686L54.186 18.072C54.1955 18.1141 54.2002 18.1619 54.2014 18.2109C54.2014 18.2587 54.1967 18.3065 54.186 18.3509L54.1872 18.3463C54.1813 18.3714 54.1742 18.3919 54.1659 18.4123L54.1671 18.4089C54.1611 18.4283 54.1552 18.4545 54.1457 18.4761C54.1315 18.5046 54.1185 18.5285 54.1043 18.5512L54.1067 18.5478C54.0972 18.5649 54.0901 18.5808 54.0794 18.5979C54.051 18.6389 54.0202 18.6742 53.9858 18.706L51.8299 20.7779C51.6972 20.9054 51.5124 20.9851 51.3099 20.9851C50.9036 20.9851 50.5743 20.6686 50.5743 20.2781C50.5743 20.0835 50.656 19.9059 50.7898 19.7784L51.6901 18.9132H51.3964C51.3454 18.9132 51.2957 18.9075 51.2483 18.8984L51.253 18.8996C51.2305 18.8962 51.2092 18.887 51.1879 18.8814C51.1583 18.8745 51.1346 18.8666 51.1109 18.8574L51.1156 18.8586C51.086 18.8461 51.0623 18.8335 51.0386 18.8199L51.0422 18.8222C51.0244 18.8131 51.0066 18.8051 50.9889 18.7937C50.9071 18.7413 50.8396 18.6753 50.7863 18.6002L50.7851 18.5979C50.7733 18.5808 50.765 18.5615 50.7543 18.5444C50.7425 18.5262 50.7306 18.5034 50.7188 18.4806L50.7164 18.4761C50.7093 18.4579 50.701 18.4328 50.6939 18.4089L50.6927 18.4044C50.6868 18.3884 50.6809 18.3668 50.6749 18.3463L50.6738 18.3429C50.6643 18.3008 50.6595 18.253 50.6584 18.204C50.6584 18.1562 50.6643 18.1084 50.6738 18.0629L50.6726 18.0674C50.6773 18.0458 50.6856 18.0253 50.6915 18.0048C50.6975 17.9843 50.7046 17.9593 50.714 17.9365C50.7283 17.9069 50.7413 17.8841 50.7555 17.8614L50.7531 17.8648C50.7626 17.8489 50.7709 17.8306 50.7816 17.8147C50.81 17.7737 50.8408 17.7384 50.874 17.7054L51.6866 16.9245H48.1257L46.1747 18.7994H47.8225C47.8734 18.7994 47.9232 18.8039 47.9717 18.8142L47.967 18.8131C47.9895 18.8176 48.0097 18.8256 48.0322 18.8313C48.0618 18.8381 48.0867 18.8461 48.1103 18.8552L48.1056 18.854C48.134 18.8666 48.1577 18.8791 48.1802 18.8916L48.1767 18.8893C48.1944 18.8996 48.2146 18.9064 48.2312 18.9189C48.3129 18.9713 48.3804 19.0362 48.4337 19.1124L48.4349 19.1147C48.4456 19.1307 48.4539 19.1477 48.4633 19.1648C48.4764 19.1842 48.4894 19.2081 48.5013 19.232L48.5024 19.2365C48.5095 19.2547 48.5178 19.2775 48.5238 19.3003L48.5249 19.3048C48.5309 19.3265 48.5403 19.3458 48.5439 19.3674C48.5534 19.4096 48.5581 19.4562 48.5581 19.5052C48.5581 19.5541 48.5534 19.6019 48.5427 19.6475L48.5439 19.6429C48.5392 19.6645 48.5309 19.685 48.5249 19.7055C48.5178 19.734 48.5095 19.7568 48.5013 19.7795L48.5024 19.775C48.4894 19.8034 48.4764 19.8262 48.461 19.849L48.4622 19.8467C48.4527 19.866 48.4432 19.8831 48.4325 19.8991L48.4337 19.8968C48.4053 19.9389 48.3745 19.9753 48.3413 20.0083L44.7758 23.4348C44.6431 23.5623 44.4583 23.642 44.2557 23.642C44.0532 23.642 43.8684 23.5635 43.7357 23.4348L43.7381 23.4337ZM39.4712 11.8246C39.4736 13.8589 41.1889 15.5084 43.3057 15.5106H56.1121C57.2932 15.5106 58.2491 14.5908 58.2491 13.4559C58.2491 12.3209 57.292 11.4011 56.111 11.4011C55.5838 11.4011 55.1017 11.5844 54.7286 11.8884L54.7321 11.8861C54.6042 11.9897 54.4383 12.0534 54.2571 12.0534C53.8508 12.0534 53.5215 11.737 53.5215 11.3465C53.5215 11.1302 53.6222 10.9367 53.7809 10.8069L53.7821 10.8058C54.2524 10.421 54.8352 10.1501 55.4748 10.0408L55.4962 10.0374C55.4748 7.03549 52.9387 4.61077 49.8126 4.61077C47.8568 4.61077 46.1321 5.56017 45.1086 7.00476L45.0956 7.02411C45.6796 7.22788 46.1854 7.50336 46.6308 7.84715L46.6201 7.83918C46.773 7.96895 46.8701 8.15906 46.8701 8.36966C46.8701 8.76012 46.5408 9.07659 46.1345 9.07659C45.9722 9.07659 45.8206 9.02536 45.6997 8.93998L45.7021 8.94112C45.0565 8.43796 44.2261 8.13402 43.3199 8.13402C43.3164 8.13402 43.3128 8.13402 43.3093 8.13402C41.1901 8.13516 39.4712 9.78579 39.4712 11.8235V11.8246ZM53.9148 4.44684C55.771 5.70474 56.9686 7.75722 56.9698 10.0783V10.092C57.7469 10.2787 58.4067 10.6874 58.8888 11.2429L58.8935 11.2486C60.7924 11.1348 62.3999 10.0385 63.1829 8.48691L63.1959 8.45731C63.1829 8.45731 63.1675 8.45731 63.1521 8.45731C60.0508 8.45731 57.5372 6.0417 57.5372 3.06145C57.5372 2.51845 57.6201 1.9948 57.7753 1.50074L57.7646 1.53945C56.0209 1.82176 54.5983 2.92712 53.9266 4.41611L53.9136 4.44798L53.9148 4.44684Z" fill="white"/>
<path d="M15.8588 42.8618V34.1345H19.1316C19.802 34.1345 20.3645 34.2595 20.8191 34.5095C21.2765 34.7595 21.6216 35.1033 21.8546 35.5408C22.0904 35.9755 22.2083 36.4698 22.2083 37.0237C22.2083 37.5834 22.0904 38.0806 21.8546 38.5152C21.6188 38.9499 21.2708 39.2922 20.8105 39.5422C20.3503 39.7894 19.7836 39.913 19.1103 39.913H16.9412V38.6132H18.8972C19.2892 38.6132 19.6103 38.5451 19.8603 38.4087C20.1103 38.2723 20.2949 38.0848 20.4142 37.8462C20.5364 37.6076 20.5975 37.3334 20.5975 37.0237C20.5975 36.7141 20.5364 36.4414 20.4142 36.2056C20.2949 35.9698 20.1088 35.7865 19.856 35.6559C19.606 35.5223 19.2836 35.4556 18.8887 35.4556H17.4398V42.8618H15.8588ZM23.5133 42.8618V36.3164H25.0091V37.4073H25.0772C25.1966 37.0294 25.4011 36.7382 25.6909 36.5337C25.9835 36.3263 26.3173 36.2226 26.6923 36.2226C26.7775 36.2226 26.8727 36.2269 26.9778 36.2354C27.0858 36.2411 27.1752 36.251 27.2463 36.2652V37.6843C27.1809 37.6615 27.0772 37.6416 26.9352 37.6246C26.796 37.6047 26.661 37.5948 26.5304 37.5948C26.2491 37.5948 25.9963 37.6559 25.7718 37.778C25.5502 37.8973 25.3755 38.0635 25.2477 38.2766C25.1199 38.4897 25.0559 38.7354 25.0559 39.0138V42.8618H23.5133ZM30.8567 42.9897C30.2175 42.9897 29.6635 42.849 29.1948 42.5678C28.726 42.2865 28.3624 41.8931 28.1039 41.3874C27.8482 40.8817 27.7203 40.2908 27.7203 39.6147C27.7203 38.9385 27.8482 38.3462 28.1039 37.8377C28.3624 37.3291 28.726 36.9343 29.1948 36.653C29.6635 36.3718 30.2175 36.2311 30.8567 36.2311C31.4959 36.2311 32.0499 36.3718 32.5186 36.653C32.9874 36.9343 33.3496 37.3291 33.6053 37.8377C33.8638 38.3462 33.9931 38.9385 33.9931 39.6147C33.9931 40.2908 33.8638 40.8817 33.6053 41.3874C33.3496 41.8931 32.9874 42.2865 32.5186 42.5678C32.0499 42.849 31.4959 42.9897 30.8567 42.9897ZM30.8652 41.7539C31.2118 41.7539 31.5016 41.6587 31.7346 41.4684C31.9675 41.2752 32.1408 41.0166 32.2544 40.6928C32.3709 40.3689 32.4292 40.0081 32.4292 39.6104C32.4292 39.2098 32.3709 38.8476 32.2544 38.5237C32.1408 38.197 31.9675 37.9371 31.7346 37.7439C31.5016 37.5507 31.2118 37.4541 30.8652 37.4541C30.5101 37.4541 30.2147 37.5507 29.9789 37.7439C29.7459 37.9371 29.5712 38.197 29.4547 38.5237C29.3411 38.8476 29.2843 39.2098 29.2843 39.6104C29.2843 40.0081 29.3411 40.3689 29.4547 40.6928C29.5712 41.0166 29.7459 41.2752 29.9789 41.4684C30.2147 41.6587 30.5101 41.7539 30.8652 41.7539ZM37.7314 42.9769C37.2172 42.9769 36.7569 42.8448 36.3507 42.5806C35.9444 42.3164 35.6234 41.9328 35.3876 41.43C35.1518 40.9272 35.0339 40.3164 35.0339 39.5976C35.0339 38.8703 35.1532 38.2567 35.3919 37.7567C35.6333 37.2539 35.9586 36.8746 36.3677 36.6189C36.7768 36.3604 37.2328 36.2311 37.7356 36.2311C38.1191 36.2311 38.4345 36.2965 38.6816 36.4272C38.9288 36.555 39.1248 36.7098 39.2697 36.8916C39.4146 37.0706 39.5268 37.2397 39.6064 37.3987H39.6703V34.1345H41.2172V42.8618H39.7001V41.8306H39.6064C39.5268 41.9897 39.4118 42.1587 39.2612 42.3377C39.1106 42.5138 38.9118 42.6644 38.6646 42.7894C38.4174 42.9144 38.1064 42.9769 37.7314 42.9769ZM38.1618 41.7112C38.4885 41.7112 38.7669 41.6232 38.997 41.447C39.2271 41.2681 39.4018 41.0195 39.5211 40.7013C39.6404 40.3831 39.7001 40.0124 39.7001 39.5891C39.7001 39.1658 39.6404 38.7979 39.5211 38.4854C39.4047 38.1729 39.2314 37.93 39.0012 37.7567C38.774 37.5834 38.4941 37.4968 38.1618 37.4968C37.818 37.4968 37.5311 37.5862 37.301 37.7652C37.0708 37.9442 36.8975 38.1914 36.7811 38.5067C36.6646 38.822 36.6064 39.1828 36.6064 39.5891C36.6064 39.9982 36.6646 40.3632 36.7811 40.6843C36.9004 41.0024 37.0751 41.2539 37.3052 41.4385C37.5382 41.6203 37.8237 41.7112 38.1618 41.7112ZM47.0328 40.109V36.3164H48.5755V42.8618H47.0797V41.6985H47.0115C46.8638 42.0649 46.6209 42.3647 46.2828 42.5976C45.9476 42.8306 45.5343 42.947 45.0428 42.947C44.6138 42.947 44.2346 42.8519 43.905 42.6615C43.5783 42.4684 43.3226 42.1885 43.138 41.822C42.9533 41.4527 42.861 41.0067 42.861 40.484V36.3164H44.4036V40.2453C44.4036 40.6601 44.5172 40.9897 44.7445 41.234C44.9718 41.4783 45.2701 41.6005 45.6394 41.6005C45.8667 41.6005 46.0868 41.5451 46.2999 41.4343C46.513 41.3235 46.6877 41.1587 46.824 40.9399C46.9632 40.7184 47.0328 40.4414 47.0328 40.109ZM53.0169 42.9897C52.3635 42.9897 51.8024 42.8462 51.3336 42.5593C50.8677 42.2723 50.5083 41.876 50.2555 41.3703C50.0055 40.8618 49.8805 40.2766 49.8805 39.6147C49.8805 38.9499 50.0083 38.3632 50.264 37.8547C50.5197 37.3434 50.8805 36.9456 51.3464 36.6615C51.8152 36.3746 52.3691 36.2311 53.0083 36.2311C53.5396 36.2311 54.0098 36.3291 54.4189 36.5252C54.8308 36.7184 55.1589 36.9925 55.4032 37.3476C55.6475 37.6999 55.7868 38.1118 55.8208 38.5834H54.3464C54.2868 38.2681 54.1447 38.0053 53.9203 37.7951C53.6987 37.582 53.4018 37.4755 53.0297 37.4755C52.7143 37.4755 52.4373 37.5607 52.1987 37.7311C51.96 37.8987 51.774 38.1402 51.6404 38.4556C51.5098 38.7709 51.4444 39.1487 51.4444 39.5891C51.4444 40.0351 51.5098 40.4186 51.6404 40.7397C51.7711 41.0578 51.9544 41.3036 52.1902 41.4769C52.4288 41.6473 52.7086 41.7326 53.0297 41.7326C53.2569 41.7326 53.46 41.6899 53.639 41.6047C53.8208 41.5166 53.9728 41.3902 54.095 41.2255C54.2172 41.0607 54.301 40.8604 54.3464 40.6246H55.8208C55.7839 41.0877 55.6475 41.4982 55.4118 41.8561C55.176 42.2112 54.8549 42.4897 54.4487 42.6914C54.0424 42.8902 53.5652 42.9897 53.0169 42.9897ZM59.9853 42.9897C59.329 42.9897 58.7623 42.8533 58.285 42.5806C57.8105 42.305 57.4455 41.9158 57.1898 41.413C56.9341 40.9073 56.8063 40.3121 56.8063 39.6274C56.8063 38.9541 56.9341 38.3632 57.1898 37.8547C57.4483 37.3434 57.8091 36.9456 58.2722 36.6615C58.7353 36.3746 59.2793 36.2311 59.9043 36.2311C60.3077 36.2311 60.6884 36.2965 61.0463 36.4272C61.4071 36.555 61.7253 36.7539 62.0009 37.0237C62.2793 37.2936 62.498 37.6374 62.6571 38.055C62.8162 38.4698 62.8958 38.9641 62.8958 39.538V40.011H57.5307V38.9712H61.4171C61.4142 38.6757 61.3503 38.413 61.2253 38.1828C61.1003 37.9499 60.9256 37.7666 60.7012 37.6331C60.4796 37.4996 60.2211 37.4328 59.9256 37.4328C59.6103 37.4328 59.3333 37.5095 59.0946 37.663C58.856 37.8135 58.6699 38.0124 58.5364 38.2595C58.4057 38.5039 58.339 38.7723 58.3361 39.0649V39.9726C58.3361 40.3533 58.4057 40.68 58.5449 40.9527C58.6841 41.2226 58.8787 41.43 59.1287 41.5749C59.3787 41.7169 59.6713 41.788 60.0066 41.788C60.231 41.788 60.4341 41.7567 60.6159 41.6942C60.7978 41.6289 60.9554 41.5337 61.089 41.4087C61.2225 41.2837 61.3233 41.1289 61.3915 40.9442L62.8319 41.1061C62.7409 41.4868 62.5676 41.8192 62.312 42.1033C62.0591 42.3845 61.7353 42.6033 61.3404 42.7595C60.9455 42.913 60.4938 42.9897 59.9853 42.9897ZM67.2456 42.8618V34.1345H72.9217V35.4598H68.8265V37.8291H72.6277V39.1544H68.8265V41.5365H72.9558V42.8618H67.2456ZM76.0091 39.0266V42.8618H74.4664V36.3164H75.9409V37.4286H76.0176C76.1681 37.0621 76.4082 36.7709 76.7377 36.555C77.0701 36.3391 77.4806 36.2311 77.9693 36.2311C78.421 36.2311 78.8145 36.3277 79.1497 36.5209C79.4877 36.7141 79.7491 36.9939 79.9338 37.3604C80.1213 37.7269 80.2136 38.1715 80.2108 38.6942V42.8618H78.6681V38.9328C78.6681 38.4953 78.5545 38.153 78.3272 37.9059C78.1028 37.6587 77.7917 37.5351 77.394 37.5351C77.1241 37.5351 76.8841 37.5948 76.6738 37.7141C76.4664 37.8306 76.3031 37.9996 76.1838 38.2212C76.0673 38.4428 76.0091 38.7112 76.0091 39.0266ZM84.6767 42.9897C84.0204 42.9897 83.4537 42.8533 82.9764 42.5806C82.502 42.305 82.1369 41.9158 81.8812 41.413C81.6255 40.9073 81.4977 40.3121 81.4977 39.6274C81.4977 38.9541 81.6255 38.3632 81.8812 37.8547C82.1397 37.3434 82.5005 36.9456 82.9636 36.6615C83.4267 36.3746 83.9707 36.2311 84.5957 36.2311C84.9991 36.2311 85.3798 36.2965 85.7377 36.4272C86.0985 36.555 86.4167 36.7539 86.6923 37.0237C86.9707 37.2936 87.1895 37.6374 87.3485 38.055C87.5076 38.4698 87.5872 38.9641 87.5872 39.538V40.011H82.2221V38.9712H86.1085C86.1056 38.6757 86.0417 38.413 85.9167 38.1828C85.7917 37.9499 85.617 37.7666 85.3926 37.6331C85.171 37.4996 84.9125 37.4328 84.617 37.4328C84.3017 37.4328 84.0247 37.5095 83.786 37.663C83.5474 37.8135 83.3613 38.0124 83.2278 38.2595C83.0971 38.5039 83.0304 38.7723 83.0275 39.0649V39.9726C83.0275 40.3533 83.0971 40.68 83.2363 40.9527C83.3755 41.2226 83.5701 41.43 83.8201 41.5749C84.0701 41.7169 84.3627 41.788 84.698 41.788C84.9224 41.788 85.1255 41.7567 85.3074 41.6942C85.4892 41.6289 85.6468 41.5337 85.7804 41.4087C85.9139 41.2837 86.0147 41.1289 86.0829 40.9442L87.5233 41.1061C87.4324 41.4868 87.2591 41.8192 87.0034 42.1033C86.7505 42.3845 86.4267 42.6033 86.0318 42.7595C85.6369 42.913 85.1852 42.9897 84.6767 42.9897ZM88.8922 42.8618V36.3164H90.388V37.4073H90.4561C90.5755 37.0294 90.78 36.7382 91.0698 36.5337C91.3624 36.3263 91.6962 36.2226 92.0712 36.2226C92.1564 36.2226 92.2516 36.2269 92.3567 36.2354C92.4647 36.2411 92.5542 36.251 92.6252 36.2652V37.6843C92.5598 37.6615 92.4561 37.6416 92.3141 37.6246C92.1749 37.6047 92.04 37.5948 91.9093 37.5948C91.628 37.5948 91.3752 37.6559 91.1507 37.778C90.9292 37.8973 90.7544 38.0635 90.6266 38.2766C90.4988 38.4897 90.4348 38.7354 90.4348 39.0138V42.8618H88.8922ZM96.2271 45.4527C95.6731 45.4527 95.1973 45.3774 94.7995 45.2269C94.4018 45.0791 94.0822 44.8803 93.8407 44.6303C93.5993 44.3803 93.4316 44.1033 93.3379 43.7993L94.7271 43.4627C94.7896 43.5905 94.8805 43.7169 94.9998 43.8419C95.1191 43.9698 95.2797 44.0749 95.4814 44.1573C95.6859 44.2425 95.943 44.2851 96.2527 44.2851C96.6902 44.2851 97.0524 44.1786 97.3393 43.9655C97.6262 43.7553 97.7697 43.4087 97.7697 42.9257V41.6857H97.693C97.6135 41.8448 97.497 42.0081 97.3436 42.1757C97.193 42.3434 96.9927 42.484 96.7427 42.5976C96.4956 42.7112 96.1845 42.7681 95.8095 42.7681C95.3066 42.7681 94.8507 42.6502 94.4416 42.4144C94.0353 42.1757 93.7115 41.8206 93.47 41.349C93.2314 40.8746 93.112 40.2809 93.112 39.5678C93.112 38.849 93.2314 38.2425 93.47 37.7482C93.7115 37.251 94.0368 36.8746 94.4458 36.6189C94.8549 36.3604 95.3109 36.2311 95.8137 36.2311C96.1973 36.2311 96.5126 36.2965 96.7598 36.4272C97.0098 36.555 97.2086 36.7098 97.3564 36.8916C97.5041 37.0706 97.6163 37.2397 97.693 37.3987H97.7782V36.3164H99.2995V42.9684C99.2995 43.528 99.166 43.9911 98.899 44.3576C98.6319 44.724 98.2669 44.9982 97.8038 45.18C97.3407 45.3618 96.8152 45.4527 96.2271 45.4527ZM96.2399 41.5578C96.5666 41.5578 96.845 41.4783 97.0751 41.3192C97.3052 41.1601 97.4799 40.9314 97.5993 40.6331C97.7186 40.3348 97.7782 39.9769 97.7782 39.5593C97.7782 39.1473 97.7186 38.7865 97.5993 38.4769C97.4828 38.1672 97.3095 37.9272 97.0794 37.7567C96.8521 37.5834 96.5723 37.4968 96.2399 37.4968C95.8961 37.4968 95.6092 37.5862 95.3791 37.7652C95.149 37.9442 94.9757 38.1899 94.8592 38.5024C94.7427 38.8121 94.6845 39.1644 94.6845 39.5593C94.6845 39.9598 94.7427 40.3107 94.8592 40.6118C94.9785 40.9101 95.1532 41.1431 95.3833 41.3107C95.6163 41.4755 95.9018 41.5578 96.2399 41.5578ZM101.839 45.3164C101.629 45.3164 101.434 45.2993 101.256 45.2652C101.079 45.234 100.939 45.197 100.834 45.1544L101.192 43.9527C101.416 44.0181 101.616 44.0493 101.792 44.0465C101.969 44.0436 102.123 43.9882 102.257 43.8803C102.393 43.7752 102.508 43.599 102.602 43.3519L102.734 42.9982L100.361 36.3164H101.997L103.506 41.2595H103.574L105.086 36.3164H106.727L104.106 43.6544C103.984 44.001 103.822 44.2979 103.621 44.5451C103.419 44.7951 103.172 44.9854 102.879 45.1161C102.589 45.2496 102.243 45.3164 101.839 45.3164ZM29.076 57.8618H26.1186V49.1345H29.1357C30.0021 49.1345 30.7464 49.3093 31.3686 49.6587C31.9936 50.0053 32.4737 50.5039 32.8089 51.1544C33.1442 51.805 33.3118 52.5834 33.3118 53.4897C33.3118 54.3987 33.1428 55.18 32.8047 55.8334C32.4695 56.4868 31.9851 56.9882 31.3516 57.3377C30.7209 57.6871 29.9624 57.8618 29.076 57.8618ZM27.6996 56.4939H28.9993C29.6072 56.4939 30.1143 56.3831 30.5206 56.1615C30.9268 55.9371 31.2322 55.6033 31.4368 55.1601C31.6413 54.7141 31.7436 54.1573 31.7436 53.4897C31.7436 52.822 31.6413 52.2681 31.4368 51.8277C31.2322 51.3845 30.9297 51.0536 30.5291 50.8348C30.1314 50.6132 29.6371 50.5024 29.0462 50.5024H27.6996V56.4939ZM36.6293 57.9939C36.2145 57.9939 35.8409 57.9201 35.5085 57.7723C35.179 57.6218 34.9176 57.4002 34.7244 57.1076C34.5341 56.8149 34.4389 56.4541 34.4389 56.0252C34.4389 55.6559 34.5071 55.3505 34.6435 55.109C34.7798 54.8675 34.9659 54.6743 35.2017 54.5294C35.4375 54.3845 35.7031 54.2752 35.9986 54.2013C36.2969 54.1246 36.6051 54.0692 36.9233 54.0351C37.3068 53.9953 37.6179 53.9598 37.8565 53.9286C38.0952 53.8945 38.2685 53.8434 38.3764 53.7752C38.4872 53.7041 38.5426 53.5948 38.5426 53.447V53.4215C38.5426 53.1005 38.4474 52.8519 38.2571 52.6757C38.0668 52.4996 37.7926 52.4115 37.4347 52.4115C37.0568 52.4115 36.7571 52.4939 36.5355 52.6587C36.3168 52.8235 36.169 53.0181 36.0923 53.2425L34.652 53.038C34.7656 52.6402 34.9531 52.3078 35.2145 52.0408C35.4759 51.7709 35.7955 51.5692 36.1733 51.4357C36.5511 51.2993 36.9688 51.2311 37.4261 51.2311C37.7415 51.2311 38.0554 51.2681 38.3679 51.3419C38.6804 51.4158 38.9659 51.538 39.2244 51.7084C39.483 51.876 39.6903 52.1047 39.8466 52.3945C40.0057 52.6843 40.0852 53.0465 40.0852 53.4811V57.8618H38.6023V56.9627H38.5511C38.4574 57.1445 38.3253 57.3149 38.1548 57.474C37.9872 57.6303 37.7756 57.7567 37.5199 57.8533C37.267 57.947 36.9702 57.9939 36.6293 57.9939ZM37.0298 56.8604C37.3395 56.8604 37.608 56.7993 37.8352 56.6772C38.0625 56.5522 38.2372 56.3874 38.3594 56.1828C38.4844 55.9783 38.5469 55.7553 38.5469 55.5138V54.7425C38.4986 54.7823 38.4162 54.8192 38.2997 54.8533C38.1861 54.8874 38.0582 54.9172 37.9162 54.9428C37.7741 54.9684 37.6335 54.9911 37.4943 55.011C37.3551 55.0309 37.2344 55.0479 37.1321 55.0621C36.902 55.0934 36.696 55.1445 36.5142 55.2155C36.3324 55.2865 36.1889 55.386 36.0838 55.5138C35.9787 55.6388 35.9261 55.8007 35.9261 55.9996C35.9261 56.2837 36.0298 56.4982 36.2372 56.6431C36.4446 56.788 36.7088 56.8604 37.0298 56.8604ZM42.3608 60.3164C42.1506 60.3164 41.956 60.2993 41.777 60.2652C41.6009 60.234 41.4602 60.197 41.3551 60.1544L41.7131 58.9527C41.9375 59.0181 42.1378 59.0493 42.3139 59.0465C42.4901 59.0436 42.6449 58.9882 42.7784 58.8803C42.9148 58.7752 43.0298 58.599 43.1236 58.3519L43.2557 57.9982L40.8821 51.3164H42.5185L44.027 56.2595H44.0952L45.608 51.3164H47.2486L44.6278 58.6544C44.5057 59.001 44.3438 59.2979 44.142 59.5451C43.9403 59.7951 43.6932 59.9854 43.4006 60.1161C43.1108 60.2496 42.7642 60.3164 42.3608 60.3164ZM51.1989 48.7255L48.3864 59.1743H47.0355L49.848 48.7255H51.1989ZM59.4233 49.1345V57.8618H58.017L53.9048 51.9172H53.8324V57.8618H52.2514V49.1345H53.6662L57.7741 55.0834H57.8509V49.1345H59.4233ZM61.0778 57.8618V51.3164H62.6204V57.8618H61.0778ZM61.8533 50.3874C61.609 50.3874 61.3988 50.3064 61.2227 50.1445C61.0465 49.9797 60.9585 49.7823 60.9585 49.5522C60.9585 49.3192 61.0465 49.1218 61.2227 48.9598C61.3988 48.7951 61.609 48.7127 61.8533 48.7127C62.1005 48.7127 62.3107 48.7951 62.484 48.9598C62.6602 49.1218 62.7482 49.3192 62.7482 49.5522C62.7482 49.7823 62.6602 49.9797 62.484 50.1445C62.3107 50.3064 62.1005 50.3874 61.8533 50.3874ZM67.0533 60.4527C66.4993 60.4527 66.0234 60.3774 65.6257 60.2269C65.228 60.0791 64.9084 59.8803 64.6669 59.6303C64.4254 59.3803 64.2578 59.1033 64.1641 58.7993L65.5533 58.4627C65.6158 58.5905 65.7067 58.7169 65.826 58.8419C65.9453 58.9698 66.1058 59.0749 66.3075 59.1573C66.5121 59.2425 66.7692 59.2851 67.0788 59.2851C67.5163 59.2851 67.8786 59.1786 68.1655 58.9655C68.4524 58.7553 68.5959 58.4087 68.5959 57.9257V56.6857H68.5192C68.4396 56.8448 68.3232 57.0081 68.1697 57.1757C68.0192 57.3434 67.8189 57.484 67.5689 57.5976C67.3217 57.7112 67.0107 57.7681 66.6357 57.7681C66.1328 57.7681 65.6768 57.6502 65.2678 57.4144C64.8615 57.1757 64.5376 56.8206 64.2962 56.349C64.0575 55.8746 63.9382 55.2809 63.9382 54.5678C63.9382 53.849 64.0575 53.2425 64.2962 52.7482C64.5376 52.251 64.8629 51.8746 65.272 51.6189C65.6811 51.3604 66.1371 51.2311 66.6399 51.2311C67.0234 51.2311 67.3388 51.2965 67.5859 51.4272C67.8359 51.555 68.0348 51.7098 68.1825 51.8916C68.3303 52.0706 68.4425 52.2397 68.5192 52.3987H68.6044V51.3164H70.1257V57.9684C70.1257 58.528 69.9922 58.9911 69.7251 59.3576C69.4581 59.724 69.093 59.9982 68.63 60.18C68.1669 60.3618 67.6413 60.4527 67.0533 60.4527ZM67.0661 56.5578C67.3928 56.5578 67.6712 56.4783 67.9013 56.3192C68.1314 56.1601 68.3061 55.9314 68.4254 55.6331C68.5447 55.3348 68.6044 54.9769 68.6044 54.5593C68.6044 54.1473 68.5447 53.7865 68.4254 53.4769C68.3089 53.1672 68.1357 52.9272 67.9055 52.7567C67.6783 52.5834 67.3984 52.4968 67.0661 52.4968C66.7223 52.4968 66.4354 52.5862 66.2053 52.7652C65.9751 52.9442 65.8018 53.1899 65.6854 53.5024C65.5689 53.8121 65.5107 54.1644 65.5107 54.5593C65.5107 54.9598 65.5689 55.3107 65.6854 55.6118C65.8047 55.9101 65.9794 56.1431 66.2095 56.3107C66.4425 56.4755 66.728 56.5578 67.0661 56.5578ZM73.2493 54.0266V57.8618H71.7067V49.1345H73.2152V52.4286H73.2919C73.4453 52.0593 73.6825 51.7681 74.0036 51.555C74.3274 51.3391 74.7393 51.2311 75.2393 51.2311C75.6939 51.2311 76.0902 51.3263 76.4283 51.5166C76.7663 51.707 77.0277 51.9854 77.2124 52.3519C77.3999 52.7184 77.4936 53.1658 77.4936 53.6942V57.8618H75.951V53.9328C75.951 53.4925 75.8374 53.1502 75.6101 52.9059C75.3857 52.6587 75.0703 52.5351 74.6641 52.5351C74.3913 52.5351 74.147 52.5948 73.9311 52.7141C73.718 52.8306 73.5504 52.9996 73.4283 53.2212C73.3089 53.4428 73.2493 53.7112 73.2493 54.0266ZM82.3345 51.3164V52.5095H78.5717V51.3164H82.3345ZM79.5007 49.7482H81.0433V55.8931C81.0433 56.1005 81.0746 56.2595 81.1371 56.3703C81.2024 56.4783 81.2876 56.5522 81.3928 56.5919C81.4979 56.6317 81.6143 56.6516 81.7422 56.6516C81.8388 56.6516 81.9268 56.6445 82.0064 56.6303C82.0888 56.6161 82.1513 56.6033 82.1939 56.5919L82.4538 57.7979C82.3714 57.8263 82.2536 57.8576 82.1001 57.8916C81.9496 57.9257 81.7649 57.9456 81.5462 57.9513C81.1598 57.9627 80.8118 57.9044 80.5021 57.7766C80.1925 57.6459 79.9467 57.4442 79.7649 57.1715C79.5859 56.8987 79.4979 56.5578 79.5007 56.1487V49.7482ZM89.2092 57.9897C88.6126 57.9897 88.0998 57.8817 87.6708 57.6658C87.2418 57.4499 86.9109 57.1587 86.6779 56.7922C86.4478 56.4229 86.3327 56.0067 86.3327 55.5436C86.3327 55.1942 86.4038 54.8845 86.5458 54.6147C86.6907 54.3448 86.8896 54.0948 87.1424 53.8647C87.3981 53.6345 87.6935 53.4059 88.0288 53.1786L89.5756 52.126C89.8029 51.9783 89.9748 51.822 90.0913 51.6573C90.2106 51.4925 90.2702 51.2993 90.2702 51.0777C90.2702 50.8902 90.1907 50.7127 90.0316 50.5451C89.8754 50.3774 89.6594 50.2936 89.3839 50.2936C89.1992 50.2936 89.0359 50.3377 88.8938 50.4257C88.7546 50.511 88.6452 50.6232 88.5657 50.7624C88.489 50.9016 88.4506 51.0493 88.4506 51.2056C88.4506 51.3959 88.5032 51.5891 88.6083 51.7851C88.7163 51.9811 88.8555 52.1843 89.0259 52.3945C89.1992 52.6047 89.3839 52.8277 89.5799 53.0635L93.6751 57.8618H92.0046L88.604 53.9669C88.3512 53.6715 88.1069 53.3803 87.8711 53.0934C87.6381 52.8064 87.4464 52.5081 87.2958 52.1985C87.1481 51.886 87.0742 51.5479 87.0742 51.1843C87.0742 50.7723 87.1694 50.4044 87.3597 50.0806C87.5501 49.7539 87.8157 49.4968 88.1566 49.3093C88.5004 49.1218 88.9023 49.028 89.3626 49.028C89.8228 49.028 90.2177 49.1189 90.5472 49.3007C90.8768 49.4826 91.131 49.724 91.31 50.0252C91.489 50.3263 91.5785 50.6544 91.5785 51.0095C91.5785 51.4215 91.4762 51.7908 91.2717 52.1175C91.0671 52.4414 90.783 52.7354 90.4194 52.9996L88.6552 54.2908C88.3654 54.501 88.158 54.7141 88.033 54.93C87.908 55.1431 87.8455 55.3249 87.8455 55.4755C87.8455 55.7056 87.9038 55.9144 88.0202 56.1019C88.1367 56.2894 88.3001 56.4399 88.5103 56.5536C88.7234 56.6644 88.9719 56.7198 89.256 56.7198C89.5685 56.7198 89.8768 56.6502 90.1808 56.511C90.4847 56.3689 90.7617 56.1672 91.0117 55.9059C91.2617 55.6445 91.4606 55.332 91.6083 54.9684C91.756 54.6019 91.8299 54.1956 91.8299 53.7496H93.1552C93.1552 54.3007 93.0941 54.7809 92.9719 55.1899C92.8498 55.5962 92.6921 55.9399 92.4989 56.2212C92.3058 56.4996 92.1012 56.7226 91.8853 56.8902C91.8171 56.9385 91.7518 56.9868 91.6893 57.0351C91.6268 57.0834 91.5614 57.1317 91.4933 57.18C91.1864 57.4584 90.8271 57.663 90.4151 57.7936C90.006 57.9243 89.604 57.9897 89.2092 57.9897ZM17.5836 72.8618V66.3164H19.1262V72.8618H17.5836ZM18.3592 65.3874C18.1149 65.3874 17.9047 65.3064 17.7285 65.1445C17.5524 64.9797 17.4643 64.7823 17.4643 64.5522C17.4643 64.3192 17.5524 64.1218 17.7285 63.9598C17.9047 63.7951 18.1149 63.7127 18.3592 63.7127C18.6064 63.7127 18.8166 63.7951 18.9899 63.9598C19.166 64.1218 19.2541 64.3192 19.2541 64.5522C19.2541 64.7823 19.166 64.9797 18.9899 65.1445C18.8166 65.3064 18.6064 65.3874 18.3592 65.3874ZM22.2551 69.0266V72.8618H20.7125V66.3164H22.187V67.4286H22.2637C22.4142 67.0621 22.6543 66.7709 22.9838 66.555C23.3162 66.3391 23.7267 66.2311 24.2154 66.2311C24.6671 66.2311 25.0605 66.3277 25.3958 66.5209C25.7338 66.7141 25.9952 66.9939 26.1799 67.3604C26.3674 67.7269 26.4597 68.1715 26.4569 68.6942V72.8618H24.9142V68.9328C24.9142 68.4953 24.8006 68.153 24.5733 67.9059C24.3489 67.6587 24.0378 67.5351 23.6401 67.5351C23.3702 67.5351 23.1301 67.5948 22.9199 67.7141C22.7125 67.8306 22.5492 67.9996 22.4299 68.2212C22.3134 68.4428 22.2551 68.7112 22.2551 69.0266ZM32.1905 72.8618H30.503L33.5755 64.1345H35.5272L38.6039 72.8618H36.9164L34.5854 65.9243H34.5172L32.1905 72.8618ZM32.2459 69.4399H36.8482V70.7098H32.2459V69.4399ZM41.2278 69.0266V72.8618H39.6852V66.3164H41.1596V67.4286H41.2363C41.3869 67.0621 41.627 66.7709 41.9565 66.555C42.2889 66.3391 42.6994 66.2311 43.188 66.2311C43.6397 66.2311 44.0332 66.3277 44.3684 66.5209C44.7065 66.7141 44.9679 66.9939 45.1525 67.3604C45.34 67.7269 45.4324 68.1715 45.4295 68.6942V72.8618H43.8869V68.9328C43.8869 68.4953 43.7733 68.153 43.546 67.9059C43.3216 67.6587 43.0105 67.5351 42.6127 67.5351C42.3429 67.5351 42.1028 67.5948 41.8926 67.7141C41.6852 67.8306 41.5218 67.9996 41.4025 68.2212C41.286 68.4428 41.2278 68.7112 41.2278 69.0266ZM47.7221 75.3164C47.5119 75.3164 47.3173 75.2993 47.1383 75.2652C46.9622 75.234 46.8216 75.197 46.7164 75.1544L47.0744 73.9527C47.2988 74.0181 47.4991 74.0493 47.6752 74.0465C47.8514 74.0436 48.0062 73.9882 48.1397 73.8803C48.2761 73.7752 48.3912 73.599 48.4849 73.3519L48.617 72.9982L46.2434 66.3164H47.8798L49.3883 71.2595H49.4565L50.9693 66.3164H52.6099L49.9892 73.6544C49.867 74.001 49.7051 74.2979 49.5034 74.5451C49.3017 74.7951 49.0545 74.9854 48.7619 75.1161C48.4721 75.2496 48.1255 75.3164 47.7221 75.3164ZM58.5588 72.8618L56.0957 64.1345H57.796L59.3684 70.5479H59.4494L61.1284 64.1345H62.6752L64.3585 70.5522H64.4352L66.0076 64.1345H67.7079L65.2449 72.8618H63.6852L61.938 66.7382H61.8699L60.1184 72.8618H58.5588ZM70.9657 72.9897C70.3095 72.9897 69.7427 72.8533 69.2654 72.5806C68.791 72.305 68.426 71.9158 68.1703 71.413C67.9146 70.9073 67.7868 70.3121 67.7868 69.6274C67.7868 68.9541 67.9146 68.3632 68.1703 67.8547C68.4288 67.3434 68.7896 66.9456 69.2527 66.6615C69.7157 66.3746 70.2598 66.2311 70.8848 66.2311C71.2882 66.2311 71.6689 66.2965 72.0268 66.4272C72.3876 66.555 72.7058 66.7539 72.9814 67.0237C73.2598 67.2936 73.4785 67.6374 73.6376 68.055C73.7967 68.4698 73.8762 68.9641 73.8762 69.538V70.011H68.5112V68.9712H72.3975C72.3947 68.6757 72.3308 68.413 72.2058 68.1828C72.0808 67.9499 71.9061 67.7666 71.6816 67.6331C71.46 67.4996 71.2015 67.4328 70.9061 67.4328C70.5907 67.4328 70.3137 67.5095 70.0751 67.663C69.8365 67.8135 69.6504 68.0124 69.5169 68.2595C69.3862 68.5039 69.3194 68.7723 69.3166 69.0649V69.9726C69.3166 70.3533 69.3862 70.68 69.5254 70.9527C69.6646 71.2226 69.8592 71.43 70.1092 71.5749C70.3592 71.7169 70.6518 71.788 70.987 71.788C71.2115 71.788 71.4146 71.7567 71.5964 71.6942C71.7782 71.6289 71.9359 71.5337 72.0694 71.4087C72.2029 71.2837 72.3038 71.1289 72.372 70.9442L73.8123 71.1061C73.7214 71.4868 73.5481 71.8192 73.2924 72.1033C73.0396 72.3845 72.7157 72.6033 72.3208 72.7595C71.926 72.913 71.4743 72.9897 70.9657 72.9897ZM77.0648 72.9939C76.65 72.9939 76.2765 72.9201 75.9441 72.7723C75.6145 72.6218 75.3532 72.4002 75.16 72.1076C74.9696 71.8149 74.8745 71.4541 74.8745 71.0252C74.8745 70.6559 74.9426 70.3505 75.079 70.109C75.2154 69.8675 75.4015 69.6743 75.6373 69.5294C75.873 69.3845 76.1387 69.2752 76.4341 69.2013C76.7324 69.1246 77.0407 69.0692 77.3588 69.0351C77.7424 68.9953 78.0534 68.9598 78.2921 68.9286C78.5307 68.8945 78.704 68.8434 78.812 68.7752C78.9228 68.7041 78.9782 68.5948 78.9782 68.447V68.4215C78.9782 68.1005 78.883 67.8519 78.6926 67.6757C78.5023 67.4996 78.2282 67.4115 77.8702 67.4115C77.4924 67.4115 77.1926 67.4939 76.9711 67.6587C76.7523 67.8235 76.6046 68.0181 76.5279 68.2425L75.0875 68.038C75.2012 67.6402 75.3887 67.3078 75.65 67.0408C75.9114 66.7709 76.231 66.5692 76.6088 66.4357C76.9867 66.2993 77.4043 66.2311 77.8617 66.2311C78.177 66.2311 78.4909 66.2681 78.8034 66.3419C79.1159 66.4158 79.4015 66.538 79.66 66.7084C79.9185 66.876 80.1259 67.1047 80.2821 67.3945C80.4412 67.6843 80.5208 68.0465 80.5208 68.4811V72.8618H79.0378V71.9627H78.9867C78.8929 72.1445 78.7608 72.3149 78.5904 72.474C78.4228 72.6303 78.2111 72.7567 77.9554 72.8533C77.7026 72.947 77.4057 72.9939 77.0648 72.9939ZM77.4654 71.8604C77.775 71.8604 78.0435 71.7993 78.2708 71.6772C78.498 71.5522 78.6728 71.3874 78.7949 71.1828C78.9199 70.9783 78.9824 70.7553 78.9824 70.5138V69.7425C78.9341 69.7823 78.8517 69.8192 78.7353 69.8533C78.6216 69.8874 78.4938 69.9172 78.3517 69.9428C78.2097 69.9684 78.0691 69.9911 77.9299 70.011C77.7907 70.0309 77.6699 70.0479 77.5676 70.0621C77.3375 70.0934 77.1316 70.1445 76.9498 70.2155C76.7679 70.2865 76.6245 70.386 76.5194 70.5138C76.4142 70.6388 76.3617 70.8007 76.3617 70.9996C76.3617 71.2837 76.4654 71.4982 76.6728 71.6431C76.8801 71.788 77.1444 71.8604 77.4654 71.8604ZM85.3404 66.3164V67.5095H81.5776V66.3164H85.3404ZM82.5066 64.7482H84.0492V70.8931C84.0492 71.1005 84.0804 71.2595 84.1429 71.3703C84.2083 71.4783 84.2935 71.5522 84.3986 71.5919C84.5037 71.6317 84.6202 71.6516 84.748 71.6516C84.8446 71.6516 84.9327 71.6445 85.0123 71.6303C85.0946 71.6161 85.1571 71.6033 85.1998 71.5919L85.4597 72.7979C85.3773 72.8263 85.2594 72.8576 85.106 72.8916C84.9554 72.9257 84.7708 72.9456 84.552 72.9513C84.1657 72.9627 83.8176 72.9044 83.508 72.7766C83.1983 72.6459 82.9526 72.4442 82.7708 72.1715C82.5918 71.8987 82.5037 71.5578 82.5066 71.1487V64.7482ZM88.3137 69.0266V72.8618H86.7711V64.1345H88.2797V67.4286H88.3564C88.5098 67.0593 88.747 66.7681 89.068 66.555C89.3919 66.3391 89.8038 66.2311 90.3038 66.2311C90.7583 66.2311 91.1547 66.3263 91.4927 66.5166C91.8308 66.707 92.0922 66.9854 92.2768 67.3519C92.4643 67.7184 92.5581 68.1658 92.5581 68.6942V72.8618H91.0154V68.9328C91.0154 68.4925 90.9018 68.1502 90.6745 67.9059C90.4501 67.6587 90.1348 67.5351 89.7285 67.5351C89.4558 67.5351 89.2115 67.5948 88.9956 67.7141C88.7825 67.8306 88.6149 67.9996 88.4927 68.2212C88.3734 68.4428 88.3137 68.7112 88.3137 69.0266ZM97.0282 72.9897C96.372 72.9897 95.8052 72.8533 95.3279 72.5806C94.8535 72.305 94.4885 71.9158 94.2328 71.413C93.9771 70.9073 93.8493 70.3121 93.8493 69.6274C93.8493 68.9541 93.9771 68.3632 94.2328 67.8547C94.4913 67.3434 94.8521 66.9456 95.3152 66.6615C95.7782 66.3746 96.3223 66.2311 96.9473 66.2311C97.3507 66.2311 97.7314 66.2965 98.0893 66.4272C98.4501 66.555 98.7683 66.7539 99.0439 67.0237C99.3223 67.2936 99.541 67.6374 99.7001 68.055C99.8592 68.4698 99.9387 68.9641 99.9387 69.538V70.011H94.5737V68.9712H98.46C98.4572 68.6757 98.3933 68.413 98.2683 68.1828C98.1433 67.9499 97.9686 67.7666 97.7441 67.6331C97.5225 67.4996 97.264 67.4328 96.9686 67.4328C96.6532 67.4328 96.3762 67.5095 96.1376 67.663C95.899 67.8135 95.7129 68.0124 95.5794 68.2595C95.4487 68.5039 95.3819 68.7723 95.3791 69.0649V69.9726C95.3791 70.3533 95.4487 70.68 95.5879 70.9527C95.7271 71.2226 95.9217 71.43 96.1717 71.5749C96.4217 71.7169 96.7143 71.788 97.0495 71.788C97.274 71.788 97.4771 71.7567 97.6589 71.6942C97.8407 71.6289 97.9984 71.5337 98.1319 71.4087C98.2654 71.2837 98.3663 71.1289 98.4345 70.9442L99.8748 71.1061C99.7839 71.4868 99.6106 71.8192 99.3549 72.1033C99.1021 72.3845 98.7782 72.6033 98.3833 72.7595C97.9885 72.913 97.5368 72.9897 97.0282 72.9897ZM101.244 72.8618V66.3164H102.74V67.4073H102.808C102.927 67.0294 103.132 66.7382 103.421 66.5337C103.714 66.3263 104.048 66.2226 104.423 66.2226C104.508 66.2226 104.603 66.2269 104.708 66.2354C104.816 66.2411 104.906 66.251 104.977 66.2652V67.6843C104.911 67.6615 104.808 67.6416 104.666 67.6246C104.526 67.6047 104.392 67.5948 104.261 67.5948C103.98 67.5948 103.727 67.6559 103.502 67.778C103.281 67.8973 103.106 68.0635 102.978 68.2766C102.85 68.4897 102.786 68.7354 102.786 69.0138V72.8618H101.244Z" fill="white"/>
</svg>
