<svg width="134" height="99" viewBox="0 0 134 99" fill="none" xmlns="http://www.w3.org/2000/svg">
<path d="M28.495 57.2173H26.9013C26.8558 56.956 26.772 56.7244 26.6499 56.5227C26.5277 56.3182 26.3757 56.1449 26.1939 56.0028C26.0121 55.8608 25.8047 55.7543 25.5717 55.6832C25.3416 55.6094 25.093 55.5724 24.826 55.5724C24.3516 55.5724 23.9311 55.6918 23.5646 55.9304C23.1982 56.1662 22.9112 56.5128 22.7038 56.9702C22.4964 57.4247 22.3928 57.9801 22.3928 58.6364C22.3928 59.304 22.4964 59.8665 22.7038 60.3239C22.9141 60.7784 23.201 61.1222 23.5646 61.3551C23.9311 61.5852 24.3501 61.7003 24.8217 61.7003C25.0831 61.7003 25.3274 61.6662 25.5547 61.598C25.7848 61.527 25.9908 61.4233 26.1726 61.2869C26.3572 61.1506 26.5121 60.983 26.6371 60.7841C26.7649 60.5852 26.853 60.358 26.9013 60.1023L28.495 60.1108C28.4354 60.5256 28.3061 60.9148 28.1072 61.2784C27.9112 61.642 27.6541 61.9631 27.3359 62.2415C27.0178 62.517 26.6456 62.733 26.2195 62.8892C25.7933 63.0426 25.3203 63.1193 24.8004 63.1193C24.0334 63.1193 23.3487 62.9418 22.7464 62.5866C22.1442 62.2315 21.6697 61.7188 21.3232 61.0483C20.9766 60.3778 20.8033 59.5739 20.8033 58.6364C20.8033 57.696 20.978 56.892 21.3274 56.2244C21.6768 55.554 22.1527 55.0412 22.755 54.6861C23.3572 54.331 24.0391 54.1534 24.8004 54.1534C25.2862 54.1534 25.7379 54.2216 26.1555 54.358C26.5732 54.4943 26.9453 54.6946 27.272 54.9588C27.5987 55.2202 27.8672 55.5412 28.0774 55.9219C28.2905 56.2997 28.4297 56.7315 28.495 57.2173ZM32.7298 63.1278C32.0906 63.1278 31.5366 62.9872 31.0678 62.706C30.5991 62.4247 30.2354 62.0312 29.9769 61.5256C29.7212 61.0199 29.5934 60.429 29.5934 59.7528C29.5934 59.0767 29.7212 58.4844 29.9769 57.9759C30.2354 57.4673 30.5991 57.0724 31.0678 56.7912C31.5366 56.5099 32.0906 56.3693 32.7298 56.3693C33.369 56.3693 33.9229 56.5099 34.3917 56.7912C34.8604 57.0724 35.2227 57.4673 35.4783 57.9759C35.7369 58.4844 35.8661 59.0767 35.8661 59.7528C35.8661 60.429 35.7369 61.0199 35.4783 61.5256C35.2227 62.0312 34.8604 62.4247 34.3917 62.706C33.9229 62.9872 33.369 63.1278 32.7298 63.1278ZM32.7383 61.892C33.0849 61.892 33.3746 61.7969 33.6076 61.6065C33.8406 61.4134 34.0138 61.1548 34.1275 60.831C34.244 60.5071 34.3022 60.1463 34.3022 59.7486C34.3022 59.348 34.244 58.9858 34.1275 58.6619C34.0138 58.3352 33.8406 58.0753 33.6076 57.8821C33.3746 57.6889 33.0849 57.5923 32.7383 57.5923C32.3832 57.5923 32.0877 57.6889 31.8519 57.8821C31.619 58.0753 31.4442 58.3352 31.3278 58.6619C31.2141 58.9858 31.1573 59.348 31.1573 59.7486C31.1573 60.1463 31.2141 60.5071 31.3278 60.831C31.4442 61.1548 31.619 61.4134 31.8519 61.6065C32.0877 61.7969 32.3832 61.892 32.7383 61.892ZM37.1754 63V56.4545H38.6499V57.5668H38.7266C38.8629 57.1918 39.0888 56.8991 39.4041 56.6889C39.7195 56.4759 40.0959 56.3693 40.5334 56.3693C40.9766 56.3693 41.3501 56.4773 41.6541 56.6932C41.9609 56.9062 42.1768 57.1974 42.3018 57.5668H42.37C42.5149 57.2031 42.7592 56.9134 43.103 56.6974C43.4496 56.4787 43.8601 56.3693 44.3345 56.3693C44.9368 56.3693 45.4283 56.5597 45.8089 56.9403C46.1896 57.321 46.38 57.8764 46.38 58.6065V63H44.8331V58.8452C44.8331 58.4389 44.7251 58.142 44.5092 57.9545C44.2933 57.7642 44.0291 57.669 43.7166 57.669C43.3445 57.669 43.0533 57.7855 42.843 58.0185C42.6357 58.2486 42.532 58.5483 42.532 58.9176V63H41.0192V58.7812C41.0192 58.4432 40.9169 58.1733 40.7124 57.9716C40.5107 57.7699 40.2464 57.669 39.9197 57.669C39.6982 57.669 39.4964 57.7259 39.3146 57.8395C39.1328 57.9503 38.9879 58.108 38.88 58.3125C38.772 58.5142 38.718 58.75 38.718 59.0199V63H37.1754ZM47.945 63V56.4545H49.4194V57.5668H49.4961C49.6325 57.1918 49.8583 56.8991 50.1737 56.6889C50.489 56.4759 50.8654 56.3693 51.3029 56.3693C51.7461 56.3693 52.1197 56.4773 52.4237 56.6932C52.7305 56.9062 52.9464 57.1974 53.0714 57.5668H53.1396C53.2844 57.2031 53.5288 56.9134 53.8725 56.6974C54.2191 56.4787 54.6296 56.3693 55.104 56.3693C55.7063 56.3693 56.1978 56.5597 56.5785 56.9403C56.9592 57.321 57.1495 57.8764 57.1495 58.6065V63H55.6026V58.8452C55.6026 58.4389 55.4947 58.142 55.2788 57.9545C55.0629 57.7642 54.7987 57.669 54.4862 57.669C54.114 57.669 53.8228 57.7855 53.6126 58.0185C53.4052 58.2486 53.3015 58.5483 53.3015 58.9176V63H51.7887V58.7812C51.7887 58.4432 51.6864 58.1733 51.4819 57.9716C51.2802 57.7699 51.016 57.669 50.6893 57.669C50.4677 57.669 50.266 57.7259 50.0842 57.8395C49.9023 57.9503 49.7575 58.108 49.6495 58.3125C49.5415 58.5142 49.4876 58.75 49.4876 59.0199V63H47.945ZM61.6122 63.1278C60.956 63.1278 60.3892 62.9915 59.9119 62.7188C59.4375 62.4432 59.0724 62.054 58.8168 61.5511C58.5611 61.0455 58.4332 60.4503 58.4332 59.7656C58.4332 59.0923 58.5611 58.5014 58.8168 57.9929C59.0753 57.4815 59.4361 57.0838 59.8991 56.7997C60.3622 56.5128 60.9062 56.3693 61.5312 56.3693C61.9347 56.3693 62.3153 56.4347 62.6733 56.5653C63.0341 56.6932 63.3523 56.892 63.6278 57.1619C63.9063 57.4318 64.125 57.7756 64.2841 58.1932C64.4432 58.608 64.5227 59.1023 64.5227 59.6761V60.1491H59.1577V59.1094H63.044C63.0412 58.8139 62.9773 58.5511 62.8523 58.321C62.7273 58.0881 62.5526 57.9048 62.3281 57.7713C62.1065 57.6378 61.848 57.571 61.5526 57.571C61.2372 57.571 60.9602 57.6477 60.7216 57.8011C60.483 57.9517 60.2969 58.1506 60.1634 58.3977C60.0327 58.642 59.9659 58.9105 59.9631 59.2031V60.1108C59.9631 60.4915 60.0327 60.8182 60.1719 61.0909C60.3111 61.3608 60.5057 61.5682 60.7557 61.7131C61.0057 61.8551 61.2983 61.9261 61.6335 61.9261C61.858 61.9261 62.0611 61.8949 62.2429 61.8324C62.4247 61.767 62.5824 61.6719 62.7159 61.5469C62.8494 61.4219 62.9503 61.267 63.0185 61.0824L64.4588 61.2443C64.3679 61.625 64.1946 61.9574 63.9389 62.2415C63.6861 62.5227 63.3622 62.7415 62.9673 62.8977C62.5724 63.0511 62.1207 63.1278 61.6122 63.1278ZM65.8278 63V56.4545H67.3235V57.5455H67.3917C67.511 57.1676 67.7156 56.8764 68.0053 56.6719C68.2979 56.4645 68.6317 56.3608 69.0067 56.3608C69.092 56.3608 69.1871 56.3651 69.2923 56.3736C69.4002 56.3793 69.4897 56.3892 69.5607 56.4034V57.8224C69.4954 57.7997 69.3917 57.7798 69.2496 57.7628C69.1104 57.7429 68.9755 57.733 68.8448 57.733C68.5636 57.733 68.3107 57.794 68.0863 57.9162C67.8647 58.0355 67.69 58.2017 67.5621 58.4148C67.4343 58.6278 67.3704 58.8736 67.3704 59.152V63H65.8278ZM73.1712 63.1278C72.5178 63.1278 71.9567 62.9844 71.4879 62.6974C71.022 62.4105 70.6626 62.0142 70.4098 61.5085C70.1598 61 70.0348 60.4148 70.0348 59.7528C70.0348 59.0881 70.1626 58.5014 70.4183 57.9929C70.674 57.4815 71.0348 57.0838 71.5007 56.7997C71.9695 56.5128 72.5234 56.3693 73.1626 56.3693C73.6939 56.3693 74.1641 56.4673 74.5732 56.6634C74.9851 56.8565 75.3132 57.1307 75.5575 57.4858C75.8018 57.8381 75.9411 58.25 75.9751 58.7216H74.5007C74.4411 58.4062 74.299 58.1435 74.0746 57.9332C73.853 57.7202 73.5561 57.6136 73.1839 57.6136C72.8686 57.6136 72.5916 57.6989 72.353 57.8693C72.1143 58.0369 71.9283 58.2784 71.7947 58.5938C71.6641 58.9091 71.5987 59.2869 71.5987 59.7273C71.5987 60.1733 71.6641 60.5568 71.7947 60.8778C71.9254 61.196 72.1087 61.4418 72.3445 61.6151C72.5831 61.7855 72.8629 61.8707 73.1839 61.8707C73.4112 61.8707 73.6143 61.8281 73.7933 61.7429C73.9751 61.6548 74.1271 61.5284 74.2493 61.3636C74.3714 61.1989 74.4553 60.9986 74.5007 60.7628H75.9751C75.9382 61.2259 75.8018 61.6364 75.5661 61.9943C75.3303 62.3494 75.0092 62.6278 74.603 62.8295C74.1967 63.0284 73.7195 63.1278 73.1712 63.1278ZM77.2418 63V56.4545H78.7844V63H77.2418ZM78.0174 55.5256C77.7731 55.5256 77.5629 55.4446 77.3867 55.2827C77.2106 55.1179 77.1225 54.9205 77.1225 54.6903C77.1225 54.4574 77.2106 54.2599 77.3867 54.098C77.5629 53.9332 77.7731 53.8509 78.0174 53.8509C78.2646 53.8509 78.4748 53.9332 78.6481 54.098C78.8242 54.2599 78.9123 54.4574 78.9123 54.6903C78.9123 54.9205 78.8242 55.1179 78.6481 55.2827C78.4748 55.4446 78.2646 55.5256 78.0174 55.5256ZM82.2543 63.1321C81.8395 63.1321 81.4659 63.0582 81.1335 62.9105C80.804 62.7599 80.5426 62.5384 80.3494 62.2457C80.1591 61.9531 80.0639 61.5923 80.0639 61.1634C80.0639 60.794 80.1321 60.4886 80.2685 60.2472C80.4048 60.0057 80.5909 59.8125 80.8267 59.6676C81.0625 59.5227 81.3281 59.4134 81.6236 59.3395C81.9219 59.2628 82.2301 59.2074 82.5483 59.1733C82.9318 59.1335 83.2429 59.098 83.4815 59.0668C83.7202 59.0327 83.8935 58.9815 84.0014 58.9134C84.1122 58.8423 84.1676 58.733 84.1676 58.5852V58.5597C84.1676 58.2386 84.0724 57.9901 83.8821 57.8139C83.6918 57.6378 83.4176 57.5497 83.0597 57.5497C82.6818 57.5497 82.3821 57.6321 82.1605 57.7969C81.9418 57.9616 81.794 58.1562 81.7173 58.3807L80.277 58.1761C80.3906 57.7784 80.5781 57.446 80.8395 57.179C81.1009 56.9091 81.4205 56.7074 81.7983 56.5739C82.1761 56.4375 82.5938 56.3693 83.0511 56.3693C83.3665 56.3693 83.6804 56.4062 83.9929 56.4801C84.3054 56.554 84.5909 56.6761 84.8494 56.8466C85.108 57.0142 85.3153 57.2429 85.4716 57.5327C85.6307 57.8224 85.7102 58.1847 85.7102 58.6193V63H84.2273V62.1009H84.1761C84.0824 62.2827 83.9503 62.4531 83.7798 62.6122C83.6122 62.7685 83.4006 62.8949 83.1449 62.9915C82.892 63.0852 82.5952 63.1321 82.2543 63.1321ZM82.6548 61.9986C82.9645 61.9986 83.233 61.9375 83.4602 61.8153C83.6875 61.6903 83.8622 61.5256 83.9844 61.321C84.1094 61.1165 84.1719 60.8935 84.1719 60.652V59.8807C84.1236 59.9205 84.0412 59.9574 83.9247 59.9915C83.8111 60.0256 83.6832 60.0554 83.5412 60.081C83.3991 60.1065 83.2585 60.1293 83.1193 60.1491C82.9801 60.169 82.8594 60.1861 82.7571 60.2003C82.527 60.2315 82.321 60.2827 82.1392 60.3537C81.9574 60.4247 81.8139 60.5241 81.7088 60.652C81.6037 60.777 81.5511 60.9389 81.5511 61.1378C81.5511 61.4219 81.6548 61.6364 81.8622 61.7812C82.0696 61.9261 82.3338 61.9986 82.6548 61.9986ZM88.804 54.2727V63H87.2614V54.2727H88.804ZM99.2816 57.0597C99.2106 56.8295 99.1126 56.6236 98.9876 56.4418C98.8654 56.2571 98.7177 56.0994 98.5444 55.9688C98.3739 55.8381 98.1779 55.7401 97.9563 55.6747C97.7347 55.6065 97.4933 55.5724 97.2319 55.5724C96.7631 55.5724 96.3455 55.6903 95.979 55.9261C95.6126 56.1619 95.3242 56.5085 95.114 56.9659C94.9066 57.4205 94.8029 57.9744 94.8029 58.6278C94.8029 59.2869 94.9066 59.8452 95.114 60.3026C95.3214 60.7599 95.6097 61.108 95.979 61.3466C96.3484 61.5824 96.7773 61.7003 97.266 61.7003C97.7092 61.7003 98.0927 61.6151 98.4165 61.4446C98.7433 61.2741 98.9947 61.0327 99.1708 60.7202C99.3469 60.4048 99.435 60.0355 99.435 59.6122L99.793 59.6676H97.4237V58.4318H100.965V59.4801C100.965 60.2273 100.806 60.8736 100.488 61.419C100.169 61.9645 99.7319 62.3849 99.1751 62.6804C98.6183 62.973 97.979 63.1193 97.2575 63.1193C96.4535 63.1193 95.7475 62.9389 95.1396 62.5781C94.5344 62.2145 94.0614 61.6989 93.7205 61.0312C93.3825 60.3608 93.2134 59.5653 93.2134 58.6449C93.2134 57.9403 93.3129 57.3111 93.5117 56.7571C93.7134 56.2031 93.9947 55.733 94.3555 55.3466C94.7163 54.9574 95.1396 54.6619 95.6254 54.4602C96.1112 54.2557 96.6396 54.1534 97.2106 54.1534C97.6935 54.1534 98.1438 54.2244 98.5614 54.3665C98.979 54.5057 99.3498 54.7045 99.6737 54.9631C100 55.2216 100.269 55.5284 100.479 55.8835C100.689 56.2386 100.827 56.6307 100.892 57.0597H99.2816ZM102.425 63V56.4545H103.921V57.5455H103.989C104.109 57.1676 104.313 56.8764 104.603 56.6719C104.896 56.4645 105.229 56.3608 105.604 56.3608C105.69 56.3608 105.785 56.3651 105.89 56.3736C105.998 56.3793 106.087 56.3892 106.158 56.4034V57.8224C106.093 57.7997 105.989 57.7798 105.847 57.7628C105.708 57.7429 105.573 57.733 105.442 57.733C105.161 57.733 104.908 57.794 104.684 57.9162C104.462 58.0355 104.288 58.2017 104.16 58.4148C104.032 58.6278 103.968 58.8736 103.968 59.152V63H102.425ZM108.95 63.1321C108.535 63.1321 108.161 63.0582 107.829 62.9105C107.499 62.7599 107.238 62.5384 107.045 62.2457C106.854 61.9531 106.759 61.5923 106.759 61.1634C106.759 60.794 106.827 60.4886 106.964 60.2472C107.1 60.0057 107.286 59.8125 107.522 59.6676C107.758 59.5227 108.023 59.4134 108.319 59.3395C108.617 59.2628 108.925 59.2074 109.244 59.1733C109.627 59.1335 109.938 59.098 110.177 59.0668C110.415 59.0327 110.589 58.9815 110.697 58.9134C110.808 58.8423 110.863 58.733 110.863 58.5852V58.5597C110.863 58.2386 110.768 57.9901 110.577 57.8139C110.387 57.6378 110.113 57.5497 109.755 57.5497C109.377 57.5497 109.077 57.6321 108.856 57.7969C108.637 57.9616 108.489 58.1562 108.413 58.3807L106.972 58.1761C107.086 57.7784 107.273 57.446 107.535 57.179C107.796 56.9091 108.116 56.7074 108.494 56.5739C108.871 56.4375 109.289 56.3693 109.746 56.3693C110.062 56.3693 110.376 56.4062 110.688 56.4801C111.001 56.554 111.286 56.6761 111.545 56.8466C111.803 57.0142 112.011 57.2429 112.167 57.5327C112.326 57.8224 112.406 58.1847 112.406 58.6193V63H110.923V62.1009H110.871C110.778 62.2827 110.646 62.4531 110.475 62.6122C110.308 62.7685 110.096 62.8949 109.84 62.9915C109.587 63.0852 109.29 63.1321 108.95 63.1321ZM109.35 61.9986C109.66 61.9986 109.928 61.9375 110.156 61.8153C110.383 61.6903 110.558 61.5256 110.68 61.321C110.805 61.1165 110.867 60.8935 110.867 60.652V59.8807C110.819 59.9205 110.737 59.9574 110.62 59.9915C110.506 60.0256 110.379 60.0554 110.237 60.081C110.094 60.1065 109.954 60.1293 109.815 60.1491C109.675 60.169 109.555 60.1861 109.452 60.2003C109.222 60.2315 109.016 60.2827 108.835 60.3537C108.653 60.4247 108.509 60.5241 108.404 60.652C108.299 60.777 108.246 60.9389 108.246 61.1378C108.246 61.4219 108.35 61.6364 108.558 61.7812C108.765 61.9261 109.029 61.9986 109.35 61.9986ZM116.386 63.1151C115.871 63.1151 115.411 62.983 115.005 62.7188C114.599 62.4545 114.278 62.071 114.042 61.5682C113.806 61.0653 113.688 60.4545 113.688 59.7358C113.688 59.0085 113.808 58.3949 114.046 57.8949C114.288 57.392 114.613 57.0128 115.022 56.7571C115.431 56.4986 115.887 56.3693 116.39 56.3693C116.773 56.3693 117.089 56.4347 117.336 56.5653C117.583 56.6932 117.779 56.848 117.924 57.0298C118.069 57.2088 118.181 57.3778 118.261 57.5369H118.325V54.2727H119.871V63H118.354V61.9688H118.261C118.181 62.1278 118.066 62.2969 117.915 62.4759C117.765 62.652 117.566 62.8026 117.319 62.9276C117.072 63.0526 116.761 63.1151 116.386 63.1151ZM116.816 61.8494C117.143 61.8494 117.421 61.7614 117.651 61.5852C117.881 61.4062 118.056 61.1577 118.175 60.8395C118.295 60.5213 118.354 60.1506 118.354 59.7273C118.354 59.304 118.295 58.9361 118.175 58.6236C118.059 58.3111 117.886 58.0682 117.656 57.8949C117.428 57.7216 117.148 57.6349 116.816 57.6349C116.472 57.6349 116.185 57.7244 115.955 57.9034C115.725 58.0824 115.552 58.3295 115.435 58.6449C115.319 58.9602 115.261 59.321 115.261 59.7273C115.261 60.1364 115.319 60.5014 115.435 60.8224C115.555 61.1406 115.729 61.392 115.96 61.5767C116.192 61.7585 116.478 61.8494 116.816 61.8494ZM124.413 63.1278C123.757 63.1278 123.19 62.9915 122.713 62.7188C122.238 62.4432 121.873 62.054 121.618 61.5511C121.362 61.0455 121.234 60.4503 121.234 59.7656C121.234 59.0923 121.362 58.5014 121.618 57.9929C121.876 57.4815 122.237 57.0838 122.7 56.7997C123.163 56.5128 123.707 56.3693 124.332 56.3693C124.735 56.3693 125.116 56.4347 125.474 56.5653C125.835 56.6932 126.153 56.892 126.429 57.1619C126.707 57.4318 126.926 57.7756 127.085 58.1932C127.244 58.608 127.324 59.1023 127.324 59.6761V60.1491H121.958V59.1094H125.845C125.842 58.8139 125.778 58.5511 125.653 58.321C125.528 58.0881 125.353 57.9048 125.129 57.7713C124.907 57.6378 124.649 57.571 124.353 57.571C124.038 57.571 123.761 57.6477 123.522 57.8011C123.284 57.9517 123.098 58.1506 122.964 58.3977C122.833 58.642 122.767 58.9105 122.764 59.2031V60.1108C122.764 60.4915 122.833 60.8182 122.973 61.0909C123.112 61.3608 123.306 61.5682 123.556 61.7131C123.806 61.8551 124.099 61.9261 124.434 61.9261C124.659 61.9261 124.862 61.8949 125.044 61.8324C125.225 61.767 125.383 61.6719 125.517 61.5469C125.65 61.4219 125.751 61.267 125.819 61.0824L127.26 61.2443C127.169 61.625 126.995 61.9574 126.74 62.2415C126.487 62.5227 126.163 62.7415 125.768 62.8977C125.373 63.0511 124.922 63.1278 124.413 63.1278ZM44.6664 73.6364C44.6664 72.571 44.807 71.5923 45.0882 70.7003C45.3723 69.8054 45.7942 68.9787 46.3539 68.2202H47.807C47.5911 68.5014 47.3894 68.8466 47.2019 69.2557C47.0144 69.6619 46.851 70.108 46.7118 70.5938C46.5755 71.0767 46.4675 71.5781 46.388 72.098C46.3113 72.6179 46.2729 73.1307 46.2729 73.6364C46.2729 74.3097 46.3397 74.9915 46.4732 75.6818C46.6096 76.3722 46.7928 77.0128 47.0229 77.6037C47.2559 78.1918 47.5172 78.6733 47.807 79.0483H46.3539C45.7942 78.2898 45.3723 77.4645 45.0882 76.5724C44.807 75.6776 44.6664 74.6989 44.6664 73.6364ZM49.0737 78V69.2727H50.6547V76.6747H54.4984V78H49.0737ZM55.8024 78V71.4545H57.345V78H55.8024ZM56.5779 70.5256C56.3336 70.5256 56.1234 70.4446 55.9473 70.2827C55.7711 70.1179 55.6831 69.9205 55.6831 69.6903C55.6831 69.4574 55.7711 69.2599 55.9473 69.098C56.1234 68.9332 56.3336 68.8509 56.5779 68.8509C56.8251 68.8509 57.0353 68.9332 57.2086 69.098C57.3848 69.2599 57.4728 69.4574 57.4728 69.6903C57.4728 69.9205 57.3848 70.1179 57.2086 70.2827C57.0353 70.4446 56.8251 70.5256 56.5779 70.5256ZM58.9995 78V69.2727H64.5904V70.598H60.5804V72.9673H64.2069V74.2926H60.5804V78H58.9995ZM68.3798 78.1278C67.7235 78.1278 67.1568 77.9915 66.6795 77.7188C66.2051 77.4432 65.84 77.054 65.5843 76.5511C65.3287 76.0455 65.2008 75.4503 65.2008 74.7656C65.2008 74.0923 65.3287 73.5014 65.5843 72.9929C65.8429 72.4815 66.2037 72.0838 66.6667 71.7997C67.1298 71.5128 67.6738 71.3693 68.2988 71.3693C68.7022 71.3693 69.0829 71.4347 69.4409 71.5653C69.8017 71.6932 70.1199 71.892 70.3954 72.1619C70.6738 72.4318 70.8926 72.7756 71.0517 73.1932C71.2108 73.608 71.2903 74.1023 71.2903 74.6761V75.1491H65.9252V74.1094H69.8116C69.8088 73.8139 69.7449 73.5511 69.6199 73.321C69.4949 73.0881 69.3201 72.9048 69.0957 72.7713C68.8741 72.6378 68.6156 72.571 68.3201 72.571C68.0048 72.571 67.7278 72.6477 67.4892 72.8011C67.2505 72.9517 67.0645 73.1506 66.9309 73.3977C66.8002 73.642 66.7335 73.9105 66.7306 74.2031V75.1108C66.7306 75.4915 66.8002 75.8182 66.9395 76.0909C67.0787 76.3608 67.2733 76.5682 67.5233 76.7131C67.7733 76.8551 68.0659 76.9261 68.4011 76.9261C68.6255 76.9261 68.8287 76.8949 69.0105 76.8324C69.1923 76.767 69.35 76.6719 69.4835 76.5469C69.617 76.4219 69.7179 76.267 69.786 76.0824L71.2264 76.2443C71.1355 76.625 70.9622 76.9574 70.7065 77.2415C70.4537 77.5227 70.1298 77.7415 69.7349 77.8977C69.34 78.0511 68.8883 78.1278 68.3798 78.1278ZM72.6635 78V69.2727H75.9363C76.6067 69.2727 77.1692 69.3977 77.6238 69.6477C78.0811 69.8977 78.4263 70.2415 78.6593 70.679C78.8951 71.1136 79.013 71.608 79.013 72.1619C79.013 72.7216 78.8951 73.2187 78.6593 73.6534C78.4235 74.0881 78.0755 74.4304 77.6152 74.6804C77.155 74.9276 76.5882 75.0511 75.915 75.0511H73.7459V73.7514H75.7019C76.0939 73.7514 76.415 73.6832 76.665 73.5469C76.915 73.4105 77.0996 73.223 77.2189 72.9844C77.3411 72.7457 77.4022 72.4716 77.4022 72.1619C77.4022 71.8523 77.3411 71.5795 77.2189 71.3438C77.0996 71.108 76.9135 70.9247 76.6607 70.794C76.4107 70.6605 76.0882 70.5938 75.6934 70.5938H74.2445V78H72.6635ZM88.1845 73.6364C88.1845 74.5767 88.0083 75.3821 87.6561 76.0526C87.3066 76.7202 86.8294 77.2315 86.2243 77.5866C85.622 77.9418 84.9387 78.1193 84.1745 78.1193C83.4103 78.1193 82.7257 77.9418 82.1206 77.5866C81.5183 77.2287 81.041 76.7159 80.6887 76.0483C80.3393 75.3778 80.1646 74.5739 80.1646 73.6364C80.1646 72.696 80.3393 71.892 80.6887 71.2244C81.041 70.554 81.5183 70.0412 82.1206 69.6861C82.7257 69.331 83.4103 69.1534 84.1745 69.1534C84.9387 69.1534 85.622 69.331 86.2243 69.6861C86.8294 70.0412 87.3066 70.554 87.6561 71.2244C88.0083 71.892 88.1845 72.696 88.1845 73.6364ZM86.595 73.6364C86.595 72.9744 86.4913 72.4162 86.2839 71.9616C86.0794 71.5043 85.7953 71.1591 85.4316 70.9261C85.068 70.6903 84.649 70.5724 84.1745 70.5724C83.7001 70.5724 83.2811 70.6903 82.9174 70.9261C82.5538 71.1591 82.2683 71.5043 82.0609 71.9616C81.8564 72.4162 81.7541 72.9744 81.7541 73.6364C81.7541 74.2983 81.8564 74.858 82.0609 75.3153C82.2683 75.7699 82.5538 76.1151 82.9174 76.3509C83.2811 76.5838 83.7001 76.7003 84.1745 76.7003C84.649 76.7003 85.068 76.5838 85.4316 76.3509C85.7953 76.1151 86.0794 75.7699 86.2839 75.3153C86.4913 74.858 86.595 74.2983 86.595 73.6364ZM89.4363 76.3807V75.1236L93.1394 69.2727H94.1877V71.0625H93.5485L91.0556 75.0128V75.081H96.2246V76.3807H89.4363ZM93.5996 78V75.9972L93.6167 75.4347V69.2727H95.1081V78H93.5996ZM100.356 73.6364C100.356 74.6989 100.214 75.6776 99.9299 76.5724C99.6486 77.4645 99.2282 78.2898 98.6685 79.0483H97.2154C97.4341 78.767 97.6358 78.4233 97.8205 78.017C98.008 77.6108 98.1699 77.1648 98.3063 76.679C98.4455 76.1932 98.5534 75.6903 98.6301 75.1705C98.7097 74.6506 98.7495 74.1392 98.7495 73.6364C98.7495 72.9631 98.6813 72.2812 98.5449 71.5909C98.4114 70.9006 98.2282 70.2599 97.9952 69.669C97.7651 69.0781 97.5051 68.5952 97.2154 68.2202H98.6685C99.2282 68.9787 99.6486 69.8054 99.9299 70.7003C100.214 71.5923 100.356 72.571 100.356 73.6364ZM48.5991 93V84.2727H51.94C52.5707 84.2727 53.0948 84.3722 53.5124 84.571C53.9329 84.767 54.2468 85.0355 54.4542 85.3764C54.6644 85.7173 54.7695 86.1037 54.7695 86.5355C54.7695 86.8906 54.7013 87.1946 54.565 87.4474C54.4286 87.6974 54.2454 87.9006 54.0153 88.0568C53.7852 88.2131 53.5281 88.3253 53.244 88.3935V88.4787C53.5536 88.4957 53.8505 88.5909 54.1346 88.7642C54.4215 88.9347 54.6559 89.1761 54.8377 89.4886C55.0195 89.8011 55.1104 90.179 55.1104 90.6222C55.1104 91.0739 55.0011 91.4801 54.7823 91.8409C54.5636 92.1989 54.234 92.4815 53.7937 92.6889C53.3533 92.8963 52.7994 93 52.1317 93H48.5991ZM50.18 91.679H51.8803C52.4542 91.679 52.8675 91.5696 53.1204 91.3509C53.3761 91.1293 53.5039 90.8452 53.5039 90.4986C53.5039 90.2401 53.44 90.0071 53.3121 89.7997C53.1843 89.5895 53.0025 89.4247 52.7667 89.3054C52.5309 89.1832 52.2496 89.1222 51.9229 89.1222H50.18V91.679ZM50.18 87.9844H51.744C52.0167 87.9844 52.2624 87.9347 52.4812 87.8352C52.6999 87.733 52.8718 87.5895 52.9968 87.4048C53.1246 87.2173 53.1886 86.9957 53.1886 86.7401C53.1886 86.402 53.0692 86.1236 52.8306 85.9048C52.5948 85.6861 52.244 85.5767 51.7781 85.5767H50.18V87.9844ZM58.3011 93.1321C57.8864 93.1321 57.5128 93.0582 57.1804 92.9105C56.8509 92.7599 56.5895 92.5384 56.3963 92.2457C56.206 91.9531 56.1108 91.5923 56.1108 91.1634C56.1108 90.794 56.179 90.4886 56.3153 90.2472C56.4517 90.0057 56.6378 89.8125 56.8736 89.6676C57.1094 89.5227 57.375 89.4134 57.6705 89.3395C57.9688 89.2628 58.277 89.2074 58.5952 89.1733C58.9787 89.1335 59.2898 89.098 59.5284 89.0668C59.767 89.0327 59.9403 88.9815 60.0483 88.9134C60.1591 88.8423 60.2145 88.733 60.2145 88.5852V88.5597C60.2145 88.2386 60.1193 87.9901 59.929 87.8139C59.7386 87.6378 59.4645 87.5497 59.1065 87.5497C58.7287 87.5497 58.429 87.6321 58.2074 87.7969C57.9886 87.9616 57.8409 88.1562 57.7642 88.3807L56.3239 88.1761C56.4375 87.7784 56.625 87.446 56.8864 87.179C57.1477 86.9091 57.4673 86.7074 57.8452 86.5739C58.223 86.4375 58.6406 86.3693 59.098 86.3693C59.4134 86.3693 59.7273 86.4062 60.0398 86.4801C60.3523 86.554 60.6378 86.6761 60.8963 86.8466C61.1548 87.0142 61.3622 87.2429 61.5185 87.5327C61.6776 87.8224 61.7571 88.1847 61.7571 88.6193V93H60.2741V92.1009H60.223C60.1293 92.2827 59.9972 92.4531 59.8267 92.6122C59.6591 92.7685 59.4474 92.8949 59.1918 92.9915C58.9389 93.0852 58.642 93.1321 58.3011 93.1321ZM58.7017 91.9986C59.0114 91.9986 59.2798 91.9375 59.5071 91.8153C59.7344 91.6903 59.9091 91.5256 60.0312 91.321C60.1562 91.1165 60.2188 90.8935 60.2188 90.652V89.8807C60.1705 89.9205 60.0881 89.9574 59.9716 89.9915C59.858 90.0256 59.7301 90.0554 59.5881 90.081C59.446 90.1065 59.3054 90.1293 59.1662 90.1491C59.027 90.169 58.9063 90.1861 58.804 90.2003C58.5739 90.2315 58.3679 90.2827 58.1861 90.3537C58.0043 90.4247 57.8608 90.5241 57.7557 90.652C57.6506 90.777 57.598 90.9389 57.598 91.1378C57.598 91.4219 57.7017 91.6364 57.9091 91.7812C58.1165 91.9261 58.3807 91.9986 58.7017 91.9986ZM66.5767 86.4545V87.6477H62.8139V86.4545H66.5767ZM63.7429 84.8864H65.2855V91.0312C65.2855 91.2386 65.3168 91.3977 65.3793 91.5085C65.4446 91.6165 65.5298 91.6903 65.6349 91.7301C65.7401 91.7699 65.8565 91.7898 65.9844 91.7898C66.081 91.7898 66.169 91.7827 66.2486 91.7685C66.331 91.7543 66.3935 91.7415 66.4361 91.7301L66.696 92.9361C66.6136 92.9645 66.4957 92.9957 66.3423 93.0298C66.1918 93.0639 66.0071 93.0838 65.7884 93.0895C65.402 93.1009 65.054 93.0426 64.7443 92.9148C64.4347 92.7841 64.1889 92.5824 64.0071 92.3097C63.8281 92.0369 63.7401 91.696 63.7429 91.2869V84.8864ZM71.1353 86.4545V87.6477H67.3725V86.4545H71.1353ZM68.3015 84.8864H69.8441V91.0312C69.8441 91.2386 69.8754 91.3977 69.9379 91.5085C70.0032 91.6165 70.0884 91.6903 70.1935 91.7301C70.2987 91.7699 70.4151 91.7898 70.543 91.7898C70.6396 91.7898 70.7276 91.7827 70.8072 91.7685C70.8896 91.7543 70.9521 91.7415 70.9947 91.7301L71.2546 92.9361C71.1722 92.9645 71.0543 92.9957 70.9009 93.0298C70.7504 93.0639 70.5657 93.0838 70.3469 93.0895C69.9606 93.1009 69.6126 93.0426 69.3029 92.9148C68.9933 92.7841 68.7475 92.5824 68.5657 92.3097C68.3867 92.0369 68.2987 91.696 68.3015 91.2869V84.8864ZM75.2528 93.1278C74.5966 93.1278 74.0298 92.9915 73.5526 92.7188C73.0781 92.4432 72.7131 92.054 72.4574 91.5511C72.2017 91.0455 72.0739 90.4503 72.0739 89.7656C72.0739 89.0923 72.2017 88.5014 72.4574 87.9929C72.7159 87.4815 73.0767 87.0838 73.5398 86.7997C74.0028 86.5128 74.5469 86.3693 75.1719 86.3693C75.5753 86.3693 75.956 86.4347 76.3139 86.5653C76.6747 86.6932 76.9929 86.892 77.2685 87.1619C77.5469 87.4318 77.7656 87.7756 77.9247 88.1932C78.0838 88.608 78.1634 89.1023 78.1634 89.6761V90.1491H72.7983V89.1094H76.6847C76.6818 88.8139 76.6179 88.5511 76.4929 88.321C76.3679 88.0881 76.1932 87.9048 75.9688 87.7713C75.7472 87.6378 75.4886 87.571 75.1932 87.571C74.8778 87.571 74.6009 87.6477 74.3622 87.8011C74.1236 87.9517 73.9375 88.1506 73.804 88.3977C73.6733 88.642 73.6065 88.9105 73.6037 89.2031V90.1108C73.6037 90.4915 73.6733 90.8182 73.8125 91.0909C73.9517 91.3608 74.1463 91.5682 74.3963 91.7131C74.6463 91.8551 74.9389 91.9261 75.2741 91.9261C75.4986 91.9261 75.7017 91.8949 75.8835 91.8324C76.0653 91.767 76.223 91.6719 76.3565 91.5469C76.4901 91.4219 76.5909 91.267 76.6591 91.0824L78.0994 91.2443C78.0085 91.625 77.8352 91.9574 77.5795 92.2415C77.3267 92.5227 77.0028 92.7415 76.608 92.8977C76.2131 93.0511 75.7614 93.1278 75.2528 93.1278ZM79.4684 93V86.4545H80.9641V87.5455H81.0323C81.1516 87.1676 81.3562 86.8764 81.646 86.6719C81.9386 86.4645 82.2724 86.3608 82.6474 86.3608C82.7326 86.3608 82.8278 86.3651 82.9329 86.3736C83.0408 86.3793 83.1303 86.3892 83.2013 86.4034V87.8224C83.136 87.7997 83.0323 87.7798 82.8903 87.7628C82.7511 87.7429 82.6161 87.733 82.4854 87.733C82.2042 87.733 81.9513 87.794 81.7269 87.9162C81.5053 88.0355 81.3306 88.2017 81.2028 88.4148C81.0749 88.6278 81.011 88.8736 81.011 89.152V93H79.4684ZM84.2262 93V86.4545H85.7688V93H84.2262ZM85.0018 85.5256C84.7575 85.5256 84.5472 85.4446 84.3711 85.2827C84.195 85.1179 84.1069 84.9205 84.1069 84.6903C84.1069 84.4574 84.195 84.2599 84.3711 84.098C84.5472 83.9332 84.7575 83.8509 85.0018 83.8509C85.2489 83.8509 85.4592 83.9332 85.6325 84.098C85.8086 84.2599 85.8967 84.4574 85.8967 84.6903C85.8967 84.9205 85.8086 85.1179 85.6325 85.2827C85.4592 85.4446 85.2489 85.5256 85.0018 85.5256ZM90.2528 93.1278C89.5966 93.1278 89.0298 92.9915 88.5526 92.7188C88.0781 92.4432 87.7131 92.054 87.4574 91.5511C87.2017 91.0455 87.0739 90.4503 87.0739 89.7656C87.0739 89.0923 87.2017 88.5014 87.4574 87.9929C87.7159 87.4815 88.0767 87.0838 88.5398 86.7997C89.0028 86.5128 89.5469 86.3693 90.1719 86.3693C90.5753 86.3693 90.956 86.4347 91.3139 86.5653C91.6747 86.6932 91.9929 86.892 92.2685 87.1619C92.5469 87.4318 92.7656 87.7756 92.9247 88.1932C93.0838 88.608 93.1634 89.1023 93.1634 89.6761V90.1491H87.7983V89.1094H91.6847C91.6818 88.8139 91.6179 88.5511 91.4929 88.321C91.3679 88.0881 91.1932 87.9048 90.9688 87.7713C90.7472 87.6378 90.4886 87.571 90.1932 87.571C89.8778 87.571 89.6009 87.6477 89.3622 87.8011C89.1236 87.9517 88.9375 88.1506 88.804 88.3977C88.6733 88.642 88.6065 88.9105 88.6037 89.2031V90.1108C88.6037 90.4915 88.6733 90.8182 88.8125 91.0909C88.9517 91.3608 89.1463 91.5682 89.3963 91.7131C89.6463 91.8551 89.9389 91.9261 90.2741 91.9261C90.4986 91.9261 90.7017 91.8949 90.8835 91.8324C91.0653 91.767 91.223 91.6719 91.3565 91.5469C91.4901 91.4219 91.5909 91.267 91.6591 91.0824L93.0994 91.2443C93.0085 91.625 92.8352 91.9574 92.5795 92.2415C92.3267 92.5227 92.0028 92.7415 91.608 92.8977C91.2131 93.0511 90.7614 93.1278 90.2528 93.1278ZM99.6417 88.1847L98.2354 88.3381C98.1957 88.196 98.1261 88.0625 98.0266 87.9375C97.93 87.8125 97.7994 87.7116 97.6346 87.6349C97.4698 87.5582 97.2681 87.5199 97.0295 87.5199C96.7085 87.5199 96.4386 87.5895 96.2198 87.7287C96.0039 87.8679 95.8974 88.0483 95.9002 88.2699C95.8974 88.4602 95.967 88.6151 96.109 88.7344C96.2539 88.8537 96.4925 88.9517 96.8249 89.0284L97.9414 89.267C98.5607 89.4006 99.021 89.6122 99.3221 89.902C99.6261 90.1918 99.7795 90.571 99.7823 91.0398C99.7795 91.4517 99.6587 91.8153 99.4201 92.1307C99.1843 92.4432 98.8562 92.6875 98.4357 92.8636C98.0153 93.0398 97.5323 93.1278 96.9869 93.1278C96.1857 93.1278 95.5408 92.9602 95.0522 92.625C94.5636 92.2869 94.2724 91.8168 94.1786 91.2145L95.6829 91.0696C95.7511 91.3651 95.896 91.5881 96.1175 91.7386C96.3391 91.8892 96.6275 91.9645 96.9826 91.9645C97.3491 91.9645 97.6431 91.8892 97.8647 91.7386C98.0891 91.5881 98.2013 91.402 98.2013 91.1804C98.2013 90.9929 98.1289 90.8381 97.984 90.7159C97.842 90.5937 97.6204 90.5 97.3192 90.4347L96.2028 90.2003C95.5749 90.0696 95.1104 89.8494 94.8093 89.5398C94.5082 89.2273 94.359 88.8324 94.3619 88.3551C94.359 87.9517 94.4684 87.6023 94.69 87.3068C94.9144 87.0085 95.2255 86.7784 95.6232 86.6165C96.0238 86.4517 96.4854 86.3693 97.0082 86.3693C97.7752 86.3693 98.3789 86.5327 98.8192 86.8594C99.2624 87.1861 99.5366 87.6278 99.6417 88.1847Z" fill="white"/>
<path d="M25.9127 22.2552C25.6807 22.1413 25.4213 22.1097 25.1717 22.1647C24.922 22.2198 24.6948 22.3588 24.5224 22.5619L16.7983 30.9267C16.6608 31.0634 16.5545 31.2327 16.4875 31.4213C16.4205 31.61 16.3947 31.8128 16.4121 32.0141V48.7435C16.4121 49.1133 16.5477 49.4679 16.7891 49.7293C17.0306 49.9908 17.358 50.1377 17.6994 50.1377H25.4235C25.765 50.1377 26.0924 49.9908 26.3338 49.7293C26.5753 49.4679 26.7109 49.1133 26.7109 48.7435V23.6493C26.731 23.3554 26.6646 23.0622 26.5212 22.8117C26.3778 22.5612 26.1648 22.3664 25.9127 22.2552V22.2552ZM24.1362 47.3494H18.9868V32.5996L24.1362 27.0231V47.3494ZM9.66636 39.2077C9.35683 39.0649 9.02443 38.9891 8.68798 38.9847C8.34913 38.9826 8.01323 39.0529 7.69953 39.1917C7.38584 39.3304 7.10052 39.5349 6.85994 39.7933L1.71053 45.3698C1.35327 45.7619 1.11126 46.2598 1.01504 46.8007C0.918808 47.3415 0.972678 47.9012 1.16985 48.409C1.363 48.9181 1.69101 49.354 2.11254 49.6617C2.53407 49.9693 3.03026 50.1349 3.53857 50.1377H8.68798C9.37083 50.1377 10.0257 49.8439 10.5086 49.321C10.9914 48.7981 11.2627 48.0889 11.2627 47.3494V41.7729C11.2601 41.2225 11.1072 40.6851 10.8231 40.2286C10.539 39.7721 10.1366 39.4169 9.66636 39.2077V39.2077ZM8.68798 47.3494H3.53857L8.68798 41.7729V47.3494ZM41.3609 5.52574C41.1282 5.41603 40.8698 5.38661 40.6211 5.44148C40.3723 5.49636 40.1452 5.63287 39.9706 5.83244L32.2465 14.1972C32.109 14.3339 32.0027 14.5032 31.9357 14.6919C31.8687 14.8805 31.8429 15.0834 31.8603 15.2846V48.7435C31.8603 49.1133 31.9959 49.4679 32.2373 49.7293C32.4788 49.9908 32.8062 50.1377 33.1476 50.1377H40.8717C41.2132 50.1377 41.5406 49.9908 41.782 49.7293C42.0235 49.4679 42.1591 49.1133 42.1591 48.7435V6.91986C42.1792 6.62595 42.1128 6.3327 41.9694 6.08222C41.826 5.83174 41.613 5.63692 41.3609 5.52574V5.52574ZM39.5844 47.3494H34.435V15.8701L39.5844 10.2936V47.3494ZM8.30177 8.73222C8.42492 8.85738 8.52307 9.00855 8.59017 9.1764C8.65727 9.34425 8.69189 9.52521 8.69189 9.7081C8.69189 9.891 8.65727 10.072 8.59017 10.2398C8.52307 10.4077 8.42492 10.5588 8.30177 10.684C8.18619 10.8174 8.0466 10.9236 7.89161 10.9963C7.73662 11.069 7.56952 11.1065 7.40063 11.1065C7.23173 11.1065 7.06463 11.069 6.90964 10.9963C6.75465 10.9236 6.61506 10.8174 6.49948 10.684L6.11327 10.2936V23.6493C6.11327 24.0191 5.97764 24.3737 5.73622 24.6351C5.49479 24.8966 5.16735 25.0435 4.82592 25.0435C4.4845 25.0435 4.15705 24.8966 3.91563 24.6351C3.6742 24.3737 3.53857 24.0191 3.53857 23.6493V10.2936L3.15237 10.684C3.03742 10.8179 2.89786 10.9243 2.74266 10.9964C2.58746 11.0684 2.42006 11.1045 2.25122 11.1022C2.08238 11.1045 1.91498 11.0684 1.75979 10.9964C1.60459 10.9243 1.46503 10.8179 1.35008 10.684C1.22693 10.5588 1.12877 10.4077 1.06168 10.2398C0.994578 10.072 0.959961 9.891 0.959961 9.7081C0.959961 9.52521 0.994578 9.34425 1.06168 9.1764C1.12877 9.00855 1.22693 8.85738 1.35008 8.73222L3.92478 5.94397C4.01858 5.76155 4.16259 5.61536 4.33673 5.52574C4.65015 5.3863 5.0017 5.3863 5.31512 5.52574C5.47578 5.58518 5.61828 5.69128 5.72707 5.83244L8.30177 8.73222ZM18.6006 21.837L16.0259 24.6252C15.9321 24.8076 15.7881 24.9538 15.6139 25.0435C15.4598 25.1172 15.2932 25.1553 15.1247 25.1553C14.9563 25.1553 14.7896 25.1172 14.6355 25.0435C14.4749 24.984 14.3324 24.8779 14.2236 24.7368L11.6489 21.9485C11.4099 21.6897 11.2756 21.3386 11.2756 20.9726C11.2756 20.6066 11.4099 20.2556 11.6489 19.9967C11.8879 19.7379 12.212 19.5925 12.55 19.5925C12.888 19.5925 13.2122 19.7379 13.4512 19.9967L13.8374 20.2756V6.91986C13.8374 6.55011 13.973 6.19551 14.2144 5.93407C14.4559 5.67262 14.7833 5.52574 15.1247 5.52574C15.4662 5.52574 15.7936 5.67262 16.035 5.93407C16.2764 6.19551 16.4121 6.55011 16.4121 6.91986V20.2756L16.7983 19.8852C17.0373 19.6264 17.3614 19.481 17.6994 19.481C18.0374 19.481 18.3616 19.6264 18.6006 19.8852C18.8396 20.144 18.9738 20.4951 18.9738 20.8611C18.9738 21.2271 18.8396 21.5782 18.6006 21.837V21.837Z" fill="white"/>
<path d="M80.5427 25.7288L78.837 23.8817C84.4117 17.8432 84.4104 8.02045 78.8344 1.98481L80.5427 0.137695C87.0579 7.19189 87.0579 18.6746 80.5427 25.7288ZM77.5904 3.33194L75.8848 5.17906C79.8303 9.45472 79.8303 16.4118 75.8848 20.6846L77.5904 22.5345C82.4792 17.2418 82.4792 8.62473 77.5904 3.33194ZM74.5458 6.62761L72.8402 8.47473C75.1117 10.9347 75.1117 14.9332 72.8402 17.3889L74.5471 19.236C77.7566 15.7632 77.7566 10.1061 74.5458 6.62761ZM50.3923 25.7288L52.098 23.8817C46.5233 17.8446 46.5246 8.02188 52.1006 1.98481L50.3923 0.137695C43.8757 7.19189 43.8757 18.6746 50.3923 25.7288ZM53.3419 22.536L55.0489 20.686C51.102 16.4132 51.102 9.45614 55.0489 5.18049L53.3419 3.33194C48.4532 8.62473 48.4532 17.2418 53.3419 22.536ZM56.3865 19.2389L58.0935 17.3889C55.8245 14.9318 55.8245 10.9333 58.0948 8.47759L56.3878 6.63047C53.177 10.1061 53.177 15.7632 56.3865 19.2389ZM59.282 31.8944L65.1905 26.2502L61.3847 22.6145L58.8018 31.4373L59.282 31.8944ZM63.6009 15.0489L65.1905 13.5318L64.2948 12.6747L63.6009 15.0489ZM59.282 33.323L57.8494 34.693L53.3274 50.137H53.5042L65.1905 38.9743L59.282 33.323ZM63.0205 17.0346L61.7132 21.4988L65.9384 25.5359L70.2204 21.446L69.0872 17.2532L65.9384 14.2447L63.0205 17.0346ZM68.5675 15.3261L67.7958 12.469L66.6864 13.5275L68.5675 15.3261ZM65.9384 12.8132L67.4884 11.3347L66.1442 6.3619L64.6232 11.559L65.9384 12.8132ZM65.9384 39.6857L55.0001 50.137H59.0591C59.2583 46.3642 62.1182 43.3686 65.6495 43.3686C69.1809 43.3686 72.0408 46.3685 72.2413 50.137H76.8781L65.9384 39.6857ZM73.7214 34.4001L72.5948 33.323L66.6864 38.97L77.8318 49.6199L73.7214 34.4001ZM66.6864 26.2502L72.5948 31.8944L72.9523 31.5544L70.5264 22.5817L66.6864 26.2502ZM71.8455 32.6087L65.9371 26.9645L60.0287 32.6087L65.9371 38.2558L71.8455 32.6087Z" fill="white"/>
<path d="M132.497 28.1258C133.327 28.1258 134 27.6047 134 26.9619V23.5874C134 22.9446 133.327 22.4235 132.497 22.4235H130.067V19.596C130.067 18.9532 129.393 18.4321 128.563 18.4321H121.338C120.508 18.4321 119.835 18.9532 119.835 19.596V22.4235H104.019V19.596C104.019 18.9532 103.346 18.4321 102.515 18.4321H95.2906C94.4603 18.4321 93.7873 18.9532 93.7873 19.596V22.4235H91.1566C90.3264 22.4235 89.6533 22.9446 89.6533 23.5874V26.9619C89.6533 27.6047 90.3264 28.1258 91.1567 28.1258H94.0881V43.8576C91.5434 44.3524 89.6533 46.138 89.6533 48.2593C89.6533 48.9021 90.3264 49.4232 91.1567 49.4232H132.497C133.327 49.4232 134 48.9021 134 48.2593C134 46.138 132.11 44.3524 129.565 43.8576V28.1258H132.497ZM104.85 31.5004H98.6775C97.8472 31.5004 97.1741 30.9793 97.1741 30.3365C97.1741 29.6937 97.8472 29.1727 98.6775 29.1727H104.85C105.68 29.1727 106.353 29.6937 106.353 30.3365C106.353 30.9793 105.68 31.5004 104.85 31.5004ZM125.094 31.5004H123.511V32.7259C123.511 33.3687 122.838 33.8898 122.008 33.8898C121.178 33.8898 120.505 33.3687 120.505 32.7259V31.5004H118.922C118.091 31.5004 117.418 30.9793 117.418 30.3365C117.418 29.6937 118.091 29.1727 118.922 29.1727H120.505V27.9471C120.505 27.3043 121.178 26.7832 122.008 26.7832C122.838 26.7832 123.511 27.3043 123.511 27.9471V29.1727H125.094C125.925 29.1727 126.598 29.6937 126.598 30.3365C126.598 30.9793 125.924 31.5004 125.094 31.5004Z" fill="white"/>
</svg>
