<svg width="92" height="42" viewBox="0 0 92 42" fill="none" xmlns="http://www.w3.org/2000/svg">
<path d="M15.9469 38.0103L13.4838 29.283H15.1841L16.7565 35.6963H16.8375L18.5165 29.283H20.0633L21.7466 35.7006H21.8233L23.3957 29.283H25.096L22.6329 38.0103H21.0733L19.3261 31.8867H19.2579L17.5065 38.0103H15.9469ZM27.3396 38.1424C26.9248 38.1424 26.5513 38.0685 26.2189 37.9208C25.8893 37.7702 25.628 37.5486 25.4348 37.256C25.2444 36.9634 25.1493 36.6026 25.1493 36.1736C25.1493 35.8043 25.2175 35.4989 25.3538 35.2574C25.4902 35.0159 25.6763 34.8228 25.9121 34.6779C26.1479 34.533 26.4135 34.4236 26.7089 34.3497C27.0072 34.273 27.3155 34.2176 27.6336 34.1835C28.0172 34.1438 28.3283 34.1083 28.5669 34.077C28.8055 34.0429 28.9788 33.9918 29.0868 33.9236C29.1976 33.8526 29.253 33.7432 29.253 33.5955V33.5699C29.253 33.2489 29.1578 33.0003 28.9675 32.8242C28.7771 32.648 28.503 32.56 28.145 32.56C27.7672 32.56 27.4675 32.6424 27.2459 32.8071C27.0271 32.9719 26.8794 33.1665 26.8027 33.3909L25.3623 33.1864C25.476 32.7887 25.6635 32.4563 25.9248 32.1892C26.1862 31.9193 26.5058 31.7176 26.8836 31.5841C27.2615 31.4478 27.6791 31.3796 28.1365 31.3796C28.4518 31.3796 28.7658 31.4165 29.0783 31.4904C29.3908 31.5642 29.6763 31.6864 29.9348 31.8568C30.1933 32.0245 30.4007 32.2532 30.5569 32.5429C30.716 32.8327 30.7956 33.1949 30.7956 33.6296V38.0103H29.3126V37.1111H29.2615C29.1677 37.2929 29.0356 37.4634 28.8652 37.6225C28.6976 37.7787 28.4859 37.9051 28.2302 38.0017C27.9774 38.0955 27.6805 38.1424 27.3396 38.1424ZM27.7402 37.0088C28.0498 37.0088 28.3183 36.9478 28.5456 36.8256C28.7729 36.7006 28.9476 36.5358 29.0697 36.3313C29.1947 36.1267 29.2572 35.9037 29.2572 35.6622V34.8909C29.2089 34.9307 29.1265 34.9676 29.0101 35.0017C28.8964 35.0358 28.7686 35.0657 28.6265 35.0912C28.4845 35.1168 28.3439 35.1395 28.2047 35.1594C28.0655 35.1793 27.9447 35.1963 27.8425 35.2105C27.6123 35.2418 27.4064 35.2929 27.2246 35.3639C27.0427 35.435 26.8993 35.5344 26.7942 35.6622C26.689 35.7872 26.6365 35.9492 26.6365 36.148C26.6365 36.4321 26.7402 36.6466 26.9476 36.7915C27.155 36.9364 27.4192 37.0088 27.7402 37.0088ZM32.3467 38.0103V31.4648H33.8425V32.5557H33.9106C34.03 32.1779 34.2345 31.8867 34.5243 31.6821C34.8169 31.4747 35.1507 31.371 35.5257 31.371C35.6109 31.371 35.7061 31.3753 35.8112 31.3838C35.9192 31.3895 36.0086 31.3995 36.0797 31.4137V32.8327C36.0143 32.81 35.9106 32.7901 35.7686 32.773C35.6294 32.7532 35.4944 32.7432 35.3638 32.7432C35.0825 32.7432 34.8297 32.8043 34.6052 32.9264C34.3836 33.0458 34.2089 33.212 34.0811 33.425C33.9533 33.6381 33.8893 33.8838 33.8893 34.1622V38.0103H32.3467ZM37.1045 38.0103V31.4648H38.6003V32.5557H38.6685C38.7878 32.1779 38.9923 31.8867 39.2821 31.6821C39.5747 31.4747 39.9085 31.371 40.2835 31.371C40.3687 31.371 40.4639 31.3753 40.569 31.3838C40.677 31.3895 40.7665 31.3995 40.8375 31.4137V32.8327C40.7721 32.81 40.6685 32.7901 40.5264 32.773C40.3872 32.7532 40.2523 32.7432 40.1216 32.7432C39.8403 32.7432 39.5875 32.8043 39.3631 32.9264C39.1415 33.0458 38.9667 33.212 38.8389 33.425C38.7111 33.6381 38.6471 33.8838 38.6471 34.1622V38.0103H37.1045ZM43.6287 38.1424C43.2139 38.1424 42.8403 38.0685 42.5079 37.9208C42.1784 37.7702 41.917 37.5486 41.7238 37.256C41.5335 36.9634 41.4383 36.6026 41.4383 36.1736C41.4383 35.8043 41.5065 35.4989 41.6429 35.2574C41.7792 35.0159 41.9653 34.8228 42.2011 34.6779C42.4369 34.533 42.7025 34.4236 42.998 34.3497C43.2963 34.273 43.6045 34.2176 43.9227 34.1835C44.3062 34.1438 44.6173 34.1083 44.856 34.077C45.0946 34.0429 45.2679 33.9918 45.3758 33.9236C45.4866 33.8526 45.542 33.7432 45.542 33.5955V33.5699C45.542 33.2489 45.4469 33.0003 45.2565 32.8242C45.0662 32.648 44.792 32.56 44.4341 32.56C44.0562 32.56 43.7565 32.6424 43.5349 32.8071C43.3162 32.9719 43.1685 33.1665 43.0917 33.3909L41.6514 33.1864C41.765 32.7887 41.9525 32.4563 42.2139 32.1892C42.4753 31.9193 42.7949 31.7176 43.1727 31.5841C43.5506 31.4478 43.9682 31.3796 44.4256 31.3796C44.7409 31.3796 45.0548 31.4165 45.3673 31.4904C45.6798 31.5642 45.9653 31.6864 46.2238 31.8568C46.4824 32.0245 46.6898 32.2532 46.846 32.5429C47.0051 32.8327 47.0846 33.1949 47.0846 33.6296V38.0103H45.6017V37.1111H45.5506C45.4568 37.2929 45.3247 37.4634 45.1542 37.6225C44.9866 37.7787 44.775 37.9051 44.5193 38.0017C44.2665 38.0955 43.9696 38.1424 43.6287 38.1424ZM44.0292 37.0088C44.3389 37.0088 44.6074 36.9478 44.8346 36.8256C45.0619 36.7006 45.2366 36.5358 45.3588 36.3313C45.4838 36.1267 45.5463 35.9037 45.5463 35.6622V34.8909C45.498 34.9307 45.4156 34.9676 45.2991 35.0017C45.1855 35.0358 45.0577 35.0657 44.9156 35.0912C44.7736 35.1168 44.6329 35.1395 44.4937 35.1594C44.3545 35.1793 44.2338 35.1963 44.1315 35.2105C43.9014 35.2418 43.6954 35.2929 43.5136 35.3639C43.3318 35.435 43.1883 35.5344 43.0832 35.6622C42.9781 35.7872 42.9256 35.9492 42.9256 36.148C42.9256 36.4321 43.0292 36.6466 43.2366 36.7915C43.444 36.9364 43.7082 37.0088 44.0292 37.0088ZM50.1784 34.175V38.0103H48.6358V31.4648H50.1102V32.577H50.1869C50.3375 32.2105 50.5775 31.9193 50.9071 31.7034C51.2395 31.4875 51.65 31.3796 52.1386 31.3796C52.5903 31.3796 52.9838 31.4762 53.319 31.6693C53.6571 31.8625 53.9185 32.1424 54.1031 32.5088C54.2906 32.8753 54.3829 33.3199 54.3801 33.8426V38.0103H52.8375V34.0813C52.8375 33.6438 52.7238 33.3014 52.4966 33.0543C52.2721 32.8071 51.9611 32.6835 51.5633 32.6835C51.2935 32.6835 51.0534 32.7432 50.8432 32.8625C50.6358 32.979 50.4724 33.148 50.3531 33.3696C50.2366 33.5912 50.1784 33.8597 50.1784 34.175ZM59.2167 31.4648V32.658H55.454V31.4648H59.2167ZM56.3829 29.8966H57.9256V36.0415C57.9256 36.2489 57.9568 36.408 58.0193 36.5188C58.0846 36.6267 58.1699 36.7006 58.275 36.7404C58.3801 36.7801 58.4966 36.8 58.6244 36.8C58.721 36.8 58.8091 36.7929 58.8886 36.7787C58.971 36.7645 59.0335 36.7517 59.0761 36.7404L59.3361 37.9463C59.2537 37.9747 59.1358 38.006 58.9824 38.0401C58.8318 38.0742 58.6471 38.0941 58.4284 38.0997C58.042 38.1111 57.694 38.0529 57.3844 37.925C57.0747 37.7943 56.829 37.5926 56.6471 37.3199C56.4682 37.0472 56.3801 36.7063 56.3829 36.2972V29.8966ZM61.4657 40.4648C61.2555 40.4648 61.0609 40.4478 60.8819 40.4137C60.7057 40.3824 60.5651 40.3455 60.46 40.3029L60.818 39.1012C61.0424 39.1665 61.2427 39.1978 61.4188 39.1949C61.5949 39.1921 61.7498 39.1367 61.8833 39.0287C62.0197 38.9236 62.1347 38.7475 62.2285 38.5003L62.3606 38.1466L59.987 31.4648H61.6234L63.1319 36.408H63.2001L64.7128 31.4648H66.3535L63.7327 38.8029C63.6106 39.1495 63.4486 39.4463 63.2469 39.6935C63.0452 39.9435 62.7981 40.1338 62.5055 40.2645C62.2157 40.398 61.8691 40.4648 61.4657 40.4648Z" fill="white"/>
<path d="M5.61293 19V17.0966L10.6626 12.1463C11.1456 11.6586 11.5481 11.2254 11.87 10.8466C12.192 10.4678 12.4335 10.1009 12.5945 9.74574C12.7554 9.39062 12.8359 9.01184 12.8359 8.60938C12.8359 8.15009 12.7318 7.7571 12.5234 7.4304C12.3151 7.09896 12.0286 6.84328 11.6641 6.66335C11.2995 6.48343 10.8852 6.39347 10.4212 6.39347C9.94295 6.39347 9.52391 6.4929 9.16406 6.69176C8.80421 6.88589 8.52486 7.16288 8.32599 7.52273C8.13187 7.88258 8.0348 8.31108 8.0348 8.80824H5.5277C5.5277 7.88494 5.7384 7.08239 6.1598 6.40057C6.5812 5.71875 7.16122 5.19081 7.89986 4.81676C8.64323 4.44271 9.4955 4.25568 10.4567 4.25568C11.4321 4.25568 12.2891 4.43797 13.0277 4.80256C13.7663 5.16714 14.3393 5.66667 14.7464 6.30114C15.1584 6.93561 15.3643 7.66004 15.3643 8.47443C15.3643 9.01894 15.2602 9.55398 15.0518 10.0795C14.8435 10.6051 14.4766 11.1875 13.951 11.8267C13.4302 12.4659 12.6986 13.2401 11.7564 14.1491L9.24929 16.6989V16.7983H15.5845V19H5.61293ZM23.4112 19.277C22.2417 19.277 21.2379 18.9811 20.3999 18.3892C19.5665 17.7926 18.925 16.9332 18.4751 15.8111C18.0301 14.6842 17.8075 13.3277 17.8075 11.7415C17.8123 10.1553 18.0372 8.80587 18.4822 7.69318C18.9321 6.57576 19.5736 5.72348 20.407 5.13636C21.245 4.54924 22.2464 4.25568 23.4112 4.25568C24.576 4.25568 25.5774 4.54924 26.4155 5.13636C27.2536 5.72348 27.8951 6.57576 28.3402 7.69318C28.79 8.81061 29.0149 10.16 29.0149 11.7415C29.0149 13.3324 28.79 14.6913 28.3402 15.8182C27.8951 16.9403 27.2536 17.7973 26.4155 18.3892C25.5821 18.9811 24.5807 19.277 23.4112 19.277ZM23.4112 17.054C24.3203 17.054 25.0376 16.6065 25.5632 15.7116C26.0935 14.812 26.3587 13.4886 26.3587 11.7415C26.3587 10.5862 26.2379 9.61553 25.9964 8.82955C25.755 8.04356 25.4141 7.4517 24.9737 7.05398C24.5334 6.65152 24.0125 6.45028 23.4112 6.45028C22.5069 6.45028 21.7919 6.90009 21.2663 7.79972C20.7408 8.6946 20.4756 10.0085 20.4709 11.7415C20.4661 12.9015 20.5821 13.8769 20.8189 14.6676C21.0604 15.4583 21.4013 16.0549 21.8416 16.4574C22.282 16.8551 22.8052 17.054 23.4112 17.054ZM38.0153 10.669V12.7855H31.467V10.669H38.0153ZM44.7997 4.45455H47.7756L51.3338 10.8892H51.4759L55.0341 4.45455H58.0099L52.7188 13.5739V19H50.0909V13.5739L44.7997 4.45455ZM62.5607 19.2131C61.467 19.2131 60.5224 18.9858 59.7269 18.5312C58.9362 18.072 58.3278 17.4233 57.9016 16.5852C57.4755 15.7424 57.2624 14.7505 57.2624 13.6094C57.2624 12.4872 57.4755 11.5024 57.9016 10.6548C58.3325 9.80256 58.9338 9.13968 59.7056 8.66619C60.4774 8.18797 61.3841 7.94886 62.4258 7.94886C63.0981 7.94886 63.7326 8.05777 64.3292 8.27557C64.9305 8.48864 65.4608 8.82008 65.9201 9.26989C66.3841 9.7197 66.7487 10.2926 67.0138 10.9886C67.279 11.6799 67.4116 12.5038 67.4116 13.4602V14.2486H58.4698V12.5156H64.9471C64.9424 12.0232 64.8358 11.5852 64.6275 11.2017C64.4192 10.8134 64.128 10.508 63.7539 10.2855C63.3846 10.063 62.9537 9.9517 62.4613 9.9517C61.9357 9.9517 61.4741 10.0795 61.0763 10.3352C60.6786 10.5862 60.3685 10.9176 60.146 11.3295C59.9281 11.7367 59.8169 12.1842 59.8121 12.6719V14.1847C59.8121 14.8191 59.9281 15.3636 60.1602 15.8182C60.3922 16.268 60.7165 16.6136 61.1332 16.8551C61.5498 17.0919 62.0375 17.2102 62.5962 17.2102C62.9703 17.2102 63.3088 17.1581 63.6119 17.054C63.9149 16.9451 64.1777 16.7865 64.4002 16.5781C64.6228 16.3698 64.7908 16.1117 64.9045 15.804L67.305 16.0739C67.1535 16.7083 66.8647 17.2623 66.4386 17.7358C66.0172 18.2045 65.4774 18.5691 64.8192 18.8295C64.1611 19.0852 63.4083 19.2131 62.5607 19.2131ZM72.7259 19.2202C72.0346 19.2202 71.4119 19.0971 70.858 18.8509C70.3087 18.5999 69.8731 18.2306 69.5511 17.7429C69.2339 17.2552 69.0753 16.6539 69.0753 15.9389C69.0753 15.3234 69.1889 14.8144 69.4162 14.4119C69.6435 14.0095 69.9536 13.6875 70.3466 13.446C70.7396 13.2045 71.1823 13.0223 71.6747 12.8991C72.1719 12.7713 72.6856 12.679 73.2159 12.6222C73.8551 12.5559 74.3736 12.4967 74.7713 12.4446C75.169 12.3878 75.4579 12.3026 75.6378 12.1889C75.8224 12.0705 75.9148 11.8883 75.9148 11.642V11.5994C75.9148 11.0644 75.7562 10.6501 75.4389 10.3565C75.1217 10.063 74.6648 9.91619 74.0682 9.91619C73.4384 9.91619 72.9389 10.0535 72.5696 10.3281C72.205 10.6027 71.9588 10.9271 71.831 11.3011L69.4304 10.9602C69.6198 10.2973 69.9323 9.74337 70.3679 9.2983C70.8035 8.84848 71.3362 8.51231 71.9659 8.28977C72.5956 8.0625 73.2917 7.94886 74.054 7.94886C74.5795 7.94886 75.1027 8.01042 75.6236 8.13352C76.1444 8.25663 76.6203 8.46023 77.0511 8.74432C77.482 9.02367 77.8277 9.40483 78.0881 9.88778C78.3532 10.3707 78.4858 10.9744 78.4858 11.6989V19H76.0142V17.5014H75.929C75.7727 17.8045 75.5526 18.0885 75.2685 18.3537C74.9891 18.6141 74.6364 18.8248 74.2102 18.9858C73.7888 19.142 73.294 19.2202 72.7259 19.2202ZM73.3935 17.331C73.9096 17.331 74.357 17.2292 74.7358 17.0256C75.1146 16.8172 75.4058 16.5426 75.6094 16.2017C75.8177 15.8608 75.9219 15.4891 75.9219 15.0866V13.8011C75.8414 13.8674 75.7041 13.929 75.5099 13.9858C75.3205 14.0426 75.1075 14.0923 74.8707 14.1349C74.634 14.1776 74.3996 14.2154 74.1676 14.2486C73.9356 14.2817 73.7344 14.3101 73.5639 14.3338C73.1804 14.3859 72.8371 14.4711 72.5341 14.5895C72.2311 14.7079 71.992 14.8736 71.8168 15.0866C71.6416 15.295 71.554 15.5649 71.554 15.8963C71.554 16.3698 71.7268 16.7273 72.0724 16.9688C72.4181 17.2102 72.8584 17.331 73.3935 17.331ZM81.071 19V8.09091H83.5639V9.90909H83.6776C83.8764 9.27936 84.2173 8.79403 84.7003 8.45312C85.188 8.10748 85.7443 7.93466 86.3693 7.93466C86.5114 7.93466 86.67 7.94176 86.8452 7.95597C87.0251 7.96544 87.1742 7.98201 87.2926 8.00568V10.3707C87.1837 10.3329 87.0109 10.2997 86.7741 10.2713C86.5421 10.2382 86.3172 10.2216 86.0994 10.2216C85.6307 10.2216 85.2093 10.3234 84.8352 10.527C84.4659 10.7259 84.1747 11.0028 83.9616 11.358C83.7486 11.7131 83.642 12.1226 83.642 12.5866V19H81.071Z" fill="white"/>
</svg>
