<svg width="122" height="69" viewBox="0 0 122 69" fill="none" xmlns="http://www.w3.org/2000/svg">
<path d="M53.355 17.969L56.6332 18.8511L53.5429 23.5523C53.1435 24.1484 53.6719 24.6663 54.2076 24.2366L61.3852 18.4083C61.5192 18.3009 61.605 18.1874 61.6436 18.0407C61.7075 17.7983 61.5897 17.5617 61.346 17.4961L58.0619 16.6125L61.1581 11.9128C61.5516 11.3151 61.029 10.7988 60.4916 11.2349L53.3157 17.0568C53.1801 17.1706 53.0885 17.2825 53.0515 17.4229C52.9859 17.6716 53.1113 17.9034 53.355 17.969Z" fill="white"/>
<path d="M58.2981 10.3367C57.9913 10.3367 57.7867 10.2333 57.5821 10.0266L53.4905 5.89191C53.0813 5.47845 53.0813 4.85824 53.4905 4.44478L57.5821 0.310101C57.9913 -0.103367 58.605 -0.103367 59.0142 0.310101C59.4233 0.723568 59.4233 1.34377 59.0142 1.75724L55.6386 5.16835L59.0142 8.57945C59.4233 8.99292 59.4233 9.61312 59.0142 10.0266C58.8096 10.2333 58.605 10.3367 58.2981 10.3367Z" fill="white"/>
<path d="M57.2749 28.9433C50.5237 28.9433 45 23.3615 45 16.5393C45 13.4383 46.1252 10.4406 48.2733 8.16656C48.6825 7.7531 49.2962 7.7531 49.7054 8.0632C50.1145 8.47666 50.1145 9.09687 49.8077 9.51033C47.9664 11.4743 47.0458 13.9551 47.0458 16.5393C47.0458 22.2245 51.6489 26.876 57.2749 26.876C62.9009 26.876 67.504 22.2245 67.504 16.5393C67.504 10.8541 62.9009 6.20259 57.2749 6.20259H56.252C55.6382 6.20259 55.2291 5.78912 55.2291 5.16892C55.2291 4.54872 55.6382 4.13525 56.252 4.13525H57.2749C64.0261 4.13525 69.5498 9.71707 69.5498 16.5393C69.5498 23.3615 64.0261 28.9433 57.2749 28.9433Z" fill="white"/>
<path d="M3.30806 47.8618V39.1345H4.88903V43.1445H4.99556L8.40039 39.1345H10.3308L6.95579 43.0507L10.3606 47.8618H8.46005L5.85636 44.1203L4.88903 45.2624V47.8618H3.30806ZM13.7782 47.9897C13.122 47.9897 12.5552 47.8533 12.0779 47.5806C11.6035 47.305 11.2385 46.9158 10.9828 46.413C10.7271 45.9073 10.5993 45.3121 10.5993 44.6274C10.5993 43.9541 10.7271 43.3632 10.9828 42.8547C11.2413 42.3434 11.6021 41.9456 12.0652 41.6615C12.5282 41.3746 13.0723 41.2311 13.6973 41.2311C14.1007 41.2311 14.4814 41.2965 14.8393 41.4272C15.2001 41.555 15.5183 41.7539 15.7939 42.0237C16.0723 42.2936 16.291 42.6374 16.4501 43.055C16.6092 43.4698 16.6887 43.9641 16.6887 44.538V45.011H11.3237V43.9712H15.21C15.2072 43.6757 15.1433 43.413 15.0183 43.1828C14.8933 42.9499 14.7186 42.7666 14.4941 42.6331C14.2725 42.4996 14.014 42.4328 13.7186 42.4328C13.4032 42.4328 13.1262 42.5095 12.8876 42.663C12.649 42.8135 12.4629 43.0124 12.3294 43.2595C12.1987 43.5039 12.1319 43.7723 12.1291 44.0649V44.9726C12.1291 45.3533 12.1987 45.68 12.3379 45.9527C12.4771 46.2226 12.6717 46.43 12.9217 46.5749C13.1717 46.7169 13.4643 46.788 13.7995 46.788C14.024 46.788 14.2271 46.7567 14.4089 46.6942C14.5907 46.6289 14.7484 46.5337 14.8819 46.4087C15.0154 46.2837 15.1163 46.1289 15.1845 45.9442L16.6248 46.1061C16.5339 46.4868 16.3606 46.8192 16.1049 47.1033C15.8521 47.3845 15.5282 47.6033 15.1333 47.7595C14.7385 47.913 14.2868 47.9897 13.7782 47.9897ZM20.8915 47.9897C20.2353 47.9897 19.6685 47.8533 19.1912 47.5806C18.7168 47.305 18.3517 46.9158 18.0961 46.413C17.8404 45.9073 17.7125 45.3121 17.7125 44.6274C17.7125 43.9541 17.8404 43.3632 18.0961 42.8547C18.3546 42.3434 18.7154 41.9456 19.1784 41.6615C19.6415 41.3746 20.1855 41.2311 20.8105 41.2311C21.214 41.2311 21.5946 41.2965 21.9526 41.4272C22.3134 41.555 22.6316 41.7539 22.9071 42.0237C23.1855 42.2936 23.4043 42.6374 23.5634 43.055C23.7225 43.4698 23.802 43.9641 23.802 44.538V45.011H18.437V43.9712H22.3233C22.3205 43.6757 22.2566 43.413 22.1316 43.1828C22.0066 42.9499 21.8319 42.7666 21.6074 42.6331C21.3858 42.4996 21.1273 42.4328 20.8319 42.4328C20.5165 42.4328 20.2395 42.5095 20.0009 42.663C19.7623 42.8135 19.5762 43.0124 19.4426 43.2595C19.312 43.5039 19.2452 43.7723 19.2424 44.0649V44.9726C19.2424 45.3533 19.312 45.68 19.4512 45.9527C19.5904 46.2226 19.785 46.43 20.035 46.5749C20.285 46.7169 20.5776 46.788 20.9128 46.788C21.1373 46.788 21.3404 46.7567 21.5222 46.6942C21.704 46.6289 21.8617 46.5337 21.9952 46.4087C22.1287 46.2837 22.2296 46.1289 22.2978 45.9442L23.7381 46.1061C23.6472 46.4868 23.4739 46.8192 23.2182 47.1033C22.9654 47.3845 22.6415 47.6033 22.2466 47.7595C21.8517 47.913 21.4 47.9897 20.8915 47.9897ZM25.1071 50.3164V41.3164H26.6241V42.3987H26.7136C26.7931 42.2397 26.9054 42.0706 27.0502 41.8916C27.1951 41.7098 27.3912 41.555 27.6383 41.4272C27.8855 41.2965 28.2008 41.2311 28.5843 41.2311C29.09 41.2311 29.546 41.3604 29.9522 41.6189C30.3613 41.8746 30.6852 42.2539 30.9238 42.7567C31.1653 43.2567 31.286 43.8703 31.286 44.5976C31.286 45.3164 31.1681 45.9272 30.9324 46.43C30.6966 46.9328 30.3755 47.3164 29.9693 47.5806C29.563 47.8448 29.1028 47.9769 28.5886 47.9769C28.2136 47.9769 27.9025 47.9144 27.6554 47.7894C27.4082 47.6644 27.2093 47.5138 27.0588 47.3377C26.911 47.1587 26.796 46.9897 26.7136 46.8306H26.6497V50.3164H25.1071ZM26.6199 44.5891C26.6199 45.0124 26.6795 45.3831 26.7988 45.7013C26.921 46.0195 27.0957 46.2681 27.323 46.447C27.5531 46.6232 27.8315 46.7112 28.1582 46.7112C28.4991 46.7112 28.7846 46.6203 29.0147 46.4385C29.2449 46.2539 29.4181 46.0024 29.5346 45.6843C29.6539 45.3632 29.7136 44.9982 29.7136 44.5891C29.7136 44.1828 29.6554 43.822 29.5389 43.5067C29.4224 43.1914 29.2491 42.9442 29.019 42.7652C28.7889 42.5862 28.502 42.4968 28.1582 42.4968C27.8287 42.4968 27.5488 42.5834 27.3187 42.7567C27.0886 42.93 26.9139 43.1729 26.7946 43.4854C26.6781 43.7979 26.6199 44.1658 26.6199 44.5891ZM35.6518 47.8618V39.1345H37.2328V42.8291H41.2768V39.1345H42.862V47.8618H41.2768V44.1544H37.2328V47.8618H35.6518ZM47.3684 47.9897C46.7292 47.9897 46.1752 47.849 45.7065 47.5678C45.2377 47.2865 44.8741 46.8931 44.6156 46.3874C44.3599 45.8817 44.2321 45.2908 44.2321 44.6147C44.2321 43.9385 44.3599 43.3462 44.6156 42.8377C44.8741 42.3291 45.2377 41.9343 45.7065 41.653C46.1752 41.3718 46.7292 41.2311 47.3684 41.2311C48.0076 41.2311 48.5616 41.3718 49.0304 41.653C49.4991 41.9343 49.8613 42.3291 50.117 42.8377C50.3755 43.3462 50.5048 43.9385 50.5048 44.6147C50.5048 45.2908 50.3755 45.8817 50.117 46.3874C49.8613 46.8931 49.4991 47.2865 49.0304 47.5678C48.5616 47.849 48.0076 47.9897 47.3684 47.9897ZM47.377 46.7539C47.7235 46.7539 48.0133 46.6587 48.2463 46.4684C48.4792 46.2752 48.6525 46.0166 48.7662 45.6928C48.8826 45.3689 48.9409 45.0081 48.9409 44.6104C48.9409 44.2098 48.8826 43.8476 48.7662 43.5237C48.6525 43.197 48.4792 42.9371 48.2463 42.7439C48.0133 42.5507 47.7235 42.4541 47.377 42.4541C47.0218 42.4541 46.7264 42.5507 46.4906 42.7439C46.2576 42.9371 46.0829 43.197 45.9664 43.5237C45.8528 43.8476 45.796 44.2098 45.796 44.6104C45.796 45.0081 45.8528 45.3689 45.9664 45.6928C46.0829 46.0166 46.2576 46.2752 46.4906 46.4684C46.7264 46.6587 47.0218 46.7539 47.377 46.7539ZM51.8141 47.8618V41.3164H53.2885V42.4286H53.3652C53.5016 42.0536 53.7275 41.761 54.0428 41.5507C54.3581 41.3377 54.7346 41.2311 55.1721 41.2311C55.6152 41.2311 55.9888 41.3391 56.2928 41.555C56.5996 41.7681 56.8155 42.0593 56.9405 42.4286H57.0087C57.1536 42.0649 57.3979 41.7752 57.7417 41.5593C58.0882 41.3405 58.4988 41.2311 58.9732 41.2311C59.5755 41.2311 60.0669 41.4215 60.4476 41.8022C60.8283 42.1828 61.0186 42.7382 61.0186 43.4684V47.8618H59.4718V43.707C59.4718 43.3007 59.3638 43.0039 59.1479 42.8164C58.932 42.626 58.6678 42.5309 58.3553 42.5309C57.9831 42.5309 57.6919 42.6473 57.4817 42.8803C57.2743 43.1104 57.1706 43.4101 57.1706 43.7794V47.8618H55.6578V43.6431C55.6578 43.305 55.5556 43.0351 55.351 42.8334C55.1493 42.6317 54.8851 42.5309 54.5584 42.5309C54.3368 42.5309 54.1351 42.5877 53.9533 42.7013C53.7715 42.8121 53.6266 42.9698 53.5186 43.1743C53.4107 43.376 53.3567 43.6118 53.3567 43.8817V47.8618H51.8141ZM65.4814 47.9897C64.8251 47.9897 64.2583 47.8533 63.7811 47.5806C63.3066 47.305 62.9416 46.9158 62.6859 46.413C62.4302 45.9073 62.3024 45.3121 62.3024 44.6274C62.3024 43.9541 62.4302 43.3632 62.6859 42.8547C62.9444 42.3434 63.3052 41.9456 63.7683 41.6615C64.2314 41.3746 64.7754 41.2311 65.4004 41.2311C65.8038 41.2311 66.1845 41.2965 66.5424 41.4272C66.9032 41.555 67.2214 41.7539 67.497 42.0237C67.7754 42.2936 67.9941 42.6374 68.1532 43.055C68.3123 43.4698 68.3919 43.9641 68.3919 44.538V45.011H63.0268V43.9712H66.9132C66.9103 43.6757 66.8464 43.413 66.7214 43.1828C66.5964 42.9499 66.4217 42.7666 66.1973 42.6331C65.9757 42.4996 65.7172 42.4328 65.4217 42.4328C65.1064 42.4328 64.8294 42.5095 64.5907 42.663C64.3521 42.8135 64.166 43.0124 64.0325 43.2595C63.9018 43.5039 63.835 43.7723 63.8322 44.0649V44.9726C63.8322 45.3533 63.9018 45.68 64.041 45.9527C64.1802 46.2226 64.3748 46.43 64.6248 46.5749C64.8748 46.7169 65.1674 46.788 65.5027 46.788C65.7271 46.788 65.9302 46.7567 66.112 46.6942C66.2939 46.6289 66.4515 46.5337 66.585 46.4087C66.7186 46.2837 66.8194 46.1289 66.8876 45.9442L68.3279 46.1061C68.237 46.4868 68.0637 46.8192 67.8081 47.1033C67.5552 47.3845 67.2314 47.6033 66.8365 47.7595C66.4416 47.913 65.9899 47.9897 65.4814 47.9897ZM72.7417 47.8618V39.1345H76.0144C76.6848 39.1345 77.2473 39.251 77.7019 39.484C78.1593 39.7169 78.5044 40.0436 78.7374 40.4641C78.9732 40.8817 79.0911 41.3689 79.0911 41.9257C79.0911 42.4854 78.9718 42.9712 78.7331 43.3831C78.4973 43.7922 78.1493 44.109 77.6891 44.3334C77.2289 44.555 76.6635 44.6658 75.9931 44.6658H73.6621V43.3533H75.78C76.1721 43.3533 76.4931 43.2993 76.7431 43.1914C76.9931 43.0806 77.1777 42.9201 77.2971 42.7098C77.4192 42.4968 77.4803 42.2354 77.4803 41.9257C77.4803 41.6161 77.4192 41.3519 77.2971 41.1331C77.1749 40.9115 76.9888 40.7439 76.7388 40.6303C76.4888 40.5138 76.1664 40.4556 75.7715 40.4556H74.3226V47.8618H72.7417ZM77.2502 43.9073L79.4107 47.8618H77.6465L75.5243 43.9073H77.2502ZM84.65 45.109V41.3164H86.1926V47.8618H84.6969V46.6985H84.6287C84.481 47.0649 84.2381 47.3647 83.9 47.5976C83.5648 47.8306 83.1515 47.947 82.66 47.947C82.231 47.947 81.8517 47.8519 81.5222 47.6615C81.1955 47.4684 80.9398 47.1885 80.7551 46.822C80.5705 46.4527 80.4782 46.0067 80.4782 45.484V41.3164H82.0208V45.2453C82.0208 45.6601 82.1344 45.9897 82.3617 46.234C82.589 46.4783 82.8873 46.6005 83.2566 46.6005C83.4838 46.6005 83.704 46.5451 83.9171 46.4343C84.1301 46.3235 84.3049 46.1587 84.4412 45.9399C84.5804 45.7184 84.65 45.4414 84.65 45.109ZM89.3216 44.0266V47.8618H87.7789V41.3164H89.2534V42.4286H89.3301C89.4806 42.0621 89.7207 41.7709 90.0502 41.555C90.3826 41.3391 90.7931 41.2311 91.2818 41.2311C91.7335 41.2311 92.127 41.3277 92.4622 41.5209C92.8002 41.7141 93.0616 41.9939 93.2463 42.3604C93.4338 42.7269 93.5261 43.1715 93.5233 43.6942V47.8618H91.9806V43.9328C91.9806 43.4953 91.867 43.153 91.6397 42.9059C91.4153 42.6587 91.1042 42.5351 90.7065 42.5351C90.4366 42.5351 90.1966 42.5948 89.9863 42.7141C89.7789 42.8306 89.6156 42.9996 89.4963 43.2212C89.3798 43.4428 89.3216 43.7112 89.3216 44.0266ZM96.6341 44.0266V47.8618H95.0914V41.3164H96.5659V42.4286H96.6426C96.7931 42.0621 97.0332 41.7709 97.3627 41.555C97.6951 41.3391 98.1056 41.2311 98.5943 41.2311C99.046 41.2311 99.4395 41.3277 99.7747 41.5209C100.113 41.7141 100.374 41.9939 100.559 42.3604C100.746 42.7269 100.839 43.1715 100.836 43.6942V47.8618H99.2931V43.9328C99.2931 43.4953 99.1795 43.153 98.9522 42.9059C98.7278 42.6587 98.4167 42.5351 98.019 42.5351C97.7491 42.5351 97.5091 42.5948 97.2988 42.7141C97.0914 42.8306 96.9281 42.9996 96.8088 43.2212C96.6923 43.4428 96.6341 43.7112 96.6341 44.0266ZM102.404 47.8618V41.3164H103.947V47.8618H102.404ZM103.18 40.3874C102.935 40.3874 102.725 40.3064 102.549 40.1445C102.373 39.9797 102.285 39.7823 102.285 39.5522C102.285 39.3192 102.373 39.1218 102.549 38.9598C102.725 38.7951 102.935 38.7127 103.18 38.7127C103.427 38.7127 103.637 38.7951 103.81 38.9598C103.986 39.1218 104.074 39.3192 104.074 39.5522C104.074 39.7823 103.986 39.9797 103.81 40.1445C103.637 40.3064 103.427 40.3874 103.18 40.3874ZM107.075 44.0266V47.8618H105.533V41.3164H107.007V42.4286H107.084C107.235 42.0621 107.475 41.7709 107.804 41.555C108.137 41.3391 108.547 41.2311 109.036 41.2311C109.487 41.2311 109.881 41.3277 110.216 41.5209C110.554 41.7141 110.816 41.9939 111 42.3604C111.188 42.7269 111.28 43.1715 111.277 43.6942V47.8618H109.735V43.9328C109.735 43.4953 109.621 43.153 109.394 42.9059C109.169 42.6587 108.858 42.5351 108.46 42.5351C108.191 42.5351 107.95 42.5948 107.74 42.7141C107.533 42.8306 107.369 42.9996 107.25 43.2212C107.134 43.4428 107.075 43.7112 107.075 44.0266ZM115.692 50.4527C115.138 50.4527 114.662 50.3774 114.264 50.2269C113.867 50.0791 113.547 49.8803 113.306 49.6303C113.064 49.3803 112.896 49.1033 112.803 48.7993L114.192 48.4627C114.254 48.5905 114.345 48.7169 114.465 48.8419C114.584 48.9698 114.744 49.0749 114.946 49.1573C115.151 49.2425 115.408 49.2851 115.718 49.2851C116.155 49.2851 116.517 49.1786 116.804 48.9655C117.091 48.7553 117.235 48.4087 117.235 47.9257V46.6857H117.158C117.078 46.8448 116.962 47.0081 116.808 47.1757C116.658 47.3434 116.458 47.484 116.208 47.5976C115.96 47.7112 115.649 47.7681 115.274 47.7681C114.771 47.7681 114.316 47.6502 113.906 47.4144C113.5 47.1757 113.176 46.8206 112.935 46.349C112.696 45.8746 112.577 45.2809 112.577 44.5678C112.577 43.849 112.696 43.2425 112.935 42.7482C113.176 42.251 113.502 41.8746 113.911 41.6189C114.32 41.3604 114.776 41.2311 115.279 41.2311C115.662 41.2311 115.977 41.2965 116.225 41.4272C116.475 41.555 116.673 41.7098 116.821 41.8916C116.969 42.0706 117.081 42.2397 117.158 42.3987H117.243V41.3164H118.764V47.9684C118.764 48.528 118.631 48.9911 118.364 49.3576C118.097 49.724 117.732 49.9982 117.269 50.18C116.806 50.3618 116.28 50.4527 115.692 50.4527ZM115.705 46.5578C116.031 46.5578 116.31 46.4783 116.54 46.3192C116.77 46.1601 116.945 45.9314 117.064 45.6331C117.183 45.3348 117.243 44.9769 117.243 44.5593C117.243 44.1473 117.183 43.7865 117.064 43.4769C116.948 43.1672 116.774 42.9272 116.544 42.7567C116.317 42.5834 116.037 42.4968 115.705 42.4968C115.361 42.4968 115.074 42.5862 114.844 42.7652C114.614 42.9442 114.441 43.1899 114.324 43.5024C114.208 43.8121 114.149 44.1644 114.149 44.5593C114.149 44.9598 114.208 45.3107 114.324 45.6118C114.443 45.9101 114.618 46.1431 114.848 46.3107C115.081 46.4755 115.367 46.5578 115.705 46.5578ZM33.592 56.5337C33.5522 56.1615 33.3846 55.8718 33.0891 55.6644C32.7965 55.457 32.4158 55.3533 31.9471 55.3533C31.6175 55.3533 31.3349 55.403 31.0991 55.5024C30.8633 55.6019 30.6829 55.7368 30.5579 55.9073C30.4329 56.0777 30.369 56.2723 30.3661 56.4911C30.3661 56.6729 30.4073 56.8306 30.4897 56.9641C30.5749 57.0976 30.69 57.2112 30.8349 57.305C30.9798 57.3959 31.1403 57.4726 31.3164 57.5351C31.4925 57.5976 31.6701 57.6502 31.8491 57.6928L32.6673 57.8973C32.9968 57.974 33.3136 58.0777 33.6175 58.2084C33.9244 58.3391 34.1985 58.5039 34.44 58.7027C34.6843 58.9016 34.8775 59.1416 35.0195 59.4229C35.1616 59.7041 35.2326 60.0337 35.2326 60.4115C35.2326 60.9229 35.1019 61.3732 34.8406 61.7624C34.5792 62.1487 34.2013 62.4513 33.707 62.6701C33.2156 62.886 32.6204 62.9939 31.9215 62.9939C31.2425 62.9939 30.6531 62.8888 30.1531 62.6786C29.6559 62.4684 29.2667 62.1615 28.9854 61.7581C28.707 61.3547 28.5565 60.8632 28.5337 60.2837H30.0891C30.1119 60.5877 30.2056 60.8405 30.3704 61.0422C30.5352 61.2439 30.7496 61.3945 31.0138 61.4939C31.2809 61.5934 31.5792 61.6431 31.9087 61.6431C32.2525 61.6431 32.5536 61.5919 32.8121 61.4897C33.0735 61.3845 33.2781 61.2397 33.4258 61.055C33.5735 60.8675 33.6488 60.6487 33.6516 60.3987C33.6488 60.1715 33.582 59.984 33.4513 59.8362C33.3207 59.6857 33.1374 59.5607 32.9016 59.4612C32.6687 59.359 32.396 59.2681 32.0835 59.1885L31.0906 58.9328C30.3718 58.7482 29.8036 58.4684 29.386 58.0934C28.9712 57.7155 28.7638 57.2141 28.7638 56.5891C28.7638 56.0749 28.9031 55.6246 29.1815 55.2382C29.4627 54.8519 29.8448 54.5522 30.3278 54.3391C30.8107 54.1232 31.3576 54.0152 31.9684 54.0152C32.5877 54.0152 33.1303 54.1232 33.5962 54.3391C34.065 54.5522 34.4329 54.849 34.6999 55.2297C34.967 55.6076 35.1048 56.0422 35.1133 56.5337H33.592ZM39.4716 62.9897C38.8153 62.9897 38.2486 62.8533 37.7713 62.5806C37.2969 62.305 36.9318 61.9158 36.6761 61.413C36.4205 60.9073 36.2926 60.3121 36.2926 59.6274C36.2926 58.9541 36.4205 58.3632 36.6761 57.8547C36.9347 57.3434 37.2955 56.9456 37.7585 56.6615C38.2216 56.3746 38.7656 56.2311 39.3906 56.2311C39.794 56.2311 40.1747 56.2965 40.5327 56.4272C40.8935 56.555 41.2116 56.7539 41.4872 57.0237C41.7656 57.2936 41.9844 57.6374 42.1435 58.055C42.3026 58.4698 42.3821 58.9641 42.3821 59.538V60.011H37.017V58.9712H40.9034C40.9006 58.6757 40.8366 58.413 40.7116 58.1828C40.5866 57.9499 40.4119 57.7666 40.1875 57.6331C39.9659 57.4996 39.7074 57.4328 39.4119 57.4328C39.0966 57.4328 38.8196 57.5095 38.581 57.663C38.3423 57.8135 38.1563 58.0124 38.0227 58.2595C37.892 58.5039 37.8253 58.7723 37.8224 59.0649V59.9726C37.8224 60.3533 37.892 60.68 38.0312 60.9527C38.1705 61.2226 38.3651 61.43 38.6151 61.5749C38.8651 61.7169 39.1577 61.788 39.4929 61.788C39.7173 61.788 39.9205 61.7567 40.1023 61.6942C40.2841 61.6289 40.4418 61.5337 40.5753 61.4087C40.7088 61.2837 40.8097 61.1289 40.8778 60.9442L42.3182 61.1061C42.2273 61.4868 42.054 61.8192 41.7983 62.1033C41.5455 62.3845 41.2216 62.6033 40.8267 62.7595C40.4318 62.913 39.9801 62.9897 39.4716 62.9897ZM45.5707 62.9939C45.1559 62.9939 44.7823 62.9201 44.4499 62.7723C44.1204 62.6218 43.859 62.4002 43.6658 62.1076C43.4755 61.8149 43.3803 61.4541 43.3803 61.0252C43.3803 60.6559 43.4485 60.3505 43.5849 60.109C43.7212 59.8675 43.9073 59.6743 44.1431 59.5294C44.3789 59.3845 44.6445 59.2752 44.94 59.2013C45.2383 59.1246 45.5465 59.0692 45.8647 59.0351C46.2482 58.9953 46.5593 58.9598 46.7979 58.9286C47.0366 58.8945 47.2099 58.8434 47.3178 58.7752C47.4286 58.7041 47.484 58.5948 47.484 58.447V58.4215C47.484 58.1005 47.3888 57.8519 47.1985 57.6757C47.0082 57.4996 46.734 57.4115 46.3761 57.4115C45.9982 57.4115 45.6985 57.4939 45.4769 57.6587C45.2582 57.8235 45.1104 58.0181 45.0337 58.2425L43.5934 58.038C43.707 57.6402 43.8945 57.3078 44.1559 57.0408C44.4173 56.7709 44.7369 56.5692 45.1147 56.4357C45.4925 56.2993 45.9102 56.2311 46.3675 56.2311C46.6829 56.2311 46.9968 56.2681 47.3093 56.3419C47.6218 56.4158 47.9073 56.538 48.1658 56.7084C48.4244 56.876 48.6317 57.1047 48.788 57.3945C48.9471 57.6843 49.0266 58.0465 49.0266 58.4811V62.8618H47.5437V61.9627H47.4925C47.3988 62.1445 47.2667 62.3149 47.0962 62.474C46.9286 62.6303 46.717 62.7567 46.4613 62.8533C46.2085 62.947 45.9116 62.9939 45.5707 62.9939ZM45.9712 61.8604C46.2809 61.8604 46.5494 61.7993 46.7766 61.6772C47.0039 61.5522 47.1786 61.3874 47.3008 61.1828C47.4258 60.9783 47.4883 60.7553 47.4883 60.5138V59.7425C47.44 59.7823 47.3576 59.8192 47.2411 59.8533C47.1275 59.8874 46.9996 59.9172 46.8576 59.9428C46.7156 59.9684 46.5749 59.9911 46.4357 60.011C46.2965 60.0309 46.1758 60.0479 46.0735 60.0621C45.8434 60.0934 45.6374 60.1445 45.4556 60.2155C45.2738 60.2865 45.1303 60.386 45.0252 60.5138C44.9201 60.6388 44.8675 60.8007 44.8675 60.9996C44.8675 61.2837 44.9712 61.4982 45.1786 61.6431C45.386 61.788 45.6502 61.8604 45.9712 61.8604ZM50.5778 62.8618V56.3164H52.0522V57.4286H52.1289C52.2653 57.0536 52.4911 56.761 52.8065 56.5507C53.1218 56.3377 53.4982 56.2311 53.9357 56.2311C54.3789 56.2311 54.7525 56.3391 55.0565 56.555C55.3633 56.7681 55.5792 57.0593 55.7042 57.4286H55.7724C55.9173 57.0649 56.1616 56.7752 56.5053 56.5593C56.8519 56.3405 57.2624 56.2311 57.7369 56.2311C58.3391 56.2311 58.8306 56.4215 59.2113 56.8022C59.592 57.1828 59.7823 57.7382 59.7823 58.4684V62.8618H58.2354V58.707C58.2354 58.3007 58.1275 58.0039 57.9116 57.8164C57.6957 57.626 57.4315 57.5309 57.119 57.5309C56.7468 57.5309 56.4556 57.6473 56.2454 57.8803C56.038 58.1104 55.9343 58.4101 55.9343 58.7794V62.8618H54.4215V58.6431C54.4215 58.305 54.3192 58.0351 54.1147 57.8334C53.913 57.6317 53.6488 57.5309 53.3221 57.5309C53.1005 57.5309 52.8988 57.5877 52.717 57.7013C52.5352 57.8121 52.3903 57.9698 52.2823 58.1743C52.1744 58.376 52.1204 58.6118 52.1204 58.8817V62.8618H50.5778ZM62.8899 54.1345V62.8618H61.3473V54.1345H62.8899ZM67.3739 62.9897C66.7177 62.9897 66.1509 62.8533 65.6737 62.5806C65.1992 62.305 64.8342 61.9158 64.5785 61.413C64.3228 60.9073 64.195 60.3121 64.195 59.6274C64.195 58.9541 64.3228 58.3632 64.5785 57.8547C64.837 57.3434 65.1978 56.9456 65.6609 56.6615C66.1239 56.3746 66.668 56.2311 67.293 56.2311C67.6964 56.2311 68.0771 56.2965 68.435 56.4272C68.7958 56.555 69.114 56.7539 69.3896 57.0237C69.668 57.2936 69.8867 57.6374 70.0458 58.055C70.2049 58.4698 70.2844 58.9641 70.2844 59.538V60.011H64.9194V58.9712H68.8058C68.8029 58.6757 68.739 58.413 68.614 58.1828C68.489 57.9499 68.3143 57.7666 68.0898 57.6331C67.8683 57.4996 67.6097 57.4328 67.3143 57.4328C66.9989 57.4328 66.7219 57.5095 66.4833 57.663C66.2447 57.8135 66.0586 58.0124 65.9251 58.2595C65.7944 58.5039 65.7276 58.7723 65.7248 59.0649V59.9726C65.7248 60.3533 65.7944 60.68 65.9336 60.9527C66.0728 61.2226 66.2674 61.43 66.5174 61.5749C66.7674 61.7169 67.06 61.788 67.3952 61.788C67.6197 61.788 67.8228 61.7567 68.0046 61.6942C68.1864 61.6289 68.3441 61.5337 68.4776 61.4087C68.6112 61.2837 68.712 61.1289 68.7802 60.9442L70.2205 61.1061C70.1296 61.4868 69.9563 61.8192 69.7006 62.1033C69.4478 62.3845 69.1239 62.6033 68.729 62.7595C68.3342 62.913 67.8825 62.9897 67.3739 62.9897ZM76.7628 58.0465L75.3565 58.1999C75.3168 58.0578 75.2472 57.9243 75.1477 57.7993C75.0511 57.6743 74.9205 57.5735 74.7557 57.4968C74.5909 57.4201 74.3892 57.3817 74.1506 57.3817C73.8295 57.3817 73.5597 57.4513 73.3409 57.5905C73.125 57.7297 73.0185 57.9101 73.0213 58.1317C73.0185 58.322 73.0881 58.4769 73.2301 58.5962C73.375 58.7155 73.6136 58.8135 73.946 58.8902L75.0625 59.1289C75.6818 59.2624 76.142 59.474 76.4432 59.7638C76.7472 60.0536 76.9006 60.4328 76.9034 60.9016C76.9006 61.3135 76.7798 61.6772 76.5412 61.9925C76.3054 62.305 75.9773 62.5493 75.5568 62.7255C75.1364 62.9016 74.6534 62.9897 74.108 62.9897C73.3068 62.9897 72.6619 62.822 72.1733 62.4868C71.6847 62.1487 71.3935 61.6786 71.2997 61.0763L72.804 60.9314C72.8722 61.2269 73.017 61.4499 73.2386 61.6005C73.4602 61.751 73.7486 61.8263 74.1037 61.8263C74.4702 61.8263 74.7642 61.751 74.9858 61.6005C75.2102 61.4499 75.3224 61.2638 75.3224 61.0422C75.3224 60.8547 75.25 60.6999 75.1051 60.5777C74.9631 60.4556 74.7415 60.3618 74.4403 60.2965L73.3239 60.0621C72.696 59.9314 72.2315 59.7112 71.9304 59.4016C71.6293 59.0891 71.4801 58.6942 71.483 58.2169C71.4801 57.8135 71.5895 57.4641 71.8111 57.1686C72.0355 56.8703 72.3466 56.6402 72.7443 56.4783C73.1449 56.3135 73.6065 56.2311 74.1293 56.2311C74.8963 56.2311 75.5 56.3945 75.9403 56.7212C76.3835 57.0479 76.6577 57.4897 76.7628 58.0465ZM83.3487 58.0465L81.9425 58.1999C81.9027 58.0578 81.8331 57.9243 81.7337 57.7993C81.6371 57.6743 81.5064 57.5735 81.3416 57.4968C81.1768 57.4201 80.9751 57.3817 80.7365 57.3817C80.4155 57.3817 80.1456 57.4513 79.9268 57.5905C79.7109 57.7297 79.6044 57.9101 79.6072 58.1317C79.6044 58.322 79.674 58.4769 79.8161 58.5962C79.9609 58.7155 80.1996 58.8135 80.532 58.8902L81.6484 59.1289C82.2678 59.2624 82.728 59.474 83.0291 59.7638C83.3331 60.0536 83.4865 60.4328 83.4893 60.9016C83.4865 61.3135 83.3658 61.6772 83.1271 61.9925C82.8913 62.305 82.5632 62.5493 82.1428 62.7255C81.7223 62.9016 81.2393 62.9897 80.6939 62.9897C79.8928 62.9897 79.2479 62.822 78.7592 62.4868C78.2706 62.1487 77.9794 61.6786 77.8857 61.0763L79.3899 60.9314C79.4581 61.2269 79.603 61.4499 79.8246 61.6005C80.0462 61.751 80.3345 61.8263 80.6896 61.8263C81.0561 61.8263 81.3501 61.751 81.5717 61.6005C81.7962 61.4499 81.9084 61.2638 81.9084 61.0422C81.9084 60.8547 81.8359 60.6999 81.6911 60.5777C81.549 60.4556 81.3274 60.3618 81.0263 60.2965L79.9098 60.0621C79.282 59.9314 78.8175 59.7112 78.5163 59.4016C78.2152 59.0891 78.0661 58.6942 78.0689 58.2169C78.0661 57.8135 78.1754 57.4641 78.397 57.1686C78.6214 56.8703 78.9325 56.6402 79.3303 56.4783C79.7308 56.3135 80.1925 56.2311 80.7152 56.2311C81.4822 56.2311 82.0859 56.3945 82.5263 56.7212C82.9695 57.0479 83.2436 57.4897 83.3487 58.0465ZM86.304 54.1345V62.8618H84.7614V54.1345H86.304ZM88.8491 65.3164C88.6388 65.3164 88.4442 65.2993 88.2653 65.2652C88.0891 65.234 87.9485 65.197 87.8434 65.1544L88.2013 63.9527C88.4258 64.0181 88.6261 64.0493 88.8022 64.0465C88.9783 64.0436 89.1332 63.9882 89.2667 63.8803C89.4031 63.7752 89.5181 63.599 89.6119 63.3519L89.744 62.9982L87.3704 56.3164H89.0067L90.5153 61.2595H90.5835L92.0962 56.3164H93.7369L91.1161 63.6544C90.994 64.001 90.832 64.2979 90.6303 64.5451C90.4286 64.7951 90.1815 64.9854 89.8888 65.1161C89.5991 65.2496 89.2525 65.3164 88.8491 65.3164Z" fill="white"/>
</svg>
