<svg width="82" height="60" viewBox="0 0 82 60" fill="none" xmlns="http://www.w3.org/2000/svg">
<path d="M28.331 34.6364C28.331 35.5767 28.1548 36.3821 27.8026 37.0526C27.4531 37.7202 26.9759 38.2315 26.3707 38.5866C25.7685 38.9418 25.0852 39.1193 24.321 39.1193C23.5568 39.1193 22.8722 38.9418 22.267 38.5866C21.6648 38.2287 21.1875 37.7159 20.8352 37.0483C20.4858 36.3778 20.3111 35.5739 20.3111 34.6364C20.3111 33.696 20.4858 32.892 20.8352 32.2244C21.1875 31.554 21.6648 31.0412 22.267 30.6861C22.8722 30.331 23.5568 30.1534 24.321 30.1534C25.0852 30.1534 25.7685 30.331 26.3707 30.6861C26.9759 31.0412 27.4531 31.554 27.8026 32.2244C28.1548 32.892 28.331 33.696 28.331 34.6364ZM26.7415 34.6364C26.7415 33.9744 26.6378 33.4162 26.4304 32.9616C26.2259 32.5043 25.9418 32.1591 25.5781 31.9261C25.2145 31.6903 24.7955 31.5724 24.321 31.5724C23.8466 31.5724 23.4276 31.6903 23.0639 31.9261C22.7003 32.1591 22.4148 32.5043 22.2074 32.9616C22.0028 33.4162 21.9006 33.9744 21.9006 34.6364C21.9006 35.2983 22.0028 35.858 22.2074 36.3153C22.4148 36.7699 22.7003 37.1151 23.0639 37.3509C23.4276 37.5838 23.8466 37.7003 24.321 37.7003C24.7955 37.7003 25.2145 37.5838 25.5781 37.3509C25.9418 37.1151 26.2259 36.7699 26.4304 36.3153C26.6378 35.858 26.7415 35.2983 26.7415 34.6364ZM33.9293 36.2472V32.4545H35.4719V39H33.9762V37.8366H33.908C33.7603 38.2031 33.5174 38.5028 33.1793 38.7358C32.8441 38.9687 32.4308 39.0852 31.9393 39.0852C31.5103 39.0852 31.131 38.9901 30.8015 38.7997C30.4748 38.6065 30.2191 38.3267 30.0344 37.9602C29.8498 37.5909 29.7575 37.1449 29.7575 36.6222V32.4545H31.3001V36.3835C31.3001 36.7983 31.4137 37.1278 31.641 37.3722C31.8683 37.6165 32.1665 37.7386 32.5359 37.7386C32.7631 37.7386 32.9833 37.6832 33.1964 37.5724C33.4094 37.4616 33.5842 37.2969 33.7205 37.0781C33.8597 36.8565 33.9293 36.5795 33.9293 36.2472ZM40.3267 32.4545V33.6477H36.5639V32.4545H40.3267ZM37.4929 30.8864H39.0355V37.0312C39.0355 37.2386 39.0668 37.3977 39.1293 37.5085C39.1946 37.6165 39.2798 37.6903 39.3849 37.7301C39.4901 37.7699 39.6065 37.7898 39.7344 37.7898C39.831 37.7898 39.919 37.7827 39.9986 37.7685C40.081 37.7543 40.1435 37.7415 40.1861 37.7301L40.446 38.9361C40.3636 38.9645 40.2457 38.9957 40.0923 39.0298C39.9418 39.0639 39.7571 39.0838 39.5384 39.0895C39.152 39.1009 38.804 39.0426 38.4943 38.9148C38.1847 38.7841 37.9389 38.5824 37.7571 38.3097C37.5781 38.0369 37.4901 37.696 37.4929 37.2869V30.8864ZM43.5004 39.1321C43.0856 39.1321 42.712 39.0582 42.3796 38.9105C42.0501 38.7599 41.7887 38.5384 41.5955 38.2457C41.4052 37.9531 41.31 37.5923 41.31 37.1634C41.31 36.794 41.3782 36.4886 41.5146 36.2472C41.6509 36.0057 41.837 35.8125 42.0728 35.6676C42.3086 35.5227 42.5742 35.4134 42.8697 35.3395C43.168 35.2628 43.4762 35.2074 43.7944 35.1733C44.1779 35.1335 44.489 35.098 44.7276 35.0668C44.9663 35.0327 45.1396 34.9815 45.2475 34.9134C45.3583 34.8423 45.4137 34.733 45.4137 34.5852V34.5597C45.4137 34.2386 45.3185 33.9901 45.1282 33.8139C44.9379 33.6378 44.6637 33.5497 44.3058 33.5497C43.9279 33.5497 43.6282 33.6321 43.4066 33.7969C43.1879 33.9616 43.0401 34.1562 42.9634 34.3807L41.5231 34.1761C41.6367 33.7784 41.8242 33.446 42.0856 33.179C42.3469 32.9091 42.6665 32.7074 43.0444 32.5739C43.4222 32.4375 43.8398 32.3693 44.2972 32.3693C44.6126 32.3693 44.9265 32.4062 45.239 32.4801C45.5515 32.554 45.837 32.6761 46.0955 32.8466C46.354 33.0142 46.5614 33.2429 46.7177 33.5327C46.8768 33.8224 46.9563 34.1847 46.9563 34.6193V39H45.4734V38.1009H45.4222C45.3285 38.2827 45.1964 38.4531 45.0259 38.6122C44.8583 38.7685 44.6467 38.8949 44.391 38.9915C44.1381 39.0852 43.8413 39.1321 43.5004 39.1321ZM43.9009 37.9986C44.2106 37.9986 44.479 37.9375 44.7063 37.8153C44.9336 37.6903 45.1083 37.5256 45.2305 37.321C45.3555 37.1165 45.418 36.8935 45.418 36.652V35.8807C45.3697 35.9205 45.2873 35.9574 45.1708 35.9915C45.0572 36.0256 44.9293 36.0554 44.7873 36.081C44.6452 36.1065 44.5046 36.1293 44.3654 36.1491C44.2262 36.169 44.1055 36.1861 44.0032 36.2003C43.7731 36.2315 43.5671 36.2827 43.3853 36.3537C43.2035 36.4247 43.06 36.5241 42.9549 36.652C42.8498 36.777 42.7972 36.9389 42.7972 37.1378C42.7972 37.4219 42.9009 37.6364 43.1083 37.7812C43.3157 37.9261 43.5799 37.9986 43.9009 37.9986ZM51.354 41.5909C50.8001 41.5909 50.3242 41.5156 49.9265 41.3651C49.5288 41.2173 49.2092 41.0185 48.9677 40.7685C48.7262 40.5185 48.5586 40.2415 48.4648 39.9375L49.854 39.6009C49.9165 39.7287 50.0075 39.8551 50.1268 39.9801C50.2461 40.108 50.4066 40.2131 50.6083 40.2955C50.8129 40.3807 51.07 40.4233 51.3796 40.4233C51.8171 40.4233 52.1793 40.3168 52.4663 40.1037C52.7532 39.8935 52.8967 39.5469 52.8967 39.0639V37.8239H52.82C52.7404 37.983 52.6239 38.1463 52.4705 38.3139C52.32 38.4815 52.1197 38.6222 51.8697 38.7358C51.6225 38.8494 51.3114 38.9062 50.9364 38.9062C50.4336 38.9062 49.9776 38.7884 49.5685 38.5526C49.1623 38.3139 48.8384 37.9588 48.5969 37.4872C48.3583 37.0128 48.239 36.419 48.239 35.706C48.239 34.9872 48.3583 34.3807 48.5969 33.8864C48.8384 33.3892 49.1637 33.0128 49.5728 32.7571C49.9819 32.4986 50.4379 32.3693 50.9407 32.3693C51.3242 32.3693 51.6396 32.4347 51.8867 32.5653C52.1367 32.6932 52.3356 32.848 52.4833 33.0298C52.631 33.2088 52.7433 33.3778 52.82 33.5369H52.9052V32.4545H54.4265V39.1065C54.4265 39.6662 54.293 40.1293 54.0259 40.4957C53.7589 40.8622 53.3938 41.1364 52.9308 41.3182C52.4677 41.5 51.9421 41.5909 51.354 41.5909ZM51.3668 37.696C51.6935 37.696 51.9719 37.6165 52.2021 37.4574C52.4322 37.2983 52.6069 37.0696 52.7262 36.7713C52.8455 36.473 52.9052 36.1151 52.9052 35.6974C52.9052 35.2855 52.8455 34.9247 52.7262 34.6151C52.6097 34.3054 52.4364 34.0653 52.2063 33.8949C51.979 33.7216 51.6992 33.6349 51.3668 33.6349C51.0231 33.6349 50.7362 33.7244 50.506 33.9034C50.2759 34.0824 50.1026 34.3281 49.9862 34.6406C49.8697 34.9503 49.8114 35.3026 49.8114 35.6974C49.8114 36.098 49.8697 36.4489 49.9862 36.75C50.1055 37.0483 50.2802 37.2812 50.5103 37.4489C50.7433 37.6136 51.0288 37.696 51.3668 37.696ZM58.9052 39.1278C58.2489 39.1278 57.6822 38.9915 57.2049 38.7188C56.7305 38.4432 56.3654 38.054 56.1097 37.5511C55.854 37.0455 55.7262 36.4503 55.7262 35.7656C55.7262 35.0923 55.854 34.5014 56.1097 33.9929C56.3683 33.4815 56.729 33.0838 57.1921 32.7997C57.6552 32.5128 58.1992 32.3693 58.8242 32.3693C59.2276 32.3693 59.6083 32.4347 59.9663 32.5653C60.3271 32.6932 60.6452 32.892 60.9208 33.1619C61.1992 33.4318 61.418 33.7756 61.5771 34.1932C61.7362 34.608 61.8157 35.1023 61.8157 35.6761V36.1491H56.4506V35.1094H60.337C60.3342 34.8139 60.2702 34.5511 60.1452 34.321C60.0202 34.0881 59.8455 33.9048 59.6211 33.7713C59.3995 33.6378 59.141 33.571 58.8455 33.571C58.5302 33.571 58.2532 33.6477 58.0146 33.8011C57.7759 33.9517 57.5898 34.1506 57.4563 34.3977C57.3256 34.642 57.2589 34.9105 57.256 35.2031V36.1108C57.256 36.4915 57.3256 36.8182 57.4648 37.0909C57.604 37.3608 57.7987 37.5682 58.0487 37.7131C58.2987 37.8551 58.5913 37.9261 58.9265 37.9261C59.1509 37.9261 59.354 37.8949 59.5359 37.8324C59.7177 37.767 59.8754 37.6719 60.0089 37.5469C60.1424 37.4219 60.2433 37.267 60.3114 37.0824L61.7518 37.2443C61.6609 37.625 61.4876 37.9574 61.2319 38.2415C60.979 38.5227 60.6552 38.7415 60.2603 38.8977C59.8654 39.0511 59.4137 39.1278 58.9052 39.1278ZM11.6909 54V45.2727H14.9636C15.6341 45.2727 16.1966 45.3977 16.6511 45.6477C17.1085 45.8977 17.4537 46.2415 17.6866 46.679C17.9224 47.1136 18.0403 47.608 18.0403 48.1619C18.0403 48.7216 17.9224 49.2187 17.6866 49.6534C17.4508 50.0881 17.1028 50.4304 16.6426 50.6804C16.1824 50.9276 15.6156 51.0511 14.9423 51.0511H12.7733V49.7514H14.7292C15.1213 49.7514 15.4423 49.6832 15.6923 49.5469C15.9423 49.4105 16.127 49.223 16.2463 48.9844C16.3684 48.7457 16.4295 48.4716 16.4295 48.1619C16.4295 47.8523 16.3684 47.5795 16.2463 47.3438C16.127 47.108 15.9409 46.9247 15.688 46.794C15.438 46.6605 15.1156 46.5938 14.7207 46.5938H13.2718V54H11.6909ZM19.3453 54V47.4545H20.8411V48.5455H20.9093C21.0286 48.1676 21.2331 47.8764 21.5229 47.6719C21.8155 47.4645 22.1493 47.3608 22.5243 47.3608C22.6096 47.3608 22.7047 47.3651 22.8098 47.3736C22.9178 47.3793 23.0073 47.3892 23.0783 47.4034V48.8224C23.013 48.7997 22.9093 48.7798 22.7672 48.7628C22.628 48.7429 22.4931 48.733 22.3624 48.733C22.0811 48.733 21.8283 48.794 21.6039 48.9162C21.3823 49.0355 21.2076 49.2017 21.0797 49.4148C20.9519 49.6278 20.888 49.8736 20.888 50.152V54H19.3453ZM26.6887 54.1278C26.0495 54.1278 25.4956 53.9872 25.0268 53.706C24.5581 53.4247 24.1944 53.0312 23.9359 52.5256C23.6802 52.0199 23.5524 51.429 23.5524 50.7528C23.5524 50.0767 23.6802 49.4844 23.9359 48.9759C24.1944 48.4673 24.5581 48.0724 25.0268 47.7912C25.4956 47.5099 26.0495 47.3693 26.6887 47.3693C27.3279 47.3693 27.8819 47.5099 28.3507 47.7912C28.8194 48.0724 29.1816 48.4673 29.4373 48.9759C29.6958 49.4844 29.8251 50.0767 29.8251 50.7528C29.8251 51.429 29.6958 52.0199 29.4373 52.5256C29.1816 53.0312 28.8194 53.4247 28.3507 53.706C27.8819 53.9872 27.3279 54.1278 26.6887 54.1278ZM26.6973 52.892C27.0439 52.892 27.3336 52.7969 27.5666 52.6065C27.7995 52.4134 27.9728 52.1548 28.0865 51.831C28.2029 51.5071 28.2612 51.1463 28.2612 50.7486C28.2612 50.348 28.2029 49.9858 28.0865 49.6619C27.9728 49.3352 27.7995 49.0753 27.5666 48.8821C27.3336 48.6889 27.0439 48.5923 26.6973 48.5923C26.3422 48.5923 26.0467 48.6889 25.8109 48.8821C25.5779 49.0753 25.4032 49.3352 25.2868 49.6619C25.1731 49.9858 25.1163 50.348 25.1163 50.7486C25.1163 51.1463 25.1731 51.5071 25.2868 51.831C25.4032 52.1548 25.5779 52.4134 25.8109 52.6065C26.0467 52.7969 26.3422 52.892 26.6973 52.892ZM34.4029 47.4545V48.6477H30.6401V47.4545H34.4029ZM31.5691 45.8864H33.1117V52.0312C33.1117 52.2386 33.1429 52.3977 33.2054 52.5085C33.2708 52.6165 33.356 52.6903 33.4611 52.7301C33.5662 52.7699 33.6827 52.7898 33.8105 52.7898C33.9071 52.7898 33.9952 52.7827 34.0748 52.7685C34.1571 52.7543 34.2196 52.7415 34.2623 52.7301L34.5222 53.9361C34.4398 53.9645 34.3219 53.9957 34.1685 54.0298C34.0179 54.0639 33.8333 54.0838 33.6145 54.0895C33.2282 54.1009 32.8801 54.0426 32.5705 53.9148C32.2608 53.7841 32.0151 53.5824 31.8333 53.3097C31.6543 53.0369 31.5662 52.696 31.5691 52.2869V45.8864ZM38.5204 54.1278C37.8642 54.1278 37.2974 53.9915 36.8201 53.7188C36.3457 53.4432 35.9806 53.054 35.725 52.5511C35.4693 52.0455 35.3414 51.4503 35.3414 50.7656C35.3414 50.0923 35.4693 49.5014 35.725 48.9929C35.9835 48.4815 36.3443 48.0838 36.8074 47.7997C37.2704 47.5128 37.8145 47.3693 38.4395 47.3693C38.8429 47.3693 39.2235 47.4347 39.5815 47.5653C39.9423 47.6932 40.2605 47.892 40.536 48.1619C40.8145 48.4318 41.0332 48.7756 41.1923 49.1932C41.3514 49.608 41.4309 50.1023 41.4309 50.6761V51.1491H36.0659V50.1094H39.9522C39.9494 49.8139 39.8855 49.5511 39.7605 49.321C39.6355 49.0881 39.4608 48.9048 39.2363 48.7713C39.0147 48.6378 38.7562 48.571 38.4608 48.571C38.1454 48.571 37.8684 48.6477 37.6298 48.8011C37.3912 48.9517 37.2051 49.1506 37.0716 49.3977C36.9409 49.642 36.8741 49.9105 36.8713 50.2031V51.1108C36.8713 51.4915 36.9409 51.8182 37.0801 52.0909C37.2193 52.3608 37.4139 52.5682 37.6639 52.7131C37.9139 52.8551 38.2065 52.9261 38.5417 52.9261C38.7662 52.9261 38.9693 52.8949 39.1511 52.8324C39.3329 52.767 39.4906 52.6719 39.6241 52.5469C39.7576 52.4219 39.8585 52.267 39.9267 52.0824L41.367 52.2443C41.2761 52.625 41.1028 52.9574 40.8471 53.2415C40.5943 53.5227 40.2704 53.7415 39.8755 53.8977C39.4806 54.0511 39.0289 54.1278 38.5204 54.1278ZM45.5911 54.1278C44.9377 54.1278 44.3766 53.9844 43.9078 53.6974C43.4419 53.4105 43.0826 53.0142 42.8297 52.5085C42.5797 52 42.4547 51.4148 42.4547 50.7528C42.4547 50.0881 42.5826 49.5014 42.8382 48.9929C43.0939 48.4815 43.4547 48.0838 43.9206 47.7997C44.3894 47.5128 44.9434 47.3693 45.5826 47.3693C46.1138 47.3693 46.584 47.4673 46.9931 47.6634C47.405 47.8565 47.7331 48.1307 47.9775 48.4858C48.2218 48.8381 48.361 49.25 48.3951 49.7216H46.9206C46.861 49.4062 46.7189 49.1435 46.4945 48.9332C46.2729 48.7202 45.976 48.6136 45.6039 48.6136C45.2885 48.6136 45.0115 48.6989 44.7729 48.8693C44.5343 49.0369 44.3482 49.2784 44.2147 49.5938C44.084 49.9091 44.0186 50.2869 44.0186 50.7273C44.0186 51.1733 44.084 51.5568 44.2147 51.8778C44.3453 52.196 44.5286 52.4418 44.7644 52.6151C45.003 52.7855 45.2828 52.8707 45.6039 52.8707C45.8311 52.8707 46.0343 52.8281 46.2132 52.7429C46.3951 52.6548 46.5471 52.5284 46.6692 52.3636C46.7914 52.1989 46.8752 51.9986 46.9206 51.7628H48.3951C48.3581 52.2259 48.2218 52.6364 47.986 52.9943C47.7502 53.3494 47.4292 53.6278 47.0229 53.8295C46.6167 54.0284 46.1394 54.1278 45.5911 54.1278ZM52.9302 47.4545V48.6477H49.1674V47.4545H52.9302ZM50.0964 45.8864H51.639V52.0312C51.639 52.2386 51.6703 52.3977 51.7328 52.5085C51.7981 52.6165 51.8833 52.6903 51.9885 52.7301C52.0936 52.7699 52.21 52.7898 52.3379 52.7898C52.4345 52.7898 52.5225 52.7827 52.6021 52.7685C52.6845 52.7543 52.747 52.7415 52.7896 52.7301L53.0495 53.9361C52.9672 53.9645 52.8493 53.9957 52.6958 54.0298C52.5453 54.0639 52.3606 54.0838 52.1419 54.0895C51.7555 54.1009 51.4075 54.0426 51.0978 53.9148C50.7882 53.7841 50.5424 53.5824 50.3606 53.3097C50.1816 53.0369 50.0936 52.696 50.0964 52.2869V45.8864ZM54.2203 54V47.4545H55.763V54H54.2203ZM54.9959 46.5256C54.7516 46.5256 54.5414 46.4446 54.3652 46.2827C54.1891 46.1179 54.101 45.9205 54.101 45.6903C54.101 45.4574 54.1891 45.2599 54.3652 45.098C54.5414 44.9332 54.7516 44.8509 54.9959 44.8509C55.2431 44.8509 55.4533 44.9332 55.6266 45.098C55.8027 45.2599 55.8908 45.4574 55.8908 45.6903C55.8908 45.9205 55.8027 46.1179 55.6266 46.2827C55.4533 46.4446 55.2431 46.5256 54.9959 46.5256ZM60.2044 54.1278C59.5652 54.1278 59.0112 53.9872 58.5424 53.706C58.0737 53.4247 57.71 53.0312 57.4515 52.5256C57.1958 52.0199 57.068 51.429 57.068 50.7528C57.068 50.0767 57.1958 49.4844 57.4515 48.9759C57.71 48.4673 58.0737 48.0724 58.5424 47.7912C59.0112 47.5099 59.5652 47.3693 60.2044 47.3693C60.8436 47.3693 61.3975 47.5099 61.8663 47.7912C62.335 48.0724 62.6973 48.4673 62.9529 48.9759C63.2115 49.4844 63.3407 50.0767 63.3407 50.7528C63.3407 51.429 63.2115 52.0199 62.9529 52.5256C62.6973 53.0312 62.335 53.4247 61.8663 53.706C61.3975 53.9872 60.8436 54.1278 60.2044 54.1278ZM60.2129 52.892C60.5595 52.892 60.8493 52.7969 61.0822 52.6065C61.3152 52.4134 61.4885 52.1548 61.6021 51.831C61.7186 51.5071 61.7768 51.1463 61.7768 50.7486C61.7768 50.348 61.7186 49.9858 61.6021 49.6619C61.4885 49.3352 61.3152 49.0753 61.0822 48.8821C60.8493 48.6889 60.5595 48.5923 60.2129 48.5923C59.8578 48.5923 59.5623 48.6889 59.3265 48.8821C59.0936 49.0753 58.9189 49.3352 58.8024 49.6619C58.6887 49.9858 58.6319 50.348 58.6319 50.7486C58.6319 51.1463 58.6887 51.5071 58.8024 51.831C58.9189 52.1548 59.0936 52.4134 59.3265 52.6065C59.5623 52.7969 59.8578 52.892 60.2129 52.892ZM66.1926 50.1648V54H64.65V47.4545H66.1245V48.5668H66.2012C66.3517 48.2003 66.5918 47.9091 66.9213 47.6932C67.2537 47.4773 67.6642 47.3693 68.1529 47.3693C68.6046 47.3693 68.998 47.4659 69.3333 47.6591C69.6713 47.8523 69.9327 48.1321 70.1174 48.4986C70.3049 48.8651 70.3972 49.3097 70.3944 49.8324V54H68.8517V50.071C68.8517 49.6335 68.7381 49.2912 68.5108 49.044C68.2864 48.7969 67.9753 48.6733 67.5776 48.6733C67.3077 48.6733 67.0676 48.733 66.8574 48.8523C66.65 48.9687 66.4867 49.1378 66.3674 49.3594C66.2509 49.581 66.1926 49.8494 66.1926 50.1648Z" fill="white"/>
<path d="M20.8276 19.6045V17.7011L25.8773 12.7508C26.3603 12.2631 26.7627 11.8299 27.0847 11.4511C27.4067 11.0723 27.6482 10.7053 27.8091 10.3502C27.9701 9.99512 28.0506 9.61633 28.0506 9.21387C28.0506 8.75459 27.9464 8.36159 27.7381 8.03489C27.5298 7.70345 27.2433 7.44777 26.8787 7.26784C26.5142 7.08792 26.0999 6.99796 25.6358 6.99796C25.1576 6.99796 24.7386 7.09739 24.3787 7.29625C24.0189 7.49038 23.7395 7.76737 23.5407 8.12722C23.3465 8.48707 23.2495 8.91557 23.2495 9.41273H20.7424C20.7424 8.48944 20.9531 7.68688 21.3745 7.00506C21.7959 6.32324 22.3759 5.79531 23.1145 5.42125C23.8579 5.0472 24.7102 4.86017 25.6714 4.86017C26.6467 4.86017 27.5037 5.04247 28.2424 5.40705C28.981 5.77163 29.5539 6.27116 29.9611 6.90563C30.3731 7.5401 30.579 8.26453 30.579 9.07892C30.579 9.62343 30.4749 10.1585 30.2665 10.684C30.0582 11.2096 29.6912 11.792 29.1657 12.4312C28.6448 13.0704 27.9133 13.8445 26.9711 14.7536L24.464 17.3034V17.4028H30.7992V19.6045H20.8276ZM32.6742 16.9056V14.8105L38.8461 5.05904H40.5932V8.04199H39.5279L35.3731 14.6258V14.7394H43.9881V16.9056H32.6742ZM39.6131 19.6045V16.2664L39.6415 15.3289V5.05904H42.1273V19.6045H39.6131ZM52.2232 4.37722L47.5357 21.792H45.2843L49.9718 4.37722H52.2232ZM54.3681 19.6045L60.5542 7.36017V7.26074H53.3738V5.05904H63.2814V7.31046L57.1025 19.6045H54.3681Z" fill="white"/>
</svg>
