<svg width="93" height="57" viewBox="0 0 93 57" fill="none" xmlns="http://www.w3.org/2000/svg">
<path d="M1.95384 39V30.2727H3.79901V34.1207H3.91406L7.05469 30.2727H9.26634L6.0277 34.1804L9.30469 39H7.0973L4.70668 35.4119L3.79901 36.5199V39H1.95384ZM10.6033 39V32.4545H12.4187V39H10.6033ZM11.5153 31.6108C11.2454 31.6108 11.0138 31.5213 10.8207 31.3423C10.6303 31.1605 10.5352 30.9432 10.5352 30.6903C10.5352 30.4403 10.6303 30.2259 10.8207 30.0469C11.0138 29.8651 11.2454 29.7741 11.5153 29.7741C11.7852 29.7741 12.0153 29.8651 12.2056 30.0469C12.3988 30.2259 12.4954 30.4403 12.4954 30.6903C12.4954 30.9432 12.3988 31.1605 12.2056 31.3423C12.0153 31.5213 11.7852 31.6108 11.5153 31.6108ZM15.6882 35.2159V39H13.8729V32.4545H15.603V33.6094H15.6797C15.8246 33.2287 16.0675 32.9276 16.4084 32.706C16.7493 32.4815 17.1626 32.3693 17.6484 32.3693C18.103 32.3693 18.4993 32.4688 18.8374 32.6676C19.1754 32.8665 19.4382 33.1506 19.6257 33.5199C19.8132 33.8864 19.907 34.3239 19.907 34.8324V39H18.0916V35.1562C18.0945 34.7557 17.9922 34.4432 17.7848 34.2188C17.5774 33.9915 17.2919 33.8778 16.9283 33.8778C16.6839 33.8778 16.468 33.9304 16.2805 34.0355C16.0959 34.1406 15.951 34.294 15.8459 34.4957C15.7436 34.6946 15.6911 34.9347 15.6882 35.2159ZM24.3207 39.1278C23.6474 39.1278 23.0678 38.9915 22.582 38.7188C22.0991 38.4432 21.7269 38.054 21.4656 37.5511C21.2042 37.0455 21.0735 36.4474 21.0735 35.7571C21.0735 35.0838 21.2042 34.4929 21.4656 33.9844C21.7269 33.4759 22.0948 33.0795 22.5692 32.7955C23.0465 32.5114 23.6062 32.3693 24.2482 32.3693C24.68 32.3693 25.082 32.4389 25.4542 32.5781C25.8292 32.7145 26.1559 32.9205 26.4343 33.196C26.7156 33.4716 26.9343 33.8182 27.0906 34.2358C27.2468 34.6506 27.3249 35.1364 27.3249 35.6932V36.1918H21.7979V35.0668H25.6161C25.6161 34.8054 25.5593 34.5739 25.4457 34.3722C25.332 34.1705 25.1744 34.0128 24.9727 33.8991C24.7738 33.7827 24.5423 33.7244 24.2781 33.7244C24.0025 33.7244 23.7582 33.7884 23.5451 33.9162C23.3349 34.0412 23.1701 34.2102 23.0508 34.4233C22.9315 34.6335 22.8704 34.8679 22.8675 35.1264V36.196C22.8675 36.5199 22.9272 36.7997 23.0465 37.0355C23.1687 37.2713 23.3406 37.4531 23.5621 37.581C23.7837 37.7088 24.0465 37.7727 24.3505 37.7727C24.5522 37.7727 24.7369 37.7443 24.9045 37.6875C25.0721 37.6307 25.2156 37.5455 25.3349 37.4318C25.4542 37.3182 25.5451 37.179 25.6076 37.0142L27.2866 37.125C27.2013 37.5284 27.0266 37.8807 26.7624 38.1818C26.5011 38.4801 26.163 38.7131 25.7482 38.8807C25.3363 39.0455 24.8604 39.1278 24.3207 39.1278ZM31.9911 32.4545V33.8182H28.0494V32.4545H31.9911ZM28.9442 30.8864H30.7596V36.9886C30.7596 37.1562 30.7852 37.2869 30.8363 37.3807C30.8874 37.4716 30.9585 37.5355 31.0494 37.5724C31.1431 37.6094 31.2511 37.6278 31.3732 37.6278C31.4585 37.6278 31.5437 37.6207 31.6289 37.6065C31.7141 37.5895 31.7795 37.5767 31.8249 37.5682L32.1104 38.919C32.0195 38.9474 31.8917 38.9801 31.7269 39.017C31.5621 39.0568 31.3619 39.081 31.1261 39.0895C30.6886 39.1065 30.305 39.0483 29.9755 38.9148C29.6488 38.7812 29.3945 38.5739 29.2127 38.2926C29.0309 38.0114 28.9414 37.6562 28.9442 37.2273V30.8864ZM33.1737 39V32.4545H34.989V39H33.1737ZM34.0856 31.6108C33.8157 31.6108 33.5842 31.5213 33.391 31.3423C33.2006 31.1605 33.1055 30.9432 33.1055 30.6903C33.1055 30.4403 33.2006 30.2259 33.391 30.0469C33.5842 29.8651 33.8157 29.7741 34.0856 29.7741C34.3555 29.7741 34.5856 29.8651 34.7759 30.0469C34.9691 30.2259 35.0657 30.4403 35.0657 30.6903C35.0657 30.9432 34.9691 31.1605 34.7759 31.3423C34.5856 31.5213 34.3555 31.6108 34.0856 31.6108ZM39.4006 39.1278C38.7301 39.1278 38.1534 38.9858 37.6705 38.7017C37.1903 38.4148 36.821 38.017 36.5625 37.5085C36.3068 37 36.179 36.4148 36.179 35.7528C36.179 35.0824 36.3082 34.4943 36.5668 33.9886C36.8281 33.4801 37.1989 33.0838 37.679 32.7997C38.1591 32.5128 38.7301 32.3693 39.392 32.3693C39.9631 32.3693 40.4631 32.473 40.892 32.6804C41.321 32.8878 41.6605 33.179 41.9105 33.554C42.1605 33.929 42.2983 34.3693 42.3239 34.875H40.6108C40.5625 34.5483 40.4347 34.2855 40.2273 34.0866C40.0227 33.8849 39.7543 33.7841 39.4219 33.7841C39.1406 33.7841 38.8949 33.8608 38.6847 34.0142C38.4773 34.1648 38.3153 34.3849 38.1989 34.6747C38.0824 34.9645 38.0241 35.3153 38.0241 35.7273C38.0241 36.1449 38.081 36.5 38.1946 36.7926C38.3111 37.0852 38.4744 37.3082 38.6847 37.4616C38.8949 37.6151 39.1406 37.6918 39.4219 37.6918C39.6293 37.6918 39.8153 37.6491 39.9801 37.5639C40.1477 37.4787 40.2855 37.3551 40.3935 37.1932C40.5043 37.0284 40.5767 36.831 40.6108 36.6009H42.3239C42.2955 37.1009 42.1591 37.5412 41.9148 37.9219C41.6733 38.2997 41.3395 38.5952 40.9134 38.8082C40.4872 39.0213 39.983 39.1278 39.4006 39.1278ZM51.032 32.7827C50.9979 32.4389 50.8516 32.1719 50.593 31.9815C50.3345 31.7912 49.9837 31.696 49.5405 31.696C49.2393 31.696 48.9851 31.7386 48.7777 31.8239C48.5703 31.9062 48.4112 32.0213 48.3004 32.169C48.1925 32.3168 48.1385 32.4844 48.1385 32.6719C48.1328 32.8281 48.1655 32.9645 48.2365 33.081C48.3104 33.1974 48.4112 33.2983 48.5391 33.3835C48.6669 33.4659 48.8146 33.5384 48.9822 33.6009C49.1499 33.6605 49.3288 33.7116 49.5192 33.7543L50.3033 33.9418C50.6839 34.027 51.0334 34.1406 51.3516 34.2827C51.6697 34.4247 51.9453 34.5994 52.1783 34.8068C52.4112 35.0142 52.5916 35.2585 52.7195 35.5398C52.8501 35.821 52.9169 36.1435 52.9197 36.5071C52.9169 37.0412 52.7805 37.5043 52.5107 37.8963C52.2436 38.2855 51.8572 38.5881 51.3516 38.804C50.8487 39.017 50.2422 39.1236 49.532 39.1236C48.8274 39.1236 48.2138 39.0156 47.6911 38.7997C47.1712 38.5838 46.7649 38.2642 46.4723 37.8409C46.1825 37.4148 46.0305 36.8878 46.0163 36.2599H47.8018C47.8217 36.5526 47.9055 36.7969 48.0533 36.9929C48.2038 37.1861 48.4041 37.3324 48.6541 37.4318C48.907 37.5284 49.1925 37.5767 49.5107 37.5767C49.8232 37.5767 50.0945 37.5312 50.3246 37.4403C50.5575 37.3494 50.7379 37.223 50.8658 37.0611C50.9936 36.8991 51.0575 36.7131 51.0575 36.5028C51.0575 36.3068 50.9993 36.142 50.8828 36.0085C50.7692 35.875 50.6016 35.7614 50.38 35.6676C50.1612 35.5739 49.8928 35.4886 49.5746 35.4119L48.6243 35.1733C47.8885 34.9943 47.3075 34.7145 46.8814 34.3338C46.4553 33.9531 46.2436 33.4403 46.2464 32.7955C46.2436 32.267 46.3842 31.8054 46.6683 31.4105C46.9553 31.0156 47.3487 30.7074 47.8487 30.4858C48.3487 30.2642 48.9169 30.1534 49.5533 30.1534C50.201 30.1534 50.7663 30.2642 51.2493 30.4858C51.7351 30.7074 52.1129 31.0156 52.3828 31.4105C52.6527 31.8054 52.7919 32.2628 52.8004 32.7827H51.032ZM57.6083 32.4545V33.8182H53.6665V32.4545H57.6083ZM54.5614 30.8864H56.3768V36.9886C56.3768 37.1562 56.4023 37.2869 56.4535 37.3807C56.5046 37.4716 56.5756 37.5355 56.6665 37.5724C56.7603 37.6094 56.8683 37.6278 56.9904 37.6278C57.0756 37.6278 57.1609 37.6207 57.2461 37.6065C57.3313 37.5895 57.3967 37.5767 57.4421 37.5682L57.7276 38.919C57.6367 38.9474 57.5089 38.9801 57.3441 39.017C57.1793 39.0568 56.979 39.081 56.7433 39.0895C56.3058 39.1065 55.9222 39.0483 55.5927 38.9148C55.266 38.7812 55.0117 38.5739 54.8299 38.2926C54.6481 38.0114 54.5586 37.6562 54.5614 37.2273V30.8864ZM61.6779 39.1278C61.016 39.1278 60.4435 38.9872 59.9606 38.706C59.4805 38.4219 59.1097 38.027 58.8484 37.5213C58.587 37.0128 58.4563 36.4233 58.4563 35.7528C58.4563 35.0767 58.587 34.4858 58.8484 33.9801C59.1097 33.4716 59.4805 33.0767 59.9606 32.7955C60.4435 32.5114 61.016 32.3693 61.6779 32.3693C62.3398 32.3693 62.9109 32.5114 63.391 32.7955C63.8739 33.0767 64.2461 33.4716 64.5075 33.9801C64.7688 34.4858 64.8995 35.0767 64.8995 35.7528C64.8995 36.4233 64.7688 37.0128 64.5075 37.5213C64.2461 38.027 63.8739 38.4219 63.391 38.706C62.9109 38.9872 62.3398 39.1278 61.6779 39.1278ZM61.6864 37.7216C61.9876 37.7216 62.239 37.6364 62.4407 37.4659C62.6424 37.2926 62.7944 37.0568 62.8967 36.7585C63.0018 36.4602 63.0543 36.1207 63.0543 35.7401C63.0543 35.3594 63.0018 35.0199 62.8967 34.7216C62.7944 34.4233 62.6424 34.1875 62.4407 34.0142C62.239 33.8409 61.9876 33.7543 61.6864 33.7543C61.3825 33.7543 61.1268 33.8409 60.9194 34.0142C60.7148 34.1875 60.56 34.4233 60.4549 34.7216C60.3526 35.0199 60.3015 35.3594 60.3015 35.7401C60.3015 36.1207 60.3526 36.4602 60.4549 36.7585C60.56 37.0568 60.7148 37.2926 60.9194 37.4659C61.1268 37.6364 61.3825 37.7216 61.6864 37.7216ZM66.0799 39V32.4545H67.8398V33.5966H67.908C68.0273 33.1903 68.2276 32.8835 68.5089 32.6761C68.7901 32.4659 69.114 32.3608 69.4805 32.3608C69.5714 32.3608 69.6694 32.3665 69.7745 32.3778C69.8796 32.3892 69.9719 32.4048 70.0515 32.4247V34.0355C69.9663 34.0099 69.8484 33.9872 69.6978 33.9673C69.5472 33.9474 69.4094 33.9375 69.2844 33.9375C69.0174 33.9375 68.7788 33.9957 68.5685 34.1122C68.3612 34.2259 68.1964 34.3849 68.0742 34.5895C67.9549 34.794 67.8952 35.0298 67.8952 35.2969V39H66.0799ZM72.669 39.1236C72.2514 39.1236 71.8793 39.0511 71.5526 38.9062C71.2259 38.7585 70.9673 38.5412 70.777 38.2543C70.5895 37.9645 70.4957 37.6037 70.4957 37.1719C70.4957 36.8082 70.5625 36.5028 70.696 36.2557C70.8295 36.0085 71.0114 35.8097 71.2415 35.6591C71.4716 35.5085 71.733 35.3949 72.0256 35.3182C72.321 35.2415 72.6307 35.1875 72.9545 35.1562C73.3352 35.1165 73.642 35.0795 73.875 35.0455C74.108 35.0085 74.277 34.9545 74.3821 34.8835C74.4872 34.8125 74.5398 34.7074 74.5398 34.5682V34.5426C74.5398 34.2727 74.4545 34.0639 74.2841 33.9162C74.1165 33.7685 73.8778 33.6946 73.5682 33.6946C73.2415 33.6946 72.9815 33.767 72.7884 33.9119C72.5952 34.054 72.4673 34.233 72.4048 34.4489L70.7259 34.3125C70.8111 33.9148 70.9787 33.571 71.2287 33.2812C71.4787 32.9886 71.8011 32.7642 72.196 32.608C72.5938 32.4489 73.054 32.3693 73.5767 32.3693C73.9403 32.3693 74.2884 32.4119 74.6207 32.4972C74.956 32.5824 75.2528 32.7145 75.5114 32.8935C75.7727 33.0724 75.9787 33.3026 76.1293 33.5838C76.2798 33.8622 76.3551 34.196 76.3551 34.5852V39H74.6335V38.0923H74.5824C74.4773 38.2969 74.3366 38.4773 74.1605 38.6335C73.9844 38.7869 73.7727 38.9077 73.5256 38.9957C73.2784 39.081 72.9929 39.1236 72.669 39.1236ZM73.1889 37.8707C73.456 37.8707 73.6918 37.8182 73.8963 37.7131C74.1009 37.6051 74.2614 37.4602 74.3778 37.2784C74.4943 37.0966 74.5526 36.8906 74.5526 36.6605V35.9659C74.4957 36.0028 74.4176 36.0369 74.3182 36.0682C74.2216 36.0966 74.1122 36.1236 73.9901 36.1491C73.8679 36.1719 73.7457 36.1932 73.6236 36.2131C73.5014 36.2301 73.3906 36.2457 73.2912 36.2599C73.0781 36.2912 72.892 36.3409 72.733 36.4091C72.5739 36.4773 72.4503 36.5696 72.3622 36.6861C72.2741 36.7997 72.2301 36.9418 72.2301 37.1122C72.2301 37.3594 72.3196 37.5483 72.4986 37.679C72.6804 37.8068 72.9105 37.8707 73.1889 37.8707ZM80.7124 41.5909C80.1243 41.5909 79.62 41.5099 79.1996 41.348C78.782 41.1889 78.4496 40.9716 78.2024 40.696C77.9553 40.4205 77.7947 40.1108 77.7209 39.767L79.3999 39.5412C79.451 39.6719 79.532 39.794 79.6428 39.9077C79.7536 40.0213 79.8999 40.1122 80.0817 40.1804C80.2663 40.2514 80.4908 40.2869 80.755 40.2869C81.1499 40.2869 81.4751 40.1903 81.7308 39.9972C81.9893 39.8068 82.1186 39.4872 82.1186 39.0384V37.8409H82.0419C81.9624 38.0227 81.843 38.1946 81.6839 38.3565C81.5249 38.5185 81.3203 38.6506 81.0703 38.7528C80.8203 38.8551 80.522 38.9062 80.1754 38.9062C79.6839 38.9062 79.2365 38.7926 78.8331 38.5653C78.4325 38.3352 78.1129 37.9844 77.8743 37.5128C77.6385 37.0384 77.5206 36.4389 77.5206 35.7145C77.5206 34.973 77.6413 34.3537 77.8828 33.8565C78.1243 33.3594 78.4453 32.9872 78.8459 32.7401C79.2493 32.4929 79.6911 32.3693 80.1712 32.3693C80.5376 32.3693 80.8445 32.4318 81.0916 32.5568C81.3388 32.679 81.5376 32.8324 81.6882 33.017C81.8416 33.1989 81.9595 33.3778 82.0419 33.554H82.1101V32.4545H83.9126V39.0639C83.9126 39.6207 83.7763 40.0866 83.5036 40.4616C83.2308 40.8366 82.853 41.1179 82.37 41.3054C81.8899 41.4957 81.3374 41.5909 80.7124 41.5909ZM80.7507 37.5426C81.0433 37.5426 81.2905 37.4702 81.4922 37.3253C81.6967 37.1776 81.853 36.9673 81.9609 36.6946C82.0717 36.419 82.1271 36.0895 82.1271 35.706C82.1271 35.3224 82.0732 34.9901 81.9652 34.7088C81.8572 34.4247 81.701 34.2045 81.4964 34.0483C81.2919 33.892 81.0433 33.8139 80.7507 33.8139C80.4524 33.8139 80.201 33.8949 79.9964 34.0568C79.7919 34.2159 79.6371 34.4375 79.532 34.7216C79.4268 35.0057 79.3743 35.3338 79.3743 35.706C79.3743 36.0838 79.4268 36.4105 79.532 36.6861C79.6399 36.9588 79.7947 37.1705 79.9964 37.321C80.201 37.4687 80.4524 37.5426 80.7507 37.5426ZM88.3402 39.1278C87.6669 39.1278 87.0874 38.9915 86.6016 38.7188C86.1186 38.4432 85.7464 38.054 85.4851 37.5511C85.2237 37.0455 85.093 36.4474 85.093 35.7571C85.093 35.0838 85.2237 34.4929 85.4851 33.9844C85.7464 33.4759 86.1143 33.0795 86.5888 32.7955C87.0661 32.5114 87.6257 32.3693 88.2678 32.3693C88.6996 32.3693 89.1016 32.4389 89.4737 32.5781C89.8487 32.7145 90.1754 32.9205 90.4538 33.196C90.7351 33.4716 90.9538 33.8182 91.1101 34.2358C91.2663 34.6506 91.3445 35.1364 91.3445 35.6932V36.1918H85.8175V35.0668H89.6357C89.6357 34.8054 89.5788 34.5739 89.4652 34.3722C89.3516 34.1705 89.1939 34.0128 88.9922 33.8991C88.7933 33.7827 88.5618 33.7244 88.2976 33.7244C88.022 33.7244 87.7777 33.7884 87.5646 33.9162C87.3544 34.0412 87.1896 34.2102 87.0703 34.4233C86.951 34.6335 86.8899 34.8679 86.8871 35.1264V36.196C86.8871 36.5199 86.9467 36.7997 87.0661 37.0355C87.1882 37.2713 87.3601 37.4531 87.5817 37.581C87.8033 37.7088 88.0661 37.7727 88.37 37.7727C88.5717 37.7727 88.7564 37.7443 88.924 37.6875C89.0916 37.6307 89.2351 37.5455 89.3544 37.4318C89.4737 37.3182 89.5646 37.179 89.6271 37.0142L91.3061 37.125C91.2209 37.5284 91.0462 37.8807 90.782 38.1818C90.5206 38.4801 90.1825 38.7131 89.7678 38.8807C89.3558 39.0455 88.88 39.1278 88.3402 39.1278ZM24.4373 54H21.4799V45.2727H24.497C25.3635 45.2727 26.1078 45.4474 26.7299 45.7969C27.3549 46.1435 27.8351 46.642 28.1703 47.2926C28.5055 47.9432 28.6731 48.7216 28.6731 49.6278C28.6731 50.5369 28.5041 51.3182 28.166 51.9716C27.8308 52.625 27.3464 53.1264 26.7129 53.4759C26.0822 53.8253 25.3237 54 24.4373 54ZM23.0609 52.6321H24.3606C24.9686 52.6321 25.4757 52.5213 25.8819 52.2997C26.2882 52.0753 26.5936 51.7415 26.7981 51.2983C27.0027 50.8523 27.1049 50.2955 27.1049 49.6278C27.1049 48.9602 27.0027 48.4062 26.7981 47.9659C26.5936 47.5227 26.291 47.1918 25.8904 46.973C25.4927 46.7514 24.9984 46.6406 24.4075 46.6406H23.0609V52.6321ZM34.2789 51.2472V47.4545H35.8216V54H34.3258V52.8366H34.2576C34.1099 53.2031 33.867 53.5028 33.5289 53.7358C33.1937 53.9687 32.7804 54.0852 32.2889 54.0852C31.8599 54.0852 31.4806 53.9901 31.1511 53.7997C30.8244 53.6065 30.5687 53.3267 30.3841 52.9602C30.1994 52.5909 30.1071 52.1449 30.1071 51.6222V47.4545H31.6497V51.3835C31.6497 51.7983 31.7633 52.1278 31.9906 52.3722C32.2179 52.6165 32.5162 52.7386 32.8855 52.7386C33.1127 52.7386 33.3329 52.6832 33.546 52.5724C33.7591 52.4616 33.9338 52.2969 34.0701 52.0781C34.2093 51.8565 34.2789 51.5795 34.2789 51.2472ZM40.6763 47.4545V48.6477H36.9135V47.4545H40.6763ZM37.8425 45.8864H39.3851V52.0312C39.3851 52.2386 39.4164 52.3977 39.4789 52.5085C39.5442 52.6165 39.6294 52.6903 39.7346 52.7301C39.8397 52.7699 39.9561 52.7898 40.084 52.7898C40.1806 52.7898 40.2686 52.7827 40.3482 52.7685C40.4306 52.7543 40.4931 52.7415 40.5357 52.7301L40.7956 53.9361C40.7132 53.9645 40.5953 53.9957 40.4419 54.0298C40.2914 54.0639 40.1067 54.0838 39.888 54.0895C39.5016 54.1009 39.1536 54.0426 38.8439 53.9148C38.5343 53.7841 38.2885 53.5824 38.1067 53.3097C37.9277 53.0369 37.8397 52.696 37.8425 52.2869V45.8864ZM42.9252 56.4545C42.715 56.4545 42.5204 56.4375 42.3414 56.4034C42.1653 56.3722 42.0247 56.3352 41.9196 56.2926L42.2775 55.0909C42.502 55.1563 42.7022 55.1875 42.8784 55.1847C43.0545 55.1818 43.2093 55.1264 43.3429 55.0185C43.4792 54.9134 43.5943 54.7372 43.688 54.4901L43.8201 54.1364L41.4466 47.4545H43.0829L44.5914 52.3977H44.6596L46.1724 47.4545H47.813L45.1923 54.7926C45.0701 55.1392 44.9082 55.4361 44.7065 55.6832C44.5048 55.9332 44.2576 56.1236 43.965 56.2543C43.6752 56.3878 43.3287 56.4545 42.9252 56.4545ZM51.9252 54V45.2727H53.5062V52.6747H57.35V54H51.9252ZM58.6539 54V47.4545H60.1966V54H58.6539ZM59.4295 46.5256C59.1852 46.5256 58.975 46.4446 58.7988 46.2827C58.6227 46.1179 58.5346 45.9205 58.5346 45.6903C58.5346 45.4574 58.6227 45.2599 58.7988 45.098C58.975 44.9332 59.1852 44.8509 59.4295 44.8509C59.6767 44.8509 59.8869 44.9332 60.0602 45.098C60.2363 45.2599 60.3244 45.4574 60.3244 45.6903C60.3244 45.9205 60.2363 46.1179 60.0602 46.2827C59.8869 46.4446 59.6767 46.5256 59.4295 46.5256ZM65.0982 47.4545V48.6477H61.2289V47.4545H65.0982ZM62.1962 54V46.8366C62.1962 46.3963 62.2871 46.0298 62.4689 45.7372C62.6536 45.4446 62.9007 45.2259 63.2104 45.081C63.5201 44.9361 63.8638 44.8636 64.2417 44.8636C64.5087 44.8636 64.7459 44.8849 64.9533 44.9276C65.1607 44.9702 65.3141 45.0085 65.4135 45.0426L65.1067 46.2358C65.0414 46.2159 64.959 46.196 64.8596 46.1761C64.7601 46.1534 64.6493 46.142 64.5272 46.142C64.2402 46.142 64.0371 46.2116 63.9178 46.3509C63.8013 46.4872 63.7431 46.6832 63.7431 46.9389V54H62.1962ZM68.9579 54.1278C68.3017 54.1278 67.7349 53.9915 67.2576 53.7188C66.7832 53.4432 66.4181 53.054 66.1625 52.5511C65.9068 52.0455 65.7789 51.4503 65.7789 50.7656C65.7789 50.0923 65.9068 49.5014 66.1625 48.9929C66.421 48.4815 66.7818 48.0838 67.2449 47.7997C67.7079 47.5128 68.252 47.3693 68.877 47.3693C69.2804 47.3693 69.661 47.4347 70.019 47.5653C70.3798 47.6932 70.698 47.892 70.9735 48.1619C71.252 48.4318 71.4707 48.7756 71.6298 49.1932C71.7889 49.608 71.8684 50.1023 71.8684 50.6761V51.1491H66.5034V50.1094H70.3897C70.3869 49.8139 70.323 49.5511 70.198 49.321C70.073 49.0881 69.8983 48.9048 69.6738 48.7713C69.4522 48.6378 69.1937 48.571 68.8983 48.571C68.5829 48.571 68.3059 48.6477 68.0673 48.8011C67.8287 48.9517 67.6426 49.1506 67.5091 49.3977C67.3784 49.642 67.3116 49.9105 67.3088 50.2031V51.1108C67.3088 51.4915 67.3784 51.8182 67.5176 52.0909C67.6568 52.3608 67.8514 52.5682 68.1014 52.7131C68.3514 52.8551 68.644 52.9261 68.9792 52.9261C69.2037 52.9261 69.4068 52.8949 69.5886 52.8324C69.7704 52.767 69.9281 52.6719 70.0616 52.5469C70.1951 52.4219 70.296 52.267 70.3642 52.0824L71.8045 52.2443C71.7136 52.625 71.5403 52.9574 71.2846 53.2415C71.0318 53.5227 70.7079 53.7415 70.313 53.8977C69.9181 54.0511 69.4664 54.1278 68.9579 54.1278Z" fill="white"/>
<path d="M9.46005 19.1989C8.43732 19.1989 7.52823 19.0237 6.73278 18.6733C5.94206 18.3229 5.31706 17.8352 4.85778 17.2102C4.3985 16.5852 4.15465 15.8632 4.12624 15.044H6.7967C6.82037 15.437 6.95058 15.7803 7.18732 16.0739C7.42406 16.3627 7.73893 16.5876 8.13192 16.7486C8.52492 16.9096 8.96526 16.9901 9.45295 16.9901C9.97378 16.9901 10.4354 16.9001 10.8379 16.7202C11.2404 16.5355 11.5552 16.2798 11.7825 15.9531C12.0098 15.6264 12.121 15.25 12.1163 14.8239C12.121 14.3835 12.0074 13.9953 11.7754 13.6591C11.5434 13.3229 11.2072 13.0601 10.7669 12.8707C10.3313 12.6813 9.80569 12.5866 9.19016 12.5866H7.90465V10.5554H9.19016C9.69679 10.5554 10.1395 10.4678 10.5183 10.2926C10.9018 10.1174 11.2025 9.87121 11.4203 9.55398C11.6381 9.23201 11.7446 8.86032 11.7399 8.43892C11.7446 8.02699 11.6523 7.66951 11.4629 7.36648C11.2782 7.05871 11.0154 6.8196 10.6745 6.64915C10.3384 6.47869 9.943 6.39347 9.48846 6.39347C9.04338 6.39347 8.63145 6.47396 8.25266 6.63494C7.87388 6.79593 7.56848 7.02557 7.33647 7.32386C7.10446 7.61742 6.98136 7.9678 6.96715 8.375H4.43164C4.45058 7.56061 4.68496 6.84564 5.13477 6.23011C5.58931 5.60985 6.19537 5.12689 6.95295 4.78125C7.71052 4.43087 8.56043 4.25568 9.50266 4.25568C10.4733 4.25568 11.3161 4.43797 12.0311 4.80256C12.7508 5.1624 13.3071 5.64773 13.7001 6.25852C14.0931 6.86932 14.2896 7.54403 14.2896 8.28267C14.2943 9.1018 14.0529 9.78835 13.5652 10.3423C13.0822 10.8963 12.4477 11.2585 11.6618 11.429V11.5426C12.6845 11.6847 13.4681 12.0634 14.0126 12.679C14.5618 13.2898 14.8341 14.0497 14.8294 14.9588C14.8294 15.7732 14.5974 16.5024 14.1333 17.1463C13.6741 17.7855 13.0396 18.2874 12.2299 18.652C11.425 19.0166 10.5017 19.1989 9.46005 19.1989ZM22.6436 19.277C21.4741 19.277 20.4703 18.9811 19.6323 18.3892C18.7989 17.7926 18.1574 16.9332 17.7076 15.8111C17.2625 14.6842 17.04 13.3277 17.04 11.7415C17.0447 10.1553 17.2696 8.80587 17.7147 7.69318C18.1645 6.57576 18.806 5.72348 19.6394 5.13636C20.4775 4.54924 21.4789 4.25568 22.6436 4.25568C23.8084 4.25568 24.8098 4.54924 25.6479 5.13636C26.486 5.72348 27.1275 6.57576 27.5726 7.69318C28.0224 8.81061 28.2473 10.16 28.2473 11.7415C28.2473 13.3324 28.0224 14.6913 27.5726 15.8182C27.1275 16.9403 26.486 17.7973 25.6479 18.3892C24.8146 18.9811 23.8132 19.277 22.6436 19.277ZM22.6436 17.054C23.5527 17.054 24.2701 16.6065 24.7956 15.7116C25.3259 14.812 25.5911 13.4886 25.5911 11.7415C25.5911 10.5862 25.4703 9.61553 25.2289 8.82955C24.9874 8.04356 24.6465 7.4517 24.2061 7.05398C23.7658 6.65152 23.245 6.45028 22.6436 6.45028C21.7393 6.45028 21.0243 6.90009 20.4988 7.79972C19.9732 8.6946 19.708 10.0085 19.7033 11.7415C19.6986 12.9015 19.8146 13.8769 20.0513 14.6676C20.2928 15.4583 20.6337 16.0549 21.074 16.4574C21.5144 16.8551 22.0376 17.054 22.6436 17.054ZM34.9252 16.6705V6.84091H37.1554V16.6705H34.9252ZM31.1255 12.8707V10.6406H40.9551V12.8707H31.1255ZM48.1728 4.45455H51.1486L54.7069 10.8892H54.8489L58.4071 4.45455H61.383L56.0918 13.5739V19H53.464V13.5739L48.1728 4.45455ZM65.9338 19.2131C64.84 19.2131 63.8954 18.9858 63.1 18.5312C62.3092 18.072 61.7008 17.4233 61.2747 16.5852C60.8485 15.7424 60.6355 14.7505 60.6355 13.6094C60.6355 12.4872 60.8485 11.5024 61.2747 10.6548C61.7056 9.80256 62.3069 9.13968 63.0787 8.66619C63.8504 8.18797 64.7572 7.94886 65.7988 7.94886C66.4712 7.94886 67.1056 8.05777 67.7022 8.27557C68.3036 8.48864 68.8339 8.82008 69.2931 9.26989C69.7572 9.7197 70.1217 10.2926 70.3869 10.9886C70.652 11.6799 70.7846 12.5038 70.7846 13.4602V14.2486H61.8429V12.5156H68.3201C68.3154 12.0232 68.2089 11.5852 68.0005 11.2017C67.7922 10.8134 67.501 10.508 67.127 10.2855C66.7576 10.063 66.3268 9.9517 65.8343 9.9517C65.3088 9.9517 64.8471 10.0795 64.4494 10.3352C64.0517 10.5862 63.7415 10.9176 63.519 11.3295C63.3012 11.7367 63.1899 12.1842 63.1852 12.6719V14.1847C63.1852 14.8191 63.3012 15.3636 63.5332 15.8182C63.7652 16.268 64.0895 16.6136 64.5062 16.8551C64.9229 17.0919 65.4106 17.2102 65.9693 17.2102C66.3433 17.2102 66.6819 17.1581 66.9849 17.054C67.2879 16.9451 67.5507 16.7865 67.7733 16.5781C67.9958 16.3698 68.1639 16.1117 68.2775 15.804L70.6781 16.0739C70.5266 16.7083 70.2377 17.2623 69.8116 17.7358C69.3902 18.2045 68.8504 18.5691 68.1923 18.8295C67.5342 19.0852 66.7813 19.2131 65.9338 19.2131ZM76.0989 19.2202C75.4076 19.2202 74.785 19.0971 74.231 18.8509C73.6818 18.5999 73.2462 18.2306 72.9242 17.7429C72.6069 17.2552 72.4483 16.6539 72.4483 15.9389C72.4483 15.3234 72.562 14.8144 72.7892 14.4119C73.0165 14.0095 73.3266 13.6875 73.7196 13.446C74.1126 13.2045 74.5553 13.0223 75.0478 12.8991C75.5449 12.7713 76.0587 12.679 76.589 12.6222C77.2282 12.5559 77.7466 12.4967 78.1444 12.4446C78.5421 12.3878 78.8309 12.3026 79.0108 12.1889C79.1955 12.0705 79.2878 11.8883 79.2878 11.642V11.5994C79.2878 11.0644 79.1292 10.6501 78.812 10.3565C78.4947 10.063 78.0378 9.91619 77.4412 9.91619C76.8115 9.91619 76.312 10.0535 75.9426 10.3281C75.5781 10.6027 75.3319 10.9271 75.204 11.3011L72.8034 10.9602C72.9928 10.2973 73.3053 9.74337 73.7409 9.2983C74.1766 8.84848 74.7092 8.51231 75.339 8.28977C75.9687 8.0625 76.6647 7.94886 77.427 7.94886C77.9526 7.94886 78.4758 8.01042 78.9966 8.13352C79.5175 8.25663 79.9933 8.46023 80.4242 8.74432C80.8551 9.02367 81.2007 9.40483 81.4611 9.88778C81.7263 10.3707 81.8588 10.9744 81.8588 11.6989V19H79.3873V17.5014H79.302C79.1458 17.8045 78.9256 18.0885 78.6415 18.3537C78.3622 18.6141 78.0094 18.8248 77.5833 18.9858C77.1619 19.142 76.6671 19.2202 76.0989 19.2202ZM76.7665 17.331C77.2826 17.331 77.7301 17.2292 78.1088 17.0256C78.4876 16.8172 78.7788 16.5426 78.9824 16.2017C79.1908 15.8608 79.2949 15.4891 79.2949 15.0866V13.8011C79.2144 13.8674 79.0771 13.929 78.883 13.9858C78.6936 14.0426 78.4805 14.0923 78.2438 14.1349C78.007 14.1776 77.7727 14.2154 77.5407 14.2486C77.3087 14.2817 77.1074 14.3101 76.937 14.3338C76.5534 14.3859 76.2102 14.4711 75.9071 14.5895C75.6041 14.7079 75.365 14.8736 75.1898 15.0866C75.0146 15.295 74.927 15.5649 74.927 15.8963C74.927 16.3698 75.0998 16.7273 75.4455 16.9688C75.7911 17.2102 76.2315 17.331 76.7665 17.331ZM84.4441 19V8.09091H86.937V9.90909H87.0506C87.2495 9.27936 87.5904 8.79403 88.0733 8.45312C88.561 8.10748 89.1174 7.93466 89.7424 7.93466C89.8844 7.93466 90.043 7.94176 90.2182 7.95597C90.3981 7.96544 90.5473 7.98201 90.6657 8.00568V10.3707C90.5568 10.3329 90.3839 10.2997 90.1472 10.2713C89.9152 10.2382 89.6903 10.2216 89.4725 10.2216C89.0037 10.2216 88.5823 10.3234 88.2083 10.527C87.839 10.7259 87.5478 11.0028 87.3347 11.358C87.1216 11.7131 87.0151 12.1226 87.0151 12.5866V19H84.4441Z" fill="white"/>
</svg>
