<svg width="163" height="162" viewBox="0 0 163 162" fill="none" xmlns="http://www.w3.org/2000/svg">
<path d="M81.2919 0L94.5477 19.3867L114.538 7.07069L118.767 30.1759L142.036 27.0602L136.507 49.8888L159.031 56.512L144.699 75.1169L162.584 90.3339L141.928 101.498L152.08 122.677L128.672 124.47L129.337 147.95L107.224 140.062L98.2865 161.783L81.2919 145.577L64.2972 161.783L55.3596 140.062L33.2465 147.95L33.9112 124.47L10.5033 122.677L20.6554 101.498L0 90.3339L17.8842 75.1169L3.55284 56.512L26.0768 49.8888L20.5475 27.0602L43.8165 30.1759L48.0453 7.07069L68.036 19.3867L81.2919 0Z" fill="#8205E9"/>
<path d="M43.9291 36.6804H46.4593V42.6508C46.4593 43.3607 46.2894 43.975 45.9496 44.4938C45.6129 45.0095 45.1426 45.4084 44.5389 45.6906C43.9352 45.9697 43.2344 46.1092 42.4365 46.1092C41.6326 46.1092 40.9288 45.9697 40.3251 45.6906C39.7214 45.4084 39.2511 45.0095 38.9144 44.4938C38.5807 43.975 38.4138 43.3607 38.4138 42.6508V36.6804H40.9439V42.4323C40.9439 42.7205 41.0077 42.9784 41.1351 43.2059C41.2625 43.4304 41.4384 43.6064 41.6629 43.7338C41.8905 43.8612 42.1483 43.9249 42.4365 43.9249C42.7278 43.9249 42.9856 43.8612 43.2101 43.7338C43.4346 43.6064 43.6106 43.4304 43.738 43.2059C43.8654 42.9784 43.9291 42.7205 43.9291 42.4323V36.6804ZM47.6982 48.6211V39.0103H50.1919V40.2298H50.2465C50.3375 39.9932 50.471 39.7763 50.647 39.5791C50.8229 39.3789 51.0413 39.2196 51.3022 39.1013C51.5631 38.9799 51.8665 38.9193 52.2124 38.9193C52.6735 38.9193 53.1119 39.0421 53.5275 39.2879C53.9461 39.5336 54.2859 39.9204 54.5468 40.4483C54.8108 40.9761 54.9427 41.6618 54.9427 42.5051C54.9427 43.3121 54.8168 43.9811 54.565 44.512C54.3163 45.0429 53.9825 45.4388 53.5639 45.6997C53.1483 45.9606 52.6917 46.091 52.1942 46.091C51.8665 46.091 51.5738 46.0379 51.3159 45.9317C51.0611 45.8225 50.8426 45.6754 50.6606 45.4903C50.4816 45.3022 50.3436 45.0899 50.2465 44.8532H50.2101V48.6211H47.6982ZM50.1555 42.5051C50.1555 42.8449 50.1995 43.1392 50.2875 43.388C50.3785 43.6337 50.5059 43.8248 50.6697 43.9613C50.8366 44.0948 51.0353 44.1616 51.2658 44.1616C51.4964 44.1616 51.6921 44.0963 51.8529 43.9659C52.0167 43.8324 52.1411 43.6428 52.226 43.3971C52.314 43.1483 52.358 42.851 52.358 42.5051C52.358 42.1593 52.314 41.8635 52.226 41.6178C52.1411 41.369 52.0167 41.1794 51.8529 41.049C51.6921 40.9155 51.4964 40.8487 51.2658 40.8487C51.0353 40.8487 50.8366 40.9155 50.6697 41.049C50.5059 41.1794 50.3785 41.369 50.2875 41.6178C50.1995 41.8635 50.1555 42.1593 50.1555 42.5051ZM62.7163 39.0103V40.8305H58.1111V39.0103H62.7163ZM59.003 37.3357H61.5149V43.752C61.5149 43.8491 61.5316 43.931 61.565 43.9977C61.5983 44.0614 61.6499 44.11 61.7197 44.1434C61.7895 44.1737 61.879 44.1889 61.9882 44.1889C62.064 44.1889 62.152 44.1798 62.2521 44.1616C62.3553 44.1434 62.4311 44.1282 62.4796 44.1161L62.8437 45.8817C62.7314 45.9151 62.5707 45.956 62.3613 46.0046C62.155 46.0531 61.9093 46.0849 61.6241 46.1001C61.0477 46.1305 60.5638 46.0713 60.1725 45.9226C59.7811 45.771 59.4869 45.5328 59.2897 45.2082C59.0925 44.8836 58.9969 44.4771 59.003 43.9886V37.3357ZM67.0337 46.1274C66.2752 46.1274 65.626 45.9772 65.086 45.6769C64.546 45.3735 64.1319 44.9518 63.8437 44.4118C63.5555 43.8688 63.4114 43.2393 63.4114 42.5233C63.4114 41.8074 63.5555 41.1794 63.8437 40.6394C64.1319 40.0964 64.546 39.6747 65.086 39.3743C65.626 39.071 66.2752 38.9193 67.0337 38.9193C67.7921 38.9193 68.4413 39.071 68.9813 39.3743C69.5213 39.6747 69.9354 40.0964 70.2236 40.6394C70.5118 41.1794 70.6559 41.8074 70.6559 42.5233C70.6559 43.2393 70.5118 43.8688 70.2236 44.4118C69.9354 44.9518 69.5213 45.3735 68.9813 45.6769C68.4413 45.9772 67.7921 46.1274 67.0337 46.1274ZM67.0519 44.2708C67.2642 44.2708 67.4478 44.1995 67.6025 44.0569C67.7572 43.9143 67.877 43.711 67.962 43.4471C68.0469 43.1832 68.0894 42.8692 68.0894 42.5051C68.0894 42.1381 68.0469 41.8241 67.962 41.5632C67.877 41.2992 67.7572 41.096 67.6025 40.9534C67.4478 40.8108 67.2642 40.7395 67.0519 40.7395C66.8274 40.7395 66.6347 40.8108 66.4739 40.9534C66.3131 41.096 66.1903 41.2992 66.1053 41.5632C66.0204 41.8241 65.9779 42.1381 65.9779 42.5051C65.9779 42.8692 66.0204 43.1832 66.1053 43.4471C66.1903 43.711 66.3131 43.9143 66.4739 44.0569C66.6347 44.1995 66.8274 44.2708 67.0519 44.2708ZM77.8504 46.1274C77.1163 46.1274 76.464 46.0015 75.8937 45.7497C75.3264 45.4949 74.8804 45.1445 74.5558 44.6985C74.2312 44.2526 74.0674 43.7399 74.0643 43.1604H76.6127C76.6157 43.3394 76.6703 43.5002 76.7765 43.6428C76.8857 43.7823 77.0343 43.8916 77.2224 43.9704C77.4105 44.0493 77.6259 44.0887 77.8686 44.0887C78.1022 44.0887 78.3085 44.0478 78.4875 43.9659C78.6665 43.8809 78.806 43.7641 78.9062 43.6155C79.0063 43.4668 79.0548 43.2969 79.0518 43.1058C79.0548 42.9177 78.9972 42.7509 78.8789 42.6053C78.7636 42.4596 78.6013 42.3459 78.3919 42.264C78.1826 42.182 77.9414 42.1411 77.6684 42.1411H76.7219V40.3937H77.6684C77.9202 40.3937 78.1417 40.3527 78.3328 40.2708C78.5269 40.1889 78.6771 40.0751 78.7833 39.9295C78.8925 39.7839 78.9456 39.617 78.9426 39.4289C78.9456 39.2469 78.9016 39.0861 78.8106 38.9466C78.7196 38.807 78.5922 38.6978 78.4283 38.6189C78.2676 38.5401 78.081 38.5006 77.8686 38.5006C77.6381 38.5006 77.4318 38.5416 77.2497 38.6235C77.0708 38.7054 76.9297 38.8192 76.8265 38.9648C76.7234 39.1104 76.6703 39.2773 76.6673 39.4653H74.2464C74.2494 38.895 74.4056 38.3914 74.7151 37.9545C75.0275 37.5177 75.4553 37.1749 75.9983 36.9261C76.5414 36.6773 77.1648 36.553 77.8686 36.553C78.5573 36.553 79.1655 36.6698 79.6934 36.9034C80.2243 37.137 80.6384 37.4585 80.9357 37.8681C81.2361 38.2746 81.3847 38.7403 81.3817 39.2651C81.3878 39.7869 81.2088 40.2147 80.8447 40.5484C80.4837 40.8821 80.0256 41.0793 79.4704 41.14V41.2128C80.2228 41.2947 80.7886 41.5252 81.1678 41.9045C81.547 42.2806 81.7336 42.7539 81.7275 43.3242C81.7306 43.8703 81.5667 44.3542 81.2361 44.7759C80.9084 45.1976 80.4518 45.5283 79.8663 45.7679C79.2839 46.0076 78.6119 46.1274 77.8504 46.1274ZM86.9163 46.2548C86.0699 46.2518 85.3388 46.0561 84.723 45.6678C84.1071 45.2795 83.6323 44.7198 83.2986 43.9886C82.9649 43.2575 82.7996 42.3808 82.8026 41.3584C82.8056 40.333 82.9725 39.4623 83.3032 38.7463C83.6369 38.0304 84.1101 37.4858 84.723 37.1127C85.3388 36.7395 86.0699 36.553 86.9163 36.553C87.7628 36.553 88.4939 36.7411 89.1097 37.1172C89.7256 37.4904 90.2004 38.0349 90.5341 38.7509C90.8678 39.4669 91.0331 40.336 91.0301 41.3584C91.0301 42.3868 90.8632 43.2666 90.5295 43.9977C90.1958 44.7289 89.721 45.2886 89.1052 45.6769C88.4924 46.0622 87.7628 46.2548 86.9163 46.2548ZM86.9163 44.198C87.3532 44.198 87.7112 43.9704 87.9903 43.5154C88.2724 43.0573 88.412 42.3383 88.4089 41.3584C88.4089 40.7183 88.3452 40.195 88.2178 39.7884C88.0904 39.3819 87.9144 39.0816 87.6899 38.8874C87.4655 38.6902 87.2076 38.5916 86.9163 38.5916C86.4795 38.5916 86.123 38.8131 85.847 39.256C85.5709 39.6989 85.4298 40.3997 85.4238 41.3584C85.4207 42.0106 85.4829 42.5476 85.6103 42.9693C85.7377 43.388 85.9137 43.6974 86.1382 43.8976C86.3657 44.0979 86.6251 44.198 86.9163 44.198ZM97.5511 44.2526V43.7611C97.5511 43.3667 97.636 43.0027 97.8059 42.669C97.9788 42.3353 98.2291 42.0668 98.5568 41.8635C98.8844 41.6602 99.2833 41.5586 99.7536 41.5586C100.236 41.5586 100.641 41.6587 100.969 41.859C101.299 42.0592 101.55 42.3262 101.719 42.6599C101.889 42.9936 101.974 43.3607 101.974 43.7611V44.2526C101.974 44.647 101.888 45.011 101.715 45.3447C101.545 45.6784 101.295 45.9469 100.964 46.1502C100.633 46.3534 100.23 46.4551 99.7536 46.4551C99.2773 46.4551 98.8753 46.3534 98.5477 46.1502C98.22 45.9469 97.9713 45.6784 97.8014 45.3447C97.6345 45.011 97.5511 44.647 97.5511 44.2526ZM99.1347 43.7611V44.2526C99.1347 44.4255 99.1772 44.5969 99.2621 44.7668C99.3501 44.9336 99.5139 45.0171 99.7536 45.0171C100.005 45.0171 100.171 44.9352 100.25 44.7713C100.332 44.6075 100.372 44.4346 100.372 44.2526V43.7611C100.372 43.5791 100.335 43.4031 100.259 43.2332C100.183 43.0633 100.014 42.9784 99.7536 42.9784C99.5139 42.9784 99.3501 43.0633 99.2621 43.2332C99.1772 43.4031 99.1347 43.5791 99.1347 43.7611ZM92.6728 38.9193V38.4278C92.6728 38.0274 92.7593 37.6603 92.9322 37.3266C93.1082 36.9929 93.36 36.7259 93.6876 36.5257C94.0153 36.3254 94.4112 36.2253 94.8753 36.2253C95.3577 36.2253 95.7627 36.3254 96.0903 36.5257C96.421 36.7259 96.6713 36.9929 96.8412 37.3266C97.0111 37.6603 97.096 38.0274 97.096 38.4278V38.9193C97.096 39.3197 97.0096 39.6853 96.8366 40.016C96.6668 40.3466 96.4165 40.6106 96.0858 40.8078C95.7551 41.005 95.3516 41.1036 94.8753 41.1036C94.399 41.1036 93.9971 41.0034 93.6694 40.8032C93.3418 40.603 93.093 40.3375 92.9231 40.0069C92.7563 39.6762 92.6728 39.3137 92.6728 38.9193ZM94.2747 38.4278V38.9193C94.2747 39.1013 94.3171 39.2742 94.4021 39.438C94.487 39.6019 94.6448 39.6838 94.8753 39.6838C95.1271 39.6838 95.2925 39.6019 95.3714 39.438C95.4533 39.2742 95.4942 39.1013 95.4942 38.9193V38.4278C95.4942 38.2458 95.4563 38.0698 95.3805 37.8999C95.3046 37.73 95.1362 37.6451 94.8753 37.6451C94.6357 37.6451 94.4749 37.7331 94.393 37.909C94.3141 38.082 94.2747 38.2549 94.2747 38.4278ZM93.4464 46L99.8537 36.6804H101.146L94.7388 46H93.4464ZM109.569 47.165V35.5154H110.316V47.165H109.569ZM111.189 39.5928C111.165 39.2894 111.051 39.0528 110.848 38.8829C110.648 38.713 110.343 38.628 109.933 38.628C109.672 38.628 109.458 38.6599 109.292 38.7236C109.128 38.7843 109.006 38.8677 108.928 38.9739C108.849 39.0801 108.808 39.2014 108.805 39.3379C108.799 39.4502 108.818 39.5518 108.864 39.6428C108.912 39.7308 108.988 39.8112 109.091 39.884C109.195 39.9538 109.327 40.0175 109.487 40.0751C109.648 40.1328 109.839 40.1843 110.061 40.2298L110.825 40.3937C111.341 40.5029 111.782 40.647 112.149 40.826C112.516 41.005 112.817 41.2158 113.05 41.4585C113.284 41.6982 113.455 41.9682 113.565 42.2685C113.677 42.5689 113.735 42.8965 113.738 43.2514C113.735 43.8643 113.581 44.383 113.278 44.8077C112.975 45.2325 112.541 45.5556 111.976 45.777C111.415 45.9985 110.74 46.1092 109.951 46.1092C109.141 46.1092 108.435 45.9894 107.831 45.7497C107.23 45.5101 106.763 45.1415 106.429 44.6439C106.099 44.1434 105.932 43.5032 105.929 42.7236H108.331C108.347 43.0087 108.418 43.2484 108.545 43.4426C108.673 43.6367 108.852 43.7839 109.082 43.884C109.316 43.9841 109.593 44.0341 109.915 44.0341C110.185 44.0341 110.411 44.0008 110.593 43.934C110.775 43.8673 110.913 43.7748 111.007 43.6564C111.101 43.5381 111.15 43.4031 111.153 43.2514C111.15 43.1089 111.103 42.9845 111.012 42.8783C110.924 42.7691 110.778 42.672 110.575 42.5871C110.372 42.4991 110.097 42.4172 109.751 42.3413L108.823 42.1411C107.998 41.9621 107.347 41.6633 106.871 41.2446C106.397 40.8229 106.162 40.248 106.165 39.52C106.162 38.9284 106.32 38.4111 106.639 37.9682C106.96 37.5222 107.405 37.1749 107.972 36.9261C108.542 36.6773 109.196 36.553 109.933 36.553C110.686 36.553 111.336 36.6789 111.885 36.9307C112.435 37.1825 112.858 37.5374 113.155 37.9955C113.455 38.4506 113.607 38.983 113.61 39.5928H111.189ZM118.104 47.165V35.5154H118.85V47.165H118.104ZM119.724 39.5928C119.7 39.2894 119.586 39.0528 119.383 38.8829C119.182 38.713 118.877 38.628 118.468 38.628C118.207 38.628 117.993 38.6599 117.826 38.7236C117.662 38.7843 117.541 38.8677 117.462 38.9739C117.383 39.0801 117.342 39.2014 117.339 39.3379C117.333 39.4502 117.353 39.5518 117.399 39.6428C117.447 39.7308 117.523 39.8112 117.626 39.884C117.729 39.9538 117.861 40.0175 118.022 40.0751C118.183 40.1328 118.374 40.1843 118.595 40.2298L119.36 40.3937C119.876 40.5029 120.317 40.647 120.684 40.826C121.051 41.005 121.351 41.2158 121.585 41.4585C121.819 41.6982 121.99 41.9682 122.099 42.2685C122.212 42.5689 122.269 42.8965 122.272 43.2514C122.269 43.8643 122.116 44.383 121.813 44.8077C121.509 45.2325 121.075 45.5556 120.511 45.777C119.95 45.9985 119.275 46.1092 118.486 46.1092C117.676 46.1092 116.969 45.9894 116.366 45.7497C115.765 45.5101 115.298 45.1415 114.964 44.6439C114.633 44.1434 114.466 43.5032 114.463 42.7236H116.866C116.881 43.0087 116.953 43.2484 117.08 43.4426C117.207 43.6367 117.386 43.7839 117.617 43.884C117.851 43.9841 118.128 44.0341 118.45 44.0341C118.72 44.0341 118.946 44.0008 119.128 43.934C119.31 43.8673 119.448 43.7748 119.542 43.6564C119.636 43.5381 119.684 43.4031 119.687 43.2514C119.684 43.1089 119.637 42.9845 119.546 42.8783C119.458 42.7691 119.313 42.672 119.11 42.5871C118.906 42.4991 118.632 42.4172 118.286 42.3413L117.358 42.1411C116.532 41.9621 115.882 41.6633 115.405 41.2446C114.932 40.8229 114.697 40.248 114.7 39.52C114.697 38.9284 114.855 38.4111 115.173 37.9682C115.495 37.5222 115.939 37.1749 116.507 36.9261C117.077 36.6773 117.731 36.553 118.468 36.553C119.22 36.553 119.871 36.6789 120.42 36.9307C120.969 37.1825 121.392 37.5374 121.69 37.9955C121.99 38.4506 122.142 38.983 122.145 39.5928H119.724ZM64.9876 62V52.6804H69.0285C69.7384 52.6804 70.3345 52.7759 70.8169 52.9671C71.3023 53.1582 71.6679 53.4282 71.9136 53.7771C72.1624 54.126 72.2867 54.537 72.2867 55.0103C72.2867 55.3531 72.2109 55.6656 72.0592 55.9477C71.9106 56.2298 71.7012 56.4665 71.4312 56.6576C71.1612 56.8457 70.8457 56.9761 70.4847 57.049V57.14C70.8852 57.1551 71.2492 57.2568 71.5769 57.4449C71.9045 57.6299 72.1654 57.8863 72.3596 58.2139C72.5537 58.5385 72.6508 58.9208 72.6508 59.3607C72.6508 59.8703 72.5173 60.3239 72.2503 60.7213C71.9864 61.1187 71.6102 61.4312 71.1218 61.6587C70.6334 61.8862 70.0509 62 69.3744 62H64.9876ZM67.5177 59.9795H68.7009C69.1256 59.9795 69.4441 59.9007 69.6565 59.7429C69.8689 59.5821 69.975 59.3455 69.975 59.033C69.975 58.8146 69.925 58.6295 69.8249 58.4778C69.7248 58.3262 69.5822 58.2109 69.3971 58.132C69.2151 58.0531 68.9952 58.0137 68.7373 58.0137H67.5177V59.9795ZM67.5177 56.4483H68.5553C68.7767 56.4483 68.9724 56.4134 69.1423 56.3436C69.3122 56.2738 69.4441 56.1737 69.5382 56.0433C69.6353 55.9098 69.6838 55.7475 69.6838 55.5564C69.6838 55.2682 69.5807 55.0482 69.3744 54.8965C69.1681 54.7418 68.9072 54.6644 68.5917 54.6644H67.5177V56.4483ZM75.5313 62.1092C75.0854 62.1092 74.691 62.0364 74.3482 61.8908C74.0084 61.7421 73.7414 61.5176 73.5473 61.2173C73.3531 60.917 73.256 60.5347 73.256 60.0705C73.256 59.6883 73.3213 59.3622 73.4517 59.0922C73.5822 58.8191 73.7642 58.5962 73.9978 58.4232C74.2314 58.2503 74.5029 58.1183 74.8123 58.0273C75.1248 57.9363 75.4615 57.8772 75.8226 57.8499C76.2139 57.8195 76.5279 57.7831 76.7645 57.7406C77.0042 57.6951 77.1771 57.6329 77.2833 57.5541C77.3895 57.4722 77.4426 57.3645 77.4426 57.231V57.2128C77.4426 57.0307 77.3728 56.8912 77.2332 56.7941C77.0937 56.697 76.9147 56.6485 76.6963 56.6485C76.4566 56.6485 76.2609 56.7016 76.1093 56.8078C75.9606 56.9109 75.8711 57.0702 75.8408 57.2856H73.5291C73.5594 56.8609 73.6944 56.4695 73.9341 56.1115C74.1768 55.7505 74.5302 55.4623 74.9944 55.2469C75.4585 55.0285 76.038 54.9193 76.7327 54.9193C77.2332 54.9193 77.6822 54.9784 78.0797 55.0967C78.4771 55.212 78.8153 55.3743 79.0944 55.5837C79.3735 55.79 79.5859 56.0327 79.7315 56.3118C79.8802 56.5878 79.9545 56.8882 79.9545 57.2128V62H77.6064V61.0171H77.5518C77.4122 61.278 77.2423 61.4888 77.0421 61.6496C76.8449 61.8104 76.6189 61.9272 76.3641 62C76.1123 62.0728 75.8347 62.1092 75.5313 62.1092ZM76.3504 60.5256C76.5416 60.5256 76.7205 60.4862 76.8874 60.4073C77.0573 60.3284 77.1953 60.2146 77.3015 60.066C77.4077 59.9173 77.4608 59.7368 77.4608 59.5245V58.942C77.394 58.9693 77.3227 58.9951 77.2469 59.0194C77.1741 59.0436 77.0952 59.0664 77.0103 59.0876C76.9284 59.1089 76.8404 59.1286 76.7463 59.1468C76.6553 59.165 76.5598 59.1817 76.4596 59.1968C76.2655 59.2272 76.1062 59.2772 75.9818 59.347C75.8605 59.4137 75.7695 59.4972 75.7088 59.5973C75.6512 59.6944 75.6223 59.8036 75.6223 59.9249C75.6223 60.1191 75.6906 60.2677 75.8271 60.3709C75.9636 60.474 76.1381 60.5256 76.3504 60.5256ZM84.5222 62.1274C83.7637 62.1274 83.1145 61.9772 82.5745 61.6769C82.0345 61.3735 81.6204 60.9518 81.3322 60.4118C81.044 59.8688 80.8999 59.2393 80.8999 58.5233C80.8999 57.8074 81.044 57.1794 81.3322 56.6394C81.6204 56.0964 82.0345 55.6747 82.5745 55.3743C83.1145 55.071 83.7637 54.9193 84.5222 54.9193C85.2078 54.9193 85.8009 55.0437 86.3014 55.2924C86.805 55.5382 87.1949 55.887 87.471 56.3391C87.747 56.788 87.8866 57.3159 87.8896 57.9227H85.5597C85.5263 57.5556 85.4201 57.2765 85.2412 57.0854C85.0652 56.8912 84.8377 56.7941 84.5586 56.7941C84.3401 56.7941 84.149 56.8578 83.9852 56.9852C83.8214 57.1096 83.694 57.2992 83.6029 57.5541C83.5119 57.8059 83.4664 58.1229 83.4664 58.5051C83.4664 58.8874 83.5119 59.2059 83.6029 59.4608C83.694 59.7126 83.8214 59.9022 83.9852 60.0296C84.149 60.154 84.3401 60.2162 84.5586 60.2162C84.7436 60.2162 84.9074 60.1737 85.05 60.0887C85.1926 60.0008 85.3079 59.8734 85.3959 59.7065C85.4869 59.5366 85.5415 59.3303 85.5597 59.0876H87.8896C87.8805 59.7035 87.7394 60.2404 87.4664 60.6985C87.1934 61.1536 86.8066 61.5055 86.306 61.7543C85.8085 62.003 85.2139 62.1274 84.5222 62.1274ZM91.1831 60.3436L91.2013 57.3584H91.5289L93.2218 55.0103H96.0431L93.2036 58.669H92.4937L91.1831 60.3436ZM88.926 62V52.6804H91.4379V62H88.926ZM93.24 62L91.6382 59.2332L93.2764 57.4494L96.116 62H93.24ZM39.5919 70.719V68.6804H47.6919V70.719H44.8887V78H42.395V70.719H39.5919ZM49.6771 78.1092C49.2312 78.1092 48.8368 78.0364 48.494 77.8908C48.1542 77.7421 47.8872 77.5176 47.6931 77.2173C47.4989 76.917 47.4018 76.5347 47.4018 76.0705C47.4018 75.6883 47.467 75.3622 47.5975 75.0922C47.7279 74.8191 47.91 74.5962 48.1436 74.4232C48.3772 74.2503 48.6487 74.1183 48.9581 74.0273C49.2706 73.9363 49.6073 73.8772 49.9684 73.8499C50.3597 73.8195 50.6737 73.7831 50.9103 73.7406C51.15 73.6951 51.3229 73.6329 51.4291 73.5541C51.5353 73.4722 51.5884 73.3645 51.5884 73.231V73.2128C51.5884 73.0307 51.5186 72.8912 51.379 72.7941C51.2395 72.697 51.0605 72.6485 50.8421 72.6485C50.6024 72.6485 50.4067 72.7016 50.255 72.8078C50.1064 72.9109 50.0169 73.0702 49.9866 73.2856H47.6748C47.7052 72.8609 47.8402 72.4695 48.0799 72.1115C48.3226 71.7505 48.676 71.4623 49.1401 71.2469C49.6043 71.0285 50.1837 70.9193 50.8785 70.9193C51.379 70.9193 51.828 70.9784 52.2254 71.0967C52.6229 71.212 52.9611 71.3743 53.2402 71.5837C53.5193 71.79 53.7317 72.0327 53.8773 72.3118C54.026 72.5878 54.1003 72.8882 54.1003 73.2128V78H51.7522V77.0171H51.6976C51.558 77.278 51.3881 77.4888 51.1879 77.6496C50.9907 77.8104 50.7647 77.9272 50.5099 78C50.2581 78.0728 49.9805 78.1092 49.6771 78.1092ZM50.4962 76.5256C50.6873 76.5256 50.8663 76.4862 51.0332 76.4073C51.2031 76.3284 51.3411 76.2146 51.4473 76.066C51.5535 75.9173 51.6066 75.7368 51.6066 75.5245V74.942C51.5398 74.9693 51.4685 74.9951 51.3927 75.0194C51.3199 75.0436 51.241 75.0664 51.1561 75.0876C51.0741 75.1089 50.9862 75.1286 50.8921 75.1468C50.8011 75.165 50.7055 75.1817 50.6054 75.1968C50.4113 75.2272 50.252 75.2772 50.1276 75.347C50.0063 75.4137 49.9153 75.4972 49.8546 75.5973C49.7969 75.6944 49.7681 75.8036 49.7681 75.9249C49.7681 76.1191 49.8364 76.2677 49.9729 76.3709C50.1094 76.474 50.2839 76.5256 50.4962 76.5256ZM57.4666 71.0103L58.4859 73.1764L59.5599 71.0103H62.0536L60.1788 74.5051L62.1446 78H59.6691L58.4859 75.7793L57.3392 78H54.8273L56.8113 74.5051L54.9547 71.0103H57.4666ZM74.1639 72.1752H71.5973C71.5791 71.9629 71.5306 71.7702 71.4517 71.5973C71.3759 71.4244 71.2697 71.2757 71.1332 71.1514C70.9997 71.0239 70.8374 70.9269 70.6463 70.8601C70.4551 70.7903 70.2382 70.7554 69.9955 70.7554C69.5708 70.7554 69.2113 70.8586 68.917 71.0649C68.6258 71.2712 68.4043 71.567 68.2526 71.9523C68.104 72.3375 68.0297 72.8002 68.0297 73.3402C68.0297 73.9105 68.1055 74.3883 68.2572 74.7736C68.4119 75.1559 68.6349 75.4441 68.9261 75.6382C69.2174 75.8294 69.5678 75.9249 69.9773 75.9249C70.2109 75.9249 70.4202 75.8961 70.6053 75.8385C70.7904 75.7778 70.9511 75.6913 71.0877 75.5791C71.2242 75.4668 71.3349 75.3318 71.4199 75.1741C71.5078 75.0133 71.567 74.8328 71.5973 74.6326L74.1639 74.6508C74.1335 75.0451 74.0228 75.4471 73.8317 75.8567C73.6406 76.2632 73.369 76.6394 73.0171 76.9852C72.6682 77.328 72.2359 77.6041 71.7202 77.8134C71.2045 78.0228 70.6053 78.1274 69.9227 78.1274C69.0672 78.1274 68.2997 77.9439 67.6201 77.5768C66.9436 77.2097 66.4081 76.6697 66.0138 75.9568C65.6224 75.2439 65.4267 74.3717 65.4267 73.3402C65.4267 72.3027 65.6269 71.4289 66.0274 70.719C66.4279 70.0061 66.9679 69.4676 67.6474 69.1036C68.327 68.7365 69.0854 68.553 69.9227 68.553C70.5113 68.553 71.0528 68.6334 71.5473 68.7941C72.0418 68.9549 72.4756 69.19 72.8487 69.4995C73.2219 69.8059 73.5222 70.1836 73.7498 70.6326C73.9773 71.0816 74.1153 71.5958 74.1639 72.1752ZM75.3482 78V71.0103H77.7873V72.3391H77.8601C77.9875 71.8476 78.1893 71.4881 78.4653 71.2606C78.7444 71.033 79.0706 70.9193 79.4437 70.9193C79.5529 70.9193 79.6606 70.9284 79.7668 70.9466C79.876 70.9617 79.9807 70.9845 80.0808 71.0148V73.1582C79.9564 73.1157 79.8032 73.0838 79.6212 73.0626C79.4391 73.0414 79.2829 73.0307 79.1525 73.0307C78.9067 73.0307 78.6853 73.0869 78.4881 73.1991C78.2939 73.3083 78.1407 73.4631 78.0285 73.6633C77.9162 73.8605 77.8601 74.0926 77.8601 74.3595V78H75.3482ZM83.8532 78.1274C83.1069 78.1274 82.4638 77.9848 81.9238 77.6997C81.3868 77.4115 80.9727 76.9989 80.6815 76.4619C80.3933 75.9219 80.2492 75.2757 80.2492 74.5233C80.2492 73.8013 80.3948 73.1703 80.686 72.6303C80.9773 72.0903 81.3883 71.6701 81.9192 71.3698C82.4501 71.0694 83.0766 70.9193 83.7986 70.9193C84.3265 70.9193 84.8043 71.0012 85.2321 71.165C85.6598 71.3288 86.0254 71.567 86.3288 71.8794C86.6321 72.1889 86.8657 72.5651 87.0295 73.008C87.1934 73.4509 87.2753 73.95 87.2753 74.5051V75.0876H81.0319V73.7042H84.9636C84.9605 73.504 84.909 73.3281 84.8089 73.1764C84.7118 73.0216 84.5798 72.9018 84.413 72.8169C84.2491 72.7289 84.0626 72.6849 83.8532 72.6849C83.65 72.6849 83.4634 72.7289 83.2935 72.8169C83.1236 72.9018 82.9871 73.0201 82.884 73.1718C82.7838 73.3235 82.7307 73.501 82.7247 73.7042V75.1968C82.7247 75.4213 82.7717 75.6216 82.8657 75.7975C82.9598 75.9735 83.0948 76.1115 83.2708 76.2116C83.4467 76.3117 83.6591 76.3618 83.9078 76.3618C84.0808 76.3618 84.2385 76.3375 84.3811 76.289C84.5267 76.2404 84.6511 76.1707 84.7542 76.0796C84.8574 75.9856 84.9332 75.8734 84.9818 75.7429H87.2753C87.1964 76.2283 87.0098 76.65 86.7156 77.008C86.4213 77.3629 86.0314 77.639 85.546 77.8362C85.0637 78.0303 84.4994 78.1274 83.8532 78.1274ZM90.8304 78.091C90.3329 78.091 89.8748 77.9606 89.4562 77.6997C89.0405 77.4388 88.7068 77.0429 88.455 76.512C88.2063 75.9811 88.0819 75.3121 88.0819 74.5051C88.0819 73.6618 88.2123 72.9761 88.4732 72.4483C88.7372 71.9204 89.0769 71.5336 89.4926 71.2879C89.9112 71.0421 90.3511 70.9193 90.8122 70.9193C91.1581 70.9193 91.4614 70.9799 91.7223 71.1013C91.9832 71.2196 92.2017 71.3789 92.3776 71.5791C92.5536 71.7763 92.6871 71.9932 92.7781 72.2298H92.8145V68.6804H95.3264V78H92.8327V76.8532H92.7781C92.681 77.0899 92.5415 77.3022 92.3594 77.4903C92.1804 77.6754 91.962 77.8225 91.7041 77.9317C91.4493 78.0379 91.1581 78.091 90.8304 78.091ZM91.7588 76.1616C91.9893 76.1616 92.1865 76.0948 92.3503 75.9613C92.5172 75.8248 92.6446 75.6337 92.7326 75.388C92.8236 75.1392 92.8691 74.8449 92.8691 74.5051C92.8691 74.1593 92.8236 73.8635 92.7326 73.6178C92.6446 73.369 92.5172 73.1794 92.3503 73.049C92.1865 72.9155 91.9893 72.8487 91.7588 72.8487C91.5282 72.8487 91.331 72.9155 91.1672 73.049C91.0064 73.1794 90.882 73.369 90.794 73.6178C90.7091 73.8635 90.6666 74.1593 90.6666 74.5051C90.6666 74.851 90.7091 75.1483 90.794 75.3971C90.882 75.6428 91.0064 75.8324 91.1672 75.9659C91.331 76.0963 91.5282 76.1616 91.7588 76.1616ZM96.5596 78V71.0103H99.0716V78H96.5596ZM97.8156 70.2822C97.4758 70.2822 97.1846 70.1699 96.9419 69.9454C96.6992 69.7209 96.5778 69.4509 96.5778 69.1354C96.5778 68.8199 96.6992 68.5499 96.9419 68.3254C97.1846 68.1009 97.4758 67.9887 97.8156 67.9887C98.1584 67.9887 98.4496 68.1009 98.6893 68.3254C98.932 68.5499 99.0534 68.8199 99.0534 69.1354C99.0534 69.4509 98.932 69.7209 98.6893 69.9454C98.4496 70.1699 98.1584 70.2822 97.8156 70.2822ZM104.52 71.0103V72.8305H99.9146V71.0103H104.52ZM100.806 69.3357H103.318V75.752C103.318 75.8491 103.335 75.931 103.368 75.9977C103.402 76.0614 103.453 76.11 103.523 76.1434C103.593 76.1737 103.682 76.1889 103.792 76.1889C103.868 76.1889 103.955 76.1798 104.056 76.1616C104.159 76.1434 104.235 76.1282 104.283 76.1161L104.647 77.8817C104.535 77.9151 104.374 77.956 104.165 78.0046C103.959 78.0531 103.713 78.0849 103.428 78.1001C102.851 78.1305 102.367 78.0713 101.976 77.9226C101.585 77.771 101.29 77.5328 101.093 77.2082C100.896 76.8836 100.8 76.4771 100.806 75.9886V69.3357ZM111.465 78.1274C110.707 78.1274 110.057 77.9772 109.517 77.6769C108.977 77.3735 108.563 76.9518 108.275 76.4118C107.987 75.8688 107.843 75.2393 107.843 74.5233C107.843 73.8074 107.987 73.1794 108.275 72.6394C108.563 72.0964 108.977 71.6747 109.517 71.3743C110.057 71.071 110.707 70.9193 111.465 70.9193C112.224 70.9193 112.873 71.071 113.413 71.3743C113.953 71.6747 114.367 72.0964 114.655 72.6394C114.943 73.1794 115.087 73.8074 115.087 74.5233C115.087 75.2393 114.943 75.8688 114.655 76.4118C114.367 76.9518 113.953 77.3735 113.413 77.6769C112.873 77.9772 112.224 78.1274 111.465 78.1274ZM111.483 76.2708C111.696 76.2708 111.879 76.1995 112.034 76.0569C112.189 75.9143 112.308 75.711 112.393 75.4471C112.478 75.1832 112.521 74.8692 112.521 74.5051C112.521 74.1381 112.478 73.8241 112.393 73.5632C112.308 73.2992 112.189 73.096 112.034 72.9534C111.879 72.8108 111.696 72.7395 111.483 72.7395C111.259 72.7395 111.066 72.8108 110.905 72.9534C110.745 73.096 110.622 73.2992 110.537 73.5632C110.452 73.8241 110.409 74.1381 110.409 74.5051C110.409 74.8692 110.452 75.1832 110.537 75.4471C110.622 75.711 110.745 75.9143 110.905 76.0569C111.066 76.1995 111.259 76.2708 111.483 76.2708ZM118.619 74.0683V78H116.107V71.0103H118.491V72.3391H118.564C118.716 71.8961 118.983 71.5488 119.365 71.297C119.75 71.0452 120.199 70.9193 120.712 70.9193C121.206 70.9193 121.636 71.033 122 71.2606C122.367 71.4851 122.65 71.7945 122.851 72.1889C123.054 72.5833 123.154 73.0338 123.151 73.5404V78H120.639V74.0683C120.642 73.7224 120.554 73.4509 120.375 73.2537C120.199 73.0565 119.953 72.9579 119.638 72.9579C119.432 72.9579 119.251 73.0034 119.096 73.0945C118.945 73.1824 118.828 73.3099 118.746 73.4767C118.664 73.6405 118.622 73.8377 118.619 74.0683ZM37.8456 94L35.097 84.6804H37.9184L39.1925 90.4141H39.2653L40.7761 84.6804H42.9968L44.5076 90.4323H44.5804L45.8546 84.6804H48.676L45.9274 94H43.5065L41.9229 88.7941H41.8501L40.2665 94H37.8456ZM52.0434 90.0683V94H49.5315V84.6804H51.9524V88.3391H52.0252C52.183 87.8931 52.4454 87.5457 52.8125 87.297C53.1796 87.0452 53.621 86.9193 54.1367 86.9193C54.6312 86.9193 55.0605 87.0315 55.4245 87.256C55.7916 87.4805 56.0753 87.79 56.2755 88.1843C56.4787 88.5787 56.5788 89.0307 56.5758 89.5404V94H54.0639V90.0683C54.0669 89.7224 53.9805 89.4509 53.8045 89.2537C53.6316 89.0565 53.3843 88.9579 53.0628 88.9579C52.8595 88.9579 52.6805 89.0034 52.5258 89.0945C52.3741 89.1824 52.2558 89.3099 52.1708 89.4767C52.0889 89.6405 52.0465 89.8377 52.0434 90.0683ZM61.1833 94.1274C60.4249 94.1274 59.7756 93.9772 59.2356 93.6769C58.6956 93.3735 58.2815 92.9518 57.9933 92.4118C57.7051 91.8688 57.561 91.2393 57.561 90.5233C57.561 89.8074 57.7051 89.1794 57.9933 88.6394C58.2815 88.0964 58.6956 87.6747 59.2356 87.3743C59.7756 87.071 60.4249 86.9193 61.1833 86.9193C61.9417 86.9193 62.5909 87.071 63.1309 87.3743C63.671 87.6747 64.0851 88.0964 64.3733 88.6394C64.6615 89.1794 64.8056 89.8074 64.8056 90.5233C64.8056 91.2393 64.6615 91.8688 64.3733 92.4118C64.0851 92.9518 63.671 93.3735 63.1309 93.6769C62.5909 93.9772 61.9417 94.1274 61.1833 94.1274ZM61.2015 92.2708C61.4139 92.2708 61.5974 92.1995 61.7521 92.0569C61.9068 91.9143 62.0267 91.711 62.1116 91.4471C62.1966 91.1832 62.239 90.8692 62.239 90.5051C62.239 90.1381 62.1966 89.8241 62.1116 89.5632C62.0267 89.2992 61.9068 89.096 61.7521 88.9534C61.5974 88.8108 61.4139 88.7395 61.2015 88.7395C60.977 88.7395 60.7844 88.8108 60.6236 88.9534C60.4628 89.096 60.3399 89.2992 60.255 89.5632C60.17 89.8241 60.1276 90.1381 60.1276 90.5051C60.1276 90.8692 60.17 91.1832 60.255 91.4471C60.3399 91.711 60.4628 91.9143 60.6236 92.0569C60.7844 92.1995 60.977 92.2708 61.2015 92.2708ZM68.3368 84.6804V94H65.8249V84.6804H68.3368ZM72.9659 94.1274C72.2196 94.1274 71.5765 93.9848 71.0365 93.6997C70.4995 93.4115 70.0854 92.9989 69.7942 92.4619C69.506 91.9219 69.3619 91.2757 69.3619 90.5233C69.3619 89.8013 69.5075 89.1703 69.7987 88.6303C70.0899 88.0903 70.501 87.6701 71.0319 87.3698C71.5628 87.0694 72.1893 86.9193 72.9113 86.9193C73.4392 86.9193 73.917 87.0012 74.3448 87.165C74.7725 87.3288 75.1381 87.567 75.4415 87.8794C75.7448 88.1889 75.9784 88.5651 76.1422 89.008C76.3061 89.4509 76.388 89.95 76.388 90.5051V91.0876H70.1446V89.7042H74.0763C74.0732 89.504 74.0217 89.3281 73.9216 89.1764C73.8245 89.0216 73.6925 88.9018 73.5256 88.8169C73.3618 88.7289 73.1753 88.6849 72.9659 88.6849C72.7627 88.6849 72.5761 88.7289 72.4062 88.8169C72.2363 88.9018 72.0998 89.0201 71.9966 89.1718C71.8965 89.3235 71.8434 89.501 71.8374 89.7042V91.1968C71.8374 91.4213 71.8844 91.6216 71.9784 91.7975C72.0725 91.9735 72.2075 92.1115 72.3834 92.2116C72.5594 92.3117 72.7718 92.3618 73.0205 92.3618C73.1935 92.3618 73.3512 92.3375 73.4938 92.289C73.6394 92.2404 73.7638 92.1707 73.8669 92.0796C73.9701 91.9856 74.0459 91.8734 74.0945 91.7429H76.388C76.3091 92.2283 76.1225 92.65 75.8283 93.008C75.534 93.3629 75.1441 93.639 74.6587 93.8362C74.1764 94.0303 73.6121 94.1274 72.9659 94.1274ZM84.9533 87.5928C84.9291 87.2894 84.8153 87.0528 84.612 86.8829C84.4118 86.713 84.1069 86.628 83.6974 86.628C83.4365 86.628 83.2226 86.6599 83.0557 86.7236C82.8919 86.7843 82.7706 86.8677 82.6917 86.9739C82.6128 87.0801 82.5719 87.2014 82.5688 87.3379C82.5628 87.4502 82.5825 87.5518 82.628 87.6428C82.6765 87.7308 82.7524 87.8112 82.8555 87.884C82.9587 87.9538 83.0906 88.0175 83.2514 88.0751C83.4122 88.1328 83.6033 88.1843 83.8248 88.2298L84.5893 88.3937C85.105 88.5029 85.5464 88.647 85.9135 88.826C86.2806 89.005 86.5809 89.2158 86.8145 89.4585C87.0481 89.6982 87.2195 89.9682 87.3287 90.2685C87.441 90.5689 87.4986 90.8965 87.5017 91.2514C87.4986 91.8643 87.3454 92.383 87.0421 92.8077C86.7387 93.2325 86.3049 93.5556 85.7406 93.777C85.1793 93.9985 84.5043 94.1092 83.7156 94.1092C82.9056 94.1092 82.1987 93.9894 81.595 93.7497C80.9943 93.5101 80.5271 93.1415 80.1934 92.6439C79.8627 92.1434 79.6959 91.5032 79.6928 90.7236H82.0956C82.1107 91.0087 82.182 91.2484 82.3094 91.4426C82.4369 91.6367 82.6158 91.7839 82.8464 91.884C83.08 91.9841 83.3576 92.0341 83.6792 92.0341C83.9492 92.0341 84.1752 92.0008 84.3572 91.934C84.5392 91.8673 84.6773 91.7748 84.7713 91.6564C84.8654 91.5381 84.9139 91.4031 84.9169 91.2514C84.9139 91.1089 84.8669 90.9845 84.7759 90.8783C84.6879 90.7691 84.5423 90.672 84.339 90.5871C84.1357 90.4991 83.8612 90.4172 83.5153 90.3413L82.587 90.1411C81.7618 89.9621 81.1111 89.6633 80.6348 89.2446C80.1616 88.8229 79.9264 88.248 79.9295 87.52C79.9264 86.9284 80.0842 86.4111 80.4027 85.9682C80.7243 85.5222 81.1688 85.1749 81.7361 84.9261C82.3064 84.6773 82.9602 84.553 83.6974 84.553C84.4497 84.553 85.1005 84.6789 85.6496 84.9307C86.1987 85.1825 86.6219 85.5374 86.9192 85.9955C87.2195 86.4506 87.3712 86.983 87.3743 87.5928H84.9533ZM90.0295 96.6211C89.7413 96.6211 89.4668 96.5984 89.2059 96.5529C88.945 96.5104 88.7159 96.4513 88.5187 96.3754L89.0648 94.5916C89.2711 94.6644 89.4592 94.7114 89.6291 94.7326C89.802 94.7539 89.9491 94.7417 90.0705 94.6962C90.1949 94.6507 90.2844 94.5643 90.339 94.4369L90.3936 94.3094L87.9363 87.0103H90.5574L91.6859 91.8521H91.7588L92.9055 87.0103H95.5448L92.9965 94.5825C92.8691 94.9678 92.684 95.3136 92.4413 95.62C92.2017 95.9295 91.8862 96.1737 91.4948 96.3527C91.1035 96.5316 90.615 96.6211 90.0295 96.6211ZM102.648 89.2856H100.337C100.324 89.143 100.274 89.0201 100.186 88.917C100.098 88.8138 99.9847 88.735 99.8452 88.6804C99.7086 88.6227 99.557 88.5939 99.3901 88.5939C99.1747 88.5939 98.9896 88.6333 98.8349 88.7122C98.6802 88.7911 98.6044 88.9033 98.6074 89.049C98.6044 89.1521 98.6484 89.2477 98.7394 89.3356C98.8334 89.4236 99.0139 89.4919 99.2809 89.5404L100.701 89.7952C101.417 89.9257 101.949 90.1456 102.298 90.4551C102.65 90.7615 102.827 91.1726 102.83 91.6883C102.827 92.1858 102.679 92.6181 102.384 92.9852C102.093 93.3493 101.694 93.6314 101.188 93.8316C100.684 94.0288 100.109 94.1274 99.4629 94.1274C98.395 94.1274 97.5592 93.909 96.9555 93.4721C96.3549 93.0353 96.0196 92.4589 95.9499 91.7429H98.4436C98.4769 91.9644 98.5862 92.1358 98.7712 92.2571C98.9593 92.3754 99.1959 92.4346 99.4811 92.4346C99.7117 92.4346 99.9013 92.3952 100.05 92.3163C100.202 92.2374 100.279 92.1252 100.282 91.9795C100.279 91.8461 100.212 91.7399 100.082 91.661C99.9544 91.5821 99.7541 91.5184 99.4811 91.4699L98.2434 91.2514C97.5304 91.1271 96.9965 90.8904 96.6415 90.5415C96.2866 90.1927 96.1106 89.7437 96.1137 89.1946C96.1106 88.7092 96.2381 88.2981 96.4959 87.9614C96.7568 87.6216 97.1285 87.3637 97.6108 87.1878C98.0962 87.0088 98.6711 86.9193 99.3355 86.9193C100.346 86.9193 101.142 87.1286 101.725 87.5473C102.31 87.9659 102.618 88.5454 102.648 89.2856ZM107.961 87.0103V88.8305H103.356V87.0103H107.961ZM104.248 85.3357H106.76V91.752C106.76 91.8491 106.776 91.931 106.81 91.9977C106.843 92.0614 106.895 92.11 106.965 92.1434C107.034 92.1737 107.124 92.1889 107.233 92.1889C107.309 92.1889 107.397 92.1798 107.497 92.1616C107.6 92.1434 107.676 92.1282 107.725 92.1161L108.089 93.8817C107.976 93.9151 107.816 93.956 107.606 94.0046C107.4 94.0531 107.154 94.0849 106.869 94.1001C106.293 94.1305 105.809 94.0713 105.417 93.9226C105.026 93.771 104.732 93.5328 104.535 93.2082C104.337 92.8836 104.242 92.4771 104.248 91.9886V85.3357ZM112.26 94.1274C111.514 94.1274 110.871 93.9848 110.331 93.6997C109.794 93.4115 109.38 92.9989 109.089 92.4619C108.8 91.9219 108.656 91.2757 108.656 90.5233C108.656 89.8013 108.802 89.1703 109.093 88.6303C109.384 88.0903 109.795 87.6701 110.326 87.3698C110.857 87.0694 111.484 86.9193 112.206 86.9193C112.734 86.9193 113.211 87.0012 113.639 87.165C114.067 87.3288 114.432 87.567 114.736 87.8794C115.039 88.1889 115.273 88.5651 115.437 89.008C115.6 89.4509 115.682 89.95 115.682 90.5051V91.0876H109.439V89.7042H113.371C113.368 89.504 113.316 89.3281 113.216 89.1764C113.119 89.0216 112.987 88.9018 112.82 88.8169C112.656 88.7289 112.47 88.6849 112.26 88.6849C112.057 88.6849 111.87 88.7289 111.701 88.8169C111.531 88.9018 111.394 89.0201 111.291 89.1718C111.191 89.3235 111.138 89.501 111.132 89.7042V91.1968C111.132 91.4213 111.179 91.6216 111.273 91.7975C111.367 91.9735 111.502 92.1115 111.678 92.2116C111.854 92.3117 112.066 92.3618 112.315 92.3618C112.488 92.3618 112.646 92.3375 112.788 92.289C112.934 92.2404 113.058 92.1707 113.161 92.0796C113.264 91.9856 113.34 91.8734 113.389 91.7429H115.682C115.603 92.2283 115.417 92.65 115.123 93.008C114.828 93.3629 114.439 93.639 113.953 93.8362C113.471 94.0303 112.907 94.1274 112.26 94.1274ZM116.707 94V87.0103H119.092V88.3391H119.165C119.31 87.9022 119.559 87.5564 119.911 87.3015C120.263 87.0467 120.682 86.9193 121.167 86.9193C121.658 86.9193 122.082 87.0497 122.437 87.3106C122.792 87.5685 123.005 87.9113 123.078 88.3391H123.151C123.269 87.9113 123.521 87.5685 123.906 87.3106C124.292 87.0497 124.744 86.9193 125.263 86.9193C125.933 86.9193 126.476 87.1347 126.892 87.5655C127.31 87.9962 127.52 88.5696 127.52 89.2856V94H125.008V89.9227C125.008 89.6163 124.93 89.3766 124.776 89.2037C124.621 89.0277 124.413 88.9397 124.152 88.9397C123.894 88.9397 123.69 89.0277 123.538 89.2037C123.389 89.3766 123.315 89.6163 123.315 89.9227V94H120.912V89.9227C120.912 89.6163 120.835 89.3766 120.68 89.2037C120.525 89.0277 120.318 88.9397 120.057 88.9397C119.884 88.9397 119.735 88.9792 119.611 89.0581C119.486 89.1369 119.389 89.2507 119.319 89.3993C119.253 89.545 119.219 89.7194 119.219 89.9227V94H116.707ZM66.7959 110V100.68H70.8186C71.5103 100.68 72.1155 100.817 72.6343 101.09C73.1531 101.363 73.5566 101.747 73.8448 102.241C74.133 102.736 74.2771 103.314 74.2771 103.975C74.2771 104.642 74.1284 105.22 73.8311 105.709C73.5368 106.197 73.1227 106.573 72.5888 106.837C72.0579 107.101 71.4375 107.233 70.7276 107.233H68.3249V105.267H70.2179C70.5152 105.267 70.7686 105.216 70.9779 105.113C71.1902 105.006 71.3525 104.856 71.4648 104.662C71.5801 104.468 71.6377 104.239 71.6377 103.975C71.6377 103.708 71.5801 103.481 71.4648 103.292C71.3525 103.101 71.1902 102.956 70.9779 102.856C70.7686 102.752 70.5152 102.701 70.2179 102.701H69.326V110H66.7959ZM77.7537 100.68V110H75.2418V100.68H77.7537ZM83.566 106.942V103.01H86.0779V110H83.6934V108.671H83.6206C83.4689 109.117 83.2034 109.466 82.8242 109.718C82.445 109.967 81.9945 110.091 81.4727 110.091C80.9843 110.091 80.5565 109.979 80.1894 109.754C79.8254 109.53 79.5417 109.22 79.3385 108.826C79.1382 108.432 79.0366 107.98 79.0336 107.47V103.01H81.5455V106.942C81.5485 107.288 81.6365 107.559 81.8094 107.757C81.9854 107.954 82.2311 108.052 82.5466 108.052C82.756 108.052 82.9365 108.008 83.0882 107.92C83.2429 107.829 83.3612 107.702 83.4431 107.538C83.528 107.371 83.569 107.173 83.566 106.942ZM93.7445 105.286H91.4328C91.4207 105.143 91.3706 105.02 91.2826 104.917C91.1947 104.814 91.0809 104.735 90.9414 104.68C90.8048 104.623 90.6531 104.594 90.4863 104.594C90.2709 104.594 90.0858 104.633 89.9311 104.712C89.7764 104.791 89.7006 104.903 89.7036 105.049C89.7006 105.152 89.7445 105.248 89.8356 105.336C89.9296 105.424 90.1101 105.492 90.3771 105.54L91.7969 105.795C92.5128 105.926 93.0452 106.146 93.3941 106.455C93.746 106.761 93.9235 107.173 93.9265 107.688C93.9235 108.186 93.7749 108.618 93.4806 108.985C93.1893 109.349 92.7904 109.631 92.2838 109.832C91.7802 110.029 91.2053 110.127 90.5591 110.127C89.4912 110.127 88.6554 109.909 88.0517 109.472C87.451 109.035 87.1158 108.459 87.046 107.743H89.5398C89.5731 107.964 89.6824 108.136 89.8674 108.257C90.0555 108.375 90.2921 108.435 90.5773 108.435C90.8079 108.435 90.9975 108.395 91.1461 108.316C91.2978 108.237 91.3752 108.125 91.3782 107.98C91.3752 107.846 91.3084 107.74 91.178 107.661C91.0506 107.582 90.8503 107.518 90.5773 107.47L89.3395 107.251C88.6266 107.127 88.0927 106.89 87.7377 106.542C87.3828 106.193 87.2068 105.744 87.2099 105.195C87.2068 104.709 87.3342 104.298 87.5921 103.961C87.853 103.622 88.2246 103.364 88.707 103.188C89.1924 103.009 89.7673 102.919 90.4317 102.919C91.4419 102.919 92.2383 103.129 92.8207 103.547C93.4063 103.966 93.7142 104.545 93.7445 105.286ZM33.952 116.68H36.7733L38.5936 120.466H38.6664L40.4866 116.68H43.308L39.8859 123.069V126H37.374V123.069L33.952 116.68ZM45.7414 126.127C44.9951 126.127 44.352 125.985 43.812 125.7C43.275 125.411 42.8609 124.999 42.5696 124.462C42.2814 123.922 42.1373 123.276 42.1373 122.523C42.1373 121.801 42.283 121.17 42.5742 120.63C42.8654 120.09 43.2765 119.67 43.8074 119.37C44.3383 119.069 44.9648 118.919 45.6868 118.919C46.2147 118.919 46.6925 119.001 47.1202 119.165C47.548 119.329 47.9136 119.567 48.2169 119.879C48.5203 120.189 48.7539 120.565 48.9177 121.008C49.0815 121.451 49.1635 121.95 49.1635 122.505V123.088H42.92V121.704H46.8518C46.8487 121.504 46.7971 121.328 46.697 121.176C46.6 121.022 46.468 120.902 46.3011 120.817C46.1373 120.729 45.9507 120.685 45.7414 120.685C45.5382 120.685 45.3516 120.729 45.1817 120.817C45.0118 120.902 44.8753 121.02 44.7721 121.172C44.672 121.324 44.6189 121.501 44.6129 121.704V123.197C44.6129 123.421 44.6599 123.622 44.7539 123.798C44.848 123.973 44.983 124.112 45.1589 124.212C45.3349 124.312 45.5473 124.362 45.796 124.362C45.9689 124.362 46.1267 124.338 46.2693 124.289C46.4149 124.24 46.5393 124.171 46.6424 124.08C46.7456 123.986 46.8214 123.873 46.87 123.743H49.1635C49.0846 124.228 48.898 124.65 48.6037 125.008C48.3095 125.363 47.9196 125.639 47.4342 125.836C46.9519 126.03 46.3876 126.127 45.7414 126.127ZM52.1361 126.109C51.6902 126.109 51.2958 126.036 50.953 125.891C50.6132 125.742 50.3462 125.518 50.1521 125.217C49.9579 124.917 49.8608 124.535 49.8608 124.071C49.8608 123.688 49.9261 123.362 50.0565 123.092C50.187 122.819 50.369 122.596 50.6026 122.423C50.8362 122.25 51.1077 122.118 51.4171 122.027C51.7296 121.936 52.0664 121.877 52.4274 121.85C52.8187 121.82 53.1327 121.783 53.3693 121.741C53.609 121.695 53.7819 121.633 53.8881 121.554C53.9943 121.472 54.0474 121.364 54.0474 121.231V121.213C54.0474 121.031 53.9776 120.891 53.8381 120.794C53.6985 120.697 53.5195 120.648 53.3011 120.648C53.0614 120.648 52.8658 120.702 52.7141 120.808C52.5654 120.911 52.4759 121.07 52.4456 121.286H50.1339C50.1642 120.861 50.2992 120.47 50.5389 120.112C50.7816 119.751 51.135 119.462 51.5992 119.247C52.0633 119.028 52.6428 118.919 53.3375 118.919C53.8381 118.919 54.2871 118.978 54.6845 119.097C55.0819 119.212 55.4202 119.374 55.6993 119.584C55.9784 119.79 56.1907 120.033 56.3363 120.312C56.485 120.588 56.5593 120.888 56.5593 121.213V126H54.2112V125.017H54.1566C54.0171 125.278 53.8472 125.489 53.6469 125.65C53.4497 125.81 53.2237 125.927 52.9689 126C52.7171 126.073 52.4395 126.109 52.1361 126.109ZM52.9552 124.526C53.1464 124.526 53.3254 124.486 53.4922 124.407C53.6621 124.328 53.8001 124.215 53.9063 124.066C54.0125 123.917 54.0656 123.737 54.0656 123.524V122.942C53.9988 122.969 53.9276 122.995 53.8517 123.019C53.7789 123.044 53.7 123.066 53.6151 123.088C53.5332 123.109 53.4452 123.129 53.3511 123.147C53.2601 123.165 53.1646 123.182 53.0645 123.197C52.8703 123.227 52.711 123.277 52.5866 123.347C52.4653 123.414 52.3743 123.497 52.3136 123.597C52.256 123.694 52.2272 123.804 52.2272 123.925C52.2272 124.119 52.2954 124.268 52.4319 124.371C52.5684 124.474 52.7429 124.526 52.9552 124.526ZM57.7595 126V119.01H60.1987V120.339H60.2715C60.3989 119.848 60.6006 119.488 60.8767 119.261C61.1558 119.033 61.4819 118.919 61.8551 118.919C61.9643 118.919 62.072 118.928 62.1782 118.947C62.2874 118.962 62.392 118.984 62.4922 119.015V121.158C62.3678 121.116 62.2146 121.084 62.0325 121.063C61.8505 121.041 61.6943 121.031 61.5638 121.031C61.3181 121.031 61.0966 121.087 60.8994 121.199C60.7053 121.308 60.5521 121.463 60.4398 121.663C60.3276 121.86 60.2715 122.093 60.2715 122.36V126H57.7595ZM65.8277 116.68V126H63.3158V116.68H65.8277ZM68.6366 128.621C68.3484 128.621 68.0738 128.598 67.8129 128.553C67.552 128.51 67.323 128.451 67.1258 128.375L67.6719 126.592C67.8782 126.664 68.0663 126.711 68.2361 126.733C68.4091 126.754 68.5562 126.742 68.6776 126.696C68.8019 126.651 68.8914 126.564 68.946 126.437L69.0006 126.309L66.5433 119.01H69.1645L70.293 123.852H70.3658L71.5126 119.01H74.1519L71.6036 126.582C71.4762 126.968 71.2911 127.314 71.0484 127.62C70.8088 127.929 70.4932 128.174 70.1019 128.353C69.7105 128.532 69.2221 128.621 68.6366 128.621ZM77.3828 126V116.68H81.4056C82.0973 116.68 82.7025 116.806 83.2213 117.058C83.74 117.31 84.1435 117.672 84.4317 118.146C84.7199 118.619 84.864 119.186 84.864 119.848C84.864 120.515 84.7154 121.078 84.4181 121.536C84.1238 121.994 83.7097 122.34 83.1758 122.573C82.6449 122.807 82.0245 122.924 81.3146 122.924H78.9118V120.958H80.8049C81.1022 120.958 81.3555 120.922 81.5648 120.849C81.7772 120.773 81.9395 120.653 82.0518 120.489C82.167 120.325 82.2247 120.112 82.2247 119.848C82.2247 119.581 82.167 119.364 82.0518 119.197C81.9395 119.027 81.7772 118.903 81.5648 118.824C81.3555 118.742 81.1022 118.701 80.8049 118.701H79.913V126H77.3828ZM82.8436 121.722L85.1735 126H82.4249L80.1496 121.722H82.8436ZM89.178 126.127C88.4317 126.127 87.7885 125.985 87.2485 125.7C86.7116 125.411 86.2975 124.999 86.0062 124.462C85.718 123.922 85.5739 123.276 85.5739 122.523C85.5739 121.801 85.7195 121.17 86.0108 120.63C86.302 120.09 86.7131 119.67 87.244 119.37C87.7749 119.069 88.4014 118.919 89.1234 118.919C89.6513 118.919 90.1291 119.001 90.5568 119.165C90.9846 119.329 91.3501 119.567 91.6535 119.879C91.9569 120.189 92.1905 120.565 92.3543 121.008C92.5181 121.451 92.6 121.95 92.6 122.505V123.088H86.3566V121.704H90.2883C90.2853 121.504 90.2337 121.328 90.1336 121.176C90.0365 121.022 89.9046 120.902 89.7377 120.817C89.5739 120.729 89.3873 120.685 89.178 120.685C88.9747 120.685 88.7882 120.729 88.6183 120.817C88.4484 120.902 88.3119 121.02 88.2087 121.172C88.1086 121.324 88.0555 121.501 88.0494 121.704V123.197C88.0494 123.421 88.0965 123.622 88.1905 123.798C88.2846 123.973 88.4196 124.112 88.5955 124.212C88.7715 124.312 88.9838 124.362 89.2326 124.362C89.4055 124.362 89.5633 124.338 89.7059 124.289C89.8515 124.24 89.9759 124.171 90.079 124.08C90.1822 123.986 90.258 123.873 90.3065 123.743H92.6C92.5212 124.228 92.3346 124.65 92.0403 125.008C91.746 125.363 91.3562 125.639 90.8708 125.836C90.3884 126.03 89.8242 126.127 89.178 126.127ZM93.5887 126V116.68H96.1006V120.23H96.137C96.228 119.993 96.3615 119.776 96.5374 119.579C96.7134 119.379 96.9318 119.22 97.1927 119.101C97.4536 118.98 97.757 118.919 98.1028 118.919C98.564 118.919 99.0023 119.042 99.418 119.288C99.8366 119.534 100.176 119.92 100.437 120.448C100.701 120.976 100.833 121.662 100.833 122.505C100.833 123.312 100.707 123.981 100.456 124.512C100.207 125.043 99.873 125.439 99.4544 125.7C99.0388 125.961 98.5822 126.091 98.0846 126.091C97.757 126.091 97.4642 126.038 97.2064 125.932C96.9515 125.823 96.7331 125.675 96.5511 125.49C96.3721 125.302 96.2341 125.09 96.137 124.853H96.0824V126H93.5887ZM96.046 122.505C96.046 122.845 96.09 123.139 96.1779 123.388C96.269 123.634 96.3964 123.825 96.5602 123.961C96.727 124.095 96.9258 124.162 97.1563 124.162C97.3869 124.162 97.5826 124.096 97.7433 123.966C97.9072 123.832 98.0316 123.643 98.1165 123.397C98.2045 123.148 98.2485 122.851 98.2485 122.505C98.2485 122.159 98.2045 121.864 98.1165 121.618C98.0316 121.369 97.9072 121.179 97.7433 121.049C97.5826 120.915 97.3869 120.849 97.1563 120.849C96.9258 120.849 96.727 120.915 96.5602 121.049C96.3964 121.179 96.269 121.369 96.1779 121.618C96.09 121.864 96.046 122.159 96.046 122.505ZM103.832 126.109C103.386 126.109 102.992 126.036 102.649 125.891C102.309 125.742 102.042 125.518 101.848 125.217C101.654 124.917 101.557 124.535 101.557 124.071C101.557 123.688 101.622 123.362 101.752 123.092C101.883 122.819 102.065 122.596 102.299 122.423C102.532 122.25 102.804 122.118 103.113 122.027C103.426 121.936 103.762 121.877 104.123 121.85C104.515 121.82 104.829 121.783 105.065 121.741C105.305 121.695 105.478 121.633 105.584 121.554C105.69 121.472 105.743 121.364 105.743 121.231V121.213C105.743 121.031 105.674 120.891 105.534 120.794C105.394 120.697 105.215 120.648 104.997 120.648C104.757 120.648 104.562 120.702 104.41 120.808C104.261 120.911 104.172 121.07 104.141 121.286H101.83C101.86 120.861 101.995 120.47 102.235 120.112C102.477 119.751 102.831 119.462 103.295 119.247C103.759 119.028 104.339 118.919 105.033 118.919C105.534 118.919 105.983 118.978 106.38 119.097C106.778 119.212 107.116 119.374 107.395 119.584C107.674 119.79 107.887 120.033 108.032 120.312C108.181 120.588 108.255 120.888 108.255 121.213V126H105.907V125.017H105.853C105.713 125.278 105.543 125.489 105.343 125.65C105.146 125.81 104.92 125.927 104.665 126C104.413 126.073 104.135 126.109 103.832 126.109ZM104.651 124.526C104.842 124.526 105.021 124.486 105.188 124.407C105.358 124.328 105.496 124.215 105.602 124.066C105.708 123.917 105.762 123.737 105.762 123.524V122.942C105.695 122.969 105.623 122.995 105.548 123.019C105.475 123.044 105.396 123.066 105.311 123.088C105.229 123.109 105.141 123.129 105.047 123.147C104.956 123.165 104.86 123.182 104.76 123.197C104.566 123.227 104.407 123.277 104.283 123.347C104.161 123.414 104.07 123.497 104.01 123.597C103.952 123.694 103.923 123.804 103.923 123.925C103.923 124.119 103.991 124.268 104.128 124.371C104.264 124.474 104.439 124.526 104.651 124.526ZM113.624 119.01V120.831H109.019V119.01H113.624ZM109.911 117.336H112.422V123.752C112.422 123.849 112.439 123.931 112.472 123.998C112.506 124.061 112.557 124.11 112.627 124.143C112.697 124.174 112.786 124.189 112.896 124.189C112.972 124.189 113.06 124.18 113.16 124.162C113.263 124.143 113.339 124.128 113.387 124.116L113.751 125.882C113.639 125.915 113.478 125.956 113.269 126.005C113.063 126.053 112.817 126.085 112.532 126.1C111.955 126.13 111.471 126.071 111.08 125.923C110.689 125.771 110.394 125.533 110.197 125.208C110 124.884 109.904 124.477 109.911 123.989V117.336ZM117.923 126.127C117.177 126.127 116.534 125.985 115.994 125.7C115.457 125.411 115.042 124.999 114.751 124.462C114.463 123.922 114.319 123.276 114.319 122.523C114.319 121.801 114.465 121.17 114.756 120.63C115.047 120.09 115.458 119.67 115.989 119.37C116.52 119.069 117.146 118.919 117.868 118.919C118.396 118.919 118.874 119.001 119.302 119.165C119.73 119.329 120.095 119.567 120.398 119.879C120.702 120.189 120.935 120.565 121.099 121.008C121.263 121.451 121.345 121.95 121.345 122.505V123.088H115.102V121.704H119.033C119.03 121.504 118.979 121.328 118.879 121.176C118.782 121.022 118.65 120.902 118.483 120.817C118.319 120.729 118.132 120.685 117.923 120.685C117.72 120.685 117.533 120.729 117.363 120.817C117.193 120.902 117.057 121.02 116.954 121.172C116.854 121.324 116.8 121.501 116.794 121.704V123.197C116.794 123.421 116.841 123.622 116.935 123.798C117.03 123.973 117.165 124.112 117.34 124.212C117.516 124.312 117.729 124.362 117.978 124.362C118.15 124.362 118.308 124.338 118.451 124.289C118.596 124.24 118.721 124.171 118.824 124.08C118.927 123.986 119.003 123.873 119.052 123.743H121.345C121.266 124.228 121.08 124.65 120.785 125.008C120.491 125.363 120.101 125.639 119.616 125.836C119.133 126.03 118.569 126.127 117.923 126.127ZM128.759 121.286H126.447C126.435 121.143 126.385 121.02 126.297 120.917C126.209 120.814 126.095 120.735 125.956 120.68C125.819 120.623 125.668 120.594 125.501 120.594C125.285 120.594 125.1 120.633 124.946 120.712C124.791 120.791 124.715 120.903 124.718 121.049C124.715 121.152 124.759 121.248 124.85 121.336C124.944 121.424 125.125 121.492 125.392 121.54L126.811 121.795C127.527 121.926 128.06 122.146 128.409 122.455C128.761 122.761 128.938 123.173 128.941 123.688C128.938 124.186 128.789 124.618 128.495 124.985C128.204 125.349 127.805 125.631 127.298 125.832C126.795 126.029 126.22 126.127 125.574 126.127C124.506 126.127 123.67 125.909 123.066 125.472C122.466 125.035 122.13 124.459 122.061 123.743H124.554C124.588 123.964 124.697 124.136 124.882 124.257C125.07 124.375 125.307 124.435 125.592 124.435C125.822 124.435 126.012 124.395 126.161 124.316C126.312 124.237 126.39 124.125 126.393 123.98C126.39 123.846 126.323 123.74 126.193 123.661C126.065 123.582 125.865 123.518 125.592 123.47L124.354 123.251C123.641 123.127 123.107 122.89 122.752 122.542C122.397 122.193 122.221 121.744 122.224 121.195C122.221 120.709 122.349 120.298 122.607 119.961C122.868 119.622 123.239 119.364 123.722 119.188C124.207 119.009 124.782 118.919 125.446 118.919C126.456 118.919 127.253 119.129 127.835 119.547C128.421 119.966 128.729 120.545 128.759 121.286Z" fill="white"/>
</svg>
